<svg width="24" height="24" viewBox="0 0 24 24" fill="none" xmlns="http://www.w3.org/2000/svg">
   <path
      d="M10.205 20.7894V14.4487H8.24638V11.535H10.205V10.2795C10.205 7.03367 11.668 5.52953 14.8425 5.52953C15.16 5.52953 15.5986 5.5629 16.0047 5.61137C16.3088 5.64351 16.6105 5.69526 16.908 5.76631V8.40829C16.7361 8.39247 16.5637 8.38293 16.391 8.37968C16.1977 8.37467 16.0042 8.37228 15.8107 8.37253C15.251 8.37253 14.814 8.44881 14.4847 8.61806C14.2636 8.73003 14.0776 8.90105 13.9472 9.11229C13.7429 9.44601 13.6511 9.90289 13.6511 10.5044V11.535H16.7536L16.448 13.206L16.2208 14.4487H13.6511V21C18.3552 20.4295 22 16.4097 22 11.535C22 6.26928 17.7464 2 12.5 2C7.25363 2 3 6.26928 3 11.535C3 16.0069 6.06692 19.7589 10.205 20.7894Z"
      fill="white" />
</svg>