<svg width="16" height="16" viewBox="0 0 16 16" fill="none" xmlns="http://www.w3.org/2000/svg">
   <path
      d="M8.00004 14.6666C7.08893 14.6666 6.22782 14.4915 5.41671 14.1413C4.6056 13.7911 3.89737 13.3133 3.29204 12.708C2.68671 12.1026 2.20893 11.3944 1.85871 10.5833C1.50849 9.7722 1.33337 8.91109 1.33337 7.99998C1.33337 7.07776 1.50849 6.21398 1.85871 5.40865C2.20893 4.60331 2.68671 3.89776 3.29204 3.29198C3.89737 2.6862 4.6056 2.20842 5.41671 1.85865C6.22782 1.50887 7.08893 1.33376 8.00004 1.33331C8.92226 1.33331 9.78626 1.50842 10.592 1.85865C11.3978 2.20887 12.1032 2.68665 12.708 3.29198C13.3129 3.89731 13.7907 4.60287 14.1414 5.40865C14.492 6.21442 14.6672 7.0782 14.6667 7.99998C14.6667 8.91109 14.4916 9.7722 14.1414 10.5833C13.7912 11.3944 13.3134 12.1029 12.708 12.7086C12.1027 13.3144 11.3972 13.7922 10.5914 14.142C9.7856 14.4918 8.92182 14.6666 8.00004 14.6666ZM8.00004 13.3C8.28893 12.9 8.53893 12.4833 8.75004 12.05C8.96115 11.6166 9.13337 11.1555 9.26671 10.6666H6.73337C6.86671 11.1555 7.03893 11.6166 7.25004 12.05C7.46115 12.4833 7.71115 12.9 8.00004 13.3ZM6.26671 13.0333C6.06671 12.6666 5.89182 12.286 5.74204 11.8913C5.59226 11.4966 5.46715 11.0884 5.36671 10.6666H3.40004C3.72226 11.2222 4.12515 11.7055 4.60871 12.1166C5.09226 12.5278 5.64493 12.8333 6.26671 13.0333ZM9.73337 13.0333C10.3556 12.8333 10.9085 12.5278 11.392 12.1166C11.8756 11.7055 12.2783 11.2222 12.6 10.6666H10.6334C10.5334 11.0889 10.4085 11.4973 10.2587 11.892C10.1089 12.2866 9.93382 12.6671 9.73337 13.0333ZM2.83337 9.33331H5.10004C5.06671 9.11109 5.04182 8.89176 5.02537 8.67531C5.00893 8.45887 5.00049 8.23376 5.00004 7.99998C4.9996 7.7662 5.00804 7.54131 5.02537 7.32531C5.04271 7.10931 5.0676 6.88976 5.10004 6.66665H2.83337C2.77782 6.88887 2.73626 7.10842 2.70871 7.32531C2.68115 7.5422 2.66715 7.76709 2.66671 7.99998C2.66626 8.23287 2.68026 8.45798 2.70871 8.67531C2.73715 8.89265 2.77871 9.11198 2.83337 9.33331ZM6.43337 9.33331H9.56671C9.60004 9.11109 9.62515 8.89176 9.64204 8.67531C9.65893 8.45887 9.66715 8.23376 9.66671 7.99998C9.66626 7.7662 9.65782 7.54131 9.64137 7.32531C9.62493 7.10931 9.60004 6.88976 9.56671 6.66665H6.43337C6.40004 6.88887 6.37515 7.10842 6.35871 7.32531C6.34226 7.5422 6.33382 7.76709 6.33337 7.99998C6.33293 8.23287 6.34137 8.45798 6.35871 8.67531C6.37604 8.89265 6.40093 9.11198 6.43337 9.33331ZM10.9 9.33331H13.1667C13.2223 9.11109 13.264 8.89176 13.292 8.67531C13.32 8.45887 13.3338 8.23376 13.3334 7.99998C13.3329 7.7662 13.3192 7.54131 13.292 7.32531C13.2649 7.10931 13.2232 6.88976 13.1667 6.66665H10.9C10.9334 6.88887 10.9585 7.10842 10.9754 7.32531C10.9923 7.5422 11.0005 7.76709 11 7.99998C10.9996 8.23287 10.9912 8.45798 10.9747 8.67531C10.9583 8.89265 10.9334 9.11198 10.9 9.33331ZM10.6334 5.33331H12.6C12.2778 4.77776 11.8752 4.29442 11.392 3.88331C10.9089 3.4722 10.356 3.16665 9.73337 2.96665C9.93337 3.33331 10.1085 3.71398 10.2587 4.10865C10.4089 4.50331 10.5338 4.91154 10.6334 5.33331ZM6.73337 5.33331H9.26671C9.13337 4.84442 8.96115 4.38331 8.75004 3.94998C8.53893 3.51665 8.28893 3.09998 8.00004 2.69998C7.71115 3.09998 7.46115 3.51665 7.25004 3.94998C7.03893 4.38331 6.86671 4.84442 6.73337 5.33331ZM3.40004 5.33331H5.36671C5.46671 4.91109 5.59182 4.50265 5.74204 4.10798C5.89226 3.71331 6.06715 3.33287 6.26671 2.96665C5.64448 3.16665 5.0916 3.4722 4.60804 3.88331C4.12449 4.29442 3.72182 4.77776 3.40004 5.33331Z"
      fill="white" />
</svg>