<svg width="16" height="16" viewBox="0 0 16 16" fill="none" xmlns="http://www.w3.org/2000/svg">
   <path
      d="M7.99999 1.33331C4.32399 1.33331 1.33333 4.32398 1.33333 7.99998V10.762C1.33333 11.4446 1.93133 12 2.66666 12H3.33333C3.51014 12 3.67971 11.9297 3.80473 11.8047C3.92976 11.6797 3.99999 11.5101 3.99999 11.3333V7.90465C3.99999 7.72784 3.92976 7.55827 3.80473 7.43324C3.67971 7.30822 3.51014 7.23798 3.33333 7.23798H2.72799C3.09866 4.65798 5.31866 2.66665 7.99999 2.66665C10.6813 2.66665 12.9013 4.65798 13.272 7.23798H12.6667C12.4899 7.23798 12.3203 7.30822 12.1953 7.43324C12.0702 7.55827 12 7.72784 12 7.90465V12C12 12.7353 11.402 13.3333 10.6667 13.3333H9.33333V12.6666H6.66666V14.6666H10.6667C12.1373 14.6666 13.3333 13.4706 13.3333 12C14.0687 12 14.6667 11.4446 14.6667 10.762V7.99998C14.6667 4.32398 11.676 1.33331 7.99999 1.33331Z"
      fill="white" />
</svg>