<svg width="16" height="16" viewBox="0 0 16 16" fill="none" xmlns="http://www.w3.org/2000/svg">
   <path
      d="M9.156 14.544C10.899 13.01 14 9.876 14 7C14 5.4087 13.3679 3.88258 12.2426 2.75736C11.1174 1.63214 9.5913 1 8 1C6.4087 1 4.88258 1.63214 3.75736 2.75736C2.63214 3.88258 2 5.4087 2 7C2 9.876 5.1 13.01 6.844 14.544C7.16211 14.8279 7.5736 14.9849 8 14.9849C8.4264 14.9849 8.83789 14.8279 9.156 14.544ZM6 7C6 6.46957 6.21071 5.96086 6.58579 5.58579C6.96086 5.21071 7.46957 5 8 5C8.53043 5 9.03914 5.21071 9.41421 5.58579C9.78929 5.96086 10 6.46957 10 7C10 7.53043 9.78929 8.03914 9.41421 8.41421C9.03914 8.78929 8.53043 9 8 9C7.46957 9 6.96086 8.78929 6.58579 8.41421C6.21071 8.03914 6 7.53043 6 7Z"
      fill="white" />
</svg>