<svg width="24" height="24" viewBox="0 0 24 24" fill="none" xmlns="http://www.w3.org/2000/svg">
   <path
      d="M12 2C10.0222 2 8.08879 2.58649 6.4443 3.6853C4.79981 4.78412 3.51809 6.3459 2.76121 8.17317C2.00433 10.0004 1.8063 12.0111 2.19215 13.9509C2.578 15.8907 3.53041 17.6725 4.92894 19.0711C6.32746 20.4696 8.10929 21.422 10.0491 21.8079C11.9889 22.1937 13.9996 21.9957 15.8268 21.2388C17.6541 20.4819 19.2159 19.2002 20.3147 17.5557C21.4135 15.9112 22 13.9778 22 12C21.9974 9.34865 20.9429 6.80665 19.0681 4.93186C17.1934 3.05707 14.6514 2.00265 12 2ZM17.939 9.713V10.359C17.939 10.4084 17.9291 10.4574 17.9099 10.5029C17.8907 10.5485 17.8625 10.5897 17.8271 10.6242C17.7917 10.6587 17.7497 10.6858 17.7037 10.7038C17.6576 10.7218 17.6084 10.7303 17.559 10.729C16.5032 10.6544 15.493 10.2689 14.656 9.621V14.349C14.6558 14.8723 14.5513 15.3903 14.3487 15.8727C14.1461 16.3552 13.8494 16.7924 13.476 17.159C13.0995 17.5351 12.6517 17.8324 12.1589 18.0333C11.6661 18.2342 11.1382 18.3347 10.606 18.329C9.53587 18.3274 8.50876 17.9076 7.744 17.159C7.2574 16.6684 6.9069 16.0596 6.727 15.3924C6.5471 14.7252 6.544 14.0227 6.718 13.354C6.877 12.712 7.198 12.122 7.651 11.641C7.98883 11.2281 8.41468 10.8959 8.8974 10.6687C9.38012 10.4416 9.90751 10.3251 10.441 10.328H11.261V12.031C11.2614 12.0805 11.2512 12.1294 11.2311 12.1746C11.2111 12.2199 11.1816 12.2603 11.1447 12.2932C11.1078 12.3261 11.0643 12.3508 11.0171 12.3656C10.9699 12.3804 10.9201 12.385 10.871 12.379C10.3949 12.236 9.88186 12.2834 9.44004 12.5113C8.99822 12.7392 8.66214 13.1297 8.50265 13.6006C8.34315 14.0714 8.37269 14.5858 8.58505 15.0353C8.79742 15.4847 9.176 15.8342 9.641 16.01C9.911 16.165 10.213 16.256 10.523 16.277C10.763 16.287 11.003 16.257 11.231 16.185C11.6116 16.0566 11.9427 15.8126 12.1781 15.4871C12.4134 15.1616 12.5414 14.7707 12.544 14.369V5.754C12.544 5.6587 12.5818 5.56728 12.6491 5.49979C12.7164 5.43231 12.8077 5.39426 12.903 5.394H14.318C14.4099 5.39411 14.4984 5.4294 14.5651 5.49262C14.6319 5.55584 14.6719 5.6422 14.677 5.734C14.7286 6.17523 14.8687 6.6015 15.089 6.98727C15.3093 7.37303 15.6052 7.71035 15.959 7.979C16.4371 8.33789 17.0049 8.55796 17.6 8.615C17.6891 8.62262 17.7725 8.66228 17.8346 8.72663C17.8968 8.79098 17.9335 8.87566 17.938 8.965L17.939 9.713Z"
      fill="white" />
</svg>