<svg width="64" height="64" viewBox="0 0 64 64" fill="none" xmlns="http://www.w3.org/2000/svg">
<path d="M16.0395 33.3924C7.51467 38.3135 7.51467 46.2921 16.0405 51.2131C24.5663 56.1341 38.3848 56.1351 46.9086 51.2131C55.4324 46.2911 55.4324 38.3135 46.9086 33.3924C38.3848 28.4714 24.5633 28.4704 16.0395 33.3924Z" fill="#FAFAFA"/>
<path d="M29.86 38.974L11.785 49.4096C11.6866 49.4542 11.5792 49.4752 11.4713 49.4707C11.3635 49.4663 11.2581 49.4366 11.1638 49.384L9.98062 48.6938C9.79723 48.5873 9.77653 48.4266 9.93625 48.3349L28.0054 37.9042C28.1038 37.8594 28.2114 37.8384 28.3195 37.8429C28.4276 37.8473 28.5331 37.8771 28.6275 37.9298L29.8107 38.62C29.9951 38.7216 30.0187 38.8823 29.86 38.974Z" fill="#E0E0E0"/>
<path d="M42.0438 50.7742C45.9863 50.7742 49.1823 48.929 49.1823 46.6528C49.1823 44.3766 45.9863 42.5314 42.0438 42.5314C38.1013 42.5314 34.9053 44.3766 34.9053 46.6528C34.9053 48.929 38.1013 50.7742 42.0438 50.7742Z" fill="#E0E0E0"/>
<path d="M24.8412 51.7307L38.573 43.7994C38.7524 43.6959 38.7524 43.5273 38.573 43.4238L31.5982 39.401C31.4975 39.35 31.3862 39.3234 31.2733 39.3234C31.1604 39.3234 31.0491 39.35 30.9484 39.401L17.2166 47.3322C17.0372 47.4357 17.0372 47.6043 17.2166 47.7079L24.1915 51.7307C24.2922 51.7817 24.4035 51.8083 24.5163 51.8083C24.6292 51.8083 24.7405 51.7817 24.8412 51.7307Z" fill="#E0E0E0"/>
<path d="M45.9581 43.8172L47.5356 44.7263C47.5149 44.1643 47.4656 43.3291 47.5435 42.7661C48.0188 39.3261 49.3587 38.1922 49.9966 36.518C50.6671 34.7541 49.8487 34.1871 48.7859 34.5036C47.8373 34.7866 46.4658 36.1896 46.034 38.7571C45.7421 40.4649 45.7934 42.3195 45.9581 43.8172Z" fill="#43C857"/>
<path opacity="0.65" d="M45.9581 43.8172L47.5356 44.7263C47.5149 44.1643 47.4656 43.3291 47.5435 42.7661C48.0188 39.3261 49.3587 38.1922 49.9966 36.518C50.6671 34.7541 49.8487 34.1871 48.7859 34.5036C47.8373 34.7866 46.4658 36.1896 46.034 38.7571C45.7421 40.4649 45.7934 42.3195 45.9581 43.8172Z" fill="white"/>
<path d="M46.7921 44.2994L46.9498 44.3901C46.3868 40.3791 47.7583 36.8966 49.1111 35.464C49.1177 35.4576 49.1229 35.4499 49.1264 35.4414C49.13 35.433 49.1318 35.4239 49.1318 35.4147C49.1318 35.4055 49.13 35.3964 49.1264 35.388C49.1229 35.3795 49.1177 35.3718 49.1111 35.3654C49.098 35.3524 49.0803 35.3451 49.0618 35.3451C49.0433 35.3451 49.0256 35.3524 49.0125 35.3654C47.6588 36.8069 46.2873 40.3091 46.7921 44.2994Z" fill="white"/>
<path d="M47.0898 44.4709L47.9772 44.9826C48.4475 43.5953 48.9317 43.0402 49.5321 42.1282C50.0793 41.299 50.7153 40.7843 51.0535 40.2016C51.3493 39.6849 51.577 39.0361 51.1324 38.6427C50.4244 38.0176 49.5006 38.6792 48.8646 39.394C48.3154 40.0123 47.2111 41.6569 47.0898 44.4709Z" fill="#43C857"/>
<path opacity="0.3" d="M47.0898 44.4709L47.9772 44.9826C48.4475 43.5953 48.9317 43.0402 49.5321 42.1282C50.0793 41.299 50.7153 40.7843 51.0535 40.2016C51.3493 39.6849 51.577 39.0361 51.1324 38.6427C50.4244 38.0176 49.5006 38.6792 48.8646 39.394C48.3154 40.0123 47.2111 41.6569 47.0898 44.4709Z" fill="white"/>
<path d="M47.4526 44.6809L47.5818 44.7558C47.9535 42.563 49.4433 40.0231 50.3692 39.4256C50.3771 39.4205 50.3838 39.4139 50.3891 39.4062C50.3944 39.3984 50.3981 39.3897 50.3999 39.3805C50.4017 39.3713 50.4017 39.3618 50.3998 39.3526C50.3979 39.3435 50.3942 39.3347 50.3889 39.327C50.384 39.3189 50.3775 39.312 50.3698 39.3065C50.3621 39.3011 50.3533 39.2972 50.3441 39.2953C50.3348 39.2934 50.3253 39.2933 50.316 39.2952C50.3068 39.2971 50.298 39.3009 50.2903 39.3063C49.3339 39.9245 47.848 42.4536 47.4526 44.6809Z" fill="white"/>
<path d="M27.7855 9.26048L11.1895 18.8314C11.099 18.8902 11.0237 18.9695 10.9698 19.0629C10.9158 19.1562 10.8847 19.2611 10.8789 19.3688V48.1733C10.8847 48.2808 10.9158 48.3855 10.9698 48.4788C11.0238 48.572 11.0991 48.6511 11.1895 48.7096L11.2526 48.7461C11.3491 48.7948 11.4556 48.8202 11.5637 48.8202C11.6717 48.8202 11.7783 48.7948 11.8747 48.7461L28.4708 39.1634C28.5613 39.1046 28.6366 39.0253 28.6905 38.9319C28.7445 38.8385 28.7756 38.7337 28.7814 38.626V9.83235C28.7755 9.7247 28.7441 9.61999 28.69 9.52677C28.6358 9.43354 28.5604 9.35446 28.4698 9.29597L28.4067 9.26048C28.3104 9.21193 28.204 9.18665 28.0961 9.18665C27.9883 9.18665 27.8819 9.21193 27.7855 9.26048Z" fill="#43C857"/>
<path opacity="0.45" d="M27.7855 9.26048L11.1895 18.8314C11.099 18.8902 11.0237 18.9695 10.9698 19.0629C10.9158 19.1562 10.8847 19.2611 10.8789 19.3688V48.1733C10.8847 48.2808 10.9158 48.3855 10.9698 48.4788C11.0238 48.572 11.0991 48.6511 11.1895 48.7096L11.2526 48.7461C11.3491 48.7948 11.4556 48.8202 11.5637 48.8202C11.6717 48.8202 11.7783 48.7948 11.8747 48.7461L28.4708 39.1634C28.5613 39.1046 28.6366 39.0253 28.6905 38.9319C28.7445 38.8385 28.7756 38.7337 28.7814 38.626V9.83235C28.7755 9.7247 28.7441 9.61999 28.69 9.52677C28.6358 9.43354 28.5604 9.35446 28.4698 9.29597L28.4067 9.26048C28.3104 9.21193 28.204 9.18665 28.0961 9.18665C27.9883 9.18665 27.8819 9.21193 27.7855 9.26048Z" fill="black"/>
<path d="M28.7812 38.6428C28.7812 38.9149 28.5889 39.0894 28.3523 39.2255L11.9929 48.6741C11.7562 48.8102 11.564 48.7008 11.564 48.4267V19.8953C11.5641 19.7454 11.6036 19.5982 11.6785 19.4684C11.7534 19.3386 11.8612 19.2308 11.9909 19.1558L28.3513 9.70713C28.3945 9.68227 28.4435 9.66911 28.4934 9.66895C28.5433 9.66879 28.5923 9.68164 28.6357 9.70622C28.6791 9.73081 28.7154 9.76629 28.7409 9.80915C28.7664 9.85202 28.7803 9.90079 28.7812 9.95067V38.6428Z" fill="#43C857"/>
<path opacity="0.3" d="M28.7812 38.6428C28.7812 38.9149 28.5889 39.0894 28.3523 39.2255L11.9929 48.6741C11.7562 48.8102 11.564 48.7008 11.564 48.4267V19.8953C11.5641 19.7454 11.6036 19.5982 11.6785 19.4684C11.7534 19.3386 11.8612 19.2308 11.9909 19.1558L28.3513 9.70713C28.3945 9.68227 28.4435 9.66911 28.4934 9.66895C28.5433 9.66879 28.5923 9.68164 28.6357 9.70622C28.6791 9.73081 28.7154 9.76629 28.7409 9.80915C28.7664 9.85202 28.7803 9.90079 28.7812 9.95067V38.6428Z" fill="black"/>
<path d="M28.7815 9.83235V9.95066C28.7813 9.90046 28.7679 9.85119 28.7427 9.80778C28.7175 9.76437 28.6813 9.72834 28.6378 9.70329C28.5943 9.67824 28.5449 9.66504 28.4947 9.66502C28.4445 9.66501 28.3952 9.67816 28.3516 9.70318L11.9912 19.1558C11.8608 19.23 11.7529 19.338 11.6787 19.4684C11.6783 19.4713 11.6783 19.4743 11.6787 19.4772L10.9658 19.069C11.0181 18.972 11.095 18.8904 11.1887 18.8324L27.7857 9.26048C27.882 9.21193 27.9884 9.18665 28.0963 9.18665C28.2042 9.18665 28.3105 9.21193 28.4069 9.26048L28.47 9.29597C28.5605 9.35446 28.636 9.43354 28.6901 9.52677C28.7443 9.61999 28.7756 9.7247 28.7815 9.83235Z" fill="#43C857"/>
<path opacity="0.2" d="M28.7815 9.83235V9.95066C28.7813 9.90046 28.7679 9.85119 28.7427 9.80778C28.7175 9.76437 28.6813 9.72834 28.6378 9.70329C28.5943 9.67824 28.5449 9.66504 28.4947 9.66502C28.4445 9.66501 28.3952 9.67816 28.3516 9.70318L11.9912 19.1558C11.8608 19.23 11.7529 19.338 11.6787 19.4684C11.6783 19.4713 11.6783 19.4743 11.6787 19.4772L10.9658 19.069C11.0181 18.972 11.095 18.8904 11.1887 18.8324L27.7857 9.26048C27.882 9.21193 27.9884 9.18665 28.0963 9.18665C28.2042 9.18665 28.3105 9.21193 28.4069 9.26048L28.47 9.29597C28.5605 9.35446 28.636 9.43354 28.6901 9.52677C28.7443 9.61999 28.7756 9.7247 28.7815 9.83235Z" fill="black"/>
<path opacity="0.25" d="M28.3764 37.3896C28.3764 37.6706 28.1792 37.85 27.9347 37.99L12.4725 46.9171C12.2299 47.0581 12.0308 46.9437 12.0308 46.6618V21.4778C12.0308 21.3233 12.0714 21.1716 12.1486 21.0378C12.2258 20.9041 12.3368 20.7929 12.4705 20.7156L27.9347 11.7846C27.9795 11.7592 28.0302 11.7459 28.0818 11.7461C28.1334 11.7463 28.184 11.76 28.2286 11.7858C28.2733 11.8116 28.3104 11.8487 28.3363 11.8932C28.3622 11.9378 28.376 11.9884 28.3764 12.04V37.3896Z" fill="black"/>
<path d="M12.427 21.0511L27.832 12.1565C27.8731 12.136 27.9183 12.1254 27.9642 12.1254C28.01 12.1254 28.0552 12.136 28.0963 12.1565L28.2452 12.2423C28.2831 12.2676 28.3147 12.3013 28.3374 12.3408C28.3602 12.3803 28.3735 12.4246 28.3763 12.4701V37.7792C28.3735 37.8247 28.3602 37.869 28.3374 37.9085C28.3147 37.948 28.2831 37.9817 28.2452 38.007L12.8392 46.9016C12.7985 46.9225 12.7533 46.9334 12.7076 46.9334C12.6618 46.9334 12.6166 46.9225 12.5759 46.9016L12.427 46.8158C12.3888 46.7905 12.357 46.7567 12.334 46.717C12.3111 46.6773 12.2977 46.6328 12.2949 46.587V21.2788C12.2974 21.2331 12.3107 21.1887 12.3336 21.1491C12.3566 21.1095 12.3886 21.0759 12.427 21.0511Z" fill="#F5F5F5"/>
<path d="M12.8076 46.9162C12.792 46.9221 12.7758 46.9264 12.7593 46.929H12.7337C12.7071 46.932 12.6804 46.932 12.6538 46.929C12.637 46.9264 12.6205 46.9221 12.6045 46.9162L12.5759 46.9014L12.427 46.8166C12.3888 46.7914 12.357 46.7575 12.334 46.7178C12.3111 46.6781 12.2977 46.6336 12.2949 46.5879V21.2797C12.2964 21.2336 12.31 21.1887 12.3344 21.1495L12.7465 21.3881C12.7228 21.4276 12.7093 21.4723 12.7071 21.5183V46.8265C12.7071 46.8975 12.7504 46.933 12.8076 46.9162Z" fill="#E0E0E0"/>
<path d="M28.2452 12.2423L28.0963 12.1565C28.0552 12.136 28.01 12.1254 27.9642 12.1254C27.9183 12.1254 27.8731 12.136 27.832 12.1565L12.427 21.0511C12.3886 21.0759 12.3566 21.1095 12.3336 21.1491C12.3107 21.1887 12.2974 21.2331 12.2949 21.2788V24.6933L12.7071 24.9378L28.3763 15.8865V12.4701C28.3735 12.4246 28.3602 12.3803 28.3374 12.3408C28.3147 12.3013 28.2831 12.2676 28.2452 12.2423Z" fill="#43C857"/>
<path opacity="0.4" d="M28.2452 12.2423L28.0963 12.1565C28.0552 12.136 28.01 12.1254 27.9642 12.1254C27.9183 12.1254 27.8731 12.136 27.832 12.1565L12.427 21.0511C12.3886 21.0759 12.3566 21.1095 12.3336 21.1491C12.3107 21.1887 12.2974 21.2331 12.2949 21.2788V24.6933L12.7071 24.9378L28.3763 15.8865V12.4701C28.3735 12.4246 28.3602 12.3803 28.3374 12.3408C28.3147 12.3013 28.2831 12.2676 28.2452 12.2423Z" fill="white"/>
<path d="M28.3715 12.4305C28.3557 12.3762 28.3054 12.3595 28.2453 12.394L12.8393 21.2895C12.8003 21.3137 12.7684 21.3477 12.7466 21.3881L12.3345 21.1505C12.356 21.1099 12.388 21.0759 12.4272 21.0519L27.8331 12.1564C27.8737 12.1354 27.9186 12.1245 27.9643 12.1245C28.0099 12.1245 28.0549 12.1354 28.0954 12.1564L28.2453 12.2421C28.2779 12.2634 28.3059 12.291 28.3276 12.3234C28.3493 12.3558 28.3642 12.3922 28.3715 12.4305Z" fill="#43C857"/>
<path opacity="0.6" d="M28.3715 12.4305C28.3557 12.3762 28.3054 12.3595 28.2453 12.394L12.8393 21.2895C12.8003 21.3137 12.7684 21.3477 12.7466 21.3881L12.3345 21.1505C12.356 21.1099 12.388 21.0759 12.4272 21.0519L27.8331 12.1564C27.8737 12.1354 27.9186 12.1245 27.9643 12.1245C28.0099 12.1245 28.0549 12.1354 28.0954 12.1564L28.2453 12.2421C28.2779 12.2634 28.3059 12.291 28.3276 12.3234C28.3493 12.3558 28.3642 12.3922 28.3715 12.4305Z" fill="white"/>
<path d="M12.2949 21.2797V24.6951L12.7071 24.9377V21.5173C12.709 21.4713 12.7226 21.4265 12.7465 21.3872L12.3344 21.1495C12.3097 21.1886 12.2961 21.2335 12.2949 21.2797Z" fill="#43C857"/>
<path d="M15.8318 25.965L25.2696 20.5007C25.311 20.477 25.3445 20.5007 25.3445 20.5441V20.6427C25.3433 20.6688 25.3358 20.6942 25.3228 20.7168C25.3097 20.7394 25.2915 20.7586 25.2696 20.7728L15.8318 26.2371C15.7904 26.2608 15.7568 26.2371 15.7568 26.1938V26.0952C15.7584 26.0691 15.766 26.0439 15.779 26.0213C15.792 25.9987 15.8101 25.9794 15.8318 25.965Z" fill="#43C857"/>
<path d="M16.2153 30.0163V30.1534C16.2153 30.2283 16.2676 30.2589 16.3317 30.2214L22.5513 26.6354C22.5855 26.6132 22.6139 26.5832 22.6343 26.5479C22.6547 26.5126 22.6664 26.473 22.6686 26.4323V26.2942C22.6686 26.2193 22.6163 26.1887 22.5513 26.2262L16.3317 29.8132C16.2978 29.8356 16.2696 29.8657 16.2494 29.901C16.2292 29.9362 16.2175 29.9757 16.2153 30.0163Z" fill="#E0E0E0"/>
<path d="M16.2153 30.885V31.0221C16.2153 31.097 16.2676 31.1276 16.3317 31.0901L27.0148 24.9257C27.0482 24.9041 27.0761 24.875 27.0965 24.8408C27.1168 24.8066 27.129 24.7682 27.1321 24.7286V24.5905C27.1321 24.5156 27.0789 24.485 27.0148 24.5225L16.3317 30.6819C16.2978 30.7043 16.2696 30.7344 16.2494 30.7697C16.2292 30.8049 16.2175 30.8444 16.2153 30.885Z" fill="#E0E0E0"/>
<path d="M16.2153 31.7113V31.8493C16.2153 31.9243 16.2676 31.9538 16.3317 31.9164L27.0148 25.753C27.0488 25.7306 27.0772 25.7006 27.0975 25.6654C27.1179 25.6301 27.1298 25.5906 27.1321 25.5499V25.4119C27.1321 25.3369 27.0789 25.3073 27.0148 25.3438L16.3317 31.5082C16.2978 31.5306 16.2696 31.5607 16.2494 31.5959C16.2292 31.6312 16.2175 31.6707 16.2153 31.7113Z" fill="#E0E0E0"/>
<path d="M13.7906 33.4377C13.7748 33.4375 13.7596 33.431 13.7484 33.4198C13.7371 33.4086 13.7307 33.3934 13.7305 33.3776V31.3829C13.7303 31.3724 13.7329 31.362 13.7381 31.3528C13.7433 31.3436 13.7509 31.336 13.7601 31.3307L15.4757 30.3447C15.4848 30.3395 15.4951 30.3368 15.5056 30.3369C15.5161 30.337 15.5264 30.3398 15.5355 30.3451C15.5446 30.3504 15.5521 30.3579 15.5574 30.367C15.5626 30.3761 15.5654 30.3864 15.5654 30.3969V32.3916C15.5653 32.4021 15.5624 32.4124 15.557 32.4214C15.5517 32.4304 15.544 32.4378 15.5348 32.4429L13.8251 33.4288C13.815 33.4356 13.8028 33.4387 13.7906 33.4377ZM13.8508 31.4174V33.2731L15.4451 32.3522V30.4965L13.8508 31.4174Z" fill="#455A64"/>
<path d="M14.6269 32.505L14.2275 32.1214L14.3606 31.8385L14.5884 32.0574L15.5714 29.976L15.743 30.1416L14.6269 32.505Z" fill="#43C857"/>
<path d="M16.2153 33.139V33.2771C16.2153 33.352 16.2676 33.3816 16.3317 33.3441L22.5513 29.7581C22.5855 29.7359 22.6139 29.7059 22.6343 29.6706C22.6547 29.6353 22.6664 29.5957 22.6686 29.555V29.4169C22.6686 29.343 22.6163 29.3124 22.5513 29.3499L16.3317 32.9359C16.2978 32.9583 16.2696 32.9884 16.2494 33.0237C16.2292 33.0589 16.2175 33.0984 16.2153 33.139Z" fill="#E0E0E0"/>
<path d="M16.2153 34.0085V34.1466C16.2153 34.2215 16.2676 34.2511 16.3317 34.2136L27.0148 28.0503C27.0497 28.0282 27.0789 27.9983 27.1 27.9628C27.121 27.9273 27.1334 27.8873 27.1361 27.8462V27.7081C27.1361 27.6332 27.0828 27.6036 27.0187 27.6401L16.3317 33.8044C16.2976 33.827 16.2694 33.8572 16.2492 33.8926C16.229 33.9281 16.2174 33.9678 16.2153 34.0085Z" fill="#E0E0E0"/>
<path d="M16.2153 34.8348V34.9719C16.2153 35.0468 16.2676 35.0774 16.3317 35.0399L27.0148 28.8755C27.0488 28.8532 27.0772 28.8231 27.0975 28.7879C27.1179 28.7526 27.1298 28.7131 27.1321 28.6724V28.5344C27.1321 28.4604 27.0789 28.4299 27.0148 28.4673L16.3317 34.6317C16.2978 34.6541 16.2696 34.6842 16.2494 34.7194C16.2292 34.7547 16.2175 34.7942 16.2153 34.8348Z" fill="#E0E0E0"/>
<path d="M13.7906 36.5603C13.78 36.5602 13.7695 36.5574 13.7601 36.5524C13.7509 36.5471 13.7433 36.5395 13.7381 36.5303C13.7329 36.5211 13.7303 36.5107 13.7305 36.5002V34.5016C13.7303 34.491 13.7329 34.4806 13.7381 34.4714C13.7433 34.4622 13.7509 34.4546 13.7601 34.4493L15.4757 33.4633C15.4848 33.4582 15.4951 33.4555 15.5056 33.4556C15.5161 33.4556 15.5264 33.4585 15.5355 33.4637C15.5446 33.469 15.5521 33.4766 15.5574 33.4857C15.5626 33.4948 15.5654 33.5051 15.5654 33.5156V35.5102C15.5654 35.5209 15.5625 35.5313 15.5572 35.5405C15.5518 35.5497 15.5441 35.5573 15.5348 35.5625L13.8251 36.5524C13.8146 36.5583 13.8026 36.561 13.7906 36.5603ZM13.8508 34.54V36.3957L15.4451 35.4757V33.6201L13.8508 34.54Z" fill="#455A64"/>
<path d="M14.6269 35.6275L14.2275 35.244L14.3606 34.961L14.5884 35.1799L15.5714 33.0995L15.743 33.2641L14.6269 35.6275Z" fill="#43C857"/>
<path d="M16.2153 36.2625V36.3996C16.2153 36.4745 16.2676 36.5051 16.3317 36.4676L22.5513 32.8806C22.5854 32.8586 22.6139 32.8289 22.6343 32.7937C22.6547 32.7586 22.6665 32.7191 22.6686 32.6785V32.5405C22.6686 32.4655 22.6163 32.435 22.5513 32.4724L16.3317 36.0594C16.2978 36.0819 16.2696 36.1119 16.2494 36.1472C16.2292 36.1824 16.2175 36.222 16.2153 36.2625Z" fill="#E0E0E0"/>
<path d="M16.2153 37.1302V37.2682C16.2153 37.3432 16.2676 37.3737 16.3317 37.3363L27.0148 31.1719C27.0488 31.1495 27.0772 31.1195 27.0975 31.0843C27.1179 31.049 27.1298 31.0095 27.1321 30.9688V30.8308C27.1321 30.7568 27.0789 30.7262 27.0148 30.7637L16.3317 36.9281C16.2978 36.9503 16.2697 36.9802 16.2495 37.0153C16.2293 37.0504 16.2176 37.0898 16.2153 37.1302Z" fill="#E0E0E0"/>
<path d="M16.2153 37.9575V38.0955C16.2153 38.1694 16.2676 38.2 16.3317 38.1625L27.0148 31.9992C27.0488 31.9768 27.0772 31.9468 27.0975 31.9115C27.1179 31.8763 27.1298 31.8367 27.1321 31.7961V31.658C27.1321 31.5831 27.0789 31.5525 27.0148 31.59L16.3317 37.7553C16.2979 37.7777 16.2698 37.8075 16.2496 37.8426C16.2294 37.8777 16.2177 37.917 16.2153 37.9575Z" fill="#E0E0E0"/>
<path d="M13.7906 39.683C13.7799 39.6833 13.7693 39.6805 13.7601 39.6751C13.7509 39.6698 13.7433 39.6622 13.7381 39.653C13.7329 39.6438 13.7303 39.6334 13.7305 39.6228V37.6292C13.7303 37.6186 13.7329 37.6082 13.7381 37.599C13.7433 37.5898 13.7509 37.5822 13.7601 37.5769L15.4757 36.586C15.4849 36.5809 15.4952 36.5782 15.5057 36.5782C15.5163 36.5782 15.5266 36.5809 15.5358 36.586C15.5448 36.5914 15.5523 36.5991 15.5575 36.6083C15.5626 36.6174 15.5654 36.6278 15.5654 36.6383V38.6329C15.5654 38.6435 15.5625 38.654 15.5572 38.6632C15.5518 38.6723 15.5441 38.6799 15.5348 38.6852L13.8251 39.6751C13.8149 39.6816 13.8027 39.6844 13.7906 39.683ZM13.8508 37.6637V39.5183L15.4451 38.5984V36.7428L13.8508 37.6637Z" fill="#455A64"/>
<path d="M14.6269 38.7512L14.2275 38.3667L14.3606 38.0847L14.5884 38.3026L15.5714 36.2222L15.743 36.3878L14.6269 38.7512Z" fill="#43C857"/>
<path d="M16.2153 39.3852V39.5223C16.2153 39.5972 16.2676 39.6278 16.3317 39.5903L22.5513 36.0043C22.5855 35.9821 22.6139 35.9521 22.6343 35.9168C22.6547 35.8815 22.6664 35.8419 22.6686 35.8012V35.6631C22.6686 35.5882 22.6163 35.5576 22.5513 35.5951L16.3317 39.1821C16.2978 39.2045 16.2696 39.2346 16.2494 39.2699C16.2292 39.3051 16.2175 39.3446 16.2153 39.3852Z" fill="#E0E0E0"/>
<path d="M16.2153 40.2538V40.3909C16.2153 40.4658 16.2676 40.4964 16.3317 40.4589L27.0148 34.2945C27.0482 34.2729 27.0761 34.2438 27.0965 34.2096C27.1168 34.1754 27.129 34.137 27.1321 34.0973V33.9593C27.1321 33.8844 27.0789 33.8538 27.0148 33.8913L16.3317 40.0507C16.2978 40.0731 16.2696 40.1032 16.2494 40.1384C16.2292 40.1737 16.2175 40.2132 16.2153 40.2538Z" fill="#E0E0E0"/>
<path d="M16.2153 41.0801V41.2181C16.2153 41.293 16.2676 41.3226 16.3317 41.2852L27.0148 35.1218C27.0488 35.0994 27.0772 35.0694 27.0975 35.0341C27.1179 34.9989 27.1298 34.9593 27.1321 34.9187V34.7806C27.1321 34.7057 27.0789 34.6761 27.0148 34.7126L16.3317 40.877C16.2978 40.8994 16.2696 40.9294 16.2494 40.9647C16.2292 41 16.2175 41.0395 16.2153 41.0801Z" fill="#E0E0E0"/>
<path d="M13.7906 42.8065C13.7748 42.8062 13.7596 42.7998 13.7484 42.7886C13.7371 42.7774 13.7307 42.7622 13.7305 42.7463V40.7517C13.7303 40.7411 13.7329 40.7307 13.7381 40.7215C13.7433 40.7124 13.7509 40.7047 13.7601 40.6994L15.4757 39.7135C15.4848 39.7083 15.4951 39.7056 15.5056 39.7057C15.5161 39.7058 15.5264 39.7086 15.5355 39.7139C15.5446 39.7191 15.5521 39.7267 15.5574 39.7358C15.5626 39.7449 15.5654 39.7552 15.5654 39.7657V41.7594C15.5654 41.77 15.5625 41.7805 15.5572 41.7896C15.5518 41.7988 15.5441 41.8064 15.5348 41.8116L13.8251 42.7976C13.815 42.8044 13.8028 42.8075 13.7906 42.8065ZM13.8508 40.7862V42.6418L15.4451 41.7209V39.8653L13.8508 40.7862Z" fill="#455A64"/>
<path d="M14.6269 41.8738L14.2275 41.4902L14.3606 41.2072L14.5884 41.4261L15.5714 39.3447L15.743 39.5104L14.6269 41.8738Z" fill="#43C857"/>
<path d="M13.7266 28.4546V28.5926C13.7266 28.6675 13.7788 28.6971 13.8429 28.6606L27.0107 21.0567C27.0447 21.0344 27.0731 21.0043 27.0934 20.9691C27.1138 20.9338 27.1257 20.8943 27.128 20.8536V20.7156C27.128 20.6406 27.0748 20.6111 27.0107 20.6485L13.8469 28.2524C13.8122 28.2742 13.7833 28.3039 13.7624 28.339C13.7415 28.3742 13.7292 28.4138 13.7266 28.4546Z" fill="#E0E0E0"/>
<path d="M13.7266 29.3321V29.4731C13.7266 29.5471 13.7788 29.5777 13.8429 29.5402L27.0107 21.9373C27.0447 21.9149 27.0731 21.8849 27.0934 21.8496C27.1138 21.8144 27.1257 21.7748 27.128 21.7342V21.5961C27.128 21.5212 27.0748 21.4906 27.0107 21.5281L13.8469 29.129C13.8122 29.151 13.7833 29.1809 13.7624 29.2162C13.7415 29.2515 13.7292 29.2912 13.7266 29.3321Z" fill="#E0E0E0"/>
<path d="M13.7266 30.2096V30.3466C13.7266 30.4216 13.7788 30.4521 13.8429 30.4147L27.0107 22.8108C27.0447 22.7886 27.0731 22.7588 27.0934 22.7237C27.1138 22.6886 27.1257 22.6492 27.128 22.6087V22.4726C27.128 22.3977 27.0748 22.3671 27.0107 22.4046L13.8469 30.0065C13.8122 30.0285 13.7833 30.0583 13.7624 30.0936C13.7415 30.1289 13.7292 30.1687 13.7266 30.2096Z" fill="#E0E0E0"/>
<path d="M13.7266 43.9719V44.109C13.7266 44.1839 13.7788 44.2145 13.8429 44.177L27.0146 36.5721C27.0487 36.5508 27.0773 36.5219 27.0983 36.4877C27.1194 36.4535 27.1322 36.4149 27.1359 36.3749V36.2369C27.1359 36.1629 27.0827 36.1324 27.0186 36.1698L13.8469 43.7698C13.8123 43.7917 13.7835 43.8214 13.7626 43.8565C13.7417 43.8916 13.7293 43.9311 13.7266 43.9719Z" fill="#E0E0E0"/>
<path d="M13.7266 44.8485V44.9865C13.7266 45.0615 13.7788 45.091 13.8429 45.0536L27.0107 37.4507C27.0447 37.4283 27.0731 37.3983 27.0934 37.363C27.1138 37.3277 27.1257 37.2882 27.128 37.2475V37.1095C27.128 37.0346 27.0748 37.005 27.0107 37.0425L13.8469 44.6454C13.8122 44.6674 13.7833 44.6972 13.7624 44.7325C13.7415 44.7678 13.7292 44.8075 13.7266 44.8485Z" fill="#E0E0E0"/>
<path d="M13.8705 22.4628L19.2648 19.3461C19.3427 19.3017 19.4058 19.3372 19.4058 19.427V19.4684C19.403 19.5173 19.3889 19.5649 19.3644 19.6074C19.3399 19.6499 19.3058 19.686 19.2648 19.7129L13.8705 22.8296C13.7926 22.8739 13.7295 22.8375 13.7305 22.7477V22.7063C13.7329 22.6576 13.7468 22.61 13.7712 22.5677C13.7955 22.5254 13.8295 22.4894 13.8705 22.4628Z" fill="#FAFAFA"/>
<path d="M13.8705 23.2003L17.0789 21.3476C17.1558 21.3023 17.2189 21.3388 17.2189 21.4285V21.4699C17.2162 21.5187 17.2021 21.5663 17.1778 21.6087C17.1535 21.6512 17.1196 21.6874 17.0789 21.7144L13.8705 23.5671C13.7926 23.6115 13.7295 23.575 13.7305 23.4852V23.4438C13.733 23.3951 13.7471 23.3476 13.7714 23.3053C13.7957 23.263 13.8297 23.227 13.8705 23.2003Z" fill="#FAFAFA"/>
<path d="M24.6623 16.185L27.0612 14.7987C27.1006 14.777 27.1322 14.7987 27.1322 14.8401V14.9308C27.131 14.9553 27.1239 14.9791 27.1116 15.0002C27.0992 15.0213 27.0819 15.0391 27.0612 15.0521L24.6623 16.4384C24.6238 16.4611 24.5923 16.4384 24.5923 16.398V16.3073C24.5936 16.2828 24.6006 16.2591 24.6128 16.2378C24.6249 16.2166 24.6419 16.1985 24.6623 16.185Z" fill="#43C857"/>
<path d="M24.6623 17.2913L27.0612 15.905C27.1006 15.8823 27.1322 15.905 27.1322 15.9454V16.0361C27.131 16.0606 27.1239 16.0844 27.1116 16.1055C27.0992 16.1266 27.0819 16.1444 27.0612 16.1574L24.6623 17.5427C24.6238 17.5654 24.5923 17.5427 24.5923 17.5023V17.4116C24.5936 17.3874 24.6006 17.3639 24.6128 17.343C24.625 17.3221 24.6419 17.3044 24.6623 17.2913Z" fill="#43C857"/>
<path d="M25.1569 16.4492L27.0609 15.3499C27.1003 15.3282 27.1318 15.3499 27.1318 15.3903V15.482C27.1304 15.5064 27.1232 15.5301 27.1109 15.5512C27.0986 15.5722 27.0814 15.5901 27.0609 15.6033L25.1569 16.7026C25.1185 16.7253 25.0869 16.7026 25.0869 16.6622V16.5705C25.0884 16.5463 25.0955 16.5227 25.1076 16.5016C25.1198 16.4806 25.1366 16.4627 25.1569 16.4492Z" fill="#43C857"/>
<path d="M16.0152 25.5292C16.0108 25.5327 16.0054 25.5345 15.9999 25.5345C15.9943 25.5345 15.9889 25.5327 15.9846 25.5292C15.9755 25.5181 15.971 25.5041 15.9718 25.4898V23.9122C15.9723 23.8938 15.9766 23.8756 15.9846 23.859C15.9907 23.8436 16.0014 23.8306 16.0152 23.8215L16.1433 23.7475C16.1476 23.7439 16.153 23.7419 16.1586 23.7419C16.1642 23.7419 16.1696 23.7439 16.1739 23.7475C16.1831 23.7585 16.1877 23.7727 16.1867 23.787V25.3646C16.1863 25.3833 16.182 25.4018 16.1739 25.4188C16.1678 25.4338 16.1571 25.4466 16.1433 25.4553L16.0152 25.5292Z" fill="#455A64"/>
<path d="M17.1536 24.8696C17.1359 24.8794 17.1221 24.8804 17.1122 24.8696C17.1047 24.8626 17.0977 24.855 17.0915 24.8469L16.6478 24.0877V25.0934C16.6478 25.1122 16.6434 25.1308 16.635 25.1476C16.6286 25.1625 16.618 25.1752 16.6044 25.1841L16.4763 25.2581C16.4721 25.2619 16.4666 25.264 16.461 25.264C16.4553 25.264 16.4499 25.2619 16.4457 25.2581C16.4367 25.247 16.4325 25.2328 16.4339 25.2186V23.641C16.4341 23.6224 16.4381 23.6039 16.4457 23.5868C16.4521 23.5719 16.4627 23.5592 16.4763 23.5503L16.5877 23.4862C16.6054 23.4754 16.6192 23.4754 16.6281 23.4862C16.6359 23.493 16.6428 23.5006 16.6488 23.5089L17.0935 24.2681V23.2614C17.0935 23.2429 17.0979 23.2247 17.1063 23.2082C17.1117 23.193 17.1222 23.1802 17.1359 23.1717L17.2641 23.0968C17.2683 23.0932 17.2737 23.0912 17.2793 23.0912C17.2849 23.0912 17.2903 23.0932 17.2946 23.0968C17.2994 23.1019 17.3029 23.108 17.3052 23.1146C17.3074 23.1213 17.3081 23.1283 17.3074 23.1352V24.7128C17.3074 24.7313 17.303 24.7496 17.2946 24.7661C17.2885 24.7814 17.2778 24.7944 17.2641 24.8035L17.1536 24.8696Z" fill="#455A64"/>
<path d="M17.9358 22.6846C17.9921 22.6483 18.0564 22.6263 18.1232 22.6205C18.17 22.617 18.2168 22.6281 18.2572 22.652C18.2938 22.676 18.3223 22.7103 18.3391 22.7506C18.3576 22.7923 18.3679 22.8372 18.3696 22.8828C18.3717 22.9016 18.3675 22.9207 18.3578 22.937C18.3514 22.9519 18.3408 22.9646 18.3273 22.9735L18.2158 23.0376C18.1981 23.0474 18.1853 23.0504 18.1754 23.0454C18.1653 23.038 18.1572 23.0282 18.1517 23.0169C18.1367 22.9866 18.1106 22.9633 18.0788 22.9518C18.0537 22.9482 18.0281 22.9497 18.0035 22.9561C17.979 22.9626 17.956 22.9738 17.9358 22.9892C17.9072 23.0057 17.8807 23.0255 17.8569 23.0484C17.8324 23.0715 17.8105 23.0973 17.7919 23.1253C17.7737 23.1522 17.7591 23.1814 17.7485 23.2121C17.7379 23.2418 17.7326 23.2732 17.7327 23.3048C17.7309 23.3332 17.736 23.3616 17.7475 23.3876C17.7527 23.3967 17.7602 23.4044 17.7691 23.4099C17.7781 23.4154 17.7883 23.4186 17.7988 23.4191C17.8318 23.4224 17.8651 23.42 17.8974 23.4122L18.0433 23.3797C18.0969 23.3651 18.1524 23.3581 18.2079 23.359C18.2484 23.3597 18.2876 23.3727 18.3203 23.3965C18.3507 23.4227 18.3732 23.4568 18.3854 23.4951C18.4009 23.5489 18.4082 23.6047 18.4071 23.6607C18.4069 23.7361 18.3959 23.8112 18.3746 23.8835C18.3537 23.958 18.3236 24.0296 18.2849 24.0965C18.2442 24.1651 18.1956 24.2287 18.1399 24.2858C18.0837 24.3447 18.0192 24.3951 17.9486 24.4357C17.8965 24.4674 17.839 24.4895 17.779 24.5008C17.7309 24.5102 17.6811 24.5061 17.6351 24.4889C17.5929 24.4697 17.5583 24.4371 17.5365 24.3962C17.5087 24.3437 17.4941 24.2851 17.4941 24.2257C17.4922 24.2068 17.4964 24.1878 17.5059 24.1714C17.5123 24.1566 17.523 24.1439 17.5365 24.135L17.6469 24.0709C17.6653 24.061 17.6791 24.0581 17.6883 24.062C17.6942 24.0651 17.6994 24.0694 17.7035 24.0747C17.7076 24.08 17.7105 24.0861 17.712 24.0926C17.7196 24.1092 17.7289 24.125 17.7396 24.1399C17.7497 24.1549 17.7647 24.166 17.782 24.1714C17.8043 24.1775 17.8278 24.1775 17.85 24.1714C17.885 24.1632 17.9183 24.1492 17.9486 24.13C17.9806 24.1108 18.0113 24.0894 18.0403 24.0659C18.0693 24.0416 18.0954 24.0142 18.1182 23.9841C18.1403 23.9536 18.1585 23.9205 18.1725 23.8855C18.186 23.852 18.1927 23.8161 18.1922 23.78C18.1951 23.7528 18.1874 23.7256 18.1705 23.7041C18.1612 23.6965 18.1505 23.6909 18.1389 23.6877C18.1274 23.6845 18.1153 23.6837 18.1034 23.6854C18.0655 23.6875 18.0278 23.6934 17.991 23.7031C17.947 23.7136 17.8957 23.7245 17.8372 23.7356C17.7917 23.7461 17.7448 23.7498 17.6982 23.7465C17.6614 23.7442 17.6265 23.7292 17.5996 23.7041C17.5707 23.6755 17.5505 23.6392 17.5414 23.5996C17.5273 23.5412 17.521 23.4812 17.5227 23.4211C17.5226 23.3464 17.5332 23.272 17.5542 23.2002C17.5748 23.1274 17.6039 23.0572 17.641 22.9912C17.6773 22.9289 17.7203 22.8707 17.7692 22.8177C17.8181 22.7656 17.8742 22.7207 17.9358 22.6846Z" fill="#455A64"/>
<path d="M19.4455 21.8396C19.4497 21.836 19.4551 21.834 19.4607 21.834C19.4663 21.834 19.4718 21.836 19.476 21.8396C19.4852 21.8502 19.4898 21.864 19.4888 21.878V22.8788C19.489 22.9765 19.4795 23.0739 19.4602 23.1697C19.4414 23.259 19.4126 23.346 19.3745 23.429C19.337 23.5078 19.2889 23.5811 19.2315 23.6469C19.1748 23.7109 19.1082 23.7655 19.0343 23.8086C18.9752 23.847 18.9074 23.87 18.8371 23.8756C18.8111 23.8766 18.7852 23.8723 18.7608 23.8632C18.7364 23.8541 18.7141 23.8402 18.6951 23.8224C18.653 23.7774 18.6237 23.7219 18.6103 23.6617C18.5903 23.5774 18.581 23.4909 18.5827 23.4043V22.4055C18.5827 22.387 18.5871 22.3688 18.5955 22.3523C18.6016 22.3372 18.6119 22.3242 18.6251 22.3148L18.7543 22.2409C18.7584 22.2373 18.7636 22.2354 18.7691 22.2354C18.7745 22.2354 18.7798 22.2373 18.7839 22.2409C18.7885 22.2463 18.7921 22.2525 18.7943 22.2593C18.7965 22.2661 18.7973 22.2732 18.7967 22.2803V23.2663C18.7952 23.3204 18.8012 23.3745 18.8144 23.427C18.8218 23.4605 18.839 23.491 18.8637 23.5148C18.8742 23.5234 18.8864 23.5298 18.8994 23.5335C18.9125 23.5373 18.9262 23.5383 18.9397 23.5365C18.9747 23.5321 19.0084 23.52 19.0382 23.501C19.0746 23.4801 19.1078 23.4542 19.1368 23.4241C19.1678 23.3912 19.1937 23.354 19.2138 23.3136C19.2359 23.2678 19.2525 23.2195 19.2631 23.1697C19.2762 23.1101 19.2825 23.0492 19.2818 22.9882V22.0023C19.2817 21.9834 19.2861 21.9648 19.2946 21.948C19.3007 21.9332 19.311 21.9206 19.3242 21.9116L19.4455 21.8396Z" fill="#455A64"/>
<path d="M20.1749 21.4157C20.307 21.3398 20.4076 21.3289 20.4707 21.3831C20.5338 21.4374 20.5742 21.5498 20.5742 21.7174C20.5751 21.831 20.5571 21.9439 20.521 22.0516C20.4872 22.1531 20.4343 22.2471 20.3652 22.3287L20.5841 22.8059C20.5872 22.8134 20.5888 22.8215 20.589 22.8296C20.5887 22.845 20.585 22.8601 20.5782 22.8739C20.5733 22.8861 20.5646 22.8965 20.5535 22.9035L20.4185 22.9814C20.3978 22.9932 20.382 22.9952 20.3721 22.9814C20.363 22.9727 20.3556 22.9623 20.3504 22.9508L20.1434 22.5022L19.9383 22.6274V23.1964C19.9378 23.2151 19.9334 23.2336 19.9255 23.2506C19.9191 23.2655 19.9084 23.2782 19.8949 23.2871L19.7667 23.361C19.7626 23.3648 19.7571 23.3669 19.7514 23.3669C19.7458 23.3669 19.7403 23.3648 19.7362 23.361C19.7273 23.3502 19.7231 23.3364 19.7243 23.3226V21.745C19.7246 21.7263 19.7286 21.7079 19.7362 21.6908C19.7426 21.6759 19.7532 21.6632 19.7667 21.6543L20.1749 21.4157ZM19.9373 22.3228L20.167 22.1897C20.2247 22.1575 20.274 22.1122 20.311 22.0575C20.3505 21.9924 20.3695 21.9168 20.3652 21.8406C20.3652 21.7499 20.3475 21.6987 20.311 21.6888C20.26 21.682 20.2083 21.6955 20.167 21.7263L19.9383 21.8584L19.9373 22.3228Z" fill="#455A64"/>
<path d="M21.3067 20.7619C21.3234 20.753 21.3363 20.7521 21.3451 20.7619C21.3563 20.7763 21.3638 20.7932 21.3668 20.8112L21.7553 22.1305C21.7559 22.1357 21.7559 22.141 21.7553 22.1462C21.7552 22.165 21.7508 22.1836 21.7425 22.2005C21.7367 22.2154 21.7264 22.2282 21.7129 22.2369L21.5985 22.303C21.5768 22.3148 21.562 22.3168 21.5542 22.303C21.5455 22.2947 21.5393 22.2841 21.5364 22.2724L21.4684 22.0407L20.9675 22.3306L20.8985 22.6412C20.8945 22.6585 20.8889 22.6753 20.8817 22.6915C20.8718 22.711 20.8564 22.7271 20.8373 22.7378L20.723 22.8039C20.7187 22.8075 20.7133 22.8095 20.7077 22.8095C20.7021 22.8095 20.6967 22.8075 20.6924 22.8039C20.6836 22.7931 20.6793 22.7793 20.6806 22.7654C20.68 22.7595 20.68 22.7536 20.6806 22.7477L21.0691 20.9798C21.0739 20.9541 21.0815 20.929 21.0917 20.9049C21.0989 20.8868 21.1122 20.8718 21.1292 20.8625L21.3067 20.7619ZM21.3944 21.7834L21.2199 21.1908L21.0454 21.9875L21.3944 21.7834Z" fill="#455A64"/>
<path d="M22.6222 21.7124C22.6035 21.7233 22.5897 21.7233 22.5808 21.7124C22.5731 21.7057 22.5661 21.6981 22.5601 21.6897L22.1164 20.9305V21.9362C22.1161 21.955 22.1117 21.9735 22.1036 21.9905C22.0975 22.0055 22.0868 22.0183 22.0731 22.0269L21.9449 22.1019C21.9406 22.1055 21.9352 22.1075 21.9296 22.1075C21.924 22.1075 21.9186 22.1055 21.9143 22.1019C21.9051 22.0913 21.9005 22.0774 21.9015 22.0634V20.4859C21.902 20.4674 21.9064 20.4493 21.9143 20.4326C21.9204 20.4173 21.9311 20.4042 21.9449 20.3951L22.0553 20.3311C22.074 20.3212 22.0878 20.3202 22.0967 20.3311C22.1045 20.3378 22.1114 20.3454 22.1174 20.3537L22.5621 21.1129V20.1063C22.5621 20.0875 22.5662 20.069 22.5739 20.052C22.5803 20.0371 22.591 20.0244 22.6045 20.0155L22.7327 19.9416C22.7369 19.9378 22.7423 19.9357 22.748 19.9357C22.7536 19.9357 22.7591 19.9378 22.7632 19.9416C22.7724 19.9522 22.777 19.966 22.7761 19.98V21.5576C22.7755 21.5764 22.7711 21.5948 22.7632 21.6118C22.7568 21.6267 22.7462 21.6394 22.7327 21.6483L22.6222 21.7124Z" fill="#455A64"/>
<path d="M23.7047 20.5451C23.7061 20.525 23.7118 20.5055 23.7214 20.4879C23.7281 20.4745 23.7384 20.4633 23.751 20.4553L23.8792 20.3804C23.8839 20.3773 23.8894 20.3757 23.895 20.3757C23.9006 20.3757 23.9061 20.3773 23.9108 20.3804C23.9158 20.3857 23.9195 20.3922 23.9215 20.3992C23.9236 20.4062 23.924 20.4136 23.9226 20.4208C23.9179 20.4946 23.9071 20.5678 23.8901 20.6397C23.8704 20.7192 23.842 20.7963 23.8053 20.8695C23.766 20.9468 23.7173 21.019 23.6603 21.0844C23.6006 21.1541 23.5292 21.2128 23.4493 21.2579C23.3903 21.2958 23.3222 21.3173 23.2521 21.3201C23.199 21.3194 23.1481 21.299 23.1092 21.2629C23.0658 21.2179 23.0346 21.1625 23.0184 21.1022C22.9953 21.0212 22.9821 20.9378 22.979 20.8537C22.979 20.7926 22.979 20.7245 22.979 20.6496C22.979 20.5747 22.979 20.5066 22.979 20.4435C22.9835 20.344 22.9967 20.245 23.0184 20.1477C23.039 20.056 23.0694 19.9667 23.1092 19.8815C23.1471 19.8017 23.1952 19.7272 23.2521 19.6597C23.308 19.5947 23.3747 19.54 23.4493 19.498C23.5124 19.4567 23.5851 19.4325 23.6603 19.428C23.7128 19.4264 23.7642 19.4435 23.8053 19.4763C23.8454 19.5118 23.8748 19.5579 23.8901 19.6094C23.9081 19.6677 23.9191 19.7279 23.9226 19.7888C23.9236 19.808 23.9196 19.827 23.9108 19.844C23.9033 19.8583 23.8925 19.8705 23.8792 19.8795L23.751 19.9535C23.7465 19.9564 23.7412 19.9579 23.7357 19.9579C23.7303 19.9579 23.725 19.9564 23.7205 19.9535C23.715 19.9489 23.7106 19.9432 23.7077 19.9367C23.7048 19.9302 23.7034 19.9231 23.7037 19.916C23.7006 19.8874 23.693 19.8594 23.681 19.8332C23.6705 19.8109 23.6542 19.7918 23.6337 19.778C23.6107 19.7648 23.5841 19.7592 23.5578 19.7622C23.5192 19.7668 23.4822 19.78 23.4493 19.8007C23.4086 19.8249 23.3722 19.8559 23.3418 19.8924C23.3112 19.9301 23.2854 19.9715 23.2649 20.0156C23.2437 20.0616 23.2279 20.1099 23.2176 20.1596C23.2063 20.2108 23.1997 20.2629 23.1979 20.3153C23.1979 20.3784 23.1979 20.4475 23.1979 20.5224C23.1979 20.5973 23.1979 20.6654 23.1979 20.7255C23.1987 20.7709 23.2053 20.8159 23.2176 20.8596C23.2255 20.8928 23.2418 20.9233 23.2649 20.9483C23.2855 20.9688 23.3129 20.9807 23.3418 20.9819C23.3802 20.9814 23.4175 20.9697 23.4493 20.9483C23.4895 20.9256 23.526 20.897 23.5578 20.8635C23.5872 20.8317 23.613 20.7966 23.6347 20.759C23.6546 20.724 23.6708 20.687 23.683 20.6486C23.6938 20.6149 23.701 20.5802 23.7047 20.5451Z" fill="#455A64"/>
<path d="M24.8466 20.1231C24.8508 20.1193 24.8562 20.1171 24.8619 20.1171C24.8675 20.1171 24.873 20.1193 24.8772 20.1231C24.8863 20.1337 24.891 20.1475 24.89 20.1615V20.3351C24.8895 20.3538 24.8851 20.3723 24.8772 20.3893C24.8708 20.4042 24.8601 20.4169 24.8466 20.4258L24.1505 20.828C24.1464 20.8316 24.1411 20.8335 24.1357 20.8335C24.1303 20.8335 24.125 20.8316 24.1209 20.828C24.1163 20.8227 24.1127 20.8164 24.1105 20.8096C24.1083 20.8029 24.1075 20.7957 24.1081 20.7886V19.211C24.1081 19.1925 24.1125 19.1743 24.1209 19.1578C24.1267 19.1425 24.137 19.1295 24.1505 19.1203L24.8338 18.7259C24.8381 18.7223 24.8435 18.7203 24.8491 18.7203C24.8547 18.7203 24.8601 18.7223 24.8644 18.7259C24.8734 18.737 24.878 18.7511 24.8772 18.7654V18.9389C24.8767 18.9574 24.8723 18.9755 24.8644 18.9921C24.858 19.0073 24.8474 19.0203 24.8338 19.0296L24.3221 19.3254V19.7119L24.7993 19.4368C24.8034 19.4333 24.8086 19.4313 24.8141 19.4313C24.8195 19.4313 24.8247 19.4333 24.8289 19.4368C24.8337 19.4421 24.8373 19.4484 24.8395 19.4552C24.8417 19.462 24.8425 19.4692 24.8417 19.4763V19.6488C24.8418 19.6677 24.8374 19.6862 24.8289 19.703C24.8234 19.7182 24.813 19.7311 24.7993 19.7395L24.3221 20.0156V20.4208L24.8466 20.1231Z" fill="#455A64"/>
<g opacity="0.25">
<path d="M24.8129 13.2694V14.5936C24.8042 14.7741 24.7526 14.9498 24.6622 15.1063C24.5718 15.2627 24.4453 15.3952 24.2933 15.4928L21.7297 16.9718C21.6035 17.0448 21.5325 17.1907 21.4546 17.3445C21.4034 17.4608 21.3371 17.5699 21.2574 17.6689C21.0602 17.8947 20.6244 18.1293 20.3178 18.2279C20.2176 18.2608 20.1146 18.2846 20.0102 18.2989L19.8849 18.3157C19.6049 18.3532 19.2569 18.4005 19.0528 18.5188L16.0514 20.2512C15.9729 20.3003 15.8827 20.3275 15.7902 20.3301C15.7287 20.3305 15.6682 20.3149 15.6146 20.2847C15.5506 20.242 15.4991 20.1828 15.4657 20.1135C15.4322 20.0441 15.4179 19.967 15.4244 19.8903V18.5661C15.4327 18.3856 15.4843 18.2097 15.5747 18.0533C15.6651 17.8968 15.7918 17.7643 15.944 17.6669L16.9516 17.0852C16.9559 17.0824 16.9605 17.0804 16.9654 17.0793C16.9893 17.0691 17.0161 17.0682 17.0407 17.0765C17.0652 17.0849 17.0858 17.102 17.0986 17.1246C17.1113 17.147 17.1155 17.1731 17.1104 17.1983C17.1053 17.2235 17.0913 17.246 17.0709 17.2617C17.0675 17.2652 17.0635 17.2682 17.0591 17.2705L16.0514 17.8523C15.9324 17.9315 15.8333 18.0372 15.7618 18.161C15.6904 18.2848 15.6484 18.4234 15.6393 18.5661V19.8903C15.6278 19.9292 15.6298 19.9709 15.6449 20.0086C15.66 20.0463 15.6874 20.0778 15.7227 20.098C15.7579 20.1182 15.7989 20.1259 15.8391 20.1198C15.8792 20.1138 15.9162 20.0944 15.944 20.0648L18.9433 18.3315C19.1849 18.1924 19.5566 18.1422 19.8544 18.1017C19.8987 18.1017 19.9411 18.0899 19.9796 18.085C20.0723 18.0715 20.1637 18.0501 20.2527 18.0209C20.5248 17.9351 20.9291 17.7152 21.0957 17.5279C21.1622 17.4422 21.2181 17.3489 21.2624 17.2498C21.3491 17.0734 21.4398 16.8919 21.6222 16.7864L24.1858 15.3075C24.3048 15.2282 24.4039 15.1226 24.4754 14.9988C24.5469 14.8749 24.5888 14.7363 24.5979 14.5936V13.2694C24.6028 13.2307 24.5977 13.1914 24.5832 13.1552C24.5687 13.119 24.5453 13.0871 24.5151 13.0624C24.4785 13.0482 24.4388 13.0438 24.3999 13.0495C24.361 13.0552 24.3243 13.0708 24.2933 13.0949L23.4207 13.5987C23.3913 13.5328 23.3542 13.4706 23.3102 13.4134L24.1858 12.9086C24.2468 12.8597 24.3211 12.8304 24.399 12.8244C24.4769 12.8184 24.5548 12.836 24.6225 12.875C24.6902 12.914 24.7446 12.9725 24.7786 13.0428C24.8125 13.1132 24.8245 13.1922 24.8129 13.2694Z" fill="black"/>
</g>
<path d="M22.9424 13.2942C22.9857 13.274 23.0336 13.2658 23.0811 13.2704C23.1286 13.2751 23.174 13.2925 23.2125 13.3208C23.3234 13.393 23.4156 13.4904 23.4818 13.605C23.5479 13.7197 23.5861 13.8483 23.5931 13.9804C23.5984 14.0279 23.5907 14.076 23.5709 14.1196C23.5511 14.1631 23.52 14.2005 23.4807 14.2279L17.3992 17.74L16.8608 16.8062L22.9424 13.2942Z" fill="#37474F"/>
<path d="M17.1313 17.2755L23.488 13.6067C23.4241 13.4896 23.331 13.3911 23.2178 13.3207C23.205 13.3128 23.1932 13.3089 23.1813 13.303L16.9272 16.9146L17.1313 17.2755Z" fill="#455A64"/>
<path d="M17.1311 16.8328C16.9211 16.7105 16.7505 16.8091 16.7505 17.0526C16.7577 17.1847 16.7959 17.3133 16.8621 17.4279C16.9282 17.5425 17.0203 17.6399 17.1311 17.7123C17.3421 17.8335 17.5127 17.7349 17.5127 17.4924C17.5056 17.3601 17.4674 17.2314 17.4011 17.1168C17.3347 17.0021 17.2422 16.9048 17.1311 16.8328Z" fill="#263238"/>
<path d="M24.9214 13.3641V14.6883C24.9124 14.8687 24.8606 15.0443 24.7702 15.2007C24.6799 15.3571 24.5536 15.4897 24.4018 15.5875L21.8382 17.0665C21.711 17.1404 21.641 17.2864 21.5631 17.4402C21.5116 17.556 21.4453 17.6647 21.3659 17.7636C21.1687 17.9894 20.7329 18.225 20.4263 18.3226C20.326 18.3553 20.2231 18.379 20.1186 18.3936C20.0802 18.4005 20.0368 18.4055 19.9924 18.4114C19.7134 18.4488 19.3644 18.4962 19.1603 18.6145L16.1589 20.3459C16.0802 20.3944 15.9901 20.4212 15.8977 20.4238C15.8366 20.4244 15.7765 20.4091 15.7231 20.3794C15.6589 20.3368 15.6074 20.2777 15.5739 20.2083C15.5404 20.1389 15.5262 20.0618 15.5328 19.985V18.6598C15.5414 18.4795 15.5929 18.3038 15.6831 18.1473C15.7733 17.9909 15.8996 17.8583 16.0515 17.7606L17.0591 17.1789H17.0729C17.097 17.1687 17.1239 17.1677 17.1486 17.1761C17.1733 17.1844 17.1941 17.2016 17.207 17.2242C17.2198 17.2465 17.2239 17.2726 17.2187 17.2977C17.2134 17.3228 17.1991 17.3451 17.1784 17.3603C17.1758 17.3649 17.1716 17.3684 17.1666 17.3702L16.1589 17.9519C16.0402 18.0312 15.9414 18.1367 15.8701 18.2603C15.7988 18.3839 15.7569 18.5223 15.7478 18.6648V19.9889C15.7363 20.0278 15.7383 20.0693 15.7533 20.1069C15.7683 20.1445 15.7955 20.1759 15.8306 20.1962C15.8656 20.2164 15.9065 20.2243 15.9465 20.2186C15.9866 20.2128 16.0235 20.1937 16.0515 20.1644L19.0508 18.4301C19.2914 18.2911 19.6641 18.2408 19.9619 18.2014L20.0861 18.1836C20.1788 18.1707 20.2702 18.1496 20.3592 18.1205C20.6314 18.0347 21.0356 17.8139 21.2022 17.6275C21.2696 17.5428 21.3256 17.4497 21.3689 17.3505C21.4566 17.174 21.5464 16.9925 21.7297 16.887L24.2933 15.4081C24.4121 15.3289 24.511 15.2234 24.5823 15.0998C24.6537 14.9761 24.6954 14.8377 24.7045 14.6952V13.3641C24.7159 13.3253 24.714 13.2838 24.6989 13.2462C24.6839 13.2086 24.6567 13.1771 24.6217 13.1569C24.5866 13.1366 24.5458 13.1288 24.5057 13.1345C24.4657 13.1403 24.4287 13.1593 24.4008 13.1886L23.5282 13.6974C23.4995 13.6313 23.4627 13.5691 23.4187 13.512L24.2943 13.0072C24.3555 12.9588 24.4298 12.9298 24.5076 12.9241C24.5854 12.9184 24.6631 12.9362 24.7307 12.9752C24.7983 13.0142 24.8526 13.0726 24.8866 13.1428C24.9206 13.2131 24.9327 13.2919 24.9214 13.3691V13.3641Z" fill="#455A64"/>
<path d="M18.2974 45.7132L31.2157 38.278L37.6749 41.9951L24.7565 49.4304L18.2974 45.7132Z" fill="#43C857"/>
<path opacity="0.7" d="M18.2974 45.7132L31.2157 38.278L37.6749 41.9951L24.7565 49.4304L18.2974 45.7132Z" fill="white"/>
<path d="M31.2156 38.6685L18.9775 45.7123L24.7564 49.039L36.9954 41.9952L31.2156 38.6685ZM24.7564 48.8438L19.3177 45.7133L31.2156 38.8647L36.6542 41.9952L24.7564 48.8438Z" fill="#43C857"/>
<path d="M25.5779 45.2735C25.0001 44.9412 24.6816 44.4847 24.6816 43.9917C24.6816 43.4543 25.0701 42.9219 25.7475 42.5315C27.0756 41.7673 29.16 41.723 30.3944 42.4329C30.9732 42.7651 31.2917 43.2217 31.2917 43.7146C31.2917 44.253 30.9032 44.7854 30.2248 45.1749C29.5287 45.5762 28.6256 45.7783 27.7451 45.7783C26.9455 45.7793 26.1655 45.6117 25.5779 45.2735ZM25.8057 42.632C25.1648 43.0018 24.797 43.4977 24.797 43.9927C24.797 44.4433 25.0928 44.8623 25.6361 45.1759C26.838 45.8661 28.8711 45.8246 30.1716 45.0773C30.8125 44.7085 31.1803 44.2126 31.1803 43.7166C31.1803 43.266 30.8845 42.847 30.3422 42.5334C29.7703 42.2041 29.0111 42.0404 28.2322 42.0404C27.3684 42.0424 26.486 42.2406 25.8057 42.632Z" fill="#43C857"/>
<g opacity="0.5">
<path d="M25.7869 44.9126C25.3432 44.6572 25.0967 44.3309 25.0967 43.9927C25.0967 43.6081 25.4092 43.2039 25.9545 42.8933C26.5609 42.5443 27.3881 42.3441 28.2222 42.3441C28.9795 42.3441 29.6756 42.5048 30.1804 42.7957C30.6241 43.0511 30.8706 43.3774 30.8706 43.7156C30.8706 44.1001 30.558 44.5044 30.0138 44.815C29.4074 45.164 28.5802 45.3642 27.746 45.3642C26.9878 45.3642 26.2927 45.2035 25.7869 44.9126Z" fill="#43C857"/>
</g>
<path opacity="0.5" d="M25.0652 47.9425C24.9688 47.8938 24.8622 47.8685 24.7542 47.8685C24.6461 47.8685 24.5396 47.8938 24.4431 47.9425L24.0793 48.1555L20.5366 46.1293L20.9636 45.8848C21.0365 45.8424 21.076 45.7911 21.076 45.7379C21.076 45.6846 21.0365 45.6393 20.9636 45.5929L20.5356 45.3474L24.4244 43.0964L24.3484 43.2621C24.2547 43.4607 24.2056 43.6774 24.2045 43.8971C24.2045 44.5271 24.8385 45.1788 25.4665 45.5358C26.2264 45.9466 27.0737 46.1691 27.9374 46.1845C28.1935 46.1843 28.4494 46.1681 28.7035 46.1362L28.9875 46.0997L25.4379 48.1555L25.0652 47.9425Z" fill="#43C857"/>
<g opacity="0.4">
<path d="M23.3523 46.5967C23.2876 46.5669 23.2322 46.5202 23.192 46.4616C23.1517 46.4029 23.1281 46.3344 23.1235 46.2634C23.1235 46.1234 23.2221 45.9873 23.3917 45.8887C23.7092 45.7063 24.2091 45.6965 24.5059 45.867C24.5703 45.8969 24.6255 45.9437 24.6656 46.0023C24.7057 46.061 24.7292 46.1294 24.7336 46.2003C24.7336 46.3403 24.635 46.4764 24.4664 46.574C24.2848 46.672 24.0812 46.7218 23.8749 46.7189C23.6931 46.7234 23.5132 46.6814 23.3523 46.5967Z" fill="white"/>
</g>
<path opacity="0.5" d="M31.6141 44.4443C31.7102 44.1975 31.761 43.9353 31.764 43.6703C31.764 43.1458 31.3489 42.641 30.5315 42.1697C29.8768 41.793 28.8721 41.5396 28.0311 41.5396C27.7746 41.5398 27.5184 41.5559 27.264 41.588L26.9761 41.6254L30.5256 39.5884L30.8944 39.8014C30.991 39.849 31.0972 39.8738 31.205 39.8738C31.3127 39.8738 31.4189 39.849 31.5155 39.8014L31.8843 39.5884L35.4181 41.6008L34.9911 41.8473C34.9614 41.8597 34.9354 41.8797 34.9158 41.9053C34.8963 41.9309 34.8838 41.9612 34.8797 41.9932C34.8797 42.0454 34.9192 42.0967 34.9911 42.1391L35.4181 42.3797L31.5362 44.608L31.6141 44.4443Z" fill="#43C857"/>
<g opacity="0.4">
<path d="M31.4817 41.936C31.417 41.9062 31.3616 41.8596 31.3214 41.8009C31.2811 41.7422 31.2574 41.6737 31.2529 41.6027C31.2529 41.4627 31.3515 41.3266 31.5211 41.229C31.8386 41.0456 32.3385 41.0318 32.6343 41.2064C32.6989 41.2361 32.7543 41.2828 32.7946 41.3415C32.8349 41.4001 32.8585 41.4686 32.863 41.5396C32.863 41.6796 32.7644 41.8157 32.5958 41.9143C32.414 42.0114 32.2104 42.061 32.0043 42.0582C31.8225 42.063 31.6425 42.0208 31.4817 41.936Z" fill="white"/>
</g>
<path d="M18.2974 45.7133V47.278L24.7565 50.9962V49.4304L18.2974 45.7133Z" fill="#43C857"/>
<g opacity="0.2">
<path d="M18.2974 45.7133V47.278L24.7565 50.9962V49.4304L18.2974 45.7133Z" fill="white"/>
</g>
<g opacity="0.1">
<path d="M24.7563 49.7795L22.7173 48.6486L24.7563 49.8741V49.7795Z" fill="black"/>
<path d="M18.2983 46.4567L18.9777 46.8875L18.2983 46.5355V46.4567Z" fill="black"/>
<path d="M18.2983 46.8293L21.697 48.8437L18.2983 46.9447V46.8293Z" fill="black"/>
<path d="M24.7566 50.1521L21.3579 48.2571L24.7566 50.2754V50.1521Z" fill="black"/>
</g>
<path d="M24.7563 50.9962L37.6747 43.5609V41.9951L24.7563 49.4304V50.9962Z" fill="#43C857"/>
<g opacity="0.2">
<path d="M24.7563 50.9962L37.6747 43.5609V41.9951L24.7563 49.4304V50.9962Z" fill="black"/>
</g>
<g opacity="0.3">
<path d="M24.7563 49.7795L25.4377 49.4304L24.7563 49.8741V49.7795Z" fill="black"/>
</g>
<g opacity="0.3">
<path d="M24.7563 50.1521L28.1747 48.2472L24.7563 50.2754V50.1521Z" fill="black"/>
</g>
<g opacity="0.3">
<path d="M37.6751 42.7327L35.2949 44.1475L37.6751 42.8244V42.7327Z" fill="black"/>
</g>
<g opacity="0.3">
<path d="M37.6751 43.125L36.3154 43.9522L37.6751 43.2137V43.125Z" fill="black"/>
</g>
<path d="M23.6313 42.3835L30.3153 46.2308L32.3543 45.0575L25.6713 41.2092L23.6313 42.3835Z" fill="#FAFAFA"/>
<path d="M32.3544 45.0576V46.7604L30.3154 47.9347V46.2309L32.3544 45.0576Z" fill="#E0E0E0"/>
<path d="M30.3156 47.9347L30.1963 47.8656L30.3156 47.7966V47.9347Z" fill="#E0E0E0"/>
<path d="M23.6313 42.3835V42.6429L23.8571 42.5127L23.6313 42.3835Z" fill="#E0E0E0"/>
<g opacity="0.3">
<path d="M30.1963 47.8646V46.2999L30.3156 46.2308V47.7956L30.1963 47.8646Z" fill="black"/>
</g>
<g style="mix-blend-mode:multiply" opacity="0.2">
<path d="M30.196 46.2999L23.7378 42.5817L23.8571 42.5127L30.3153 46.2308L30.196 46.2999Z" fill="black"/>
</g>
<path d="M23.8516 42.2564L30.5365 46.1047L30.7061 46.0061L24.0221 42.1598L23.8516 42.2564Z" fill="#455A64"/>
<path d="M25.2803 41.435L31.9642 45.2823L32.1338 45.1847L25.4499 41.3374L25.2803 41.435Z" fill="#455A64"/>
<path d="M30.5361 46.1047V47.8075L30.7057 47.7099V46.0061L30.5361 46.1047Z" fill="#263238"/>
<path d="M31.9639 45.2824V46.9852L32.1344 46.8876L32.1335 45.1848L31.9639 45.2824Z" fill="#263238"/>
<path opacity="0.2" d="M24.1009 49.0528L37.0192 41.6185L31.2157 38.278L18.2974 45.7132L24.1009 49.0528Z" fill="black"/>
<path opacity="0.2" d="M18.2974 46.6361L24.1009 49.9766V49.0528L18.2974 45.7133V46.6361Z" fill="black"/>
<path d="M17.2051 43.7038L30.1234 36.2686L36.5816 39.9857L23.6642 47.421L17.2051 43.7038Z" fill="#43C857"/>
<path opacity="0.7" d="M17.2051 43.7038L30.1234 36.2686L36.5816 39.9857L23.6642 47.421L17.2051 43.7038Z" fill="white"/>
<path d="M30.1233 36.66L17.8853 43.7039L23.6641 47.0296L35.9021 39.9858L30.1233 36.66ZM23.6641 46.8344L18.2244 43.7039L30.1233 36.8553L35.5619 39.9858L23.6641 46.8344Z" fill="#43C857"/>
<path d="M24.4856 43.2651C23.9069 42.9318 23.5884 42.4763 23.5884 41.9833C23.5884 41.4449 23.9769 40.9125 24.6552 40.5221C25.9833 39.7579 28.0677 39.7136 29.3021 40.4235C29.8799 40.7567 30.1984 41.2123 30.1984 41.7052C30.1984 42.2436 29.8099 42.776 29.1326 43.1655C28.4365 43.5727 27.5303 43.7699 26.6528 43.7699C25.8542 43.7699 25.0723 43.6033 24.4856 43.2651ZM24.7134 40.6236C24.0715 40.9924 23.7047 41.4883 23.7047 41.9843C23.7047 42.4339 24.0005 42.8539 24.5428 43.1675C25.7457 43.8576 27.7778 43.8162 29.0783 43.0689C29.7192 42.7001 30.087 42.2042 30.087 41.7082C30.087 41.2586 29.7912 40.8386 29.2479 40.525C28.677 40.1967 27.9168 40.032 27.1389 40.032C26.2752 40.034 25.3927 40.2322 24.7134 40.6236Z" fill="#43C857"/>
<g opacity="0.5">
<path d="M24.6946 42.9032C24.2509 42.6478 24.0044 42.3215 24.0044 41.9843C24.0044 41.5987 24.317 41.1955 24.8622 40.8849C25.4686 40.5358 26.2958 40.3357 27.13 40.3357C27.8872 40.3357 28.5823 40.4954 29.0881 40.7863C29.5308 41.0417 29.7783 41.368 29.7783 41.7062C29.7783 42.0917 29.4658 42.495 28.9205 42.8056C28.3151 43.1546 27.4869 43.3548 26.6527 43.3548C25.8955 43.3548 25.1994 43.1941 24.6946 42.9032Z" fill="#43C857"/>
</g>
<path opacity="0.5" d="M23.9808 45.9331C23.8841 45.8847 23.7774 45.8595 23.6693 45.8595C23.5611 45.8595 23.4544 45.8847 23.3577 45.9331L22.9889 46.1451L19.4453 44.1209L19.8722 43.8754C19.9452 43.833 19.9846 43.7817 19.9846 43.7295C19.9802 43.6975 19.9674 43.6672 19.9477 43.6416C19.928 43.6161 19.902 43.596 19.8722 43.5835L19.4453 43.338L23.333 41.087L23.2571 41.2527C23.1642 41.4515 23.1154 41.6682 23.1142 41.8877C23.1142 42.5187 23.7481 43.1694 24.3762 43.5273C25.1363 43.9374 25.9836 44.1595 26.8471 44.1751C27.1029 44.1754 27.3585 44.1592 27.6122 44.1268L27.8972 44.0903L24.3476 46.1461L23.9808 45.9331Z" fill="#43C857"/>
<g opacity="0.4">
<path d="M22.26 44.5872C22.1955 44.5576 22.1402 44.511 22.0999 44.4525C22.0597 44.3941 22.0359 44.3258 22.0312 44.255C22.0312 44.114 22.1298 43.9779 22.2994 43.8803C22.6169 43.6969 23.1168 43.6831 23.4126 43.8576C23.4773 43.8873 23.5327 43.934 23.5729 43.9927C23.6132 44.0514 23.6368 44.1198 23.6414 44.1909C23.6414 44.3309 23.5428 44.4669 23.3732 44.5655C23.1914 44.663 22.9878 44.7125 22.7816 44.7095C22.6001 44.7142 22.4205 44.6721 22.26 44.5872Z" fill="white"/>
</g>
<path opacity="0.5" d="M30.5219 42.4348C30.6171 42.1877 30.6676 41.9256 30.6707 41.6608C30.6707 41.1363 30.2566 40.6315 29.4383 40.1611C28.7846 39.7835 27.7788 39.5301 26.9378 39.5301C26.6816 39.5301 26.4257 39.5466 26.1717 39.5794L25.8838 39.6159L29.4333 37.5789L29.8021 37.7918C29.8989 37.8395 30.0053 37.8643 30.1132 37.8643C30.221 37.8643 30.3275 37.8395 30.4242 37.7918L30.792 37.5789L34.3337 39.5863L33.9057 39.8338C33.8739 39.8426 33.8458 39.8616 33.8258 39.8878C33.8058 39.9141 33.795 39.9462 33.795 39.9792C33.795 40.0123 33.8058 40.0444 33.8258 40.0706C33.8458 40.0969 33.8739 40.1159 33.9057 40.1247L34.3317 40.3702L30.4509 42.5985L30.5219 42.4348Z" fill="#43C857"/>
<g opacity="0.4">
<path d="M30.3894 39.9245C30.3247 39.8948 30.2694 39.8481 30.2291 39.7894C30.1888 39.7308 30.1652 39.6623 30.1606 39.5913C30.1606 39.4512 30.2592 39.3142 30.4278 39.2166C30.7463 39.0332 31.2452 39.0194 31.542 39.1939C31.6069 39.224 31.6624 39.2712 31.7025 39.3304C31.7426 39.3897 31.7659 39.4587 31.7698 39.5301C31.7698 39.6701 31.6712 39.8062 31.5016 39.9048C31.3198 40.0022 31.1162 40.0518 30.91 40.0488C30.7287 40.0522 30.5496 40.0094 30.3894 39.9245Z" fill="white"/>
</g>
<path d="M17.2051 43.7039V45.2696L23.6642 48.9868V47.421L17.2051 43.7039Z" fill="#43C857"/>
<g opacity="0.2">
<path d="M17.2051 43.7039V45.2696L23.6642 48.9868V47.421L17.2051 43.7039Z" fill="white"/>
</g>
<g opacity="0.1">
<path d="M23.664 47.7701L21.624 46.6392L23.664 47.8657V47.7701Z" fill="black"/>
<path d="M17.2051 44.4473L17.8854 44.8781L17.2051 44.5261V44.4473Z" fill="black"/>
<path d="M17.2051 44.8199L20.6038 46.8343L17.2051 44.9353V44.8199Z" fill="black"/>
<path d="M23.6643 48.1427L20.2646 46.2477L23.6643 48.266V48.1427Z" fill="black"/>
</g>
<path d="M23.6641 48.9868L36.5814 41.5515V39.9857L23.6641 47.421V48.9868Z" fill="#43C857"/>
<g opacity="0.2">
<path d="M23.6641 48.9868L36.5814 41.5515V39.9857L23.6641 47.421V48.9868Z" fill="black"/>
</g>
<g opacity="0.3">
<path d="M23.6641 47.7701L24.3444 47.421L23.6641 47.8657V47.7701Z" fill="black"/>
</g>
<g opacity="0.3">
<path d="M23.6641 48.1427L27.0825 46.2388L23.6641 48.2659V48.1427Z" fill="black"/>
</g>
<g opacity="0.3">
<path d="M36.5818 40.7233L34.2026 42.1382L36.5818 40.815V40.7233Z" fill="black"/>
</g>
<g opacity="0.3">
<path d="M36.5818 41.1166L35.2222 41.9428L36.5818 41.2043V41.1166Z" fill="black"/>
</g>
<path d="M22.5391 40.3741L29.2221 44.2214L31.2611 43.0481L24.5781 39.1998L22.5391 40.3741Z" fill="#FAFAFA"/>
<path d="M31.2612 43.0482V44.752L29.2222 45.9253V44.2215L31.2612 43.0482Z" fill="#E0E0E0"/>
<path d="M29.2223 45.9253L29.103 45.8563L29.2223 45.7872V45.9253Z" fill="#E0E0E0"/>
<path d="M22.5391 40.3741V40.6335L22.7639 40.5043L22.5391 40.3741Z" fill="#E0E0E0"/>
<g opacity="0.3">
<path d="M29.103 45.8552V44.2914L29.2223 44.2214V45.7872L29.103 45.8552Z" fill="black"/>
</g>
<g style="mix-blend-mode:multiply" opacity="0.2">
<path d="M29.1027 44.2914L22.6445 40.5723L22.7638 40.5043L29.222 44.2214L29.1027 44.2914Z" fill="black"/>
</g>
<path d="M22.7583 40.247L29.4433 44.0953L29.6129 43.9977L22.9289 40.1504L22.7583 40.247Z" fill="#455A64"/>
<path d="M24.187 39.4256L30.872 43.2729L31.0416 43.1753L24.3576 39.328L24.187 39.4256Z" fill="#455A64"/>
<path d="M29.4429 44.0953V45.7981L29.6125 45.7005V43.9977L29.4429 44.0953Z" fill="#263238"/>
<path d="M30.8716 43.273V44.9758L31.0422 44.8782L31.0412 43.1754L30.8716 43.273Z" fill="#263238"/>
<path d="M32.445 25.048C32.445 24.9169 32.4184 24.835 32.3603 24.8035L32.3524 24.7976C32.2893 24.77 31.8771 24.5245 31.8189 24.4929L31.8111 24.487C31.7489 24.4594 31.6572 24.487 31.5468 24.5698C30.4474 25.4118 28.933 25.6169 27.7813 25.1101C27.621 24.9922 27.4745 24.8566 27.3446 24.7059C27.3385 24.6979 27.3319 24.6903 27.3248 24.6832C27.293 24.6463 27.255 24.6153 27.2124 24.5915C27.2124 24.5915 26.7106 24.2957 26.6731 24.2799L26.6544 24.2691C26.5311 24.2109 26.4177 24.2691 26.3438 24.4544C25.2996 27.0486 23.0743 29.6802 21.5894 30.3358C21.4761 30.3861 21.3752 30.4605 21.2936 30.5537C21.1866 30.6693 21.1277 30.8212 21.1289 30.9787C21.1289 34.3153 22.956 39.6475 26.4197 41.4301C26.6237 41.5638 26.8357 41.6846 27.0547 41.792C31.8239 36.8749 32.445 29.0018 32.445 25.048Z" fill="#43C857"/>
<path opacity="0.4" d="M32.3532 24.7966C32.2901 24.768 32.1984 24.7965 32.088 24.8784C30.8062 25.8594 28.9644 25.9778 27.7861 25.1101C28.9378 25.6149 30.4483 25.4059 31.5486 24.5678C31.6591 24.484 31.7508 24.4574 31.8129 24.485L31.8218 24.4909C31.878 24.5234 32.2901 24.768 32.3532 24.7966Z" fill="white"/>
<path d="M27.1946 24.5787C27.0713 24.5195 26.958 24.5787 26.884 24.7631C25.8399 27.3591 23.6145 29.9888 22.1306 30.6444C22.0172 30.6946 21.9163 30.7689 21.8348 30.8623C21.7917 30.9134 21.7552 30.9697 21.7263 31.03L21.188 30.7194C21.2154 30.6586 21.2516 30.6021 21.2955 30.5518C21.3771 30.4585 21.478 30.3841 21.5913 30.3339C23.0761 29.6762 25.3015 27.0466 26.3457 24.4525C26.4196 24.2691 26.533 24.2089 26.6562 24.2671L26.675 24.278C26.6927 24.2868 26.7982 24.348 26.9146 24.415L27.1946 24.5787Z" fill="#43C857"/>
<path opacity="0.4" d="M27.1946 24.5787C27.0713 24.5195 26.958 24.5787 26.884 24.7631C25.8399 27.3591 23.6145 29.9888 22.1306 30.6444C22.0172 30.6946 21.9163 30.7689 21.8348 30.8623C21.7917 30.9134 21.7552 30.9697 21.7263 31.03L21.188 30.7194C21.2154 30.6586 21.2516 30.6021 21.2955 30.5518C21.3771 30.4585 21.478 30.3841 21.5913 30.3339C23.0761 29.6762 25.3015 27.0466 26.3457 24.4525C26.4196 24.2691 26.533 24.2089 26.6562 24.2671L26.675 24.278C26.6927 24.2868 26.7982 24.348 26.9146 24.415L27.1946 24.5787Z" fill="white"/>
<path opacity="0.3" d="M26.4177 41.4212C22.9589 39.6386 21.1339 34.3103 21.1339 30.9767C21.1325 30.8876 21.1521 30.7995 21.191 30.7194L21.7294 31.0299C21.6897 31.1101 21.6704 31.1988 21.6732 31.2883C21.6732 34.4464 23.307 39.3901 26.4177 41.4212Z" fill="black"/>
<path d="M32.4452 25.048C32.4452 29.0017 31.824 36.8797 27.0598 41.788C23.5339 40.0576 21.6733 34.6554 21.6733 31.2882C21.6731 31.131 21.7318 30.9793 21.838 30.8633C21.9195 30.7699 22.0204 30.6955 22.1338 30.6454C23.6128 29.9877 25.8431 27.3581 26.8872 24.764C26.9621 24.5806 27.0746 24.5205 27.1988 24.5786L27.2165 24.5895C27.2591 24.6133 27.2971 24.6443 27.3289 24.6812C27.3358 24.6881 27.3418 24.696 27.3487 24.7038C28.4569 25.9935 30.6359 25.9925 32.0912 24.8794C32.2007 24.7955 32.2884 24.7689 32.3555 24.7965L32.3634 24.8024C32.4186 24.8389 32.4501 24.9168 32.4452 25.048Z" fill="#43C857"/>
<path opacity="0.1" d="M32.4452 25.048C32.4452 29.0017 31.824 36.8797 27.0598 41.788C23.5339 40.0576 21.6733 34.6554 21.6733 31.2882C21.6731 31.131 21.7318 30.9793 21.838 30.8633C21.9195 30.7699 22.0204 30.6955 22.1338 30.6454C23.6128 29.9877 25.8431 27.3581 26.8872 24.764C26.9621 24.5806 27.0746 24.5205 27.1988 24.5786L27.2165 24.5895C27.2591 24.6133 27.2971 24.6443 27.3289 24.6812C27.3358 24.6881 27.3418 24.696 27.3487 24.7038C28.4569 25.9935 30.6359 25.9925 32.0912 24.8794C32.2007 24.7955 32.2884 24.7689 32.3555 24.7965L32.3634 24.8024C32.4186 24.8389 32.4501 24.9168 32.4452 25.048Z" fill="white"/>
<path d="M27.1959 24.5787C27.0716 24.5205 26.9592 24.5787 26.8843 24.764C25.8401 27.3581 23.6148 29.9897 22.1309 30.6454C22.0175 30.6955 21.9165 30.7699 21.8351 30.8633C21.7289 30.9793 21.6702 31.131 21.6704 31.2883C21.6704 34.6554 23.531 40.0576 27.0568 41.788C29.4281 32.6282 27.1959 24.5787 27.1959 24.5787Z" fill="#43C857"/>
<path opacity="0.05" d="M27.1959 24.5787C27.0716 24.5205 26.9592 24.5787 26.8843 24.764C25.8401 27.3581 23.6148 29.9897 22.1309 30.6454C22.0175 30.6955 21.9165 30.7699 21.8351 30.8633C21.7289 30.9793 21.6702 31.131 21.6704 31.2883C21.6704 34.6554 23.531 40.0576 27.0568 41.788C29.4281 32.6282 27.1959 24.5787 27.1959 24.5787Z" fill="black"/>
<path opacity="0.4" d="M28.9932 26.3583C30.1832 26.661 31.2363 26.1394 31.8387 25.8298C31.8387 25.8298 31.9787 32.8076 29.5759 37.3205C30.5234 33.7956 30.7591 32.785 30.8241 30.1741C30.8912 27.6066 29.8963 26.9982 28.9932 26.3583Z" fill="white"/>
<path d="M27.3852 36.2043L24.9912 34.6465L25.706 33.5471L26.9099 34.331L29.4291 29.688L30.5817 30.3131L27.3852 36.2043Z" fill="white"/>
<path d="M28.1385 32.0673L26.9099 34.335L25.706 33.5512L24.9912 34.6505L27.3852 36.2084L28.099 34.8931C28.1503 33.9002 28.1592 32.9556 28.1385 32.0673Z" fill="#F0F0F0"/>
<path d="M40.5206 46.2733L40.1528 46.0978L40.5147 45.9952L40.5206 46.2733Z" fill="#263238"/>
<path d="M36.8849 46.9655C36.8849 46.9655 41.2025 45.0063 41.2587 45.2893C41.2711 45.3461 41.2711 45.405 41.2587 45.4618L41.2705 45.4471L41.1936 45.9854C41.0012 46.1421 40.7678 46.2403 40.5212 46.2684C40.5212 46.2427 40.5212 46.082 40.5153 45.9903C40.3823 46.0459 40.2549 46.1139 40.1347 46.1934C39.8586 46.3768 39.6821 46.6953 39.3893 47.066C39.1763 47.3362 38.7977 47.4604 38.2278 47.5472C37.6185 47.6369 37.0801 47.5245 36.9273 47.3638C36.804 47.2406 36.8632 47.0029 36.8849 46.9655Z" fill="#263238"/>
<path d="M37.0042 46.8648C37.0456 46.8214 37.2014 46.6519 37.4065 46.4704C37.5879 46.3097 37.8009 46.1056 38.0276 45.941C38.1373 45.8644 38.2405 45.779 38.3363 45.6856C38.4112 45.6047 38.4832 45.5219 38.5502 45.4342C38.7543 45.1609 38.9275 44.8659 39.0669 44.5547C39.1453 44.4088 39.2056 44.2538 39.2463 44.0932C39.2769 43.9247 39.2927 43.7538 39.2936 43.5825C39.2936 42.8105 39.2759 42.6882 39.269 42.1035L41.099 42.1499C41.0418 42.4762 40.9531 42.9219 40.9245 43.2916C40.8801 43.8546 40.8653 43.9818 41.0911 44.5399C41.1581 44.7045 41.2567 44.8633 41.2666 45.0398C41.2824 45.3277 41.0546 45.5781 40.8002 45.7201C40.5882 45.8384 40.3447 45.8907 40.1396 46.0159C39.9313 46.1582 39.75 46.3365 39.6042 46.5424C39.4593 46.7278 39.3439 46.9467 39.1398 47.0768C38.9236 47.2041 38.6844 47.2876 38.4358 47.3223C38.1234 47.3795 37.8052 47.3977 37.4883 47.3765C37.0387 47.3401 36.6995 47.1803 37.0042 46.8648Z" fill="#FFBDA7"/>
<path d="M38.6884 45.9725C38.5865 45.9166 38.474 45.8828 38.3581 45.8733C38.2422 45.8637 38.1257 45.8788 38.016 45.9173C37.6985 46.1687 37.4353 46.3926 37.2499 46.5493C37.0251 46.7386 36.8279 46.9122 36.8378 47.1271C36.8525 47.4653 38.1836 47.558 38.9251 47.2326C39.1523 47.1542 39.3399 46.99 39.4477 46.7751C39.4477 46.7751 39.3343 46.3028 38.6884 45.9725ZM41.2086 44.741C41.1502 44.6347 41.0972 44.5254 41.0499 44.4137C40.7925 44.5537 40.3469 45.1946 40.5569 45.8345C40.6895 45.8092 40.8155 45.757 40.9271 45.681C41.0387 45.605 41.1335 45.5069 41.2057 45.3928C41.2686 45.2959 41.3024 45.1829 41.3029 45.0673C41.3034 44.9518 41.2707 44.8385 41.2086 44.741Z" fill="#37474F"/>
<path d="M44.574 44.9915C44.4537 45.1887 44.6055 45.9134 44.574 46.433C44.5473 46.9043 44.4192 47.7266 44.5602 48.192C44.7288 48.7431 45.0709 49.3821 45.7157 48.8624C46.116 48.54 46.3458 48.1249 46.4059 47.4456C46.4454 46.9743 46.262 46.3226 46.1042 45.7438C45.9198 45.0694 45.8498 44.7075 45.8498 44.7075L44.574 44.9915Z" fill="#263238"/>
<path d="M45.8693 41.5021C45.9167 42.6034 45.7865 43.3754 45.7786 44.0804C45.7802 44.4004 45.8133 44.7194 45.8772 45.0329C45.9758 45.4825 46.1316 46.1076 46.1987 46.3995C46.2923 46.8057 46.3633 47.063 46.2203 47.5195C46.2078 47.5554 46.192 47.5901 46.173 47.6231C45.9758 47.9997 45.4641 48.2837 45.3004 48.2383C45.267 48.2801 45.2224 48.3116 45.1717 48.329C45.1211 48.3465 45.0666 48.3492 45.0145 48.3369C44.9961 48.334 44.978 48.3298 44.9603 48.3241C44.9416 48.3183 44.9235 48.3111 44.906 48.3024C44.8393 48.2667 44.7807 48.2175 44.734 48.1579C44.6874 48.0983 44.6536 48.0297 44.6349 47.9563C44.625 47.9258 44.6162 47.8922 44.6083 47.8577C44.49 47.2908 44.5521 46.9112 44.555 46.6893C44.555 46.3837 44.555 46.0879 44.5294 45.6748C44.5038 45.2616 44.4387 43.9986 44.2928 43.3794C44.1843 42.9465 44.0492 42.4033 43.9062 41.8245L45.8693 41.5021Z" fill="#FFBDA7"/>
<path d="M46.2981 46.9249C45.8968 46.7514 44.7334 46.7277 44.548 47.2828C44.5431 47.8074 44.5391 48.1623 44.8764 48.6179C45.324 49.2233 45.9087 48.5814 46.1325 48.1732C46.3563 47.765 46.3534 47.2099 46.2981 46.9249Z" fill="#37474F"/>
<path d="M44.3491 27.1265C44.9161 28.1243 45.3736 28.9653 45.5214 31.6018C45.6881 34.5765 45.6634 35.7094 45.6772 36.0683C45.691 36.4272 45.9277 37.0859 46.1278 38.8537C46.328 40.6216 46.117 44.9077 46.117 44.9077C46.117 44.9077 45.976 45.1966 45.2868 45.2616C44.6518 45.3228 44.2781 45.1039 44.2781 45.1039C44.2781 45.1039 43.2685 39.4759 43.02 38.412C42.7715 37.3481 42.0439 33.8489 42.0439 33.8489L41.8053 37.1884C41.8053 37.1884 42.0025 38.1636 41.824 39.7165C41.6456 41.2694 41.1733 44.2047 41.1733 44.2047C41.1733 44.2047 40.9031 44.4729 40.0729 44.4571C39.1855 44.4403 39.0051 44.1987 39.0051 44.1987C39.0051 44.1987 38.8079 37.8885 38.7941 36.1275C38.7803 34.3665 38.6768 29.8024 39.221 27.1945L44.3491 27.1265Z" fill="#455A64"/>
<path d="M39.5817 29.7167C39.8568 30.4414 40.8438 30.9433 41.2766 31.0419L41.8041 33.8125V37.1885L42.0427 33.8489L41.4512 30.471C41.4512 30.471 40.2492 30.396 39.5817 29.7167ZM43.6765 29.3331C43.7495 29.6181 43.8155 29.905 43.8865 30.1919C43.9575 30.4789 44.0246 30.7648 44.0995 31.0537C44.1003 30.7566 44.0779 30.4599 44.0325 30.1663C43.9902 29.8718 43.9333 29.5796 43.8619 29.2907C43.7901 29.0012 43.7015 28.7161 43.5967 28.4369C43.4942 28.1554 43.362 27.8857 43.2023 27.6323C43.2949 27.9163 43.3778 28.1983 43.4566 28.4822C43.5355 28.7662 43.6075 29.0482 43.6765 29.3331ZM44.1813 28.78C44.2799 28.9516 44.3785 29.1251 44.4692 29.2986L44.7483 29.8301C44.7268 29.6275 44.6787 29.4286 44.6053 29.2385C44.5344 29.0484 44.4487 28.8641 44.349 28.6873C44.2485 28.511 44.1358 28.342 44.0117 28.1815C43.8882 28.0195 43.7499 27.8693 43.5986 27.7329C43.6893 27.9153 43.7889 28.0888 43.8875 28.2614C43.9861 28.4339 44.0857 28.6075 44.1813 28.783V28.78ZM43.7869 36.8138C43.6075 35.9047 43.4783 34.9838 43.3502 34.0639C43.222 33.144 43.1007 32.2191 42.9627 31.2982C43.0267 32.227 43.1017 33.1548 43.2023 34.0807C43.3028 35.0065 43.4231 35.9313 43.5967 36.8493C43.7702 37.7672 43.9763 38.6724 44.1784 39.5824C44.3805 40.4925 44.5885 41.3986 44.8114 42.3037C44.6615 41.3835 44.4992 40.4665 44.3243 39.5529C44.1596 38.6428 43.9753 37.7229 43.7909 36.8138H43.7869ZM39.6458 33.8065L39.7829 31.38C39.6616 32.1826 39.5689 32.9892 39.4979 33.7967C39.4269 34.6042 39.3658 35.4117 39.3688 36.2321C39.4033 37.0475 39.425 40.2746 39.5275 41.0792C39.5995 40.178 39.5758 37.8008 39.5758 37.8008C39.5521 37.3975 39.5709 36.6284 39.56 36.2232C39.5492 35.8179 39.5719 35.4186 39.5876 35.0154C39.6034 34.6121 39.632 34.2118 39.6517 33.8115L39.6458 33.8065Z" fill="#37474F"/>
<path d="M36.0908 13.6905C37.0216 13.94 37.8656 14.8047 38.3014 15.6862C40.2359 15.7315 42.6032 16.5656 44.7734 17.8731L46.9544 11.4099C43.326 10.4437 39.7015 10.7878 36.0908 13.6905Z" fill="#43C857"/>
<path d="M54.2127 19.8105C53.3254 19.4447 52.1254 19.6202 51.2449 20.057C49.6802 18.9201 47.2911 18.1471 44.7729 17.8711L46.9539 11.4099C50.4295 12.8435 53.1025 15.3144 54.2127 19.8105Z" fill="#43C857"/>
<path opacity="0.25" d="M54.2127 19.8105C53.3254 19.4447 52.1254 19.6202 51.2449 20.057C49.6802 18.9201 47.2911 18.1471 44.7729 17.8711L46.9539 11.4099C50.4295 12.8435 53.1025 15.3144 54.2127 19.8105Z" fill="black"/>
<path d="M38.3013 15.6861C40.2348 15.7315 42.6041 16.5646 44.7733 17.8721L46.9543 11.4099C44.4242 11.0934 40.6913 12.6651 38.3013 15.6861Z" fill="#43C857"/>
<path opacity="0.15" d="M38.3013 15.6861C40.2348 15.7315 42.6041 16.5646 44.7733 17.8721L46.9543 11.4099C44.4242 11.0934 40.6913 12.6651 38.3013 15.6861Z" fill="black"/>
<path opacity="0.15" d="M54.2129 19.8105C53.1027 15.3144 50.4297 12.8435 46.9541 11.4099C49.1597 12.6917 51.1741 16.2077 51.2421 20.059C52.1256 19.6222 53.3216 19.4467 54.2129 19.8105Z" fill="black"/>
<path d="M42.9528 20.6684C42.8217 20.8084 42.7802 20.9553 42.5673 20.8872C42.3839 20.8291 42.2508 20.6901 42.1029 20.5737C41.9096 20.4238 41.72 20.2697 41.534 20.1113C41.1682 19.7987 40.8162 19.4684 40.4819 19.1253C40.2896 18.9281 40.0629 18.7063 39.9465 18.4529C39.8246 18.2085 39.7679 17.9368 39.7819 17.6641C39.8341 17.1021 40.1812 16.3724 41.2145 16.1624C42.0763 15.9879 43.7209 16.1762 43.9299 17.2943C43.9407 17.3525 44.0689 17.4304 44.1054 17.4826C44.2982 17.7621 44.3912 18.0983 44.3696 18.4371C44.3342 18.9527 44.0364 19.4102 43.713 19.8175C43.4744 20.1063 43.216 20.3893 42.9528 20.6684Z" fill="#263238"/>
<path d="M38.4954 22.732C37.7066 23.6381 37.0016 24.3638 37.0016 24.3638C37.0016 24.3638 36.7699 24.1666 36.7571 24.1578C36.4968 23.9349 36.2395 23.7082 35.992 23.4676C35.71 23.1954 35.4517 22.9085 35.357 22.5141C35.3386 22.4277 35.3261 22.34 35.3195 22.2519C35.2949 21.9985 35.2702 21.746 35.2466 21.4926C35.226 21.3687 35.2141 21.2435 35.2111 21.118C35.2302 21.0369 35.2401 20.9538 35.2407 20.8705C35.2239 20.7778 35.1056 20.7453 34.9449 20.902C34.858 21.0059 34.799 21.13 34.7733 21.2629C34.7408 21.3793 34.7289 21.5291 34.6875 21.535C34.6461 21.541 34.513 21.4049 34.3641 21.3112C34.2152 21.2176 34.095 21.0983 33.8968 21.0914C33.8651 21.0887 33.8333 21.0928 33.8033 21.1033C33.7734 21.1138 33.746 21.1306 33.723 21.1525C33.6999 21.1744 33.6818 21.2009 33.6698 21.2303C33.6578 21.2597 33.6521 21.2913 33.6532 21.3231C33.6601 21.3748 33.6805 21.4238 33.7124 21.465C33.6826 21.4509 33.6503 21.4431 33.6174 21.4421C33.5845 21.441 33.5517 21.4469 33.5211 21.4591C33.4693 21.4906 33.4299 21.5389 33.4096 21.5961C33.3893 21.6532 33.3893 21.7156 33.4097 21.7727C33.3753 21.7617 33.3381 21.7636 33.3049 21.7779C33.2718 21.7922 33.2449 21.818 33.2293 21.8506C33.174 21.9492 33.1504 22.0596 33.2421 22.1375C33.2421 22.1375 33.1435 22.1286 33.1247 22.1779C33.106 22.2272 33.034 22.381 33.1031 22.4737C33.1844 22.5498 33.2794 22.6097 33.3831 22.6502C33.3831 22.6502 33.3831 22.6936 33.4698 22.7803C33.5406 22.9064 33.6207 23.0271 33.7094 23.1412C33.8711 23.3147 34.0289 23.3621 34.2202 23.4725C34.5298 23.651 34.865 24.2041 35.214 24.7543C35.6301 25.405 35.9772 25.9917 36.411 26.4097C36.9513 26.9313 37.3053 26.8801 37.9886 26.1987C38.8198 25.3705 39.7269 24.2268 39.7269 24.2268L40.0523 21.6366C39.4341 21.7096 39.1304 22.0054 38.4954 22.732Z" fill="#FFBDA7"/>
<path d="M33.7796 22.4727C33.7758 22.4881 33.7695 22.5028 33.7609 22.5161C33.7531 22.5336 33.7425 22.5496 33.7293 22.5634C33.7115 22.5849 33.6906 22.6035 33.6672 22.6186C33.6521 22.6272 33.6358 22.6335 33.6189 22.6374C33.5698 22.6492 33.5194 22.6541 33.469 22.6522H33.3812C33.4189 22.6671 33.4583 22.677 33.4986 22.6817C33.5472 22.6862 33.5962 22.6822 33.6435 22.6699C33.6546 22.6672 33.6655 22.6636 33.6761 22.6591C33.705 22.6462 33.7298 22.6258 33.748 22.5999C33.7701 22.5712 33.7844 22.5372 33.7894 22.5013C33.7894 22.5013 33.7894 22.4688 33.7894 22.4678C33.8222 22.4709 33.8553 22.4709 33.888 22.4678C33.9398 22.4671 33.9904 22.4528 34.035 22.4264C34.0544 22.4085 34.0707 22.3875 34.0833 22.3643C34.0871 22.3568 34.0897 22.3488 34.0912 22.3406L34.1405 22.3041C34.1371 22.4104 34.1594 22.5159 34.2055 22.6117C34.2578 22.73 34.3384 22.8336 34.4402 22.9135C34.3496 22.8175 34.288 22.6979 34.2627 22.5684C34.2454 22.4697 34.2492 22.3686 34.2738 22.2715C34.2984 22.1745 34.3434 22.0838 34.4057 22.0054H34.4146C34.4336 22.0006 34.4507 21.9903 34.4639 21.9758C34.4881 21.9487 34.5015 21.9136 34.5013 21.8772C34.5018 21.8436 34.4961 21.8102 34.4846 21.7786C34.4368 21.6584 34.3486 21.5587 34.2351 21.4966C34.2315 21.4691 34.2242 21.4423 34.2134 21.4167C34.2015 21.3904 34.1869 21.3653 34.17 21.3418C34.1835 21.3668 34.1951 21.3929 34.2045 21.4197C34.2133 21.4461 34.218 21.4737 34.2183 21.5015H34.2233C34.325 21.5688 34.403 21.6665 34.4461 21.7806C34.4576 21.8057 34.4623 21.8334 34.4597 21.8609C34.4571 21.8884 34.4473 21.9148 34.4313 21.9373C34.4086 21.958 34.3968 21.962 34.3702 21.9482C34.3436 21.9344 34.3169 21.9186 34.2884 21.9048C34.2322 21.8762 34.173 21.8545 34.1178 21.8279C34.0636 21.8014 34.0129 21.7683 33.9669 21.7293C33.9204 21.6885 33.876 21.6454 33.8338 21.6001C33.7897 21.5566 33.7485 21.5102 33.7106 21.4611C33.777 21.5672 33.8562 21.6649 33.9462 21.752C33.9926 21.7961 34.045 21.8333 34.102 21.8624C34.1582 21.891 34.2164 21.9127 34.2696 21.9413L34.3022 21.96C34.3172 21.9845 34.3225 22.0137 34.3169 22.0418C34.3119 22.0661 34.2999 22.0883 34.2824 22.1059C34.2648 22.1234 34.2426 22.1354 34.2183 22.1404C34.1685 22.1555 34.1173 22.1654 34.0655 22.17C34.0147 22.1735 33.9637 22.1681 33.9147 22.1542C33.822 22.1062 33.737 22.0447 33.6623 21.9718C33.5794 21.9038 33.4966 21.8358 33.4098 21.7746C33.4848 21.8525 33.5627 21.9255 33.6406 21.9994C33.679 22.0359 33.7194 22.0714 33.7599 22.1069C33.8013 22.1448 33.849 22.1751 33.9009 22.1966C33.9331 22.2048 33.9662 22.2094 33.9995 22.2104C34.028 22.2288 34.0496 22.2562 34.0606 22.2883C34.0642 22.2982 34.0654 22.3088 34.0642 22.3192C34.063 22.3297 34.0594 22.3397 34.0537 22.3485C34.0421 22.3675 34.0271 22.3843 34.0093 22.3978C33.9682 22.4169 33.9235 22.427 33.8782 22.4274C33.8333 22.4344 33.7874 22.431 33.7441 22.4175C33.7029 22.3957 33.6648 22.3685 33.6307 22.3367C33.5906 22.3076 33.5481 22.2822 33.5035 22.2607C33.4167 22.2174 33.329 22.1759 33.2383 22.1395C33.3211 22.1917 33.4049 22.2381 33.4877 22.2893C33.5291 22.315 33.5706 22.3386 33.608 22.3672C33.6439 22.4024 33.6844 22.4325 33.7283 22.4569C33.7447 22.4643 33.7619 22.4696 33.7796 22.4727Z" fill="#F0997A"/>
<path d="M37.0015 24.3638C37.247 24.5512 37.5497 24.8263 37.5793 25.2808C37.6114 25.0777 37.5849 24.8697 37.5028 24.6812C37.4207 24.4927 37.2864 24.3317 37.1158 24.2169L37.0015 24.3638Z" fill="#F28F8F"/>
<path d="M40.1431 21.5853C39.3543 21.6711 39.0585 22.028 38.4048 22.7685C37.828 23.4193 37.0017 24.2918 37.0017 24.2918L35.8008 23.2773C35.8008 23.2773 35.8718 23.5277 35.5277 23.926C35.4407 24.0232 35.3315 24.0979 35.2095 24.1439C35.0875 24.1899 34.9561 24.2058 34.8267 24.1903C34.8267 24.1903 35.3049 24.9968 35.9221 25.9079C36.5393 26.8189 37.053 26.9234 37.4997 26.6799C37.9463 26.4364 40.008 24.2475 40.008 24.2475L40.1431 21.5853Z" fill="#37474F"/>
<path d="M37.0015 24.2918C37.4018 24.628 37.6355 25.2876 37.6838 25.6603C37.7518 24.8016 37.1908 24.0946 37.1908 24.0946L37.0015 24.2918Z" fill="#263238"/>
<path d="M44.9104 28.4872C45.2417 28.218 44.9833 27.7339 44.8009 26.3752C44.7447 25.9562 45.0139 24.9179 45.0139 24.9179C45.0139 24.9179 44.2369 23.7466 44.4884 21.7125L43.2815 21.4867L41.3194 21.4581L40.1905 21.6474C39.9302 21.8772 39.6738 22.2824 39.2952 22.8306C38.748 23.6194 38.6504 24.6931 39.24 25.3242C39.2598 25.8117 39.251 26.2999 39.2134 26.7864C39.1394 27.4647 38.7608 28.1263 39.1552 28.4625C40.3078 29.4426 43.3476 29.5106 44.9104 28.4872Z" fill="#43C857"/>
<path opacity="0.2" d="M44.9104 28.4872C45.2417 28.218 44.9833 27.7339 44.8009 26.3752C44.7447 25.9562 45.0139 24.9179 45.0139 24.9179C45.0139 24.9179 44.2369 23.7466 44.4884 21.7125L43.2815 21.4867L41.3194 21.4581L40.1905 21.6474C39.9302 21.8772 39.6738 22.2824 39.2952 22.8306C38.748 23.6194 38.6504 24.6931 39.24 25.3242C39.2598 25.8117 39.251 26.2999 39.2134 26.7864C39.1394 27.4647 38.7608 28.1263 39.1552 28.4625C40.3078 29.4426 43.3476 29.5106 44.9104 28.4872Z" fill="white"/>
<path d="M43.5228 20.0235C43.6296 20.0385 43.7385 20.0266 43.8396 19.9889C43.9406 19.9512 44.0307 19.8889 44.1016 19.8076C44.4073 19.4783 44.4358 19.143 44.2939 18.9202C44.1775 18.7368 43.8896 18.6244 43.6875 18.7427C43.4854 18.8611 43.4647 18.9843 43.3828 19.1371C43.301 19.29 43.0919 19.1697 43.1629 18.5662C43.044 18.5063 42.9498 18.4065 42.8967 18.2843C42.8829 18.2566 42.7715 17.9185 42.7754 17.9185C42.6492 17.892 42.5299 17.8394 42.4253 17.764C42.3207 17.6886 42.2331 17.5921 42.1681 17.4807C42.1634 17.5924 42.1875 17.7034 42.2381 17.8031C42.057 17.7986 41.877 17.7732 41.7017 17.7272C41.5253 17.6796 41.3711 17.5719 41.2659 17.4225C41.2532 17.5906 41.2796 17.7593 41.3428 17.9155C41.1504 17.878 40.9743 17.7821 40.8383 17.641C40.7023 17.4999 40.613 17.3203 40.5826 17.1267C40.4357 17.3653 40.2799 17.5803 40.2139 17.8534C40.1539 18.12 40.1131 18.3905 40.0916 18.6629C39.993 19.7544 40.0857 20.3164 40.413 20.6122C40.6675 20.8361 40.995 20.9595 41.3339 20.9592L41.3192 21.467C41.3192 21.467 40.2011 22.5269 41.6426 22.4234C41.9636 22.3967 42.2753 22.3019 42.5568 22.1453C42.8384 21.9887 43.0833 21.774 43.2753 21.5153L43.2842 19.8599C43.2842 19.8599 43.3059 19.9841 43.5228 20.0235Z" fill="#FFBDA7"/>
<path d="M41.1572 19.8293C41.175 19.912 41.2246 19.9843 41.2952 20.0308C41.3658 20.0773 41.4519 20.0941 41.5349 20.0778C41.576 20.0702 41.6152 20.0545 41.6503 20.0317C41.6853 20.0089 41.7155 19.9793 41.7391 19.9448C41.7627 19.9102 41.7791 19.8713 41.7876 19.8303C41.796 19.7894 41.7962 19.7471 41.7883 19.7061L41.1572 19.8293Z" fill="#B16668"/>
<path d="M41.7906 19.8105C41.7815 19.8763 41.7519 19.9376 41.7061 19.9857C41.6603 20.0338 41.6005 20.0664 41.5353 20.0787C41.4977 20.0851 41.4594 20.0851 41.4219 20.0787C41.4359 19.9946 41.4825 19.9194 41.5514 19.8692C41.6204 19.8191 41.7063 19.798 41.7906 19.8105Z" fill="#F28F8F"/>
<path d="M41.8774 18.1196L42.2916 18.3375C42.3073 18.3117 42.3176 18.2829 42.3217 18.253C42.3259 18.223 42.3237 18.1926 42.3155 18.1635C42.3072 18.1344 42.2931 18.1073 42.2738 18.084C42.2546 18.0607 42.2308 18.0416 42.2038 18.0279C42.1479 17.9993 42.0832 17.9928 42.0227 18.0098C41.9621 18.0268 41.9103 18.066 41.8774 18.1196Z" fill="#263238"/>
<path d="M40.7573 18.0713L40.3422 18.2882C40.3265 18.2625 40.3162 18.2338 40.3121 18.204C40.308 18.1741 40.3101 18.1437 40.3184 18.1147C40.3266 18.0857 40.3408 18.0587 40.36 18.0354C40.3792 18.0122 40.4031 17.9932 40.43 17.9796C40.4861 17.9509 40.5509 17.9444 40.6116 17.9614C40.6723 17.9784 40.7243 18.0177 40.7573 18.0713Z" fill="#263238"/>
<path d="M42.1078 18.6274C42.108 18.6613 42.0981 18.6946 42.0793 18.7229C42.0606 18.7513 42.0339 18.7734 42.0025 18.7866C41.9712 18.7997 41.9367 18.8032 41.9033 18.7967C41.87 18.7902 41.8393 18.774 41.8152 18.75C41.7912 18.7261 41.7747 18.6955 41.768 18.6622C41.7613 18.6289 41.7647 18.5943 41.7776 18.5629C41.7906 18.5315 41.8126 18.5047 41.8408 18.4858C41.869 18.4669 41.9022 18.4568 41.9362 18.4568C41.9587 18.4567 41.981 18.461 42.0018 18.4695C42.0226 18.478 42.0415 18.4905 42.0575 18.5064C42.0734 18.5223 42.0861 18.5411 42.0947 18.5619C42.1033 18.5826 42.1078 18.6049 42.1078 18.6274Z" fill="#263238"/>
<path d="M40.7918 18.578C40.792 18.6121 40.7821 18.6454 40.7633 18.6737C40.7446 18.7021 40.7178 18.7242 40.6864 18.7373C40.655 18.7505 40.6204 18.7539 40.5871 18.7473C40.5537 18.7408 40.523 18.7244 40.499 18.7003C40.4749 18.6763 40.4586 18.6456 40.452 18.6123C40.4454 18.5789 40.4489 18.5443 40.462 18.5129C40.4751 18.4815 40.4972 18.4548 40.5256 18.436C40.554 18.4172 40.5873 18.4073 40.6213 18.4075C40.6665 18.4075 40.7099 18.4254 40.7419 18.4574C40.7739 18.4894 40.7918 18.5328 40.7918 18.578Z" fill="#263238"/>
<path d="M40.6792 19.0957L41.2619 19.4023L41.4502 18.2181L40.6792 19.0957Z" fill="#F0997A"/>
<path d="M41.334 20.9514C41.898 20.9307 42.7893 20.694 43.0466 20.0739C42.8958 20.7295 42.3456 20.9612 42.0291 21.049C41.8037 21.1117 41.5724 21.1507 41.3389 21.1653L41.334 20.9514Z" fill="#F0997A"/>
<path d="M41.3161 21.3171V21.4591C40.7688 21.8978 40.3012 22.4274 39.9338 23.0249C39.3422 23.9961 39.5226 25.2098 39.493 26.461C39.4634 27.7122 39.5305 30.3665 39.5305 30.3665C39.5305 30.3665 38.9744 30.2551 38.6904 29.8301C38.6904 29.133 38.8876 26.7568 38.9024 26.0114C38.9168 25.5234 38.8748 25.0354 38.7772 24.5571C38.6786 24.0069 38.7654 22.9115 40.1428 21.5843L41.3161 21.3171Z" fill="#263238"/>
<path d="M43.2752 21.3516C43.2752 21.3516 42.7398 22.5485 42.7231 23.7672C42.7063 24.9859 43.2072 30.9047 43.2072 30.9047C43.2072 30.9047 45.0717 31.0536 45.962 30.2698C45.7648 29.3094 45.327 27.9034 45.1732 27.301C45.0194 26.6985 44.9297 26.2036 45.0746 25.5735C45.2196 24.9435 45.3487 24.5294 45.3487 24.5294L44.6339 21.6582L43.2752 21.3516Z" fill="#263238"/>
<path d="M46.5413 12.6424L46.5886 12.6503L46.6458 12.6592C46.6622 12.6601 46.6787 12.6601 46.6951 12.6592C46.769 12.6592 46.7513 12.6237 46.769 12.5882L46.8676 12.2815C46.9544 12.0281 47.053 11.686 47.1516 11.3409C47.1989 11.1684 47.2423 10.9948 47.2798 10.8312C47.2985 10.7493 47.3192 10.6714 47.335 10.5955L47.3794 10.3825C47.3941 10.3165 47.404 10.2554 47.4139 10.2011C47.4237 10.1469 47.4326 10.1025 47.4385 10.0611C47.4523 9.98322 47.4572 9.93787 47.4572 9.93787C47.4572 9.93787 47.4346 9.97731 47.3981 10.0473C47.3794 10.0818 47.3567 10.1242 47.333 10.1735C47.3094 10.2228 47.2788 10.278 47.2502 10.3392L47.1516 10.5364C47.1181 10.6054 47.0865 10.6803 47.053 10.7572C46.984 10.91 46.913 11.0747 46.8459 11.2403C46.7109 11.5716 46.5856 11.9059 46.4959 12.1583L46.3904 12.464C46.3835 12.5024 46.346 12.5221 46.4062 12.5626C46.4193 12.573 46.4332 12.5825 46.4476 12.5911L46.4979 12.6188L46.5413 12.6424Z" fill="#263238"/>
<path d="M42.3003 24.6596L46.0815 13.4194C46.088 13.3982 46.0987 13.3785 46.1129 13.3615C46.1272 13.3444 46.1447 13.3305 46.1644 13.3203C46.1842 13.3102 46.2057 13.3042 46.2279 13.3026C46.25 13.3009 46.2722 13.3038 46.2932 13.3109C46.3142 13.3181 46.3336 13.3293 46.3501 13.3441C46.3667 13.3589 46.3801 13.3768 46.3896 13.3968C46.3991 13.4169 46.4045 13.4386 46.4055 13.4608C46.4064 13.483 46.4029 13.5051 46.3951 13.5259L42.6158 24.7651C42.5261 24.8262 42.32 24.7523 42.3003 24.6596Z" fill="#E0E0E0"/>
<path d="M42.1693 24.6093L41.7207 25.7658C41.4831 26.4156 41.0936 26.4925 40.7229 26.3495C40.3521 26.2065 40.3709 25.5883 40.4685 25.3399C40.4884 25.2777 40.4838 25.2102 40.4556 25.1514C40.4274 25.0925 40.3777 25.0466 40.3167 25.0233C40.2557 24.9999 40.1881 25.0008 40.1277 25.0258C40.0674 25.0507 40.0189 25.0979 39.9922 25.1575C39.8029 25.4907 39.6215 26.5112 40.5434 26.8731C40.7661 26.9557 41.0069 26.9771 41.2407 26.935C41.4745 26.8928 41.6927 26.7887 41.8725 26.6335C42.0353 26.4916 42.1571 26.3088 42.2255 26.104L42.7185 24.8222L42.1693 24.6093Z" fill="#455A64"/>
<path d="M42.2839 24.5364C42.3554 24.5259 42.4284 24.5324 42.4969 24.5553C42.5654 24.5783 42.6275 24.6171 42.6783 24.6685C42.767 24.7671 42.7335 24.8716 42.6024 24.8982C42.5309 24.9082 42.4581 24.9015 42.3896 24.8785C42.3212 24.8556 42.259 24.8171 42.208 24.7661C42.1232 24.6665 42.1528 24.563 42.2839 24.5364Z" fill="#455A64"/>
<path d="M45.7456 14.9939C47.7382 15.2885 49.5976 16.1712 51.0856 17.5289C52.7253 17.942 53.6965 18.7446 54.2132 19.8124C53.2647 15.2503 50.3067 12.5428 46.9544 11.4099C43.602 10.277 39.6127 10.6408 36.0908 13.6905C37.1498 13.1551 38.4089 13.1048 39.9628 13.7713C41.9691 13.5943 43.9826 14.02 45.7456 14.9939Z" fill="#43C857"/>
<g opacity="0.2">
<path d="M45.7456 14.9939C47.7382 15.2885 49.5976 16.1712 51.0856 17.5289C52.7253 17.942 53.6965 18.7446 54.2132 19.8124C53.2647 15.2503 50.3067 12.5428 46.9544 11.4099C43.602 10.277 39.6127 10.6408 36.0908 13.6905C37.1498 13.1551 38.4089 13.1048 39.9628 13.7713C41.9691 13.5943 43.9826 14.02 45.7456 14.9939Z" fill="white"/>
</g>
<path d="M39.9629 13.7713C41.9692 13.5939 43.9829 14.0196 45.7457 14.9939L46.9545 11.4099C43.1249 10.1153 39.9629 13.7713 39.9629 13.7713Z" fill="#43C857"/>
<path opacity="0.1" d="M39.9629 13.7713C41.9692 13.5939 43.9829 14.0196 45.7457 14.9939L46.9545 11.4099C43.1249 10.1153 39.9629 13.7713 39.9629 13.7713Z" fill="white"/>
<path d="M51.0857 17.5289C49.5975 16.1714 47.7382 15.2888 45.7456 14.994L46.9544 11.4099C50.7889 12.7045 51.0857 17.5289 51.0857 17.5289Z" fill="#43C857"/>
<path d="M54.2134 19.8105C53.2649 15.2503 50.3069 12.5428 46.9546 11.4099C50.7861 12.7045 51.0829 17.5289 51.0829 17.5289C52.7255 17.942 53.6967 18.7446 54.2134 19.8105Z" fill="#43C857"/>
<path opacity="0.15" d="M54.2134 19.8105C53.2649 15.2503 50.3069 12.5428 46.9546 11.4099C50.7861 12.7045 51.0829 17.5289 51.0829 17.5289C52.7255 17.942 53.6967 18.7446 54.2134 19.8105Z" fill="black"/>
<path d="M47.3638 27.6806C46.3837 27.8354 44.7016 27.2754 43.5391 27.1876C43.3092 27.1752 43.0787 27.1771 42.8489 27.1935C42.4289 27.1994 42.2051 26.8149 41.9231 26.5891L41.8797 26.5566C41.819 26.512 41.7527 26.4755 41.6825 26.4481C41.51 26.3564 41.4656 26.3357 41.4143 26.2647C41.3415 26.3301 41.2535 26.3765 41.1584 26.3995C41.0632 26.4226 40.9638 26.4217 40.8691 26.3968C40.7942 26.2815 40.7449 26.1572 40.7813 26.0872C40.7965 26.0584 40.8213 26.0357 40.8513 26.0232C40.8326 25.9708 40.822 25.916 40.8198 25.8605C40.7942 25.6554 40.9805 25.614 41.0998 25.5647C41.0905 25.5305 41.09 25.4945 41.0982 25.46C41.1065 25.4255 41.1233 25.3937 41.1471 25.3675C41.23 25.2817 41.3236 25.2186 41.7722 25.0352C41.8417 24.9997 41.9181 24.9799 41.9961 24.977H42.0247C42.151 24.9916 42.2724 25.0348 42.3796 25.1032L42.5423 25.2018L42.5679 25.2166C42.9282 25.434 43.3039 25.6248 43.692 25.7875C43.9552 25.8743 45.725 25.7244 45.725 25.7244L44.9363 24.0995C44.9363 24.0995 44.3102 22.7379 44.605 21.7982C45.3731 21.8051 45.7793 21.9096 46.2861 22.5288C46.7929 23.148 47.9386 25.9798 48.049 26.4816C48.1742 27.0456 48.3211 27.5287 47.3638 27.6806Z" fill="#FFBDA7"/>
<path d="M45.6401 25.5381L45.7279 25.7215C46.1814 25.7215 46.8184 26.1543 46.9771 26.3584C46.8075 26.0143 46.4398 25.5509 45.6401 25.5381Z" fill="#F0997A"/>
<path d="M41.0986 25.5647L41.6251 25.3192L41.0917 25.4868C41.0894 25.513 41.0917 25.5394 41.0986 25.5647Z" fill="#F0997A"/>
<path d="M40.8503 26.0222L41.4665 25.7845L40.8315 25.9502C40.8352 25.9748 40.8415 25.9989 40.8503 26.0222Z" fill="#F0997A"/>
<path d="M44.6295 21.6582C45.3887 21.6789 46.0424 21.8712 46.561 22.7743C47.0797 23.6775 47.5342 24.7857 47.8813 25.7638C48.2283 26.7419 48.3023 27.2221 48.0213 27.4785C47.7403 27.7348 47.2512 27.8324 46.4536 27.7447C45.7895 27.6494 45.1312 27.5178 44.4816 27.3503C44.6173 27.0703 44.6755 26.7592 44.6502 26.4491C44.6186 25.8999 44.4658 25.7914 44.4658 25.7914L45.649 25.6928C45.649 25.6928 45.1856 24.7512 44.872 24.0985C44.5585 23.4458 44.3445 22.0171 44.6295 21.6582Z" fill="#37474F"/>
<path d="M45.648 25.6929C46.141 25.6554 46.7641 25.7915 47.0461 26.1671C46.7621 25.5105 45.8974 25.4444 45.5435 25.477L45.648 25.6929Z" fill="#263238"/>
<path d="M36.5165 18.8245L36.0639 18.1757C36.3279 17.5934 36.3635 16.9331 36.1636 16.3258C35.9637 15.7185 35.5429 15.2084 34.9846 14.8967C34.4264 14.5851 33.7714 14.4945 33.1495 14.643C32.5276 14.7914 31.9842 15.1681 31.627 15.6984C31.2698 16.2287 31.1248 16.8738 31.2208 17.5059C31.3168 18.1381 31.6469 18.711 32.1454 19.1113C32.644 19.5116 33.2748 19.7099 33.9127 19.667C34.5506 19.6241 35.1492 19.3431 35.5897 18.8797L36.3627 19.0542C36.3919 19.061 36.4225 19.0586 36.4504 19.0476C36.4783 19.0366 36.5021 19.0173 36.5188 18.9924C36.5355 18.9675 36.5442 18.9381 36.5438 18.9081C36.5434 18.8781 36.5339 18.8489 36.5165 18.8245ZM35.6912 18.4301C35.3805 18.8927 34.9147 19.2291 34.3779 19.3786L34.1156 19.4368C33.5121 19.5384 32.8928 19.4004 32.3896 19.052C31.8864 18.7037 31.5391 18.1727 31.4217 17.572C31.3043 16.9714 31.4262 16.3486 31.7612 15.8365C32.0963 15.3244 32.6181 14.9633 33.2154 14.8303L33.4807 14.7849C33.9267 14.734 34.378 14.8121 34.7811 15.0098C35.1842 15.2076 35.522 15.5168 35.7547 15.9008C35.9874 16.2848 36.1051 16.7274 36.0938 17.1762C36.0826 17.625 35.9428 18.0612 35.6912 18.4331V18.4301Z" fill="#455A64"/>
<path d="M35.0541 15.1704C34.5912 14.8578 34.0315 14.7214 33.4766 14.7859L33.2113 14.8313C32.614 14.9643 32.0922 15.3253 31.7571 15.8375C31.4221 16.3496 31.3002 16.9724 31.4176 17.573C31.535 18.1736 31.8823 18.7047 32.3855 19.053C32.8887 19.4014 33.508 19.5394 34.1115 19.4378L34.3738 19.3796C34.8057 19.2587 35.1938 19.0166 35.4924 18.6819C35.791 18.3473 35.9875 17.9342 36.0586 17.4914C36.1298 17.0486 36.0726 16.5947 35.8939 16.1834C35.7152 15.7721 35.4224 15.4206 35.0502 15.1704H35.0541Z" fill="white"/>
<path d="M33.4521 18.3246C33.4079 18.3253 33.364 18.3169 33.3231 18.3C33.2822 18.283 33.2453 18.2578 33.2145 18.226L32.477 17.4372C32.4178 17.3741 32.3861 17.29 32.3888 17.2035C32.3916 17.1169 32.4287 17.035 32.4918 16.9758C32.555 16.9166 32.639 16.8848 32.7256 16.8876C32.8121 16.8904 32.894 16.9274 32.9532 16.9906L33.4314 17.5013L34.5633 16.0638C34.589 16.0279 34.6216 15.9977 34.6593 15.9748C34.697 15.9519 34.7389 15.937 34.7825 15.9308C34.8261 15.9246 34.8706 15.9274 34.9131 15.9389C34.9556 15.9504 34.9954 15.9705 35.0299 15.9978C35.0645 16.0251 35.0931 16.0592 35.1141 16.098C35.1351 16.1367 35.148 16.1793 35.152 16.2232C35.1561 16.267 35.1512 16.3113 35.1376 16.3532C35.124 16.3951 35.1021 16.4338 35.0731 16.467L33.7065 18.1984C33.6775 18.2351 33.6409 18.2651 33.5992 18.2864C33.5575 18.3077 33.5117 18.3197 33.465 18.3217L33.4521 18.3246Z" fill="#43C857"/>
</svg>
