<svg width="64" height="64" viewBox="0 0 64 64" fill="none" xmlns="http://www.w3.org/2000/svg">
<g clip-path="url(#clip0_4552_16354)">
<path d="M1.36891 27.3314C1.38725 27.0937 1.68913 27.0486 1.7761 27.2699C2.61017 29.4102 4.95527 34.954 7.88388 37.7031C12.6486 42.1775 16.3824 49.9038 14.1982 54.3808C14.1961 54.3793 -0.674398 53.1584 1.36891 27.3314Z" fill="url(#paint0_linear_4552_16354)"/>
<path opacity="0.43" d="M2.14401 30.4334C2.15744 30.5044 2.17451 30.5622 2.18874 30.6259L2.23784 30.8106L2.33963 31.1794C2.40808 31.4252 2.48166 31.6685 2.55369 31.9138C2.70109 32.4021 2.85183 32.8882 3.00768 33.3717C3.32142 34.3403 3.65947 35.3001 4.01134 36.2543C4.36142 37.2088 4.73581 38.1545 5.1289 39.0903C5.52199 40.0261 5.9289 40.9564 6.3632 41.8737C7.22798 43.7072 8.18495 45.4951 9.25318 47.204C9.79485 48.0537 10.3581 48.8877 10.9636 49.6849C11.574 50.4778 12.2155 51.2446 12.9062 51.9589C12.9212 51.9751 12.9447 51.9737 12.9591 51.959C12.9735 51.9442 12.9718 51.9189 12.9586 51.9025C12.2974 51.164 11.6728 50.3877 11.0844 49.5826C10.4942 48.7779 9.94665 47.9381 9.41929 47.0863C8.89348 46.2326 8.3974 45.3565 7.92182 44.4704C7.44599 43.5824 7.00218 42.6754 6.56528 41.7657C5.69636 39.9419 4.91759 38.0711 4.18719 36.1809C3.82353 35.2338 3.47727 34.2806 3.14663 33.3216C2.98028 32.8413 2.81931 32.3603 2.66167 31.877L2.43224 31.1502L2.32021 30.7865L2.26598 30.6043C2.24867 30.5447 2.23061 30.4798 2.21786 30.4268L2.21663 30.4179C2.21189 30.3967 2.19178 30.383 2.17235 30.3875C2.15112 30.3923 2.13952 30.4139 2.14401 30.4334Z" fill="white"/>
<path d="M4.19964 20.9807C4.22138 20.728 4.53806 20.6844 4.62725 20.9219C5.48478 23.2194 7.90438 29.1722 10.9534 32.1472C15.9152 36.9937 19.7739 45.2971 17.4517 50.0429C17.4499 50.0431 1.87265 48.522 4.19964 20.9807Z" fill="url(#paint1_linear_4552_16354)"/>
<path opacity="0.43" d="M4.98848 24.303C5.00264 24.3795 5.01841 24.4411 5.03517 24.5099L5.08445 24.7091L5.18815 25.105C5.25906 25.3687 5.33331 25.6301 5.40756 25.8915C5.55785 26.4141 5.7135 26.936 5.87428 27.4553C6.19583 28.4939 6.54348 29.5235 6.90495 30.5475C7.26464 31.5718 7.65042 32.587 8.05668 33.5921C8.46295 34.5971 8.88125 35.5969 9.33027 36.5816C10.223 38.5516 11.2129 40.4735 12.3196 42.3157C12.8829 43.2299 13.4659 44.1286 14.0949 44.99C14.7303 45.8451 15.3967 46.6741 16.1155 47.4466C16.1307 47.4645 16.156 47.4629 16.1719 47.4461C16.1861 47.4296 16.186 47.4022 16.171 47.3861C15.4832 46.5874 14.8339 45.7506 14.2239 44.8811C13.6106 44.0139 13.0431 43.1094 12.4975 42.1909C11.9518 41.2725 11.4392 40.3294 10.9471 39.3762C10.4548 38.4212 9.99804 37.4468 9.54463 36.47C8.64806 34.5115 7.84471 32.5019 7.09178 30.4744C6.71698 29.4595 6.36088 28.4347 6.02242 27.4057C5.8514 26.8915 5.6855 26.3747 5.52497 25.8572L5.29019 25.0782L5.17626 24.6874L5.12185 24.4907C5.1038 24.4257 5.08525 24.3572 5.07201 24.3006L5.07078 24.2917C5.06579 24.2687 5.04365 24.2535 5.02242 24.2582C4.99713 24.2599 4.98374 24.2818 4.98848 24.303Z" fill="white"/>
<path d="M14.6128 15.2136C14.6128 13.4997 16.0016 12.1127 17.7137 12.1127H44.0901C45.5458 12.1127 46.7449 13.2523 46.819 14.7061L48.7676 52.948C48.8254 54.0858 47.9297 55.0448 46.7919 55.0647L16.5596 55.6137C15.4905 55.6336 14.6128 54.7721 14.6128 53.7011V15.2136Z" fill="url(#paint2_linear_4552_16354)"/>
<path d="M20.979 54.9655C20.9772 54.9655 20.9772 54.9655 20.979 54.9655L17.5946 54.9221C16.464 54.9077 15.543 53.9758 15.543 52.8434V47.7361C15.543 47.6963 15.5755 47.6638 15.6152 47.6638C15.6549 47.6638 15.6874 47.6963 15.6874 47.7361V52.8434C15.6874 53.8963 16.5435 54.7632 17.5964 54.7776L20.979 54.821C21.0187 54.821 21.0512 54.8535 21.0494 54.8932C21.0494 54.933 21.0169 54.9655 20.979 54.9655Z" fill="url(#paint3_linear_4552_16354)"/>
<path d="M15.6152 46.2262C15.5755 46.2262 15.543 46.1937 15.543 46.154V45.3266C15.543 45.2869 15.5755 45.2544 15.6152 45.2544C15.6549 45.2544 15.6874 45.2869 15.6874 45.3266V46.154C15.6874 46.1937 15.6549 46.2262 15.6152 46.2262Z" fill="url(#paint4_linear_4552_16354)"/>
<path d="M16.773 12.7014C16.7694 12.1541 17.2516 11.7297 17.7952 11.802C21.3963 12.2896 33.7837 13.8012 44.0255 13.0156C44.4932 12.9795 44.8978 13.3335 44.9231 13.8012L46.9639 52.213C46.9927 52.7404 46.59 53.1901 46.0627 53.2208C41.7553 53.4754 24.0168 54.4615 17.6904 53.7987C17.3057 53.759 17.0132 53.4339 17.0114 53.0474L16.773 12.7014Z" fill="url(#paint5_linear_4552_16354)"/>
<path opacity="0.6" d="M17.1973 13.664C17.1937 13.1367 17.6578 12.7285 18.1816 12.7989C21.6472 13.2685 33.5686 14.7223 43.4239 13.9656C43.8736 13.9313 44.2637 14.2708 44.2871 14.7223L46.2521 51.6893C46.2791 52.1968 45.8927 52.6302 45.3852 52.6591C41.2404 52.9047 24.1702 53.8529 18.0804 53.2153C17.7102 53.1774 17.4285 52.865 17.4266 52.4911L17.1973 13.664Z" fill="white"/>
<path opacity="0.78" d="M20.4068 16.5138L20.7753 24.4384C20.7879 24.7021 21.001 24.9116 21.2647 24.9188C22.733 24.9604 27.3058 25.0723 29.8884 24.9369C30.1809 24.9224 30.4121 24.6859 30.4211 24.3933C30.4699 22.907 30.5783 18.5816 30.2387 16.772C30.1845 16.4795 29.9335 16.2664 29.6355 16.2555L20.9595 15.9521C20.647 15.9431 20.3924 16.2014 20.4068 16.5138Z" fill="white"/>
<g opacity="0.6">
<path opacity="0.6" d="M42.14 17.2037C42.2935 17.2037 42.4163 17.0845 42.4109 16.9383C42.4073 16.792 42.2773 16.671 42.1237 16.6674L32.5521 16.4976C32.3986 16.494 32.3137 16.6114 32.3661 16.7559L32.4311 16.9401C32.4817 17.0845 32.6496 17.2037 32.8031 17.2037H42.14Z" fill="white"/>
</g>
<g opacity="0.6">
<path opacity="0.6" d="M32.5521 18.9664C32.3986 18.9628 32.3137 19.0802 32.3661 19.2246L32.4311 19.4088C32.4817 19.5533 32.6496 19.6725 32.8031 19.6725H42.14C42.2935 19.6725 42.4163 19.5533 42.4109 19.407C42.4073 19.2608 42.2773 19.1398 42.1237 19.1361L32.5521 18.9664Z" fill="white"/>
</g>
<g opacity="0.6">
<path opacity="0.6" d="M32.5521 21.67C32.3986 21.6664 32.3137 21.7838 32.3661 21.9283L32.4311 22.1125C32.4817 22.2569 32.6496 22.3761 32.8031 22.3761H42.14C42.2935 22.3761 42.4163 22.2569 42.4109 22.1107C42.4073 21.9644 42.2773 21.8434 42.1237 21.8398L32.5521 21.67Z" fill="white"/>
</g>
<g opacity="0.6">
<path opacity="0.6" d="M43.0644 27.4094C43.218 27.4094 43.3353 27.2902 43.3263 27.1439C43.3173 26.9976 43.1836 26.8766 43.0301 26.8766L20.6846 26.6996C20.5311 26.6978 20.4842 26.7953 20.5799 26.9163L20.7984 27.1909C20.8941 27.3119 21.0982 27.4094 21.2517 27.4094H43.0644Z" fill="white"/>
</g>
<path d="M23.0106 37.6944C23.0088 37.6944 23.007 37.6944 23.0052 37.6944L21.1233 37.6764C20.8542 37.6745 20.632 37.4885 20.6067 37.2465L20.4406 35.6681C20.4316 35.576 20.4605 35.4839 20.5219 35.4099C20.5905 35.3268 20.6952 35.2762 20.809 35.2672C20.9679 35.2564 21.1901 35.2365 21.4267 35.2167C21.9233 35.1751 22.5428 35.1209 22.8914 35.1173C23.1442 35.1155 23.3591 35.2654 23.4187 35.4857C23.5163 35.8487 23.5072 36.5332 23.4892 37.2646C23.4856 37.503 23.2706 37.6944 23.0106 37.6944ZM20.8217 35.4117C20.7476 35.4171 20.679 35.4496 20.6338 35.502C20.5977 35.5453 20.5797 35.5977 20.5851 35.6519L20.7512 37.2303C20.7693 37.4 20.93 37.5283 21.1251 37.5319L23.007 37.5499C23.0088 37.5499 23.0088 37.5499 23.0106 37.5499C23.193 37.5499 23.3429 37.4217 23.3483 37.2628C23.3664 36.544 23.3754 35.8686 23.2833 35.5255C23.2417 35.372 23.081 35.2636 22.8986 35.2636C22.5555 35.2672 21.9396 35.3196 21.4447 35.3629C21.2045 35.381 20.9806 35.4009 20.8217 35.4117Z" fill="white"/>
<path opacity="0.6" d="M21.0242 35.5743C21.4197 35.5472 22.2776 35.4605 22.6857 35.4551C22.8591 35.4533 23.009 35.558 23.0506 35.7061C23.13 35.9969 23.1192 36.5765 23.1047 37.1111C23.1011 37.2718 22.953 37.3982 22.7742 37.3982L21.2716 37.3838C21.0874 37.3819 20.9339 37.2555 20.9158 37.0912L20.784 35.8307C20.7696 35.7007 20.8779 35.5851 21.0242 35.5743Z" fill="white"/>
<g opacity="0.6">
<path opacity="0.6" d="M24.6614 36.6453C24.7156 36.8512 24.9034 36.9957 25.1165 36.9939L42.5209 36.8458C42.7177 36.844 42.8748 36.6814 42.8712 36.4845C42.8676 36.2931 42.7105 36.1395 42.5191 36.1395L25.1147 36.0601C24.8095 36.0583 24.5838 36.3491 24.6614 36.6453Z" fill="white"/>
</g>
<path d="M22.8879 33.5623C22.8861 33.5623 22.8843 33.5623 22.8825 33.5623L21.0007 33.5443C20.7316 33.5425 20.5095 33.3565 20.4842 33.1145L20.318 31.5361C20.309 31.444 20.3379 31.3519 20.3993 31.2778C20.4679 31.1947 20.5727 31.1442 20.6864 31.1351C20.8454 31.1243 21.0675 31.1044 21.3041 31.0846C21.8007 31.043 22.4202 30.9889 22.7687 30.9852C23.0216 30.9834 23.2365 31.1333 23.2961 31.3537C23.3936 31.7167 23.3846 32.4011 23.3665 33.1325C23.3629 33.3709 23.148 33.5623 22.8879 33.5623ZM20.6991 31.2796C20.625 31.285 20.5564 31.3175 20.5113 31.3699C20.4751 31.4133 20.4571 31.4656 20.4625 31.5198L20.6287 33.0982C20.6467 33.268 20.8074 33.3962 21.0025 33.3998L22.8843 33.4179C22.8861 33.4179 22.8861 33.4179 22.8879 33.4179C23.0703 33.4179 23.2202 33.2896 23.2256 33.1307C23.2437 32.4119 23.2527 31.7365 23.1606 31.3934C23.1191 31.2399 22.9584 31.1315 22.776 31.1315C22.4328 31.1351 21.817 31.1875 21.3222 31.2309C21.082 31.2507 20.858 31.2688 20.6991 31.2796Z" fill="white"/>
<path opacity="0.6" d="M20.9014 31.4422C21.2969 31.4151 22.1548 31.3284 22.5629 31.323C22.7363 31.3212 22.8862 31.426 22.9277 31.5741C23.0072 31.8648 22.9963 32.4446 22.9819 32.9792C22.9783 33.1399 22.8302 33.2663 22.6514 33.2663L21.1489 33.2519C20.9647 33.2501 20.8112 33.1236 20.7931 32.9593L20.6613 31.6987C20.645 31.5686 20.7552 31.4531 20.9014 31.4422Z" fill="white"/>
<g opacity="0.6">
<path opacity="0.6" d="M24.5389 32.5149C24.593 32.7208 24.7809 32.8653 24.994 32.8635L42.3983 32.7154C42.5952 32.7136 42.7523 32.551 42.7487 32.3542C42.745 32.1627 42.5879 32.0092 42.3965 32.0092L24.9922 31.9297C24.6869 31.9261 24.4612 32.2169 24.5389 32.5149Z" fill="white"/>
</g>
<path d="M23.0106 41.7255C23.0088 41.7255 23.007 41.7255 23.0052 41.7255L21.1233 41.7074C20.8542 41.7056 20.632 41.5196 20.6067 41.2776L20.4406 39.6991C20.4316 39.607 20.4605 39.5149 20.5219 39.4409C20.5905 39.3578 20.6952 39.3072 20.809 39.2982C20.968 39.2874 21.1901 39.2675 21.4267 39.2476C21.9234 39.2061 22.5428 39.1519 22.8914 39.1483C22.8932 39.1483 22.8968 39.1483 22.8986 39.1483C23.146 39.1483 23.3592 39.2982 23.417 39.5167C23.5145 39.8797 23.5054 40.5642 23.4874 41.2956C23.4856 41.534 23.2707 41.7255 23.0106 41.7255ZM20.8217 39.4427C20.7476 39.4481 20.679 39.4806 20.6338 39.533C20.5977 39.5763 20.5797 39.6305 20.5851 39.6829L20.7512 41.2613C20.7693 41.4311 20.93 41.5593 21.1251 41.5629L23.007 41.581C23.0088 41.581 23.0088 41.581 23.0106 41.581C23.193 41.581 23.3429 41.4528 23.3483 41.2938C23.3664 40.5751 23.3754 39.8996 23.2833 39.5565C23.2418 39.403 23.0792 39.2928 22.8986 39.2946C22.5555 39.2982 21.9396 39.3506 21.4447 39.3939C21.2045 39.4138 20.9806 39.4319 20.8217 39.4427Z" fill="white"/>
<path opacity="0.6" d="M21.0242 39.6053C21.4197 39.5782 22.2776 39.4915 22.6857 39.4861C22.8591 39.4843 23.009 39.589 23.0506 39.7371C23.13 40.0279 23.1192 40.6075 23.1047 41.1421C23.1011 41.3028 22.953 41.4292 22.7742 41.4292L21.2716 41.4148C21.0874 41.4129 20.9339 41.2865 20.9158 41.1222L20.784 39.8617C20.7696 39.7317 20.8779 39.6161 21.0242 39.6053Z" fill="white"/>
<g opacity="0.6">
<path opacity="0.6" d="M24.6614 40.678C24.7156 40.8838 24.9034 41.0283 25.1165 41.0265L42.5209 40.8784C42.7177 40.8766 42.8748 40.7141 42.8712 40.5173C42.8676 40.3259 42.7105 40.1724 42.5191 40.1724L25.1147 40.0929C24.8095 40.0893 24.5838 40.38 24.6614 40.678Z" fill="white"/>
</g>
<path d="M23.0106 45.7565C23.0088 45.7565 23.007 45.7565 23.0052 45.7565L21.1233 45.7384C20.8542 45.7366 20.632 45.5506 20.6067 45.3086L20.4406 43.7302C20.4316 43.638 20.4605 43.5459 20.5219 43.4719C20.5905 43.3888 20.6952 43.3383 20.809 43.3292C20.968 43.3184 21.1901 43.2985 21.4267 43.2787C21.9234 43.2371 22.5428 43.1829 22.8914 43.1793C22.8932 43.1793 22.8968 43.1793 22.8986 43.1793C23.146 43.1793 23.3592 43.3292 23.417 43.5477C23.5145 43.9108 23.5054 44.5952 23.4874 45.3267C23.4856 45.565 23.2707 45.7565 23.0106 45.7565ZM20.8217 43.4737C20.7476 43.4791 20.679 43.5116 20.6338 43.564C20.5977 43.6073 20.5797 43.6615 20.5851 43.7139L20.7512 45.2923C20.7693 45.4621 20.93 45.5903 21.1251 45.5921L23.007 45.6102C23.0088 45.6102 23.0088 45.6102 23.0106 45.6102C23.193 45.6102 23.3429 45.482 23.3483 45.323C23.3664 44.6043 23.3754 43.9288 23.2833 43.5857C23.2418 43.4322 23.0792 43.3202 22.8986 43.3238C22.5555 43.3274 21.9396 43.3798 21.4447 43.4231C21.2045 43.4448 20.9806 43.4629 20.8217 43.4737Z" fill="white"/>
<path opacity="0.6" d="M21.0242 43.638C21.4197 43.6109 22.2776 43.5242 22.6857 43.5188C22.8591 43.517 23.009 43.6218 23.0506 43.7699C23.13 44.0606 23.1192 44.6404 23.1047 45.175C23.1011 45.3357 22.953 45.4621 22.7742 45.4621L21.2716 45.4477C21.0874 45.4459 20.9339 45.3194 20.9158 45.1551L20.784 43.8945C20.7696 43.7626 20.8779 43.6471 21.0242 43.638Z" fill="white"/>
<g opacity="0.6">
<path opacity="0.6" d="M24.6614 44.7089C24.7156 44.9147 24.9034 45.0592 25.1165 45.0574L42.5209 44.9093C42.7177 44.9075 42.8748 44.745 42.8712 44.5482C42.8676 44.3568 42.7105 44.2033 42.5191 44.2033L25.1147 44.1238C24.8095 44.1202 24.5838 44.4109 24.6614 44.7089Z" fill="white"/>
</g>
<g opacity="0.6">
<path opacity="0.6" d="M31.9633 48.8826C31.9976 49.0885 32.1186 49.2329 32.2559 49.2311L43.4403 49.0831C43.5667 49.0812 43.6678 48.9187 43.666 48.7219C43.6642 48.5305 43.5631 48.377 43.4403 48.377L32.2541 48.2975C32.0572 48.2957 31.9127 48.5864 31.9633 48.8826Z" fill="white"/>
</g>
<path d="M32.5393 6.89875C31.5857 6.23594 30.7586 6.24859 30.1753 6.42196C29.6425 6.57909 29.2976 7.09199 29.35 7.64463L29.601 10.3898L32.5935 10.6553C32.5917 10.6553 34.4066 8.19908 32.5393 6.89875ZM31.2227 9.11292C30.811 9.11292 30.4769 8.77881 30.4769 8.36704C30.4769 7.95527 30.811 7.62115 31.2227 7.62115C31.6345 7.62115 31.9686 7.95527 31.9686 8.36704C31.9686 8.77881 31.6345 9.11292 31.2227 9.11292Z" fill="url(#paint6_linear_4552_16354)"/>
<path d="M29.8986 9.23387C29.8625 9.23387 29.8299 9.20498 29.8263 9.16886L29.7866 8.7318C29.783 8.69207 29.8119 8.65776 29.8516 8.65415C29.8913 8.65054 29.9257 8.67943 29.9293 8.71916L29.969 9.15621C29.9726 9.19595 29.9437 9.23026 29.904 9.23387C29.9022 9.23387 29.9004 9.23387 29.8986 9.23387ZM29.8191 8.37783C29.783 8.37783 29.7505 8.34893 29.7469 8.31281L29.7162 7.98051C29.6674 7.45497 29.9997 6.96374 30.5036 6.81564C30.8612 6.7109 31.2296 6.69464 31.5981 6.77049C31.6378 6.77772 31.6631 6.81745 31.6541 6.85538C31.6468 6.89511 31.6089 6.91859 31.5692 6.91136C31.2242 6.84093 30.8793 6.85538 30.5451 6.9529C30.1063 7.08293 29.8191 7.50915 29.8606 7.96606L29.8914 8.29837C29.895 8.3381 29.8661 8.37241 29.8263 8.37602C29.8245 8.37783 29.8209 8.37783 29.8191 8.37783Z" fill="white"/>
<path d="M25.5137 12.1633V10.7835C25.5137 10.3067 25.9092 9.92565 26.3842 9.94191L35.9 10.2688C36.3226 10.2832 36.6639 10.6174 36.6892 11.0382L36.7686 12.3638L25.5137 12.1633Z" fill="url(#paint7_linear_4552_16354)"/>
<path d="M29.0627 10.462H28.6528C28.6131 10.462 28.5806 10.4295 28.5806 10.3897C28.5806 10.35 28.6131 10.3175 28.6528 10.3175H29.0627C29.1024 10.3175 29.1349 10.35 29.1349 10.3897C29.1349 10.4295 29.1024 10.462 29.0627 10.462Z" fill="white"/>
<path d="M26.0302 11.7298C25.9905 11.7298 25.958 11.6973 25.958 11.6576V11.0995C25.958 10.6679 26.3084 10.3175 26.74 10.3175H28.2444C28.2841 10.3175 28.3166 10.35 28.3166 10.3897C28.3166 10.4295 28.2841 10.462 28.2444 10.462H26.74C26.3878 10.462 26.1025 10.7473 26.1025 11.0995V11.6576C26.1025 11.6973 26.07 11.7298 26.0302 11.7298Z" fill="white"/>
<path d="M21.6379 12.5117C21.6614 12.0331 22.0551 11.6575 22.5337 11.6575H39.1742C39.7719 11.6575 40.2848 12.0873 40.386 12.6779L40.4004 12.7591C40.5124 13.4057 40.0158 13.9962 39.3602 13.9962H22.2881C21.8962 13.9962 21.5838 13.6675 21.6018 13.2756L21.6379 12.5117Z" fill="url(#paint8_linear_4552_16354)"/>
<path d="M35.7378 51.805C35.5554 51.805 35.3712 51.7165 35.1761 51.5377C34.4122 50.8352 34.2334 49.7389 34.1882 48.7095C33.8216 49.1231 33.4442 49.5258 33.0721 49.9214L32.9385 49.7967C33.3539 49.3543 33.7747 48.9064 34.1792 48.4422C34.1449 47.0588 34.2081 45.6609 34.367 44.2866C34.4645 43.4486 34.6036 42.5636 34.9666 41.7563C35.0804 41.5017 35.27 41.1387 35.5933 40.9111C35.9256 40.6781 36.3608 40.6529 36.6498 40.8479C36.9767 41.0682 37.0652 41.4908 37.1049 41.7888C37.3361 43.5822 36.6353 45.2257 36.0069 46.2894C35.5373 47.0859 34.9666 47.8137 34.3634 48.5072C34.3941 49.5511 34.5368 50.6997 35.2989 51.4005C35.4651 51.5522 35.6132 51.6262 35.7522 51.619C35.9816 51.61 36.1604 51.3969 36.3049 51.1892C36.9406 50.2789 37.4336 49.2929 37.7785 48.2454C37.8183 47.9347 37.905 47.6295 38.0368 47.346L38.2084 47.4056C38.1361 47.7036 38.0531 47.9961 37.9573 48.2851C37.9212 48.5867 37.9321 48.8919 37.9917 49.1899C38.0242 49.3506 38.1614 49.8852 38.5642 49.9611C38.8676 50.0189 39.1674 49.8058 39.5069 49.2892L40.7097 47.4616L40.5941 47.96C40.5327 48.2255 40.4297 48.8612 40.8162 49.0201C41.0384 49.1104 41.2713 48.9804 41.5188 48.8413C41.759 48.7059 42.0082 48.565 42.2863 48.6012L42.3802 48.6138L42.364 48.7077C42.3008 49.0761 42.3315 49.5294 42.6295 49.5963C42.8245 49.6396 42.9852 49.4915 43.1694 49.3199C43.3266 49.1755 43.4891 49.0238 43.6968 48.9732L43.7401 49.1502C43.5776 49.1899 43.4331 49.3236 43.2923 49.4536C43.0882 49.6432 42.8769 49.8383 42.5879 49.7733C42.196 49.6866 42.1111 49.2188 42.1653 48.7781C41.9811 48.7872 41.7987 48.8901 41.6054 48.9985C41.3309 49.1538 41.0474 49.3127 40.744 49.1881C40.4641 49.0725 40.3268 48.7691 40.3503 48.3339L39.6568 49.3886C39.4148 49.757 39.0337 50.2356 38.528 50.1381C38.1795 50.0712 37.9122 49.7299 37.8111 49.2224C37.7858 49.0942 37.7677 48.9642 37.7587 48.8341C37.4246 49.6992 36.9875 50.5228 36.4511 51.2903C36.2796 51.5341 36.0647 51.787 35.7558 51.7978C35.7504 51.805 35.745 51.805 35.7378 51.805ZM36.1947 40.9021C36.0285 40.9021 35.8497 40.9563 35.6962 41.0646C35.4109 41.2651 35.2375 41.5992 35.131 41.834C34.7788 42.6178 34.6415 43.4865 34.5476 44.31C34.3977 45.6086 34.3327 46.9288 34.3562 48.2381C34.9052 47.597 35.4199 46.927 35.8479 46.2009C36.462 45.1625 37.1464 43.5569 36.9225 41.8159C36.8683 41.3969 36.7491 41.1387 36.5469 41.0032C36.4475 40.9346 36.3247 40.9021 36.1947 40.9021Z" fill="url(#paint9_linear_4552_16354)"/>
<path d="M63.6054 21.0345H50.8713C50.7033 21.0345 50.5679 20.899 50.5679 20.7311V9.70728H63.907V20.7329C63.907 20.899 63.7715 21.0345 63.6054 21.0345Z" fill="url(#paint10_linear_4552_16354)"/>
<path d="M63.6054 19.6348H50.8713C50.7033 19.6348 50.5679 19.4994 50.5679 19.3314V9.67651H63.907V19.3314C63.907 19.4994 63.7715 19.6348 63.6054 19.6348Z" fill="url(#paint11_linear_4552_16354)"/>
<path d="M51.7961 10.1118H51.3374V10.892H51.7961V10.1118Z" fill="url(#paint12_linear_4552_16354)"/>
<path d="M52.8293 10.1118H52.3706V10.892H52.8293V10.1118Z" fill="url(#paint13_linear_4552_16354)"/>
<path d="M53.741 10.1118H53.2822V10.892H53.741V10.1118Z" fill="url(#paint14_linear_4552_16354)"/>
<path d="M54.7741 10.1118H54.3154V10.892H54.7741V10.1118Z" fill="url(#paint15_linear_4552_16354)"/>
<path d="M55.6882 10.1118H55.2295V10.892H55.6882V10.1118Z" fill="url(#paint16_linear_4552_16354)"/>
<path d="M56.7209 10.1118H56.2622V10.892H56.7209V10.1118Z" fill="url(#paint17_linear_4552_16354)"/>
<path d="M57.633 10.1118H57.1743V10.892H57.633V10.1118Z" fill="url(#paint18_linear_4552_16354)"/>
<path d="M58.6662 10.1118H58.2075V10.892H58.6662V10.1118Z" fill="url(#paint19_linear_4552_16354)"/>
<path d="M59.5798 10.1118H59.1211V10.892H59.5798V10.1118Z" fill="url(#paint20_linear_4552_16354)"/>
<path d="M60.613 10.1118H60.1543V10.892H60.613V10.1118Z" fill="url(#paint21_linear_4552_16354)"/>
<path d="M61.5251 10.1118H61.0664V10.892H61.5251V10.1118Z" fill="url(#paint22_linear_4552_16354)"/>
<path d="M62.5598 10.1118H62.1011V10.892H62.5598V10.1118Z" fill="url(#paint23_linear_4552_16354)"/>
<path d="M57.8929 11.2966H56.5059V12.6836H57.8929V11.2966Z" fill="white"/>
<path d="M59.5779 11.2966H58.1909V12.6836H59.5779V11.2966Z" fill="white"/>
<path d="M61.2449 11.2966H59.8579V12.6836H61.2449V11.2966Z" fill="white"/>
<path d="M62.8973 11.2966H61.5103V12.6836H62.8973V11.2966Z" fill="white"/>
<path d="M52.8885 13.0394H51.5015V14.4264H52.8885V13.0394Z" fill="white"/>
<path d="M54.5555 13.0394H53.1685V14.4264H54.5555V13.0394Z" fill="white"/>
<path d="M56.2098 13.0394H54.8228V14.4264H56.2098V13.0394Z" fill="white"/>
<path d="M57.8909 13.0394H56.5039V14.4264H57.8909V13.0394Z" fill="white"/>
<path d="M59.576 13.0394H58.189V14.4264H59.576V13.0394Z" fill="white"/>
<path d="M61.243 13.0394H59.856V14.4264H61.243V13.0394Z" fill="white"/>
<path d="M62.8973 13.0394H61.5103V14.4264H62.8973V13.0394Z" fill="white"/>
<path d="M52.93 14.701H51.543V16.088H52.93V14.701Z" fill="white"/>
<path d="M54.597 14.701H53.21V16.088H54.597V14.701Z" fill="white"/>
<path d="M56.2513 14.701H54.8643V16.088H56.2513V14.701Z" fill="url(#paint24_linear_4552_16354)"/>
<path d="M57.9324 14.701H56.5454V16.088H57.9324V14.701Z" fill="white"/>
<path d="M59.6155 14.701H58.2285V16.088H59.6155V14.701Z" fill="white"/>
<path d="M61.2845 14.701H59.8975V16.088H61.2845V14.701Z" fill="white"/>
<path d="M62.9368 14.701H61.5498V16.088H62.9368V14.701Z" fill="white"/>
<path d="M52.9715 16.3408H51.5845V17.7278H52.9715V16.3408Z" fill="white"/>
<path d="M54.6385 16.3408H53.2515V17.7278H54.6385V16.3408Z" fill="white"/>
<path d="M56.2908 16.3408H54.9038V17.7278H56.2908V16.3408Z" fill="white"/>
<path d="M57.9725 16.3408H56.5854V17.7278H57.9725V16.3408Z" fill="white"/>
<path d="M59.657 16.3408H58.27V17.7278H59.657V16.3408Z" fill="white"/>
<path d="M61.324 16.3408H59.937V17.7278H61.324V16.3408Z" fill="white"/>
<path d="M62.9783 16.3408H61.5913V17.7278H62.9783V16.3408Z" fill="white"/>
<path d="M52.9715 17.9771H51.5845V19.3641H52.9715V17.9771Z" fill="white"/>
<path d="M54.6385 17.9771H53.2515V19.3641H54.6385V17.9771Z" fill="white"/>
<path d="M56.2908 17.9771H54.9038V19.3641H56.2908V17.9771Z" fill="white"/>
<path d="M52.2439 9.49048H51.6551C51.5197 9.49048 51.4077 9.60245 51.4077 9.7379V10.2869H51.5865V9.93114C51.5865 9.79569 51.6985 9.68372 51.8339 9.68372H52.4227C52.4444 9.68372 52.466 9.68733 52.4859 9.69275C52.4642 9.57717 52.3631 9.49048 52.2439 9.49048Z" fill="url(#paint25_linear_4552_16354)"/>
<path d="M53.3889 9.4906H52.8002C52.6647 9.4906 52.5527 9.60257 52.5527 9.73802V10.287H52.7315V9.93126C52.7315 9.79581 52.8417 9.68384 52.9789 9.68384H53.5677C53.5894 9.68384 53.611 9.68745 53.6309 9.69287C53.6092 9.57729 53.5099 9.4906 53.3889 9.4906Z" fill="url(#paint26_linear_4552_16354)"/>
<path d="M54.3406 9.4906H53.7518C53.6164 9.4906 53.5044 9.60257 53.5044 9.73802V10.287H53.6832V9.93126C53.6832 9.79581 53.7952 9.68384 53.9306 9.68384H54.5194C54.541 9.68384 54.5627 9.68745 54.5826 9.69287C54.5609 9.57729 54.4616 9.4906 54.3406 9.4906Z" fill="url(#paint27_linear_4552_16354)"/>
<path d="M55.3215 9.4906H54.7328C54.5973 9.4906 54.4854 9.60257 54.4854 9.73802V10.287H54.6641V9.93126C54.6641 9.79581 54.7761 9.68384 54.9116 9.68384H55.5003C55.522 9.68384 55.5437 9.68745 55.5635 9.69287C55.5419 9.57729 55.4425 9.4906 55.3215 9.4906Z" fill="url(#paint28_linear_4552_16354)"/>
<path d="M56.2278 9.4906H55.639C55.5036 9.4906 55.3916 9.60257 55.3916 9.73802V10.287H55.5704V9.93126C55.5704 9.79581 55.6824 9.68384 55.8178 9.68384H56.4066C56.4282 9.68384 56.4499 9.68745 56.4698 9.69287C56.4499 9.57729 56.3488 9.4906 56.2278 9.4906Z" fill="url(#paint29_linear_4552_16354)"/>
<path d="M57.2087 9.4906H56.62C56.4845 9.4906 56.3726 9.60257 56.3726 9.73802V10.287H56.5514V9.93126C56.5514 9.79581 56.6615 9.68384 56.7988 9.68384H57.3875C57.4092 9.68384 57.4309 9.68745 57.4507 9.69287C57.4309 9.57729 57.3297 9.4906 57.2087 9.4906Z" fill="url(#paint30_linear_4552_16354)"/>
<path d="M58.1623 9.4906H57.5736C57.4381 9.4906 57.3262 9.60257 57.3262 9.73802V10.287H57.505V9.93126C57.505 9.79581 57.6151 9.68384 57.7524 9.68384H58.3411C58.3628 9.68384 58.3845 9.68745 58.4044 9.69287C58.3827 9.57729 58.2815 9.4906 58.1623 9.4906Z" fill="url(#paint31_linear_4552_16354)"/>
<path d="M59.2239 9.4906H58.6351C58.4997 9.4906 58.3877 9.60257 58.3877 9.73802V10.287H58.5665V9.93126C58.5665 9.79581 58.6767 9.68384 58.8139 9.68384H59.4027C59.4243 9.68384 59.446 9.68745 59.4659 9.69287C59.446 9.57729 59.3449 9.4906 59.2239 9.4906Z" fill="url(#paint32_linear_4552_16354)"/>
<path d="M60.1414 9.48157H59.5526C59.4171 9.48157 59.3052 9.59173 59.3052 9.72899V10.278H59.484V9.92223C59.484 9.78678 59.5941 9.67481 59.7314 9.67481H60.3202C60.3418 9.67481 60.3635 9.67842 60.3834 9.68384C60.3617 9.56826 60.2606 9.48157 60.1414 9.48157Z" fill="url(#paint33_linear_4552_16354)"/>
<path d="M61.0935 9.48157H60.5047C60.3693 9.48157 60.2573 9.59173 60.2573 9.72899V10.278H60.4361V9.92223C60.4361 9.78678 60.5481 9.67481 60.6835 9.67481H61.2723C61.294 9.67481 61.3156 9.67842 61.3355 9.68384C61.3138 9.56826 61.2145 9.48157 61.0935 9.48157Z" fill="url(#paint34_linear_4552_16354)"/>
<path d="M62.9787 9.505H62.39C62.2545 9.505 62.1426 9.61698 62.1426 9.75243V10.3014H62.3214V9.94567C62.3214 9.81022 62.4315 9.69825 62.5688 9.69825H63.1575C63.1792 9.69825 63.2009 9.70186 63.2207 9.70728C63.1991 9.59169 63.0997 9.505 62.9787 9.505Z" fill="url(#paint35_linear_4552_16354)"/>
<path d="M62.157 9.48157H61.5682C61.4328 9.48157 61.3208 9.59173 61.3208 9.72899V10.278H61.4996V9.92223C61.4996 9.78678 61.6116 9.67481 61.747 9.67481H62.3358C62.3574 9.67481 62.3791 9.67842 62.399 9.68384C62.3773 9.56826 62.2762 9.48157 62.157 9.48157Z" fill="url(#paint36_linear_4552_16354)"/>
<path d="M24.9953 21.0739C26.2221 21.0739 27.2167 20.0793 27.2167 18.8525C27.2167 17.6256 26.2221 16.6311 24.9953 16.6311C23.7685 16.6311 22.7739 17.6256 22.7739 18.8525C22.7739 20.0793 23.7685 21.0739 24.9953 21.0739Z" fill="url(#paint37_linear_4552_16354)"/>
<path d="M24.9955 21C26.1814 21 27.1428 20.0386 27.1428 18.8527C27.1428 17.6667 26.1814 16.7053 24.9955 16.7053C23.8095 16.7053 22.8481 17.6667 22.8481 18.8527C22.8481 20.0386 23.8095 21 24.9955 21Z" fill="url(#paint38_linear_4552_16354)"/>
<path d="M23.0703 18.5239C23.0594 18.5275 23.0486 18.5275 23.0378 18.5257C22.998 18.5185 22.9745 18.4806 22.9818 18.4408C23.1389 17.6769 23.7042 17.0736 24.4573 16.8695C24.5783 16.837 24.7011 16.8153 24.8239 16.8045C24.8637 16.8009 24.898 16.8298 24.9016 16.8695C24.9052 16.9093 24.8763 16.9436 24.8366 16.9472C24.7228 16.9562 24.6072 16.9779 24.4952 17.0068C23.7945 17.1964 23.2689 17.7563 23.1226 18.4679C23.1172 18.4968 23.0974 18.5167 23.0703 18.5239Z" fill="white"/>
<path opacity="0.78" d="M26.336 20.1704C27.0455 19.4609 27.0455 18.3106 26.336 17.601C25.6265 16.8915 24.4761 16.8915 23.7666 17.601C23.0571 18.3106 23.0571 19.4609 23.7666 20.1704C24.4761 20.88 25.6265 20.88 26.336 20.1704Z" fill="white"/>
<path d="M25.2335 20.236L25.1812 20.0446C24.9807 20.0897 24.7712 20.0969 24.6141 20.0735C24.5581 20.0644 24.5184 20.0157 24.5184 19.9597V19.7682C24.5184 19.6978 24.5798 19.6454 24.6502 19.6545C24.8037 19.6743 24.9879 19.6743 25.1721 19.6238C25.3636 19.5714 25.4882 19.4684 25.4521 19.3348C25.4196 19.2138 25.2895 19.1723 25.0042 19.1741C24.5961 19.1741 24.2782 19.082 24.1879 18.7479C24.1066 18.4463 24.2638 18.1555 24.6304 17.9893L24.578 17.7979C24.5617 17.7365 24.5979 17.6733 24.6593 17.657L24.7712 17.6263C24.8326 17.6101 24.8958 17.6462 24.9121 17.7076L24.959 17.8792C25.1451 17.8358 25.2877 17.8322 25.4033 17.8394C25.4629 17.843 25.508 17.8936 25.508 17.955V18.132C25.508 18.2006 25.4503 18.253 25.3816 18.2458C25.2733 18.2349 25.1252 18.2349 24.9446 18.2837C24.7171 18.3451 24.6773 18.4571 24.7008 18.542C24.7297 18.6467 24.885 18.681 25.2047 18.6919C25.6616 18.7045 25.8837 18.8309 25.9704 19.147C26.048 19.4359 25.9054 19.7538 25.5062 19.9326L25.564 20.1457C25.5803 20.2071 25.5442 20.2703 25.4828 20.2866L25.3708 20.3173C25.313 20.3335 25.2498 20.2974 25.2335 20.236Z" fill="url(#paint39_linear_4552_16354)"/>
<path d="M30.4077 18.5202C32.5431 18.5202 34.2743 16.7891 34.2743 14.6536C34.2743 12.5181 32.5431 10.787 30.4077 10.787C28.2722 10.787 26.541 12.5181 26.541 14.6536C26.541 16.7891 28.2722 18.5202 30.4077 18.5202Z" fill="url(#paint40_linear_4552_16354)"/>
<path d="M30.4074 18.3921C32.472 18.3921 34.1458 16.7184 34.1458 14.6537C34.1458 12.589 32.472 10.9153 30.4074 10.9153C28.3427 10.9153 26.6689 12.589 26.6689 14.6537C26.6689 16.7184 28.3427 18.3921 30.4074 18.3921Z" fill="url(#paint41_linear_4552_16354)"/>
<path d="M27.0449 14.0325C27.034 14.0361 27.0232 14.0361 27.0124 14.0343C26.9726 14.0271 26.9492 13.9891 26.9564 13.9494C27.2255 12.6382 28.1953 11.6052 29.4866 11.2549C29.6925 11.1989 29.9038 11.1609 30.1151 11.1429C30.1549 11.1393 30.1892 11.1682 30.1928 11.2079C30.1964 11.2476 30.1675 11.2819 30.1278 11.2856C29.9255 11.3036 29.7232 11.3379 29.5246 11.3921C28.2856 11.728 27.3555 12.7177 27.0972 13.9765C27.09 14.0054 27.0702 14.0253 27.0449 14.0325Z" fill="white"/>
<path opacity="0.78" d="M32.7438 16.949C33.9794 15.7134 33.9794 13.71 32.7438 12.4743C31.5081 11.2387 29.5047 11.2387 28.2691 12.4743C27.0334 13.71 27.0334 15.7134 28.2691 16.949C29.5047 18.1847 31.5081 18.1847 32.7438 16.949Z" fill="white"/>
<path d="M30.8231 17.0628L30.7328 16.7305C30.3824 16.81 30.0176 16.8226 29.7449 16.7811C29.6474 16.7666 29.577 16.6817 29.577 16.5824V16.2501C29.577 16.1273 29.6853 16.0352 29.8063 16.0514C30.0754 16.0876 30.3951 16.0858 30.7165 15.9991C31.0506 15.9088 31.2674 15.7282 31.206 15.497C31.15 15.2875 30.9224 15.2153 30.4258 15.2171C29.716 15.2153 29.1616 15.0563 29.0045 14.473C28.8618 13.9474 29.1381 13.4418 29.7756 13.1528L29.6853 12.8205C29.6564 12.7139 29.7197 12.6038 29.8262 12.5749L30.0213 12.5225C30.1278 12.4936 30.238 12.5568 30.2669 12.6634L30.3481 12.9614C30.6714 12.8873 30.9206 12.8783 31.1229 12.8927C31.2276 12.9 31.3071 12.9885 31.3071 13.0932V13.4002C31.3071 13.5194 31.206 13.6115 31.0868 13.5989C30.8989 13.5808 30.6389 13.579 30.3265 13.6639C29.931 13.7705 29.8623 13.9655 29.9021 14.1136C29.9508 14.2942 30.2217 14.3538 30.7798 14.3737C31.5744 14.3953 31.9626 14.6175 32.1107 15.1665C32.248 15.6704 31.997 16.223 31.3035 16.5318L31.4046 16.9039C31.4335 17.0104 31.3703 17.1206 31.2637 17.1495L31.0687 17.2019C30.9622 17.2326 30.852 17.1694 30.8231 17.0628Z" fill="url(#paint42_linear_4552_16354)"/>
<path d="M35.2423 26.2698C37.4396 26.2698 39.2209 24.4886 39.2209 22.2912C39.2209 20.0939 37.4396 18.3126 35.2423 18.3126C33.045 18.3126 31.2637 20.0939 31.2637 22.2912C31.2637 24.4886 33.045 26.2698 35.2423 26.2698Z" fill="url(#paint43_linear_4552_16354)"/>
<path d="M35.2423 26.138C37.3668 26.138 39.0891 24.4157 39.0891 22.2912C39.0891 20.1667 37.3668 18.4445 35.2423 18.4445C33.1178 18.4445 31.3955 20.1667 31.3955 22.2912C31.3955 24.4157 33.1178 26.138 35.2423 26.138Z" fill="url(#paint44_linear_4552_16354)"/>
<path d="M31.7822 21.6501C31.7713 21.6537 31.7605 21.6537 31.7497 21.6519C31.7099 21.6447 31.6865 21.6068 31.6937 21.567C31.97 20.218 32.9669 19.1579 34.2944 18.7967C34.5057 18.7389 34.7242 18.701 34.9409 18.6829C34.9807 18.6793 35.015 18.7082 35.0186 18.7479C35.0222 18.7877 34.9933 18.822 34.9536 18.8256C34.7459 18.8437 34.5364 18.8798 34.3323 18.9358C33.0572 19.2825 32.1 20.3011 31.8346 21.5959C31.8273 21.6212 31.8075 21.6429 31.7822 21.6501Z" fill="white"/>
<path opacity="0.78" d="M35.3451 25.607C37.1435 25.607 38.6014 24.1492 38.6014 22.3508C38.6014 20.5525 37.1435 19.0946 35.3451 19.0946C33.5467 19.0946 32.0889 20.5525 32.0889 22.3508C32.0889 24.1492 33.5467 25.607 35.3451 25.607Z" fill="white"/>
<path d="M35.6702 24.7709L35.5781 24.4295C35.2187 24.5126 34.8431 24.5235 34.5631 24.4819C34.4638 24.4675 34.3898 24.379 34.3898 24.2778V23.9365C34.3898 23.8119 34.4999 23.7162 34.6245 23.7324C34.9009 23.7686 35.2295 23.7686 35.56 23.6783C35.9032 23.5843 36.1271 23.4001 36.0621 23.1599C36.0043 22.945 35.7713 22.871 35.2602 22.871C34.5288 22.8692 33.9599 22.7048 33.7974 22.1052C33.6511 21.5634 33.9346 21.0433 34.5902 20.7471L34.4981 20.4058C34.4674 20.2956 34.5324 20.1819 34.6426 20.153L34.8431 20.0988C34.9532 20.0681 35.067 20.1331 35.0959 20.2433L35.179 20.5503C35.5131 20.4744 35.7677 20.4654 35.9754 20.4799C36.082 20.4871 36.165 20.5792 36.165 20.6857V21.0018C36.165 21.1246 36.0603 21.2185 35.9393 21.2077C35.746 21.1896 35.4788 21.1878 35.1573 21.2745C34.751 21.3847 34.6787 21.5851 34.7203 21.7368C34.7708 21.9228 35.0489 21.9842 35.6232 22.0041C36.4414 22.0258 36.8405 22.2551 36.994 22.8186C37.1349 23.3369 36.8766 23.9058 36.1632 24.2237L36.2662 24.6065C36.2969 24.7167 36.2319 24.8305 36.1217 24.8594L35.9212 24.9136C35.8129 24.9443 35.6991 24.8792 35.6702 24.7709Z" fill="url(#paint45_linear_4552_16354)"/>
<path d="M38.7494 18.6394C40.3592 18.6394 41.6642 17.3344 41.6642 15.7245C41.6642 14.1147 40.3592 12.8097 38.7494 12.8097C37.1395 12.8097 35.8345 14.1147 35.8345 15.7245C35.8345 17.3344 37.1395 18.6394 38.7494 18.6394Z" fill="url(#paint46_linear_4552_16354)"/>
<path d="M38.7493 18.5437C40.3063 18.5437 41.5685 17.2815 41.5685 15.7246C41.5685 14.1676 40.3063 12.9054 38.7493 12.9054C37.1924 12.9054 35.9302 14.1676 35.9302 15.7246C35.9302 17.2815 37.1924 18.5437 38.7493 18.5437Z" fill="url(#paint47_linear_4552_16354)"/>
<path d="M36.2192 15.2712C36.2083 15.2748 36.1975 15.2748 36.1867 15.273C36.1469 15.2658 36.1235 15.2279 36.1307 15.1881C36.3348 14.1931 37.0698 13.4093 38.0504 13.1438C38.2058 13.1022 38.3665 13.0733 38.5272 13.0589C38.567 13.0553 38.6013 13.0842 38.6049 13.1239C38.6085 13.1636 38.5796 13.198 38.5399 13.2016C38.3882 13.2142 38.2365 13.2413 38.0884 13.281C37.1619 13.5321 36.4648 14.2743 36.2716 15.2152C36.2643 15.2441 36.2445 15.2658 36.2192 15.2712Z" fill="white"/>
<path opacity="0.78" d="M40.5122 17.4543C41.4439 16.5226 41.4439 15.0121 40.5122 14.0804C39.5805 13.1487 38.0699 13.1487 37.1382 14.0804C36.2065 15.0121 36.2065 16.5226 37.1382 17.4543C38.0699 18.386 39.5805 18.386 40.5122 17.4543Z" fill="white"/>
<path d="M39.0638 17.5395L38.9952 17.2884C38.7315 17.348 38.457 17.3571 38.2511 17.3264C38.177 17.3155 38.1246 17.2505 38.1246 17.1765V16.9254C38.1246 16.8333 38.2059 16.7647 38.2962 16.7755C38.4985 16.8026 38.7405 16.8026 38.9825 16.7358C39.2336 16.6672 39.3979 16.5317 39.351 16.3566C39.3076 16.1994 39.1378 16.1453 38.7622 16.1453C38.2258 16.1435 37.8086 16.0243 37.6912 15.5854C37.5828 15.1881 37.7905 14.807 38.2727 14.5903L38.2041 14.3393C38.1824 14.258 38.2294 14.175 38.3107 14.1533L38.457 14.1136C38.5382 14.0919 38.6213 14.1388 38.643 14.2201L38.7044 14.4459C38.9482 14.3899 39.136 14.3844 39.2878 14.3953C39.3654 14.4007 39.4268 14.4675 39.4268 14.5452V14.7763C39.4268 14.8648 39.351 14.9353 39.2607 14.9262C39.1198 14.9118 38.9229 14.9118 38.6881 14.975C38.3901 15.0563 38.3377 15.2025 38.3685 15.3127C38.4046 15.45 38.6105 15.4951 39.0295 15.5078C39.6291 15.524 39.9217 15.692 40.0337 16.1055C40.1366 16.4848 39.947 16.902 39.425 17.1349L39.5009 17.4149C39.5225 17.4961 39.4756 17.5792 39.3943 17.6009L39.248 17.6406C39.1686 17.6677 39.0855 17.6207 39.0638 17.5395Z" fill="url(#paint48_linear_4552_16354)"/>
<path d="M54.2724 24.3465C53.9094 25.5024 53.2286 25.9286 52.6759 25.7534C52.1106 25.5764 51.8361 24.8414 52.1612 23.7849C52.4881 22.7464 53.1437 22.2028 53.7649 22.3979C54.4043 22.6001 54.5831 23.3604 54.2724 24.3465ZM51.9644 28.0615L56.0893 23.1293L56.5245 23.2665L52.3978 28.1969L51.9644 28.0615ZM52.7554 23.9348C52.5495 24.565 52.573 25.0816 52.8764 25.1773C53.1816 25.273 53.4669 24.8811 53.6764 24.2147C53.8679 23.6079 53.8968 23.0787 53.5681 22.9758C53.2593 22.8782 52.9504 23.3189 52.7554 23.9348ZM56.3385 27.4998C55.9773 28.6466 55.3018 29.0837 54.742 28.9067C54.1821 28.7315 53.9022 27.9946 54.2363 26.9309C54.5596 25.9015 55.2188 25.3489 55.8328 25.5421C56.4739 25.7444 56.6491 26.5119 56.3385 27.4998ZM54.8233 27.088C54.621 27.7111 54.639 28.2348 54.9443 28.3305C55.2549 28.4281 55.5366 28.0344 55.7461 27.368C55.9394 26.7521 55.9664 26.232 55.6378 26.129C55.3253 26.0315 55.0165 26.4722 54.8233 27.088Z" fill="url(#paint49_linear_4552_16354)"/>
<path d="M49.9903 25.7642H49.3022V25.2044H49.9903V24.1948H50.5231V25.2044H51.2112V25.7642H50.5231V26.7611H49.9903V25.7642Z" fill="url(#paint50_linear_4552_16354)"/>
<path d="M26.4167 56.6195C26.4167 56.6032 26.4167 56.5852 26.4112 56.5689C26.1566 55.5558 24.887 54.9255 24.887 54.9255L24.3849 54.9653C24.0959 55.8574 24.1339 56.4064 24.179 56.6502C24.1808 56.6574 24.1826 56.6628 24.1844 56.67C24.5998 56.7044 25.4522 56.7296 26.4167 56.6195Z" fill="url(#paint51_linear_4552_16354)"/>
<path d="M24.1846 56.6684C24.2062 56.7496 24.2676 56.8128 24.3435 56.8291C24.9341 56.9537 25.8714 56.8525 26.2633 56.802C26.35 56.7912 26.4132 56.7099 26.415 56.6196C25.4524 56.7298 24.5999 56.7045 24.1846 56.6684Z" fill="url(#paint52_linear_4552_16354)"/>
<path d="M24.1826 54.2158L24.3957 55.2398C24.412 55.3156 24.4698 55.3716 24.5384 55.377C24.6233 55.3843 24.7461 55.3897 24.8689 55.3716C24.9791 55.3554 25.055 55.2434 25.0351 55.1242L24.887 54.214H24.1826V54.2158Z" fill="url(#paint53_linear_4552_16354)"/>
<path d="M28.5927 56.6558C28.0383 56.6395 27.7511 56.5745 27.603 56.5149C27.603 56.5709 27.603 56.6269 27.6048 56.6847C27.6066 56.7461 27.6536 56.7966 27.7096 56.7966L30.7564 56.7768C30.8539 56.7768 30.9099 56.663 30.8683 56.5745C30.4692 56.6052 29.4506 56.6792 28.5927 56.6558Z" fill="url(#paint54_linear_4552_16354)"/>
<path d="M30.8681 56.5728C30.8645 56.5655 30.8609 56.5565 30.8555 56.5493C30.5864 56.1736 29.9001 55.4241 28.5456 55.099L27.8955 55.0791C27.8955 55.0791 27.6065 55.5812 27.6011 56.5132C27.7492 56.5746 28.0363 56.6396 28.5908 56.654C29.4504 56.6793 30.469 56.6053 30.8681 56.5728Z" fill="url(#paint55_linear_4552_16354)"/>
<path d="M27.7476 54.1238C27.7584 54.1725 27.8938 54.9003 27.9462 55.1838C27.9589 55.2507 28.0112 55.2994 28.0726 55.303C28.1846 55.3084 28.3634 55.3103 28.5169 55.2687C28.6 55.2452 28.656 55.1604 28.6506 55.0665L28.5783 53.9125L27.7476 54.1238Z" fill="url(#paint56_linear_4552_16354)"/>
<path d="M27.2564 40.6636C27.2564 40.6636 28.1504 46.8058 28.7951 54.1147C28.8077 54.2502 28.6994 54.3694 28.5657 54.3983C28.3689 54.4398 28.0781 54.4886 27.8397 54.4832C27.7115 54.4795 27.605 54.3838 27.5833 54.2592C27.3629 52.9697 25.7953 46.0545 25.3836 44.5321C25.3836 44.5321 24.9104 50.9976 25.0621 54.3531C25.0657 54.4362 25.0043 54.5084 24.9212 54.5193C24.7948 54.5337 24.5944 54.5446 24.3379 54.5175C24.2404 54.5066 24.1627 54.4344 24.1483 54.3369C23.9912 53.246 23.09 46.7535 23.1297 42.0777C23.1315 41.8141 23.4385 39.6469 23.4385 39.6469L27.2564 40.6636Z" fill="url(#paint57_linear_4552_16354)"/>
<path d="M34.9175 34.7906C34.9175 34.7906 34.6665 34.1314 34.3757 34.1928C34.0831 34.2524 33.7635 34.4782 33.7635 34.4782L33.2939 35.1139C33.2939 35.1139 34.6123 35.634 35.0764 35.336C35.0764 35.336 36.4219 35.569 38.1231 35.2891C37.8775 34.7689 37.7312 34.2488 37.6445 33.8461C36.7813 34.3319 35.8548 34.6949 34.9175 34.7906Z" fill="url(#paint58_linear_4552_16354)"/>
<path d="M42.0492 30.012C42.0492 30.012 40.1222 32.4392 37.6426 33.8425C37.7293 34.247 37.8756 34.7672 38.1212 35.2855C39.407 35.0742 40.8952 34.5703 42.1576 33.4524L42.0492 30.012Z" fill="url(#paint59_linear_4552_16354)"/>
<path d="M27.6016 30.3334L27.7208 33.5479C28.0603 33.6653 28.3836 33.7556 28.6924 33.8243C28.8856 33.203 29.31 32.4427 29.6568 31.8756C28.3818 31.4242 27.6016 30.3334 27.6016 30.3334Z" fill="url(#paint60_linear_4552_16354)"/>
<path d="M33.9766 30.2792C32.2249 32.1701 30.8072 32.282 29.6568 31.8757C29.31 32.4428 28.8856 33.2031 28.6924 33.8244C33.3698 34.8556 34.4715 30.5555 34.4715 30.5555L33.9766 30.2792Z" fill="url(#paint61_linear_4552_16354)"/>
<path d="M34.3325 30.0788C34.3325 30.0788 34.5348 29.8621 34.9069 29.9307C35.2807 29.9993 35.613 30.1294 35.846 29.9307C36.079 29.732 36.1603 29.9975 36.1603 29.9975L35.4631 30.5267L34.3325 30.0788Z" fill="url(#paint62_linear_4552_16354)"/>
<path d="M33.9155 30.449C33.9155 30.449 34.0546 29.871 34.47 29.9505C34.8872 30.03 35.8317 30.5447 36.0755 30.449C36.3193 30.3551 36.6318 30.1275 36.7907 30.207L36.5089 30.5573C36.5089 30.5573 37.2331 30.1401 37.3578 30.3966L36.1532 31.0739C36.155 31.0739 34.3923 30.8987 33.9155 30.449Z" fill="url(#paint63_linear_4552_16354)"/>
<path d="M23.3033 41.0175C23.2112 40.985 23.148 40.9019 23.1371 40.8044C23.0179 39.6504 22.4436 32.5005 26.0755 29.5604C26.0755 29.5604 26.2832 29.015 27.9971 30.355C29.7092 31.6951 28.7936 33.1001 28.3836 35.0379C27.887 37.3821 27.0165 39.2982 27.4011 40.7412C27.4282 40.8405 27.3759 40.9453 27.2783 40.9814C25.9491 41.469 24.6235 41.4853 23.3033 41.0175Z" fill="url(#paint64_linear_4552_16354)"/>
<path d="M27.493 27.4167C27.4912 27.5179 26.041 29.5785 26.041 29.5785C26.041 29.5785 26.3011 30.0914 27.5454 30.5086L28.6182 28.3017L27.493 27.4167Z" fill="url(#paint65_linear_4552_16354)"/>
<path d="M26.9224 34.4927C26.9224 34.4927 29.6747 36.799 32.6474 35.7931C32.8316 35.7299 33.0339 35.7443 33.2054 35.8346L34.0597 36.2861C34.4191 36.4757 34.8633 36.3511 35.071 36.0026C35.1902 35.8039 35.2913 35.5763 35.3112 35.3596L33.6389 34.6824L33.7617 34.4765C33.7617 34.4765 32.9454 34.4079 32.7323 34.993C32.7323 34.993 31.1773 35.6396 28.555 32.7554C28.555 32.7554 27.3648 33.7667 26.9224 34.4927Z" fill="url(#paint66_linear_4552_16354)"/>
<path d="M26.7745 34.4672C26.7655 34.4672 26.7564 34.4654 26.7474 34.46C25.588 33.6762 25.0425 32.4138 25.0371 32.3993C25.0263 32.3758 25.0389 32.3469 25.0624 32.3379C25.0859 32.3271 25.1148 32.3397 25.1238 32.3632C25.1292 32.3758 25.6638 33.6148 26.7998 34.3823C26.8214 34.3968 26.8269 34.4257 26.8124 34.4474C26.8052 34.46 26.7907 34.4672 26.7745 34.4672Z" fill="url(#paint67_linear_4552_16354)"/>
<path d="M28.5009 32.7154C28.4847 32.7154 28.4702 32.7082 28.4612 32.6937C28.4576 32.6883 28.1036 32.1375 27.43 30.9293C27.2223 30.5573 26.9496 30.3225 26.6191 30.2304C26.0719 30.0769 25.5445 30.3713 25.5409 30.3731C25.5174 30.3857 25.4903 30.3785 25.4759 30.355C25.4632 30.3315 25.4705 30.3044 25.4939 30.29C25.5174 30.2773 26.0592 29.9739 26.6444 30.1383C27.0001 30.2376 27.2927 30.4868 27.513 30.8823C28.1849 32.0869 28.5388 32.636 28.5425 32.6414C28.5569 32.663 28.5497 32.6919 28.528 32.7064C28.519 32.7136 28.5099 32.7154 28.5009 32.7154Z" fill="url(#paint68_linear_4552_16354)"/>
<path d="M28.6362 26.2356C28.6362 26.2356 29.1527 27.4222 29.1871 28.0434C29.2214 28.6665 29.355 29.0692 28.6362 29.1957C27.9156 29.3203 27.3106 28.9627 26.982 28.3432C26.982 28.3432 26.4672 27.3878 26.5828 26.9959C26.6984 26.604 28.6362 26.2356 28.6362 26.2356Z" fill="url(#paint69_linear_4552_16354)"/>
<path d="M27.2277 27.8971L27.2693 27.879C27.3217 27.8555 27.3433 27.7941 27.318 27.7436C27.2169 27.5467 27.0182 27.0988 27.2747 26.9941C27.6034 26.8586 28.9091 26.5932 29.1909 26.1308C29.4618 25.6866 29.2216 25.1123 28.8622 24.9479C28.8387 24.9371 28.8098 24.9461 28.7971 24.9696L28.7664 25.0256C28.7466 25.0653 28.6888 25.0581 28.6761 25.0165C28.6653 24.9768 28.6111 24.9678 28.5877 25.0039C28.501 25.143 28.268 25.3669 27.6431 25.4825C26.7546 25.6468 26.1676 26.0062 26.1532 26.6184C26.1514 26.6582 26.1116 26.6798 26.0773 26.6582C26.0123 26.6184 25.9076 26.5986 25.7667 26.7178C25.5229 26.9237 25.6222 27.4546 26.1568 27.8917C26.1821 27.9133 26.1821 27.9513 26.155 27.9693C26.0575 28.0325 25.913 28.1824 26.2886 28.3829C26.6751 28.5906 26.9641 28.5725 27.076 28.5545C27.1031 28.549 27.1212 28.5238 27.1158 28.4949L26.9966 27.9549C26.9893 27.9242 27.0128 27.8953 27.0435 27.8953H27.2277V27.8971Z" fill="url(#paint70_linear_4552_16354)"/>
<path d="M27.2493 28.0109C27.2493 28.0109 27.0524 27.2542 26.7129 27.4655C26.3734 27.6786 26.8899 28.3143 27.1626 28.3432L27.2493 28.0109Z" fill="url(#paint71_linear_4552_16354)"/>
<path d="M33.2056 35.8326C33.2056 35.8326 33.9044 36.517 34.0398 36.4177C34.0886 36.3815 34.2095 36.2533 34.3269 36.1107C34.41 36.0095 34.419 35.8669 34.3468 35.7567L34.1824 35.5021C34.0254 35.2601 33.6895 35.2095 33.471 35.3992C33.3609 35.4949 33.2615 35.6321 33.2056 35.8326Z" fill="url(#paint72_linear_4552_16354)"/>
<path d="M44.4533 40.774C44.0758 38.9842 43.7002 37.9476 42.4378 34.5523C42.0405 33.4849 41.6793 32.4031 41.8545 31.278L42.0495 30.0138C42.0495 30.0138 44.5021 29.183 47.2219 29.9795C47.2219 29.9795 50.9314 31.5904 48.412 39.5495C47.2761 40.8191 45.9469 41.1821 44.4533 40.774Z" fill="url(#paint73_linear_4552_16354)"/>
<path d="M42.4668 28.3992L43.1025 29.927C43.1422 30.0228 43.2289 30.0932 43.3319 30.1094C43.6985 30.1727 44.5852 30.2702 45.1686 29.8873C45.2372 29.8422 45.2553 29.7464 45.2083 29.6796L44.0326 27.9928L42.4668 28.3992Z" fill="url(#paint74_linear_4552_16354)"/>
<path d="M44.0361 35.5798C43.9476 35.6033 43.9043 35.7008 43.9476 35.7821L45.7879 39.311C45.8187 39.3706 45.8873 39.3995 45.9523 39.3814L51.9717 37.6441C52.0457 37.6224 52.0891 37.5447 52.0674 37.4689L51.0308 33.8804C51.0091 33.8064 50.9332 33.763 50.8592 33.7829L44.0361 35.5798Z" fill="url(#paint75_linear_4552_16354)"/>
<path d="M44.4245 35.1644C44.3378 35.1842 44.2891 35.2763 44.3198 35.3594L45.7935 39.3614C45.8206 39.4337 45.8982 39.4734 45.9741 39.4517L51.9754 37.7198C52.0495 37.6981 52.0946 37.6223 52.0784 37.5464L51.2476 33.6961C51.2296 33.6149 51.1501 33.5643 51.0688 33.5842L44.4245 35.1644Z" fill="url(#paint76_linear_4552_16354)"/>
<path d="M44.9466 34.7617C44.8418 34.778 44.7714 34.8791 44.7967 34.9839L45.7972 39.3039C45.8206 39.4069 45.9254 39.4665 46.0265 39.4376L51.9374 37.7309C52.0331 37.7038 52.0891 37.6062 52.0638 37.5105L51.1554 33.9851C51.132 33.8948 51.0435 33.8352 50.9514 33.8497L44.9466 34.7617Z" fill="url(#paint77_linear_4552_16354)"/>
<path d="M49.7302 36.4087C50.1889 32.943 47.5179 30.2792 47.5179 30.2792L45.9287 32.1321C47.1351 33.6365 47.7076 35.0127 47.9694 36.0963C48.3198 35.9933 49.1559 35.8344 49.7302 36.4087Z" fill="url(#paint78_linear_4552_16354)"/>
<path d="M47.9713 36.1938C47.9261 36.1938 47.8864 36.1631 47.8756 36.118C47.5523 34.7833 46.8714 33.4631 45.8529 32.1935C45.8185 32.1519 45.8258 32.0887 45.8673 32.0544C45.9088 32.0201 45.9721 32.0273 46.0064 32.0688C47.043 33.362 47.7365 34.7093 48.067 36.071C48.0797 36.1234 48.0471 36.1776 47.9948 36.1902C47.9875 36.192 47.9803 36.1938 47.9713 36.1938Z" fill="url(#paint79_linear_4552_16354)"/>
<path d="M47.9714 36.0945C48.2152 37.1004 48.1899 37.8499 48.152 38.2093C48.1375 38.3448 48.0292 38.4495 47.8937 38.4585C47.7402 38.4694 47.5307 38.4838 47.3429 38.4947C47.137 38.5073 46.9095 38.3773 46.756 38.2671C46.6783 38.2111 46.5772 38.2978 46.6205 38.3827C46.7343 38.6048 47.0232 38.8035 47.2237 38.9209C47.2959 38.9642 47.2833 39.0726 47.202 39.0943L46.3496 39.3363C47.7511 40.6565 48.6757 39.1791 48.6757 39.1791C49.2934 38.2238 49.613 37.29 49.7304 36.4069C49.1561 35.8344 48.3199 35.9933 47.9714 36.0945Z" fill="url(#paint80_linear_4552_16354)"/>
<path d="M43.124 26.0605C43.0969 26.0858 41.9971 28.2476 41.9971 28.2476L43.245 28.849L44.5923 26.9545C44.5923 26.9563 43.5719 25.6397 43.124 26.0605Z" fill="url(#paint81_linear_4552_16354)"/>
<path d="M44.025 27.1838L43.402 28.2204C43.3929 28.2366 43.3821 28.2511 43.3677 28.2637C43.2936 28.3324 43.0408 28.5328 42.8439 28.2601C42.6778 28.0271 42.5207 27.8158 42.3527 27.7292C42.2552 27.6786 42.1342 27.7183 42.0836 27.8177C41.9807 28.0217 41.782 28.4353 41.6574 28.8272C41.6267 28.9265 41.6773 29.0313 41.773 29.0692C42.0258 29.1721 42.5243 29.3563 42.9685 29.4177C43.0408 29.4286 43.113 29.3979 43.1564 29.3383C43.3478 29.0764 43.8842 28.3468 44.0684 28.1644C44.2382 27.9946 44.5524 28.0578 44.6951 28.0994C44.7492 28.1156 44.8052 28.1066 44.854 28.0777C44.9985 27.991 45.2477 27.7761 45.0183 27.4113C44.9605 27.321 44.9913 27.2 45.0797 27.1404C45.2405 27.0357 45.4139 26.837 45.2477 26.5156C45.0797 26.1905 44.7799 26.1616 44.5759 26.1869C44.4856 26.1977 44.3935 26.1507 44.3592 26.0659C44.3429 26.0279 44.314 25.9972 44.2562 25.9846C44.1497 25.9629 44.0792 25.8654 44.0991 25.757C44.1352 25.5728 44.1081 25.3345 43.8137 25.1737C43.2756 24.8775 42.8042 25.3597 42.6832 25.7679C42.564 26.1742 43.1654 26.4632 43.5428 26.5101C43.821 26.5463 43.9727 26.8497 44.0341 27.0068C44.063 27.0664 44.0576 27.1296 44.025 27.1838Z" fill="url(#paint82_linear_4552_16354)"/>
<path d="M43.8354 28.5455C43.8354 28.5455 44.0756 27.8448 44.3808 27.8701C44.6878 27.8953 44.9279 28.2005 44.5487 28.5437C44.0774 28.9717 43.8354 28.5455 43.8354 28.5455Z" fill="url(#paint83_linear_4552_16354)"/>
<path d="M44.2111 56.5547C44.8034 56.6053 45.831 56.6884 46.6419 56.7245C47.1295 56.7462 47.4095 56.6974 47.572 56.6342C47.572 56.6522 47.572 56.6703 47.5702 56.6848C47.5666 56.7697 47.4962 56.8383 47.4113 56.8438C45.8798 56.9287 44.6608 56.8727 44.2273 56.8474C44.137 56.8419 44.0846 56.7444 44.1298 56.6685C44.1533 56.6288 44.1822 56.5908 44.2111 56.5547Z" fill="url(#paint84_linear_4552_16354)"/>
<path d="M46.6438 56.7243C45.8329 56.6882 44.8053 56.6052 44.2129 56.5546C44.7962 55.8395 46.6438 55.3591 46.6438 55.3591H47.1658C47.5252 55.8774 47.5775 56.3704 47.5721 56.6341C47.4114 56.6973 47.1296 56.746 46.6438 56.7243Z" fill="url(#paint85_linear_4552_16354)"/>
<path d="M47.2524 54.5049L47.2036 55.4711C47.1982 55.5758 47.1206 55.6643 47.0158 55.6788C46.9111 55.6932 46.772 55.695 46.6239 55.6463C46.5336 55.6156 46.465 55.5397 46.4487 55.4458L46.2808 54.5049H47.2524Z" fill="url(#paint86_linear_4552_16354)"/>
<path d="M54.036 56.717C54.2925 56.6809 54.4099 56.5473 54.4586 56.4047C54.4586 56.4065 54.4586 56.4065 54.4604 56.4083C54.4984 56.5581 54.4099 56.7152 54.2347 56.7893C54.0234 56.8795 53.7922 56.894 53.6116 56.8868C53.4184 56.8795 53.2414 56.7983 53.1439 56.6719L53.1421 56.6701C53.3353 56.7658 53.6062 56.7766 54.036 56.717Z" fill="url(#paint87_linear_4552_16354)"/>
<path d="M52.8242 54.4994H53.254C53.9096 54.4867 54.3214 55.8701 54.4568 56.4047C54.408 56.5474 54.2925 56.681 54.0342 56.7171C53.6062 56.7767 53.3335 56.7659 53.1403 56.6702C52.7863 56.2042 52.6111 55.5216 52.5262 55.1224C52.4305 54.6691 52.8242 54.4994 52.8242 54.4994Z" fill="url(#paint88_linear_4552_16354)"/>
<path d="M53.1998 53.6018L53.4382 54.5536C53.4671 54.671 53.4111 54.7902 53.3045 54.8462C53.1709 54.9148 52.9831 54.987 52.8097 54.9654C52.7284 54.9563 52.6598 54.8985 52.6345 54.8209L52.2842 53.8203L53.1998 53.6018Z" fill="url(#paint89_linear_4552_16354)"/>
<path d="M53.4849 53.8762C53.1869 54.1399 52.2189 54.1742 52.2189 54.1742C48.7333 45.8089 47.2795 43.5063 47.2795 43.5063C47.7834 46.6632 47.3879 54.7684 47.3879 54.7684C46.8136 55.023 46.0713 54.7684 46.0713 54.7684C46.0244 49.5997 45.2965 44.0445 44.3574 40.4903C46.7124 40.438 47.9929 39.9232 48.4029 39.6C50.3678 42.7677 53.4849 53.8762 53.4849 53.8762Z" fill="url(#paint90_linear_4552_16354)"/>
</g>
<defs>
<linearGradient id="paint0_linear_4552_16354" x1="3.00624" y1="29.4722" x2="14.4565" y2="62.7933" gradientUnits="userSpaceOnUse">
<stop stop-color="#CB236D"/>
<stop offset="1" stop-color="#4C246D"/>
</linearGradient>
<linearGradient id="paint1_linear_4552_16354" x1="5.85379" y1="23.3064" x2="17.7107" y2="59.0016" gradientUnits="userSpaceOnUse">
<stop stop-color="#A737D5"/>
<stop offset="1" stop-color="#EF497A"/>
</linearGradient>
<linearGradient id="paint2_linear_4552_16354" x1="31.6798" y1="53.0464" x2="29.2538" y2="-18.7634" gradientUnits="userSpaceOnUse">
<stop stop-color="#2B3582"/>
<stop offset="1" stop-color="#150E42"/>
</linearGradient>
<linearGradient id="paint3_linear_4552_16354" x1="8.80433" y1="46.5123" x2="36.299" y2="63.9794" gradientUnits="userSpaceOnUse">
<stop stop-color="#A737D5"/>
<stop offset="1" stop-color="#EF497A"/>
</linearGradient>
<linearGradient id="paint4_linear_4552_16354" x1="11.1137" y1="42.8789" x2="38.6076" y2="60.3358" gradientUnits="userSpaceOnUse">
<stop stop-color="#A737D5"/>
<stop offset="1" stop-color="#EF497A"/>
</linearGradient>
<linearGradient id="paint5_linear_4552_16354" x1="46.7248" y1="11.1078" x2="12.0029" y2="61.0822" gradientUnits="userSpaceOnUse">
<stop stop-color="#53D8FF"/>
<stop offset="1" stop-color="#3840F7"/>
</linearGradient>
<linearGradient id="paint6_linear_4552_16354" x1="35.4814" y1="2.96128" x2="23.3486" y2="18.9212" gradientUnits="userSpaceOnUse">
<stop stop-color="#2B3582"/>
<stop offset="1" stop-color="#150E42"/>
</linearGradient>
<linearGradient id="paint7_linear_4552_16354" x1="36.812" y1="3.97293" x2="24.6792" y2="19.9331" gradientUnits="userSpaceOnUse">
<stop stop-color="#2B3582"/>
<stop offset="1" stop-color="#150E42"/>
</linearGradient>
<linearGradient id="paint8_linear_4552_16354" x1="35.2831" y1="4.94915" x2="26.9058" y2="20.3316" gradientUnits="userSpaceOnUse">
<stop stop-color="#53D8FF"/>
<stop offset="1" stop-color="#3840F7"/>
</linearGradient>
<linearGradient id="paint9_linear_4552_16354" x1="32.9368" y1="46.2624" x2="43.7409" y2="46.2624" gradientUnits="userSpaceOnUse">
<stop stop-color="#2B3582"/>
<stop offset="1" stop-color="#150E42"/>
</linearGradient>
<linearGradient id="paint10_linear_4552_16354" x1="57.6909" y1="10.7718" x2="55.8868" y2="28.5323" gradientUnits="userSpaceOnUse">
<stop stop-color="#A737D5"/>
<stop offset="1" stop-color="#EF497A"/>
</linearGradient>
<linearGradient id="paint11_linear_4552_16354" x1="50.5688" y1="14.6558" x2="63.9078" y2="14.6558" gradientUnits="userSpaceOnUse">
<stop stop-color="#B37CFF"/>
<stop offset="1" stop-color="#F895E7"/>
</linearGradient>
<linearGradient id="paint12_linear_4552_16354" x1="51.3549" y1="10.9773" x2="53.4883" y2="6.19194" gradientUnits="userSpaceOnUse">
<stop stop-color="#A737D5"/>
<stop offset="1" stop-color="#EF497A"/>
</linearGradient>
<linearGradient id="paint13_linear_4552_16354" x1="52.217" y1="11.3616" x2="54.3505" y2="6.57623" gradientUnits="userSpaceOnUse">
<stop stop-color="#A737D5"/>
<stop offset="1" stop-color="#EF497A"/>
</linearGradient>
<linearGradient id="paint14_linear_4552_16354" x1="52.978" y1="11.701" x2="55.1114" y2="6.91568" gradientUnits="userSpaceOnUse">
<stop stop-color="#A737D5"/>
<stop offset="1" stop-color="#EF497A"/>
</linearGradient>
<linearGradient id="paint15_linear_4552_16354" x1="53.8401" y1="12.0853" x2="55.9736" y2="7.30001" gradientUnits="userSpaceOnUse">
<stop stop-color="#A737D5"/>
<stop offset="1" stop-color="#EF497A"/>
</linearGradient>
<linearGradient id="paint16_linear_4552_16354" x1="54.6018" y1="12.4248" x2="56.7352" y2="7.63943" gradientUnits="userSpaceOnUse">
<stop stop-color="#A737D5"/>
<stop offset="1" stop-color="#EF497A"/>
</linearGradient>
<linearGradient id="paint17_linear_4552_16354" x1="55.4634" y1="12.8091" x2="57.5969" y2="8.02375" gradientUnits="userSpaceOnUse">
<stop stop-color="#A737D5"/>
<stop offset="1" stop-color="#EF497A"/>
</linearGradient>
<linearGradient id="paint18_linear_4552_16354" x1="56.2249" y1="13.1485" x2="58.3584" y2="8.36321" gradientUnits="userSpaceOnUse">
<stop stop-color="#A737D5"/>
<stop offset="1" stop-color="#EF497A"/>
</linearGradient>
<linearGradient id="paint19_linear_4552_16354" x1="57.087" y1="13.5328" x2="59.2205" y2="8.7475" gradientUnits="userSpaceOnUse">
<stop stop-color="#A737D5"/>
<stop offset="1" stop-color="#EF497A"/>
</linearGradient>
<linearGradient id="paint20_linear_4552_16354" x1="57.8482" y1="13.8723" x2="59.9816" y2="9.08694" gradientUnits="userSpaceOnUse">
<stop stop-color="#A737D5"/>
<stop offset="1" stop-color="#EF497A"/>
</linearGradient>
<linearGradient id="paint21_linear_4552_16354" x1="58.7103" y1="14.2566" x2="60.8438" y2="9.47127" gradientUnits="userSpaceOnUse">
<stop stop-color="#A737D5"/>
<stop offset="1" stop-color="#EF497A"/>
</linearGradient>
<linearGradient id="paint22_linear_4552_16354" x1="59.4718" y1="14.596" x2="61.6053" y2="9.81071" gradientUnits="userSpaceOnUse">
<stop stop-color="#A737D5"/>
<stop offset="1" stop-color="#EF497A"/>
</linearGradient>
<linearGradient id="paint23_linear_4552_16354" x1="60.3336" y1="14.9803" x2="62.4671" y2="10.195" gradientUnits="userSpaceOnUse">
<stop stop-color="#A737D5"/>
<stop offset="1" stop-color="#EF497A"/>
</linearGradient>
<linearGradient id="paint24_linear_4552_16354" x1="38.6221" y1="2.88384" x2="55.6682" y2="15.4769" gradientUnits="userSpaceOnUse">
<stop stop-color="#FDF53F"/>
<stop offset="0.6645" stop-color="#E57A58"/>
<stop offset="1" stop-color="#D93C65"/>
</linearGradient>
<linearGradient id="paint25_linear_4552_16354" x1="65.5718" y1="8.77179" x2="42.536" y2="10.6146" gradientUnits="userSpaceOnUse">
<stop stop-color="#FDF53F"/>
<stop offset="0.6645" stop-color="#E57A58"/>
<stop offset="1" stop-color="#D93C65"/>
</linearGradient>
<linearGradient id="paint26_linear_4552_16354" x1="65.579" y1="8.86297" x2="42.5434" y2="10.7058" gradientUnits="userSpaceOnUse">
<stop stop-color="#FDF53F"/>
<stop offset="0.6645" stop-color="#E57A58"/>
<stop offset="1" stop-color="#D93C65"/>
</linearGradient>
<linearGradient id="paint27_linear_4552_16354" x1="65.5851" y1="8.93866" x2="42.5492" y2="10.7815" gradientUnits="userSpaceOnUse">
<stop stop-color="#FDF53F"/>
<stop offset="0.6645" stop-color="#E57A58"/>
<stop offset="1" stop-color="#D93C65"/>
</linearGradient>
<linearGradient id="paint28_linear_4552_16354" x1="65.5915" y1="9.01662" x2="42.5558" y2="10.8595" gradientUnits="userSpaceOnUse">
<stop stop-color="#FDF53F"/>
<stop offset="0.6645" stop-color="#E57A58"/>
<stop offset="1" stop-color="#D93C65"/>
</linearGradient>
<linearGradient id="paint29_linear_4552_16354" x1="65.5971" y1="9.0887" x2="42.5611" y2="10.9316" gradientUnits="userSpaceOnUse">
<stop stop-color="#FDF53F"/>
<stop offset="0.6645" stop-color="#E57A58"/>
<stop offset="1" stop-color="#D93C65"/>
</linearGradient>
<linearGradient id="paint30_linear_4552_16354" x1="65.6036" y1="9.16666" x2="42.5677" y2="11.0095" gradientUnits="userSpaceOnUse">
<stop stop-color="#FDF53F"/>
<stop offset="0.6645" stop-color="#E57A58"/>
<stop offset="1" stop-color="#D93C65"/>
</linearGradient>
<linearGradient id="paint31_linear_4552_16354" x1="65.6096" y1="9.24235" x2="42.5738" y2="11.0852" gradientUnits="userSpaceOnUse">
<stop stop-color="#FDF53F"/>
<stop offset="0.6645" stop-color="#E57A58"/>
<stop offset="1" stop-color="#D93C65"/>
</linearGradient>
<linearGradient id="paint32_linear_4552_16354" x1="65.616" y1="9.32686" x2="42.5802" y2="11.1697" gradientUnits="userSpaceOnUse">
<stop stop-color="#FDF53F"/>
<stop offset="0.6645" stop-color="#E57A58"/>
<stop offset="1" stop-color="#D93C65"/>
</linearGradient>
<linearGradient id="paint33_linear_4552_16354" x1="65.6212" y1="9.391" x2="42.5852" y2="11.2339" gradientUnits="userSpaceOnUse">
<stop stop-color="#FDF53F"/>
<stop offset="0.6645" stop-color="#E57A58"/>
<stop offset="1" stop-color="#D93C65"/>
</linearGradient>
<linearGradient id="paint34_linear_4552_16354" x1="65.6276" y1="9.46668" x2="42.5919" y2="11.3095" gradientUnits="userSpaceOnUse">
<stop stop-color="#FDF53F"/>
<stop offset="0.6645" stop-color="#E57A58"/>
<stop offset="1" stop-color="#D93C65"/>
</linearGradient>
<linearGradient id="paint35_linear_4552_16354" x1="65.6411" y1="9.63867" x2="42.6055" y2="11.4815" gradientUnits="userSpaceOnUse">
<stop stop-color="#FDF53F"/>
<stop offset="0.6645" stop-color="#E57A58"/>
<stop offset="1" stop-color="#D93C65"/>
</linearGradient>
<linearGradient id="paint36_linear_4552_16354" x1="65.6341" y1="9.55119" x2="42.5984" y2="11.394" gradientUnits="userSpaceOnUse">
<stop stop-color="#FDF53F"/>
<stop offset="0.6645" stop-color="#E57A58"/>
<stop offset="1" stop-color="#D93C65"/>
</linearGradient>
<linearGradient id="paint37_linear_4552_16354" x1="22.9848" y1="23.0527" x2="24.9549" y2="18.9351" gradientUnits="userSpaceOnUse">
<stop stop-color="#FDF53F"/>
<stop offset="1" stop-color="#D93C65"/>
</linearGradient>
<linearGradient id="paint38_linear_4552_16354" x1="25.9196" y1="16.0602" x2="20.9013" y2="31.2119" gradientUnits="userSpaceOnUse">
<stop stop-color="#FDF53F"/>
<stop offset="1" stop-color="#D93C65"/>
</linearGradient>
<linearGradient id="paint39_linear_4552_16354" x1="25.7654" y1="16.497" x2="23.2997" y2="25.3261" gradientUnits="userSpaceOnUse">
<stop stop-color="#FDF53F"/>
<stop offset="1" stop-color="#D93C65"/>
</linearGradient>
<linearGradient id="paint40_linear_4552_16354" x1="26.9082" y1="21.9671" x2="30.3377" y2="14.7991" gradientUnits="userSpaceOnUse">
<stop stop-color="#FDF53F"/>
<stop offset="1" stop-color="#D93C65"/>
</linearGradient>
<linearGradient id="paint41_linear_4552_16354" x1="32.0164" y1="9.79427" x2="23.2805" y2="36.1708" gradientUnits="userSpaceOnUse">
<stop stop-color="#FDF53F"/>
<stop offset="1" stop-color="#D93C65"/>
</linearGradient>
<linearGradient id="paint42_linear_4552_16354" x1="31.749" y1="10.5547" x2="27.4567" y2="25.9246" gradientUnits="userSpaceOnUse">
<stop stop-color="#FDF53F"/>
<stop offset="1" stop-color="#D93C65"/>
</linearGradient>
<linearGradient id="paint43_linear_4552_16354" x1="31.6417" y1="29.8163" x2="35.1707" y2="22.4406" gradientUnits="userSpaceOnUse">
<stop stop-color="#FDF53F"/>
<stop offset="1" stop-color="#D93C65"/>
</linearGradient>
<linearGradient id="paint44_linear_4552_16354" x1="36.8983" y1="17.2905" x2="27.9092" y2="44.4317" gradientUnits="userSpaceOnUse">
<stop stop-color="#FDF53F"/>
<stop offset="1" stop-color="#D93C65"/>
</linearGradient>
<linearGradient id="paint45_linear_4552_16354" x1="36.6227" y1="18.0731" x2="32.2061" y2="33.8885" gradientUnits="userSpaceOnUse">
<stop stop-color="#FDF53F"/>
<stop offset="1" stop-color="#D93C65"/>
</linearGradient>
<linearGradient id="paint46_linear_4552_16354" x1="36.1111" y1="21.2374" x2="38.6967" y2="15.8333" gradientUnits="userSpaceOnUse">
<stop stop-color="#FDF53F"/>
<stop offset="1" stop-color="#D93C65"/>
</linearGradient>
<linearGradient id="paint47_linear_4552_16354" x1="39.9626" y1="12.0599" x2="33.3763" y2="31.9461" gradientUnits="userSpaceOnUse">
<stop stop-color="#FDF53F"/>
<stop offset="1" stop-color="#D93C65"/>
</linearGradient>
<linearGradient id="paint48_linear_4552_16354" x1="39.761" y1="12.6333" x2="36.5252" y2="24.2211" gradientUnits="userSpaceOnUse">
<stop stop-color="#FDF53F"/>
<stop offset="1" stop-color="#D93C65"/>
</linearGradient>
<linearGradient id="paint49_linear_4552_16354" x1="39.5174" y1="66.8315" x2="30.2265" y2="92.8064" gradientUnits="userSpaceOnUse">
<stop stop-color="#CB236D"/>
<stop offset="1" stop-color="#4C246D"/>
</linearGradient>
<linearGradient id="paint50_linear_4552_16354" x1="50.2573" y1="23.0652" x2="50.2573" y2="50.6523" gradientUnits="userSpaceOnUse">
<stop stop-color="#CB236D"/>
<stop offset="1" stop-color="#4C246D"/>
</linearGradient>
<linearGradient id="paint51_linear_4552_16354" x1="33.7673" y1="28.7625" x2="31.4347" y2="36.2991" gradientUnits="userSpaceOnUse">
<stop stop-color="#53D8FF"/>
<stop offset="1" stop-color="#3840F7"/>
</linearGradient>
<linearGradient id="paint52_linear_4552_16354" x1="25.2947" y1="57.0685" x2="25.4143" y2="48.9355" gradientUnits="userSpaceOnUse">
<stop stop-color="#2B3582"/>
<stop offset="1" stop-color="#150E42"/>
</linearGradient>
<linearGradient id="paint53_linear_4552_16354" x1="24.779" y1="53.2289" x2="24.3456" y2="57.0109" gradientUnits="userSpaceOnUse">
<stop stop-color="#F9B776"/>
<stop offset="1" stop-color="#F47960"/>
</linearGradient>
<linearGradient id="paint54_linear_4552_16354" x1="29.2343" y1="57.1266" x2="29.354" y2="48.9915" gradientUnits="userSpaceOnUse">
<stop stop-color="#2B3582"/>
<stop offset="1" stop-color="#150E42"/>
</linearGradient>
<linearGradient id="paint55_linear_4552_16354" x1="37.3961" y1="29.8829" x2="35.063" y2="37.4202" gradientUnits="userSpaceOnUse">
<stop stop-color="#53D8FF"/>
<stop offset="1" stop-color="#3840F7"/>
</linearGradient>
<linearGradient id="paint56_linear_4552_16354" x1="28.2497" y1="53.6285" x2="28.0551" y2="57.4301" gradientUnits="userSpaceOnUse">
<stop stop-color="#F9B776"/>
<stop offset="1" stop-color="#F47960"/>
</linearGradient>
<linearGradient id="paint57_linear_4552_16354" x1="27.8135" y1="50.1124" x2="3.11289" y2="19.813" gradientUnits="userSpaceOnUse">
<stop stop-color="#2B3582"/>
<stop offset="1" stop-color="#150E42"/>
</linearGradient>
<linearGradient id="paint58_linear_4552_16354" x1="33.2936" y1="34.6348" x2="38.1216" y2="34.6348" gradientUnits="userSpaceOnUse">
<stop stop-color="#F9B776"/>
<stop offset="1" stop-color="#F47960"/>
</linearGradient>
<linearGradient id="paint59_linear_4552_16354" x1="39.8033" y1="30.8439" x2="40.0872" y2="38.0957" gradientUnits="userSpaceOnUse">
<stop stop-color="#CB236D"/>
<stop offset="1" stop-color="#4C246D"/>
</linearGradient>
<linearGradient id="paint60_linear_4552_16354" x1="27.3081" y1="33.2327" x2="18.5155" y2="45.3155" gradientUnits="userSpaceOnUse">
<stop stop-color="#FDF53F"/>
<stop offset="1" stop-color="#D93C65"/>
</linearGradient>
<linearGradient id="paint61_linear_4552_16354" x1="36.2898" y1="30.0091" x2="28.7154" y2="33.7768" gradientUnits="userSpaceOnUse">
<stop stop-color="#F9B776"/>
<stop offset="1" stop-color="#F47960"/>
</linearGradient>
<linearGradient id="paint62_linear_4552_16354" x1="36.1791" y1="29.0642" x2="35.062" y2="30.231" gradientUnits="userSpaceOnUse">
<stop stop-color="#F9B776"/>
<stop offset="1" stop-color="#F47960"/>
</linearGradient>
<linearGradient id="paint63_linear_4552_16354" x1="36.3261" y1="29.9644" x2="28.7516" y2="33.7322" gradientUnits="userSpaceOnUse">
<stop stop-color="#F9B776"/>
<stop offset="1" stop-color="#F47960"/>
</linearGradient>
<linearGradient id="paint64_linear_4552_16354" x1="27.7982" y1="33.5893" x2="19.0053" y2="45.6723" gradientUnits="userSpaceOnUse">
<stop stop-color="#FDF53F"/>
<stop offset="1" stop-color="#D93C65"/>
</linearGradient>
<linearGradient id="paint65_linear_4552_16354" x1="26.5078" y1="31.1857" x2="27.5143" y2="28.4372" gradientUnits="userSpaceOnUse">
<stop stop-color="#F9B776"/>
<stop offset="1" stop-color="#F47960"/>
</linearGradient>
<linearGradient id="paint66_linear_4552_16354" x1="31.4954" y1="34.382" x2="24.0126" y2="47.384" gradientUnits="userSpaceOnUse">
<stop stop-color="#F9B776"/>
<stop offset="1" stop-color="#F47960"/>
</linearGradient>
<linearGradient id="paint67_linear_4552_16354" x1="28.5277" y1="27.1835" x2="23.802" y2="38.4889" gradientUnits="userSpaceOnUse">
<stop stop-color="#FDF53F"/>
<stop offset="1" stop-color="#D93C65"/>
</linearGradient>
<linearGradient id="paint68_linear_4552_16354" x1="28.7715" y1="27.2856" x2="24.0461" y2="38.5909" gradientUnits="userSpaceOnUse">
<stop stop-color="#FDF53F"/>
<stop offset="1" stop-color="#D93C65"/>
</linearGradient>
<linearGradient id="paint69_linear_4552_16354" x1="28.9816" y1="27.0629" x2="22.9847" y2="31.8391" gradientUnits="userSpaceOnUse">
<stop stop-color="#F9B776"/>
<stop offset="1" stop-color="#F47960"/>
</linearGradient>
<linearGradient id="paint70_linear_4552_16354" x1="26.6667" y1="25.4916" x2="29.4153" y2="29.0304" gradientUnits="userSpaceOnUse">
<stop stop-color="#2B3582"/>
<stop offset="1" stop-color="#150E42"/>
</linearGradient>
<linearGradient id="paint71_linear_4552_16354" x1="28.3781" y1="26.8011" x2="25.4268" y2="29.0593" gradientUnits="userSpaceOnUse">
<stop stop-color="#F9B776"/>
<stop offset="1" stop-color="#F47960"/>
</linearGradient>
<linearGradient id="paint72_linear_4552_16354" x1="33.2063" y1="35.8555" x2="34.3959" y2="35.8555" gradientUnits="userSpaceOnUse">
<stop stop-color="#F9B776"/>
<stop offset="1" stop-color="#F47960"/>
</linearGradient>
<linearGradient id="paint73_linear_4552_16354" x1="41.986" y1="33.3245" x2="51.9958" y2="38.6534" gradientUnits="userSpaceOnUse">
<stop stop-color="#CB236D"/>
<stop offset="1" stop-color="#4C246D"/>
</linearGradient>
<linearGradient id="paint74_linear_4552_16354" x1="44.0967" y1="29.8057" x2="43.3224" y2="27.483" gradientUnits="userSpaceOnUse">
<stop stop-color="#F9B776"/>
<stop offset="1" stop-color="#F47960"/>
</linearGradient>
<linearGradient id="paint75_linear_4552_16354" x1="43.9304" y1="36.5813" x2="52.0724" y2="36.5813" gradientUnits="userSpaceOnUse">
<stop stop-color="#9CFFFB"/>
<stop offset="1" stop-color="#9BFFFA"/>
</linearGradient>
<linearGradient id="paint76_linear_4552_16354" x1="44.3105" y1="36.5185" x2="52.0803" y2="36.5185" gradientUnits="userSpaceOnUse">
<stop stop-color="#9CFFFB"/>
<stop offset="1" stop-color="#9BFFFA"/>
</linearGradient>
<linearGradient id="paint77_linear_4552_16354" x1="48.3176" y1="35.7468" x2="49.9694" y2="43.1536" gradientUnits="userSpaceOnUse">
<stop stop-color="#FDF53F"/>
<stop offset="1" stop-color="#D93C65"/>
</linearGradient>
<linearGradient id="paint78_linear_4552_16354" x1="43.4145" y1="30.8811" x2="54.1759" y2="36.6101" gradientUnits="userSpaceOnUse">
<stop stop-color="#CB236D"/>
<stop offset="1" stop-color="#4C246D"/>
</linearGradient>
<linearGradient id="paint79_linear_4552_16354" x1="52.5464" y1="27.7118" x2="45.0691" y2="36.2657" gradientUnits="userSpaceOnUse">
<stop stop-color="#CB236D"/>
<stop offset="1" stop-color="#4C246D"/>
</linearGradient>
<linearGradient id="paint80_linear_4552_16354" x1="48.7972" y1="36.5711" x2="46.281" y2="41.41" gradientUnits="userSpaceOnUse">
<stop stop-color="#F9B776"/>
<stop offset="1" stop-color="#F47960"/>
</linearGradient>
<linearGradient id="paint81_linear_4552_16354" x1="43.4872" y1="26.4694" x2="42.7141" y2="31.0189" gradientUnits="userSpaceOnUse">
<stop stop-color="#F9B776"/>
<stop offset="1" stop-color="#F47960"/>
</linearGradient>
<linearGradient id="paint82_linear_4552_16354" x1="44.3" y1="28.6227" x2="42.0217" y2="26.2024" gradientUnits="userSpaceOnUse">
<stop stop-color="#2B3582"/>
<stop offset="1" stop-color="#150E42"/>
</linearGradient>
<linearGradient id="paint83_linear_4552_16354" x1="44.1578" y1="31.4351" x2="44.2954" y2="28.2404" gradientUnits="userSpaceOnUse">
<stop stop-color="#F9B776"/>
<stop offset="1" stop-color="#F47960"/>
</linearGradient>
<linearGradient id="paint84_linear_4552_16354" x1="45.843" y1="50.4243" x2="45.843" y2="57.4453" gradientUnits="userSpaceOnUse">
<stop stop-color="#2B3582"/>
<stop offset="1" stop-color="#150E42"/>
</linearGradient>
<linearGradient id="paint85_linear_4552_16354" x1="47.5725" y1="56.0437" x2="44.2116" y2="56.0437" gradientUnits="userSpaceOnUse">
<stop stop-color="#CB236D"/>
<stop offset="1" stop-color="#4C246D"/>
</linearGradient>
<linearGradient id="paint86_linear_4552_16354" x1="47.2529" y1="55.0975" x2="46.2788" y2="55.0975" gradientUnits="userSpaceOnUse">
<stop stop-color="#F9B776"/>
<stop offset="1" stop-color="#F47960"/>
</linearGradient>
<linearGradient id="paint87_linear_4552_16354" x1="53.8043" y1="50.4277" x2="53.8043" y2="57.4447" gradientUnits="userSpaceOnUse">
<stop stop-color="#2B3582"/>
<stop offset="1" stop-color="#150E42"/>
</linearGradient>
<linearGradient id="paint88_linear_4552_16354" x1="54.4573" y1="55.6264" x2="52.5121" y2="55.6264" gradientUnits="userSpaceOnUse">
<stop stop-color="#CB236D"/>
<stop offset="1" stop-color="#4C246D"/>
</linearGradient>
<linearGradient id="paint89_linear_4552_16354" x1="53.4461" y1="54.2853" x2="52.282" y2="54.2853" gradientUnits="userSpaceOnUse">
<stop stop-color="#F9B776"/>
<stop offset="1" stop-color="#F47960"/>
</linearGradient>
<linearGradient id="paint90_linear_4552_16354" x1="59.4088" y1="19.9464" x2="46.4893" y2="53.5014" gradientUnits="userSpaceOnUse">
<stop stop-color="#53D8FF"/>
<stop offset="0.2057" stop-color="#4DB9FD"/>
<stop offset="1" stop-color="#3840F7"/>
</linearGradient>
<clipPath id="clip0_4552_16354">
<rect width="64" height="64" fill="white"/>
</clipPath>
</defs>
</svg>
