<svg width="64" height="64" viewBox="0 0 64 64" fill="none" xmlns="http://www.w3.org/2000/svg">
<g clip-path="url(#clip0_4556_2043)">
<g opacity="0.32">
<path d="M49.1384 54.0978C46.4027 51.7202 46.1442 47.8322 46.6332 44.4127C46.7147 43.8421 46.7175 43.231 47.0449 42.7582C47.3722 42.2855 48.0495 42.0086 48.5384 42.3065C48.9445 42.5526 49.078 43.0673 49.2719 43.5023C49.5324 44.0823 49.9523 44.5773 50.483 44.9302C50.8301 45.1596 51.2699 45.3232 51.6535 45.1638C52.1804 44.9442 52.3124 44.2673 52.37 43.6967C52.4778 42.6347 52.5864 41.5723 52.696 40.5094C52.7536 39.9387 52.8155 39.3569 53.0515 38.8311C53.2876 38.3052 53.7358 37.8521 54.2964 37.7556C54.857 37.6591 55.4977 38.0465 55.5525 38.6171C55.575 38.8535 55.5019 39.0898 55.4921 39.3276C55.4823 39.5653 55.5652 39.8394 55.783 39.9303C56.0007 40.0213 56.2551 39.887 56.4405 39.7471C57.0939 39.2353 57.5744 38.5374 58.0296 37.8395C58.4849 37.1416 58.9289 36.427 59.5331 35.8577C60.1372 35.2885 60.9381 34.8704 61.7573 34.9109C62.5764 34.9515 63.4012 35.5501 63.522 36.3738C63.6429 37.1976 63.0837 37.964 62.5006 38.5598C61.6364 39.4429 60.6482 40.1966 59.5668 40.7975C59.3729 40.9051 59.1621 41.0226 59.0708 41.2254C58.905 41.5932 59.2254 42.0086 59.5893 42.1736C60.001 42.361 60.4688 42.3666 60.9086 42.4673C61.3484 42.568 61.8121 42.8156 61.9357 43.2533C62.1071 43.8603 61.5507 44.4183 61.0267 44.7666C59.9756 45.4645 58.8116 45.9769 57.5856 46.2812C57.1473 46.3889 56.6892 46.477 56.3211 46.7343C55.953 46.9917 55.6888 47.4826 55.8504 47.9063C56.012 48.3301 56.5248 48.5147 56.9744 48.4811C57.4241 48.4476 57.8456 48.2504 58.2826 48.1385C59.1017 47.9273 60.1091 48.0895 60.5433 48.821C60.8243 49.3007 60.7878 49.9231 60.563 50.4363C60.3382 50.9496 59.949 51.3692 59.5429 51.751C58.1224 53.088 56.3801 54.1006 54.4847 54.5355C52.5892 54.9705 50.8821 54.9551 49.1454 54.1034" fill="#4FAE3F"/>
<path d="M50.2612 52.0418C51.0362 50.2333 51.9149 48.4705 52.8929 46.7623L53.6545 45.4141C53.9046 44.9721 54.1533 44.533 54.423 44.119C54.9419 43.3257 55.5048 42.5619 56.1091 41.831C56.681 41.1317 57.25 40.4827 57.7868 39.8828C58.3235 39.2828 58.8363 38.7345 59.3239 38.2534C60.0894 37.4899 60.9149 36.7883 61.7926 36.1556C62.1031 35.9318 62.3546 35.7654 62.5176 35.6549L62.7101 35.5318C62.7311 35.5164 62.7537 35.5033 62.7776 35.4927C62.7588 35.5108 62.7381 35.5267 62.7157 35.5402L62.5289 35.6731C62.3659 35.7892 62.1228 35.9598 61.8179 36.1892C60.9517 36.832 60.1354 37.5388 59.3759 38.3038C58.8926 38.7863 58.3853 39.3359 57.8514 39.9373C57.3175 40.5387 56.7526 41.1862 56.1836 41.8883C55.584 42.619 55.0244 43.3814 54.5073 44.1721C54.2404 44.5847 53.9945 45.0183 53.743 45.4616L52.9828 46.8098C52.0081 48.516 51.1304 50.2754 50.354 52.0796" fill="white"/>
<path d="M54.4536 44.119C54.4352 44.0373 54.4253 43.9538 54.4241 43.8701C54.4115 43.7092 54.4002 43.4757 54.3904 43.1876C54.3707 42.6114 54.3721 41.8156 54.3749 40.9373C54.3778 40.059 54.3749 39.259 54.3398 38.6898C54.3258 38.4031 54.3131 38.1709 54.3019 38.0101C54.2933 37.9269 54.2933 37.843 54.3019 37.7598C54.3275 37.8396 54.3431 37.9223 54.3482 38.0059C54.3721 38.1653 54.3974 38.3975 54.4199 38.6856C54.4677 39.2604 54.4902 40.0576 54.4873 40.9373C54.4845 41.817 54.4747 42.5876 54.4719 43.1862C54.4719 43.4575 54.4719 43.6855 54.4719 43.8687C54.4756 43.9525 54.4695 44.0366 54.4536 44.119Z" fill="white"/>
<path d="M61.9642 43.5387C61.8652 43.5485 61.7654 43.5485 61.6663 43.5387C61.4752 43.5387 61.1998 43.5289 60.8584 43.5317C60.1769 43.5317 59.2341 43.5638 58.1972 43.6464C57.1603 43.7289 56.2231 43.8449 55.5472 43.9484C55.21 43.9974 54.9375 44.0435 54.7492 44.0757C54.6523 44.0979 54.5535 44.111 54.4541 44.1149C54.5452 44.0801 54.6393 44.0534 54.7351 44.0351C54.922 43.9904 55.1932 43.9317 55.5304 43.8729C56.2034 43.7512 57.142 43.624 58.1832 43.5401C59.071 43.4663 59.962 43.4383 60.8528 43.4561C61.1942 43.4631 61.471 43.4799 61.6621 43.4967C61.7638 43.5019 61.8649 43.5159 61.9642 43.5387Z" fill="white"/>
<path d="M50.3664 51.9146C50.3476 51.8859 50.3338 51.8542 50.3256 51.8209C50.2989 51.7453 50.2666 51.653 50.2287 51.5412C50.1444 51.2992 50.0334 50.9454 49.9013 50.5076C49.6371 49.6293 49.3112 48.4098 48.9683 47.0518C48.6255 45.6938 48.3108 44.4714 48.0663 43.589C47.9454 43.161 47.8457 42.8086 47.7726 42.5456C47.7403 42.4323 47.715 42.3386 47.6939 42.2659C47.6829 42.2328 47.6759 42.1986 47.6729 42.1638C47.6911 42.1933 47.7048 42.2254 47.7136 42.2589L47.812 42.5386C47.8949 42.7806 48.0059 43.1344 48.1379 43.5736C48.4021 44.4505 48.7295 45.6714 49.0709 47.0294C49.4123 48.3874 49.7285 49.6098 49.973 50.4908C50.0938 50.9202 50.1936 51.2726 50.268 51.5342L50.3453 51.8139C50.3561 51.8466 50.3631 51.8803 50.3664 51.9146Z" fill="white"/>
<path d="M60.4874 49.828C60.4555 49.843 60.4213 49.8529 60.3862 49.8573L60.0912 49.9217L59.0079 50.1468C58.0932 50.3384 56.8314 50.6153 55.439 50.9244C54.0466 51.2335 52.7792 51.4992 51.8603 51.6712C51.4008 51.758 51.0285 51.8237 50.77 51.8629L50.4721 51.9076C50.4376 51.916 50.4021 51.9188 50.3667 51.916C50.3992 51.9026 50.4332 51.8927 50.4679 51.8866L50.7629 51.8223L51.8462 51.5971C52.7609 51.4069 54.0227 51.1286 55.4165 50.8195C56.8103 50.5105 58.0735 50.2447 58.9938 50.0727C59.4533 49.9874 59.8256 49.9217 60.0841 49.8811L60.382 49.8363C60.4165 49.828 60.452 49.8251 60.4874 49.828Z" fill="white"/>
</g>
<path d="M57.9239 7.60962H41.0996V22.5924H57.9239V7.60962Z" fill="#FAFAFA"/>
<path d="M57.9237 22.5938C57.9237 22.5938 57.9237 22.4973 57.9237 22.3141C57.9237 22.1309 57.9237 21.861 57.9237 21.5113C57.9237 20.812 57.9237 19.7785 57.9139 18.4695C57.9139 15.8513 57.9026 12.1116 57.8942 7.60823L57.9322 7.64739L41.1065 7.65578L41.1514 7.61103C41.1514 13.0654 41.1514 18.1925 41.1514 22.5952L41.1121 22.5546L53.2814 22.5756L56.7126 22.5854H57.6216H57.8563C57.9083 22.5854 57.9364 22.5854 57.9364 22.5854H57.8605H57.6301H56.7294L53.3067 22.5952L41.1121 22.6162H41.0728V22.577C41.0728 18.1744 41.0728 13.0444 41.0728 7.59285V7.5481H41.1065L57.9293 7.55509H57.9673V7.59285C57.9588 12.106 57.9518 15.8541 57.9476 18.4778C57.9476 19.7841 57.9392 20.8092 57.9378 21.5113C57.9378 21.8582 57.9378 22.1239 57.9378 22.3071C57.9378 22.4903 57.9237 22.5938 57.9237 22.5938Z" fill="url(#paint0_linear_4556_2043)"/>
<path d="M47.55 10.2725C47.55 10.2977 46.6648 10.3173 45.5731 10.3173C44.4813 10.3173 43.5947 10.2977 43.5947 10.2725C43.5947 10.2474 44.4799 10.2278 45.5731 10.2278C46.6662 10.2278 47.55 10.2474 47.55 10.2725Z" fill="url(#paint1_linear_4556_2043)"/>
<path d="M54.6793 11.3969C54.6793 11.4221 52.2471 11.4417 49.2459 11.4417C46.2447 11.4417 43.8125 11.4221 43.8125 11.3969C43.8125 11.3718 46.2447 11.3522 49.2459 11.3522C52.2471 11.3522 54.6793 11.3732 54.6793 11.3969Z" fill="url(#paint2_linear_4556_2043)"/>
<path d="M44.3327 13.3032H43.6245V14.0081H44.3327V13.3032Z" fill="url(#paint3_linear_4556_2043)"/>
<path d="M46.0763 13.3032H45.3682V14.0081H46.0763V13.3032Z" fill="url(#paint4_linear_4556_2043)"/>
<path d="M47.8537 13.271H47.1455V13.9759H47.8537V13.271Z" fill="url(#paint5_linear_4556_2043)"/>
<path d="M49.5666 13.3032H48.8584V14.0081H49.5666V13.3032Z" fill="url(#paint6_linear_4556_2043)"/>
<path d="M51.3117 13.3032H50.6035V14.0081H51.3117V13.3032Z" fill="url(#paint7_linear_4556_2043)"/>
<path d="M53.0568 13.3032H52.3486V14.0081H53.0568V13.3032Z" fill="url(#paint8_linear_4556_2043)"/>
<path d="M54.8014 13.3032H54.0933V14.0081H54.8014V13.3032Z" fill="#EBEBEB"/>
<path d="M44.3327 14.8024H43.6245V15.5072H44.3327V14.8024Z" fill="#EBEBEB"/>
<path d="M46.0763 14.8024H45.3682V15.5072H46.0763V14.8024Z" fill="url(#paint9_linear_4556_2043)"/>
<path d="M47.8209 14.8024H47.1128V15.5072H47.8209V14.8024Z" fill="#EBEBEB"/>
<path d="M49.5666 14.8024H48.8584V15.5072H49.5666V14.8024Z" fill="url(#paint10_linear_4556_2043)"/>
<path d="M51.3117 14.8024H50.6035V15.5072H51.3117V14.8024Z" fill="url(#paint11_linear_4556_2043)"/>
<path d="M53.089 14.7703H52.3809V15.4765H53.089V14.7703Z" fill="url(#paint12_linear_4556_2043)"/>
<path d="M54.8014 14.8024H54.0933V15.5072H54.8014V14.8024Z" fill="url(#paint13_linear_4556_2043)"/>
<path d="M44.3327 16.3031H43.6245V17.008H44.3327V16.3031Z" fill="url(#paint14_linear_4556_2043)"/>
<path d="M46.1085 16.2709H45.4004V16.9757H46.1085V16.2709Z" fill="url(#paint15_linear_4556_2043)"/>
<path d="M47.8209 16.3031H47.1128V17.008H47.8209V16.3031Z" fill="url(#paint16_linear_4556_2043)"/>
<path d="M49.5666 16.3031H48.8584V17.008H49.5666V16.3031Z" fill="#EBEBEB"/>
<path d="M51.3117 16.3031H50.6035V17.008H51.3117V16.3031Z" fill="url(#paint17_linear_4556_2043)"/>
<path d="M53.0568 16.3031H52.3486V17.008H53.0568V16.3031Z" fill="url(#paint18_linear_4556_2043)"/>
<path d="M54.8014 16.3031H54.0933V17.008H54.8014V16.3031Z" fill="url(#paint19_linear_4556_2043)"/>
<path d="M44.3327 17.8024H43.6245V18.5086H44.3327V17.8024Z" fill="url(#paint20_linear_4556_2043)"/>
<path d="M46.0763 17.8024H45.3682V18.5086H46.0763V17.8024Z" fill="url(#paint21_linear_4556_2043)"/>
<path d="M47.8209 17.8024H47.1128V18.5086H47.8209V17.8024Z" fill="url(#paint22_linear_4556_2043)"/>
<path d="M49.5988 17.7701H48.8906V18.475H49.5988V17.7701Z" fill="url(#paint23_linear_4556_2043)"/>
<path d="M51.3117 17.8024H50.6035V18.5086H51.3117V17.8024Z" fill="url(#paint24_linear_4556_2043)"/>
<path d="M53.0568 17.8024H52.3486V18.5086H53.0568V17.8024Z" fill="#EBEBEB"/>
<path d="M54.8014 17.8024H54.0933V18.5086H54.8014V17.8024Z" fill="url(#paint25_linear_4556_2043)"/>
<path d="M44.3327 19.303H43.6245V20.0079H44.3327V19.303Z" fill="url(#paint26_linear_4556_2043)"/>
<path d="M46.0763 19.303H45.3682V20.0079H46.0763V19.303Z" fill="#EBEBEB"/>
<path d="M47.8209 19.303H47.1128V20.0079H47.8209V19.303Z" fill="url(#paint27_linear_4556_2043)"/>
<path d="M49.5666 19.303H48.8584V20.0079H49.5666V19.303Z" fill="url(#paint28_linear_4556_2043)"/>
<path d="M51.3117 19.303H50.6035V20.0079H51.3117V19.303Z" fill="url(#paint29_linear_4556_2043)"/>
<path d="M53.089 19.2709H52.3809V19.9757H53.089V19.2709Z" fill="url(#paint30_linear_4556_2043)"/>
<g opacity="0.32">
<path d="M1.13872 36.4787C1.13872 36.4787 0.101763 36.8974 1.29811 39.0899C2.49445 41.2824 3.31271 42.3626 3.31271 42.3626C3.31271 42.3626 3.52863 42.8736 3.09401 42.9649C2.6594 43.0562 1.69565 42.928 1.51866 43.4648C1.33332 44.0183 1.74662 44.5302 2.57415 44.9655C3.40167 45.4009 5.17905 46.4202 5.33936 46.5124C5.49968 46.6046 5.65814 46.8398 5.37272 46.9496C5.08731 47.0594 2.92814 47.337 3.12274 48.3516C3.31734 49.3663 5.82309 50.1964 6.09461 50.2886C6.36612 50.3809 6.43377 50.4971 6.41616 50.6447C6.39856 50.7923 5.66463 50.8181 5.05487 50.9214C4.44512 51.0247 3.75752 51.2535 3.91876 51.8272C4.08 52.4009 5.58123 53.5751 9.15914 53.8306L10.8272 53.8417L11.6927 52.4221C13.3672 49.2639 13.1596 47.3748 12.7565 46.9348C12.3534 46.4949 11.7946 46.9561 11.3832 47.4163C10.9717 47.8766 10.5612 48.4817 10.425 48.418C10.2888 48.3544 10.2295 48.2391 10.2915 47.9569C10.3536 47.6746 10.9662 45.1187 10.2081 44.4195C9.45012 43.7203 8.07307 45.4 7.82843 45.5789C7.58378 45.7579 7.46795 45.5005 7.47443 45.3197C7.48092 45.139 7.55042 43.094 7.61714 42.1652C7.68386 41.2363 7.46887 40.6156 6.89619 40.48C6.34018 40.349 5.9417 41.2308 5.63405 41.5499C5.32639 41.8691 5.00483 41.4162 5.00483 41.4162C5.00483 41.4162 4.5174 40.1544 3.28028 37.9831C2.04316 35.8118 1.11833 36.4888 1.11833 36.4888" fill="url(#paint31_linear_4556_2043)"/>
<path d="M10.9215 54.2327C10.0199 52.6352 8.46397 49.7684 7.11658 47.3148C5.76919 44.8613 4.5469 42.6411 3.65265 41.0426L2.59253 39.1415C2.46836 38.9192 2.37198 38.7458 2.30433 38.6259L2.23113 38.4913C2.21444 38.4608 2.20703 38.4442 2.20703 38.4442C2.20703 38.4442 2.21722 38.459 2.23576 38.4885L2.3136 38.6213L2.61014 39.1323C2.86683 39.576 3.23472 40.2217 3.68509 41.0204C4.58675 42.618 5.81645 44.8354 7.16199 47.2927C8.50753 49.7499 10.0597 52.613 10.9512 54.2152" fill="white"/>
<path d="M2.85693 43.6973C2.89675 43.7032 2.93587 43.7131 2.9737 43.7268C3.04876 43.748 3.15903 43.783 3.28599 43.8264C3.54824 43.9186 3.90779 44.0459 4.30533 44.1954L5.31171 44.5874L5.61751 44.7045C5.6563 44.7158 5.69362 44.7316 5.72872 44.7516C5.68852 44.7465 5.64904 44.7369 5.61103 44.723C5.53689 44.7008 5.43032 44.6667 5.29966 44.6215C5.03834 44.5293 4.68064 44.3955 4.2868 44.2433L3.27857 43.8587L2.97184 43.7434C2.93182 43.7327 2.89324 43.7172 2.85693 43.6973Z" fill="white"/>
<path d="M5.834 44.6446C5.82103 44.64 6.05919 43.891 6.36684 42.9723C6.6745 42.0536 6.93583 41.312 6.94973 41.312C6.96363 41.312 6.72454 42.0656 6.41596 42.9852C6.10737 43.9049 5.8479 44.6492 5.834 44.6446Z" fill="white"/>
<path d="M7.73389 48.5057C7.75138 48.4685 7.77315 48.4336 7.79875 48.4014C7.84972 48.3286 7.91274 48.2363 7.98872 48.1247C8.14904 47.8932 8.36866 47.5713 8.59848 47.2106C8.8283 46.85 9.02568 46.5142 9.16654 46.2707C9.23326 46.1564 9.28886 46.0595 9.33427 45.9829C9.35262 45.9464 9.37466 45.9118 9.40006 45.8796C9.38866 45.919 9.37248 45.9568 9.35188 45.9922C9.31759 46.0632 9.26569 46.1647 9.19897 46.2883C9.06646 46.5364 8.87371 46.8749 8.64296 47.2383C8.41222 47.6017 8.18703 47.919 8.01931 48.145C7.93498 48.2585 7.86548 48.3489 7.81544 48.4097C7.792 48.4447 7.76464 48.4769 7.73389 48.5057Z" fill="white"/>
<path d="M4.85107 48.239C4.88893 48.2344 4.9272 48.2344 4.96506 48.239L5.27364 48.2556C5.53404 48.2713 5.89359 48.2971 6.29299 48.3285C6.69239 48.3599 7.04916 48.3922 7.31234 48.4208L7.62 48.454C7.65799 48.4555 7.69565 48.4617 7.73212 48.4724C7.69427 48.4769 7.656 48.4769 7.61814 48.4724L7.30956 48.4558C7.04916 48.4401 6.68961 48.4143 6.29021 48.3829C5.89081 48.3516 5.53404 48.3193 5.27086 48.2907L4.9632 48.2584C4.92519 48.2563 4.88756 48.2498 4.85107 48.239Z" fill="white"/>
<path d="M6.0918 51.8568C6.14051 51.8526 6.1895 51.8526 6.23821 51.8568L6.63391 51.8771C6.96751 51.8955 7.42807 51.925 7.93775 51.961C8.44742 51.997 8.90705 52.0311 9.24066 52.0597L9.63543 52.0957C9.68375 52.0983 9.73179 52.1047 9.77906 52.115C9.73069 52.1198 9.68195 52.1198 9.63357 52.115L9.23788 52.0957C8.90427 52.0772 8.44279 52.0477 7.93404 52.0117C7.42529 51.9757 6.9638 51.9407 6.63113 51.913L6.23636 51.8771C6.18762 51.875 6.1392 51.8682 6.0918 51.8568Z" fill="white"/>
<path d="M9.69287 52.0873C9.71512 52.0405 9.74148 51.9957 9.77164 51.9536L10.0005 51.5975C10.1933 51.2977 10.4574 50.8817 10.7363 50.4141C11.0152 49.9464 11.258 49.5175 11.4313 49.2058C11.5138 49.0554 11.5833 48.929 11.6361 48.8368C11.659 48.7902 11.686 48.7458 11.7167 48.704C11.6998 48.753 11.6787 48.8005 11.6537 48.846C11.6111 48.9383 11.5462 49.0656 11.4628 49.2233C11.2979 49.5406 11.0607 49.9732 10.7808 50.4418C10.5009 50.9103 10.2313 51.3236 10.0311 51.6187C9.9301 51.7663 9.84577 51.8853 9.78832 51.9655C9.76017 52.0089 9.72823 52.0496 9.69287 52.0873Z" fill="white"/>
</g>
<path d="M18.5421 9.93405L17.1777 9.94763L17.2456 16.7027L18.6099 16.6891L18.5421 9.93405Z" fill="#4FAE3F" fill-opacity="0.16"/>
<path d="M8.89372 9.99659L5.36279 10.0317L5.40025 13.7603L8.93118 13.7252L8.89372 9.99659Z" fill="#EBEBEB"/>
<path d="M12.4089 9.96022L8.87793 9.99536L8.91539 13.7239L12.4463 13.6888L12.4089 9.96022Z" fill="#F5F5F5"/>
<path d="M5.32333 11.1226C7.6698 11.1408 10.0233 11.1226 12.3697 11.0904C12.3798 11.0904 12.3895 11.0864 12.3966 11.0794C12.4037 11.0723 12.4077 11.0627 12.4077 11.0527C12.4077 11.0426 12.4037 11.033 12.3966 11.026C12.3895 11.0189 12.3798 11.0149 12.3697 11.0149C10.0214 11.0018 7.67261 11.0163 5.32333 11.0583C5.31476 11.0583 5.30654 11.0616 5.30048 11.0677C5.29442 11.0737 5.29102 11.0819 5.29102 11.0904C5.29102 11.099 5.29442 11.1071 5.30048 11.1132C5.30654 11.1192 5.31476 11.1226 5.32333 11.1226Z" fill="#4FAE3F" fill-opacity="0.16"/>
<path d="M9.53355 13.7396L3.1167 13.7742L3.13322 16.8132L9.55007 16.7786L9.53355 13.7396Z" fill="#EBEBEB"/>
<path d="M15.9193 13.7038L9.50244 13.7384L9.51896 16.7774L15.9358 16.7429L15.9193 13.7038Z" fill="#F5F5F5"/>
<path d="M3.11991 14.619C7.38289 14.6679 11.6599 14.619 15.9229 14.5561C15.9315 14.5544 15.9393 14.5498 15.9449 14.543C15.9505 14.5362 15.9536 14.5278 15.9536 14.519C15.9536 14.5102 15.9505 14.5017 15.9449 14.495C15.9393 14.4882 15.9315 14.4836 15.9229 14.4819C11.6613 14.4596 7.38289 14.4624 3.12132 14.5561C3.11407 14.5576 3.10757 14.5615 3.10291 14.5673C3.09825 14.573 3.0957 14.5802 3.0957 14.5875C3.0957 14.5949 3.09825 14.602 3.10291 14.6078C3.10757 14.6135 3.11407 14.6175 3.12132 14.619H3.11991Z" fill="#4FAE3F" fill-opacity="0.16"/>
<path d="M25.5801 16.8134H0.72168V17.9014H25.5801V16.8134Z" fill="#4FAE3F" fill-opacity="0.16"/>
<path d="M5.79937 17.3364H4.79053V21.051H5.79937V17.3364Z" fill="#4FAE3F" fill-opacity="0.16"/>
<path d="M20.8648 17.3364H19.856V21.051H20.8648V17.3364Z" fill="#4FAE3F" fill-opacity="0.16"/>
<path d="M19.8282 7.53611L18.4639 7.54346L18.5144 16.8326L19.8787 16.8252L19.8282 7.53611Z" fill="#EBEBEB"/>
<path d="M21.9577 9.26593L19.8389 9.27734L19.8798 16.8057L21.9986 16.7943L21.9577 9.26593Z" fill="#F5F5F5"/>
<path d="M21.944 10.717C21.5921 10.7529 21.2382 10.7651 20.8846 10.7533C20.5311 10.7652 20.1771 10.753 19.8252 10.717C20.177 10.6801 20.5311 10.668 20.8846 10.6806C21.2382 10.668 21.5922 10.6802 21.944 10.717Z" fill="#4FAE3F" fill-opacity="0.16"/>
<path d="M21.944 10.4009C21.5921 10.4369 21.2382 10.4491 20.8846 10.4373C20.5311 10.4491 20.1771 10.437 19.8252 10.4009C20.177 10.3641 20.5311 10.3519 20.8846 10.3646C21.2382 10.352 21.5922 10.3641 21.944 10.4009Z" fill="#4FAE3F" fill-opacity="0.16"/>
<path d="M21.944 15.6651C21.5921 15.7011 21.2382 15.7132 20.8846 15.7015C20.5311 15.7133 20.1771 15.7011 19.8252 15.6651C20.177 15.6282 20.5311 15.6161 20.8846 15.6287C21.2382 15.6161 21.5922 15.6283 21.944 15.6651Z" fill="#4FAE3F" fill-opacity="0.16"/>
<path d="M21.944 15.3462C21.5921 15.3822 21.2382 15.3943 20.8846 15.3826C20.5311 15.3944 20.1771 15.3822 19.8252 15.3462C20.177 15.3084 20.531 15.2958 20.8846 15.3085C21.2382 15.2959 21.5923 15.3085 21.944 15.3462Z" fill="#4FAE3F" fill-opacity="0.16"/>
<path d="M20.9184 14.6554C20.8973 14.6554 20.8818 13.8959 20.8818 12.9589C20.8818 12.0219 20.8973 11.2625 20.9184 11.2625C20.9394 11.2625 20.9549 12.0219 20.9549 12.9589C20.9549 13.8959 20.938 14.6554 20.9184 14.6554Z" fill="#4FAE3F" fill-opacity="0.16"/>
<path d="M24.2734 11.1156H21.9663V16.7979H24.2734V11.1156Z" fill="#EBEBEB"/>
<path d="M19.5228 9.12262C19.5228 9.19979 19.4998 9.27523 19.4567 9.3394C19.4137 9.40357 19.3524 9.45358 19.2808 9.48312C19.2092 9.51265 19.1303 9.52038 19.0543 9.50532C18.9783 9.49026 18.9084 9.4531 18.8536 9.39853C18.7988 9.34396 18.7614 9.27443 18.7463 9.19874C18.7312 9.12305 18.7389 9.0446 18.7686 8.9733C18.7983 8.902 18.8485 8.84106 18.913 8.79818C18.9775 8.75531 19.0533 8.73242 19.1308 8.73242C19.2348 8.73242 19.3345 8.77353 19.408 8.84671C19.4815 8.91988 19.5228 9.01913 19.5228 9.12262Z" fill="#4FAE3F" fill-opacity="0.16"/>
<path d="M19.2461 10.1968H19.0044V15.7225H19.2461V10.1968Z" fill="#4FAE3F" fill-opacity="0.16"/>
<path d="M63.7751 54.6744C63.7751 54.6878 47.4058 54.6992 27.2069 54.6992C7.00806 54.6992 -9.36572 54.6916 -9.36572 54.6744C-9.36572 54.6573 7.0036 54.6497 27.2069 54.6497C47.4102 54.6497 63.7751 54.664 63.7751 54.6744Z" fill="#1C1C1C"/>
<path d="M25.1207 20.693C19.9543 19.8106 19.4737 24.4622 19.5089 25.7964C19.544 27.1306 20.0006 28.3138 20.4727 29.5641C20.9449 30.8144 20.6456 32.5179 20.2479 33.7934C19.7829 35.2856 18.3019 36.6548 18.8316 38.1289C19.2531 39.2841 20.7805 39.8505 20.9687 41.0659C21.1177 42.0267 20.3407 42.8616 20.054 43.7903C19.5131 45.5413 20.7566 47.2964 21.9172 48.7146C22.3991 49.3006 22.9808 49.9369 23.7437 49.9481C24.7933 49.9621 25.4172 48.8293 25.8907 47.8978C27.2111 45.307 29.1483 43.0772 31.5334 41.4029" fill="#1C1C1C"/>
<path d="M21.9439 27.6579C21.8455 27.7141 21.7381 27.7529 21.6264 27.7726C21.0863 27.8928 20.5204 27.8033 20.0443 27.5223C19.9435 27.4698 19.8531 27.3997 19.7773 27.3153C19.7773 27.3055 19.8869 27.3824 20.0696 27.4775C20.5439 27.7256 21.0865 27.813 21.6152 27.7265C21.8189 27.6873 21.9397 27.6467 21.9439 27.6579Z" fill="#455A64"/>
<path d="M20.3939 39.4911C20.286 39.3709 20.1891 39.2412 20.1045 39.1037C19.8186 38.6337 19.6387 38.1076 19.5771 37.5617C19.5154 37.0157 19.5736 36.463 19.7476 35.9416C19.8803 35.5782 20.0557 35.2317 20.2703 34.9094C20.4867 34.571 20.7297 34.2367 20.956 33.8801C21.5694 32.9128 21.8723 31.7825 21.8243 30.6396C21.8131 30.3387 21.7793 30.039 21.7231 29.7432C21.6387 29.3145 21.5038 28.8971 21.3213 28.4998C21.2623 28.36 21.199 28.2537 21.1639 28.1796C21.143 28.1435 21.1256 28.1056 21.1119 28.0663C21.136 28.1004 21.1581 28.1359 21.178 28.1726C21.2159 28.2439 21.2833 28.3446 21.3466 28.4873C21.5386 28.8831 21.6802 29.3012 21.7681 29.732C21.8284 30.0303 21.8655 30.3328 21.8791 30.6368C21.8979 30.9853 21.8824 31.3347 21.8327 31.6802C21.7274 32.4769 21.4473 33.2409 21.0122 33.9179C20.7845 34.2787 20.5401 34.6171 20.3251 34.9472C20.1123 35.2644 19.9383 35.6057 19.8066 35.9639C19.5924 36.576 19.5439 37.2335 19.6661 37.8702C19.7454 38.2996 19.8984 38.7121 20.1185 39.0897C20.2885 39.3555 20.401 39.4855 20.3939 39.4911Z" fill="#455A64"/>
<path d="M37.4669 34.4143C37.4669 34.4143 40.0565 34.4143 41.8226 38.175C43.1308 40.9722 46.8612 50.4628 46.2725 53.1396C46.1404 53.7368 45.7639 55.0682 44.8028 55.0864C43.1673 55.1172 42.0208 55.0277 42.0208 55.0277L39.9286 50.2097L37.9095 43.3343C37.9095 43.3343 34.6568 35.0646 37.4669 34.4143Z" fill="url(#paint32_linear_4556_2043)"/>
<path d="M40.7098 54.8697L40.0606 50.5132L37.4669 34.4144L34.2465 34.1738L28.1934 35.3696C28.1934 35.3696 24.6218 35.9458 22.7896 37.2479C22.7896 37.2479 23.3333 46.0588 23.3642 46.979C23.4317 48.986 24.6878 50.7859 25.9495 52.3789L26.2825 52.7984L26.1111 55.3256L40.7098 54.8697Z" fill="url(#paint33_linear_4556_2043)"/>
<path d="M25.5691 35.9989C25.5691 35.9989 23.0231 36.5499 21.3848 38.6562C20.0641 40.3554 13.9 47.9244 13.9 47.9244C13.9 47.9244 10.7316 49.6908 10.1429 51.5131C9.55416 53.3354 10.1513 54.9508 11.5255 54.9508C12.8996 54.9508 16.4432 54.0151 16.4432 54.0151L23.3435 46.151L23.4995 47.5062L25.0788 40.6337L25.5691 35.9989Z" fill="url(#paint34_linear_4556_2043)"/>
<path d="M37.2339 41.3624C37.247 41.3892 37.2569 41.4173 37.2634 41.4463C37.2817 41.5107 37.3055 41.5862 37.3351 41.6925C37.3997 41.9135 37.4868 42.2197 37.595 42.5946C37.817 43.3554 38.1331 44.4057 38.4886 45.5623C38.8441 46.7189 39.1701 47.7566 39.4075 48.5231L39.6885 49.4209L39.7602 49.6657C39.7701 49.6938 39.7772 49.7229 39.7813 49.7524C39.7661 49.7265 39.7543 49.6987 39.7462 49.6699C39.7251 49.6083 39.6956 49.53 39.6618 49.4293C39.5874 49.2098 39.4862 48.9077 39.3626 48.5384C39.1153 47.7846 38.7809 46.7413 38.4254 45.5833C38.0699 44.4253 37.7608 43.3736 37.5514 42.6085C37.4475 42.2253 37.3646 41.9093 37.3126 41.6995C37.2887 41.5974 37.2704 41.5149 37.255 41.4505C37.2443 41.4221 37.2373 41.3925 37.2339 41.3624Z" fill="#1C1C1C"/>
<path d="M34.8507 50.1215C34.7924 50.1399 34.7327 50.1535 34.6722 50.1621C34.6022 50.1768 34.5313 50.1875 34.4601 50.1943C34.3758 50.2026 34.2816 50.2166 34.179 50.2194C33.9323 50.2343 33.6847 50.2301 33.4386 50.2068C33.1366 50.1767 32.8377 50.1215 32.5449 50.0418C32.2554 49.9588 31.9734 49.8516 31.7019 49.7215C31.4791 49.614 31.2649 49.4896 31.0612 49.3495C30.9727 49.2936 30.8996 49.232 30.8322 49.1817C30.7647 49.1313 30.7113 49.0852 30.6678 49.0418C30.62 49.004 30.5762 48.9613 30.5371 48.9146C30.5469 48.9034 30.7394 49.0782 31.0907 49.3048C31.2956 49.4368 31.5092 49.555 31.73 49.6586C32.0027 49.7833 32.2845 49.8871 32.5731 49.9691C32.8615 50.0475 33.1555 50.1036 33.4526 50.1369C33.6957 50.1629 33.9403 50.1727 34.1847 50.1663C34.5921 50.1551 34.8479 50.1033 34.8507 50.1215Z" fill="#1C1C1C"/>
<path d="M23.8561 41.6561C23.8546 41.6832 23.8499 41.7099 23.8421 41.7358C23.828 41.7946 23.8097 41.8757 23.7873 41.961C23.7648 42.0463 23.7325 42.1764 23.703 42.3162C23.6735 42.4561 23.6341 42.6141 23.6046 42.7904C23.5344 43.1428 23.4641 43.5652 23.4205 44.0365C23.3698 44.5477 23.3455 45.0612 23.3475 45.5749C23.3545 46.1217 23.3924 46.642 23.4458 47.1133C23.4992 47.5846 23.5751 48.0056 23.651 48.3552C23.6847 48.5315 23.7254 48.6895 23.7578 48.828C23.7901 48.9664 23.821 49.0853 23.8477 49.1818L23.9067 49.4056C23.9153 49.4314 23.9205 49.4581 23.9222 49.4853C23.9088 49.4616 23.8989 49.4362 23.8926 49.4098C23.873 49.3524 23.8505 49.2797 23.821 49.1902C23.7915 49.1007 23.7535 48.9762 23.7184 48.8377C23.6833 48.6993 23.6369 48.5426 23.6004 48.3664C23.5175 48.0154 23.4416 47.593 23.3798 47.1217C23.2482 46.0956 23.2393 45.0577 23.3531 44.0295C23.4079 43.5554 23.4767 43.1316 23.554 42.7806C23.5863 42.603 23.6299 42.4463 23.6636 42.3065C23.6973 42.1666 23.7311 42.0491 23.7606 41.954C23.7901 41.8589 23.8097 41.7904 23.828 41.7317C23.8351 41.7057 23.8445 41.6804 23.8561 41.6561Z" fill="#1C1C1C"/>
<path d="M38.0292 35.0073C38.0362 35.0213 37.8128 35.1164 37.5079 35.3528C37.1099 35.659 36.7942 36.0584 36.5888 36.5154C36.3834 36.9724 36.2946 37.4729 36.3304 37.9723C36.3571 38.3555 36.4344 38.5848 36.4203 38.5876C36.3946 38.5376 36.3752 38.4845 36.3627 38.4296C36.3222 38.2812 36.2945 38.1296 36.2798 37.9765C36.2285 37.4668 36.312 36.9527 36.522 36.4851C36.732 36.0175 37.0612 35.6127 37.477 35.3108C37.601 35.2194 37.7332 35.1393 37.8718 35.0717C37.9216 35.0443 37.9744 35.0227 38.0292 35.0073Z" fill="#1C1C1C"/>
<path d="M37.6973 43.2029C37.6776 43.2518 37.6531 43.2986 37.6243 43.3428C37.5428 43.4726 37.438 43.5864 37.3152 43.6784C37.1211 43.8242 36.8985 43.9281 36.6618 43.9833C36.3477 44.0558 36.0218 44.0624 35.705 44.0029C35.3247 43.9279 34.9529 43.8155 34.595 43.6672C34.1895 43.4949 33.7726 43.3505 33.3473 43.2351C33.1175 43.1782 32.8815 43.1495 32.6447 43.1498C32.3985 43.1543 32.1543 43.1944 31.9197 43.2686C31.4268 43.4406 30.9634 43.6868 30.5455 43.9987C30.1253 44.3134 29.6891 44.6065 29.2388 44.877C28.8142 45.1328 28.3375 45.291 27.8436 45.3399C27.6125 45.3544 27.3806 45.3322 27.1565 45.2742C26.9472 45.2172 26.7446 45.138 26.5523 45.0378C26.214 44.8524 25.8857 44.6493 25.5688 44.4294C24.9843 44.0379 24.4447 43.8197 24.0513 43.7847C23.8485 43.7646 23.6438 43.7754 23.4443 43.8169L23.4823 43.8043C23.509 43.8043 23.5469 43.7847 23.5975 43.7763C23.748 43.7484 23.9018 43.7418 24.0541 43.7567C24.4546 43.7833 25.0054 43.9973 25.5997 44.3875C25.8976 44.5763 26.2151 44.7973 26.5833 44.9847C26.7725 45.0807 26.9712 45.1571 27.1762 45.2126C27.3941 45.2673 27.6193 45.2876 27.8436 45.2728C28.3265 45.2234 28.7922 45.0672 29.2065 44.8155C29.6491 44.5693 30.065 44.2476 30.5076 43.9386C30.9321 43.6237 31.402 43.3747 31.9014 43.2001C32.1434 43.1239 32.3952 43.0834 32.6489 43.0798C32.891 43.0808 33.1321 43.1109 33.3669 43.1693C33.795 43.2869 34.2142 43.4342 34.6216 43.6099C34.9748 43.7607 35.3425 43.875 35.719 43.9511C36.0285 44.0137 36.3477 44.0113 36.6562 43.9441C36.8892 43.8933 37.1092 43.7952 37.3025 43.656C37.4249 43.5682 37.5309 43.4598 37.6158 43.3358C37.6692 43.2505 37.6931 43.2001 37.6973 43.2029Z" fill="#FAFAFA"/>
<path d="M43.0732 41.1526C43.0732 41.1526 43.0732 41.1736 43.0451 41.2085C43.0153 41.2578 42.9815 41.3046 42.944 41.3484C42.8012 41.5148 42.6238 41.6484 42.4241 41.74C42.1283 41.8753 41.8081 41.95 41.4827 41.9596C41.088 41.9634 40.694 41.9273 40.3067 41.8519C39.9236 41.7752 39.5351 41.7284 39.1447 41.712C38.827 41.7079 38.5111 41.76 38.2117 41.8659C38.0111 41.9397 37.8262 42.0502 37.6665 42.1917C37.5555 42.2952 37.5064 42.3651 37.5007 42.3596C37.4951 42.354 37.5092 42.34 37.5331 42.3078C37.5667 42.2579 37.6048 42.2111 37.6469 42.1679C37.8027 42.0139 37.9888 41.8934 38.1934 41.8141C38.4963 41.6975 38.8185 41.6386 39.1433 41.6407C39.5377 41.6514 39.9306 41.6944 40.3179 41.7694C40.7011 41.8447 41.0907 41.8826 41.4813 41.8826C41.7985 41.8762 42.1115 41.8087 42.403 41.684C42.599 41.5986 42.7757 41.475 42.9229 41.3204C43.0255 41.2267 43.0662 41.1526 43.0732 41.1526Z" fill="#FAFAFA"/>
<path d="M44.2296 44.607C44.2296 44.607 44.2296 44.628 44.2057 44.6657C44.1816 44.7209 44.1534 44.7742 44.1214 44.8252C44.0074 45.0175 43.8653 45.1919 43.6999 45.3426C43.5875 45.4462 43.4662 45.5398 43.3374 45.6224C43.1875 45.7179 43.0289 45.7994 42.8639 45.8657C42.4819 46.0131 42.0696 46.0659 41.6625 46.0196C41.2632 45.9622 40.8674 45.8833 40.4767 45.7832C40.16 45.7054 39.8347 45.6683 39.5086 45.6727C39.2886 45.6768 39.0709 45.7185 38.8651 45.7958C38.7246 45.8517 38.6473 45.8993 38.6431 45.8923C38.6594 45.8784 38.6768 45.8658 38.6951 45.8545C38.7456 45.8211 38.7993 45.7926 38.8552 45.7692C39.061 45.6802 39.2816 45.6304 39.5058 45.6224C39.8364 45.6099 40.1673 45.6419 40.4893 45.7175C40.8786 45.8136 41.2725 45.8901 41.6696 45.9468C42.0649 45.9932 42.4656 45.9453 42.8386 45.807C43 45.7445 43.1552 45.6672 43.3023 45.5762C43.4306 45.4957 43.5519 45.4044 43.6648 45.3035C43.8289 45.1579 43.973 44.9915 44.0933 44.8084C44.1846 44.6811 44.2226 44.6042 44.2296 44.607Z" fill="#FAFAFA"/>
<path d="M23.8491 48.8951C24.0536 48.8448 24.2424 48.7449 24.3985 48.6042C24.5806 48.4381 24.7536 48.2626 24.917 48.0783C25.1444 47.8403 25.404 47.6351 25.6884 47.4685C26.0336 47.265 26.4154 47.1305 26.8124 47.0727C27.0344 47.0433 27.2593 47.0433 27.4812 47.0727C27.7162 47.1064 27.9457 47.1704 28.1641 47.2629C28.6151 47.4447 29.0451 47.7161 29.52 47.9259C29.759 48.0358 30.0126 48.1112 30.2731 48.1496C30.4054 48.1669 30.5391 48.1701 30.6721 48.1594C30.8071 48.1461 30.9407 48.1209 31.0712 48.0839C31.5995 47.9286 32.0547 47.6252 32.524 47.3846C32.9726 47.1543 33.4433 46.9697 33.9291 46.8336C34.7553 46.6052 35.6131 46.5107 36.4694 46.5539C37.0454 46.5828 37.6162 46.6767 38.171 46.8336C38.3677 46.8867 38.5166 46.9413 38.6178 46.9734L38.7316 47.0154L38.7695 47.0322C38.7567 47.032 38.7439 47.0302 38.7316 47.0266L38.615 46.9916C38.5138 46.9581 38.3635 46.9091 38.1668 46.8602C37.6138 46.7149 37.0465 46.6301 36.4751 46.607C35.6244 46.5714 34.7735 46.671 33.9544 46.9021C33.4716 47.0373 33.0041 47.2215 32.5591 47.4517C32.0955 47.6867 31.6374 47.993 31.0937 48.151C30.9586 48.1895 30.8204 48.2157 30.6806 48.2293C30.5401 48.2407 30.3987 48.237 30.259 48.2181C29.9923 48.1786 29.7325 48.1014 29.4877 47.9888C29.0057 47.7748 28.5772 47.5021 28.1346 47.3231C27.9218 47.2311 27.6979 47.1672 27.4686 47.1329C27.2517 47.1042 27.0321 47.1042 26.8152 47.1329C26.4245 47.1872 26.048 47.3164 25.7066 47.5133C25.4247 47.6754 25.1665 47.8754 24.9395 48.1077C24.7728 48.2899 24.5959 48.4627 24.4097 48.6251C24.2895 48.7276 24.1514 48.8073 24.0023 48.8601C23.9529 48.8781 23.9014 48.8899 23.8491 48.8951Z" fill="#FAFAFA"/>
<path d="M22.152 47.3873C22.0874 47.3278 22.0078 47.2867 21.9216 47.2685C21.8193 47.2511 21.7148 47.2511 21.6125 47.2685C21.4916 47.2867 21.3553 47.3202 21.1994 47.3412C21.0266 47.3639 20.851 47.3482 20.6851 47.295C20.4971 47.2309 20.3231 47.1317 20.1723 47.0027C20.0069 46.8607 19.8622 46.6964 19.7423 46.5147C19.619 46.3181 19.5141 46.1107 19.429 45.8951C19.2808 45.4784 19.1091 45.0703 18.9147 44.6728C18.7474 44.355 18.4969 44.0883 18.1897 43.9008C18.0716 43.8307 17.9445 43.7771 17.8118 43.7413C17.7106 43.717 17.6067 43.7062 17.5027 43.7091C17.3312 43.7189 17.2413 43.7553 17.2385 43.7469C17.2357 43.7385 17.2596 43.7357 17.3031 43.7217C17.3671 43.6998 17.4337 43.6861 17.5013 43.6812C17.608 43.6732 17.7154 43.6802 17.8202 43.7022C17.9589 43.7345 18.0924 43.7863 18.2164 43.856C18.5364 44.0434 18.7984 44.3148 18.9738 44.6406C19.174 45.038 19.3486 45.4476 19.4964 45.8671C19.5801 46.0786 19.6826 46.2822 19.8027 46.4755C19.9181 46.6519 20.0571 46.8119 20.2158 46.951C20.3597 47.0758 20.5254 47.173 20.7048 47.2377C20.862 47.2903 21.0288 47.3084 21.1938 47.2909C21.4959 47.2489 21.7558 47.1874 21.9272 47.2363C21.9943 47.2519 22.0565 47.2836 22.1085 47.3286C22.1259 47.3459 22.1406 47.3657 22.152 47.3873Z" fill="#FAFAFA"/>
<path d="M23.4838 43.2658C23.4838 43.2658 23.4697 43.2756 23.4374 43.2868C23.3919 43.3045 23.3449 43.3181 23.2969 43.3274C23.1166 43.3553 22.9322 43.3405 22.7588 43.284C22.5025 43.1997 22.2673 43.0619 22.0689 42.8798C21.8344 42.6539 21.6222 42.4062 21.4352 42.14C21.2499 41.8785 21.0349 41.6392 20.7945 41.4267C20.5935 41.2615 20.3577 41.1434 20.1046 41.0813C19.9333 41.0399 19.7546 41.0399 19.5833 41.0813C19.4639 41.112 19.4021 41.1484 19.3993 41.1414C19.3964 41.1344 19.4119 41.1288 19.4414 41.1134C19.4861 41.0887 19.5332 41.0686 19.5819 41.0533C19.7564 41.0003 19.9417 40.9926 20.12 41.0309C20.3846 41.0876 20.632 41.2055 20.8423 41.375C21.09 41.5877 21.3104 41.8301 21.4984 42.0966C21.6834 42.359 21.8912 42.6047 22.1195 42.8309C22.3098 43.0087 22.5345 43.1463 22.7798 43.2351C22.9458 43.294 23.1229 43.3155 23.2983 43.298C23.4163 43.284 23.4824 43.2574 23.4838 43.2658Z" fill="#FAFAFA"/>
<path d="M30.0903 22.9322C28.459 19.2651 23.6621 21.4441 23.6621 21.4441C21.3999 22.2706 21.0796 24.8006 21.6022 26.5306C22.1825 28.4495 22.9666 30.7697 23.7098 32.0871C25.2076 34.7346 27.5035 34.2927 27.5035 34.2927L28.2735 36.1779C28.4334 36.5694 28.6696 36.9254 28.9686 37.2255C29.2675 37.5256 29.6233 37.7637 30.0152 37.9261C30.4071 38.0885 30.8275 38.172 31.2521 38.1718C31.6766 38.1716 32.0969 38.0876 32.4887 37.9247C33.258 37.6038 33.8719 36.9978 34.2006 36.2347C34.5294 35.4717 34.5473 34.6113 34.2507 33.8353L30.0903 22.9322Z" fill="#FFBE9D"/>
<path d="M22.9331 28.4061C22.9672 28.5004 23.0369 28.5777 23.1275 28.6216C23.218 28.6655 23.3222 28.6725 23.4178 28.641C23.4654 28.6276 23.5098 28.6048 23.5483 28.574C23.5869 28.5433 23.6189 28.5051 23.6425 28.4619C23.6661 28.4186 23.6807 28.3711 23.6855 28.3221C23.6904 28.2732 23.6854 28.2237 23.6708 28.1767C23.6366 28.0824 23.5669 28.0051 23.4764 27.9612C23.3858 27.9173 23.2816 27.9103 23.186 27.9418C23.1385 27.9552 23.0941 27.978 23.0555 28.0088C23.0169 28.0395 22.9849 28.0777 22.9613 28.1209C22.9378 28.1642 22.9231 28.2117 22.9183 28.2607C22.9134 28.3096 22.9185 28.3591 22.9331 28.4061Z" fill="#1C1C1C"/>
<path d="M22.5956 27.9223C22.6588 27.9517 22.8569 27.6426 23.2476 27.5027C23.6382 27.3629 23.9965 27.4482 24.0218 27.3852C24.0344 27.3559 23.9571 27.2887 23.7984 27.2454C23.5861 27.1913 23.3623 27.204 23.1576 27.2817C22.9546 27.3556 22.7805 27.4918 22.6602 27.6705C22.5731 27.809 22.5731 27.9083 22.5956 27.9223Z" fill="#1C1C1C"/>
<path d="M26.5849 27.2412C26.619 27.3355 26.6888 27.4128 26.7793 27.4567C26.8699 27.5006 26.9741 27.5076 27.0697 27.4761C27.1172 27.4627 27.1616 27.4399 27.2002 27.4091C27.2388 27.3784 27.2708 27.3402 27.2943 27.297C27.3179 27.2537 27.3325 27.2062 27.3374 27.1572C27.3423 27.1083 27.3372 27.0588 27.3226 27.0118C27.2885 26.9175 27.2188 26.8402 27.1282 26.7963C27.0377 26.7524 26.9335 26.7454 26.8379 26.7769C26.7903 26.7903 26.7459 26.8131 26.7074 26.8439C26.6688 26.8746 26.6368 26.9128 26.6132 26.956C26.5896 26.9993 26.575 27.0468 26.5702 27.0958C26.5653 27.1447 26.5703 27.1942 26.5849 27.2412Z" fill="#1C1C1C"/>
<path d="M26.4314 26.5055C26.4946 26.5349 26.6942 26.2258 27.0834 26.086C27.4726 25.9461 27.8323 26.0314 27.8576 25.9685C27.8702 25.9391 27.7929 25.872 27.6342 25.8286C27.4219 25.7745 27.1981 25.7872 26.9934 25.865C26.7903 25.9392 26.6161 26.0759 26.4961 26.2552C26.4103 26.3923 26.4019 26.4916 26.4314 26.5055Z" fill="#1C1C1C"/>
<path d="M26.1858 29.918C26.1788 29.8942 25.9217 29.9431 25.51 30.0382C25.406 30.0648 25.3049 30.0788 25.2627 30.0173C25.2163 29.9183 25.2011 29.8076 25.2192 29.6998C25.2192 29.4201 25.2276 29.1404 25.2332 28.8355C25.2416 27.6089 25.2079 26.616 25.1587 26.616C25.1096 26.616 25.0618 27.6103 25.0534 28.8369V29.6998C25.0359 29.8427 25.0692 29.9871 25.1475 30.1082C25.175 30.1378 25.2089 30.1608 25.2466 30.1756C25.2843 30.1903 25.3249 30.1964 25.3653 30.1935C25.4262 30.1881 25.4862 30.1749 25.5437 30.1543C25.9456 30.0284 26.1929 29.9403 26.1858 29.918Z" fill="#1C1C1C"/>
<path d="M27.5093 34.2997C28.8478 33.8283 30.0288 32.9966 30.9208 31.897C30.9208 31.897 30.696 34.178 27.7692 34.9598L27.5093 34.2997Z" fill="#EB996E"/>
<path d="M26.8503 31.1893C26.7915 31.1448 26.7477 31.0837 26.7245 31.014C26.7014 30.9443 26.7 30.8692 26.7205 30.7987C26.741 30.7281 26.7825 30.6654 26.8395 30.6188C26.8966 30.5722 26.9664 30.5439 27.0399 30.5376C27.0095 30.4721 27.002 30.3984 27.0186 30.3282C27.0351 30.258 27.0748 30.1953 27.1313 30.1502C27.189 30.1071 27.256 30.078 27.3269 30.0651C27.3979 30.0522 27.4709 30.056 27.5401 30.076C27.674 30.116 27.7911 30.1984 27.8736 30.3108C27.956 30.4232 27.9993 30.5593 27.9968 30.6984C27.9874 30.8371 27.9366 30.9699 27.851 31.0797C27.7654 31.1896 27.6489 31.2715 27.5163 31.3152C27.3821 31.3542 27.2398 31.3564 27.1044 31.3214C26.9691 31.2864 26.8458 31.2157 26.7477 31.1166" fill="#EB996E"/>
<path d="M27.4335 29.7627C27.3689 29.7823 27.5249 30.2032 27.2748 30.6368C27.0246 31.0703 26.5554 31.1892 26.5722 31.2494C26.5722 31.2787 26.7043 31.2941 26.8968 31.2298C27.146 31.1416 27.3559 30.9687 27.4897 30.7417C27.6186 30.5237 27.6569 30.2643 27.5965 30.0186C27.5487 29.8354 27.4616 29.7487 27.4335 29.7627Z" fill="#1C1C1C"/>
<path d="M25.837 25.9503C25.9157 26.0426 26.2866 25.8482 26.7644 25.7349C27.2421 25.6216 27.6594 25.6076 27.6847 25.4902C27.6945 25.4356 27.5933 25.3601 27.4037 25.3125C27.158 25.2614 26.904 25.2664 26.6606 25.3272C26.4172 25.388 26.1908 25.5031 25.9986 25.6636C25.8553 25.7923 25.8047 25.9083 25.837 25.9503Z" fill="#1C1C1C"/>
<path d="M22.0605 26.6929C22.1617 26.7558 22.3963 26.5656 22.7181 26.4426C23.0398 26.3195 23.3363 26.2803 23.3658 26.1628C23.3756 26.1069 23.2998 26.0356 23.1494 25.995C22.9515 25.9547 22.746 25.9737 22.5589 26.0496C22.3718 26.1256 22.2116 26.255 22.0984 26.4216C22.0113 26.5572 22.0113 26.6621 22.0605 26.6929Z" fill="#1C1C1C"/>
<path d="M28.0953 27.4928C28.0952 27.5044 28.0927 27.5158 28.0881 27.5264C28.0834 27.5371 28.0768 27.5467 28.0684 27.5547C28.0601 27.5628 28.0502 27.5691 28.0394 27.5734C28.0286 27.5776 28.017 27.5797 28.0054 27.5795C27.9875 27.5795 27.97 27.5742 27.9552 27.5642C27.9403 27.5543 27.9288 27.5401 27.9221 27.5236C27.9154 27.5071 27.9138 27.4889 27.9175 27.4715C27.9212 27.4541 27.93 27.4381 27.9429 27.4257C27.9557 27.4133 27.972 27.405 27.9897 27.4019C28.0073 27.3988 28.0254 27.401 28.0418 27.4082C28.0582 27.4154 28.072 27.4273 28.0816 27.4424C28.0911 27.4574 28.0959 27.475 28.0953 27.4928Z" fill="#1C1C1C"/>
<path d="M37.4672 34.4143C37.4672 34.4073 37.1861 31.4284 34.8734 29.3795C32.5607 27.3306 35.694 26.5306 33.6847 23.8188C33.0229 22.9237 32.2797 22.1098 31.334 21.5252C31.167 21.42 31.0091 21.3012 30.8619 21.1699C30.4699 20.8245 30.1285 20.4231 29.7014 20.121C29.3847 19.8834 29.0041 19.7452 28.6082 19.7238C28.3725 19.6259 28.1258 19.5568 27.8734 19.5182C26.7493 19.349 25.6253 19.7979 24.5785 20.2413C23.5626 20.6678 20.8312 20.5643 21.6953 23.3447C21.8751 22.8818 22.572 22.5056 23.1214 22.9545C23.4788 23.2141 23.7186 23.6036 23.7888 24.0384C23.9111 24.6859 24.1022 25.4034 24.8904 25.5698C25.0831 25.609 25.282 25.6061 25.4735 25.5614C26.1325 25.4215 26.6608 24.4244 27.9155 24.6593C27.9155 24.6593 29.1379 25.0369 29.2096 25.802C29.2812 26.567 28.8555 27.9879 29.6086 28.6648C30.3617 29.3417 30.4882 29.3221 30.4671 29.9067C30.4671 30.0396 30.4671 30.1333 30.4545 30.199C30.3589 31.1249 30.1987 35.1443 34.3184 34.4604L35.7038 34.3765L37.4658 34.4199L37.4672 34.4143Z" fill="#1C1C1C"/>
<path d="M28.8247 20.1253C28.9873 19.2699 29.4159 18.4871 30.0499 17.8876C30.6934 17.31 31.5955 16.9883 32.4385 17.1295C33.2816 17.2708 34.0684 17.9141 34.2651 18.7519C34.4618 19.5896 34.0108 20.57 33.2015 20.8679C32.5875 21.0987 31.9074 20.9476 31.2527 20.9322C30.5979 20.9168 29.8293 21.1266 29.5989 21.7364" fill="#1C1C1C"/>
<path d="M31.4419 20.7336C31.4253 20.6497 31.3871 20.5715 31.3309 20.5068C31.2747 20.442 31.2026 20.393 31.1215 20.3644C30.9583 20.3093 30.7922 20.2626 30.6241 20.2246C30.3834 20.1509 30.1669 20.0142 29.9975 19.8288C29.857 19.6749 29.753 19.4903 29.6153 19.3337C29.5517 19.2508 29.4713 19.1822 29.3793 19.1323C29.2873 19.0825 29.1858 19.0524 29.0814 19.0442C28.9989 19.0449 28.9179 19.0664 28.846 19.1066C28.7741 19.1469 28.7135 19.2046 28.6701 19.2744C28.6266 19.3442 28.6016 19.4238 28.5973 19.5058C28.5931 19.5878 28.6098 19.6696 28.6458 19.7435C29.1741 20.1728 29.708 20.6358 30.3094 20.956C30.5098 21.0872 30.7427 21.1608 30.9824 21.1686C31.2213 21.1532 31.4658 20.9644 31.4419 20.7336Z" fill="url(#paint35_linear_4556_2043)"/>
<path d="M39.069 34.8703C39.0691 34.8314 39.0724 34.7926 39.0789 34.7542C39.0887 34.6787 39.0971 34.5668 39.1056 34.4242C39.1215 34.0172 39.0775 33.6101 38.9749 33.2158C38.826 32.6307 38.547 32.0863 38.1586 31.6228C37.723 31.0984 37.0935 30.6704 36.4247 30.2522C35.7559 29.8341 35.1138 29.4131 34.6459 28.9026C34.421 28.6636 34.2338 28.392 34.0909 28.0971C33.9695 27.8375 33.8953 27.5586 33.8717 27.2733C33.8278 26.8599 33.9179 26.4433 34.1288 26.0845C34.1871 25.9888 34.257 25.9005 34.3368 25.8216C34.364 25.7936 34.3931 25.7674 34.4239 25.7433C34.3237 25.854 34.233 25.9728 34.1527 26.0985C33.9565 26.4557 33.8765 26.8647 33.9237 27.2691C33.9494 27.5472 34.0246 27.8186 34.1457 28.0705C34.2885 28.3582 34.4737 28.6231 34.6951 28.8565C35.1573 29.3586 35.7938 29.7725 36.464 30.1907C37.1343 30.6089 37.7693 31.0424 38.2105 31.5809C38.8694 32.3783 39.1994 33.3951 39.1337 34.4256C39.1258 34.5367 39.1122 34.6473 39.0929 34.757C39.0886 34.7954 39.0806 34.8334 39.069 34.8703Z" fill="#1C1C1C"/>
<path d="M30.1705 20.8582C30.1566 20.894 30.1407 20.929 30.1227 20.963C30.0904 21.0316 30.037 21.1309 29.964 21.2539C29.7579 21.6046 29.5153 21.9327 29.2404 22.2329C28.8317 22.6808 28.3581 23.0655 27.8353 23.3742C27.5282 23.559 27.2023 23.7109 26.863 23.8273C26.4953 23.958 26.1005 23.9941 25.715 23.9322C25.5195 23.8943 25.3342 23.8157 25.1713 23.7014C25.0148 23.5893 24.8785 23.4517 24.768 23.2945C24.5738 22.996 24.3973 22.6864 24.2397 22.3672C24.1615 22.2215 24.0732 22.0813 23.9756 21.9476C23.8819 21.8261 23.7744 21.7158 23.6552 21.619C23.4362 21.4494 23.1847 21.3261 22.9162 21.2567C22.5257 21.1543 22.1137 21.1669 21.7303 21.2931C21.5909 21.3438 21.4552 21.4041 21.3242 21.4735C21.3542 21.4495 21.3862 21.428 21.4198 21.4092C21.4588 21.383 21.5002 21.3605 21.5434 21.3421C21.6004 21.3124 21.6596 21.2872 21.7204 21.2665C22.0497 21.1506 22.4027 21.1178 22.7478 21.1713C23.0928 21.2248 23.4191 21.3627 23.6974 21.5728C23.8217 21.6718 23.9335 21.7855 24.0304 21.9113C24.1314 22.0443 24.2225 22.1846 24.303 22.3308C24.461 22.6464 24.6369 22.9527 24.8299 23.2483C24.9367 23.3987 25.0678 23.5305 25.2177 23.6385C25.373 23.746 25.5491 23.8203 25.7347 23.8567C26.1075 23.9154 26.4891 23.8803 26.8447 23.7546C27.1798 23.6418 27.5015 23.4931 27.8044 23.3112C28.3249 23.0083 28.7983 22.6314 29.2094 22.1924C29.4854 21.8972 29.7324 21.5764 29.9471 21.2344C30.023 21.1127 30.0792 21.0176 30.1157 20.9547C30.1316 20.9212 30.1499 20.8889 30.1705 20.8582Z" fill="#455A64"/>
<path d="M30.5822 21.1378C30.5978 21.2016 30.6072 21.2667 30.6103 21.3322C30.6173 21.3952 30.6103 21.4721 30.6187 21.563C30.6167 21.6649 30.6092 21.7667 30.5963 21.8679C30.5218 22.4599 30.2779 23.0182 29.8937 23.4762C29.6864 23.7298 29.438 23.9472 29.1589 24.1195C28.9294 24.2543 28.6898 24.3711 28.4423 24.4692C28.2344 24.5573 28.0672 24.63 27.9533 24.6832C27.8964 24.7154 27.8367 24.7425 27.7749 24.7643C27.8262 24.723 27.8817 24.6874 27.9407 24.658C28.0503 24.5965 28.2217 24.5181 28.4212 24.423C28.6635 24.3195 28.8982 24.1994 29.1238 24.0636C29.3946 23.8918 29.6361 23.6779 29.8389 23.4301C30.2117 22.9801 30.4545 22.4377 30.5415 21.8609C30.5729 21.6212 30.5865 21.3795 30.5822 21.1378Z" fill="#455A64"/>
<path d="M35.1824 34.1668C35.1783 34.1278 35.1783 34.0884 35.1824 34.0494C35.1824 33.9711 35.1922 33.8578 35.1824 33.7095C35.1763 33.2944 35.1168 32.8817 35.0053 32.4816C34.9253 32.2068 34.8233 31.9388 34.7004 31.6802C34.5559 31.3838 34.3817 31.1027 34.1805 30.8411C33.9577 30.5543 33.7016 30.2947 33.4176 30.0677C33.1225 29.8313 32.7881 29.6201 32.4734 29.3684C32.3157 29.242 32.1699 29.1015 32.0378 28.9488C31.9109 28.7982 31.805 28.6312 31.7231 28.4523C31.5788 28.1125 31.4879 27.7526 31.4533 27.3852C31.4112 27.037 31.3943 26.7055 31.362 26.3978C31.3357 26.1133 31.2806 25.8322 31.1976 25.5587C31.0886 25.1577 30.8651 24.7967 30.5541 24.5196C30.4325 24.4275 30.3005 24.35 30.1606 24.2888C30.1995 24.2983 30.2376 24.311 30.2745 24.3266C30.3799 24.3712 30.4795 24.4285 30.5709 24.4972C30.8965 24.7706 31.1319 25.1351 31.2468 25.5433C31.335 25.8194 31.3939 26.1039 31.4224 26.3923C31.4575 26.7027 31.4772 27.0328 31.5193 27.3782C31.5558 27.7383 31.6463 28.0909 31.7877 28.4244C31.9586 28.7733 32.2093 29.0775 32.5198 29.3124C32.8303 29.567 33.1633 29.7796 33.4626 30.0187C33.7502 30.2492 34.0096 30.5125 34.2353 30.8033C34.4371 31.0683 34.6118 31.3527 34.7566 31.6522C34.8779 31.9154 34.9785 32.1875 35.0573 32.4662C35.1644 32.8715 35.2168 33.2891 35.2133 33.7081C35.2128 33.8217 35.2058 33.9352 35.1922 34.048C35.1932 34.0878 35.1899 34.1277 35.1824 34.1668Z" fill="#455A64"/>
<path d="M34.1158 18.268C33.9072 18.1438 33.682 18.0497 33.447 17.9883C32.871 17.859 32.2675 17.9405 31.7468 18.2176C31.2339 18.5074 30.8058 18.9253 30.5048 19.4302C30.4109 19.5813 30.3251 19.7372 30.2476 19.8973C30.2229 19.9585 30.1928 20.0175 30.1577 20.0735C30.172 20.0088 30.1937 19.9459 30.2223 19.8861C30.2898 19.7196 30.3696 19.5583 30.4612 19.4036C30.7549 18.88 31.1881 18.4473 31.7131 18.1533C32.2475 17.866 32.8707 17.7887 33.4596 17.9365C33.6356 17.9828 33.8037 18.0549 33.9584 18.1505C33.9999 18.176 34.0398 18.204 34.0779 18.2344C34.1046 18.254 34.1172 18.2666 34.1158 18.268Z" fill="#455A64"/>
<path d="M33.8813 19.9812C33.8742 19.9923 33.7155 19.8749 33.4246 19.7518C33.0481 19.5894 32.6387 19.5166 32.2289 19.5391C31.8192 19.5617 31.4203 19.6791 31.0641 19.8819C30.7901 20.0357 30.6426 20.17 30.6426 20.1616C30.6692 20.1238 30.7014 20.0903 30.7381 20.0623C30.8333 19.9787 30.9358 19.9038 31.0444 19.8385C31.4022 19.6176 31.8097 19.4892 32.23 19.4647C32.6503 19.4403 33.0701 19.5207 33.4513 19.6986C33.5661 19.7521 33.6761 19.8153 33.7801 19.8875C33.8475 19.9448 33.8841 19.977 33.8813 19.9812Z" fill="#455A64"/>
<path d="M24.7455 59.3003L12.3135 58.2556L23.0088 55.1466L34.2606 55.1648L24.7455 59.3003Z" fill="white"/>
<path d="M24.7455 59.3004C24.7455 59.3004 24.8045 59.271 24.9183 59.2207L25.4227 58.9955L27.3449 58.1563L34.2494 55.1383L34.2606 55.197L23.0088 55.1844H23.0187L22.0674 55.4641L12.3163 58.2864V58.2235L21.3087 58.9913L23.849 59.2151L24.5207 59.2752L24.6935 59.2934L24.7525 59.3004H24.6949L24.5221 59.2892L23.8519 59.2374L21.3087 59.0305L12.3163 58.2878L12.1406 58.2738L12.3092 58.2249L22.0534 55.3886L23.0046 55.1089H23.0144L34.2662 55.1327H34.4137L34.2732 55.19L27.3505 58.1857L25.4241 59.0151L24.9169 59.2304L24.7455 59.3004Z" fill="#1C1C1C"/>
<path d="M12.3135 58.2556L0.353516 57.3773L11.7584 55.2291H22.569L12.3135 58.2556Z" fill="#E0E0E0"/>
<path d="M12.3161 58.2556C12.3161 58.2556 12.3793 58.2332 12.5029 58.1954L13.0481 58.029L15.1262 57.408L22.5646 55.1997L22.5744 55.2598H11.7639L10.7368 55.4528L0.358929 57.408V57.3451L9.01274 57.994L11.4505 58.1814L12.0941 58.2346L12.2598 58.2486L12.3161 58.2556H12.2598L12.0955 58.2458L11.4519 58.2038L9.01414 58.0332L0.353309 57.4108L0.107422 57.3926L0.350498 57.3465L10.7269 55.3885L11.754 55.1941H22.5646H22.7796L22.573 55.2542L15.1262 57.4402L13.0481 58.0444L12.5001 58.201C12.3765 58.2402 12.3161 58.2556 12.3161 58.2556Z" fill="#1C1C1C"/>
<path d="M12.3165 58.2556C12.3165 58.2556 12.0355 55.6696 9.88014 55.878C7.72477 56.0864 4.86124 57.5311 2.51057 57.5311L-0.0185547 57.3353L5.36566 56.2318C5.36566 56.2318 18.7307 53.4221 18.7307 53.5103C18.7307 53.5984 23.2269 52.5215 23.0639 55.1731L12.3165 58.2556Z" fill="white"/>
<path d="M12.3163 58.2556C12.3163 58.2556 12.3838 58.2333 12.5144 58.1955L13.0891 58.0277L15.267 57.3955L23.0581 55.148L23.037 55.176C23.0552 54.9342 23.0227 54.6913 22.9414 54.4627C22.853 54.2318 22.7005 54.0305 22.5016 53.8823C22.0956 53.5802 21.5659 53.4698 21.0432 53.425C20.5024 53.3892 19.9594 53.4056 19.4217 53.474L19.0086 53.5271C18.9384 53.5355 18.8681 53.5453 18.7979 53.5523C18.7778 53.5544 18.7576 53.5544 18.7375 53.5523H18.7248C18.7153 53.5485 18.7074 53.5416 18.7023 53.5327C18.6925 53.5117 18.7023 53.5159 18.7023 53.5327C18.7122 53.5537 18.7206 53.5411 18.7206 53.5439H18.6925L18.5899 53.5593C18.3089 53.604 18.0279 53.6586 17.7469 53.7131C15.4988 54.1551 13.12 54.6515 10.6527 55.162L5.08443 56.3228L-0.0117468 57.3759V57.3116L2.51737 57.5088C3.33217 57.4819 4.14075 57.3575 4.92566 57.1382C5.68018 56.9452 6.38552 56.7186 7.05012 56.5228C7.71472 56.327 8.33997 56.1424 8.9287 56.0165C9.22236 55.9536 9.50618 55.9047 9.78017 55.8767C10.0424 55.8398 10.3091 55.8484 10.5684 55.9019C11.0075 56.0004 11.3969 56.2513 11.6672 56.6095C11.8656 56.8699 12.0207 57.1603 12.1266 57.4696C12.1943 57.6597 12.2469 57.8547 12.284 58.0528C12.2977 58.1208 12.3076 58.1894 12.3135 58.2584C12.3135 58.2584 12.3135 58.2403 12.3037 58.2067C12.2938 58.1731 12.2896 58.1214 12.2742 58.0556C12.2342 57.8588 12.1792 57.6652 12.1098 57.4766C12.0009 57.1708 11.8445 56.8838 11.6461 56.6263C11.3773 56.2756 10.9926 56.0309 10.56 55.9354C10.3043 55.8859 10.0422 55.8793 9.78438 55.9158C9.51321 55.948 9.22236 55.997 8.94134 56.0557C8.35543 56.183 7.73298 56.3648 7.06839 56.5676C6.40379 56.7704 5.69985 56.9941 4.94393 57.1899C4.15128 57.4115 3.33463 57.5369 2.51175 57.5633L-0.0201768 57.3759L-0.253418 57.3592L-0.0243924 57.3116L5.076 56.2571L10.6457 55.0935C13.113 54.583 15.4932 54.0879 17.7399 53.6474C18.0209 53.5942 18.3019 53.5397 18.5829 53.4935C18.8639 53.4865 19.1365 53.4306 19.4133 53.404C19.9556 53.3354 20.5034 53.3194 21.0488 53.3565C21.5785 53.4026 22.1181 53.5145 22.5396 53.8292C22.7464 53.9854 22.9042 54.1968 22.9948 54.439C23.0784 54.6752 23.1114 54.9263 23.0918 55.176V55.1984H23.0707L15.2501 57.4207L13.075 58.0347L12.5046 58.1955L12.3163 58.2556Z" fill="#1C1C1C"/>
<path d="M24.4828 58.4359C24.2565 58.4359 16.2617 57.8108 16.2617 57.8108L24.4828 58.4359Z" fill="white"/>
<path d="M16.2617 57.8109C16.2898 57.8082 16.318 57.8082 16.346 57.8109L16.5863 57.8221L17.4673 57.8766L20.3729 58.0878L23.2758 58.3186L24.1568 58.3969L24.3957 58.4221C24.4242 58.4236 24.4525 58.4283 24.48 58.436C24.452 58.4394 24.4237 58.4394 24.3957 58.436L24.1568 58.4235L23.2758 58.3689L20.3673 58.1591L17.4645 57.9354L16.5835 57.8571L16.3446 57.8319C16.3161 57.8291 16.2881 57.8221 16.2617 57.8109Z" fill="#1C1C1C"/>
<path d="M25.8051 57.8947C25.5803 57.8947 17.5854 57.271 17.5854 57.271L25.8051 57.8947Z" fill="white"/>
<path d="M17.5825 57.271C17.6105 57.2676 17.6388 57.2676 17.6668 57.271L17.9057 57.2822L18.7881 57.3381L21.6937 57.5479L24.5994 57.7801L25.479 57.8584L25.7193 57.8836C25.7472 57.8851 25.775 57.8893 25.8022 57.8961C25.7746 57.8995 25.7468 57.8995 25.7193 57.8961L25.479 57.885L24.598 57.829L21.6909 57.6192L18.7796 57.3885L17.9001 57.3101L17.6612 57.285C17.6345 57.2832 17.6081 57.2785 17.5825 57.271Z" fill="#1C1C1C"/>
<path d="M27.8987 57.271C27.6725 57.271 19.2983 56.7731 19.2983 56.7731L27.8987 57.271Z" fill="white"/>
<path d="M19.2983 56.7731C19.3273 56.7706 19.3565 56.7706 19.3855 56.7731L19.637 56.7801L20.5587 56.822L23.5992 56.9871L26.6398 57.1731L27.5601 57.2388L27.8116 57.2598C27.8411 57.2606 27.8703 57.2648 27.8987 57.2724C27.8698 57.2754 27.8406 57.2754 27.8116 57.2724L27.5601 57.264L26.6384 57.222L23.5964 57.057L20.5559 56.871L19.6356 56.8053L19.3855 56.7843C19.3561 56.7841 19.3268 56.7803 19.2983 56.7731Z" fill="#1C1C1C"/>
<path d="M29.6998 56.5885C29.475 56.5885 21.0137 56.2766 21.0137 56.2766L29.6998 56.5885Z" fill="white"/>
<path d="M21.0137 56.2766C21.0431 56.273 21.0728 56.273 21.1022 56.2766H21.3551L22.2867 56.299L25.3567 56.3983L28.4282 56.52L29.3598 56.5647L29.6127 56.5801C29.642 56.5808 29.6712 56.5846 29.6998 56.5913C29.6709 56.595 29.6416 56.595 29.6127 56.5913H29.3598L28.4282 56.5703L25.3553 56.4696L22.2923 56.3479L21.3607 56.3032L21.1078 56.2864C21.0762 56.286 21.0447 56.2827 21.0137 56.2766Z" fill="#1C1C1C"/>
<path d="M31.3069 55.8137L22.729 55.7787L31.3069 55.8137Z" fill="white"/>
<path d="M22.729 55.7788C22.729 55.7592 24.6497 55.7508 27.0173 55.7592C29.3848 55.7676 31.3069 55.7928 31.3069 55.8138C31.3069 55.8347 29.3862 55.8417 27.0173 55.8319C24.6483 55.8221 22.729 55.7984 22.729 55.7788Z" fill="#1C1C1C"/>
<path d="M10.3169 55.2347C10.3704 55.2116 10.4265 55.1951 10.4841 55.1858C10.6406 55.1513 10.8002 55.1325 10.9604 55.1298C11.4938 55.1179 12.0188 55.2637 12.469 55.5487C12.9192 55.8337 13.2743 56.2452 13.4895 56.7312C13.5558 56.8762 13.6071 57.0276 13.6427 57.1829C13.6587 57.2394 13.6677 57.2977 13.6694 57.3563C13.606 57.1512 13.5304 56.9499 13.4432 56.7536C13.221 56.2838 12.8692 55.8866 12.4289 55.6083C11.9886 55.33 11.4778 55.182 10.9562 55.1816C10.7422 55.1868 10.5288 55.2045 10.3169 55.2347Z" fill="#1C1C1C"/>
<path d="M11.6309 54.8893C11.6845 54.8651 11.7412 54.8481 11.7995 54.839C11.9555 54.8049 12.1146 54.7866 12.2744 54.7844C12.8079 54.7721 13.333 54.9177 13.7832 55.2028C14.2335 55.4879 14.5886 55.8996 14.8035 56.3858C14.869 56.531 14.9198 56.6823 14.9552 56.8375C14.9713 56.894 14.9803 56.9522 14.9819 57.0109C14.9187 56.8052 14.8432 56.6035 14.7557 56.4067C14.5333 55.9376 14.1816 55.5409 13.7416 55.2629C13.3016 54.9848 12.7914 54.8369 12.2702 54.8362C12.0562 54.8405 11.8426 54.8582 11.6309 54.8893Z" fill="#1C1C1C"/>
<path d="M12.9907 54.6473C13.044 54.6242 13.0996 54.6068 13.1565 54.5955C13.3098 54.5588 13.4658 54.534 13.623 54.5214C13.8576 54.5006 14.0939 54.5114 14.3255 54.5536C14.6111 54.606 14.8833 54.7144 15.1264 54.8724C15.5665 55.1601 15.9139 55.568 16.1268 56.0472C16.192 56.1905 16.2424 56.34 16.2772 56.4934C16.2932 56.5489 16.3017 56.6063 16.3025 56.664C16.2408 56.461 16.1667 56.2621 16.0805 56.0682C15.8586 55.6072 15.5153 55.2148 15.0871 54.9326C14.6503 54.6627 14.1383 54.5387 13.6258 54.5787C13.2324 54.5941 12.9935 54.6613 12.9907 54.6473Z" fill="#1C1C1C"/>
<path d="M14.4434 54.3495C14.4941 54.3261 14.5473 54.3087 14.6021 54.2977C14.7497 54.2583 14.9 54.2298 15.0518 54.2124C15.2781 54.1838 15.5076 54.1909 15.7318 54.2334C16.0075 54.2894 16.2684 54.4023 16.4976 54.5648C16.9163 54.8545 17.2456 55.2545 17.4488 55.7201C17.5091 55.8594 17.5562 56.0041 17.5893 56.1522C17.6046 56.2064 17.6127 56.2624 17.6132 56.3186C17.5528 56.1223 17.4815 55.9295 17.3996 55.741C17.1887 55.2918 16.8626 54.9059 16.454 54.6222C16.2332 54.4652 15.9828 54.3543 15.7178 54.2963C15.4997 54.2519 15.2761 54.2401 15.0546 54.2614C14.6766 54.2991 14.4462 54.3634 14.4434 54.3495Z" fill="#1C1C1C"/>
<path d="M15.937 54.1173C15.985 54.0929 16.036 54.075 16.0888 54.0641C16.1871 54.0348 16.3304 53.9942 16.5103 53.9551C16.7238 53.904 16.9454 53.8955 17.1622 53.9299C17.4259 53.9884 17.6728 54.1055 17.8844 54.2725C18.2763 54.5619 18.583 54.9507 18.7724 55.3984C18.8294 55.534 18.8741 55.6744 18.9059 55.8179C18.9194 55.8696 18.927 55.9226 18.9284 55.976C18.9143 55.976 18.8764 55.7536 18.7247 55.4166C18.526 54.9865 18.2221 54.6128 17.8409 54.3299C17.6377 54.1693 17.4018 54.0548 17.1496 53.9942C16.9405 53.9584 16.7266 53.9618 16.5187 54.004C16.1618 54.0725 15.9398 54.1299 15.937 54.1173Z" fill="#1C1C1C"/>
<path d="M15.2529 50.1776C15.6323 50.2433 16.0187 50.144 16.4023 50.1272C16.7859 50.1104 17.2242 50.2055 17.4224 50.5342C17.4891 50.6626 17.524 50.805 17.524 50.9496C17.524 51.0941 17.4891 51.2366 17.4224 51.3649C17.2868 51.6206 17.1103 51.8526 16.8997 52.0516" fill="#FFBE9D"/>
<path d="M17.948 53.117L11.9862 45.5161C11.9399 45.4571 11.8542 45.4466 11.7949 45.4927L11.3098 45.8696C11.2505 45.9157 11.2399 46.001 11.2863 46.06L17.2481 53.661C17.2944 53.72 17.3801 53.7305 17.4394 53.6844L17.9245 53.3074C17.9838 53.2613 17.9944 53.1761 17.948 53.117Z" fill="#1C1C1C"/>
<path d="M11.8495 45.6907L11.3956 45.112C11.375 45.0858 11.3371 45.0811 11.3108 45.1016L11.0926 45.2711C11.0663 45.2916 11.0616 45.3294 11.0822 45.3555L11.5361 45.9343C11.5566 45.9605 11.5946 45.9651 11.6209 45.9447L11.8391 45.7751C11.8654 45.7547 11.8701 45.7169 11.8495 45.6907Z" fill="#1C1C1C"/>
<path d="M17.1133 53.4781L18.0926 54.2278L18.1924 54.1495L17.9057 53.1173L17.1133 53.4781Z" fill="#1C1C1C"/>
<path d="M13.3152 49.0377C13.3125 49.0376 13.3098 49.0369 13.3074 49.0357C13.305 49.0345 13.3029 49.0328 13.3011 49.0307L11.4141 46.6238C11.1837 46.3301 11.1991 45.9329 11.4492 45.7371L11.5406 45.6672C11.5421 45.6656 11.544 45.6644 11.546 45.6635C11.5481 45.6627 11.5503 45.6622 11.5525 45.6622C11.5547 45.6622 11.5569 45.6627 11.559 45.6635C11.561 45.6644 11.5629 45.6656 11.5645 45.6672C11.5662 45.6687 11.5677 45.6707 11.5687 45.6728C11.5697 45.675 11.5702 45.6774 11.5702 45.6798C11.5702 45.6821 11.5697 45.6845 11.5687 45.6867C11.5677 45.6888 11.5662 45.6908 11.5645 45.6923L11.4745 45.7623C11.2385 45.9455 11.2258 46.3217 11.4436 46.6014L13.332 49.0083C13.335 49.0119 13.3366 49.0163 13.3366 49.0209C13.3366 49.0255 13.335 49.03 13.332 49.0335C13.33 49.0358 13.3273 49.0374 13.3242 49.0382C13.3212 49.0389 13.3181 49.0388 13.3152 49.0377Z" fill="#1C1C1C"/>
<path d="M14.3913 49.4223C14.3913 49.4223 13.7787 48.9035 13.3193 48.9636C12.8598 49.0237 11.3269 50.6726 11.2651 51.6488C11.2032 52.625 10.8056 53.2054 11.5109 53.6068C12.2163 54.0082 13.3193 54.6445 14.0541 54.4306C14.0541 54.4306 15.3524 54.5788 15.4985 54.2334C15.4985 54.2334 16.6366 54.5956 16.7209 53.8208C16.7209 53.8208 17.5373 53.6921 17.4881 53.1956C17.4389 52.6991 14.3913 49.4223 14.3913 49.4223Z" fill="#FFBE9D"/>
<path d="M16.721 53.8151C16.7069 53.8305 15.9973 53.1704 15.136 52.3424C14.2747 51.5145 13.5905 50.8306 13.6017 50.8152C13.6129 50.7998 14.3253 51.4613 15.1866 52.2893C16.0479 53.1172 16.735 53.8011 16.721 53.8151Z" fill="#EB996E"/>
<path d="M15.4989 54.2277C15.4499 54.217 15.4026 54.1996 15.3584 54.176C15.2409 54.1222 15.1264 54.062 15.0156 53.9956C14.6505 53.7754 14.305 53.5246 13.9828 53.246C13.6035 52.9229 13.2803 52.611 13.0443 52.3844L12.7703 52.1131C12.7056 52.0488 12.6719 52.011 12.6761 52.0068C12.7171 52.0315 12.7553 52.0606 12.7899 52.0936C12.8602 52.1509 12.9586 52.2334 13.0794 52.3467C13.3225 52.5635 13.6527 52.8684 14.0306 53.1858C14.3509 53.4616 14.6893 53.7158 15.0437 53.9466C15.3233 54.1257 15.5045 54.2166 15.4989 54.2277Z" fill="#EB996E"/>
<path d="M14.0911 54.3732C13.9697 54.342 13.853 54.295 13.744 54.2333C13.4748 54.0945 13.2153 53.938 12.967 53.7648C12.7167 53.5927 12.4769 53.4059 12.249 53.2054C12.1502 53.1276 12.0614 53.0379 11.9849 52.9382C12.0896 53.0064 12.1892 53.0821 12.2827 53.1648C12.464 53.3047 12.7183 53.5005 13.0078 53.7005C13.2972 53.9005 13.5698 54.0669 13.7679 54.183C13.8793 54.2399 13.9872 54.3034 14.0911 54.3732Z" fill="#EB996E"/>
<path d="M43.1336 49.8782C42.2247 49.4513 41.2019 49.3273 40.2167 49.5244C38.546 49.8488 35.0418 50.681 33.8306 50.8194C32.6194 50.9579 27.5078 52.0963 27.5078 52.0963L28.046 55.1214L44.7396 55.0864C45.0403 53.2627 45.6037 51.0013 43.1336 49.8782Z" fill="#FFBE9D"/>
<path d="M26.9289 55.1215H28.0529L29.8584 51.5873C29.6266 51.5481 24.8002 50.8391 24.5192 50.916L23.3628 55.0054C23.3628 55.0054 26.8179 55.1215 26.9289 55.1215Z" fill="#FFBE9D"/>
<path d="M23.6259 55.0697C23.6259 55.0767 23.6568 55.0823 23.706 55.0878C24.1036 55.1312 25.9429 55.0193 25.9429 55.0193C26.0258 54.783 25.867 54.0739 25.638 54.0319C25.409 53.99 23.4531 54.1215 23.4531 54.1215C23.4531 54.1215 23.1454 54.162 23.0681 54.6809C23.0203 54.9983 23.6259 55.0697 23.6259 55.0697Z" fill="#FFBE9D"/>
<path d="M23.0035 54.0292C23.0035 54.0361 23.0358 54.0431 23.085 54.0473C23.4826 54.0907 25.2207 54.0725 25.2952 53.8613C25.3795 53.625 25.246 53.0334 25.0142 52.9914C24.7823 52.9495 22.8293 53.0809 22.8293 53.0809C22.8293 53.0809 22.5202 53.1215 22.4443 53.6404C22.3993 53.9564 23.0035 54.0292 23.0035 54.0292Z" fill="#FFBE9D"/>
<path d="M22.6957 53.0138C22.7208 53.0253 22.7481 53.0315 22.7758 53.032C23.1748 53.0754 24.9129 53.0558 24.9873 52.8446C25.0716 52.6082 24.9382 52.0167 24.7063 51.9761C24.4745 51.9355 22.52 52.0656 22.52 52.0656C22.52 52.0656 22.2123 52.1062 22.1351 52.625C22.0915 52.9397 22.6957 53.0138 22.6957 53.0138Z" fill="#FFBE9D"/>
<path d="M22.4061 52.0026C22.4061 52.0096 22.4384 52.0152 22.4862 52.0208C22.8853 52.0641 24.6233 52.0445 24.6978 51.8334C24.7821 51.5984 24.6486 51.0054 24.4168 50.9649C24.1849 50.9243 22.2305 51.0544 22.2305 51.0544C22.2305 51.0544 21.9228 51.0949 21.8455 51.6138C21.802 51.9285 22.4061 52.0026 22.4061 52.0026Z" fill="#FFBE9D"/>
<path d="M25.1308 54.0194C25.1308 54.0487 24.7486 54.0837 24.2878 54.0977C23.8269 54.1117 23.4447 54.0977 23.4518 54.0669C23.4588 54.0362 23.8325 54.0026 24.2948 53.9886C24.7571 53.9746 25.1322 53.9928 25.1308 54.0194Z" fill="#EB996E"/>
<path d="M25.1392 53.0026C25.1392 53.0319 24.6024 53.0739 23.9364 53.0949C23.2704 53.1159 22.7309 53.1075 22.7295 53.0781C22.7281 53.0487 23.2676 53.0068 23.9336 52.9858C24.5996 52.9648 25.1392 52.9718 25.1392 53.0026Z" fill="#EB996E"/>
<path d="M25.0576 51.9649C25.0576 51.9956 24.5195 52.0362 23.8549 52.0572C23.1903 52.0781 22.6479 52.0711 22.6479 52.0418C22.6479 52.0124 23.1847 51.9705 23.8507 51.9495C24.5167 51.9285 25.0562 51.9355 25.0576 51.9649Z" fill="#EB996E"/>
<path d="M27.8466 51.3243C27.8466 51.3243 24.5658 49.8726 24.3606 50.0824C24.1555 50.2922 23.8394 50.9663 23.8394 50.9663L27.8466 51.3243Z" fill="#FFBE9D"/>
</g>
<defs>
<linearGradient id="paint0_linear_4556_2043" x1="49.52" y1="7.5481" x2="49.52" y2="22.6162" gradientUnits="userSpaceOnUse">
<stop stop-color="#4FAE3F"/>
<stop offset="1" stop-color="#1E9C08"/>
</linearGradient>
<linearGradient id="paint1_linear_4556_2043" x1="45.5724" y1="10.2278" x2="45.5724" y2="10.3173" gradientUnits="userSpaceOnUse">
<stop stop-color="#4FAE3F"/>
<stop offset="1" stop-color="#1E9C08"/>
</linearGradient>
<linearGradient id="paint2_linear_4556_2043" x1="49.2459" y1="11.3522" x2="49.2459" y2="11.4417" gradientUnits="userSpaceOnUse">
<stop stop-color="#4FAE3F"/>
<stop offset="1" stop-color="#1E9C08"/>
</linearGradient>
<linearGradient id="paint3_linear_4556_2043" x1="43.9786" y1="13.3032" x2="43.9786" y2="14.0081" gradientUnits="userSpaceOnUse">
<stop stop-color="#4FAE3F"/>
<stop offset="1" stop-color="#1E9C08"/>
</linearGradient>
<linearGradient id="paint4_linear_4556_2043" x1="45.7222" y1="13.3032" x2="45.7222" y2="14.0081" gradientUnits="userSpaceOnUse">
<stop stop-color="#4FAE3F"/>
<stop offset="1" stop-color="#1E9C08"/>
</linearGradient>
<linearGradient id="paint5_linear_4556_2043" x1="47.4996" y1="13.271" x2="47.4996" y2="13.9759" gradientUnits="userSpaceOnUse">
<stop stop-color="#4FAE3F"/>
<stop offset="1" stop-color="#1E9C08"/>
</linearGradient>
<linearGradient id="paint6_linear_4556_2043" x1="49.2125" y1="13.3032" x2="49.2125" y2="14.0081" gradientUnits="userSpaceOnUse">
<stop stop-color="#4FAE3F"/>
<stop offset="1" stop-color="#1E9C08"/>
</linearGradient>
<linearGradient id="paint7_linear_4556_2043" x1="50.9576" y1="13.3032" x2="50.9576" y2="14.0081" gradientUnits="userSpaceOnUse">
<stop stop-color="#4FAE3F"/>
<stop offset="1" stop-color="#1E9C08"/>
</linearGradient>
<linearGradient id="paint8_linear_4556_2043" x1="52.7027" y1="13.3032" x2="52.7027" y2="14.0081" gradientUnits="userSpaceOnUse">
<stop stop-color="#4FAE3F"/>
<stop offset="1" stop-color="#1E9C08"/>
</linearGradient>
<linearGradient id="paint9_linear_4556_2043" x1="45.7222" y1="14.8024" x2="45.7222" y2="15.5072" gradientUnits="userSpaceOnUse">
<stop stop-color="#4FAE3F"/>
<stop offset="1" stop-color="#1E9C08"/>
</linearGradient>
<linearGradient id="paint10_linear_4556_2043" x1="49.2125" y1="14.8024" x2="49.2125" y2="15.5072" gradientUnits="userSpaceOnUse">
<stop stop-color="#4FAE3F"/>
<stop offset="1" stop-color="#1E9C08"/>
</linearGradient>
<linearGradient id="paint11_linear_4556_2043" x1="50.9576" y1="14.8024" x2="50.9576" y2="15.5072" gradientUnits="userSpaceOnUse">
<stop stop-color="#4FAE3F"/>
<stop offset="1" stop-color="#1E9C08"/>
</linearGradient>
<linearGradient id="paint12_linear_4556_2043" x1="52.7349" y1="14.7703" x2="52.7349" y2="15.4765" gradientUnits="userSpaceOnUse">
<stop stop-color="#4FAE3F"/>
<stop offset="1" stop-color="#1E9C08"/>
</linearGradient>
<linearGradient id="paint13_linear_4556_2043" x1="54.4473" y1="14.8024" x2="54.4473" y2="15.5072" gradientUnits="userSpaceOnUse">
<stop stop-color="#4FAE3F"/>
<stop offset="1" stop-color="#1E9C08"/>
</linearGradient>
<linearGradient id="paint14_linear_4556_2043" x1="43.9786" y1="16.3031" x2="43.9786" y2="17.008" gradientUnits="userSpaceOnUse">
<stop stop-color="#4FAE3F"/>
<stop offset="1" stop-color="#1E9C08"/>
</linearGradient>
<linearGradient id="paint15_linear_4556_2043" x1="45.7545" y1="16.2709" x2="45.7545" y2="16.9757" gradientUnits="userSpaceOnUse">
<stop stop-color="#4FAE3F"/>
<stop offset="1" stop-color="#1E9C08"/>
</linearGradient>
<linearGradient id="paint16_linear_4556_2043" x1="47.4669" y1="16.3031" x2="47.4669" y2="17.008" gradientUnits="userSpaceOnUse">
<stop stop-color="#4FAE3F"/>
<stop offset="1" stop-color="#1E9C08"/>
</linearGradient>
<linearGradient id="paint17_linear_4556_2043" x1="50.9576" y1="16.3031" x2="50.9576" y2="17.008" gradientUnits="userSpaceOnUse">
<stop stop-color="#4FAE3F"/>
<stop offset="1" stop-color="#1E9C08"/>
</linearGradient>
<linearGradient id="paint18_linear_4556_2043" x1="52.7027" y1="16.3031" x2="52.7027" y2="17.008" gradientUnits="userSpaceOnUse">
<stop stop-color="#4FAE3F"/>
<stop offset="1" stop-color="#1E9C08"/>
</linearGradient>
<linearGradient id="paint19_linear_4556_2043" x1="54.4473" y1="16.3031" x2="54.4473" y2="17.008" gradientUnits="userSpaceOnUse">
<stop stop-color="#4FAE3F"/>
<stop offset="1" stop-color="#1E9C08"/>
</linearGradient>
<linearGradient id="paint20_linear_4556_2043" x1="43.9786" y1="17.8024" x2="43.9786" y2="18.5086" gradientUnits="userSpaceOnUse">
<stop stop-color="#4FAE3F"/>
<stop offset="1" stop-color="#1E9C08"/>
</linearGradient>
<linearGradient id="paint21_linear_4556_2043" x1="45.7222" y1="17.8024" x2="45.7222" y2="18.5086" gradientUnits="userSpaceOnUse">
<stop stop-color="#4FAE3F"/>
<stop offset="1" stop-color="#1E9C08"/>
</linearGradient>
<linearGradient id="paint22_linear_4556_2043" x1="47.4669" y1="17.8024" x2="47.4669" y2="18.5086" gradientUnits="userSpaceOnUse">
<stop stop-color="#4FAE3F"/>
<stop offset="1" stop-color="#1E9C08"/>
</linearGradient>
<linearGradient id="paint23_linear_4556_2043" x1="49.2447" y1="17.7701" x2="49.2447" y2="18.475" gradientUnits="userSpaceOnUse">
<stop stop-color="#4FAE3F"/>
<stop offset="1" stop-color="#1E9C08"/>
</linearGradient>
<linearGradient id="paint24_linear_4556_2043" x1="50.9576" y1="17.8024" x2="50.9576" y2="18.5086" gradientUnits="userSpaceOnUse">
<stop stop-color="#4FAE3F"/>
<stop offset="1" stop-color="#1E9C08"/>
</linearGradient>
<linearGradient id="paint25_linear_4556_2043" x1="54.4473" y1="17.8024" x2="54.4473" y2="18.5086" gradientUnits="userSpaceOnUse">
<stop stop-color="#4FAE3F"/>
<stop offset="1" stop-color="#1E9C08"/>
</linearGradient>
<linearGradient id="paint26_linear_4556_2043" x1="43.9786" y1="19.303" x2="43.9786" y2="20.0079" gradientUnits="userSpaceOnUse">
<stop stop-color="#4FAE3F"/>
<stop offset="1" stop-color="#1E9C08"/>
</linearGradient>
<linearGradient id="paint27_linear_4556_2043" x1="47.4669" y1="19.303" x2="47.4669" y2="20.0079" gradientUnits="userSpaceOnUse">
<stop stop-color="#4FAE3F"/>
<stop offset="1" stop-color="#1E9C08"/>
</linearGradient>
<linearGradient id="paint28_linear_4556_2043" x1="49.2125" y1="19.303" x2="49.2125" y2="20.0079" gradientUnits="userSpaceOnUse">
<stop stop-color="#4FAE3F"/>
<stop offset="1" stop-color="#1E9C08"/>
</linearGradient>
<linearGradient id="paint29_linear_4556_2043" x1="50.9576" y1="19.303" x2="50.9576" y2="20.0079" gradientUnits="userSpaceOnUse">
<stop stop-color="#4FAE3F"/>
<stop offset="1" stop-color="#1E9C08"/>
</linearGradient>
<linearGradient id="paint30_linear_4556_2043" x1="52.7349" y1="19.2709" x2="52.7349" y2="19.9757" gradientUnits="userSpaceOnUse">
<stop stop-color="#4FAE3F"/>
<stop offset="1" stop-color="#1E9C08"/>
</linearGradient>
<linearGradient id="paint31_linear_4556_2043" x1="6.8803" y1="36.3889" x2="6.8803" y2="53.8417" gradientUnits="userSpaceOnUse">
<stop stop-color="#4FAE3F"/>
<stop offset="1" stop-color="#1E9C08"/>
</linearGradient>
<linearGradient id="paint32_linear_4556_2043" x1="41.3291" y1="34.4143" x2="41.3291" y2="55.0929" gradientUnits="userSpaceOnUse">
<stop stop-color="#FF4142"/>
<stop offset="1" stop-color="#DF2328"/>
</linearGradient>
<linearGradient id="paint33_linear_4556_2043" x1="31.7497" y1="34.1738" x2="31.7497" y2="55.3256" gradientUnits="userSpaceOnUse">
<stop stop-color="#FF4142"/>
<stop offset="1" stop-color="#DF2328"/>
</linearGradient>
<linearGradient id="paint34_linear_4556_2043" x1="17.7431" y1="35.9989" x2="17.7431" y2="54.9508" gradientUnits="userSpaceOnUse">
<stop stop-color="#FF4142"/>
<stop offset="1" stop-color="#DF2328"/>
</linearGradient>
<linearGradient id="paint35_linear_4556_2043" x1="30.0201" y1="19.0442" x2="30.0201" y2="21.1686" gradientUnits="userSpaceOnUse">
<stop stop-color="#FF4142"/>
<stop offset="1" stop-color="#DF2328"/>
</linearGradient>
<clipPath id="clip0_4556_2043">
<rect width="64" height="64" fill="white"/>
</clipPath>
</defs>
</svg>
