<svg width="342" height="16" viewBox="0 0 342 16" fill="none" xmlns="http://www.w3.org/2000/svg">
<path d="M5.34694 9.17964L3.38773 11.2477V14.9483H0.0136108V0.254456H3.38773V7.1116L9.91835 0.254456H13.7279L7.63266 6.78507L14.0544 14.9483H10.136L5.34694 9.17964Z" fill="#272626"/>
<path d="M26.8979 12.2272V14.9483H15.5782V0.254456H26.6803V2.97554H18.8435V6.13202H25.7007V8.74425H18.8435V12.1184H26.8979V12.2272Z" fill="#272626"/>
<path d="M32.5578 3.08443H27.8775V0.363342H40.6122V3.08443H35.932V14.9484H32.5578V3.08443Z" fill="#272626"/>
<path d="M61.9456 0.254456V14.9483H59.1156L51.8231 6.02317V14.9483H48.449V0.254456H51.2789L58.5714 9.17964V0.254456H61.9456Z" fill="#272626"/>
<path d="M68.3673 14.2953C67.1701 13.6423 66.1905 12.7715 65.5374 11.5742C64.8843 10.3769 64.449 9.17966 64.449 7.65585C64.449 6.24089 64.7755 4.93477 65.5374 3.73749C66.1905 2.54022 67.1701 1.66947 68.3673 1.01641C69.5646 0.363345 70.9796 0.0368042 72.5034 0.0368042C74.0272 0.0368042 75.4422 0.363345 76.6394 1.01641C77.8367 1.66947 78.8163 2.54022 79.4694 3.73749C80.1224 4.93477 80.5578 6.13204 80.5578 7.65585C80.5578 9.07082 80.2313 10.3769 79.4694 11.5742C78.8163 12.7715 77.8367 13.6423 76.6394 14.2953C75.4422 14.9484 74.0272 15.2749 72.5034 15.2749C70.9796 15.2749 69.5646 14.9484 68.3673 14.2953ZM74.7891 11.7919C75.4422 11.3565 75.9864 10.8123 76.4217 10.1593C76.8571 9.39735 76.966 8.63545 76.966 7.7647C76.966 6.89395 76.7483 6.02321 76.4217 5.37015C75.9864 4.60824 75.4422 4.06402 74.7891 3.73749C74.136 3.30212 73.2653 3.19328 72.3946 3.19328C71.5238 3.19328 70.7619 3.41096 70 3.73749C69.3469 4.17287 68.8027 4.71709 68.3673 5.37015C67.932 6.13205 67.8231 6.89395 67.8231 7.7647C67.8231 8.63545 68.0408 9.50619 68.3673 10.1593C68.8027 10.9212 69.3469 11.4654 70 11.7919C70.653 12.2273 71.5238 12.3361 72.3946 12.3361C73.3741 12.3361 74.136 12.1184 74.7891 11.7919Z" fill="#272626"/>
<path d="M83.0612 0.254456H86.4354V14.9483H83.0612V0.254456Z" fill="#272626"/>
<path d="M109.293 0.254456V14.9483H106.463L99.17 6.02317V14.9483H95.7959V0.254456H98.6258L105.918 9.17964V0.254456H109.293Z" fill="#272626"/>
<path d="M122.68 7.43817H125.837V13.4246C125.075 14.0776 124.095 14.513 123.116 14.8395C122.027 15.1661 121.048 15.2749 119.959 15.2749C118.435 15.2749 117.02 14.9484 115.823 14.2953C114.626 13.6423 113.646 12.7715 112.993 11.5742C112.34 10.3769 111.905 9.07082 111.905 7.65585C111.905 6.24089 112.231 4.93477 112.993 3.73749C113.646 2.54022 114.626 1.66947 115.823 1.01641C117.02 0.363345 118.435 0.0368042 119.959 0.0368042C121.265 0.0368042 122.463 0.254498 123.442 0.689872C124.531 1.12525 125.401 1.7783 126.054 2.54021L123.878 4.4994C122.789 3.41096 121.592 2.86674 120.068 2.86674C119.088 2.86674 118.327 3.08443 117.565 3.41096C116.803 3.84633 116.259 4.39055 115.823 5.04361C115.388 5.80552 115.17 6.56743 115.17 7.54702C115.17 8.41777 115.388 9.28851 115.823 9.94157C116.259 10.7035 116.803 11.2477 117.565 11.5742C118.327 12.0096 119.088 12.1184 120.068 12.1184C121.048 12.1184 121.918 11.9007 122.68 11.4654V7.43817Z" fill="#272626"/>
<path d="M130.626 13.5334C129.429 12.3361 128.884 10.7035 128.884 8.52661V0.363342H132.259V8.41776C132.259 11.03 133.347 12.3361 135.524 12.3361C136.612 12.3361 137.374 12.0096 137.918 11.3565C138.463 10.7035 138.789 9.72388 138.789 8.41776V0.363342H142.163V8.52661C142.163 10.7035 141.619 12.3361 140.422 13.5334C139.224 14.7307 137.592 15.2749 135.524 15.2749C133.347 15.2749 131.714 14.6219 130.626 13.5334Z" fill="#272626"/>
<path d="M148.476 14.2953C147.279 13.6423 146.299 12.7715 145.646 11.5742C144.993 10.3769 144.558 9.17966 144.558 7.65585C144.558 6.24089 144.884 4.93477 145.646 3.73749C146.299 2.54022 147.279 1.66947 148.476 1.01641C149.673 0.363345 151.088 0.0368042 152.612 0.0368042C154.136 0.0368042 155.551 0.363345 156.748 1.01641C157.946 1.66947 158.925 2.54022 159.578 3.73749C160.231 4.93477 160.667 6.13204 160.667 7.65585C160.667 9.07082 160.34 10.3769 159.578 11.5742C158.925 12.7715 157.946 13.6423 156.748 14.2953C155.551 14.9484 154.136 15.2749 152.612 15.2749C151.088 15.2749 149.673 14.9484 148.476 14.2953ZM154.898 11.7919C155.551 11.3565 156.095 10.8123 156.531 10.1593C156.966 9.39735 157.075 8.63545 157.075 7.7647C157.075 6.89395 156.857 6.02321 156.531 5.37015C156.095 4.60824 155.551 4.06402 154.898 3.73749C154.245 3.30212 153.374 3.19328 152.503 3.19328C151.633 3.19328 150.871 3.41096 150.109 3.73749C149.456 4.17287 148.912 4.71709 148.476 5.37015C148.041 6.13205 147.932 6.89395 147.932 7.7647C147.932 8.63545 148.15 9.50619 148.476 10.1593C148.912 10.9212 149.456 11.4654 150.109 11.7919C150.762 12.2273 151.633 12.3361 152.503 12.3361C153.374 12.3361 154.245 12.1184 154.898 11.7919Z" fill="#272626"/>
<path d="M176.667 0.254456V14.9483H173.837L166.544 6.02317V14.9483H163.17V0.254456H166L173.293 9.17964V0.254456H176.667Z" fill="#272626"/>
<path d="M200.177 0.254456L193.864 14.9483H190.49L184.177 0.254456H187.878L192.34 10.7034L196.912 0.254456H200.177Z" fill="#272626"/>
<path d="M204.204 14.2953C203.007 13.6423 202.027 12.7715 201.374 11.5742C200.721 10.3769 200.286 9.17966 200.286 7.65585C200.286 6.24089 200.612 4.93477 201.374 3.73749C202.027 2.54022 203.007 1.66947 204.204 1.01641C205.401 0.363345 206.816 0.0368042 208.34 0.0368042C209.864 0.0368042 211.279 0.363345 212.476 1.01641C213.673 1.66947 214.653 2.54022 215.306 3.73749C215.959 4.93477 216.395 6.13204 216.395 7.65585C216.395 9.07082 216.068 10.3769 215.306 11.5742C214.653 12.7715 213.673 13.6423 212.476 14.2953C211.279 14.9484 209.864 15.2749 208.34 15.2749C206.816 15.2749 205.401 14.9484 204.204 14.2953ZM210.626 11.7919C211.279 11.3565 211.823 10.8123 212.258 10.1593C212.694 9.39735 212.803 8.63545 212.803 7.7647C212.803 6.89395 212.585 6.02321 212.258 5.37015C211.823 4.60824 211.279 4.06402 210.626 3.73749C209.973 3.30212 209.102 3.19328 208.231 3.19328C207.361 3.19328 206.599 3.41096 205.837 3.73749C205.184 4.17287 204.639 4.71709 204.204 5.37015C203.769 6.13205 203.66 6.89395 203.66 7.7647C203.66 8.63545 203.878 9.50619 204.204 10.1593C204.639 10.9212 205.184 11.4654 205.837 11.7919C206.49 12.2273 207.361 12.3361 208.231 12.3361C209.211 12.3361 209.973 12.1184 210.626 11.7919Z" fill="#272626"/>
<path d="M232.286 0.254456V14.9483H229.456L222.163 6.02317V14.9483H218.789V0.254456H221.619L228.912 9.17964V0.254456H232.286Z" fill="#272626"/>
<path d="M243.17 14.7307C242.082 14.4041 241.211 13.9688 240.558 13.5334L241.755 11.03C242.408 11.4654 243.17 11.9007 244.041 12.1184C244.912 12.4449 245.782 12.5538 246.653 12.5538C247.633 12.5538 248.286 12.4449 248.83 12.1184C249.265 11.7919 249.483 11.4654 249.483 11.03C249.483 10.7035 249.374 10.3769 249.048 10.1592C248.721 9.94154 248.395 9.72386 247.959 9.61501C247.524 9.50617 246.98 9.28849 246.218 9.17965C245.129 8.96196 244.15 8.63542 243.497 8.41773C242.735 8.20004 242.19 7.76467 241.646 7.11161C241.102 6.56739 240.884 5.69665 240.884 4.71705C240.884 3.84631 241.102 3.0844 241.537 2.43133C241.973 1.77827 242.735 1.23406 243.605 0.798681C244.585 0.363307 245.673 0.14563 246.98 0.14563C247.959 0.14563 248.83 0.254477 249.701 0.472164C250.571 0.689851 251.333 1.01637 252.095 1.45175L251.007 4.06399C249.701 3.30208 248.286 2.86672 246.98 2.86672C246 2.86672 245.347 2.97555 244.912 3.30209C244.476 3.62862 244.258 4.064 244.258 4.49937C244.258 5.04359 244.476 5.37012 245.02 5.58781C245.565 5.80549 246.326 6.02318 247.415 6.34971C248.503 6.56739 249.483 6.89392 250.136 7.11161C250.898 7.3293 251.442 7.76467 251.986 8.41773C252.531 8.96195 252.748 9.72386 252.748 10.7034C252.748 11.5742 252.531 12.3361 252.095 12.9892C251.66 13.6422 250.898 14.1864 250.027 14.6218C249.048 15.0572 247.959 15.2749 246.653 15.2749C245.456 15.2749 244.258 15.0572 243.17 14.7307Z" fill="#272626"/>
<path d="M255.143 0.254456H258.517V14.9483H255.143V0.254456Z" fill="#272626"/>
<path d="M273.32 12.2272V14.9483H262V0.254456H273.102V2.97554H265.374V6.13202H272.231V8.74425H265.374V12.1184H273.32V12.2272Z" fill="#272626"/>
<path d="M277.673 13.5334C276.476 12.3361 275.932 10.7035 275.932 8.52661V0.363342H279.306V8.41776C279.306 11.03 280.395 12.3361 282.571 12.3361C283.66 12.3361 284.422 12.0096 284.966 11.3565C285.51 10.7035 285.837 9.72388 285.837 8.41776V0.363342H289.211V8.52661C289.211 10.7035 288.667 12.3361 287.469 13.5334C286.272 14.7307 284.639 15.2749 282.571 15.2749C280.503 15.2749 278.871 14.6219 277.673 13.5334Z" fill="#272626"/>
<path d="M301.51 3.08443H296.83V0.363342H309.565V3.08443H304.884V14.9484H301.51V3.08443Z" fill="#272626"/>
<path d="M314.245 14.2953C313.048 13.6423 312.068 12.7715 311.415 11.5742C310.762 10.3769 310.326 9.17966 310.326 7.65585C310.326 6.24089 310.653 4.93477 311.415 3.73749C312.068 2.54022 313.048 1.66947 314.245 1.01641C315.442 0.363345 316.857 0.0368042 318.381 0.0368042C319.905 0.0368042 321.32 0.363345 322.517 1.01641C323.714 1.66947 324.694 2.54022 325.347 3.73749C326 4.93477 326.435 6.13204 326.435 7.65585C326.435 9.07082 326.109 10.3769 325.347 11.5742C324.694 12.7715 323.714 13.6423 322.517 14.2953C321.32 14.9484 319.905 15.2749 318.381 15.2749C316.857 15.2749 315.442 14.9484 314.245 14.2953ZM320.667 11.7919C321.32 11.3565 321.864 10.8123 322.299 10.1593C322.735 9.39735 322.843 8.63545 322.843 7.7647C322.843 6.89395 322.626 6.02321 322.299 5.37015C321.864 4.60824 321.32 4.06402 320.667 3.73749C320.014 3.30212 319.143 3.19328 318.272 3.19328C317.401 3.19328 316.639 3.41096 315.878 3.73749C315.224 4.17287 314.68 4.71709 314.245 5.37015C313.81 6.13205 313.701 6.89395 313.701 7.7647C313.701 8.63545 313.918 9.50619 314.245 10.1593C314.68 10.9212 315.224 11.4654 315.878 11.7919C316.531 12.2273 317.401 12.3361 318.272 12.3361C319.143 12.3361 320.014 12.1184 320.667 11.7919Z" fill="#272626"/>
<path d="M331.878 14.2953C330.68 13.6423 329.701 12.7715 329.048 11.5742C328.395 10.3769 327.959 9.07082 327.959 7.65585C327.959 6.24089 328.286 4.93477 329.048 3.73749C329.701 2.54022 330.68 1.66947 331.878 1.01641C333.075 0.363345 334.49 0.0368042 335.905 0.0368042C337.211 0.0368042 338.299 0.254498 339.388 0.689872C340.367 1.12525 341.238 1.77831 342 2.64906L339.823 4.60823C338.844 3.41095 337.646 2.86674 336.122 2.86674C335.252 2.86674 334.381 3.08443 333.728 3.41096C332.966 3.84633 332.422 4.39055 332.095 5.04361C331.66 5.80552 331.551 6.56742 331.551 7.43817C331.551 8.30892 331.769 9.17966 332.095 9.83272C332.531 10.5946 333.075 11.1388 333.728 11.4654C334.49 11.9007 335.252 12.0096 336.122 12.0096C337.537 12.0096 338.844 11.4654 339.823 10.2681L342 12.2273C341.347 13.098 340.476 13.7511 339.388 14.1865C338.408 14.6218 337.211 14.8395 335.905 14.8395C334.49 15.2749 333.075 14.9484 331.878 14.2953Z" fill="#272626"/>
</svg>
