<svg width="127" height="119" viewBox="0 0 127 119" fill="none" xmlns="http://www.w3.org/2000/svg">
<path d="M62.6999 88.2129C62.2606 87.9932 61.8214 87.8834 61.3821 87.554C61.0526 87.3343 60.6133 86.8951 60.833 86.5656C60.9428 86.346 61.2722 85.9067 61.8213 86.0165C65.9945 86.6754 73.572 86.5656 77.5255 77.3408C77.5255 77.231 77.6353 77.231 77.6353 77.1211C79.5022 72.6186 79.5023 67.7865 77.9648 63.5035C76.5371 59.3304 73.7917 55.7064 70.2774 53.0707C70.0578 52.9609 69.8382 52.7413 69.5087 52.6314C68.74 52.0823 67.8614 51.5332 66.9829 51.2038C62.9195 49.4467 58.5268 48.6779 54.134 49.1172C54.0242 49.1172 53.9144 49.1172 53.6947 49.1172C51.0591 49.4467 48.5332 50.1056 46.1172 50.9841C43.4815 52.1922 42.3833 52.0823 41.6146 51.6431C41.6146 51.5332 41.5048 51.5332 41.5048 51.4234C41.5048 51.3136 41.3949 51.3136 41.3949 51.2038C41.3949 51.094 41.395 50.9841 41.2852 50.9841C41.2852 50.8743 41.2852 50.7645 41.2852 50.6547C41.2852 50.5449 41.2852 50.435 41.2852 50.3252C41.2852 49.9958 41.2852 49.6663 41.2852 49.227C41.2852 49.1172 41.2852 49.0074 41.2852 48.7878C41.2852 48.7878 41.2852 48.7878 41.2852 48.6779C41.2852 48.3485 41.2851 48.019 41.3949 47.5797C41.3949 47.2503 41.395 46.9208 41.5048 46.4815C41.5048 46.1521 41.6146 45.8226 41.6146 45.3834C41.7244 44.7244 41.7244 44.0655 41.8343 43.4066C41.9441 42.6379 42.0539 41.979 42.1637 41.2102C42.2735 40.8808 42.2735 40.5513 42.3833 40.112C42.4932 39.4531 42.603 38.7942 42.7128 38.1353C42.7128 37.9157 42.8226 37.696 42.8226 37.5862C42.8226 37.3666 42.9324 37.1469 42.9324 37.0371C43.0423 36.3782 43.2619 35.6094 43.3717 34.9505C43.4815 34.2916 43.7012 33.5229 43.9208 32.864C44.0306 32.5345 44.1404 32.205 44.1404 31.7658C44.2503 31.4363 44.3601 31.1068 44.3601 30.7774C44.6895 29.789 44.9092 28.6908 45.2386 27.7025C45.5681 26.7141 45.8976 25.7257 46.1172 24.7373C46.3368 24.1882 46.4467 23.5293 46.6663 22.9802C46.8859 22.3213 47.1056 21.5526 47.435 20.8937C47.6546 20.3446 47.8743 19.7955 47.9841 19.2464C47.9841 19.1365 47.9841 19.1365 48.0939 19.0267C48.3136 18.3678 48.5332 17.8187 48.7529 17.2696C49.5216 15.1831 50.2903 13.3161 51.0591 11.559C51.1689 11.3394 51.2787 11.0099 51.3885 10.7903C51.6081 10.351 51.8278 9.8019 52.0474 9.36263C52.1573 9.14299 52.2671 8.92336 52.3769 8.70372C52.5965 8.26444 52.7063 7.93499 52.926 7.60553C52.926 7.49571 52.926 7.49571 53.0358 7.38589C53.2554 6.8368 53.5849 6.2877 53.8045 5.7386C54.3536 4.53059 54.7929 3.5422 55.2322 2.77347C55.4518 2.33419 55.5616 2.00474 55.6715 1.7851C55.6715 1.67528 55.7813 1.56547 55.7813 1.56547C55.7813 1.45565 55.8911 1.34583 55.8911 1.34583C55.8911 1.23601 56.0009 1.236 56.0009 1.12618C56.1108 1.01636 56.1108 0.906553 56.1108 0.796734V0.686908V0.577082C57.209 0.137805 58.3071 -0.0818336 59.4053 0.0279857C59.625 0.0279857 59.9544 0.0279924 60.1741 0.137812C60.5035 0.137812 60.9428 0.247628 61.2722 0.357447C61.4919 0.467266 61.8214 0.467263 62.041 0.577082C81.479 8.04479 101.686 45.8226 114.205 73.1676C121.453 89.2013 126.066 101.611 126.285 102.27C126.285 102.27 126.285 102.27 126.175 102.16C126.175 102.05 126.066 102.05 125.956 101.94C125.956 101.83 125.846 101.83 125.846 101.721C125.736 101.611 125.736 101.501 125.626 101.391C125.626 101.281 125.517 101.281 125.517 101.172C125.407 101.062 125.407 100.952 125.297 100.842C125.297 100.732 125.187 100.732 125.187 100.622C125.077 100.403 124.967 100.293 124.858 100.073C124.748 99.8537 124.638 99.7439 124.528 99.5243C124.418 99.4145 124.309 99.1948 124.199 99.085C124.199 99.085 124.199 98.9752 124.089 98.9752C123.979 98.8654 123.869 98.6457 123.759 98.5359C123.54 98.2064 123.32 97.877 123.101 97.5475C122.881 97.2181 122.661 96.8886 122.332 96.4493C122.002 96.01 121.783 95.6806 121.453 95.2413C121.343 95.0217 121.124 94.802 121.014 94.5824C120.904 94.3628 120.684 94.1431 120.575 93.9235C120.355 93.594 120.135 93.3744 119.916 93.0449C119.806 92.9351 119.696 92.7155 119.586 92.6057C119.037 91.9467 118.488 91.178 117.939 90.4093C117.829 90.1896 117.719 90.0798 117.5 89.8602C117.28 89.5307 117.06 89.3111 116.841 88.9816C116.621 88.6522 116.402 88.4325 116.072 88.1031C115.633 87.6638 115.303 87.1147 114.864 86.6754C114.644 86.4558 114.535 86.2361 114.315 86.1263C114.315 86.1263 114.315 86.1263 114.205 86.0165C114.205 86.0165 114.205 86.0165 114.205 85.9067C113.546 85.1379 112.997 84.479 112.338 83.7103C112.119 83.3808 111.899 83.1612 111.57 82.8317C111.35 82.6121 111.13 82.3925 110.911 82.1728C110.471 81.7335 110.032 81.1844 109.593 80.7452C109.373 80.5255 109.153 80.3059 108.934 80.0863C108.714 79.7568 108.385 79.5372 108.165 79.2077L108.055 79.0979C107.726 78.7684 107.396 78.439 107.067 78.1095C106.737 77.6702 106.298 77.3408 105.969 76.9015C105.969 76.9015 105.969 76.7917 105.859 76.7917C105.639 76.572 105.42 76.3524 105.2 76.1328C105.09 76.0229 104.98 75.9131 104.761 75.6935C104.541 75.4738 104.431 75.364 104.212 75.1444C103.992 74.9248 103.772 74.8149 103.663 74.5953C103.333 74.2658 103.113 74.0462 102.784 73.7167C102.564 73.6069 102.455 73.3873 102.235 73.2775C101.905 72.948 101.576 72.6185 101.246 72.3989C101.137 72.2891 100.917 72.1793 100.807 71.9596C100.697 71.8498 100.697 71.8498 100.588 71.74C100.478 71.6302 100.258 71.5203 100.148 71.4105C100.038 71.3007 100.038 71.3007 99.9287 71.3007C99.8188 71.1909 99.709 71.0811 99.4894 70.9713C99.3796 70.8614 99.2697 70.7516 99.0501 70.6418C98.9403 70.532 98.8305 70.4221 98.7206 70.3123C98.6108 70.2025 98.3912 70.0927 98.2814 69.9829C98.1715 69.8731 98.1715 69.8731 98.0617 69.7632C97.9519 69.7632 97.9519 69.6534 97.8421 69.6534C97.5126 69.4338 97.293 69.2141 96.9635 68.8847C96.6341 68.6651 96.4144 68.4454 96.085 68.2258C95.8653 68.116 95.6457 67.8963 95.4261 67.7865C94.7671 67.3472 94.1082 66.7981 93.5591 66.3588L93.4493 66.249C93.3395 66.1392 93.2297 66.1392 93.1198 66.0294C93.01 65.9196 92.9002 65.9196 92.7904 65.8098C92.7904 65.8098 92.6806 65.8097 92.6806 65.6999C92.5708 65.5901 92.4609 65.5901 92.3511 65.4803C92.2413 65.3705 92.0216 65.2607 91.9118 65.1508C91.9118 65.1508 91.9118 65.1508 91.802 65.1508C90.9235 64.4919 89.9351 64.0526 89.1663 64.0526C88.3976 64.3821 87.8485 65.3705 87.5191 68.2258C87.1896 70.532 86.5307 72.7284 85.762 74.8149C85.762 74.9248 85.6521 75.0346 85.6521 75.1444C83.7852 79.4273 81.1496 83.7103 76.9764 86.1263C74.3408 88.4325 68.0811 90.8485 62.6999 88.2129Z" fill="url(#paint0_linear_2293_186)"/>
<path d="M75.988 63.3937C76.0978 63.833 76.0979 64.2723 76.0979 64.8214C76.0979 65.1508 75.8782 65.8098 75.5488 65.8098C75.2193 65.8098 74.78 65.8098 74.5604 65.1508C73.0229 61.1973 69.1792 54.718 59.1857 55.926C59.0759 55.926 59.0759 55.926 58.966 55.926C54.134 56.4751 49.9609 59.001 46.9957 62.4054C44.1404 65.6999 42.2735 69.8731 41.8343 74.2658C41.8343 74.4855 41.8343 74.8149 41.8343 75.1444C41.7244 76.1328 41.7244 77.1211 41.8343 77.9997C42.2735 82.3925 43.9208 86.5656 46.4466 90.1896C46.5565 90.2995 46.5565 90.4093 46.6663 90.5191C48.2038 92.6057 50.0707 94.4726 52.1573 96.2297C54.4635 97.877 55.0126 98.9752 54.9027 99.7439C54.9027 99.8537 54.7929 99.8537 54.7929 99.9636C54.7929 100.073 54.6831 100.073 54.5733 100.183C54.4635 100.293 54.4635 100.293 54.3536 100.403C54.2438 100.513 54.2438 100.513 54.134 100.622C54.0242 100.732 54.0242 100.732 53.9144 100.842C53.5849 101.062 53.3653 101.172 52.926 101.391C52.8162 101.501 52.7064 101.501 52.5965 101.611C52.5965 101.611 52.5965 101.611 52.4867 101.611C52.1572 101.721 51.8278 101.94 51.4983 102.05C51.1689 102.16 50.8394 102.38 50.51 102.489C50.1805 102.599 49.8511 102.819 49.5216 102.929C48.8627 103.148 48.3136 103.478 47.6547 103.697C46.9958 104.027 46.227 104.247 45.5681 104.466C45.2386 104.576 44.9092 104.686 44.5797 104.796C43.9208 105.015 43.2619 105.235 42.7128 105.455C42.4932 105.564 42.3833 105.564 42.1637 105.674C41.9441 105.784 41.8342 105.784 41.6146 105.894C40.9557 106.113 40.2968 106.333 39.528 106.553C38.8691 106.772 38.2102 106.992 37.4415 107.212C37.112 107.321 36.7826 107.431 36.4531 107.541C36.1236 107.651 35.7942 107.761 35.4647 107.871C34.4763 108.09 33.3782 108.42 32.3898 108.639C31.4014 108.859 30.3032 109.079 29.3148 109.298C28.7658 109.408 28.1068 109.518 27.4479 109.628C26.6792 109.737 26.0203 109.957 25.2515 110.067C24.7024 110.177 24.0435 110.287 23.4944 110.396C23.3846 110.396 23.3846 110.396 23.2748 110.396C22.6159 110.506 21.957 110.616 21.4079 110.726C19.2115 111.055 17.1249 111.385 15.258 111.604C15.0383 111.604 14.7089 111.714 14.4892 111.714C13.9401 111.824 13.391 111.824 12.9518 111.934C12.7321 111.934 12.4027 111.934 12.183 112.044C11.7438 112.044 11.3045 112.154 10.975 112.154C10.8652 112.154 10.8652 112.154 10.7554 112.154C10.0965 112.263 9.54738 112.263 8.99828 112.263C7.68045 112.373 6.58225 112.483 5.7037 112.483C5.26442 112.483 4.93496 112.483 4.60551 112.593C4.49569 112.593 4.38586 112.593 4.27605 112.593C4.16623 112.593 4.05641 112.593 4.05641 112.593C3.94659 112.593 3.94659 112.593 3.83678 112.593C3.72696 112.593 3.61713 112.593 3.50731 112.593H3.39749H3.28768C2.40912 111.824 1.64039 110.945 1.09129 109.957C0.981473 109.737 0.871651 109.518 0.761831 109.298C0.652012 108.969 0.542189 108.529 0.43237 108.2C0.322551 107.98 0.322544 107.651 0.322544 107.431C-2.97203 86.8951 19.6507 50.4351 37.2218 25.9454C47.435 11.6688 55.8911 1.45565 56.3304 0.906555C56.3304 0.906555 56.3304 0.906562 56.3304 1.01638C56.3304 1.1262 56.2206 1.1262 56.2206 1.34584C56.2206 1.45566 56.1108 1.45566 56.1108 1.56548C56.1108 1.6753 56.0009 1.78512 56.0009 1.89494C56.0009 2.00476 55.8911 2.00475 55.8911 2.11457C55.8911 2.22439 55.7813 2.33422 55.7813 2.44404C55.7813 2.55385 55.6715 2.55385 55.6715 2.66367C55.5616 2.88331 55.4518 2.99313 55.342 3.21277C55.2322 3.43241 55.1224 3.54222 55.0126 3.76186C54.9028 3.87168 54.9027 4.09131 54.7929 4.20113V4.31096C54.6831 4.42078 54.6831 4.64041 54.5733 4.75023C54.3536 5.07969 54.2438 5.51897 54.0242 5.84842C53.8045 6.17788 53.6947 6.61717 53.4751 7.05644C53.2554 7.49572 53.0358 7.935 52.8162 8.4841C52.7064 8.70373 52.5965 8.92336 52.4867 9.143C52.3769 9.36264 52.2671 9.58228 52.1573 9.91173C52.0474 10.2412 51.8278 10.5707 51.718 10.9001C51.6082 11.1198 51.6082 11.2296 51.4983 11.4492C51.1689 12.2179 50.8394 13.0965 50.51 13.9751C50.4002 14.1947 50.4001 14.4143 50.2903 14.5242C50.1805 14.8536 50.0707 15.1831 49.8511 15.5125C49.7412 15.842 49.5216 16.2813 49.4118 16.6107C49.1921 17.1598 48.9725 17.8187 48.7529 18.3678C48.643 18.5875 48.5332 18.8071 48.5332 19.1366V19.2464C48.5332 19.2464 48.5332 19.2464 48.5332 19.3562C48.2038 20.2348 47.8743 21.1133 47.5448 22.1017C47.435 22.4311 47.3252 22.7606 47.2154 23.1999C47.1056 23.5293 46.9957 23.749 46.8859 24.0784C46.6663 24.7373 46.4467 25.2864 46.227 25.9454C46.1172 26.2748 46.0074 26.4945 46.0074 26.8239C45.8976 27.1534 45.7878 27.5926 45.6779 27.9221C45.6779 28.0319 45.6779 28.0319 45.6779 28.1417C45.5681 28.581 45.4583 29.0203 45.3485 29.4596C45.2386 30.0087 45.019 30.5578 44.9092 30.9971V31.1069C44.7994 31.4363 44.7994 31.7658 44.6895 31.9854C44.6895 32.2051 44.5797 32.3149 44.5797 32.5345C44.4699 32.7542 44.4699 32.9738 44.3601 33.3032C44.2503 33.5229 44.2503 33.8523 44.1404 34.072C44.0306 34.5113 43.9208 34.8407 43.811 35.28C43.811 35.4996 43.7012 35.7193 43.7012 35.9389C43.5913 36.3782 43.4815 36.8175 43.3717 37.2567C43.3717 37.4764 43.2619 37.696 43.2619 37.8058C43.2619 37.9157 43.2619 38.0255 43.1521 38.1353C43.1521 38.3549 43.0422 38.4648 43.0422 38.6844C43.0422 38.7942 43.0422 38.7942 43.0422 38.904C43.0422 39.1237 42.9324 39.2335 42.9324 39.4531C42.9324 39.6728 42.8226 39.7826 42.8226 40.0022C42.8226 40.112 42.8226 40.3317 42.7128 40.4415C42.7128 40.6611 42.7128 40.771 42.603 40.9906C42.603 41.1004 42.603 41.2102 42.603 41.3201C42.603 41.4299 42.603 41.4299 42.603 41.5397C42.4932 41.8692 42.4932 42.3084 42.3834 42.6379C42.3834 42.9673 42.2735 43.2968 42.2735 43.7361C42.2735 43.9557 42.1637 44.2852 42.1637 44.5048C42.0539 45.2735 41.944 46.0423 41.944 46.811V46.9208C41.944 47.0307 41.944 47.1405 41.944 47.3601C41.944 47.5798 41.944 47.5798 41.944 47.7994V47.9092C41.944 48.019 41.944 48.1289 41.944 48.2387C41.944 48.4583 41.944 48.5681 41.944 48.7878C41.944 48.7878 41.944 48.7878 41.944 48.8976C41.8342 49.9958 41.8343 51.094 42.2735 51.7529C42.9324 52.1922 44.1405 52.302 46.7761 51.094C48.8627 50.3252 51.1689 49.6663 53.3653 49.3369C53.4751 49.3369 53.5849 49.3369 53.8046 49.3369C58.417 48.7878 63.4687 49.0074 67.6418 51.3136C70.3873 53.1805 75.6586 57.3537 75.988 63.3937Z" fill="url(#paint1_linear_2293_186)"/>
<path d="M47.7645 64.2723C48.094 63.9428 48.5332 63.7232 48.9725 63.5035C49.302 63.3937 49.9609 63.1741 50.0707 63.5035C50.1805 63.7232 50.4002 64.1624 49.9609 64.6017C47.3252 67.8963 43.5913 74.4855 49.6314 82.5023L49.7412 82.6121C52.7064 86.5656 56.8795 88.8718 61.3821 89.7504C65.665 90.6289 70.1676 90.0798 74.2309 88.2129C74.4506 88.1031 74.6702 87.9932 74.9997 87.7736C75.8782 87.3343 76.7568 86.895 77.5255 86.3459C81.1496 83.7103 83.8951 80.1961 85.762 76.3524C85.8718 76.2426 85.8718 76.1328 85.8718 76.0229C86.97 73.6069 87.6289 71.0811 88.0682 68.4454C88.3976 65.5901 88.9467 64.6017 89.7154 64.2723C89.8253 64.2723 89.9351 64.2723 89.9351 64.2723C90.0449 64.2723 90.1547 64.2723 90.1547 64.2723C90.2646 64.2723 90.3744 64.2723 90.3744 64.3821C90.4842 64.3821 90.594 64.4919 90.594 64.4919C90.7038 64.4919 90.8136 64.6017 90.9235 64.6017C91.2529 64.7115 91.5824 64.9312 91.9118 65.1508C92.0217 65.2606 92.1315 65.2606 92.2413 65.3705C92.5708 65.5901 92.7904 65.6999 93.1199 65.9196C93.4493 66.1392 93.669 66.3588 93.9984 66.4687C94.3279 66.6883 94.5475 66.9079 94.877 67.1276C95.4261 67.5669 95.9752 67.8963 96.5243 68.3356C97.0733 68.7749 97.7323 69.2141 98.2814 69.7632C98.6108 69.9829 98.8305 70.2025 99.1599 70.4222C99.709 70.8614 100.148 71.3007 100.697 71.74C100.807 71.8498 101.027 71.9596 101.137 72.1793C101.246 72.2891 101.466 72.3989 101.576 72.6185C102.125 73.0578 102.674 73.6069 103.113 74.0462C103.663 74.4855 104.212 75.0346 104.651 75.4738C104.871 75.6935 105.2 76.0229 105.42 76.2426C105.639 76.4622 105.969 76.6819 106.188 77.0113C106.957 77.78 107.726 78.5488 108.385 79.3175C109.153 80.0863 109.812 80.855 110.471 81.6237C110.911 82.063 111.35 82.5023 111.679 83.0514C112.119 83.6005 112.668 84.1496 113.107 84.6987C113.546 85.1379 113.876 85.5772 114.205 86.0165L114.315 86.1263C114.754 86.6754 115.194 87.1147 115.523 87.554C116.951 89.3111 118.159 90.8485 119.367 92.386C119.586 92.6056 119.696 92.8253 119.806 93.0449C120.135 93.4842 120.465 93.9235 120.685 94.2529C120.794 94.4726 121.014 94.6922 121.124 94.802C121.343 95.1315 121.563 95.461 121.893 95.7904C121.893 95.9002 122.002 95.9002 122.002 95.9002C122.332 96.4493 122.661 96.8886 122.991 97.3279C123.759 98.4261 124.309 99.3046 124.858 100.073C125.077 100.403 125.297 100.732 125.517 100.952C125.626 101.062 125.626 101.172 125.626 101.172C125.736 101.281 125.736 101.281 125.736 101.391C125.736 101.501 125.846 101.501 125.846 101.611C125.956 101.721 125.956 101.83 126.066 101.94C126.066 101.94 126.066 102.05 126.175 102.05V102.16C125.956 103.258 125.626 104.356 124.967 105.345C124.858 105.564 124.638 105.784 124.528 106.004C124.309 106.333 123.979 106.553 123.759 106.882C123.54 107.102 123.43 107.212 123.21 107.431C106.957 120.5 64.1276 119.182 34.2567 116.217C16.7955 114.57 3.61714 112.263 2.95822 112.153C2.95822 112.153 2.95821 112.153 3.06803 112.153C3.17785 112.153 3.28767 112.153 3.39749 112.153C3.50731 112.153 3.61713 112.153 3.72695 112.153C3.83677 112.153 3.9466 112.153 4.05641 112.153C4.16623 112.153 4.27605 112.153 4.27605 112.153C4.38587 112.153 4.49569 112.153 4.60551 112.153C4.71533 112.153 4.71533 112.153 4.82515 112.153C5.04478 112.153 5.26443 112.153 5.48407 112.153C5.70371 112.153 5.92334 112.153 6.14297 112.153C6.14297 112.153 6.14298 112.153 6.2528 112.153C6.47244 112.153 6.58226 112.153 6.8019 112.153H6.91171C7.02153 112.153 7.24116 112.153 7.4608 112.153C7.90008 112.153 8.22954 112.044 8.66882 112.044C9.1081 112.044 9.54737 111.934 9.98665 111.934C10.4259 111.934 10.975 111.824 11.5241 111.824C11.7438 111.824 12.0732 111.824 12.2929 111.714C12.5125 111.714 12.842 111.604 13.0616 111.604C13.3911 111.604 13.8303 111.495 14.1598 111.495C14.3794 111.495 14.5991 111.495 14.8187 111.385C15.6973 111.275 16.5758 111.165 17.5642 111.055C17.7838 111.055 18.0035 111.055 18.2231 110.945C18.2231 110.945 18.2231 110.945 18.3329 110.945C18.6624 110.945 18.9918 110.836 19.4311 110.836C19.7606 110.836 20.1999 110.726 20.5293 110.616C21.1882 110.506 21.7373 110.396 22.3962 110.287C22.6159 110.287 22.9453 110.177 23.165 110.177H23.2748H23.3846C24.2632 110.067 25.2515 109.847 26.2399 109.628C26.5694 109.518 27.0086 109.518 27.3381 109.408C27.6676 109.298 27.8872 109.298 28.2167 109.188C28.8756 109.079 29.5345 108.969 30.1934 108.749C30.5229 108.639 30.7425 108.639 31.072 108.529C31.4014 108.42 31.8407 108.31 32.1701 108.31C32.28 108.31 32.28 108.31 32.3898 108.31C32.8291 108.2 33.2683 108.09 33.7076 107.98C34.2567 107.871 34.8058 107.761 35.2451 107.541H35.3549C35.6844 107.431 36.0138 107.321 36.2335 107.321C36.4531 107.321 36.5629 107.212 36.7826 107.212C37.0022 107.102 37.2218 107.102 37.5513 106.992C37.7709 106.882 38.1004 106.882 38.32 106.772C38.7593 106.663 39.0888 106.553 39.4182 106.443C39.6379 106.333 39.8575 106.333 40.0771 106.223C40.5164 106.113 40.9557 106.004 41.395 105.784C41.6146 105.674 41.7244 105.674 41.9441 105.564C42.0539 105.564 42.1637 105.455 42.2735 105.455C42.4932 105.345 42.603 105.345 42.8226 105.235C42.9324 105.235 42.9324 105.235 43.0422 105.125C43.2619 105.015 43.3717 105.015 43.5913 104.905C43.811 104.796 43.9208 104.796 44.1404 104.686C44.2503 104.686 44.4699 104.576 44.5797 104.576C44.7994 104.466 44.9092 104.466 45.1288 104.356C45.2387 104.356 45.3485 104.246 45.4583 104.246C45.5681 104.246 45.5681 104.137 45.6779 104.137C46.0074 104.027 46.4467 103.807 46.7761 103.697C47.1056 103.588 47.435 103.478 47.7645 103.258C47.9841 103.148 48.2038 103.038 48.5332 102.929C49.3019 102.599 49.9609 102.27 50.7296 101.94C50.7296 101.94 50.8394 101.94 50.8394 101.83C50.9492 101.721 51.0591 101.721 51.1689 101.611C51.2787 101.501 51.3885 101.501 51.4983 101.391C51.4983 101.391 51.6082 101.391 51.6082 101.281C51.718 101.172 51.8278 101.172 51.9376 101.062C52.0474 100.952 52.2671 100.952 52.3769 100.842C52.3769 100.842 52.3769 100.842 52.4867 100.842C53.4751 100.403 54.3536 99.8537 54.7929 99.085C54.9027 98.3163 54.3536 97.2181 52.0474 95.5708C50.2903 94.1431 48.6431 92.4958 47.2154 90.7387C47.1056 90.6289 46.9957 90.5191 46.9957 90.4093C44.1404 86.6754 41.8343 82.2826 41.8343 77.4506C41.8343 74.2658 42.8226 67.6767 47.7645 64.2723Z" fill="url(#paint2_linear_2293_186)"/>
<defs>
<linearGradient id="paint0_linear_2293_186" x1="46.0968" y1="15.4233" x2="104.589" y2="98.9238" gradientUnits="userSpaceOnUse">
<stop stop-color="#B92029"/>
<stop offset="0.1008" stop-color="#BD2029"/>
<stop offset="0.2115" stop-color="#CA222B"/>
<stop offset="0.3265" stop-color="#E2252E"/>
<stop offset="0.3577" stop-color="#EE262F"/>
<stop offset="0.6331" stop-color="#F15E46"/>
<stop offset="0.8723" stop-color="#F47B5B"/>
<stop offset="1" stop-color="#F58563"/>
</linearGradient>
<linearGradient id="paint1_linear_2293_186" x1="21.3703" y1="114.152" x2="64.4376" y2="21.7438" gradientUnits="userSpaceOnUse">
<stop stop-color="#B92029"/>
<stop offset="0.1008" stop-color="#BD2029"/>
<stop offset="0.2115" stop-color="#CA222B"/>
<stop offset="0.3265" stop-color="#E2252E"/>
<stop offset="0.3577" stop-color="#EE262F"/>
<stop offset="0.6331" stop-color="#F15E46"/>
<stop offset="0.8723" stop-color="#F47B5B"/>
<stop offset="1" stop-color="#F58563"/>
</linearGradient>
<linearGradient id="paint2_linear_2293_186" x1="119.17" y1="86.2651" x2="17.61" y2="95.1732" gradientUnits="userSpaceOnUse">
<stop stop-color="#B92029"/>
<stop offset="0.1008" stop-color="#BD2029"/>
<stop offset="0.2115" stop-color="#CA222B"/>
<stop offset="0.3265" stop-color="#E2252E"/>
<stop offset="0.3577" stop-color="#EE262F"/>
<stop offset="0.6331" stop-color="#F15E46"/>
<stop offset="0.8723" stop-color="#F47B5B"/>
<stop offset="1" stop-color="#F58563"/>
</linearGradient>
</defs>
</svg>
