<svg width="367" height="73" viewBox="0 0 367 73" fill="none" xmlns="http://www.w3.org/2000/svg">
<path d="M47.1293 0.744324H62.6939L38.3129 72.4722H24.1633L0 0.744324H16L31.347 55.1661L47.1293 0.744324Z" fill="#E02729"/>
<path d="M119.075 0.744324H133.116V72.4722H118.095L88.9252 21.3157L88.7075 72.4722H74.6667V0.744324H90.449L118.857 50.7035L119.075 0.744324Z" fill="#E02729"/>
<path d="M169.034 42.3225V72.4722H154.014V0.744324H205.17V13.3702H168.925V29.5879H200.49V42.4314H169.034V42.3225Z" fill="#E02729"/>
<path d="M231.946 0.744324V72.4722H216.925V0.744324H231.946Z" fill="#E02729"/>
<path d="M278.204 13.3702V72.5811H263.184V13.3702H241.415V0.744324H299.755V13.3702H278.204Z" fill="#E02729"/>
<path d="M364.517 0.744324V13.3702H326.531V28.6083H361.578V41.2341H326.639V59.8464H366.476V72.6899H311.837V0.962007H364.517V0.744324Z" fill="#E02729"/>
</svg>
