<svg width="161" height="46" viewBox="0 0 161 46" fill="none" xmlns="http://www.w3.org/2000/svg">
<path d="M21.0184 0.41272H27.8085L17.1722 32.0216H10.9994L0.458008 0.41272H7.43809L14.1333 24.3952L21.0184 0.41272Z" fill="#E02729"/>
<path d="M52.4045 0.41272H58.5299V32.0216H51.9772L39.2516 9.47809L39.1566 32.0216H33.0312V0.41272H39.9164L52.3096 22.4286L52.4045 0.41272Z" fill="#E02729"/>
<path d="M74.2002 18.7353V32.0216H67.6475V0.41272H89.9647V5.97666H74.1527V13.1234H87.9229V18.7833H74.2002V18.7353Z" fill="#E02729"/>
<path d="M101.646 0.41272V32.0216H95.0928V0.41272H101.646Z" fill="#E02729"/>
<path d="M121.826 5.97666V32.0696H115.273V5.97666H105.776V0.41272H131.228V5.97666H121.826Z" fill="#E02729"/>
<path d="M159.48 0.41272V5.97666H142.908V12.6917H158.198V18.2557H142.956V26.4577H160.335V32.1175H136.498V0.508648H159.48V0.41272Z" fill="#E02729"/>
<path d="M13.2603 42.9097L12.4056 43.821V45.4518H10.9336V38.9766H12.4056V41.9984L15.2546 38.9766H16.9165L14.2574 41.8545L17.059 45.4518H15.3496L13.2603 42.9097Z" fill="#272626"/>
<path d="M22.6619 44.2527V45.4518H17.7236V38.9766H22.567V40.1757H19.1481V41.5667H22.1396V42.7178H19.1481V44.2047H22.6619V44.2527Z" fill="#272626"/>
<path d="M25.1316 40.2237H23.0898V39.0245H28.6454V40.2237H26.6036V45.4518H25.1316V40.2237Z" fill="#272626"/>
<path d="M37.9514 38.9766V45.4518H36.7169L33.5355 41.5187V45.4518H32.0635V38.9766H33.298L36.4794 42.9097V38.9766H37.9514Z" fill="#272626"/>
<path d="M40.7534 45.164C40.231 44.8762 39.8037 44.4925 39.5188 43.9649C39.2339 43.4373 39.0439 42.9097 39.0439 42.2382C39.0439 41.6146 39.1864 41.039 39.5188 40.5114C39.8037 39.9838 40.231 39.6001 40.7534 39.3123C41.2757 39.0245 41.893 38.8806 42.5577 38.8806C43.2225 38.8806 43.8398 39.0245 44.3621 39.3123C44.8844 39.6001 45.3118 39.9838 45.5967 40.5114C45.8816 41.039 46.0715 41.5667 46.0715 42.2382C46.0715 42.8617 45.9291 43.4373 45.5967 43.9649C45.3118 44.4925 44.8844 44.8762 44.3621 45.164C43.8398 45.4518 43.2225 45.5957 42.5577 45.5957C41.893 45.5957 41.2757 45.4518 40.7534 45.164ZM43.5549 44.0608C43.8398 43.869 44.0772 43.6291 44.2671 43.3414C44.4571 43.0056 44.5046 42.6698 44.5046 42.2861C44.5046 41.9024 44.4096 41.5187 44.2671 41.2309C44.0772 40.8951 43.8398 40.6553 43.5549 40.5114C43.27 40.3196 42.8901 40.2716 42.5103 40.2716C42.1304 40.2716 41.798 40.3675 41.4656 40.5114C41.1807 40.7033 40.9433 40.9431 40.7534 41.2309C40.5634 41.5667 40.5159 41.9024 40.5159 42.2861C40.5159 42.6698 40.6109 43.0536 40.7534 43.3414C40.9433 43.6771 41.1807 43.9169 41.4656 44.0608C41.7505 44.2527 42.1304 44.3007 42.5103 44.3007C42.9376 44.3007 43.27 44.2047 43.5549 44.0608Z" fill="#272626"/>
<path d="M47.1631 38.9766H48.6351V45.4518H47.1631V38.9766Z" fill="#272626"/>
<path d="M58.6067 38.9766V45.4518H57.3721L54.1907 41.5187V45.4518H52.7188V38.9766H53.9533L57.1347 42.9097V38.9766H58.6067Z" fill="#272626"/>
<path d="M64.4479 42.1422H65.825V44.7803C65.4926 45.0681 65.0652 45.26 64.6379 45.4039C64.163 45.5477 63.7357 45.5957 63.2608 45.5957C62.5961 45.5957 61.9788 45.4518 61.4565 45.164C60.9342 44.8762 60.5068 44.4925 60.2219 43.9649C59.937 43.4373 59.7471 42.8617 59.7471 42.2382C59.7471 41.6146 59.8895 41.039 60.2219 40.5114C60.5068 39.9838 60.9342 39.6001 61.4565 39.3123C61.9788 39.0245 62.5961 38.8806 63.2608 38.8806C63.8307 38.8806 64.353 38.9765 64.7803 39.1684C65.2552 39.3603 65.635 39.6481 65.9199 39.9838L64.9703 40.8472C64.4954 40.3675 63.9731 40.1277 63.3083 40.1277C62.881 40.1277 62.5486 40.2236 62.2162 40.3675C61.8838 40.5594 61.6464 40.7992 61.4565 41.087C61.2665 41.4228 61.1716 41.7585 61.1716 42.1902C61.1716 42.5739 61.2665 42.9576 61.4565 43.2454C61.6464 43.5812 61.8838 43.821 62.2162 43.9649C62.5486 44.1568 62.881 44.2047 63.3083 44.2047C63.7357 44.2047 64.1156 44.1088 64.4479 43.9169V42.1422Z" fill="#272626"/>
<path d="M67.914 44.8283C67.3917 44.3007 67.1543 43.5812 67.1543 42.6219V39.0245H68.6263V42.5739C68.6263 43.7251 69.1011 44.3007 70.0508 44.3007C70.5256 44.3007 70.858 44.1568 71.0954 43.869C71.3328 43.5812 71.4753 43.1495 71.4753 42.5739V39.0245H72.9473V42.6219C72.9473 43.5812 72.7099 44.3007 72.1876 44.8283C71.6652 45.3559 70.953 45.5957 70.0508 45.5957C69.1011 45.5957 68.3889 45.3079 67.914 44.8283Z" fill="#272626"/>
<path d="M75.7016 45.164C75.1793 44.8762 74.7519 44.4925 74.467 43.9649C74.1821 43.4373 73.9922 42.9097 73.9922 42.2382C73.9922 41.6146 74.1346 41.039 74.467 40.5114C74.7519 39.9838 75.1793 39.6001 75.7016 39.3123C76.2239 39.0245 76.8412 38.8806 77.506 38.8806C78.1707 38.8806 78.788 39.0245 79.3103 39.3123C79.8327 39.6001 80.26 39.9838 80.5449 40.5114C80.8298 41.039 81.0197 41.5667 81.0197 42.2382C81.0197 42.8617 80.8773 43.4373 80.5449 43.9649C80.26 44.4925 79.8327 44.8762 79.3103 45.164C78.788 45.4518 78.1707 45.5957 77.506 45.5957C76.8412 45.5957 76.2239 45.4518 75.7016 45.164ZM78.5031 44.0608C78.788 43.869 79.0254 43.6291 79.2154 43.3414C79.4053 43.0056 79.4528 42.6698 79.4528 42.2861C79.4528 41.9024 79.3578 41.5187 79.2154 41.2309C79.0254 40.8951 78.788 40.6553 78.5031 40.5114C78.2182 40.3196 77.8383 40.2716 77.4585 40.2716C77.0786 40.2716 76.7462 40.3675 76.4139 40.5114C76.1289 40.7033 75.8915 40.9431 75.7016 41.2309C75.5117 41.5667 75.4642 41.9024 75.4642 42.2861C75.4642 42.6698 75.5591 43.0536 75.7016 43.3414C75.8915 43.6771 76.1289 43.9169 76.4139 44.0608C76.6988 44.2527 77.0786 44.3007 77.4585 44.3007C77.8383 44.3007 78.2182 44.2047 78.5031 44.0608Z" fill="#272626"/>
<path d="M87.9993 38.9766V45.4518H86.7647L83.5833 41.5187V45.4518H82.1113V38.9766H83.3459L86.5273 42.9097V38.9766H87.9993Z" fill="#272626"/>
<path d="M98.2554 38.9766L95.5014 45.4518H94.0294L91.2754 38.9766H92.8898L94.8367 43.5812L96.8309 38.9766H98.2554Z" fill="#272626"/>
<path d="M100.013 45.164C99.4908 44.8762 99.0634 44.4925 98.7785 43.9649C98.4936 43.4373 98.3037 42.9097 98.3037 42.2382C98.3037 41.6146 98.4462 41.039 98.7785 40.5114C99.0634 39.9838 99.4908 39.6001 100.013 39.3123C100.535 39.0245 101.153 38.8806 101.817 38.8806C102.482 38.8806 103.1 39.0245 103.622 39.3123C104.144 39.6001 104.572 39.9838 104.856 40.5114C105.141 41.039 105.331 41.5667 105.331 42.2382C105.331 42.8617 105.189 43.4373 104.856 43.9649C104.572 44.4925 104.144 44.8762 103.622 45.164C103.1 45.4518 102.482 45.5957 101.817 45.5957C101.153 45.5957 100.535 45.4518 100.013 45.164ZM102.815 44.0608C103.1 43.869 103.337 43.6291 103.527 43.3414C103.717 43.0056 103.764 42.6698 103.764 42.2861C103.764 41.9024 103.669 41.5187 103.527 41.2309C103.337 40.8951 103.1 40.6553 102.815 40.5114C102.53 40.3196 102.15 40.2716 101.77 40.2716C101.39 40.2716 101.058 40.3675 100.725 40.5114C100.44 40.7033 100.203 40.9431 100.013 41.2309C99.8232 41.5667 99.7757 41.9024 99.7757 42.2861C99.7757 42.6698 99.8707 43.0536 100.013 43.3414C100.203 43.6771 100.44 43.9169 100.725 44.0608C101.01 44.2527 101.39 44.3007 101.77 44.3007C102.197 44.3007 102.53 44.2047 102.815 44.0608Z" fill="#272626"/>
<path d="M112.264 38.9766V45.4518H111.029L107.848 41.5187V45.4518H106.376V38.9766H107.611L110.792 42.9097V38.9766H112.264Z" fill="#272626"/>
<path d="M117.012 45.3559C116.537 45.212 116.157 45.0201 115.872 44.8283L116.394 43.7251C116.679 43.9169 117.012 44.1088 117.392 44.2047C117.771 44.3486 118.151 44.3966 118.531 44.3966C118.958 44.3966 119.243 44.3486 119.481 44.2047C119.671 44.0608 119.766 43.9169 119.766 43.7251C119.766 43.5812 119.718 43.4373 119.576 43.3414C119.433 43.2454 119.291 43.1495 119.101 43.1015C118.911 43.0536 118.674 42.9576 118.341 42.9097C117.866 42.8138 117.439 42.6699 117.154 42.5739C116.822 42.478 116.584 42.2861 116.347 41.9983C116.109 41.7585 116.015 41.3748 116.015 40.9431C116.015 40.5594 116.109 40.2236 116.299 39.9358C116.489 39.6481 116.822 39.4082 117.202 39.2164C117.629 39.0245 118.104 38.9286 118.674 38.9286C119.101 38.9286 119.481 38.9766 119.861 39.0725C120.241 39.1684 120.573 39.3123 120.905 39.5042L120.43 40.6553C119.861 40.3196 119.243 40.1277 118.674 40.1277C118.246 40.1277 117.961 40.1757 117.771 40.3196C117.581 40.4635 117.486 40.6553 117.486 40.8472C117.486 41.087 117.581 41.2309 117.819 41.3268C118.056 41.4228 118.389 41.5187 118.864 41.6626C119.338 41.7585 119.766 41.9024 120.051 41.9983C120.383 42.0943 120.62 42.2861 120.858 42.5739C121.095 42.8137 121.19 43.1495 121.19 43.5812C121.19 43.9649 121.095 44.3007 120.905 44.5885C120.715 44.8762 120.383 45.1161 120.003 45.3079C119.576 45.4998 119.101 45.5957 118.531 45.5957C118.009 45.5957 117.486 45.4998 117.012 45.3559Z" fill="#272626"/>
<path d="M122.235 38.9766H123.707V45.4518H122.235V38.9766Z" fill="#272626"/>
<path d="M130.165 44.2527V45.4518H125.227V38.9766H130.07V40.1757H126.699V41.5667H129.69V42.7178H126.699V44.2047H130.165V44.2527Z" fill="#272626"/>
<path d="M132.064 44.8283C131.542 44.3007 131.305 43.5812 131.305 42.6219V39.0245H132.777V42.5739C132.777 43.7251 133.252 44.3007 134.201 44.3007C134.676 44.3007 135.008 44.1568 135.246 43.869C135.483 43.5812 135.626 43.1495 135.626 42.5739V39.0245H137.098V42.6219C137.098 43.5812 136.86 44.3007 136.338 44.8283C135.816 45.3559 135.103 45.5957 134.201 45.5957C133.299 45.5957 132.587 45.3079 132.064 44.8283Z" fill="#272626"/>
<path d="M142.463 40.2237H140.421V39.0245H145.976V40.2237H143.935V45.4518H142.463V40.2237Z" fill="#272626"/>
<path d="M148.019 45.164C147.497 44.8762 147.069 44.4925 146.784 43.9649C146.5 43.4373 146.31 42.9097 146.31 42.2382C146.31 41.6146 146.452 41.039 146.784 40.5114C147.069 39.9838 147.497 39.6001 148.019 39.3123C148.541 39.0245 149.159 38.8806 149.823 38.8806C150.488 38.8806 151.105 39.0245 151.628 39.3123C152.15 39.6001 152.577 39.9838 152.862 40.5114C153.147 41.039 153.337 41.5667 153.337 42.2382C153.337 42.8617 153.195 43.4373 152.862 43.9649C152.577 44.4925 152.15 44.8762 151.628 45.164C151.105 45.4518 150.488 45.5957 149.823 45.5957C149.159 45.5957 148.541 45.4518 148.019 45.164ZM150.821 44.0608C151.105 43.869 151.343 43.6291 151.533 43.3414C151.723 43.0056 151.77 42.6698 151.77 42.2861C151.77 41.9024 151.675 41.5187 151.533 41.2309C151.343 40.8951 151.105 40.6553 150.821 40.5114C150.536 40.3196 150.156 40.2716 149.776 40.2716C149.396 40.2716 149.064 40.3675 148.731 40.5114C148.446 40.7033 148.209 40.9431 148.019 41.2309C147.829 41.5667 147.782 41.9024 147.782 42.2861C147.782 42.6698 147.877 43.0536 148.019 43.3414C148.209 43.6771 148.446 43.9169 148.731 44.0608C149.016 44.2527 149.396 44.3007 149.776 44.3007C150.156 44.3007 150.536 44.2047 150.821 44.0608Z" fill="#272626"/>
<path d="M155.711 45.164C155.189 44.8762 154.762 44.4925 154.477 43.9649C154.192 43.4373 154.002 42.8617 154.002 42.2382C154.002 41.6146 154.144 41.039 154.477 40.5114C154.762 39.9838 155.189 39.6001 155.711 39.3123C156.234 39.0245 156.851 38.8806 157.468 38.8806C158.038 38.8806 158.513 38.9765 158.988 39.1684C159.415 39.3603 159.795 39.6481 160.127 40.0318L159.178 40.8951C158.75 40.3675 158.228 40.1277 157.563 40.1277C157.183 40.1277 156.803 40.2236 156.519 40.3675C156.186 40.5594 155.949 40.7992 155.806 41.087C155.616 41.4228 155.569 41.7585 155.569 42.1422C155.569 42.526 155.664 42.9097 155.806 43.1975C155.996 43.5332 156.234 43.773 156.519 43.9169C156.851 44.1088 157.183 44.1568 157.563 44.1568C158.181 44.1568 158.75 43.9169 159.178 43.3893L160.127 44.2527C159.842 44.6364 159.463 44.9242 158.988 45.1161C158.56 45.3079 158.038 45.4038 157.468 45.4038C156.851 45.5957 156.234 45.4518 155.711 45.164Z" fill="#272626"/>
</svg>
