<svg width="36" height="28" viewBox="0 0 36 28" fill="none" xmlns="http://www.w3.org/2000/svg">
<path d="M34.875 23H4.5V1.625C4.5 1.00344 3.99656 0.5 3.375 0.5H1.125C0.503438 0.5 0 1.00344 0 1.625V25.25C0 26.4924 1.00758 27.5 2.25 27.5H34.875C35.4966 27.5 36 26.9966 36 26.375V24.125C36 23.5034 35.4966 23 34.875 23ZM32.625 2.75H24.3239C22.8206 2.75 22.0676 4.56758 23.1307 5.6307L25.4088 7.90883L20.25 13.0684L15.0912 7.90953C14.2123 7.03063 12.7877 7.03063 11.9095 7.90953L7.07977 12.7393C6.64031 13.1788 6.64031 13.891 7.07977 14.3305L8.67023 15.9209C9.10969 16.3604 9.82195 16.3604 10.2614 15.9209L13.5 12.6816L18.6588 17.8405C19.5377 18.7194 20.9623 18.7194 21.8405 17.8405L28.5905 11.0905L30.8686 13.3686C31.9317 14.4317 33.7493 13.6787 33.7493 12.1754V3.875C33.75 3.25344 33.2466 2.75 32.625 2.75Z" fill="white"/>
</svg>
