<svg width="392" height="405" viewBox="0 0 392 405" fill="none" xmlns="http://www.w3.org/2000/svg">
<path d="M0.432494 85.9324L0.282592 75.6843L0.782538 75.677L0.707587 70.553C0.682985 68.871 0.718568 67.2044 0.812194 65.555L0.312998 65.5267C0.505974 62.1271 0.943793 58.7997 1.60809 55.5601L2.09789 55.6606C2.7742 52.3624 3.68697 49.1562 4.81651 46.0587L4.34677 45.8874C5.50411 42.7137 6.88738 39.6533 8.47572 36.7242L8.91526 36.9625C10.5093 34.0229 12.3115 31.2164 14.3004 28.5613L13.9002 28.2615C15.9153 25.5716 18.1207 23.0361 20.4944 20.6739L20.8471 21.0284C23.2079 18.6791 25.7364 16.5025 28.4108 14.5175L28.1128 14.116C30.8017 12.1201 33.6371 10.3165 36.5969 8.724L36.8338 9.16431C39.7552 7.59249 42.7986 6.22791 45.9427 5.08892L45.7724 4.61882C48.9052 3.48391 52.1373 2.57132 55.4479 1.89901L55.5474 2.389C58.7785 1.73283 62.0848 1.30721 65.4469 1.12909L65.4204 0.629786C68.7227 0.454822 72.0783 0.516893 75.4688 0.831812L75.4225 1.32967C77.0675 1.48246 78.7208 1.6952 80.3804 1.96976L85.2443 2.77439L85.3259 2.2811L95.0535 3.89036L94.9719 4.38366L104.699 5.99292L104.781 5.49962L114.509 7.10888L114.427 7.60218L124.155 9.21144L124.236 8.71814L133.964 10.3274L133.882 10.8207L143.61 12.43L143.692 11.9367L153.419 13.5459L153.338 14.0392L163.065 15.6485L163.147 15.1552L172.874 16.7644L172.793 17.2577L182.52 18.867L182.602 18.3737L192.33 19.983L192.248 20.4763L201.976 22.0855L202.057 21.5922L211.785 23.2015L211.703 23.6948L221.431 25.3041L221.512 24.8108L231.24 26.42L231.158 26.9133L240.886 28.5226L240.968 28.0293L250.695 29.6385L250.614 30.1318L260.341 31.7411L260.423 31.2478L270.15 32.8571L270.069 33.3504L279.796 34.9596L279.878 34.4663L289.606 36.0756L289.524 36.5689L299.252 38.1782L299.333 37.6849L309.061 39.2941L308.979 39.7874L318.707 41.3967L318.788 40.9034L328.516 42.5126L328.434 43.0059L333.298 43.8106C335.006 44.0931 336.69 44.4369 338.346 44.8394L338.465 44.3535C341.867 45.18 345.158 46.2521 348.322 47.548L348.132 48.0107C351.335 49.323 354.407 50.8664 357.328 52.618L357.586 52.1892C360.567 53.9765 363.393 55.9789 366.046 58.1723L365.728 58.5577C368.38 60.7506 370.859 63.1358 373.144 65.6889L373.516 65.3555C375.823 67.9327 377.934 70.6798 379.831 73.572L379.413 73.8462C381.292 76.7114 382.959 79.7199 384.396 82.8474L384.85 82.6388C386.287 85.7672 387.494 89.0138 388.454 92.3545L387.974 92.4925C388.914 95.7666 389.616 99.1318 390.059 102.565L390.555 102.501C390.993 105.891 391.182 109.348 391.105 112.848L390.606 112.837C390.568 114.542 390.467 116.257 390.301 117.98L389.807 123.085L390.305 123.133L389.319 133.342L388.821 133.294L387.835 143.504L388.332 143.552L387.346 153.761L386.848 153.713L385.862 163.922L386.359 163.971L385.373 174.18L384.875 174.132L383.889 184.341L384.386 184.389L383.4 194.599L382.902 194.551L381.916 204.76L382.414 204.808L381.427 215.018L380.929 214.97L379.943 225.179L380.441 225.227L379.454 235.437L378.957 235.389L377.97 245.598L378.468 245.646L377.481 255.856L376.984 255.807L375.997 266.017L376.495 266.065L375.508 276.274L375.011 276.226L374.024 286.436L374.522 286.484L373.536 296.693L373.038 296.645L372.051 306.855L372.549 306.903L371.563 317.112L371.065 317.064L370.079 327.274L370.576 327.322L369.59 337.531L369.092 337.483L368.599 342.588C368.436 344.277 368.212 345.948 367.93 347.597L368.423 347.681C367.844 351.064 367.023 354.359 365.977 357.547L365.502 357.391C364.444 360.616 363.155 363.732 361.656 366.719L362.103 366.943C360.573 369.99 358.827 372.904 356.883 375.666L356.474 375.378C354.532 378.139 352.392 380.747 350.076 383.183L350.439 383.528C348.101 385.986 345.585 388.271 342.913 390.361L342.605 389.967C339.958 392.038 337.156 393.918 334.221 395.585L334.468 396.02C331.532 397.689 328.463 399.147 325.284 400.376L325.103 399.91C321.986 401.115 318.761 402.099 315.449 402.841L315.558 403.329C312.284 404.063 308.926 404.564 305.503 404.815L305.466 404.316C303.798 404.438 302.114 404.5 300.416 404.5H295.25V405H284.917V404.5H274.585V405H264.252V404.5H253.919V405H243.587V404.5H233.254V405H222.921V404.5H212.589V405H202.256V404.5H191.923V405H181.591V404.5H171.258V405H160.925V404.5H150.593V405H140.26V404.5H129.927V405H119.595V404.5H109.262V405H98.9293V404.5H88.5966V405H78.264V404.5H73.0976C71.3041 404.5 69.5265 404.431 67.7675 404.296L67.7291 404.794C64.1116 404.516 60.5715 403.958 57.1305 403.142L57.2458 402.656C53.7565 401.829 50.3698 400.735 47.1088 399.397L46.919 399.859C43.5889 398.493 40.3888 396.873 37.3429 395.024L37.6024 394.597C34.5562 392.748 31.6652 390.668 28.9539 388.381L28.6316 388.763C25.8945 386.454 23.3392 383.936 20.9906 381.233L21.3681 380.905C19.0417 378.228 16.9195 375.367 15.0261 372.349L14.6026 372.614C12.7094 369.596 11.0431 366.42 9.62793 363.11L10.0877 362.913C8.70184 359.672 7.55855 356.302 6.68072 352.825L6.19593 352.947C5.33028 349.519 4.7209 345.987 4.38948 342.374L4.88739 342.328C4.72623 340.572 4.63127 338.795 4.60504 337.002L4.53009 331.878L4.03014 331.885L3.88024 321.637L4.38018 321.63L4.23028 311.382L3.73033 311.389L3.58043 301.141L4.08038 301.134L3.93048 290.886L3.43053 290.893L3.28063 280.645L3.78058 280.638L3.63067 270.39L3.13073 270.397L2.98083 260.149L3.48077 260.142L3.33087 249.894L2.83092 249.901L2.68102 239.653L3.18097 239.646L3.03107 229.398L2.53112 229.405L2.38122 219.157L2.88116 219.149L2.73126 208.901L2.23132 208.909L2.08141 198.661L2.58136 198.653L2.43146 188.405L1.93151 188.413L1.78161 178.165L2.28156 178.157L2.13165 167.909L1.63171 167.917L1.48181 157.669L1.98175 157.661L1.83185 147.413L1.3319 147.421L1.182 137.173L1.68195 137.165L1.53205 126.917L1.0321 126.924L0.882199 116.676L1.38215 116.669L1.23224 106.421L0.732297 106.428L0.582396 96.1804L1.08234 96.1731L0.93244 85.925L0.432494 85.9324Z" stroke="url(#paint0_linear_2843_10923)" stroke-dasharray="10 10"/>
<defs>
<linearGradient id="paint0_linear_2843_10923" x1="-1" y1="196.5" x2="397" y2="196.5" gradientUnits="userSpaceOnUse">
<stop stop-color="#F84F4F"/>
<stop offset="1" stop-color="#EF836C"/>
</linearGradient>
</defs>
</svg>
