<svg width="16" height="16" viewBox="0 0 16 16" fill="none" xmlns="http://www.w3.org/2000/svg">
<path d="M8.00033 1.33301C5.06699 1.33301 2.66699 3.73301 2.66699 6.66634C2.66699 10.2663 7.33366 14.333 7.53366 14.533C7.66699 14.5997 7.86699 14.6663 8.00033 14.6663C8.13366 14.6663 8.33366 14.5997 8.46699 14.533C8.66699 14.333 13.3337 10.2663 13.3337 6.66634C13.3337 3.73301 10.9337 1.33301 8.00033 1.33301ZM8.00033 13.133C6.60033 11.7997 4.00033 8.93301 4.00033 6.66634C4.00033 4.46634 5.80033 2.66634 8.00033 2.66634C10.2003 2.66634 12.0003 4.46634 12.0003 6.66634C12.0003 8.86634 9.40033 11.7997 8.00033 13.133ZM8.00033 3.99967C6.53366 3.99967 5.33366 5.19967 5.33366 6.66634C5.33366 8.13301 6.53366 9.33301 8.00033 9.33301C9.46699 9.33301 10.667 8.13301 10.667 6.66634C10.667 5.19967 9.46699 3.99967 8.00033 3.99967ZM8.00033 7.99967C7.26699 7.99967 6.66699 7.39967 6.66699 6.66634C6.66699 5.93301 7.26699 5.33301 8.00033 5.33301C8.73366 5.33301 9.33366 5.93301 9.33366 6.66634C9.33366 7.39967 8.73366 7.99967 8.00033 7.99967Z" fill="black"/>
</svg>
