<svg width="272" height="64" viewBox="0 0 272 64" fill="none" xmlns="http://www.w3.org/2000/svg">
<path d="M32.1003 9.28003L42.3033 24.1333C47.9451 32.3466 42.0648 43.52 32.1003 43.52C22.1359 43.52 16.2555 32.3466 21.8974 24.1333L32.1003 9.28003Z" fill="#EA068D"/>
<path d="M6.8204 40.48C6.98036 39.52 14.9804 18.72 14.9804 18.72C15.8337 19.84 17.7004 22.432 18.3404 23.84C18.9804 25.248 18.9804 26.88 18.6604 28.32C18.5004 28.96 18.0844 30.24 17.0604 34.08C16.0364 37.92 16.7404 39.2 18.1804 40C20.9004 41.12 26.8524 43.584 28.9004 44.48C30.9484 45.376 31.7804 46.4 31.7804 47.2V54.56H21.7004V52.32C18.8737 50.6666 12.4524 46.944 9.3804 45.28C6.3084 43.616 6.66044 41.44 6.8204 40.48Z" fill="#12A652"/>
<path d="M57.4401 40.64C57.2801 39.68 49.2805 18.88 49.2805 18.88C48.4272 20 46.5607 22.592 45.9207 24C45.2807 25.408 45.2807 27.04 45.6007 28.48C45.7607 29.12 46.1767 30.4 47.2006 34.24C48.2246 38.08 47.5206 39.36 46.0807 40.16C43.3608 41.28 37.4091 43.744 35.3612 44.64C33.3133 45.536 32.4813 46.56 32.4813 47.36V54.72H42.5609V52.48C45.3874 50.8267 51.8084 47.104 54.8802 45.44C57.9521 43.776 57.6001 41.6 57.4401 40.64Z" fill="#12A652"/>
<path d="M246.954 46.0918V17.9082H252.852V29.3535H265.547V17.9082H271.446V46.0918H265.547V34.2168H252.852V46.0918H246.954Z" fill="black"/>
<path d="M217.88 46.0918V17.9082H223.036L235.771 36.2285H235.888V17.9082H241.767V46.0918H236.649L223.876 27.6348H223.759V46.0918H217.88Z" fill="black"/>
<path d="M206.814 46.0918V17.9082H212.712V46.0918H206.814Z" fill="black"/>
<path d="M171.881 46.0918V17.9082H178.697L186.705 38.1621H186.822L194.83 17.9082H201.646V46.0918H196.393V27.0293H196.217L188.619 46.0918H184.908L177.291 27.0293H177.135V46.0918H171.881Z" fill="black"/>
<path d="M145.589 46.5801C137.21 46.5801 131.995 40.9746 131.995 32.0098V31.9707C131.995 23.0059 137.249 17.4199 145.589 17.4199C153.948 17.4199 159.183 23.0254 159.183 31.9707V32.0098C159.183 40.9746 153.968 46.5801 145.589 46.5801ZM145.589 41.5801C150.276 41.5801 153.167 37.8496 153.167 32.0098V31.9707C153.167 26.0918 150.218 22.4199 145.589 22.4199C140.979 22.4199 138.011 26.0723 138.011 31.9707V32.0098C138.011 37.9082 140.96 41.5801 145.589 41.5801Z" fill="black"/>
<path d="M104.269 46.0918L114.113 17.9082H121.046L130.871 46.0918H124.679L122.55 39.2559H112.589L110.46 46.0918H104.269ZM117.511 23.377L113.957 34.8418H121.183L117.628 23.377H117.511Z" fill="black"/>
<path d="M80 46.0918V17.9082H92.2656C97.5781 17.9082 100.918 20.6426 100.918 24.9785V25.0176C100.918 28.1035 98.5742 30.7402 95.4688 31.1504V31.2676C99.3945 31.5605 102.227 34.334 102.227 38.0254V38.0645C102.227 43.0059 98.4961 46.0918 92.4805 46.0918H80ZM90.7422 22.2832H85.8984V29.6855H90.0195C93.3398 29.6855 95.1172 28.2988 95.1172 25.8574V25.8184C95.1172 23.5723 93.4961 22.2832 90.7422 22.2832ZM90.7227 33.6895H85.8984V41.6973H90.9766C94.3555 41.6973 96.2109 40.3105 96.2109 37.6934V37.6543C96.2109 35.0762 94.3359 33.6895 90.7227 33.6895Z" fill="black"/>
</svg>
