<svg width="308" height="40" viewBox="0 0 308 40" fill="none" xmlns="http://www.w3.org/2000/svg">
<path d="M300.733 8.78051V2.59387H303.073C304.275 2.59387 305.062 3.32272 305.062 4.43743V4.44601C305.062 5.30348 304.586 5.96801 303.808 6.21239L305.252 8.78051H304.34L303.003 6.33244H301.512V8.78051H300.733ZM301.512 5.65075H303.003C303.803 5.65075 304.257 5.22202 304.257 4.46316V4.45458C304.257 3.71716 303.769 3.27985 302.969 3.27985H301.512V5.65075Z" fill="#7ACB00"/>
<path fill-rule="evenodd" clip-rule="evenodd" d="M7.8722 4.87805C3.52451 4.87805 0 8.37241 0 12.6829V32.1951C0 36.5056 3.52451 40 7.8722 40H43.2971V33.1707H5.90415V10.7317H43.2971V4.87805H7.8722Z" fill="#7ACB00"/>
<path fill-rule="evenodd" clip-rule="evenodd" d="M60.0256 4.87805H65.9298V18.5366H96.4346V4.87805H102.339V18.5366V25.3659V40H96.4346V25.3659H65.9298V40H60.0256V25.3659V18.5366V4.87805Z" fill="#7ACB00"/>
<path fill-rule="evenodd" clip-rule="evenodd" d="M128.907 4.87805H123.003V32.1951C123.003 36.5056 126.528 40 130.875 40H157.444C161.792 40 165.316 36.5056 165.316 32.1951V4.87805H159.412V33.1707H128.907V4.87805Z" fill="#7ACB00"/>
<path fill-rule="evenodd" clip-rule="evenodd" d="M222.39 4.87805H184.997V22.439V39.0244H222.39C226.737 39.0244 230.262 35.53 230.262 31.2195V27.3171L225.342 21.9512L230.262 17.561V12.6829C230.262 8.37242 226.737 4.87805 222.39 4.87805ZM224.358 10.7317H190.901V19.5122H224.358V10.7317ZM224.358 24.3902H190.901V34.1463H224.358V24.3902Z" fill="#7ACB00"/>
<path fill-rule="evenodd" clip-rule="evenodd" d="M285.367 4.87805H247.974V22.439V39.0244H285.367C289.715 39.0244 293.24 35.53 293.24 31.2195V27.3171L288.319 21.9512L293.24 17.561V12.6829C293.24 8.37242 289.715 4.87805 285.367 4.87805ZM287.335 10.7317H253.879V19.5122H287.335V10.7317ZM287.335 24.3902H253.879V34.1463H287.335V24.3902Z" fill="#7ACB00"/>
<path fill-rule="evenodd" clip-rule="evenodd" d="M303.08 9.75607C305.254 9.75607 307.016 8.00889 307.016 5.85363C307.016 3.69838 305.254 1.9512 303.08 1.9512C300.906 1.9512 299.144 3.69838 299.144 5.85363C299.144 8.00889 300.906 9.75607 303.08 9.75607ZM303.08 10.7317C305.797 10.7317 308 8.54771 308 5.85363C308 3.15956 305.797 0.975586 303.08 0.975586C300.362 0.975586 298.16 3.15956 298.16 5.85363C298.16 8.54771 300.362 10.7317 303.08 10.7317Z" fill="#7ACB00"/>
</svg>
