<svg width="151" height="64" viewBox="0 0 151 64" fill="none" xmlns="http://www.w3.org/2000/svg">
<path d="M64 32C64 49.6731 49.6731 64 32 64C14.3269 64 0 49.6731 0 32C0 14.3269 14.3269 0 32 0C49.6731 0 64 14.3269 64 32Z" fill="#00833F"/>
<path fill-rule="evenodd" clip-rule="evenodd" d="M16 18.2857C16 12.2299 20.7101 7.27424 26.6667 6.88217V6.85718H27.4286H48.7619C48.7619 13.169 43.6452 18.2857 37.3333 18.2857H27.4286V27.4286H46.4762C46.4762 34.1612 41.0183 39.6191 34.2857 39.6191H27.4286V46.4762C27.4286 52.788 22.3118 57.9048 16 57.9048V18.2857Z" fill="white"/>
<path d="M87.2381 58.6667C75.168 58.6667 67.0476 52.7753 67.0476 43.9729V43.9036C67.0476 37.1458 71.8819 32.6753 78.2645 31.5663V31.2891C72.7351 30.1108 68.7222 25.9175 68.7222 20.4767V20.4074C68.7222 12.5406 76.1791 6.85718 87.2381 6.85718C98.297 6.85718 105.754 12.5406 105.754 20.4074V20.4767C105.754 25.9175 101.741 30.1108 96.2116 31.2891V31.5663C102.594 32.6753 107.429 37.1458 107.429 43.9036V43.9729C107.429 52.7753 99.3081 58.6667 87.2381 58.6667ZM87.2381 27.3037C90.3346 27.3037 92.5464 25.1205 92.5464 21.9322V21.8629C92.5464 18.7093 90.2714 16.5953 87.2381 16.5953C84.2048 16.5953 81.9298 18.7093 81.9298 21.8629V21.9322C81.9298 25.1205 84.1416 27.3037 87.2381 27.3037ZM87.2381 48.8939C90.9033 48.8939 93.4311 46.3988 93.4311 42.9679V42.8986C93.4311 39.5024 90.9665 37.0072 87.2381 37.0072C83.5096 37.0072 81.0451 39.5024 81.0451 42.8986V42.9679C81.0451 46.3988 83.5728 48.8939 87.2381 48.8939Z" fill="#00833F"/>
<path d="M131.048 59.4286C119.205 59.4286 111.238 53.3639 111.238 44.3026V44.2312C111.238 37.2747 115.981 32.6727 122.243 31.5311V31.2457C116.818 30.0328 112.881 25.7162 112.881 20.1153V20.0439C112.881 11.9458 120.197 6.09521 131.048 6.09521C141.898 6.09521 149.214 11.9458 149.214 20.0439V20.1153C149.214 25.7162 145.277 30.0328 139.852 31.2457V31.5311C146.114 32.6727 150.857 37.2747 150.857 44.2312V44.3026C150.857 53.3639 142.89 59.4286 131.048 59.4286ZM131.048 27.1432C134.086 27.1432 136.256 24.8957 136.256 21.6136V21.5423C136.256 18.2959 134.024 16.1197 131.048 16.1197C128.071 16.1197 125.839 18.2959 125.839 21.5423V21.6136C125.839 24.8957 128.009 27.1432 131.048 27.1432ZM131.048 49.3683C134.644 49.3683 137.124 46.7998 137.124 43.268V43.1967C137.124 39.7006 134.706 37.132 131.048 37.132C127.389 37.132 124.971 39.7006 124.971 43.1967V43.268C124.971 46.7998 127.451 49.3683 131.048 49.3683Z" fill="#00833F"/>
</svg>
