<svg width="167" height="64" viewBox="0 0 167 64" fill="none" xmlns="http://www.w3.org/2000/svg">
<path d="M1.72974 24.2162C1.72974 10.842 12.5717 0 25.946 0H54.4865V32C54.4865 45.3742 43.6445 56.2162 30.2703 56.2162H1.72974V24.2162Z" fill="#765ED0"/>
<path d="M9.51343 32C9.51343 18.6258 20.3554 7.78381 33.7296 7.78381H62.2702V39.7838C62.2702 53.1581 51.4282 64 38.054 64H9.51343V32Z" fill="#E02828"/>
<path fill-rule="evenodd" clip-rule="evenodd" d="M25.946 20.7568C25.946 17.8909 28.2693 15.5676 31.1352 15.5676H34.5947H53.6217V18.1622C53.6217 21.0281 51.2984 23.3514 48.4325 23.3514H34.5947V33.7298H51.892V36.3244C51.892 39.1903 49.5687 41.5136 46.7028 41.5136H34.5947V58.8109H25.946V20.7568Z" fill="white"/>
<path d="M150.581 46.0918V35.5645L140.776 17.9082H147.143L153.471 29.9395H153.608L159.917 17.9082H166.303L156.479 35.5645V46.0918H150.581Z" fill="black"/>
<path d="M113.499 46.0918V17.9082H118.655L131.39 36.2285H131.507V17.9082H137.386V46.0918H132.269L119.495 27.6348H119.378V46.0918H113.499Z" fill="black"/>
<path d="M102.433 46.0918V17.9082H108.332V46.0918H102.433Z" fill="black"/>
<path d="M80 46.0918V17.9082H98.457V22.7715H85.8984V30.3301H97.3633V34.998H85.8984V46.0918H80Z" fill="black"/>
</svg>
