<svg width="178" height="64" viewBox="0 0 178 64" fill="none" xmlns="http://www.w3.org/2000/svg">
<path fill-rule="evenodd" clip-rule="evenodd" d="M28.8239 16.0029C28.5848 15.2551 28.728 14.4907 29.1009 13.8644C29.113 13.8441 33.9415 5.75999 34.0488 5.58061C34.4326 4.92753 35.0514 4.41668 35.8191 4.16329C37.5345 3.59706 39.3768 4.55068 39.9342 6.29326C40.3174 7.49136 39.9554 8.70837 39.1958 9.60431C39.1807 9.62227 33.0225 16.885 33.0064 16.9023C32.7257 17.2203 32.363 17.4712 31.9343 17.6127C30.6378 18.0407 29.2451 17.32 28.8239 16.0029ZM24.0209 24.1224C21.1027 22.8351 17.0139 21.0313 17.0002 21.0249C16.333 20.7132 15.8175 20.1002 15.6945 19.3114C15.5025 18.0803 16.3294 16.9242 17.5411 16.7293C17.8504 16.6796 18.1545 16.6978 18.4394 16.7721L29.028 19.1616C30.2883 19.449 31.3052 20.4984 31.5197 21.874C31.8018 23.6836 30.5864 25.3829 28.8051 25.6695C28.1318 25.7779 27.4844 25.6531 26.9011 25.393L24.0209 24.1224ZM46.8757 25.9087C46.174 25.7432 45.4142 25.8422 44.7889 26.3054C43.6874 27.1212 43.4454 28.6898 44.2485 29.8089C44.5141 30.1789 44.8615 30.4512 45.2463 30.6234C45.2673 30.6337 53.9756 34.3247 53.9971 34.3336C55.0715 34.7889 56.3225 34.7604 57.3245 34.0182C58.7821 32.939 59.1021 30.8637 58.0396 29.3832C57.564 28.7205 56.8939 28.2815 56.1637 28.1139L47.6312 26.088L46.8757 25.9087ZM40.0969 44.8767C40.723 45.3387 41.0496 46.0427 41.1105 46.7719C41.1125 46.7956 41.885 56.2187 41.902 56.4281C41.9695 57.1854 41.7645 57.9683 41.2901 58.6319C40.2301 60.1142 38.1881 60.4432 36.7287 59.3664C35.7253 58.6261 35.3137 57.4256 35.4097 56.2469L35.5059 55.0663L35.5063 55.0613C35.7153 52.4975 36.1907 46.6655 36.1931 46.647C36.236 46.2222 36.3843 45.8025 36.6492 45.432C37.4503 44.3114 38.994 44.0629 40.0969 44.8767ZM19.7642 47.687C20.4285 47.4036 20.9872 46.8713 21.2271 46.1239C21.6496 44.8072 20.9415 43.3918 19.6454 42.9625C19.2168 42.8207 18.7783 42.8065 18.367 42.8958C18.344 42.9003 9.15762 45.0894 9.13501 45.0948C8.00164 45.3648 7.00401 46.1323 6.61962 47.33C6.06051 49.072 6.99737 50.9445 8.71206 51.5124C9.47966 51.7666 10.276 51.7238 10.9645 51.4253C11.1553 51.3444 19.7427 47.6962 19.7642 47.687ZM14.2598 28.2534C13.486 28.2538 12.8144 27.8793 12.343 27.3258C12.3277 27.3078 6.24893 20.1471 6.11397 19.9878C5.62094 19.4157 5.33374 18.6599 5.33334 17.8398C5.33268 16.0076 6.79421 14.5218 8.59786 14.5211C9.83787 14.5206 10.8657 15.2458 11.4703 16.2564L12.2414 17.546L12.2485 17.5579L12.2505 17.5612C13.6365 19.8788 16.3845 24.474 16.3928 24.4897C16.604 24.8591 16.7271 25.2869 16.7272 25.7449C16.7278 27.1298 15.623 28.2528 14.2598 28.2534ZM36.4428 16.4173C36.4406 16.4355 35.8244 22.9434 35.5444 25.9003L35.4087 27.3324C35.3452 27.9761 35.4282 28.6403 35.7373 29.2575C36.5556 30.8902 38.5218 31.5402 40.1292 30.7091C41.351 30.0772 42.0197 28.7708 41.8997 27.4642L40.869 16.4955C40.8505 16.1971 40.7738 15.8975 40.6318 15.6141C40.0752 14.5034 38.7376 14.0613 37.6443 14.6267C36.9435 14.989 36.5288 15.6764 36.4428 16.4173ZM36.2212 36.1563C36.2438 36.1512 46.7344 33.7776 46.7574 33.7728C47.4774 33.6264 48.2493 33.814 48.8055 34.3784C49.6736 35.2593 49.6743 36.6883 48.8071 37.57C48.5858 37.7951 48.3293 37.9619 48.0558 38.0721C48.0389 38.0794 41.8611 40.809 39.2514 41.9621L38.8994 42.1176L38.1093 42.4667C36.9236 42.9874 35.4936 42.7464 34.5236 41.7619C33.2477 40.4671 33.2467 38.3666 34.5214 37.0703C35.0031 36.5803 35.599 36.2945 36.2212 36.1563ZM33.7022 49.1101C33.6942 49.0958 31.0573 44.5498 29.4448 41.7699L28.2225 39.6627C27.9013 39.1039 27.45 38.6163 26.8426 38.3016C25.2359 37.4692 23.2691 38.1177 22.4499 39.75C21.827 40.9909 22.0421 42.447 22.8952 43.4323C22.9105 43.4501 30.061 51.6725 30.0764 51.6902C30.264 51.9206 30.4992 52.117 30.7781 52.2614C31.8712 52.8276 33.209 52.3866 33.7664 51.2762C34.1235 50.5647 34.0613 49.7608 33.7022 49.1101ZM20.8828 34.836C18.7792 37.2504 15.3184 41.2226 15.3073 41.2349C14.809 41.7827 14.0755 42.091 13.2992 41.9655C12.0875 41.7696 11.2614 40.613 11.4542 39.3821C11.5034 39.0681 11.6146 38.78 11.7725 38.5277L17.2878 29.0398C17.9469 27.9114 19.2439 27.2541 20.598 27.4729C22.3792 27.7608 23.5934 29.4609 23.3101 31.2704C23.2031 31.9542 22.8857 32.541 22.4618 33.0238C22.4571 33.0291 21.7986 33.7849 20.8828 34.836Z" fill="white"/>
<path d="M160.299 52C148.993 52 141.893 44.4447 141.893 31.9866V31.9598C141.893 19.5017 149.02 12 160.299 12C169.676 12 176.401 17.921 177.151 26.1192L177.178 26.3603H169.301L169.194 25.9049C168.283 21.645 165.121 18.8587 160.299 18.8587C154.11 18.8587 150.145 23.8419 150.145 31.933V31.9598C150.145 40.1045 154.11 45.1413 160.299 45.1413C164.961 45.1413 168.229 42.4622 169.274 37.8808L169.328 37.6129H177.204L177.178 37.9076C176.428 46.1326 169.649 52 160.299 52Z" fill="white"/>
<path d="M127.919 51.3302V12.6698H136.01V51.3302H127.919Z" fill="white"/>
<path d="M80 51.3302V12.6698H89.3503L100.335 40.4528H100.496L111.48 12.6698H120.831V51.3302H113.624V25.1815H113.382L102.96 51.3302H97.8701L87.4213 25.1815H87.207V51.3302H80Z" fill="white"/>
</svg>
