<svg width="241" height="64" viewBox="0 0 241 64" fill="none" xmlns="http://www.w3.org/2000/svg">
<path fill-rule="evenodd" clip-rule="evenodd" d="M28.8238 16.0029C28.5847 15.2551 28.7279 14.4907 29.1008 13.8644C29.1129 13.8441 33.9414 5.75999 34.0487 5.58061C34.4325 4.92753 35.0513 4.41668 35.819 4.16329C37.5344 3.59706 39.3767 4.55068 39.9341 6.29326C40.3173 7.49136 39.9554 8.70837 39.1957 9.60431C39.1806 9.62227 33.0224 16.885 33.0063 16.9023C32.7256 17.2203 32.3629 17.4712 31.9342 17.6127C30.6377 18.0407 29.245 17.32 28.8238 16.0029ZM24.0208 24.1224C21.1026 22.8351 17.0138 21.0313 17.0001 21.0249C16.3329 20.7132 15.8174 20.1002 15.6945 19.3114C15.5025 18.0803 16.3293 16.9242 17.541 16.7293C17.8503 16.6796 18.1544 16.6978 18.4393 16.7721L29.0279 19.1616C30.2882 19.449 31.3051 20.4984 31.5196 21.874C31.8017 23.6836 30.5863 25.3829 28.805 25.6695C28.1317 25.7779 27.4843 25.6531 26.901 25.393L24.0208 24.1224ZM46.8757 25.9087C46.1739 25.7432 45.4141 25.8422 44.7888 26.3054C43.6873 27.1212 43.4453 28.6898 44.2484 29.8089C44.514 30.1789 44.8614 30.4512 45.2462 30.6234C45.2672 30.6337 53.9755 34.3247 53.997 34.3336C55.0714 34.7889 56.3224 34.7604 57.3244 34.0182C58.782 32.939 59.102 30.8637 58.0395 29.3832C57.5639 28.7205 56.8938 28.2815 56.1637 28.1139L47.6312 26.088L46.8757 25.9087ZM40.0968 44.8767C40.7229 45.3387 41.0495 46.0427 41.1104 46.7719C41.1124 46.7956 41.8849 56.2187 41.9019 56.4281C41.9695 57.1854 41.7644 57.9683 41.29 58.6319C40.23 60.1142 38.188 60.4432 36.7286 59.3664C35.7252 58.6261 35.3136 57.4256 35.4096 56.2469L35.5058 55.0663L35.5062 55.0613C35.7152 52.4975 36.1906 46.6655 36.193 46.647C36.236 46.2222 36.3842 45.8025 36.6491 45.432C37.4502 44.3114 38.9939 44.0629 40.0968 44.8767ZM19.7641 47.687C20.4284 47.4036 20.9871 46.8713 21.227 46.1239C21.6496 44.8072 20.9414 43.3918 19.6453 42.9625C19.2167 42.8207 18.7782 42.8065 18.367 42.8958C18.344 42.9003 9.15753 45.0894 9.13492 45.0948C8.00154 45.3648 7.00392 46.1323 6.61953 47.33C6.06042 49.072 6.99727 50.9445 8.71197 51.5124C9.47956 51.7666 10.2759 51.7238 10.9644 51.4253C11.1552 51.3444 19.7426 47.6962 19.7641 47.687ZM14.2597 28.2534C13.4859 28.2538 12.8143 27.8793 12.3429 27.3258C12.3276 27.3078 6.24884 20.1471 6.11388 19.9878C5.62085 19.4157 5.33365 18.6599 5.33325 17.8398C5.33259 16.0076 6.79412 14.5218 8.59777 14.5211C9.83778 14.5206 10.8656 15.2458 11.4702 16.2564L12.2413 17.546L12.2484 17.5579L12.2504 17.5612C13.6364 19.8788 16.3844 24.474 16.3927 24.4897C16.6039 24.8591 16.727 25.2869 16.7271 25.7449C16.7277 27.1298 15.6229 28.2528 14.2597 28.2534ZM36.4427 16.4173C36.4405 16.4355 35.8243 22.9434 35.5443 25.9003L35.4087 27.3324C35.3451 27.9761 35.4281 28.6403 35.7372 29.2575C36.5555 30.8902 38.5217 31.5402 40.1291 30.7091C41.3509 30.0772 42.0196 28.7708 41.8997 27.4642L40.8689 16.4955C40.8504 16.1971 40.7737 15.8975 40.6317 15.6141C40.0751 14.5034 38.7375 14.0613 37.6442 14.6267C36.9434 14.989 36.5287 15.6764 36.4427 16.4173ZM36.2211 36.1563C36.2437 36.1512 46.7343 33.7776 46.7574 33.7728C47.4773 33.6264 48.2492 33.814 48.8054 34.3784C49.6735 35.2593 49.6742 36.6883 48.807 37.57C48.5857 37.7951 48.3292 37.9619 48.0557 38.0721C48.0388 38.0794 41.861 40.809 39.2513 41.9621L38.8993 42.1176L38.1092 42.4667C36.9235 42.9874 35.4935 42.7464 34.5235 41.7619C33.2476 40.4671 33.2466 38.3666 34.5213 37.0703C35.003 36.5803 35.5989 36.2945 36.2211 36.1563ZM33.7021 49.1101C33.6941 49.0958 31.0572 44.5498 29.4447 41.7699L28.2224 39.6627C27.9012 39.1039 27.4499 38.6163 26.8425 38.3016C25.2358 37.4692 23.269 38.1177 22.4498 39.75C21.8269 40.9909 22.042 42.447 22.8951 43.4323C22.9104 43.4501 30.0609 51.6725 30.0763 51.6902C30.2639 51.9206 30.4991 52.117 30.778 52.2614C31.8711 52.8276 33.2089 52.3866 33.7663 51.2762C34.1235 50.5647 34.0612 49.7608 33.7021 49.1101ZM20.8827 34.836C18.7791 37.2504 15.3183 41.2226 15.3072 41.2349C14.8089 41.7827 14.0754 42.091 13.2991 41.9655C12.0874 41.7696 11.2613 40.613 11.4541 39.3821C11.5033 39.0681 11.6146 38.78 11.7724 38.5277L17.2877 29.0398C17.9468 27.9114 19.2438 27.2541 20.5979 27.4729C22.3791 27.7608 23.5933 29.4609 23.31 31.2704C23.203 31.9542 22.8856 32.541 22.4617 33.0238C22.457 33.0291 21.7985 33.7849 20.8827 34.836Z" fill="url(#paint0_linear_2502_4993)"/>
<path d="M221.103 45.9258V17.7422H226.806V33.3672H226.923L233.993 24.9883H240.458L232.548 33.9922L240.849 45.9258H234.267L228.271 37.3711L226.806 38.9922V45.9258H221.103Z" fill="black"/>
<path d="M197.38 45.9258V24.9883H203.083V28.4258H203.201C204.275 26.0234 206.423 24.5586 209.587 24.5586C214.197 24.5586 216.814 27.5078 216.814 32.4102V45.9258H211.111V33.582C211.111 30.8477 209.822 29.2852 207.263 29.2852C204.705 29.2852 203.083 31.1602 203.083 33.8945V45.9258H197.38Z" fill="black"/>
<path d="M181.217 46.2578C177.018 46.2578 174.186 43.6211 174.186 39.9297V39.8906C174.186 36.082 177.135 33.8555 182.33 33.5234L187.506 33.2109V31.9219C187.506 30.0664 186.295 28.9141 184.068 28.9141C181.939 28.9141 180.65 29.9102 180.377 31.2578L180.338 31.4336H175.123L175.143 31.1992C175.455 27.332 178.775 24.5586 184.303 24.5586C189.713 24.5586 193.209 27.3516 193.209 31.5703V45.9258H187.506V42.8008H187.389C186.197 44.9492 183.971 46.2578 181.217 46.2578ZM179.83 39.6367C179.83 41.1797 181.1 42.0977 183.072 42.0977C185.631 42.0977 187.506 40.457 187.506 38.2695V36.7656L183.189 37.0391C180.982 37.1758 179.83 38.1133 179.83 39.5977V39.6367Z" fill="black"/>
<path d="M149.409 45.9258V17.7422H161.674C166.987 17.7422 170.327 20.4766 170.327 24.8125V24.8516C170.327 27.9375 167.983 30.5742 164.877 30.9844V31.1016C168.803 31.3945 171.635 34.168 171.635 37.8594V37.8984C171.635 42.8398 167.905 45.9258 161.889 45.9258H149.409ZM160.151 22.1172H155.307V29.5195H159.428C162.749 29.5195 164.526 28.1328 164.526 25.6914V25.6523C164.526 23.4062 162.905 22.1172 160.151 22.1172ZM160.131 33.5234H155.307V41.5312H160.385C163.764 41.5312 165.62 40.1445 165.62 37.5273V37.4883C165.62 34.9102 163.745 33.5234 160.131 33.5234Z" fill="black"/>
<path d="M114.933 45.9258V17.7422H127.199C132.511 17.7422 135.851 20.4766 135.851 24.8125V24.8516C135.851 27.9375 133.507 30.5742 130.402 30.9844V31.1016C134.328 31.3945 137.16 34.168 137.16 37.8594V37.8984C137.16 42.8398 133.429 45.9258 127.414 45.9258H114.933ZM125.675 22.1172H120.832V29.5195H124.953C128.273 29.5195 130.05 28.1328 130.05 25.6914V25.6523C130.05 23.4062 128.429 22.1172 125.675 22.1172ZM125.656 33.5234H120.832V41.5312H125.91C129.289 41.5312 131.144 40.1445 131.144 37.5273V37.4883C131.144 34.9102 129.269 33.5234 125.656 33.5234Z" fill="black"/>
<path d="M80 45.9258V17.7422H86.8164L94.8242 37.9961H94.9414L102.949 17.7422H109.766V45.9258H104.512V26.8633H104.336L96.7383 45.9258H93.0273L85.4102 26.8633H85.2539V45.9258H80Z" fill="black"/>
<defs>
<linearGradient id="paint0_linear_2502_4993" x1="31.9999" y1="4" x2="31.9999" y2="60" gradientUnits="userSpaceOnUse">
<stop stop-color="#FF4142"/>
<stop offset="1" stop-color="#DF2328"/>
</linearGradient>
</defs>
</svg>
