<svg width="320" height="64" viewBox="0 0 320 64" fill="none" xmlns="http://www.w3.org/2000/svg">
<path fill-rule="evenodd" clip-rule="evenodd" d="M55.7533 26.106L31.3282 1.33337L19.1157 13.6763L5.33862 27.3663C8.98934 24.1068 19.0288 23.0638 22.071 22.7596C33.7621 21.3688 46.8002 22.5857 55.7533 26.106Z" fill="url(#paint0_linear_2502_5001)"/>
<path fill-rule="evenodd" clip-rule="evenodd" d="M22.0712 36.971V29.8869V22.7594C18.4639 23.1071 4.94763 24.5412 4.03495 29.4523C3.16573 34.32 18.7682 36.5799 22.0712 36.971Z" fill="url(#paint1_linear_2502_5001)"/>
<path fill-rule="evenodd" clip-rule="evenodd" d="M6.81665 37.0142L31.2417 61.7869L43.4541 49.444L57.2311 35.7539C53.5805 39.0134 43.541 40.0565 40.4987 40.3607C28.8513 41.7514 15.813 40.5781 6.81665 37.0142Z" fill="url(#paint2_linear_2502_5001)"/>
<path fill-rule="evenodd" clip-rule="evenodd" d="M40.542 26.1493V33.2334V40.3175C44.1491 39.9698 57.6655 38.5356 58.5782 33.6245C59.4474 28.8005 43.845 26.5404 40.542 26.1493Z" fill="url(#paint3_linear_2502_5001)"/>
<path d="M299.652 46.0918V17.9082H305.355V33.5332H305.472L312.543 25.1543H319.008L311.097 34.1582L319.398 46.0918H312.816L306.82 37.5371L305.355 39.1582V46.0918H299.652Z" fill="black"/>
<path d="M275.93 46.0918V25.1543H281.633V28.5918H281.75C282.824 26.1895 284.973 24.7246 288.137 24.7246C292.746 24.7246 295.364 27.6738 295.364 32.5762V46.0918H289.66V33.748C289.66 31.0137 288.371 29.4512 285.813 29.4512C283.254 29.4512 281.633 31.3262 281.633 34.0605V46.0918H275.93Z" fill="black"/>
<path d="M259.766 46.4238C255.567 46.4238 252.735 43.7871 252.735 40.0957V40.0566C252.735 36.248 255.684 34.0215 260.88 33.6895L266.055 33.377V32.0879C266.055 30.2324 264.844 29.0801 262.618 29.0801C260.489 29.0801 259.2 30.0762 258.927 31.4238L258.887 31.5996H253.673L253.692 31.3652C254.005 27.498 257.325 24.7246 262.852 24.7246C268.262 24.7246 271.759 27.5176 271.759 31.7363V46.0918H266.055V42.9668H265.938C264.747 45.1152 262.52 46.4238 259.766 46.4238ZM258.38 39.8027C258.38 41.3457 259.649 42.2637 261.622 42.2637C264.18 42.2637 266.055 40.623 266.055 38.4355V36.9316L261.739 37.2051C259.532 37.3418 258.38 38.2793 258.38 39.7637V39.8027Z" fill="black"/>
<path d="M227.958 46.0918V17.9082H240.224C245.536 17.9082 248.876 20.6426 248.876 24.9785V25.0176C248.876 28.1035 246.532 30.7402 243.427 31.1504V31.2676C247.353 31.5605 250.185 34.334 250.185 38.0254V38.0645C250.185 43.0059 246.454 46.0918 240.438 46.0918H227.958ZM238.7 22.2832H233.856V29.6855H237.978C241.298 29.6855 243.075 28.2988 243.075 25.8574V25.8184C243.075 23.5723 241.454 22.2832 238.7 22.2832ZM238.681 33.6895H233.856V41.6973H238.935C242.313 41.6973 244.169 40.3105 244.169 37.6934V37.6543C244.169 35.0762 242.294 33.6895 238.681 33.6895Z" fill="black"/>
<path d="M184.049 46.0918V25.1543H189.752V28.6699H189.869C190.729 26.2871 192.916 24.7246 195.729 24.7246C198.658 24.7246 200.787 26.2871 201.49 29.041H201.607C202.545 26.4043 205.045 24.7246 208.111 24.7246C212.213 24.7246 214.967 27.5566 214.967 31.7754V46.0918H209.264V33.2012C209.264 30.7793 208.053 29.4512 205.846 29.4512C203.678 29.4512 202.252 31.0332 202.252 33.3574V46.0918H196.764V33.0254C196.764 30.7793 195.494 29.4512 193.385 29.4512C191.217 29.4512 189.752 31.0918 189.752 33.4551V46.0918H184.049Z" fill="black"/>
<path d="M170.249 46.5215C163.881 46.5215 159.877 42.4395 159.877 35.623V35.584C159.877 28.8457 163.979 24.7246 170.229 24.7246C176.499 24.7246 180.62 28.8066 180.62 35.584V35.623C180.62 42.459 176.577 46.5215 170.249 46.5215ZM170.268 42.0488C173.042 42.0488 174.819 39.7051 174.819 35.623V35.584C174.819 31.541 173.002 29.1973 170.229 29.1973C167.475 29.1973 165.678 31.541 165.678 35.584V35.623C165.678 39.7246 167.456 42.0488 170.268 42.0488Z" fill="black"/>
<path d="M144.671 46.5801C136.429 46.5801 131.253 41.0723 131.253 31.9902V31.9707C131.253 22.8887 136.448 17.4199 144.671 17.4199C151.507 17.4199 156.409 21.7363 156.956 27.7129L156.976 27.8887H151.233L151.155 27.5566C150.491 24.4512 148.187 22.4199 144.671 22.4199C140.159 22.4199 137.269 26.0527 137.269 31.9512V31.9707C137.269 37.9082 140.159 41.5801 144.671 41.5801C148.069 41.5801 150.452 39.627 151.214 36.2871L151.253 36.0918H156.995L156.976 36.3066C156.429 42.3027 151.487 46.5801 144.671 46.5801Z" fill="black"/>
<path d="M112.531 46.0918L103.097 17.9082H109.621L116.066 40.0566H116.183L122.609 17.9082H129.152L119.718 46.0918H112.531Z" fill="black"/>
<path d="M80 46.0918V17.9082H91.3281C97.2656 17.9082 101.23 21.7363 101.23 27.5371V27.5762C101.23 33.377 97.2656 37.2051 91.3281 37.2051H85.8984V46.0918H80ZM89.8828 22.5762H85.8984V32.5957H89.8828C93.2617 32.5957 95.2539 30.7988 95.2539 27.5957V27.5566C95.2539 24.3535 93.2617 22.5762 89.8828 22.5762Z" fill="black"/>
<defs>
<linearGradient id="paint0_linear_2502_5001" x1="77.8912" y1="29.7215" x2="76.4615" y2="7.72537" gradientUnits="userSpaceOnUse">
<stop stop-color="#60BAE2"/>
<stop offset="1" stop-color="#0062A3"/>
</linearGradient>
<linearGradient id="paint1_linear_2502_5001" x1="-1.4541" y1="31.0371" x2="2.52442" y2="42.8027" gradientUnits="userSpaceOnUse">
<stop stop-color="#60BCE2"/>
<stop offset="1" stop-color="#0062A3"/>
</linearGradient>
<linearGradient id="paint2_linear_2502_5001" x1="6.83426" y1="74.814" x2="57.2567" y2="74.814" gradientUnits="userSpaceOnUse">
<stop stop-color="#FFDD55"/>
<stop offset="1" stop-color="#EE8822"/>
</linearGradient>
<linearGradient id="paint3_linear_2502_5001" x1="64.0863" y1="35.292" x2="62.8738" y2="23.8588" gradientUnits="userSpaceOnUse">
<stop stop-color="#FFDD55"/>
<stop offset="1" stop-color="#EE8822"/>
</linearGradient>
</defs>
</svg>
