<svg width="185" height="64" viewBox="0 0 185 64" fill="none" xmlns="http://www.w3.org/2000/svg">
<path fill-rule="evenodd" clip-rule="evenodd" d="M7.3192 30.9021C7.47848 31.2581 8.44774 31.717 11.4534 31.3292L11.6209 31.3075C15.8907 30.7569 26.3064 29.4138 33.4557 26.6335C34.1438 26.366 34.7668 26.1323 35.3302 25.9289L32.5343 23.2035C32.3751 23.0483 32.463 22.7778 32.6831 22.7459L37.8244 21.9988C37.9118 21.9861 37.9873 21.9312 38.0264 21.852L40.3256 17.1932C40.4241 16.9938 40.7084 16.9938 40.8069 17.1932L43.1061 21.852C43.1452 21.9312 43.2208 21.9861 43.3082 21.9988L48.4495 22.7459C48.6695 22.7778 48.7574 23.0483 48.5982 23.2035L44.8779 26.8299C44.8146 26.8916 44.7858 26.9804 44.8007 27.0674L45.679 32.1879C45.7165 32.4071 45.4865 32.5743 45.2896 32.4708L40.6911 30.0532C40.6129 30.0121 40.5196 30.0121 40.4414 30.0532L35.8429 32.4708C35.646 32.5743 35.416 32.4071 35.4536 32.1879L36.1661 28.0337C35.5863 28.2915 32.8678 29.1379 30.2563 29.9509L30.2562 29.951C27.954 30.6677 25.735 31.3586 25.1378 31.5975C24.6045 31.8108 23.0587 32.3382 21.2948 32.9399C18.6213 33.852 15.4469 34.935 14.5391 35.354C14.0282 35.5898 13.7131 35.745 13.452 35.8735L13.4519 35.8736C12.8216 36.184 12.5064 36.3392 10.5142 37.0981C10.0506 37.3299 9.37787 37.6894 8.60588 38.102L8.60552 38.1022C8.00856 38.4212 7.35225 38.772 6.68735 39.12C2.33007 41.6331 -0.0671549 43.9555 0.406557 45.6038C0.991675 47.6399 5.83515 48.2218 12.9985 47.4893C17.3787 52.6244 23.8966 55.8806 31.175 55.8806C43.2433 55.8806 53.2207 46.9286 54.8291 35.3027C60.8135 32.2609 64.2827 29.3616 63.7214 27.4086C63.2213 25.6684 59.6105 24.9905 54.0993 25.2875C51.199 15.3664 42.0334 8.11938 31.175 8.11938C18.3541 8.11938 7.89295 18.2228 7.3192 30.9021Z" fill="#00A3E0"/>
<path d="M158.142 46L167.107 31.8008V31.7422L158.2 17.8164H165.134L171.13 27.9727H171.345L177.302 17.8164H183.884L174.646 31.8398V31.918L183.767 46H177.048L170.857 36.1172H170.661L164.509 46H158.142Z" fill="black"/>
<path d="M136.236 46V17.8164H154.908V22.6797H142.135V29.4375H154.185V34.0469H142.135V41.1367H154.908V46H136.236Z" fill="black"/>
<path d="M107.162 46V17.8164H112.319L125.053 36.1367H125.17V17.8164H131.049V46H125.932L113.158 27.543H113.041V46H107.162Z" fill="black"/>
<path d="M89.3582 46V22.6797H81.2136V17.8164H103.421V22.6797H95.2566V46H89.3582Z" fill="black"/>
</svg>
