<svg width="186" height="64" viewBox="0 0 186 64" fill="none" xmlns="http://www.w3.org/2000/svg">
<path fill-rule="evenodd" clip-rule="evenodd" d="M13.9467 57.3377C18.8192 61.2264 31.7675 53.1043 42.8675 39.1964C53.9675 25.2884 59.0159 10.8613 54.1433 6.97254C51.5395 4.89439 46.6294 6.24628 40.9276 10.0782C37.8161 8.57053 34.3241 7.72513 30.6346 7.72513C17.5816 7.72513 7 18.3067 7 31.3597C7 34.7771 7.72527 38.025 9.03028 40.958C8.1106 38.5926 7.60602 36.0199 7.60602 33.3293C7.60602 21.6987 17.0345 12.2702 28.6651 12.2702C31.3258 12.2702 33.8712 12.7637 36.2149 13.6641C32.5807 16.7383 28.8053 20.6247 25.2225 25.1138C14.1225 39.0218 9.07417 53.4489 13.9467 57.3377ZM30.0407 24.8585C33.0868 21.0418 36.2162 17.6986 39.1303 15.0505C42.6526 17.0716 45.5352 20.0814 47.3994 23.7015C45.5794 26.7488 43.3025 30.0347 40.6658 33.3384C31.8147 44.4286 22.2609 51.5206 19.3269 49.1789C16.3929 46.8373 21.1896 35.9486 30.0407 24.8585ZM43.4674 11.5091C46.1742 13.2626 48.4997 15.5547 50.2921 18.2336C52.3561 13.6651 52.8836 10.2185 51.3795 9.018C49.9813 7.90208 47.0798 8.92854 43.4674 11.5091ZM33.2552 53.8866C32.6867 54.2773 32.1223 54.6409 31.5639 54.9764C44.1862 54.4884 54.2692 44.1016 54.2692 31.3597C54.2692 29.5229 54.0597 27.735 53.6632 26.0187V25.9056C53.6585 25.9227 53.6537 25.9399 53.6489 25.9572C53.6416 25.926 53.6343 25.8949 53.6269 25.8639C53.1319 27.5453 52.4759 29.3075 51.6667 31.1157C48.2925 38.4257 41.5712 48.7506 33.3045 53.8756C33.2881 53.8793 33.2716 53.883 33.2552 53.8866Z" fill="#1072BA"/>
<path fill-rule="evenodd" clip-rule="evenodd" d="M40.2358 40.124C35.4416 46.1309 30.3664 51.1038 25.7991 54.5163C21.1691 53.5707 17.0319 51.2714 13.8189 48.0499C16.4056 45.8701 18.938 42.133 20.7268 37.5303C19.7839 35.9378 19.6946 32.9276 21.0896 30.6026C22.5401 28.1849 22.8731 24.7844 22.7768 23.3972C22.306 20.56 21.1125 18.5239 19.2518 17.8591C15.5367 16.5316 10.4146 21.1183 7.10376 28.3896C8.56475 16.7387 18.5065 7.72546 30.5535 7.72546C39.9103 7.72546 47.9972 13.1628 51.8269 21.0502C49.6158 26.6391 45.5947 33.4094 40.2358 40.124ZM54.1881 31.3601C54.1881 43.666 44.7832 53.7753 32.769 54.8922C36.8995 52.0641 41.2481 47.8039 45.1052 42.5249C49.32 36.7564 52.1975 30.7986 53.5054 25.6974C53.9515 27.5116 54.1881 29.4082 54.1881 31.3601Z" fill="#1072BA"/>
<path d="M170.444 46.0918V22.7715H162.299V17.9082H184.506V22.7715H176.342V46.0918H170.444Z" fill="#1072BA"/>
<path d="M138.499 46.0918V17.9082H149.827C155.765 17.9082 159.729 21.7363 159.729 27.5371V27.5762C159.729 33.377 155.765 37.2051 149.827 37.2051H144.397V46.0918H138.499ZM148.382 22.5762H144.397V32.5957H148.382C151.761 32.5957 153.753 30.7988 153.753 27.5957V27.5566C153.753 24.3535 151.761 22.5762 148.382 22.5762Z" fill="#1072BA"/>
<path d="M109.425 46.0918V17.9082H114.582L127.316 36.2285H127.433V17.9082H133.312V46.0918H128.195L115.421 27.6348H115.304V46.0918H109.425Z" fill="#1072BA"/>
<path d="M89.4336 46.0918L80 17.9082H86.5234L92.9688 40.0566H93.0859L99.5117 17.9082H106.055L96.6211 46.0918H89.4336Z" fill="#1072BA"/>
</svg>
