<svg width="64" height="64" viewBox="0 0 64 64" fill="none" xmlns="http://www.w3.org/2000/svg">
<rect width="64" height="64" rx="32" fill="#E82F2F"/>
<path fill-rule="evenodd" clip-rule="evenodd" d="M42.8131 16.966C42.0391 16.178 40.7728 16.1667 39.9848 16.9408L28.0424 28.672L28.0423 28.6718L27.2691 29.5229C26.9312 28.5825 26.5732 27.6095 26.2987 26.9207C25.9966 26.1627 25.1978 25.0668 24.3722 24.0499C23.0076 22.3691 18.7686 20.7744 18.9241 22.9339C19.02 24.2645 19.7388 25.2378 20.5232 26.3001C21.0223 26.9758 21.5479 27.6877 21.9567 28.5504C22.7251 30.1719 23.0324 32.6593 22.7556 34.5125C22.7132 34.5747 22.6763 34.6404 22.6468 34.7106C22.2786 35.5875 21.2175 39.1199 26.0927 42.6279C26.4176 42.8617 29.1178 44.4723 31.1137 45.6571C32.4377 46.443 34.0948 46.395 35.3736 45.5375L40.9418 41.8036L40.9417 41.8035L44.8811 37.9337C45.6691 37.1597 45.6804 35.8934 44.9064 35.1054L44.4846 34.676C43.7227 33.9005 42.4841 33.8773 41.6939 34.6147L42.437 33.8847C43.225 33.1107 43.2363 31.8444 42.4623 31.0564L42.0405 30.627C41.2664 29.839 40.0001 29.8277 39.2121 30.6018L34.4926 35.2378L37.717 38.5203L37.7168 38.5206L31.2673 31.9549L43.2097 20.2237C43.9977 19.4497 44.009 18.1834 43.2349 17.3954L42.8131 16.966ZM40.2324 25.952C39.4583 25.164 38.1921 25.1527 37.4041 25.9267L31.2674 31.9549L34.4922 35.2379L40.629 29.2097C41.4169 28.4356 41.4282 27.1694 40.6542 26.3814L40.2324 25.952Z" fill="white"/>
<rect x="17.7915" y="40.59" width="6.10873" height="14.9994" rx="1.5" transform="rotate(-45.815 17.7915 40.59)" fill="#E82F2F" stroke="white"/>
</svg>
