<svg width="20" height="18" viewBox="0 0 20 18" fill="none" xmlns="http://www.w3.org/2000/svg">
<path d="M9.04495 1.07692C9.33612 0.138839 10.6639 0.138839 10.9551 1.07692L12.3884 5.69464C12.5197 6.1177 12.9137 6.40395 13.3566 6.39811L18.1912 6.33431C19.1734 6.32135 19.5837 7.58412 18.7815 8.15092L14.8327 10.941C14.4709 11.1967 14.3204 11.6598 14.4628 12.0793L16.0175 16.6576C16.3333 17.5876 15.2592 18.3681 14.4722 17.7803L10.5984 14.887C10.2435 14.6219 9.7565 14.6219 9.40159 14.887L5.5278 17.7803C4.74084 18.3681 3.66667 17.5876 3.98249 16.6576L5.53715 12.0793C5.67958 11.6598 5.52909 11.1967 5.16731 10.941L1.21852 8.15092C0.416328 7.58412 0.826628 6.32135 1.80877 6.33431L6.6434 6.39811C7.08633 6.40395 7.48033 6.1177 7.61165 5.69464L9.04495 1.07692Z" fill="white"/>
</svg>
