<svg width="16" height="16" viewBox="0 0 16 16" fill="none" xmlns="http://www.w3.org/2000/svg">
<path d="M7.99967 1.33301C4.32367 1.33301 1.33301 4.32367 1.33301 7.99967V10.7617C1.33301 11.4443 1.93101 11.9997 2.66634 11.9997H3.33301C3.50982 11.9997 3.67939 11.9294 3.80441 11.8044C3.92944 11.6794 3.99967 11.5098 3.99967 11.333V7.90434C3.99967 7.72753 3.92944 7.55796 3.80441 7.43294C3.67939 7.30791 3.50982 7.23767 3.33301 7.23767H2.72767C3.09834 4.65767 5.31834 2.66634 7.99967 2.66634C10.681 2.66634 12.901 4.65767 13.2717 7.23767H12.6663C12.4895 7.23767 12.32 7.30791 12.1949 7.43294C12.0699 7.55796 11.9997 7.72753 11.9997 7.90434V11.9997C11.9997 12.735 11.4017 13.333 10.6663 13.333H9.33301V12.6663H6.66634V14.6663H10.6663C12.137 14.6663 13.333 13.4703 13.333 11.9997C14.0683 11.9997 14.6663 11.4443 14.6663 10.7617V7.99967C14.6663 4.32367 11.6757 1.33301 7.99967 1.33301Z" fill="black"/>
</svg>
