<svg width="32" height="32" viewBox="0 0 32 32" fill="none" xmlns="http://www.w3.org/2000/svg">
<path d="M21.9156 12.5422C23.6302 13.7616 25.7307 14.4792 27.9993 14.4792V10.1359C27.5699 10.1361 27.1417 10.0915 26.7216 10.0028V13.4216C24.4532 13.4216 22.353 12.7042 20.6381 11.4848V20.3483C20.6381 24.7823 17.0253 28.3764 12.5691 28.3764C10.9064 28.3764 9.36093 27.8763 8.07715 27.0185C9.54241 28.5092 11.5858 29.4338 13.8464 29.4338C18.303 29.4338 21.9158 25.8397 21.9158 21.4055V12.5422H21.9156ZM23.4918 8.16037C22.6155 7.20792 22.0401 5.97704 21.9156 4.61622V4.05762H20.7049C21.0097 5.78715 22.0493 7.26476 23.4918 8.16037ZM10.8957 23.6161C10.4061 22.9775 10.1414 22.1961 10.1427 21.3928C10.1427 19.3649 11.7951 17.7207 13.8338 17.7207C14.2137 17.7204 14.5913 17.7785 14.9535 17.8927V13.4523C14.5303 13.3947 14.1032 13.3701 13.6764 13.3791V16.8353C13.3141 16.721 12.9362 16.663 12.5562 16.6633C10.5176 16.6633 8.86522 18.3074 8.86522 20.3356C8.86522 21.7697 9.69112 23.0112 10.8957 23.6161Z" fill="#FF004F"/>
<path d="M20.638 11.4847C22.353 12.7041 24.4531 13.4215 26.7215 13.4215V10.0028C25.4553 9.73437 24.3344 9.07608 23.4916 8.16037C22.049 7.26467 21.0096 5.78706 20.7048 4.05762H17.5247V21.4053C17.5174 23.4277 15.8678 25.0653 13.8335 25.0653C12.6348 25.0653 11.5698 24.4968 10.8954 23.616C9.69101 23.0112 8.86502 21.7696 8.86502 20.3357C8.86502 18.3077 10.5174 16.6634 12.556 16.6634C12.9466 16.6634 13.323 16.7239 13.6762 16.8354V13.3792C9.29821 13.4692 5.77734 17.0283 5.77734 21.4054C5.77734 23.5905 6.6541 25.5713 8.07713 27.0187C9.36091 27.8763 10.9063 28.3766 12.5691 28.3766C17.0254 28.3766 20.6381 24.7822 20.6381 20.3483L20.638 11.4847Z" fill="black"/>
<path d="M26.7217 10.0024V9.07819C25.5799 9.07983 24.4606 8.76169 23.4918 8.1601C24.3493 9.09419 25.4786 9.73834 26.7217 10.0026M20.7049 4.05726C20.6759 3.89201 20.6536 3.72565 20.6381 3.5586V3H16.2471V20.3479C16.2401 22.3701 14.5905 24.0076 12.5561 24.0076C11.9794 24.0085 11.4105 23.8743 10.8955 23.6159C11.5699 24.4965 12.6349 25.0649 13.8336 25.0649C15.8678 25.0649 17.5176 23.4276 17.5248 21.4052V4.05735L20.7049 4.05726ZM13.6766 13.3789V12.3948C13.3096 12.3449 12.9397 12.32 12.5694 12.32C8.11267 12.32 4.5 15.9144 4.5 20.3479C4.5 23.1276 5.91982 25.5773 8.07742 27.0182C6.65438 25.571 5.77763 23.59 5.77763 21.4051C5.77763 17.028 9.29841 13.4689 13.6766 13.3789Z" fill="#00F2EA"/>
</svg>
