<svg width="32" height="32" viewBox="0 0 32 32" fill="none" xmlns="http://www.w3.org/2000/svg">
<path d="M29.1804 10.0077C29.021 9.46505 28.71 8.97034 28.2785 8.57282C27.8469 8.17531 27.3098 7.88886 26.7206 7.742C24.5638 7.2002 15.883 7.2002 15.883 7.2002C15.883 7.2002 7.2019 7.2166 5.04502 7.7584C4.45585 7.90527 3.91874 8.19173 3.48717 8.58927C3.0556 8.9868 2.74463 9.48153 2.58522 10.0242C1.93282 13.554 1.67974 18.9326 2.60314 22.3212C2.76256 22.8638 3.07354 23.3586 3.50511 23.7561C3.93668 24.1536 4.47378 24.44 5.06293 24.5869C7.21981 25.1287 15.9007 25.1287 15.9007 25.1287C15.9007 25.1287 24.5816 25.1287 26.7383 24.5869C27.3275 24.4401 27.8646 24.1536 28.2962 23.7561C28.7278 23.3586 29.0388 22.8639 29.1982 22.3212C29.8864 18.7864 30.0984 13.4111 29.1804 10.0077Z" fill="#FF0000"/>
<path d="M13.1201 20.0059L20.3214 16.1641L13.1201 12.3223V20.0059Z" fill="white"/>
</svg>
