<svg width="640" height="640" viewBox="0 0 640 640" fill="none" xmlns="http://www.w3.org/2000/svg">
<ellipse cx="152" cy="228.5" rx="125" ry="51.5" fill="white"/>
<path d="M191.005 498.926H423.869C434.669 498.926 443.425 490.174 443.425 479.378V158.809C443.425 148.013 434.669 139.262 423.869 139.262H191.005C180.204 139.262 171.449 148.013 171.449 158.809V479.378C171.449 490.174 180.204 498.926 191.005 498.926Z" fill="url(#paint0_linear_2670_27377)"/>
<path d="M386.571 279.896L386.382 279.07C386.557 279.03 404.161 275.023 426.009 271.943C446.19 269.099 474.226 266.487 493.185 270.195L493.22 270.203C493.312 270.23 502.634 272.823 516.031 271.09C528.389 269.492 546.846 263.78 564.596 245.64L565.203 246.233C557.286 254.324 548.566 260.662 539.286 265.073C531.858 268.603 524.056 270.912 516.098 271.937C502.831 273.644 493.49 271.157 493.006 271.024C456.918 263.973 387.27 279.736 386.571 279.896Z" fill="#97A43C"/>
<path d="M506.642 300.011C500.512 300.011 494.736 298.21 489.648 294.668C483.334 290.274 478.591 283.563 476.29 275.771C472.502 262.95 475.89 247.376 491.996 241.485C507.924 235.659 517.771 239.961 527.294 244.122C537.664 248.652 547.457 252.932 564.733 245.547L565.602 245.175L565.302 246.071C565.265 246.183 561.455 257.426 553.289 269.514C548.49 276.619 543.144 282.628 537.401 287.371C530.209 293.311 522.372 297.275 514.106 299.151C511.577 299.726 509.081 300.011 506.642 300.011ZM506.696 239.508C502.455 239.508 497.732 240.29 492.288 242.282C476.698 247.984 473.428 263.09 477.103 275.531C481.388 290.038 495.41 302.526 513.918 298.324C532.347 294.141 545.111 280.1 552.573 269.058C559.352 259.028 563.106 249.588 564.175 246.7C547.099 253.702 536.861 249.228 526.954 244.9C520.853 242.234 514.615 239.508 506.696 239.508Z" fill="#97A43C"/>
<path d="M483.123 268.907L482.648 269.61L522.27 296.365L522.745 295.663L483.123 268.907Z" fill="#97A43C"/>
<path d="M524.652 243.303L496.992 271.177L497.594 271.775L525.255 243.9L524.652 243.303Z" fill="#97A43C"/>
<path d="M472.568 332.85L472.94 330.468C473.003 330.062 474.367 320.468 463.303 316.316C456.583 313.794 444.547 306.802 442.064 296.588C440.593 290.538 442.669 284.35 448.235 278.195C453.963 271.859 461.456 270.978 468.279 275.836C474.252 280.09 478.71 288.164 480.204 297.435C481.429 305.04 481.3 316.99 473.731 330.738L472.568 332.85ZM459.362 273.598C455.605 273.598 451.962 275.337 448.864 278.763C443.499 284.698 441.488 290.627 442.889 296.387C445.288 306.257 457.037 313.059 463.601 315.522C472.313 318.791 473.707 325.466 473.841 328.726C486.129 304.821 477.656 283.554 467.786 276.527C465.035 274.568 462.167 273.598 459.362 273.598Z" fill="#97A43C"/>
<path d="M473.766 330.656L472.953 330.411C472.972 330.347 474.882 323.874 474.279 315.155C473.724 307.127 470.863 295.491 460.384 285.645C451.211 277.025 443.727 276.241 435.06 275.332C424.721 274.248 413.002 273.019 395.922 257.438L396.494 256.811C413.368 272.204 424.94 273.418 435.149 274.489C443.6 275.375 451.583 276.212 460.965 285.027C471.655 295.071 474.567 306.941 475.127 315.129C475.735 323.995 473.785 330.59 473.766 330.656Z" fill="#97A43C"/>
<path d="M453.586 280.078L448.261 306.554L449.093 306.721L454.418 280.245L453.586 280.078Z" fill="#97A43C"/>
<path d="M462.704 286.921L462.688 287.769L476.893 288.053L476.909 287.205L462.704 286.921Z" fill="#97A43C"/>
<path d="M469.065 296.659L464.74 316.564L465.57 316.744L469.894 296.839L469.065 296.659Z" fill="#97A43C"/>
<path d="M474.546 310.727L473.993 311.37L478.917 315.597L479.469 314.953L474.546 310.727Z" fill="#97A43C"/>
<path d="M386.124 172.272C386.124 172.272 431.735 209.998 413.122 243.127C394.509 276.255 382.843 249.178 382.843 249.178C382.843 249.178 369.062 254.401 387.24 213.886C395.808 194.789 386.124 172.272 386.124 172.272Z" fill="#BBD070"/>
<path d="M462.167 122.664C462.167 122.664 497.516 158.786 457.512 214.982C417.508 271.178 426.235 298.806 426.235 298.806C426.235 298.806 358.988 210.6 462.167 122.664Z" fill="#97A43C"/>
<path d="M413.931 282.558C393.882 288.079 407.567 228.724 436.808 208.591C466.049 188.457 493.208 184.81 509.083 166.273C509.083 166.273 512.658 255.37 413.931 282.558Z" fill="#48753A"/>
<path d="M486.95 88.5747C427.639 92.4067 426.511 159.804 426.511 159.804V480.787H188.363V159.804C188.363 159.804 188.092 92.632 249.099 88.5747H486.95Z" fill="url(#paint1_linear_2670_27377)"/>
<path d="M383.211 172.427H219.635V186.853H383.211V172.427Z" fill="#DFEAF0"/>
<path d="M359.307 205.788H219.635V216.006H359.307V205.788Z" fill="#DFEAF0"/>
<path d="M289.847 232.762H219.635V247.939H289.847V232.762Z" fill="#DFEAF0"/>
<path d="M383.211 232.762H310.594V247.939H383.211V232.762Z" fill="#DFEAF0"/>
<path d="M331.492 261.99H219.635V272.809H331.492V261.99Z" fill="#DFEAF0"/>
<path d="M345.663 289.039H219.635V295.05H345.663V289.039Z" fill="#DFEAF0"/>
<path d="M371.184 316.088H219.635V322.099H371.184V316.088Z" fill="#DFEAF0"/>
<path d="M290.327 376.677H219.155V342.657H290.327V376.677ZM220.115 375.717H289.366V343.617H220.115V375.717Z" fill="#DFEAF0"/>
<path d="M371.183 343.137H307.437V350.951H371.183V343.137Z" fill="#DFEAF0"/>
<path d="M352.619 359.667H307.437V367.482H352.619V359.667Z" fill="#DFEAF0"/>
<path d="M344.536 397.236H219.635V403.246H344.536V397.236Z" fill="#DFEAF0"/>
<path d="M291.425 424.285H219.635V430.295H291.425V424.285Z" fill="#DFEAF0"/>
<path d="M402.258 440.17H357.381V395.315H402.258V440.17ZM361.589 435.965H398.051V399.52H361.589V435.965Z" fill="url(#paint2_linear_2670_27377)"/>
<path d="M380.525 427.133L364.747 412.266L369.558 407.166L380.843 417.799L405.52 397.533L409.973 402.949L380.525 427.133Z" fill="url(#paint3_linear_2670_27377)"/>
<path d="M466.173 447.64H503.617V445.418H466.173V447.64Z" fill="#E2D2CA"/>
<path d="M498.598 453.422H495.317V554.457H498.598V453.422Z" fill="#706865"/>
<path d="M446.006 447.962H472.033V444.789H446.006V447.962Z" fill="#CCBDB7"/>
<path d="M454.092 447.64H463.948V417.719H454.092V447.64Z" fill="#4667A8"/>
<path d="M372.843 453.422H517.048V447.677H372.843V453.422Z" fill="#B59074"/>
<path d="M544.725 412.907C544.725 412.907 546.302 435.014 541.98 437.66C539.273 439.317 528.479 444.907 528.799 445.956C529.119 447.004 534.894 455.283 534.894 455.283C534.894 455.283 555.628 441.636 556.296 437.335C556.949 433.133 555.276 404.966 552.426 403.668C550.292 402.697 549.165 403.5 546.474 405.497C542.699 408.298 544.725 412.907 544.725 412.907Z" fill="#F75A5A"/>
<path d="M506.937 419.218L505.109 418.543C505.109 418.543 507.388 413.196 508.383 413.326C509.529 413.476 510.959 413.853 510.959 413.853L506.937 419.218Z" fill="#EAD8CF"/>
<path d="M506.519 420.141C506.752 419.967 510.404 412.966 510.404 412.966L518.204 414.026L513.989 422.318L506.519 420.141Z" fill="#DA9B5B"/>
<path d="M519.215 540.662C519.215 540.662 519.86 545.135 519.94 545.807C520.021 546.479 527.113 545.411 527.113 545.411L527.687 540.086C527.687 540.086 520.101 540.031 519.215 540.662Z" fill="#424773"/>
<path d="M519.864 545.238C519.864 545.238 517.618 547.934 515.444 549.108C513.271 550.283 509.856 550.749 508.571 551.965C507.643 552.843 505.192 556.622 514.218 556.546C523.244 556.469 527.596 557.08 528.563 555.631C529.53 554.182 527.164 544.935 527.164 544.935C527.164 544.935 525.026 545.704 519.864 545.238Z" fill="#292C47"/>
<path d="M473.778 540.705C473.778 540.705 474.423 545.178 474.504 545.849C474.584 546.522 481.676 545.454 481.676 545.454L482.25 540.128C482.25 540.128 474.665 540.073 473.778 540.705Z" fill="#424773"/>
<path d="M474.428 545.281C474.428 545.281 472.181 547.976 470.008 549.151C467.835 550.326 459.837 551.291 458.552 552.507C457.625 553.384 456.082 556.918 468.782 556.588C477.805 556.353 482.159 557.122 483.127 555.673C484.094 554.224 481.728 544.978 481.728 544.978C481.728 544.978 479.714 545.799 474.428 545.281Z" fill="#292C47"/>
<path d="M542.089 463.394C542.089 463.394 516.306 467.755 510.482 468.668C504.659 469.583 473.084 477.436 469.135 479.829C465.992 481.734 470.783 527.481 471.903 544.935H484.34L485.241 492.579C500.166 492.952 510.816 489.089 521.683 490.739C532.551 492.389 541.611 494.734 548.517 485.475C548.517 485.475 548.773 465.416 542.089 463.394Z" fill="#292C47"/>
<path d="M516.675 544.978L528.795 544.228L529.976 492.579C536.401 492.739 538.603 492.332 543.803 491.702L553.588 468.967C545.012 470.681 517.535 477.608 513.871 479.828C510.728 481.734 515.556 527.523 516.675 544.978Z" fill="#292C47"/>
<path d="M530.22 366.796C530.22 366.796 520.768 364.185 517.162 371.519C513.556 378.853 515.191 392.755 519.955 394.063C524.719 395.371 531.568 393.865 533.546 389.301C535.523 384.736 537.101 378.25 536.627 374.05C536.154 369.85 532.729 367.8 530.22 366.796Z" fill="#EEA886"/>
<path d="M522.424 392.6C522.424 392.6 522.528 398.178 521.913 399.366C521.298 400.555 535.074 400.257 535.074 400.257C535.074 400.257 532.903 393.559 534.134 387.853C535.354 382.206 522.424 392.6 522.424 392.6Z" fill="#EEA886"/>
<path d="M534.876 385.741C534.876 385.741 534.14 387.238 530.574 386.996C527.008 386.755 522.305 382.455 520.791 382.071C519.277 381.687 519.187 380.825 519.187 380.825L518.386 382.249L516.835 382.484C516.835 382.484 517.889 378.175 515.592 376.658C513.295 375.14 516.626 362.919 528.254 365.867C528.254 365.867 537.128 367.491 537.247 372.444C537.367 377.397 536.599 383.118 534.876 385.741Z" fill="#3A3F47"/>
<path d="M521.189 399.223C521.189 399.223 521.227 396.951 522.258 396.733C523.288 396.516 533.087 395.168 534.351 395.665L534.894 398.665C534.894 398.665 532.457 400.164 521.189 399.223Z" fill="#E2D2CA"/>
<path d="M518.353 379.81C518.618 377.948 520.736 375.809 521.949 378.71C523.161 381.61 521.13 385.834 519.769 385.607C518.408 385.38 517.995 382.336 518.353 379.81Z" fill="#EEA886"/>
<path d="M480.146 426.065C480.151 426.062 480.156 426.062 480.163 426.063C480.092 426.094 480.082 426.097 480.146 426.065Z" fill="#323657"/>
<path d="M532.977 368.126C532.977 368.126 544.5 367.584 534.988 385.565L532.977 368.126Z" fill="#3A3F47"/>
<path d="M558.653 551.105L557.796 553.515L521.574 542.297L523.31 537.416L558.653 551.105Z" fill="#918783"/>
<path d="M520.332 540.58H524.449V501.218H520.332V540.58Z" fill="#918783"/>
<path d="M510.249 501.446H534.531V499.127H510.249V501.446Z" fill="#5E5854"/>
<path d="M485.809 551.105L486.666 553.515L522.888 542.297L521.296 537.109L485.809 551.105Z" fill="#918783"/>
<path d="M511.329 553.257V556.061L522.888 542.297L521.296 537.109L511.329 553.257Z" fill="#918783"/>
<path d="M482.423 554.457C482.423 556.326 483.939 557.84 485.809 557.84C487.678 557.84 489.194 556.326 489.194 554.457C489.194 552.588 487.678 551.074 485.809 551.074C483.939 551.074 482.423 552.588 482.423 554.457Z" fill="#BFB2AC"/>
<path d="M516.812 556.849C518.134 555.528 518.134 553.386 516.812 552.065C515.491 550.743 513.347 550.743 512.025 552.065C510.703 553.386 510.703 555.528 512.025 556.849C513.347 558.171 515.491 558.171 516.812 556.849Z" fill="#BFB2AC"/>
<path d="M559.427 557.69C561.247 557.261 562.373 555.439 561.944 553.62C561.514 551.802 559.691 550.676 557.872 551.105C556.052 551.534 554.926 553.357 555.355 555.175C555.785 556.994 557.608 558.12 559.427 557.69Z" fill="#BFB2AC"/>
<path d="M497.807 499.127H546.655C549.051 499.127 550.994 497.185 550.994 494.789V494.678C550.994 492.283 549.052 490.341 546.655 490.341H497.807C495.411 490.341 493.468 492.282 493.468 494.678V494.789C493.468 497.185 495.411 499.127 497.807 499.127Z" fill="#E2D2CA"/>
<path d="M391.294 554.457H394.574V453.422H391.294V554.457Z" fill="#706865"/>
<path d="M420.796 432.132H497.243C499.634 432.132 501.572 430.195 501.572 427.806V376.451C501.572 374.061 499.634 372.125 497.243 372.125H420.796C418.405 372.125 416.467 374.061 416.467 376.451V427.806C416.467 430.195 418.405 432.132 420.796 432.132Z" fill="#5F8BE3"/>
<path d="M419.8 422.729H498.239V375.368H419.8V422.729Z" fill="#F5F7FF"/>
<path d="M441.402 447.754V446.686C441.402 446.686 442.903 440.044 453.528 440.044C464.152 440.044 463.937 447.754 463.937 447.754H441.402Z" fill="#2C4069"/>
<path d="M464.066 441.031C464.066 441.031 461.758 440.852 460.912 440.342C460.066 439.832 455.007 436.431 453.819 436.975C452.63 437.52 444.722 439.941 444.997 441.097C445.271 442.253 446.003 442.142 446.561 441.937C447.119 441.732 452.862 440.528 453.368 440.731C453.368 440.731 447.728 442.787 447.705 444.288C447.683 445.788 448.886 446.154 449.421 446.722C449.956 447.289 450.597 448.698 452.051 448.806C453.505 448.915 460.597 446.448 462.057 446.335C463.518 446.223 466.22 446.425 466.404 446.188C466.587 445.951 464.066 441.031 464.066 441.031Z" fill="#EEA886"/>
<path d="M506.084 402.372C513.443 401.079 521.189 399.223 521.189 399.223L534.894 398.665C534.894 398.665 547.472 401.432 552.426 403.669C552.896 403.881 552.898 414.885 554.188 417.77L550.081 426.43C550.081 426.43 547.709 443.586 547.216 451.215C546.99 454.717 547.855 485.065 547.855 485.065C547.855 485.065 546.624 485.673 537.27 486.703C527.916 487.733 504.546 486.33 504.398 485.226C504.25 484.122 508.924 444.109 509.131 442.036C509.449 438.856 508.212 424.161 508.212 424.161C506.45 426.527 501.957 437.212 497.274 442.297C494.519 445.288 480.879 447.121 478.308 447.207C472.712 447.393 462.501 448.507 462.203 447.963C461.965 447.636 461.313 438.905 461.953 438.692C462.514 438.505 481.473 437.414 486.33 434.838C488.107 433.896 493.419 422.318 493.419 422.318C493.419 422.318 502.024 404.195 506.084 402.372Z" fill="#F75A5A"/>
<path d="M533.093 484.188H556.101C560.703 484.188 564.432 480.46 564.432 475.861V437.598C564.432 432.999 560.703 429.27 556.101 429.27H533.093C528.491 429.27 524.761 432.998 524.761 437.598V475.861C524.761 480.459 528.491 484.188 533.093 484.188Z" fill="#E2D2CA"/>
<path d="M531.791 496.94C537.639 496.94 542.383 494.977 545.892 491.105C553.823 482.353 552.398 466.969 552.333 466.319C552.213 465.106 551.13 464.22 549.919 464.341C548.706 464.461 547.821 465.541 547.94 466.753C547.957 466.928 549.221 480.872 542.612 488.152C539.939 491.096 536.399 492.528 531.791 492.528C530.572 492.528 529.584 493.515 529.584 494.734C529.584 495.952 530.572 496.94 531.791 496.94Z" fill="#E2D2CA"/>
<path d="M205.107 430.557C205.107 430.557 206.082 431.489 206.419 432.36C206.686 433.048 207.578 433.96 208 434.481C208.422 435.001 209.997 437.437 210.222 438.115C210.314 438.392 210.192 440.307 210.441 440.85C210.69 441.394 211.332 442.435 210.846 442.63C210.361 442.826 209.525 442.045 209.525 442.045C209.525 442.045 209.721 442.554 209.349 442.855C208.625 443.439 208.087 443.205 208.087 443.205C208.087 443.205 207.942 443.85 207.577 444.019C206.775 444.392 206.26 444.15 206.26 444.15C206.26 444.15 205.977 444.56 205.385 444.689C204.629 444.854 204.127 444.279 204.127 444.279C204.127 444.279 203.229 444.699 202.826 444.32C202.423 443.941 202.336 443.455 202.107 443.08C201.877 442.704 200.927 439.043 201.417 436.127C201.906 433.212 199.628 431.026 199.628 431.026L205.107 430.557Z" fill="#EEA886"/>
<path d="M213.158 452.975H200.563C199.284 452.975 198.243 451.935 198.243 450.657V442.718C198.243 441.439 199.284 440.399 200.563 440.399H213.158C214.437 440.399 215.478 441.439 215.478 442.718V450.657C215.478 451.935 214.437 452.975 213.158 452.975ZM200.563 441.955C200.142 441.955 199.8 442.297 199.8 442.718V450.657C199.8 451.077 200.142 451.42 200.563 451.42H213.158C213.579 451.42 213.922 451.077 213.922 450.657V442.718C213.922 442.297 213.579 441.955 213.158 441.955H200.563Z" fill="#0E1E2B"/>
<path d="M230.489 449.568H183.233V483.408H230.489V449.568Z" fill="#595C59"/>
<path d="M186.788 359.013C186.788 359.013 184.368 359.048 183.336 366.282C182.303 373.516 184.26 376.54 184.493 379.55C184.726 382.56 188.259 402.004 188.355 402.863C188.451 403.723 188.925 414.07 190.303 416.816C191.68 419.562 201.808 435.125 201.943 435.902C202.078 436.679 206.861 433.191 206.861 433.191C206.861 433.191 198.904 416.544 198.443 414.645C197.981 412.745 194.779 403.047 195.285 400.086C195.792 397.125 193.867 380.794 194.053 378.976C194.239 377.158 191.427 360.117 186.788 359.013Z" fill="#EEA886"/>
<path d="M186.789 359.013C186.789 359.013 184.368 359.048 183.336 366.282C182.303 373.516 183.236 376.121 183.861 379.257C184.45 382.218 186.458 400.334 186.554 401.194C186.65 402.053 189.053 412.974 190.303 416.816C191.253 419.737 200.283 435.032 200.419 435.809C200.555 436.586 207.44 432.235 207.44 432.235C207.44 432.235 198.61 415.017 198.149 413.118C197.688 411.218 196.192 404.643 196.144 401.64C196.088 398.112 193.868 380.794 194.054 378.976C194.24 377.158 193.543 361.487 186.789 359.013Z" fill="#384C9E"/>
<path d="M166.539 527.732C166.539 527.732 170.754 533.988 172.453 535.498C172.453 535.498 176.362 536.865 176.605 539.522C176.764 541.259 176.611 544.05 172.145 544.176C167.678 544.302 164.811 542.743 163.993 540.039C163.175 537.335 161.632 536.126 161.632 536.126V541.786H160.625C160.625 541.786 160.373 536.315 160.31 535.309C160.248 534.303 159.587 530.435 161.71 528.722C163.833 527.008 166.539 527.732 166.539 527.732Z" fill="#EDDAD3"/>
<path d="M195.133 522.732C195.133 522.732 195.862 524.457 197.24 526.254C198.251 527.571 201.393 532.982 202.777 533.359C204.161 533.737 208.439 534.491 208.817 536.881C209.194 539.27 209.383 540.968 205.167 541.157C200.952 541.346 198.184 541.597 196.171 538.642C194.158 535.686 190.949 533.548 190.949 533.548V541.26H189.313C189.313 541.26 188.558 533.234 188.118 532.668C187.678 532.102 186.545 525.939 190.446 522.732C194.346 519.525 195.133 522.732 195.133 522.732Z" fill="#EDDAD3"/>
<path d="M163.708 406.965C163.708 406.965 158.385 413.882 156.941 422.088C155.497 430.295 157.794 457.837 157.731 461.893C157.668 465.949 153.893 476.042 154.648 483.682C155.403 491.322 161.71 528.722 161.71 528.722L166.539 527.732C166.539 527.732 166.067 488.965 166.539 485.757C167.011 482.55 167.958 470.86 168.146 469.54C168.335 468.219 180.128 433.544 180.128 427.628C180.128 421.711 176.542 397.313 163.708 406.965Z" fill="#EEA886"/>
<path d="M190.446 409.669C190.446 409.669 199.191 443.028 200.229 447.65C201.267 452.272 202.77 456.084 202.77 458.046C202.77 462.599 201.078 469.91 201.078 469.91L195.133 522.732H190.446C190.446 522.732 187.489 491.888 187.017 485.662C186.545 479.437 190.414 469.816 189.471 467.175C188.527 464.534 174.277 434.067 174.277 434.067C174.277 434.067 163.487 399.985 190.446 409.669Z" fill="#EEA886"/>
<path d="M173.178 535.818C173.178 535.818 169.506 537.703 166.171 535.213C162.837 532.722 161.71 528.721 161.71 528.721L166.539 527.731L173.178 535.818Z" fill="#EEA886"/>
<path d="M202.777 533.359C202.777 533.359 199.002 534.303 197.555 533.359C196.108 532.416 191.189 524.105 189.559 523.607C189.559 523.607 191.138 520.405 195.133 522.732C195.133 522.732 201.707 531.976 202.777 533.359Z" fill="#EEA886"/>
<path d="M201.638 452.97C201.638 452.97 185.57 462.423 155.455 462.423C155.455 462.423 153.749 427.51 158.128 417.688C162.506 407.866 191.572 413.974 191.572 413.974C191.572 413.974 200.604 445.748 201.638 452.97Z" fill="#1D3B54"/>
<path d="M179.686 356.406C179.686 356.406 184.356 358.611 185.978 358.935C187.6 359.259 193.891 367.428 194.994 370.41C196.097 373.392 194.994 377.866 192.724 383.117C190.454 388.368 192.594 390.119 191.556 395.37C190.518 400.622 189.61 411.74 189.805 414.658C190 417.575 163.57 418.126 157.537 412.81C157.537 412.81 163.6 403.734 164.379 402.437C165.157 401.14 164.508 394.074 163.795 392.258C163.081 390.443 158.332 375.006 158.332 375.006C158.332 375.006 154.447 363.15 157.957 360.426C161.005 358.059 169.314 357.216 170.806 356.697C172.298 356.179 176.637 355.953 179.686 356.406Z" fill="#EDDAD3"/>
<path d="M181.178 366.812L184.016 363.491L181.551 354.746C181.551 354.746 180.724 359.615 181.178 366.812Z" fill="#D6C5BE"/>
<path d="M173.792 323.277C176.568 322.301 186.765 319.906 189.165 332.937C191.565 345.969 184.365 355.239 177.749 352.776C171.133 350.312 167.046 341.301 166.657 334.429C166.268 327.556 170.29 324.509 173.792 323.277Z" fill="#EEA886"/>
<path d="M189.165 332.937C189.165 332.937 189.665 321.786 178.573 321.397C167.481 321.008 164.498 330.135 165.406 336.788C166.314 343.44 170.905 346.949 170.905 346.949C170.905 346.949 170.506 341.567 172.658 340.169C174.811 338.772 183.438 335.984 187.2 329.501C187.2 329.501 188.943 331.547 189.165 332.937Z" fill="#252E3B"/>
<path d="M175.336 331.756C173.874 336.196 169.541 338.762 165.658 337.485C161.774 336.208 159.81 331.573 161.271 327.132C162.733 322.692 167.066 320.127 170.949 321.404C174.833 322.681 176.797 327.315 175.336 331.756Z" fill="#252E3B"/>
<path d="M181.915 351.02C181.915 351.02 180.983 359.583 181.178 362.371C181.178 362.371 176.326 367.231 170.806 356.697C170.806 356.697 173.128 352.355 171.38 346.439C169.632 340.522 181.915 351.02 181.915 351.02Z" fill="#EEA886"/>
<path d="M181.178 362.371V366.812L175.593 362.641L181.178 362.371Z" fill="#EEA886"/>
<path d="M181.178 366.812L178.859 363.943L171.048 356.162L168.521 358.595L181.178 366.812Z" fill="#D6C5BE"/>
<path d="M169.964 356.907C169.964 356.907 176.519 366.85 176.832 371.226C177.145 375.602 174.396 408.337 172.195 418.86C169.993 429.383 154.085 417.673 154.085 417.673C154.085 417.673 164.775 400.379 160.672 386.532C156.568 372.685 155.077 367.148 155.077 367.148C155.077 367.148 156.489 359.437 161.492 358.352C165.878 357.4 169.964 356.907 169.964 356.907Z" fill="#384C9E"/>
<path d="M195.498 371.735C195.498 371.735 196.608 375.92 192.002 385.163C192.002 385.163 192.075 396.991 192.205 400.687C192.335 404.382 193.211 418.354 193.211 418.354L188.655 421.02C187.738 421.557 186.602 420.812 186.73 419.757C188.02 409.123 192.216 368.784 183.151 357.941L186.789 359.013C186.789 359.013 193.324 364.296 195.498 371.735Z" fill="#384C9E"/>
<path d="M173.773 337.812C173.37 336.79 172.022 336.503 171.243 337.086C170.465 337.67 170.011 339.42 171.243 341.69C172.476 343.959 176.822 345.54 173.773 337.812Z" fill="#EEA886"/>
<path d="M184.016 363.491L187.591 364.478L181.551 354.746L184.016 363.491Z" fill="#FAE6DE"/>
<path d="M178.859 363.943L175.593 368.222L168.886 357.05L171.048 356.162L178.859 363.943Z" fill="#FAE6DE"/>
<path d="M181.723 352.905L181.563 354.622C181.563 354.622 177.706 355.343 172.658 349.19C172.658 349.19 176.236 353.552 181.723 352.905Z" fill="#A77860"/>
<path d="M201.57 405.33C201.57 405.33 203.838 406.79 205.144 405.974C206.254 405.279 208.19 405.183 208.785 405.152C209.583 405.111 211.983 404.074 212.044 405.078C212.106 406.083 208.17 406.979 207.383 407.331C206.595 407.684 210.063 409.377 210.454 410.185C210.844 410.993 207.713 416.577 205.467 415.14C203.221 413.702 201.771 410.685 201.326 410.511C200.88 410.336 199.65 409.53 199.65 409.53L201.57 405.33Z" fill="#EEA886"/>
<path d="M158.49 359.911C158.49 359.911 161.638 359.129 164.363 362.047C167.087 364.964 168.449 369.762 169.163 371.318C169.876 372.874 178.892 387.267 179.411 387.591C179.93 387.915 189.092 395.305 193.243 399.26C197.395 403.215 205.486 407.624 205.486 407.624L202.438 411.903C202.438 411.903 177.854 398.807 174.741 394.009C171.628 389.212 159.198 375.921 159.198 375.921C159.198 375.921 151.777 364.743 158.49 359.911Z" fill="#EEA886"/>
<path d="M210.009 409.726C210.009 409.726 216.593 414.582 216.76 415.273C216.928 415.963 216.644 416.305 216.009 415.876C215.375 415.448 209.512 411.368 209.512 411.368C209.512 411.368 216.338 418.425 216.599 418.96C216.752 419.274 216.241 419.967 215.88 419.769C215.519 419.571 208.353 412.964 208.353 412.964C208.353 412.964 214.715 419.564 214.8 420.077C214.874 420.526 214.245 421.045 213.74 420.588C213.234 420.131 206.983 414.339 206.983 414.339C206.983 414.339 211.311 419.433 211.127 419.91C211.014 420.201 210.6 420.821 209.524 419.471C208.449 418.121 205.577 415.204 205.577 415.204L210.009 409.726Z" fill="#EEA886"/>
<path d="M193.086 382.844C193.086 382.844 193.303 397.61 192.402 404.732L192.002 385.163L193.086 382.844Z" fill="#27356E"/>
<path d="M160.113 358.828C160.113 358.828 161.906 359.129 164.631 362.047C167.355 364.964 168.717 369.762 169.43 371.318C170.144 372.874 179.16 387.267 179.679 387.591C180.198 387.915 187.705 393.069 191.857 397.023C196.008 400.978 203.735 405.703 203.735 405.703L199.77 411.586C199.77 411.586 178.09 399.585 174.652 395.014C170.979 390.133 157.884 375.799 157.884 375.799C157.884 375.799 149.395 362.743 160.113 358.828Z" fill="#384C9E"/>
<path d="M209.562 441.672C209.562 441.672 208.716 438.386 207.659 437.895C206.602 437.405 206.84 438.607 206.84 438.607C206.84 438.607 206.625 437.414 205.641 437.481C204.657 437.547 205.012 438.941 205.012 438.941C205.012 438.941 204.603 438.079 203.669 438.499C202.735 438.919 203.296 440.009 203.296 440.009C203.296 440.009 202.034 439.11 201.731 440.335C201.218 442.405 202.77 444.354 202.77 444.354C202.77 444.354 203.261 444.8 204.131 444.334C204.131 444.334 205.14 445.493 206.285 444.249C206.285 444.249 207.966 444.689 208.128 443.295C208.128 443.295 210.026 443.526 209.562 441.672Z" fill="#DB9C7C"/>
<path d="M174.902 398.471L167.48 386.501C167.48 386.501 173.808 393.97 174.468 394.772C175.127 395.573 175.183 395.632 175.183 395.632C175.183 395.632 174.99 398.063 174.902 398.471Z" fill="#27356E"/>
<path d="M264.405 426.822C264.405 426.822 264.92 429.155 265.825 431.534C266.266 432.694 266.484 440.305 266.439 441.29C266.402 442.115 265.853 441.627 265.574 441.083C265.413 440.771 264.914 438.14 264.427 436.741C264.018 435.566 263.665 435.127 263.458 435.508C263.251 435.888 262.875 440.78 263.323 442.869C263.771 444.958 263.304 449.774 262.203 449.078C261.103 448.382 258.527 439.673 258.744 436.393C258.961 433.113 260.134 429.002 260.134 429.002L264.405 426.822Z" fill="#EEA886"/>
<path d="M263.373 431.231C263.373 431.231 266.964 407.363 267.917 402.828C268.349 400.772 269.536 395.662 270.288 391.464C270.536 390.081 270.745 388.657 270.922 387.263C270.923 387.26 270.922 387.258 270.922 387.258C271.628 381.691 271.808 376.613 271.808 376.613C271.808 376.613 274.923 362.349 265.919 361.47C265.919 361.47 263.506 362.223 263.364 363.214C262.819 367.025 261.577 375.267 261.524 377.22C261.481 378.806 259.152 394.81 259.118 395.376C259.052 396.475 258.512 403.888 258.292 407.142C257.778 414.742 257.584 431.738 257.584 431.738L263.373 431.231Z" fill="#F75A5A"/>
<path d="M260.501 532.965C260.501 532.965 257.026 536.844 253.496 537.657C249.968 538.469 247.499 539.506 247.473 541.732C247.446 543.957 257.628 545.424 261.666 543.18C267.693 539.831 268.306 540.841 268.974 539.167C269.643 537.492 268.172 533.016 268.215 532.483C268.269 531.826 260.501 532.965 260.501 532.965Z" fill="#202338"/>
<path d="M295.965 533.976C295.965 533.976 293.408 537.755 289.988 538.626C286.615 539.486 284.43 541.121 284.264 543.284C284.099 545.448 292.216 548.281 297.918 544.481C301.665 541.984 303.063 542.126 303.818 540.54C304.573 538.953 303.423 534.507 303.498 533.991C303.591 533.355 295.965 533.976 295.965 533.976Z" fill="#202338"/>
<path d="M260.892 531.109C260.892 531.109 260.433 532.927 260.501 532.965C260.57 533.004 268.454 533.942 268.215 532.484C268.022 531.301 267.746 530.016 267.746 530.016L260.892 531.109Z" fill="#81807E"/>
<path d="M296.069 532.108C296.069 532.108 295.901 533.935 295.965 533.976C296.029 534.018 303.543 535.431 303.498 533.991C303.463 532.848 303.022 531.426 303.022 531.426L296.069 532.108Z" fill="#81807E"/>
<path d="M268.061 422.326C268.061 422.326 265.193 450.157 263.702 459.685C261.959 470.825 261.367 480.029 260.881 485.795C260.27 493.046 260.152 528.72 259.724 530.84C259.296 532.961 269.221 531.426 269.221 531.426C269.221 531.426 274.104 484.815 275.925 477.091C277.621 469.9 283.916 438.938 285.464 440.902C287.011 442.866 288.93 477.033 290.076 482.705C291.222 488.377 294.708 532.781 294.708 532.781C294.708 532.781 302.607 534.353 304.709 532.575C304.709 532.575 305.665 494.308 304.935 483.675C304.656 479.622 309.685 435.085 303.237 417.155C299.829 407.679 268.061 422.326 268.061 422.326Z" fill="#292C47"/>
<path d="M317.203 426.277C317.203 426.277 312.368 427.745 310.344 427.374C308.317 427.002 309.343 402.172 309.263 397.005C309.202 392.814 306.907 381.75 306.907 381.75C306.907 381.75 306.907 381.756 306.904 381.768C306.901 381.771 306.901 381.777 306.901 381.781C306.901 381.787 306.898 381.793 306.898 381.799C306.67 382.628 303.575 394.11 303.467 399.627C303.353 405.353 304.213 427.254 304.213 427.254L296.519 430.877L269.914 431.641L266.038 431.7C266.038 431.7 266.649 418.717 266.876 414.268C267.017 411.44 267.567 406.378 267.426 401.447C267.426 401.447 267.515 396.25 266.999 394.012C266.944 384.133 266.345 374.349 266.345 374.349C266.013 369.87 265.782 365.682 265.651 361.774C266.732 361.203 268.031 360.534 269.072 360.039C272.291 358.507 276.776 356.444 279.654 355.124C281.34 354.35 282.99 353.786 282.99 353.786C282.99 353.786 294.492 352.684 295.426 352.742C295.721 352.76 297.158 353.261 299.044 353.979C303.123 355.526 310.986 358.676 312.24 359.575C314.076 360.889 317.959 392.118 318.134 394.303C318.45 398.242 317.203 426.277 317.203 426.277Z" fill="#D8D5E0"/>
<path d="M295.367 352.716C294.522 360.465 285.913 360.465 285.913 360.465C285.913 360.465 282.351 357.35 282.464 355.044C282.467 354.994 282.47 354.942 282.477 354.893C282.529 354.469 283.011 353.941 283.06 353.091C283.067 352.975 283.07 352.856 283.073 352.739C283.076 352.624 283.076 352.508 283.076 352.394C283.073 351.805 283.039 351.224 283.005 350.819C282.992 350.678 282.981 350.556 282.971 350.461C282.957 350.318 282.947 350.236 282.947 350.236C282.947 350.236 284.335 348.775 286.098 347.033C289.179 343.988 293.417 340.086 293.424 341.637C293.424 341.719 293.411 341.818 293.388 341.932C292.643 345.425 295.367 352.716 295.367 352.716Z" fill="#EEA886"/>
<path d="M294.562 416.711C294.562 416.711 295.259 421.104 295.32 422.249L296.797 421.955C296.797 421.955 296.39 417.307 296.15 416.528L294.562 416.711Z" fill="#5D676C"/>
<path d="M318.732 442.293C318.732 442.293 318.28 436.134 316.632 435.202C314.985 434.27 315.958 436.162 315.958 436.162C315.958 436.162 316.943 440.622 317.173 442.431C317.184 442.518 318.732 442.293 318.732 442.293Z" fill="#7F827F"/>
<path d="M302.452 446.64L324.166 440.128L324.506 466.973L303 480.299L302.452 446.64Z" fill="#7F827F"/>
<path d="M303 480.299L305.739 480.762L326.65 467.324L325.98 440.225L324.166 440.128L303 480.299Z" fill="#7F827F"/>
<path d="M289.497 357.277L285.913 360.465C285.913 360.465 290.05 360.19 290.823 359.501L289.497 357.277Z" fill="#B4B1BA"/>
<path d="M266.776 427.525C266.776 427.525 283.61 428.957 298.353 427.525V432.36C298.353 432.36 276.212 435.556 266.038 431.437L266.776 427.525Z" fill="#292C47"/>
<path d="M279.654 355.123C278.723 355.55 277.623 356.053 276.456 356.594C274.008 357.723 271.25 359.003 269.072 360.038C267.917 360.588 266.488 361.234 265.382 361.7C265.511 365.673 265.704 369.934 266.042 374.496C266.042 374.496 266.361 385.638 267.002 396.206C267.22 397.72 267.331 399.267 267.208 400.851C267.048 402.917 266.824 405.174 266.554 407.529C266.551 407.559 266.548 407.59 266.545 407.618C266.48 408.176 266.413 408.738 266.345 409.306C266.345 409.315 266.342 409.321 266.342 409.33C264.911 421.104 262.487 434.612 261.222 438.698C260.955 439.552 261.876 440.34 262.533 440.948L267.138 443.85C267.138 443.85 269.036 426.384 269.666 420.456C270.274 414.734 272.187 407.062 273.026 399.586V399.583C274.088 390.1 275.552 380.808 276.341 375.288C278.396 360.917 281.134 354.487 281.134 354.487L279.654 355.123Z" fill="#F75A5A"/>
<path d="M308.912 397.24C309.269 402.035 307.239 428.566 309.264 428.94C311.289 429.311 318.732 427.676 318.732 427.676C318.732 427.676 319.665 399.065 319.366 396.066C319.148 393.883 315.671 361.138 313.835 359.822C312.775 359.062 304.918 356.278 301.063 354.759C300.358 354.481 299.675 354.216 299.044 353.977C298.226 354.887 289.553 370.925 288.876 383.957C288.669 387.925 289.599 396.301 290.307 403.145C291.062 410.445 291.898 416.144 292.511 422.249C293.718 434.279 294.562 443.851 294.562 443.851L306.54 438.521C308.478 437.551 311.163 433.575 310.434 431.534C307.665 423.783 304.178 410.539 304.174 403.736C304.174 403.736 305.51 387.08 306.569 383.419C306.569 383.418 308.458 391.143 308.912 397.24Z" fill="#F75A5A"/>
<path d="M311.143 428.627C311.143 428.627 310.551 431.3 309.754 433.977C308.956 436.654 308.198 437.515 308.557 439.036C308.828 440.184 310.145 441.029 310.469 440.655C310.793 440.281 310.884 435.799 312.742 435.792C314.599 435.784 312.27 441.348 313.369 440.925C314.469 440.503 318.689 438.109 318.387 435.855C318.085 433.601 316.358 431.995 316.417 428.62C316.47 425.559 315.497 424.295 315.497 424.295L311.143 428.627Z" fill="#EEA886"/>
<path d="M312.555 435.606C312.555 435.606 310.092 436.275 310.365 444.633L313.158 444.124C313.158 444.124 313.037 439.503 313.835 436.973C313.835 436.973 313.668 435.34 312.555 435.606Z" fill="#7F827F"/>
<path d="M308.596 410.653L308.719 431.738C308.719 431.738 312.929 431.551 318.732 429.409L319.134 399.675L308.596 410.653Z" fill="#F75A5A"/>
<path d="M281.997 357.84C281.997 357.84 281.69 362.241 285.414 362.343C289.138 362.445 292.095 358.871 292.095 358.871L285.913 360.464L282.151 357.277L281.997 357.84Z" fill="#D8D5E0"/>
<path d="M294.869 351.267C294.869 351.267 291.34 355.794 289.497 357.277L292.517 362.343L297.727 353.485L294.869 351.267Z" fill="#EAE6F2"/>
<path d="M282.727 358.109L285.913 360.464C285.913 360.464 283.114 355.362 283.059 353.09L282.727 358.109Z" fill="#B4B1BA"/>
<path d="M283.059 353.09L281.014 354.535L278.734 361.332L282.727 358.109L283.059 353.09Z" fill="#EAE6F2"/>
<path d="M266.575 388.234C266.575 388.234 267.481 396.079 267.003 403.238C266.525 410.396 264.568 421.843 264.568 421.843C264.568 421.843 264.55 396.724 266.575 388.234Z" fill="#963737"/>
<path d="M272.922 330.407C272.922 330.407 270.675 335.874 272.143 336.533C273.356 337.077 271.407 342.415 271.169 343.278C270.932 344.142 273.391 344.493 273.956 344.973C274.52 345.453 276.72 351.863 278.714 351.854C280.708 351.845 289.273 347.821 291.429 345.05C293.585 342.28 294.376 330.708 292.256 326.085C290.137 321.461 276.898 320.853 272.922 330.407Z" fill="#EEA886"/>
<path d="M272.483 331.587C272.483 331.587 269.045 326.3 273.786 321.612C278.526 316.923 288.836 323.194 289.94 323.358C291.045 323.523 297.521 324.906 295.367 334.753C293.45 343.523 293.266 343.752 293.266 343.752C293.266 343.752 290.694 339.116 289.489 338.421C287.608 337.337 283.808 338.044 283.808 338.044C283.808 338.044 285.125 333.007 282.199 332.62C279.273 332.234 275.257 330.212 272.483 331.587Z" fill="#323657"/>
<path d="M286.556 334.95C286.738 334.259 287.251 331.316 289.88 332.737C292.509 334.156 289.095 339.958 288.674 340.073C288.254 340.187 285.027 340.765 286.556 334.95Z" fill="#EEA886"/>
<path d="M291.09 345.444C291.03 345.593 289.074 350.342 283.073 352.739C283.076 352.624 283.076 352.508 283.076 352.394C283.073 351.805 283.039 351.224 283.005 350.819C282.992 350.678 282.981 350.556 282.971 350.461C282.971 350.461 289.418 347.432 291.09 345.444Z" fill="#A77860"/>
<path d="M355.374 250.853H287.361V301.882V312.63L297.745 301.882H355.374V250.853Z" fill="#FFCE55"/>
<path d="M74.7766 250.853H142.789V301.882V312.63L132.406 301.882H74.7766V250.853Z" fill="#FFCE55"/>
<path d="M320.56 293.229C319.17 293.123 317.878 292.606 316.88 291.749C315.749 290.776 315.128 289.483 315.131 288.106C314.939 285.395 314.094 282.593 313.397 280.673C310.076 278.025 308.289 273.936 308.61 269.703C309.143 262.672 315.3 257.386 322.334 257.919C329.369 258.452 334.658 264.606 334.125 271.637C333.834 275.465 331.872 278.913 328.731 281.125C327.777 283.719 327.204 286.094 327.028 288.186C326.996 291.001 324.317 293.27 321.045 293.248C320.882 293.247 320.72 293.241 320.56 293.229ZM322.255 258.962C315.797 258.473 310.143 263.327 309.654 269.782C309.355 273.716 311.04 277.513 314.16 279.941L314.278 280.033L314.329 280.173C315.06 282.164 315.974 285.147 316.177 288.053L316.178 288.092C316.171 289.165 316.663 290.182 317.563 290.956C318.488 291.75 319.728 292.194 321.052 292.202C323.755 292.221 325.966 290.406 325.981 288.158L325.981 288.138L325.983 288.118C326.169 285.885 326.783 283.358 327.807 280.606L327.865 280.451L328.002 280.357C330.959 278.331 332.811 275.123 333.081 271.558C333.571 265.102 328.714 259.452 322.255 258.962Z" fill="white"/>
<path d="M318.188 288.868L316.513 274.932L319.42 277.335L321.222 275.336L322.781 277.212L325.497 274.911L323.845 288.869L322.806 288.746L324.145 277.427L322.651 278.693L321.19 276.934L319.526 278.781L317.864 277.407L319.228 288.743L318.188 288.868Z" fill="white"/>
<path d="M325.597 292.003L316.522 291.943L316.498 295.598L325.573 295.658L325.597 292.003Z" fill="white"/>
<path d="M327.085 288.275L315.091 288.195L315.052 294.079L327.045 294.159L327.085 288.275Z" fill="white"/>
<path d="M117.171 269.384C116.919 269.102 116.547 268.798 116.056 268.473C115.565 268.149 114.996 267.837 114.35 267.54C113.704 267.243 112.995 266.987 112.222 266.774C111.448 266.561 110.654 266.425 109.839 266.366L109.811 275.096L110.612 275.267C112.13 275.637 113.5 276.05 114.722 276.503C115.944 276.957 116.976 277.509 117.818 278.158C118.659 278.808 119.311 279.605 119.772 280.548C120.233 281.492 120.461 282.637 120.457 283.987C120.452 285.478 120.18 286.749 119.643 287.801C119.104 288.854 118.363 289.731 117.419 290.43C116.474 291.13 115.375 291.653 114.122 292.001C112.869 292.348 111.526 292.533 110.091 292.557L110.077 296.985L107.883 296.978L107.897 292.466C105.872 292.318 103.947 291.912 102.121 291.245C100.294 290.579 98.6237 289.652 97.1084 288.466L99.2736 284.424C99.5816 284.763 100.031 285.13 100.62 285.525C101.21 285.921 101.897 286.303 102.684 286.67C103.47 287.038 104.334 287.365 105.276 287.649C106.217 287.933 107.194 288.133 108.206 288.249L108.235 279.519C108.066 279.462 107.89 279.412 107.708 279.37C107.525 279.327 107.35 279.277 107.181 279.22C105.691 278.822 104.391 278.403 103.282 277.963C102.172 277.524 101.252 276.994 100.523 276.373C99.7935 275.752 99.2409 275.026 98.8638 274.195C98.4867 273.365 98.3003 272.359 98.3042 271.178C98.3087 269.8 98.5513 268.578 99.0335 267.511C99.515 266.444 100.193 265.526 101.068 264.755C101.942 263.985 102.964 263.384 104.133 262.951C105.301 262.52 106.589 262.25 107.997 262.142L108.01 257.882L110.205 257.889L110.191 262.149C112.019 262.268 113.705 262.639 115.25 263.262C116.795 263.886 118.157 264.636 119.336 265.51L117.171 269.384ZM103.244 270.435C103.24 271.615 103.651 272.502 104.479 273.095C105.307 273.689 106.565 274.213 108.251 274.668L108.278 266.36C106.562 266.439 105.294 266.835 104.476 267.549C103.658 268.264 103.247 269.226 103.244 270.435ZM115.392 284.476C115.396 283.239 114.906 282.303 113.924 281.667C112.941 281.031 111.565 280.457 109.795 279.945L109.767 288.296C111.568 288.274 112.954 287.941 113.927 287.297C114.899 286.654 115.388 285.714 115.392 284.476Z" fill="white"/>
<path d="M338.432 63.9803L323.145 55.1588V60.9754H300.418V66.9854H323.145V72.8017L338.432 63.9803Z" fill="#FFCE55"/>
<path d="M300.418 44.6304L315.705 53.4522V47.6356H338.431V41.6256H315.705V35.8093L300.418 44.6304Z" fill="#FFCE55"/>
<path d="M519.194 144.715C517.331 144.574 515.6 143.882 514.264 142.733C512.748 141.43 511.916 139.697 511.92 137.852C511.663 134.22 510.531 130.466 509.597 127.893C505.148 124.346 502.752 118.868 503.183 113.196C503.897 103.776 512.146 96.6934 521.571 97.4074C530.996 98.1219 538.082 106.367 537.368 115.787C536.979 120.916 534.349 125.536 530.142 128.499C528.863 131.975 528.095 135.157 527.859 137.959C527.816 141.731 524.227 144.771 519.844 144.742C519.625 144.74 519.409 144.732 519.194 144.715ZM521.465 98.8051C512.811 98.1494 505.237 104.652 504.581 113.302C504.181 118.572 506.438 123.66 510.618 126.913L510.776 127.036L510.845 127.224C511.825 129.891 513.05 133.887 513.32 137.78L513.322 137.834C513.313 139.271 513.972 140.633 515.178 141.67C516.417 142.735 518.078 143.329 519.853 143.34C523.474 143.364 526.436 140.934 526.456 137.922V137.895L526.459 137.869C526.707 134.877 527.53 131.491 528.903 127.804L528.981 127.596L529.164 127.471C533.126 124.756 535.607 120.459 535.969 115.681C536.626 107.031 530.119 99.4611 521.465 98.8051Z" fill="#FFCE55"/>
<path d="M516.016 138.872L513.771 120.201L517.666 123.421L520.081 120.742L522.168 123.255L525.808 120.173L523.595 138.874L522.203 138.709L523.997 123.544L521.994 125.24L520.038 122.884L517.807 125.357L515.582 123.517L517.408 138.705L516.016 138.872Z" fill="#FFCE55"/>
<path d="M525.941 143.062L513.782 142.98L513.749 147.878L525.908 147.959L525.941 143.062Z" fill="#FFCE55"/>
<path d="M527.927 138.08L511.858 137.973L511.805 145.856L527.874 145.963L527.927 138.08Z" fill="#FFCE55"/>
<path d="M446.459 44.9629C446.338 44.6048 446.115 44.1798 445.791 43.688C445.466 43.1968 445.066 42.6874 444.588 42.1606C444.111 41.6333 443.558 41.1203 442.932 40.6211C442.304 40.1216 441.627 39.6851 440.9 39.3107L437.447 47.3293L438.116 47.8013C439.367 48.7376 440.465 49.6541 441.411 50.5507C442.357 51.4477 443.089 52.36 443.609 53.2874C444.128 54.215 444.415 55.2032 444.468 56.2515C444.522 57.3005 444.282 58.4442 443.748 59.6835C443.158 61.0528 442.409 62.1152 441.502 62.8726C440.593 63.6294 439.567 64.1453 438.424 64.4179C437.28 64.6909 436.064 64.7418 434.776 64.5699C433.487 64.3978 432.178 64.0413 430.849 63.5002L429.097 67.5677L427.082 66.7005L428.867 62.5555C427.062 61.6256 425.45 60.4963 424.033 59.1667C422.614 57.8374 421.442 56.3299 420.514 54.6448L424.092 51.7766C424.243 52.2086 424.512 52.7226 424.899 53.3171C425.285 53.9126 425.768 54.5334 426.347 55.1802C426.925 55.8272 427.592 56.4666 428.347 57.0966C429.101 57.7277 429.921 58.295 430.807 58.7981L434.261 50.7792C434.128 50.6611 433.986 50.5466 433.834 50.4352C433.683 50.3242 433.541 50.2099 433.409 50.0912C432.195 49.1405 431.164 48.2458 430.316 47.4058C429.467 46.5664 428.83 45.7184 428.403 44.8608C427.975 44.0038 427.752 43.1194 427.731 42.207C427.711 41.2957 427.934 40.297 428.401 39.2125C428.946 37.9475 429.649 36.9184 430.512 36.1261C431.373 35.3338 432.358 34.7552 433.465 34.3891C434.571 34.0234 435.747 33.8717 436.992 33.9325C438.237 33.9936 439.527 34.2502 440.864 34.703L442.549 30.7904L444.565 31.6576L442.879 35.5702C444.514 36.3962 445.92 37.3994 447.096 38.5786C448.272 39.7581 449.231 40.9821 449.972 42.2493L446.459 44.9629ZM433.236 40.4669C432.769 41.5514 432.8 42.5286 433.329 43.399C433.856 44.2694 434.807 45.2451 436.18 46.3248L439.467 38.6938C437.857 38.0928 436.536 37.9603 435.503 38.2966C434.47 38.6326 433.715 39.3565 433.236 40.4669ZM438.897 58.1469C439.387 57.0109 439.304 55.9574 438.65 54.9872C437.996 54.0166 436.956 52.9491 435.528 51.7837L432.225 59.4538C433.888 60.1398 435.295 60.3776 436.442 60.167C437.589 59.9568 438.408 59.2835 438.897 58.1469Z" fill="#FFCE55"/>
<defs>
<linearGradient id="paint0_linear_2670_27377" x1="148.542" y1="35.8258" x2="515.331" y2="690.35" gradientUnits="userSpaceOnUse">
<stop stop-color="#FF9F55"/>
<stop offset="1" stop-color="#FFD255"/>
</linearGradient>
<linearGradient id="paint1_linear_2670_27377" x1="337.656" y1="2.73935" x2="337.656" y2="131.449" gradientUnits="userSpaceOnUse">
<stop stop-color="#DFEAF0"/>
<stop offset="1" stop-color="#FFF9F5"/>
</linearGradient>
<linearGradient id="paint2_linear_2670_27377" x1="357.381" y1="417.743" x2="402.258" y2="417.743" gradientUnits="userSpaceOnUse">
<stop stop-color="#FF9F55"/>
<stop offset="1" stop-color="#FFD255"/>
</linearGradient>
<linearGradient id="paint3_linear_2670_27377" x1="404.535" y1="424.957" x2="343.188" y2="361.474" gradientUnits="userSpaceOnUse">
<stop stop-color="#FF9F55"/>
<stop offset="1" stop-color="#FFD255"/>
</linearGradient>
</defs>
</svg>
