<svg width="640" height="640" viewBox="0 0 640 640" fill="none" xmlns="http://www.w3.org/2000/svg">
<g clip-path="url(#clip0_2670_27362)">
<path d="M13.6871 273.313C13.8706 270.936 16.8893 270.484 17.759 272.698C26.0998 294.101 49.5508 349.539 78.8369 377.029C126.485 421.773 163.822 499.037 141.98 543.807C141.959 543.791 -6.74593 531.582 13.6871 273.313Z" fill="url(#paint0_linear_2670_27362)"/>
<path opacity="0.43" d="M21.4365 304.332C21.5707 305.042 21.7414 305.62 21.8837 306.257L22.3748 308.104L23.3926 311.792C24.0772 314.25 24.813 316.683 25.5333 319.136C27.0073 324.019 28.5146 328.88 30.0731 333.715C33.2105 343.401 36.591 352.999 40.1097 362.541C43.6106 372.086 47.3545 381.543 51.2854 390.901C55.2162 400.259 59.2853 409.562 63.6284 418.735C72.2762 437.07 81.8459 454.95 92.5281 472.038C97.9448 480.535 103.577 488.875 109.632 496.847C115.736 504.776 122.151 512.444 129.059 519.587C129.209 519.749 129.444 519.735 129.587 519.588C129.731 519.44 129.715 519.187 129.583 519.023C122.97 511.638 116.724 503.875 110.841 495.824C104.939 487.777 99.4628 479.379 94.1893 470.861C88.9311 462.324 83.9704 453.563 79.2145 444.702C74.4562 435.822 70.0181 426.753 65.6491 417.655C56.9599 399.418 49.1722 380.709 41.8682 361.807C38.2316 352.336 34.7691 342.804 31.4626 333.214C29.7992 328.411 28.1894 323.601 26.613 318.769L24.3187 311.5L23.1984 307.863L22.6562 306.041C22.483 305.445 22.3025 304.796 22.175 304.266L22.1626 304.177C22.1152 303.965 21.9142 303.828 21.7198 303.873C21.5076 303.921 21.3915 304.137 21.4365 304.332Z" fill="white"/>
<path d="M41.9933 209.806C42.2107 207.278 45.3774 206.843 46.2693 209.218C54.8446 232.193 79.0407 291.721 109.531 321.47C159.149 369.936 197.736 452.97 174.514 500.427C174.496 500.43 18.7233 485.219 41.9933 209.806Z" fill="url(#paint1_linear_2670_27362)"/>
<path opacity="0.43" d="M49.882 243.029C50.0236 243.794 50.1813 244.41 50.3489 245.098L50.8417 247.09L51.8787 251.049C52.5878 253.686 53.3303 256.3 54.0728 258.915C55.5757 264.14 57.1322 269.359 58.74 274.552C61.9555 284.938 65.432 295.234 69.0467 305.474C72.6436 315.717 76.5014 325.869 80.564 335.92C84.6267 345.971 88.8097 355.969 93.2999 365.815C102.227 385.515 112.127 404.735 123.193 423.156C128.826 432.298 134.656 441.285 140.946 449.9C147.3 458.451 153.964 466.74 161.152 474.465C161.304 474.644 161.557 474.628 161.717 474.46C161.858 474.295 161.857 474.022 161.707 473.86C154.829 465.873 148.336 457.506 142.236 448.811C136.103 440.138 130.428 431.093 124.972 421.908C119.515 412.724 114.389 403.293 109.468 393.761C104.545 384.212 99.9776 374.467 95.4435 364.7C86.4778 345.114 78.4443 325.018 70.915 304.743C67.167 294.594 63.606 284.347 60.2214 274.056C58.5112 268.914 56.8522 263.746 55.2469 258.571L52.8991 250.781L51.7598 246.873L51.2157 244.906C51.0352 244.256 50.8497 243.571 50.7173 243.006L50.705 242.916C50.6551 242.686 50.4337 242.534 50.2214 242.582C49.9685 242.598 49.8345 242.817 49.882 243.029Z" fill="white"/>
<path d="M146.125 152.135C146.125 134.996 160.013 121.126 177.134 121.126H440.898C455.455 121.126 467.446 132.522 468.187 147.06L487.673 529.48C488.251 540.858 479.294 550.448 467.916 550.646L165.594 556.136C154.902 556.335 146.125 547.721 146.125 537.011V152.135Z" fill="url(#paint2_linear_2670_27362)"/>
<path d="M209.786 549.654C209.768 549.654 209.768 549.654 209.786 549.654L175.942 549.22C164.636 549.076 155.426 539.757 155.426 528.433V477.36C155.426 476.962 155.751 476.637 156.148 476.637C156.545 476.637 156.871 476.962 156.871 477.36V528.433C156.871 538.962 165.431 547.631 175.96 547.776L209.786 548.209C210.183 548.209 210.508 548.534 210.49 548.931C210.49 549.329 210.165 549.654 209.786 549.654Z" fill="url(#paint3_linear_2670_27362)"/>
<path d="M156.148 462.262C155.751 462.262 155.426 461.936 155.426 461.539V453.266C155.426 452.868 155.751 452.543 156.148 452.543C156.545 452.543 156.87 452.868 156.87 453.266V461.539C156.87 461.936 156.545 462.262 156.148 462.262Z" fill="url(#paint4_linear_2670_27362)"/>
<path d="M167.724 127.013C167.688 121.541 172.51 117.297 177.946 118.02C213.958 122.896 337.831 138.012 440.25 130.156C444.927 129.795 448.973 133.334 449.225 138.012L469.633 522.13C469.922 527.404 465.895 531.901 460.621 532.208C417.548 534.754 240.163 544.615 176.899 537.987C173.052 537.59 170.126 534.339 170.108 530.474L167.724 127.013Z" fill="url(#paint5_linear_2670_27362)"/>
<path opacity="0.6" d="M171.969 136.64C171.932 131.366 176.574 127.285 181.811 127.989C216.468 132.685 335.682 147.223 434.234 139.656C438.731 139.313 442.632 142.708 442.867 147.223L462.516 516.892C462.787 521.967 458.922 526.302 453.848 526.591C412.4 529.047 241.698 538.528 180.8 532.153C177.098 531.774 174.28 528.649 174.262 524.911L171.969 136.64Z" fill="white"/>
<path opacity="0.78" d="M204.061 165.138L207.746 244.384C207.872 247.021 210.003 249.116 212.64 249.188C227.323 249.604 273.051 250.723 298.877 249.369C301.802 249.224 304.114 246.859 304.204 243.933C304.692 229.07 305.776 185.816 302.38 167.72C301.838 164.795 299.328 162.664 296.348 162.555L209.588 159.521C206.463 159.431 203.917 162.014 204.061 165.138Z" fill="white"/>
<g opacity="0.6">
<path opacity="0.6" d="M421.394 172.037C422.929 172.037 424.157 170.845 424.102 169.382C424.066 167.919 422.766 166.71 421.231 166.673L325.515 164.976C323.979 164.94 323.131 166.114 323.654 167.558L324.305 169.4C324.81 170.845 326.49 172.037 328.025 172.037H421.394Z" fill="white"/>
</g>
<g opacity="0.6">
<path opacity="0.6" d="M325.515 189.663C323.979 189.627 323.131 190.801 323.654 192.246L324.305 194.088C324.81 195.533 326.49 196.725 328.025 196.725H421.394C422.929 196.725 424.157 195.533 424.102 194.07C424.066 192.607 422.766 191.397 421.231 191.361L325.515 189.663Z" fill="white"/>
</g>
<g opacity="0.6">
<path opacity="0.6" d="M325.515 216.699C323.979 216.663 323.131 217.837 323.654 219.282L324.305 221.124C324.81 222.569 326.49 223.761 328.025 223.761H421.394C422.929 223.761 424.157 222.569 424.102 221.106C424.066 219.643 422.766 218.433 421.231 218.397L325.515 216.699Z" fill="white"/>
</g>
<g opacity="0.6">
<path opacity="0.6" d="M430.641 274.094C432.176 274.094 433.35 272.902 433.26 271.439C433.169 269.976 431.833 268.766 430.298 268.766L206.843 266.996C205.308 266.978 204.838 267.954 205.795 269.164L207.981 271.909C208.938 273.119 210.978 274.094 212.514 274.094H430.641Z" fill="white"/>
</g>
<path d="M230.103 376.945C230.085 376.945 230.067 376.945 230.049 376.945L211.23 376.764C208.539 376.746 206.318 374.886 206.065 372.466L204.404 356.682C204.313 355.761 204.602 354.84 205.216 354.099C205.903 353.269 206.95 352.763 208.088 352.673C209.677 352.564 211.899 352.366 214.264 352.167C219.231 351.752 225.426 351.21 228.911 351.174C231.44 351.156 233.589 352.655 234.185 354.858C235.16 358.488 235.07 365.332 234.889 372.646C234.853 375.03 232.704 376.945 230.103 376.945ZM208.214 354.117C207.474 354.172 206.788 354.497 206.336 355.02C205.975 355.454 205.794 355.978 205.848 356.519L207.51 372.303C207.691 374.001 209.298 375.283 211.248 375.319L230.067 375.5C230.085 375.5 230.085 375.5 230.103 375.5C231.927 375.5 233.426 374.218 233.481 372.628C233.661 365.441 233.752 358.687 232.831 355.255C232.415 353.72 230.808 352.637 228.984 352.637C225.552 352.673 219.394 353.196 214.445 353.63C212.043 353.81 209.804 354.009 208.214 354.117Z" fill="white"/>
<path opacity="0.6" d="M210.238 355.743C214.193 355.472 222.771 354.605 226.853 354.551C228.587 354.533 230.086 355.58 230.501 357.061C231.296 359.968 231.187 365.765 231.043 371.11C231.007 372.718 229.526 373.982 227.738 373.982L212.712 373.837C210.87 373.819 209.335 372.555 209.154 370.912L207.836 358.307C207.691 357.007 208.775 355.851 210.238 355.743Z" fill="white"/>
<g opacity="0.6">
<path opacity="0.6" d="M246.611 366.453C247.153 368.512 249.031 369.957 251.162 369.939L425.205 368.458C427.174 368.44 428.745 366.814 428.709 364.846C428.673 362.931 427.102 361.396 425.187 361.396L251.144 360.601C248.092 360.583 245.834 363.491 246.611 366.453Z" fill="white"/>
</g>
<path d="M228.876 335.623C228.857 335.623 228.839 335.623 228.821 335.623L210.003 335.443C207.312 335.425 205.091 333.565 204.838 331.145L203.176 315.361C203.086 314.44 203.375 313.519 203.989 312.778C204.675 311.947 205.723 311.442 206.861 311.351C208.45 311.243 210.671 311.044 213.037 310.846C218.004 310.43 224.198 309.889 227.684 309.852C230.212 309.834 232.361 311.333 232.957 313.537C233.932 317.167 233.842 324.011 233.661 331.325C233.625 333.709 231.476 335.623 228.876 335.623ZM206.987 312.796C206.247 312.85 205.56 313.175 205.109 313.699C204.748 314.133 204.567 314.656 204.621 315.198L206.283 330.982C206.463 332.68 208.071 333.962 210.021 333.998L228.839 334.179C228.857 334.179 228.857 334.179 228.876 334.179C230.7 334.179 232.198 332.896 232.253 331.307C232.433 324.119 232.524 317.365 231.603 313.934C231.187 312.399 229.58 311.315 227.756 311.315C224.324 311.351 218.166 311.875 213.218 312.309C210.816 312.507 208.576 312.688 206.987 312.796Z" fill="white"/>
<path opacity="0.6" d="M209.01 314.422C212.965 314.151 221.543 313.284 225.624 313.23C227.358 313.212 228.857 314.259 229.272 315.74C230.067 318.648 229.959 324.445 229.814 329.791C229.778 331.398 228.297 332.663 226.509 332.663L211.484 332.518C209.642 332.5 208.107 331.236 207.926 329.592L206.608 316.986C206.445 315.686 207.547 314.53 209.01 314.422Z" fill="white"/>
<g opacity="0.6">
<path opacity="0.6" d="M245.383 325.149C245.925 327.208 247.803 328.653 249.934 328.634L423.977 327.153C425.946 327.135 427.517 325.51 427.481 323.541C427.445 321.627 425.874 320.091 423.959 320.091L249.916 319.297C246.864 319.261 244.606 322.168 245.383 325.149Z" fill="white"/>
</g>
<path d="M230.104 417.255C230.086 417.255 230.067 417.255 230.049 417.255L211.23 417.074C208.539 417.056 206.318 415.196 206.065 412.776L204.404 396.992C204.313 396.071 204.602 395.15 205.216 394.409C205.903 393.578 206.95 393.073 208.088 392.982C209.677 392.874 211.899 392.675 214.265 392.477C219.231 392.061 225.426 391.52 228.912 391.483C228.93 391.483 228.966 391.483 228.984 391.483C231.458 391.483 233.589 392.982 234.167 395.168C235.142 398.798 235.052 405.642 234.872 412.957C234.854 415.341 232.704 417.255 230.104 417.255ZM208.214 394.427C207.474 394.481 206.788 394.806 206.336 395.33C205.975 395.764 205.794 396.305 205.848 396.829L207.51 412.614C207.691 414.311 209.298 415.593 211.248 415.63L230.067 415.81C230.086 415.81 230.086 415.81 230.104 415.81C231.928 415.81 233.427 414.528 233.481 412.939C233.662 405.751 233.752 398.996 232.831 395.565C232.415 394.03 230.79 392.928 228.984 392.946C225.552 392.982 219.394 393.506 214.445 393.94C212.043 394.138 209.804 394.319 208.214 394.427Z" fill="white"/>
<path opacity="0.6" d="M210.238 396.053C214.193 395.782 222.771 394.915 226.853 394.861C228.587 394.843 230.086 395.89 230.501 397.371C231.296 400.278 231.187 406.075 231.043 411.42C231.007 413.028 229.526 414.292 227.738 414.292L212.712 414.147C210.87 414.129 209.335 412.865 209.154 411.222L207.836 398.617C207.691 397.317 208.775 396.161 210.238 396.053Z" fill="white"/>
<g opacity="0.6">
<path opacity="0.6" d="M246.611 406.779C247.153 408.838 249.031 410.283 251.162 410.264L425.205 408.784C427.174 408.766 428.745 407.141 428.709 405.172C428.673 403.258 427.102 401.723 425.187 401.723L251.144 400.929C248.092 400.893 245.834 403.8 246.611 406.779Z" fill="white"/>
</g>
<path d="M230.104 457.565C230.086 457.565 230.067 457.565 230.049 457.565L211.23 457.384C208.539 457.366 206.318 455.506 206.065 453.086L204.404 437.302C204.313 436.38 204.602 435.459 205.216 434.719C205.903 433.888 206.95 433.383 208.088 433.292C209.677 433.184 211.899 432.985 214.265 432.787C219.231 432.371 225.426 431.829 228.912 431.793C228.93 431.793 228.966 431.793 228.984 431.793C231.458 431.793 233.589 433.292 234.167 435.477C235.142 439.108 235.052 445.952 234.872 453.267C234.854 455.65 232.704 457.565 230.104 457.565ZM208.214 434.737C207.474 434.791 206.788 435.116 206.336 435.64C205.975 436.073 205.794 436.615 205.848 437.139L207.51 452.923C207.691 454.621 209.298 455.903 211.248 455.921L230.067 456.102C230.086 456.102 230.086 456.102 230.104 456.102C231.928 456.102 233.427 454.82 233.481 453.23C233.662 446.043 233.752 439.288 232.831 435.857C232.415 434.322 230.79 433.202 228.984 433.238C225.552 433.274 219.394 433.798 214.445 434.231C212.043 434.448 209.804 434.629 208.214 434.737Z" fill="white"/>
<path opacity="0.6" d="M210.238 436.381C214.193 436.11 222.771 435.243 226.853 435.189C228.587 435.171 230.086 436.218 230.501 437.699C231.296 440.607 231.187 446.404 231.043 451.75C231.007 453.357 229.526 454.621 227.738 454.621L212.712 454.477C210.87 454.459 209.335 453.195 209.154 451.551L207.836 438.945C207.691 437.627 208.775 436.471 210.238 436.381Z" fill="white"/>
<g opacity="0.6">
<path opacity="0.6" d="M246.611 447.089C247.153 449.148 249.031 450.592 251.162 450.574L425.205 449.094C427.174 449.075 428.745 447.45 428.709 445.482C428.673 443.568 427.102 442.033 425.187 442.033L251.144 441.239C248.092 441.202 245.834 444.11 246.611 447.089Z" fill="white"/>
</g>
<g opacity="0.6">
<path opacity="0.6" d="M319.627 488.826C319.97 490.885 321.18 492.33 322.553 492.312L434.397 490.831C435.662 490.813 436.673 489.187 436.655 487.219C436.637 485.305 435.625 483.77 434.397 483.77L322.535 482.975C320.566 482.957 319.122 485.865 319.627 488.826Z" fill="white"/>
</g>
<path d="M325.388 68.987C315.852 62.3589 307.581 62.4854 301.748 64.2191C296.42 65.7904 292.971 70.9194 293.494 76.4458L296.005 103.897L325.929 106.552C325.911 106.552 344.061 81.9903 325.388 68.987ZM312.222 91.1287C308.105 91.1287 304.764 87.7876 304.764 83.6699C304.764 79.5522 308.105 76.2111 312.222 76.2111C316.34 76.2111 319.681 79.5522 319.681 83.6699C319.681 87.7876 316.34 91.1287 312.222 91.1287Z" fill="url(#paint6_linear_2670_27362)"/>
<path d="M298.985 92.3382C298.623 92.3382 298.298 92.0493 298.262 91.6881L297.865 87.3176C297.829 86.9202 298.118 86.5771 298.515 86.541C298.912 86.5049 299.255 86.7938 299.292 87.1911L299.689 91.5617C299.725 91.959 299.436 92.3021 299.039 92.3382C299.021 92.3382 299.003 92.3382 298.985 92.3382ZM298.19 83.7778C297.829 83.7778 297.504 83.4888 297.467 83.1277L297.16 79.8046C296.673 74.5492 299.996 69.6369 305.035 68.1559C308.611 67.1085 312.295 66.9459 315.979 67.7044C316.377 67.7767 316.63 68.174 316.539 68.5533C316.467 68.9506 316.088 69.1854 315.69 69.1131C312.241 68.4088 308.791 68.5533 305.45 69.5285C301.061 70.8288 298.19 75.091 298.605 79.6601L298.912 82.9832C298.948 83.3805 298.659 83.7236 298.262 83.7597C298.244 83.7778 298.208 83.7778 298.19 83.7778Z" fill="white"/>
<path d="M255.135 121.632V107.834C255.135 103.066 259.09 99.2556 263.84 99.4181L358.998 102.687C363.224 102.831 366.637 106.173 366.89 110.381L367.685 123.637L255.135 121.632Z" fill="url(#paint7_linear_2670_27362)"/>
<path d="M290.622 104.619H286.523C286.126 104.619 285.801 104.294 285.801 103.897C285.801 103.5 286.126 103.175 286.523 103.175H290.622C291.019 103.175 291.344 103.5 291.344 103.897C291.344 104.294 291.019 104.619 290.622 104.619Z" fill="white"/>
<path d="M260.3 117.297C259.903 117.297 259.578 116.972 259.578 116.575V110.995C259.578 106.678 263.081 103.175 267.397 103.175H282.441C282.839 103.175 283.164 103.5 283.164 103.897C283.164 104.294 282.839 104.619 282.441 104.619H267.397C263.876 104.619 261.022 107.473 261.022 110.995V116.575C261.022 116.972 260.697 117.297 260.3 117.297Z" fill="white"/>
<path d="M216.378 125.117C216.613 120.331 220.55 116.575 225.336 116.575H391.74C397.718 116.575 402.847 120.873 403.859 126.779L404.003 127.591C405.123 134.057 400.156 139.962 393.601 139.962H222.88C218.961 139.962 215.836 136.675 216.017 132.756L216.378 125.117Z" fill="url(#paint8_linear_2670_27362)"/>
<path d="M357.372 518.049C355.548 518.049 353.706 517.164 351.756 515.376C344.116 508.351 342.328 497.388 341.877 487.094C338.211 491.23 334.436 495.257 330.716 499.213L329.379 497.966C333.533 493.542 337.741 489.063 341.787 484.421C341.443 470.587 342.076 456.609 343.665 442.865C344.64 434.485 346.031 425.635 349.661 417.562C350.799 415.016 352.695 411.386 355.928 409.11C359.251 406.78 363.603 406.528 366.493 408.478C369.761 410.681 370.646 414.907 371.044 417.887C373.355 435.821 366.348 452.256 360.063 462.893C355.368 470.858 349.661 478.136 343.629 485.071C343.936 495.51 345.362 506.997 352.984 514.004C354.645 515.521 356.126 516.261 357.517 516.189C359.81 516.099 361.598 513.968 363.043 511.891C369.4 502.788 374.331 492.928 377.78 482.453C378.177 479.346 379.044 476.294 380.363 473.459L382.078 474.055C381.356 477.035 380.525 479.96 379.568 482.85C379.207 485.866 379.315 488.918 379.911 491.898C380.236 493.506 381.609 498.851 385.636 499.61C388.67 500.188 391.668 498.057 395.063 492.891L407.091 474.615L405.936 479.599C405.321 482.254 404.292 488.611 408.157 490.201C410.378 491.104 412.708 489.803 415.182 488.413C417.584 487.058 420.076 485.649 422.858 486.011L423.797 486.137L423.634 487.076C423.002 490.76 423.309 495.293 426.289 495.962C428.24 496.395 429.847 494.914 431.689 493.198C433.26 491.754 434.886 490.237 436.963 489.731L437.396 491.501C435.771 491.898 434.326 493.235 432.917 494.535C430.876 496.431 428.763 498.382 425.874 497.732C421.955 496.865 421.106 492.187 421.648 487.78C419.806 487.871 417.982 488.9 416.049 489.984C413.304 491.537 410.469 493.126 407.435 491.88C404.635 490.724 403.263 487.69 403.497 483.338L396.562 493.885C394.142 497.569 390.332 502.355 385.275 501.38C381.789 500.712 379.117 497.298 378.105 492.223C377.852 490.941 377.672 489.641 377.581 488.34C374.24 496.991 369.87 505.227 364.506 512.902C362.79 515.34 360.641 517.869 357.553 517.977C357.499 518.049 357.445 518.049 357.372 518.049ZM361.942 409.02C360.28 409.02 358.492 409.562 356.957 410.645C354.103 412.65 352.37 415.991 351.304 418.339C347.782 426.177 346.41 434.864 345.471 443.099C343.972 456.085 343.322 469.287 343.556 482.38C349.047 475.969 354.194 469.269 358.474 462.009C364.614 451.624 371.459 435.568 369.22 418.158C368.678 413.968 367.486 411.386 365.463 410.031C364.47 409.345 363.242 409.02 361.942 409.02Z" fill="url(#paint9_linear_2670_27362)"/>
<path d="M636.054 210.344H508.713C507.033 210.344 505.679 208.99 505.679 207.31V97.0723H639.07V207.328C639.07 208.99 637.715 210.344 636.054 210.344Z" fill="url(#paint10_linear_2670_27362)"/>
<path d="M636.054 196.348H508.713C507.033 196.348 505.679 194.994 505.679 193.314V96.7649H639.07V193.314C639.07 194.994 637.715 196.348 636.054 196.348Z" fill="url(#paint11_linear_2670_27362)"/>
<path d="M517.96 101.118H513.372V108.92H517.96V101.118Z" fill="url(#paint12_linear_2670_27362)"/>
<path d="M528.29 101.118H523.702V108.92H528.29V101.118Z" fill="url(#paint13_linear_2670_27362)"/>
<path d="M537.41 101.118H532.823V108.92H537.41V101.118Z" fill="url(#paint14_linear_2670_27362)"/>
<path d="M547.74 101.118H543.153V108.92H547.74V101.118Z" fill="url(#paint15_linear_2670_27362)"/>
<path d="M556.879 101.118H552.291V108.92H556.879V101.118Z" fill="url(#paint16_linear_2670_27362)"/>
<path d="M567.209 101.118H562.622V108.92H567.209V101.118Z" fill="url(#paint17_linear_2670_27362)"/>
<path d="M576.33 101.118H571.742V108.92H576.33V101.118Z" fill="url(#paint18_linear_2670_27362)"/>
<path d="M586.66 101.118H582.072V108.92H586.66V101.118Z" fill="url(#paint19_linear_2670_27362)"/>
<path d="M595.798 101.118H591.211V108.92H595.798V101.118Z" fill="url(#paint20_linear_2670_27362)"/>
<path d="M606.128 101.118H601.541V108.92H606.128V101.118Z" fill="url(#paint21_linear_2670_27362)"/>
<path d="M615.248 101.118H610.661V108.92H615.248V101.118Z" fill="url(#paint22_linear_2670_27362)"/>
<path d="M625.597 101.118H621.01V108.92H625.597V101.118Z" fill="url(#paint23_linear_2670_27362)"/>
<path d="M578.93 112.965H565.06V126.835H578.93V112.965Z" fill="white"/>
<path d="M595.78 112.965H581.91V126.835H595.78V112.965Z" fill="white"/>
<path d="M612.449 112.965H598.579V126.835H612.449V112.965Z" fill="white"/>
<path d="M628.974 112.965H615.104V126.835H628.974V112.965Z" fill="white"/>
<path d="M528.886 130.393H515.016V144.263H528.886V130.393Z" fill="white"/>
<path d="M545.555 130.393H531.685V144.263H545.555V130.393Z" fill="white"/>
<path d="M562.098 130.393H548.228V144.263H562.098V130.393Z" fill="white"/>
<path d="M578.912 130.393H565.042V144.263H578.912V130.393Z" fill="white"/>
<path d="M595.762 130.393H581.892V144.263H595.762V130.393Z" fill="white"/>
<path d="M612.432 130.393H598.562V144.263H612.432V130.393Z" fill="white"/>
<path d="M628.974 130.393H615.104V144.263H628.974V130.393Z" fill="white"/>
<path d="M529.301 147.009H515.431V160.878H529.301V147.009Z" fill="white"/>
<path d="M545.971 147.009H532.101V160.878H545.971V147.009Z" fill="white"/>
<path d="M562.514 147.009H548.644V160.878H562.514V147.009Z" fill="url(#paint24_linear_2670_27362)"/>
<path d="M579.328 147.009H565.458V160.878H579.328V147.009Z" fill="white"/>
<path d="M596.159 147.009H582.289V160.878H596.159V147.009Z" fill="white"/>
<path d="M612.847 147.009H598.977V160.878H612.847V147.009Z" fill="white"/>
<path d="M629.372 147.009H615.502V160.878H629.372V147.009Z" fill="white"/>
<path d="M529.717 163.406H515.847V177.277H529.717V163.406Z" fill="white"/>
<path d="M546.386 163.406H532.516V177.277H546.386V163.406Z" fill="white"/>
<path d="M562.911 163.406H549.041V177.277H562.911V163.406Z" fill="white"/>
<path d="M579.725 163.406H565.855V177.277H579.725V163.406Z" fill="white"/>
<path d="M596.574 163.406H582.704V177.277H596.574V163.406Z" fill="white"/>
<path d="M613.244 163.406H599.374V177.277H613.244V163.406Z" fill="white"/>
<path d="M629.787 163.406H615.917V177.277H629.787V163.406Z" fill="white"/>
<path d="M529.717 179.769H515.847V193.639H529.717V179.769Z" fill="white"/>
<path d="M546.386 179.769H532.516V193.639H546.386V179.769Z" fill="white"/>
<path d="M562.911 179.769H549.041V193.639H562.911V179.769Z" fill="white"/>
<path d="M522.438 94.9041H516.551C515.196 94.9041 514.077 96.0238 514.077 97.3783V102.868H515.865V99.3107C515.865 97.9562 516.984 96.8365 518.339 96.8365H524.226C524.443 96.8365 524.66 96.8726 524.858 96.9268C524.642 95.7709 523.63 94.9041 522.438 94.9041Z" fill="url(#paint25_linear_2670_27362)"/>
<path d="M533.889 94.9053H528.001C526.647 94.9053 525.527 96.025 525.527 97.3795V102.87H527.315V99.3119C527.315 97.9574 528.416 96.8377 529.789 96.8377H535.676C535.893 96.8377 536.11 96.8738 536.309 96.928C536.092 95.7722 535.099 94.9053 533.889 94.9053Z" fill="url(#paint26_linear_2670_27362)"/>
<path d="M543.406 94.9053H537.518C536.164 94.9053 535.044 96.025 535.044 97.3795V102.87H536.832V99.3119C536.832 97.9574 537.952 96.8377 539.306 96.8377H545.194C545.411 96.8377 545.627 96.8738 545.826 96.928C545.609 95.7722 544.616 94.9053 543.406 94.9053Z" fill="url(#paint27_linear_2670_27362)"/>
<path d="M553.213 94.9053H547.325C545.971 94.9053 544.851 96.025 544.851 97.3795V102.87H546.639V99.3119C546.639 97.9574 547.759 96.8377 549.113 96.8377H555.001C555.217 96.8377 555.434 96.8738 555.633 96.928C555.416 95.7722 554.423 94.9053 553.213 94.9053Z" fill="url(#paint28_linear_2670_27362)"/>
<path d="M562.279 94.9053H556.391C555.037 94.9053 553.917 96.025 553.917 97.3795V102.87H555.705V99.3119C555.705 97.9574 556.825 96.8377 558.179 96.8377H564.067C564.283 96.8377 564.5 96.8738 564.699 96.928C564.5 95.7722 563.489 94.9053 562.279 94.9053Z" fill="url(#paint29_linear_2670_27362)"/>
<path d="M572.085 94.9053H566.198C564.843 94.9053 563.723 96.025 563.723 97.3795V102.87H565.511V99.3119C565.511 97.9574 566.613 96.8377 567.986 96.8377H573.873C574.09 96.8377 574.307 96.8738 574.505 96.928C574.307 95.7722 573.295 94.9053 572.085 94.9053Z" fill="url(#paint30_linear_2670_27362)"/>
<path d="M581.621 94.9053H575.733C574.379 94.9053 573.259 96.025 573.259 97.3795V102.87H575.047V99.3119C575.047 97.9574 576.149 96.8377 577.521 96.8377H583.409C583.626 96.8377 583.842 96.8738 584.041 96.928C583.824 95.7722 582.813 94.9053 581.621 94.9053Z" fill="url(#paint31_linear_2670_27362)"/>
<path d="M592.24 94.9053H586.353C584.998 94.9053 583.878 96.025 583.878 97.3795V102.87H585.666V99.3119C585.666 97.9574 586.768 96.8377 588.141 96.8377H594.028C594.245 96.8377 594.462 96.8738 594.66 96.928C594.462 95.7722 593.45 94.9053 592.24 94.9053Z" fill="url(#paint32_linear_2670_27362)"/>
<path d="M601.415 94.8149H595.527C594.173 94.8149 593.053 95.9166 593.053 97.2892V102.779H594.841V99.2216C594.841 97.8671 595.943 96.7474 597.315 96.7474H603.203C603.42 96.7474 603.636 96.7835 603.835 96.8377C603.618 95.6818 602.607 94.8149 601.415 94.8149Z" fill="url(#paint33_linear_2670_27362)"/>
<path d="M610.932 94.8149H605.045C603.69 94.8149 602.57 95.9166 602.57 97.2892V102.779H604.358V99.2216C604.358 97.8671 605.478 96.7474 606.833 96.7474H612.72C612.937 96.7474 613.154 96.7835 613.352 96.8377C613.135 95.6818 612.142 94.8149 610.932 94.8149Z" fill="url(#paint34_linear_2670_27362)"/>
<path d="M629.787 95.0491H623.899C622.545 95.0491 621.425 96.1688 621.425 97.5233V103.014H623.213V99.4557C623.213 98.1012 624.315 96.9815 625.687 96.9815H631.575C631.791 96.9815 632.008 97.0176 632.207 97.0718C631.99 95.916 630.997 95.0491 629.787 95.0491Z" fill="url(#paint35_linear_2670_27362)"/>
<path d="M621.57 94.8149H615.682C614.328 94.8149 613.208 95.9166 613.208 97.2892V102.779H614.996V99.2216C614.996 97.8671 616.116 96.7474 617.47 96.7474H623.358C623.574 96.7474 623.791 96.7835 623.99 96.8377C623.773 95.6818 622.762 94.8149 621.57 94.8149Z" fill="url(#paint36_linear_2670_27362)"/>
<path d="M249.951 210.74C262.22 210.74 272.165 200.794 272.165 188.526C272.165 176.257 262.22 166.312 249.951 166.312C237.683 166.312 227.738 176.257 227.738 188.526C227.738 200.794 237.683 210.74 249.951 210.74Z" fill="url(#paint37_linear_2670_27362)"/>
<path d="M249.952 210C261.811 210 271.425 200.386 271.425 188.527C271.425 176.667 261.811 167.053 249.952 167.053C238.092 167.053 228.478 176.667 228.478 188.527C228.478 200.386 238.092 210 249.952 210Z" fill="url(#paint38_linear_2670_27362)"/>
<path d="M230.7 185.24C230.591 185.276 230.483 185.276 230.375 185.258C229.977 185.186 229.743 184.806 229.815 184.409C231.386 176.769 237.039 170.737 244.57 168.696C245.78 168.371 247.008 168.154 248.237 168.046C248.634 168.01 248.977 168.299 249.013 168.696C249.049 169.093 248.76 169.436 248.363 169.473C247.225 169.563 246.069 169.78 244.95 170.069C237.942 171.965 232.686 177.564 231.223 184.68C231.169 184.969 230.971 185.168 230.7 185.24Z" fill="white"/>
<path opacity="0.78" d="M263.359 201.704C270.454 194.609 270.454 183.106 263.359 176.01C256.264 168.915 244.76 168.915 237.665 176.01C230.57 183.106 230.57 194.609 237.665 201.704C244.76 208.8 256.264 208.8 263.359 201.704Z" fill="white"/>
<path d="M252.335 202.361L251.811 200.446C249.806 200.898 247.712 200.97 246.14 200.735C245.581 200.645 245.183 200.157 245.183 199.597V197.683C245.183 196.979 245.797 196.455 246.502 196.545C248.037 196.744 249.879 196.744 251.721 196.238C253.635 195.715 254.881 194.685 254.52 193.349C254.195 192.139 252.895 191.723 250.041 191.741C245.96 191.741 242.781 190.82 241.878 187.479C241.066 184.463 242.637 181.556 246.303 179.894L245.779 177.98C245.617 177.366 245.978 176.734 246.592 176.571L247.712 176.264C248.326 176.101 248.958 176.463 249.12 177.077L249.59 178.792C251.45 178.359 252.877 178.323 254.032 178.395C254.628 178.431 255.08 178.937 255.08 179.551V181.321C255.08 182.007 254.502 182.531 253.816 182.459C252.732 182.35 251.251 182.35 249.445 182.838C247.17 183.452 246.772 184.572 247.007 185.42C247.296 186.468 248.849 186.811 252.046 186.919C256.615 187.046 258.836 188.31 259.703 191.47C260.479 194.36 259.053 197.539 255.062 199.327L255.64 201.458C255.802 202.072 255.441 202.704 254.827 202.866L253.707 203.173C253.129 203.336 252.497 202.975 252.335 202.361Z" fill="url(#paint39_linear_2670_27362)"/>
<path d="M304.077 185.203C325.432 185.203 342.743 167.891 342.743 146.537C342.743 125.182 325.432 107.87 304.077 107.87C282.722 107.87 265.41 125.182 265.41 146.537C265.41 167.891 282.722 185.203 304.077 185.203Z" fill="url(#paint40_linear_2670_27362)"/>
<path d="M304.077 183.92C324.723 183.92 341.461 167.183 341.461 146.536C341.461 125.89 324.723 109.152 304.077 109.152C283.43 109.152 266.693 125.89 266.693 146.536C266.693 167.183 283.43 183.92 304.077 183.92Z" fill="url(#paint41_linear_2670_27362)"/>
<path d="M270.449 140.324C270.341 140.36 270.232 140.36 270.124 140.342C269.727 140.27 269.492 139.891 269.564 139.494C272.255 126.382 281.954 116.052 294.867 112.548C296.925 111.988 299.039 111.609 301.152 111.428C301.549 111.392 301.892 111.681 301.928 112.078C301.964 112.476 301.675 112.819 301.278 112.855C299.255 113.036 297.233 113.379 295.246 113.921C282.857 117.28 273.555 127.177 270.973 139.764C270.901 140.053 270.702 140.252 270.449 140.324Z" fill="white"/>
<path opacity="0.78" d="M327.439 169.49C339.795 157.134 339.795 137.1 327.439 124.743C315.082 112.387 295.048 112.387 282.692 124.743C270.335 137.1 270.335 157.134 282.692 169.49C295.048 181.847 315.082 181.847 327.439 169.49Z" fill="white"/>
<path d="M308.23 170.629L307.327 167.305C303.824 168.1 300.176 168.227 297.449 167.811C296.473 167.667 295.769 166.818 295.769 165.825V162.501C295.769 161.273 296.853 160.352 298.063 160.515C300.753 160.876 303.95 160.858 307.165 159.991C310.506 159.088 312.673 157.282 312.059 154.97C311.499 152.875 309.223 152.153 304.257 152.171C297.16 152.153 291.615 150.564 290.044 144.73C288.617 139.475 291.381 134.418 297.756 131.528L296.853 128.205C296.564 127.14 297.196 126.038 298.261 125.749L300.212 125.226C301.277 124.937 302.379 125.569 302.668 126.634L303.48 129.614C306.713 128.874 309.205 128.783 311.228 128.928C312.275 129 313.07 129.885 313.07 130.932V134.003C313.07 135.195 312.059 136.116 310.867 135.989C308.989 135.809 306.388 135.791 303.264 136.639C299.309 137.705 298.622 139.656 299.02 141.136C299.507 142.942 302.216 143.538 307.797 143.737C315.743 143.954 319.626 146.175 321.107 151.665C322.479 156.704 319.969 162.231 313.034 165.319L314.045 169.039C314.334 170.105 313.702 171.206 312.637 171.495L310.686 172.019C309.621 172.326 308.519 171.694 308.23 170.629Z" fill="url(#paint42_linear_2670_27362)"/>
<path d="M352.423 262.698C374.397 262.698 392.209 244.885 392.209 222.912C392.209 200.939 374.397 183.126 352.423 183.126C330.45 183.126 312.637 200.939 312.637 222.912C312.637 244.885 330.45 262.698 352.423 262.698Z" fill="url(#paint43_linear_2670_27362)"/>
<path d="M352.423 261.38C373.668 261.38 390.891 244.157 390.891 222.912C390.891 201.667 373.668 184.444 352.423 184.444C331.178 184.444 313.955 201.667 313.955 222.912C313.955 244.157 331.178 261.38 352.423 261.38Z" fill="url(#paint44_linear_2670_27362)"/>
<path d="M317.821 216.501C317.712 216.537 317.604 216.537 317.495 216.519C317.098 216.447 316.863 216.068 316.936 215.67C319.699 202.18 329.668 191.579 342.942 187.967C345.055 187.389 347.241 187.01 349.408 186.829C349.805 186.793 350.148 187.082 350.185 187.479C350.221 187.876 349.932 188.22 349.534 188.256C347.458 188.436 345.363 188.797 343.322 189.357C330.571 192.825 320.999 203.01 318.344 215.959C318.272 216.212 318.073 216.429 317.821 216.501Z" fill="white"/>
<path opacity="0.78" d="M353.452 256.07C371.436 256.07 386.015 241.491 386.015 223.508C386.015 205.524 371.436 190.946 353.452 190.946C335.468 190.946 320.89 205.524 320.89 223.508C320.89 241.491 335.468 256.07 353.452 256.07Z" fill="white"/>
<path d="M356.704 247.708L355.783 244.294C352.189 245.125 348.433 245.234 345.634 244.818C344.64 244.674 343.9 243.789 343.9 242.777V239.364C343.9 238.118 345.002 237.161 346.248 237.323C349.011 237.685 352.298 237.685 355.603 236.782C359.034 235.842 361.274 234 360.623 231.598C360.045 229.449 357.716 228.709 352.605 228.709C345.291 228.691 339.602 227.047 337.976 221.051C336.514 215.634 339.349 210.432 345.905 207.47L344.984 204.057C344.677 202.956 345.327 201.818 346.428 201.529L348.433 200.987C349.535 200.68 350.672 201.33 350.961 202.432L351.792 205.502C355.133 204.743 357.68 204.653 359.757 204.798C360.822 204.87 361.653 205.791 361.653 206.856V210.017C361.653 211.245 360.605 212.184 359.395 212.076C357.463 211.895 354.79 211.877 351.575 212.744C347.512 213.846 346.79 215.85 347.205 217.367C347.711 219.227 350.492 219.841 356.235 220.04C364.416 220.257 368.407 222.55 369.942 228.185C371.351 233.368 368.768 239.057 361.635 242.236L362.664 246.064C362.971 247.166 362.321 248.304 361.219 248.593L359.215 249.135C358.131 249.442 356.993 248.791 356.704 247.708Z" fill="url(#paint45_linear_2670_27362)"/>
<path d="M387.496 186.394C403.594 186.394 416.644 173.344 416.644 157.246C416.644 141.147 403.594 128.097 387.496 128.097C371.397 128.097 358.347 141.147 358.347 157.246C358.347 173.344 371.397 186.394 387.496 186.394Z" fill="url(#paint46_linear_2670_27362)"/>
<path d="M387.496 185.438C403.065 185.438 415.687 172.816 415.687 157.247C415.687 141.677 403.065 129.055 387.496 129.055C371.926 129.055 359.304 141.677 359.304 157.247C359.304 172.816 371.926 185.438 387.496 185.438Z" fill="url(#paint47_linear_2670_27362)"/>
<path d="M362.194 152.713C362.085 152.749 361.977 152.749 361.868 152.731C361.471 152.659 361.236 152.279 361.309 151.882C363.349 141.931 370.7 134.093 380.506 131.438C382.059 131.023 383.667 130.734 385.274 130.589C385.671 130.553 386.014 130.842 386.051 131.24C386.087 131.637 385.798 131.98 385.4 132.016C383.883 132.143 382.366 132.414 380.885 132.811C371.621 135.321 364.65 142.744 362.717 152.153C362.645 152.442 362.446 152.658 362.194 152.713Z" fill="white"/>
<path opacity="0.78" d="M405.121 174.543C414.439 165.227 414.439 150.121 405.122 140.804C395.804 131.488 380.699 131.488 371.382 140.804C362.065 150.121 362.065 165.227 371.382 174.543C380.699 183.86 395.804 183.86 405.121 174.543Z" fill="white"/>
<path d="M390.639 175.396L389.953 172.885C387.316 173.481 384.57 173.572 382.511 173.265C381.771 173.156 381.247 172.506 381.247 171.766V169.255C381.247 168.334 382.06 167.648 382.963 167.756C384.986 168.027 387.406 168.027 389.826 167.359C392.337 166.673 393.98 165.318 393.511 163.567C393.077 161.995 391.379 161.454 387.623 161.454C382.259 161.436 378.086 160.244 376.912 155.855C375.829 151.882 377.906 148.071 382.728 145.904L382.042 143.394C381.825 142.581 382.295 141.751 383.107 141.534L384.57 141.137C385.383 140.92 386.214 141.389 386.431 142.202L387.045 144.459C389.483 143.9 391.361 143.845 392.878 143.954C393.655 144.008 394.269 144.676 394.269 145.453V147.764C394.269 148.649 393.511 149.354 392.608 149.263C391.199 149.119 389.23 149.119 386.882 149.751C383.902 150.564 383.378 152.026 383.685 153.128C384.047 154.501 386.106 154.952 390.296 155.079C396.292 155.241 399.218 156.921 400.338 161.056C401.367 164.849 399.471 169.021 394.251 171.35L395.01 174.15C395.226 174.962 394.757 175.793 393.944 176.01L392.481 176.407C391.686 176.678 390.856 176.208 390.639 175.396Z" fill="url(#paint48_linear_2670_27362)"/>
<path d="M542.721 243.464C539.09 255.023 532.282 259.285 526.756 257.533C521.103 255.763 518.358 248.413 521.608 237.848C524.877 227.463 531.433 222.027 537.646 223.978C544.039 226 545.827 233.603 542.721 243.464ZM519.64 280.614L560.889 231.292L565.241 232.664L523.974 281.968L519.64 280.614ZM527.55 239.347C525.491 245.65 525.726 250.815 528.76 251.772C531.812 252.729 534.666 248.81 536.761 242.146C538.675 236.078 538.964 230.786 535.677 229.757C532.589 228.781 529.501 233.188 527.55 239.347ZM563.381 274.997C559.769 286.465 553.015 290.836 547.416 289.066C541.818 287.314 539.018 279.945 542.359 269.308C545.592 259.014 552.184 253.488 558.324 255.42C564.736 257.443 566.487 265.118 563.381 274.997ZM548.229 270.879C546.206 277.11 546.387 282.347 549.439 283.305C552.545 284.28 555.363 280.343 557.457 273.679C559.39 267.52 559.661 262.319 556.374 261.289C553.249 260.314 550.161 264.721 548.229 270.879Z" fill="url(#paint49_linear_2670_27362)"/>
<path d="M499.9 257.641H493.02V252.043H499.9V241.947H505.228V252.043H512.109V257.641H505.228V267.61H499.9V257.641Z" fill="url(#paint50_linear_2670_27362)"/>
<path d="M264.164 566.195C264.164 566.032 264.164 565.852 264.11 565.689C261.564 555.558 248.867 549.255 248.867 549.255L243.847 549.653C240.957 558.574 241.336 564.064 241.788 566.502C241.806 566.574 241.824 566.628 241.842 566.701C245.996 567.044 254.52 567.297 264.164 566.195Z" fill="url(#paint51_linear_2670_27362)"/>
<path d="M241.842 566.683C242.059 567.496 242.673 568.128 243.431 568.29C249.337 569.536 258.71 568.525 262.629 568.019C263.496 567.911 264.128 567.098 264.146 566.196C254.52 567.297 245.996 567.044 241.842 566.683Z" fill="url(#paint52_linear_2670_27362)"/>
<path d="M241.824 542.158L243.955 552.398C244.118 553.156 244.696 553.716 245.382 553.77C246.231 553.842 247.459 553.897 248.687 553.716C249.789 553.554 250.547 552.434 250.349 551.242L248.868 542.14H241.824V542.158Z" fill="url(#paint53_linear_2670_27362)"/>
<path d="M285.927 566.557C280.382 566.394 277.51 565.744 276.029 565.148C276.029 565.708 276.029 566.268 276.047 566.846C276.066 567.46 276.535 567.966 277.095 567.966L307.563 567.767C308.538 567.767 309.098 566.629 308.683 565.744C304.691 566.051 294.505 566.792 285.927 566.557Z" fill="url(#paint54_linear_2670_27362)"/>
<path d="M308.682 565.727C308.645 565.655 308.609 565.565 308.555 565.492C305.864 561.736 299.001 554.24 285.456 550.989L278.955 550.791C278.955 550.791 276.065 555.812 276.011 565.131C277.492 565.745 280.364 566.395 285.908 566.54C294.505 566.793 304.69 566.052 308.682 565.727Z" fill="url(#paint55_linear_2670_27362)"/>
<path d="M277.474 541.237C277.583 541.724 278.937 549.002 279.461 551.837C279.587 552.506 280.111 552.993 280.725 553.029C281.845 553.084 283.633 553.102 285.168 552.686C285.999 552.451 286.558 551.603 286.504 550.664L285.782 539.124L277.474 541.237Z" fill="url(#paint56_linear_2670_27362)"/>
<path d="M272.562 406.636C272.562 406.636 281.502 468.058 287.949 541.147C288.075 542.501 286.992 543.693 285.655 543.982C283.687 544.398 280.779 544.885 278.395 544.831C277.113 544.795 276.048 543.838 275.831 542.592C273.628 529.697 257.951 460.545 253.834 445.32C253.834 445.32 249.102 509.975 250.619 543.531C250.655 544.362 250.041 545.084 249.21 545.192C247.946 545.337 245.942 545.445 243.377 545.174C242.402 545.066 241.625 544.344 241.481 543.368C239.91 532.46 230.898 467.534 231.295 420.777C231.313 418.14 234.383 396.468 234.383 396.468L272.562 406.636Z" fill="url(#paint57_linear_2670_27362)"/>
<path d="M349.173 347.905C349.173 347.905 346.663 341.313 343.755 341.927C340.83 342.523 337.633 344.78 337.633 344.78L332.938 351.138C332.938 351.138 346.121 356.339 350.762 353.359C350.762 353.359 364.217 355.689 381.229 352.889C378.773 347.688 377.31 342.487 376.443 338.459C367.811 343.318 358.546 346.948 349.173 347.905Z" fill="url(#paint58_linear_2670_27362)"/>
<path d="M420.491 300.118C420.491 300.118 401.221 324.391 376.425 338.423C377.292 342.469 378.755 347.67 381.211 352.853C394.07 350.74 408.951 345.702 421.575 334.522L420.491 300.118Z" fill="url(#paint59_linear_2670_27362)"/>
<path d="M276.012 303.333L277.204 335.479C280.599 336.653 283.832 337.556 286.92 338.242C288.852 332.029 293.096 324.426 296.564 318.756C283.814 314.241 276.012 303.333 276.012 303.333Z" fill="url(#paint60_linear_2670_27362)"/>
<path d="M339.762 302.791C322.244 321.7 308.068 322.82 296.564 318.756C293.096 324.427 288.852 332.03 286.92 338.243C333.694 348.555 344.711 305.554 344.711 305.554L339.762 302.791Z" fill="url(#paint61_linear_2670_27362)"/>
<path d="M343.32 300.787C343.32 300.787 345.343 298.619 349.063 299.306C352.802 299.992 356.125 301.292 358.455 299.306C360.785 297.319 361.598 299.974 361.598 299.974L354.626 305.265L343.32 300.787Z" fill="url(#paint62_linear_2670_27362)"/>
<path d="M339.149 304.489C339.149 304.489 340.54 298.71 344.694 299.504C348.865 300.299 358.311 305.446 360.749 304.489C363.187 303.55 366.311 301.274 367.901 302.069L365.083 305.573C365.083 305.573 372.325 301.401 373.572 303.965L361.525 310.738C361.544 310.738 343.917 308.986 339.149 304.489Z" fill="url(#paint63_linear_2670_27362)"/>
<path d="M233.029 410.175C232.108 409.85 231.476 409.019 231.367 408.044C230.175 396.503 224.432 325.005 260.751 295.603C260.751 295.603 262.828 290.149 279.967 303.549C297.088 316.95 287.932 331 283.832 350.379C278.866 373.82 270.161 392.982 274.007 407.411C274.278 408.405 273.755 409.452 272.779 409.813C259.487 414.69 246.231 414.852 233.029 410.175Z" fill="url(#paint64_linear_2670_27362)"/>
<path d="M274.928 274.166C274.91 275.177 260.408 295.784 260.408 295.784C260.408 295.784 263.009 300.913 275.452 305.085L286.18 283.015L274.928 274.166Z" fill="url(#paint65_linear_2670_27362)"/>
<path d="M269.221 344.926C269.221 344.926 296.745 367.989 326.471 357.929C328.313 357.297 330.336 357.442 332.052 358.345L340.594 362.86C344.188 364.756 348.631 363.51 350.708 360.024C351.9 358.038 352.911 355.762 353.11 353.595L336.386 346.822L337.614 344.763C337.614 344.763 329.451 344.077 327.32 349.929C327.32 349.929 311.77 356.394 285.547 327.552C285.547 327.552 273.646 337.666 269.221 344.926Z" fill="url(#paint66_linear_2670_27362)"/>
<path d="M267.74 344.672C267.65 344.672 267.559 344.654 267.469 344.599C255.875 336.761 250.42 324.137 250.366 323.993C250.258 323.758 250.384 323.469 250.619 323.379C250.854 323.27 251.143 323.397 251.233 323.631C251.287 323.758 256.633 336.147 267.993 343.823C268.209 343.967 268.264 344.256 268.119 344.473C268.047 344.599 267.902 344.672 267.74 344.672Z" fill="url(#paint67_linear_2670_27362)"/>
<path d="M285.005 327.154C284.843 327.154 284.698 327.081 284.608 326.937C284.572 326.883 281.032 321.375 274.296 309.293C272.219 305.572 269.492 303.224 266.187 302.303C260.715 300.768 255.441 303.712 255.405 303.73C255.17 303.857 254.899 303.784 254.755 303.55C254.628 303.315 254.701 303.044 254.936 302.899C255.17 302.773 260.588 299.739 266.44 301.382C269.997 302.376 272.923 304.868 275.126 308.823C281.845 320.869 285.384 326.359 285.421 326.413C285.565 326.63 285.493 326.919 285.276 327.063C285.186 327.136 285.096 327.154 285.005 327.154Z" fill="url(#paint68_linear_2670_27362)"/>
<path d="M286.359 262.355C286.359 262.355 291.524 274.221 291.867 280.433C292.211 286.664 293.547 290.691 286.359 291.956C279.153 293.202 273.103 289.626 269.816 283.431C269.816 283.431 264.669 273.877 265.825 269.958C266.981 266.039 286.359 262.355 286.359 262.355Z" fill="url(#paint69_linear_2670_27362)"/>
<path d="M272.273 278.97L272.688 278.789C273.212 278.554 273.429 277.94 273.176 277.435C272.165 275.466 270.178 270.987 272.743 269.94C276.03 268.585 289.087 265.931 291.904 261.307C294.613 256.865 292.211 251.122 288.617 249.478C288.383 249.37 288.094 249.46 287.967 249.695L287.66 250.255C287.462 250.652 286.884 250.58 286.757 250.164C286.649 249.767 286.107 249.677 285.872 250.038C285.005 251.429 282.676 253.668 276.427 254.824C267.541 256.467 261.672 260.061 261.527 266.183C261.509 266.581 261.112 266.797 260.769 266.581C260.119 266.183 259.071 265.985 257.663 267.177C255.225 269.236 256.218 274.545 261.564 278.916C261.816 279.132 261.816 279.512 261.546 279.692C260.57 280.324 259.125 281.823 262.882 283.828C266.747 285.905 269.636 285.724 270.756 285.544C271.027 285.489 271.208 285.237 271.153 284.948L269.961 279.548C269.889 279.241 270.124 278.952 270.431 278.952H272.273V278.97Z" fill="url(#paint70_linear_2670_27362)"/>
<path d="M272.49 280.108C272.49 280.108 270.521 272.541 267.126 274.654C263.73 276.785 268.896 283.142 271.623 283.431L272.49 280.108Z" fill="url(#paint71_linear_2670_27362)"/>
<path d="M332.053 358.325C332.053 358.325 339.041 365.169 340.395 364.176C340.883 363.815 342.092 362.533 343.266 361.106C344.097 360.095 344.187 358.668 343.465 357.567L341.822 355.02C340.251 352.601 336.892 352.095 334.707 353.991C333.606 354.948 332.613 356.321 332.053 358.325Z" fill="url(#paint72_linear_2670_27362)"/>
<path d="M444.529 407.739C440.755 389.841 436.998 379.475 424.375 345.522C420.401 334.848 416.789 324.03 418.541 312.779L420.492 300.136C420.492 300.136 445.017 291.829 472.215 299.793C472.215 299.793 509.311 315.903 484.117 395.494C472.757 408.19 459.465 411.82 444.529 407.739Z" fill="url(#paint73_linear_2670_27362)"/>
<path d="M424.663 283.991L431.02 299.27C431.418 300.227 432.284 300.931 433.314 301.094C436.98 301.726 445.848 302.701 451.681 298.872C452.367 298.421 452.548 297.464 452.078 296.795L440.321 279.927L424.663 283.991Z" fill="url(#paint74_linear_2670_27362)"/>
<path d="M440.357 355.798C439.472 356.032 439.039 357.008 439.472 357.82L457.875 393.109C458.182 393.705 458.869 393.994 459.519 393.813L519.713 376.44C520.453 376.223 520.887 375.447 520.67 374.688L510.304 338.803C510.087 338.063 509.328 337.63 508.588 337.828L440.357 355.798Z" fill="url(#paint75_linear_2670_27362)"/>
<path d="M444.24 351.643C443.373 351.842 442.886 352.763 443.193 353.593L457.93 393.614C458.201 394.336 458.977 394.733 459.736 394.517L519.749 377.197C520.49 376.981 520.941 376.222 520.779 375.464L512.471 336.961C512.29 336.148 511.496 335.642 510.683 335.841L444.24 351.643Z" fill="url(#paint76_linear_2670_27362)"/>
<path d="M449.459 347.616C448.412 347.779 447.708 348.79 447.96 349.838L457.965 393.038C458.2 394.067 459.248 394.663 460.259 394.374L519.368 377.307C520.325 377.036 520.885 376.061 520.632 375.104L511.548 339.85C511.313 338.947 510.428 338.351 509.507 338.496L449.459 347.616Z" fill="url(#paint77_linear_2670_27362)"/>
<path d="M497.299 364.087C501.887 329.429 475.177 302.791 475.177 302.791L459.284 321.321C471.348 336.364 477.073 350.126 479.691 360.962C483.195 359.933 491.557 358.343 497.299 364.087Z" fill="url(#paint78_linear_2670_27362)"/>
<path d="M479.71 361.937C479.259 361.937 478.861 361.63 478.753 361.179C475.52 347.832 468.712 334.63 458.526 321.934C458.183 321.518 458.255 320.886 458.67 320.543C459.086 320.2 459.718 320.272 460.061 320.687C470.427 333.619 477.362 347.092 480.667 360.709C480.794 361.233 480.469 361.775 479.945 361.901C479.873 361.919 479.801 361.937 479.71 361.937Z" fill="url(#paint79_linear_2670_27362)"/>
<path d="M479.71 360.944C482.148 371.004 481.895 378.499 481.516 382.093C481.372 383.447 480.288 384.495 478.934 384.585C477.398 384.693 475.304 384.838 473.425 384.946C471.366 385.073 469.091 383.772 467.556 382.671C466.779 382.111 465.768 382.978 466.201 383.826C467.339 386.048 470.229 388.034 472.233 389.208C472.956 389.642 472.829 390.725 472.017 390.942L463.492 393.362C477.507 406.564 486.753 391.791 486.753 391.791C492.93 382.237 496.127 372.9 497.301 364.069C491.557 358.344 483.196 359.933 479.71 360.944Z" fill="url(#paint80_linear_2670_27362)"/>
<path d="M431.237 260.603C430.966 260.856 419.967 282.474 419.967 282.474L432.447 288.488L445.919 269.543C445.919 269.561 435.716 256.395 431.237 260.603Z" fill="url(#paint81_linear_2670_27362)"/>
<path d="M440.249 271.836L434.018 282.202C433.928 282.365 433.819 282.509 433.675 282.636C432.935 283.322 430.406 285.327 428.438 282.6C426.776 280.27 425.205 278.157 423.525 277.29C422.55 276.784 421.34 277.182 420.834 278.175C419.805 280.216 417.818 284.351 416.572 288.27C416.265 289.264 416.771 290.311 417.728 290.69C420.256 291.72 425.241 293.562 429.684 294.176C430.406 294.284 431.129 293.977 431.562 293.381C433.476 290.763 438.84 283.467 440.682 281.643C442.38 279.945 445.522 280.577 446.949 280.992C447.491 281.155 448.051 281.065 448.538 280.776C449.983 279.909 452.475 277.76 450.182 274.112C449.604 273.209 449.911 271.999 450.796 271.403C452.403 270.355 454.137 268.369 452.475 265.154C450.796 261.903 447.798 261.614 445.757 261.867C444.854 261.976 443.933 261.506 443.59 260.657C443.427 260.278 443.138 259.971 442.56 259.845C441.495 259.628 440.791 258.653 440.989 257.569C441.35 255.727 441.08 253.343 438.136 251.736C432.754 248.774 428.04 253.596 426.83 257.677C425.638 261.741 431.652 264.63 435.427 265.1C438.208 265.461 439.725 268.495 440.339 270.066C440.628 270.662 440.574 271.294 440.249 271.836Z" fill="url(#paint82_linear_2670_27362)"/>
<path d="M438.353 285.454C438.353 285.454 440.754 278.446 443.806 278.699C446.876 278.952 449.277 282.004 445.485 285.436C440.772 289.716 438.353 285.454 438.353 285.454Z" fill="url(#paint83_linear_2670_27362)"/>
<path d="M442.109 565.546C448.033 566.051 458.309 566.882 466.418 567.244C471.294 567.461 474.093 566.973 475.718 566.34C475.718 566.521 475.718 566.702 475.7 566.846C475.664 567.695 474.96 568.382 474.111 568.436C458.796 569.285 446.606 568.725 442.272 568.472C441.369 568.418 440.845 567.443 441.296 566.684C441.531 566.286 441.82 565.907 442.109 565.546Z" fill="url(#paint84_linear_2670_27362)"/>
<path d="M466.436 567.242C458.327 566.881 448.051 566.05 442.127 565.544C447.96 558.393 466.436 553.59 466.436 553.59H471.655C475.249 558.772 475.773 563.702 475.719 566.339C474.112 566.971 471.294 567.459 466.436 567.242Z" fill="url(#paint85_linear_2670_27362)"/>
<path d="M472.522 545.047L472.034 554.709C471.98 555.757 471.203 556.642 470.156 556.786C469.108 556.931 467.718 556.949 466.237 556.461C465.334 556.154 464.648 555.396 464.485 554.457L462.805 545.047H472.522Z" fill="url(#paint86_linear_2670_27362)"/>
<path d="M540.355 567.17C542.92 566.809 544.093 565.473 544.581 564.047C544.581 564.065 544.581 564.065 544.599 564.083C544.978 565.581 544.093 567.152 542.342 567.892C540.229 568.795 537.917 568.94 536.111 568.867C534.179 568.795 532.409 567.983 531.434 566.719L531.416 566.701C533.348 567.658 536.057 567.766 540.355 567.17Z" fill="url(#paint87_linear_2670_27362)"/>
<path d="M528.237 544.993H532.535C539.091 544.867 543.208 558.701 544.563 564.047C544.075 565.473 542.919 566.81 540.337 567.171C536.057 567.767 533.33 567.659 531.397 566.701C527.858 562.042 526.106 555.215 525.257 551.224C524.3 546.691 528.237 544.993 528.237 544.993Z" fill="url(#paint88_linear_2670_27362)"/>
<path d="M531.993 536.017L534.377 545.535C534.666 546.709 534.106 547.901 533.041 548.461C531.704 549.147 529.826 549.87 528.092 549.653C527.28 549.563 526.594 548.985 526.341 548.208L522.837 538.203L531.993 536.017Z" fill="url(#paint89_linear_2670_27362)"/>
<path d="M534.847 538.761C531.867 541.398 522.187 541.741 522.187 541.741C487.331 458.088 472.793 435.062 472.793 435.062C477.832 466.63 473.877 547.683 473.877 547.683C468.134 550.229 460.711 547.683 460.711 547.683C460.241 495.996 452.963 440.444 443.572 404.902C467.122 404.378 479.927 399.231 484.026 395.999C503.676 427.675 534.847 538.761 534.847 538.761Z" fill="url(#paint90_linear_2670_27362)"/>
</g>
<defs>
<linearGradient id="paint0_linear_2670_27362" x1="30.0604" y1="294.72" x2="144.563" y2="627.932" gradientUnits="userSpaceOnUse">
<stop stop-color="#CB236D"/>
<stop offset="1" stop-color="#4C246D"/>
</linearGradient>
<linearGradient id="paint1_linear_2670_27362" x1="58.5348" y1="233.063" x2="177.103" y2="590.014" gradientUnits="userSpaceOnUse">
<stop stop-color="#A737D5"/>
<stop offset="1" stop-color="#EF497A"/>
</linearGradient>
<linearGradient id="paint2_linear_2670_27362" x1="316.795" y1="530.464" x2="292.535" y2="-187.634" gradientUnits="userSpaceOnUse">
<stop stop-color="#2B3582"/>
<stop offset="1" stop-color="#150E42"/>
</linearGradient>
<linearGradient id="paint3_linear_2670_27362" x1="88.0394" y1="465.122" x2="362.987" y2="639.793" gradientUnits="userSpaceOnUse">
<stop stop-color="#A737D5"/>
<stop offset="1" stop-color="#EF497A"/>
</linearGradient>
<linearGradient id="paint4_linear_2670_27362" x1="111.133" y1="428.788" x2="386.072" y2="603.359" gradientUnits="userSpaceOnUse">
<stop stop-color="#A737D5"/>
<stop offset="1" stop-color="#EF497A"/>
</linearGradient>
<linearGradient id="paint5_linear_2670_27362" x1="467.243" y1="111.077" x2="120.024" y2="610.821" gradientUnits="userSpaceOnUse">
<stop stop-color="#53D8FF"/>
<stop offset="1" stop-color="#3840F7"/>
</linearGradient>
<linearGradient id="paint6_linear_2670_27362" x1="354.809" y1="29.6123" x2="233.481" y2="189.211" gradientUnits="userSpaceOnUse">
<stop stop-color="#2B3582"/>
<stop offset="1" stop-color="#150E42"/>
</linearGradient>
<linearGradient id="paint7_linear_2670_27362" x1="368.119" y1="39.7283" x2="246.79" y2="199.33" gradientUnits="userSpaceOnUse">
<stop stop-color="#2B3582"/>
<stop offset="1" stop-color="#150E42"/>
</linearGradient>
<linearGradient id="paint8_linear_2670_27362" x1="352.829" y1="49.4915" x2="269.056" y2="203.316" gradientUnits="userSpaceOnUse">
<stop stop-color="#53D8FF"/>
<stop offset="1" stop-color="#3840F7"/>
</linearGradient>
<linearGradient id="paint9_linear_2670_27362" x1="329.363" y1="462.623" x2="437.404" y2="462.623" gradientUnits="userSpaceOnUse">
<stop stop-color="#2B3582"/>
<stop offset="1" stop-color="#150E42"/>
</linearGradient>
<linearGradient id="paint10_linear_2670_27362" x1="576.909" y1="107.718" x2="558.868" y2="285.322" gradientUnits="userSpaceOnUse">
<stop stop-color="#A737D5"/>
<stop offset="1" stop-color="#EF497A"/>
</linearGradient>
<linearGradient id="paint11_linear_2670_27362" x1="505.688" y1="146.557" x2="639.078" y2="146.557" gradientUnits="userSpaceOnUse">
<stop stop-color="#B37CFF"/>
<stop offset="1" stop-color="#F895E7"/>
</linearGradient>
<linearGradient id="paint12_linear_2670_27362" x1="513.547" y1="109.772" x2="534.882" y2="61.919" gradientUnits="userSpaceOnUse">
<stop stop-color="#A737D5"/>
<stop offset="1" stop-color="#EF497A"/>
</linearGradient>
<linearGradient id="paint13_linear_2670_27362" x1="522.166" y1="113.615" x2="543.501" y2="65.7619" gradientUnits="userSpaceOnUse">
<stop stop-color="#A737D5"/>
<stop offset="1" stop-color="#EF497A"/>
</linearGradient>
<linearGradient id="paint14_linear_2670_27362" x1="529.78" y1="117.01" x2="551.115" y2="69.1563" gradientUnits="userSpaceOnUse">
<stop stop-color="#A737D5"/>
<stop offset="1" stop-color="#EF497A"/>
</linearGradient>
<linearGradient id="paint15_linear_2670_27362" x1="538.4" y1="120.853" x2="559.735" y2="72.9996" gradientUnits="userSpaceOnUse">
<stop stop-color="#A737D5"/>
<stop offset="1" stop-color="#EF497A"/>
</linearGradient>
<linearGradient id="paint16_linear_2670_27362" x1="546.014" y1="124.247" x2="567.348" y2="76.3936" gradientUnits="userSpaceOnUse">
<stop stop-color="#A737D5"/>
<stop offset="1" stop-color="#EF497A"/>
</linearGradient>
<linearGradient id="paint17_linear_2670_27362" x1="554.634" y1="128.09" x2="575.969" y2="80.237" gradientUnits="userSpaceOnUse">
<stop stop-color="#A737D5"/>
<stop offset="1" stop-color="#EF497A"/>
</linearGradient>
<linearGradient id="paint18_linear_2670_27362" x1="562.248" y1="131.485" x2="583.583" y2="83.6317" gradientUnits="userSpaceOnUse">
<stop stop-color="#A737D5"/>
<stop offset="1" stop-color="#EF497A"/>
</linearGradient>
<linearGradient id="paint19_linear_2670_27362" x1="570.868" y1="135.328" x2="592.202" y2="87.4744" gradientUnits="userSpaceOnUse">
<stop stop-color="#A737D5"/>
<stop offset="1" stop-color="#EF497A"/>
</linearGradient>
<linearGradient id="paint20_linear_2670_27362" x1="578.482" y1="138.722" x2="599.816" y2="90.869" gradientUnits="userSpaceOnUse">
<stop stop-color="#A737D5"/>
<stop offset="1" stop-color="#EF497A"/>
</linearGradient>
<linearGradient id="paint21_linear_2670_27362" x1="587.102" y1="142.565" x2="608.436" y2="94.7121" gradientUnits="userSpaceOnUse">
<stop stop-color="#A737D5"/>
<stop offset="1" stop-color="#EF497A"/>
</linearGradient>
<linearGradient id="paint22_linear_2670_27362" x1="594.715" y1="145.96" x2="616.05" y2="98.1067" gradientUnits="userSpaceOnUse">
<stop stop-color="#A737D5"/>
<stop offset="1" stop-color="#EF497A"/>
</linearGradient>
<linearGradient id="paint23_linear_2670_27362" x1="603.335" y1="149.803" x2="624.669" y2="101.949" gradientUnits="userSpaceOnUse">
<stop stop-color="#A737D5"/>
<stop offset="1" stop-color="#EF497A"/>
</linearGradient>
<linearGradient id="paint24_linear_2670_27362" x1="386.223" y1="28.8367" x2="556.684" y2="154.767" gradientUnits="userSpaceOnUse">
<stop stop-color="#FDF53F"/>
<stop offset="0.6645" stop-color="#E57A58"/>
<stop offset="1" stop-color="#D93C65"/>
</linearGradient>
<linearGradient id="paint25_linear_2670_27362" x1="655.717" y1="87.7172" x2="425.36" y2="106.146" gradientUnits="userSpaceOnUse">
<stop stop-color="#FDF53F"/>
<stop offset="0.6645" stop-color="#E57A58"/>
<stop offset="1" stop-color="#D93C65"/>
</linearGradient>
<linearGradient id="paint26_linear_2670_27362" x1="655.79" y1="88.629" x2="425.433" y2="107.057" gradientUnits="userSpaceOnUse">
<stop stop-color="#FDF53F"/>
<stop offset="0.6645" stop-color="#E57A58"/>
<stop offset="1" stop-color="#D93C65"/>
</linearGradient>
<linearGradient id="paint27_linear_2670_27362" x1="655.851" y1="89.3858" x2="425.492" y2="107.815" gradientUnits="userSpaceOnUse">
<stop stop-color="#FDF53F"/>
<stop offset="0.6645" stop-color="#E57A58"/>
<stop offset="1" stop-color="#D93C65"/>
</linearGradient>
<linearGradient id="paint28_linear_2670_27362" x1="655.913" y1="90.1655" x2="425.555" y2="108.594" gradientUnits="userSpaceOnUse">
<stop stop-color="#FDF53F"/>
<stop offset="0.6645" stop-color="#E57A58"/>
<stop offset="1" stop-color="#D93C65"/>
</linearGradient>
<linearGradient id="paint29_linear_2670_27362" x1="655.971" y1="90.8863" x2="425.613" y2="109.315" gradientUnits="userSpaceOnUse">
<stop stop-color="#FDF53F"/>
<stop offset="0.6645" stop-color="#E57A58"/>
<stop offset="1" stop-color="#D93C65"/>
</linearGradient>
<linearGradient id="paint30_linear_2670_27362" x1="656.033" y1="91.6659" x2="425.675" y2="110.095" gradientUnits="userSpaceOnUse">
<stop stop-color="#FDF53F"/>
<stop offset="0.6645" stop-color="#E57A58"/>
<stop offset="1" stop-color="#D93C65"/>
</linearGradient>
<linearGradient id="paint31_linear_2670_27362" x1="656.094" y1="92.4227" x2="425.735" y2="110.851" gradientUnits="userSpaceOnUse">
<stop stop-color="#FDF53F"/>
<stop offset="0.6645" stop-color="#E57A58"/>
<stop offset="1" stop-color="#D93C65"/>
</linearGradient>
<linearGradient id="paint32_linear_2670_27362" x1="656.162" y1="93.2679" x2="425.803" y2="111.696" gradientUnits="userSpaceOnUse">
<stop stop-color="#FDF53F"/>
<stop offset="0.6645" stop-color="#E57A58"/>
<stop offset="1" stop-color="#D93C65"/>
</linearGradient>
<linearGradient id="paint33_linear_2670_27362" x1="656.214" y1="93.9093" x2="425.853" y2="112.338" gradientUnits="userSpaceOnUse">
<stop stop-color="#FDF53F"/>
<stop offset="0.6645" stop-color="#E57A58"/>
<stop offset="1" stop-color="#D93C65"/>
</linearGradient>
<linearGradient id="paint34_linear_2670_27362" x1="656.273" y1="94.6661" x2="425.916" y2="113.094" gradientUnits="userSpaceOnUse">
<stop stop-color="#FDF53F"/>
<stop offset="0.6645" stop-color="#E57A58"/>
<stop offset="1" stop-color="#D93C65"/>
</linearGradient>
<linearGradient id="paint35_linear_2670_27362" x1="656.411" y1="96.3857" x2="426.053" y2="114.814" gradientUnits="userSpaceOnUse">
<stop stop-color="#FDF53F"/>
<stop offset="0.6645" stop-color="#E57A58"/>
<stop offset="1" stop-color="#D93C65"/>
</linearGradient>
<linearGradient id="paint36_linear_2670_27362" x1="656.341" y1="95.5112" x2="425.983" y2="113.94" gradientUnits="userSpaceOnUse">
<stop stop-color="#FDF53F"/>
<stop offset="0.6645" stop-color="#E57A58"/>
<stop offset="1" stop-color="#D93C65"/>
</linearGradient>
<linearGradient id="paint37_linear_2670_27362" x1="229.847" y1="230.527" x2="249.548" y2="189.352" gradientUnits="userSpaceOnUse">
<stop stop-color="#FDF53F"/>
<stop offset="1" stop-color="#D93C65"/>
</linearGradient>
<linearGradient id="paint38_linear_2670_27362" x1="259.192" y1="160.602" x2="209.01" y2="312.12" gradientUnits="userSpaceOnUse">
<stop stop-color="#FDF53F"/>
<stop offset="1" stop-color="#D93C65"/>
</linearGradient>
<linearGradient id="paint39_linear_2670_27362" x1="257.653" y1="164.971" x2="232.996" y2="253.261" gradientUnits="userSpaceOnUse">
<stop stop-color="#FDF53F"/>
<stop offset="1" stop-color="#D93C65"/>
</linearGradient>
<linearGradient id="paint40_linear_2670_27362" x1="269.082" y1="219.671" x2="303.377" y2="147.992" gradientUnits="userSpaceOnUse">
<stop stop-color="#FDF53F"/>
<stop offset="1" stop-color="#D93C65"/>
</linearGradient>
<linearGradient id="paint41_linear_2670_27362" x1="320.167" y1="97.9419" x2="232.808" y2="361.708" gradientUnits="userSpaceOnUse">
<stop stop-color="#FDF53F"/>
<stop offset="1" stop-color="#D93C65"/>
</linearGradient>
<linearGradient id="paint42_linear_2670_27362" x1="317.489" y1="105.547" x2="274.566" y2="259.247" gradientUnits="userSpaceOnUse">
<stop stop-color="#FDF53F"/>
<stop offset="1" stop-color="#D93C65"/>
</linearGradient>
<linearGradient id="paint43_linear_2670_27362" x1="316.418" y1="298.163" x2="351.707" y2="224.405" gradientUnits="userSpaceOnUse">
<stop stop-color="#FDF53F"/>
<stop offset="1" stop-color="#D93C65"/>
</linearGradient>
<linearGradient id="paint44_linear_2670_27362" x1="368.983" y1="172.905" x2="279.092" y2="444.316" gradientUnits="userSpaceOnUse">
<stop stop-color="#FDF53F"/>
<stop offset="1" stop-color="#D93C65"/>
</linearGradient>
<linearGradient id="paint45_linear_2670_27362" x1="366.229" y1="180.73" x2="322.063" y2="338.884" gradientUnits="userSpaceOnUse">
<stop stop-color="#FDF53F"/>
<stop offset="1" stop-color="#D93C65"/>
</linearGradient>
<linearGradient id="paint46_linear_2670_27362" x1="361.114" y1="212.375" x2="386.97" y2="158.333" gradientUnits="userSpaceOnUse">
<stop stop-color="#FDF53F"/>
<stop offset="1" stop-color="#D93C65"/>
</linearGradient>
<linearGradient id="paint47_linear_2670_27362" x1="399.628" y1="120.6" x2="333.765" y2="319.462" gradientUnits="userSpaceOnUse">
<stop stop-color="#FDF53F"/>
<stop offset="1" stop-color="#D93C65"/>
</linearGradient>
<linearGradient id="paint48_linear_2670_27362" x1="397.611" y1="126.334" x2="365.253" y2="242.212" gradientUnits="userSpaceOnUse">
<stop stop-color="#FDF53F"/>
<stop offset="1" stop-color="#D93C65"/>
</linearGradient>
<linearGradient id="paint49_linear_2670_27362" x1="395.171" y1="668.314" x2="302.261" y2="928.063" gradientUnits="userSpaceOnUse">
<stop stop-color="#CB236D"/>
<stop offset="1" stop-color="#4C246D"/>
</linearGradient>
<linearGradient id="paint50_linear_2670_27362" x1="502.57" y1="230.651" x2="502.57" y2="506.522" gradientUnits="userSpaceOnUse">
<stop stop-color="#CB236D"/>
<stop offset="1" stop-color="#4C246D"/>
</linearGradient>
<linearGradient id="paint51_linear_2670_27362" x1="337.671" y1="287.626" x2="314.345" y2="362.992" gradientUnits="userSpaceOnUse">
<stop stop-color="#53D8FF"/>
<stop offset="1" stop-color="#3840F7"/>
</linearGradient>
<linearGradient id="paint52_linear_2670_27362" x1="252.944" y1="570.685" x2="254.139" y2="489.353" gradientUnits="userSpaceOnUse">
<stop stop-color="#2B3582"/>
<stop offset="1" stop-color="#150E42"/>
</linearGradient>
<linearGradient id="paint53_linear_2670_27362" x1="247.787" y1="532.289" x2="243.454" y2="570.109" gradientUnits="userSpaceOnUse">
<stop stop-color="#F9B776"/>
<stop offset="1" stop-color="#F47960"/>
</linearGradient>
<linearGradient id="paint54_linear_2670_27362" x1="292.342" y1="571.265" x2="293.539" y2="489.914" gradientUnits="userSpaceOnUse">
<stop stop-color="#2B3582"/>
<stop offset="1" stop-color="#150E42"/>
</linearGradient>
<linearGradient id="paint55_linear_2670_27362" x1="373.962" y1="298.829" x2="350.63" y2="374.202" gradientUnits="userSpaceOnUse">
<stop stop-color="#53D8FF"/>
<stop offset="1" stop-color="#3840F7"/>
</linearGradient>
<linearGradient id="paint56_linear_2670_27362" x1="282.496" y1="536.284" x2="280.55" y2="574.3" gradientUnits="userSpaceOnUse">
<stop stop-color="#F9B776"/>
<stop offset="1" stop-color="#F47960"/>
</linearGradient>
<linearGradient id="paint57_linear_2670_27362" x1="278.133" y1="501.123" x2="31.127" y2="198.13" gradientUnits="userSpaceOnUse">
<stop stop-color="#2B3582"/>
<stop offset="1" stop-color="#150E42"/>
</linearGradient>
<linearGradient id="paint58_linear_2670_27362" x1="332.934" y1="346.347" x2="381.214" y2="346.347" gradientUnits="userSpaceOnUse">
<stop stop-color="#F9B776"/>
<stop offset="1" stop-color="#F47960"/>
</linearGradient>
<linearGradient id="paint59_linear_2670_27362" x1="398.033" y1="308.437" x2="400.871" y2="380.956" gradientUnits="userSpaceOnUse">
<stop stop-color="#CB236D"/>
<stop offset="1" stop-color="#4C246D"/>
</linearGradient>
<linearGradient id="paint60_linear_2670_27362" x1="273.077" y1="332.326" x2="185.151" y2="453.154" gradientUnits="userSpaceOnUse">
<stop stop-color="#FDF53F"/>
<stop offset="1" stop-color="#D93C65"/>
</linearGradient>
<linearGradient id="paint61_linear_2670_27362" x1="362.894" y1="300.09" x2="287.149" y2="337.767" gradientUnits="userSpaceOnUse">
<stop stop-color="#F9B776"/>
<stop offset="1" stop-color="#F47960"/>
</linearGradient>
<linearGradient id="paint62_linear_2670_27362" x1="361.786" y1="290.64" x2="350.615" y2="302.309" gradientUnits="userSpaceOnUse">
<stop stop-color="#F9B776"/>
<stop offset="1" stop-color="#F47960"/>
</linearGradient>
<linearGradient id="paint63_linear_2670_27362" x1="363.255" y1="299.644" x2="287.51" y2="337.321" gradientUnits="userSpaceOnUse">
<stop stop-color="#F9B776"/>
<stop offset="1" stop-color="#F47960"/>
</linearGradient>
<linearGradient id="paint64_linear_2670_27362" x1="277.978" y1="335.892" x2="190.049" y2="456.722" gradientUnits="userSpaceOnUse">
<stop stop-color="#FDF53F"/>
<stop offset="1" stop-color="#D93C65"/>
</linearGradient>
<linearGradient id="paint65_linear_2670_27362" x1="265.076" y1="311.856" x2="275.141" y2="284.371" gradientUnits="userSpaceOnUse">
<stop stop-color="#F9B776"/>
<stop offset="1" stop-color="#F47960"/>
</linearGradient>
<linearGradient id="paint66_linear_2670_27362" x1="314.951" y1="343.819" x2="240.123" y2="473.838" gradientUnits="userSpaceOnUse">
<stop stop-color="#F9B776"/>
<stop offset="1" stop-color="#F47960"/>
</linearGradient>
<linearGradient id="paint67_linear_2670_27362" x1="285.272" y1="271.834" x2="238.015" y2="384.889" gradientUnits="userSpaceOnUse">
<stop stop-color="#FDF53F"/>
<stop offset="1" stop-color="#D93C65"/>
</linearGradient>
<linearGradient id="paint68_linear_2670_27362" x1="287.711" y1="272.856" x2="240.457" y2="385.908" gradientUnits="userSpaceOnUse">
<stop stop-color="#FDF53F"/>
<stop offset="1" stop-color="#D93C65"/>
</linearGradient>
<linearGradient id="paint69_linear_2670_27362" x1="289.813" y1="270.628" x2="229.844" y2="318.39" gradientUnits="userSpaceOnUse">
<stop stop-color="#F9B776"/>
<stop offset="1" stop-color="#F47960"/>
</linearGradient>
<linearGradient id="paint70_linear_2670_27362" x1="266.663" y1="254.915" x2="294.149" y2="290.303" gradientUnits="userSpaceOnUse">
<stop stop-color="#2B3582"/>
<stop offset="1" stop-color="#150E42"/>
</linearGradient>
<linearGradient id="paint71_linear_2670_27362" x1="283.777" y1="268.01" x2="254.264" y2="290.592" gradientUnits="userSpaceOnUse">
<stop stop-color="#F9B776"/>
<stop offset="1" stop-color="#F47960"/>
</linearGradient>
<linearGradient id="paint72_linear_2670_27362" x1="332.06" y1="358.554" x2="343.956" y2="358.554" gradientUnits="userSpaceOnUse">
<stop stop-color="#F9B776"/>
<stop offset="1" stop-color="#F47960"/>
</linearGradient>
<linearGradient id="paint73_linear_2670_27362" x1="419.857" y1="333.244" x2="519.954" y2="386.533" gradientUnits="userSpaceOnUse">
<stop stop-color="#CB236D"/>
<stop offset="1" stop-color="#4C246D"/>
</linearGradient>
<linearGradient id="paint74_linear_2670_27362" x1="440.962" y1="298.056" x2="433.22" y2="274.829" gradientUnits="userSpaceOnUse">
<stop stop-color="#F9B776"/>
<stop offset="1" stop-color="#F47960"/>
</linearGradient>
<linearGradient id="paint75_linear_2670_27362" x1="439.3" y1="365.812" x2="520.72" y2="365.812" gradientUnits="userSpaceOnUse">
<stop stop-color="#9CFFFB"/>
<stop offset="1" stop-color="#9BFFFA"/>
</linearGradient>
<linearGradient id="paint76_linear_2670_27362" x1="443.1" y1="365.184" x2="520.798" y2="365.184" gradientUnits="userSpaceOnUse">
<stop stop-color="#9CFFFB"/>
<stop offset="1" stop-color="#9BFFFA"/>
</linearGradient>
<linearGradient id="paint77_linear_2670_27362" x1="483.17" y1="357.466" x2="499.688" y2="431.534" gradientUnits="userSpaceOnUse">
<stop stop-color="#FDF53F"/>
<stop offset="1" stop-color="#D93C65"/>
</linearGradient>
<linearGradient id="paint78_linear_2670_27362" x1="434.142" y1="308.81" x2="541.756" y2="366.1" gradientUnits="userSpaceOnUse">
<stop stop-color="#CB236D"/>
<stop offset="1" stop-color="#4C246D"/>
</linearGradient>
<linearGradient id="paint79_linear_2670_27362" x1="525.461" y1="277.117" x2="450.688" y2="362.656" gradientUnits="userSpaceOnUse">
<stop stop-color="#CB236D"/>
<stop offset="1" stop-color="#4C246D"/>
</linearGradient>
<linearGradient id="paint80_linear_2670_27362" x1="487.968" y1="365.71" x2="462.806" y2="414.099" gradientUnits="userSpaceOnUse">
<stop stop-color="#F9B776"/>
<stop offset="1" stop-color="#F47960"/>
</linearGradient>
<linearGradient id="paint81_linear_2670_27362" x1="434.869" y1="264.692" x2="427.137" y2="310.187" gradientUnits="userSpaceOnUse">
<stop stop-color="#F9B776"/>
<stop offset="1" stop-color="#F47960"/>
</linearGradient>
<linearGradient id="paint82_linear_2670_27362" x1="442.998" y1="286.225" x2="420.215" y2="262.022" gradientUnits="userSpaceOnUse">
<stop stop-color="#2B3582"/>
<stop offset="1" stop-color="#150E42"/>
</linearGradient>
<linearGradient id="paint83_linear_2670_27362" x1="441.576" y1="314.35" x2="442.952" y2="282.402" gradientUnits="userSpaceOnUse">
<stop stop-color="#F9B776"/>
<stop offset="1" stop-color="#F47960"/>
</linearGradient>
<linearGradient id="paint84_linear_2670_27362" x1="458.429" y1="504.242" x2="458.429" y2="574.452" gradientUnits="userSpaceOnUse">
<stop stop-color="#2B3582"/>
<stop offset="1" stop-color="#150E42"/>
</linearGradient>
<linearGradient id="paint85_linear_2670_27362" x1="475.723" y1="560.435" x2="442.114" y2="560.435" gradientUnits="userSpaceOnUse">
<stop stop-color="#CB236D"/>
<stop offset="1" stop-color="#4C246D"/>
</linearGradient>
<linearGradient id="paint86_linear_2670_27362" x1="472.527" y1="550.973" x2="462.786" y2="550.973" gradientUnits="userSpaceOnUse">
<stop stop-color="#F9B776"/>
<stop offset="1" stop-color="#F47960"/>
</linearGradient>
<linearGradient id="paint87_linear_2670_27362" x1="538.038" y1="504.277" x2="538.038" y2="574.447" gradientUnits="userSpaceOnUse">
<stop stop-color="#2B3582"/>
<stop offset="1" stop-color="#150E42"/>
</linearGradient>
<linearGradient id="paint88_linear_2670_27362" x1="544.568" y1="556.264" x2="525.116" y2="556.264" gradientUnits="userSpaceOnUse">
<stop stop-color="#CB236D"/>
<stop offset="1" stop-color="#4C246D"/>
</linearGradient>
<linearGradient id="paint89_linear_2670_27362" x1="534.457" y1="542.853" x2="522.815" y2="542.853" gradientUnits="userSpaceOnUse">
<stop stop-color="#F9B776"/>
<stop offset="1" stop-color="#F47960"/>
</linearGradient>
<linearGradient id="paint90_linear_2670_27362" x1="594.085" y1="199.462" x2="464.891" y2="535.013" gradientUnits="userSpaceOnUse">
<stop stop-color="#53D8FF"/>
<stop offset="0.2057" stop-color="#4DB9FD"/>
<stop offset="1" stop-color="#3840F7"/>
</linearGradient>
<clipPath id="clip0_2670_27362">
<rect width="640" height="640" fill="white"/>
</clipPath>
</defs>
</svg>
