<svg width="240" height="240" viewBox="0 0 240 240" fill="none" xmlns="http://www.w3.org/2000/svg">
<path d="M31.5663 170.632C31.9044 167.233 33.3303 165.143 38.8479 159.121C44.3655 153.099 39.0564 152.471 36.1426 155.609C33.2289 158.747 31.0027 166.428 31.0027 166.428C31.0027 166.428 29.1428 158.713 32.6597 152.799C36.1765 146.885 35.4156 141.09 31.7917 142.501C28.1678 143.911 27.5817 154.283 28.1453 158.86C25.6992 154.982 24.1222 150.616 23.5238 146.064C22.6559 138.762 18.536 136.434 16.338 137C13.289 137.833 16.9805 141.198 19.8999 146.477C22.5263 151.213 24.5834 156.362 25.5697 158.073C25.5697 158.073 17.7583 147.423 11.6151 147.31C5.47197 147.197 7.01058 151.202 10.1723 152.25C13.3341 153.298 21.5287 156.838 25.8515 161.217C25.8515 161.217 14.5796 156.039 11.5306 160.928C8.48156 165.817 13.2214 166.344 17.3243 164.27C19.0829 163.317 21.1032 162.967 23.0779 163.274C25.0525 163.58 26.8734 164.527 28.2636 165.97C25.9154 165.159 23.3743 165.103 20.9933 165.811C17.144 166.865 16.3042 170.473 17.6117 171.408C19.2011 172.541 21.292 170.49 24.9046 168.791C28.5172 167.091 29.2612 171.623 29.7966 173.56C30.332 175.498 31.1041 175.231 31.5663 170.632Z" fill="#60DCE2"/>
<path d="M10.8375 149.604C10.9953 149.644 11.232 149.684 11.525 149.768C11.8181 149.853 12.1732 149.944 12.5733 150.097C12.9735 150.25 13.4187 150.409 13.9034 150.613L14.6417 150.952L15.4251 151.343L16.231 151.791L17.0595 152.278C17.6231 152.624 18.1867 152.992 18.7503 153.411C19.3139 153.83 19.8775 154.215 20.4411 154.646C22.4656 156.218 24.3859 157.921 26.1897 159.744C26.8773 160.435 27.4465 161.036 27.8523 161.477L27.61 160.99L27.2098 160.226L26.7646 159.416C26.465 158.897 26.1995 158.36 25.9699 157.807C25.7276 157.24 25.5078 156.674 25.2992 156.107C24.4707 153.841 23.7437 151.576 23.011 149.463C22.6391 148.403 22.2896 147.378 21.9346 146.415C21.5795 145.452 21.2301 144.551 20.8807 143.73C20.5312 142.909 20.1931 142.161 19.8718 141.509C19.5934 140.947 19.2868 140.398 18.9532 139.867C18.7434 139.523 18.5138 139.192 18.2656 138.875L17.9951 138.541L18.2825 138.858C18.5511 139.162 18.8014 139.482 19.0321 139.816C19.3252 140.252 19.6689 140.784 20.024 141.43C20.3791 142.076 20.751 142.801 21.1512 143.622C21.8895 145.259 22.6673 147.214 23.4056 149.327C24.1439 151.44 24.9047 153.717 25.7445 155.943C25.953 156.51 26.1672 157.076 26.3982 157.603C26.6164 158.146 26.8706 158.674 27.1591 159.183L27.5818 159.948L27.9876 160.73C28.1116 160.99 28.2412 161.251 28.3652 161.506C28.4892 161.761 28.6019 162.027 28.7146 162.288C28.878 162.661 29.0302 163.035 29.1767 163.42C29.1373 162.854 29.0978 162.118 29.0753 161.234C29.0122 158.839 29.1214 156.442 29.4022 154.062C29.4754 153.417 29.5769 152.771 29.684 152.136C29.7403 151.825 29.8023 151.508 29.8643 151.202L30.0672 150.29C30.1405 149.995 30.2194 149.723 30.2927 149.417C30.3659 149.111 30.4505 148.851 30.535 148.59C30.6195 148.33 30.7097 148.069 30.7942 147.82L31.0648 147.106C31.2564 146.653 31.4311 146.245 31.6284 145.888C31.8256 145.531 31.9834 145.237 32.1187 144.982C32.254 144.727 32.3892 144.551 32.4681 144.415C32.3892 144.546 32.2652 144.733 32.1243 144.982C31.9834 145.231 31.8144 145.548 31.6509 145.894C31.4875 146.239 31.3015 146.664 31.0873 147.112L30.8281 147.826C30.7435 148.08 30.659 148.335 30.5744 148.602C30.4899 148.868 30.4223 149.168 30.3434 149.429L30.1236 150.301C30.0616 150.601 29.9996 150.907 29.932 151.213C29.8643 151.519 29.8136 151.83 29.7685 152.148C29.6614 152.782 29.5713 153.428 29.5036 154.074C29.2528 156.448 29.1719 158.837 29.2613 161.223C29.312 162.644 29.4022 163.715 29.4529 164.191C29.5882 164.576 29.7178 164.961 29.8361 165.324C30.1518 166.309 30.3997 167.261 30.5744 168.156C30.5718 168.19 30.5718 168.224 30.5744 168.258C30.5744 168.19 30.6195 168.117 30.6477 168.037C30.7153 167.822 30.8112 167.567 30.9126 167.272C31.0141 166.978 31.1437 166.649 31.2958 166.298C31.448 165.947 31.6002 165.556 31.7862 165.165C31.9722 164.774 32.1694 164.349 32.3779 163.913C32.5865 163.477 32.8288 163.047 33.0655 162.605C33.1952 162.39 33.3191 162.169 33.4488 161.948C33.5784 161.727 33.708 161.506 33.8489 161.296C34.1251 160.866 34.4125 160.43 34.6943 160.022L35.1283 159.416C35.2748 159.217 35.4326 159.03 35.5791 158.849L36.0244 158.283C36.1709 158.107 36.3287 157.943 36.4753 157.784C36.7419 157.468 37.026 157.167 37.3263 156.883L38.0759 156.164L38.7014 155.648L39.265 155.207L38.7014 155.66L38.0871 156.175L37.3432 156.912C37.05 157.199 36.7716 157.502 36.5091 157.818C36.3625 157.982 36.2104 158.147 36.0638 158.328L35.6355 158.894C35.489 159.081 35.3312 159.268 35.1903 159.461C35.0494 159.653 34.9085 159.863 34.7676 160.073C34.4689 160.48 34.204 160.917 33.9391 161.347C33.8038 161.562 33.6742 161.783 33.5558 162.004C33.4375 162.225 33.3022 162.446 33.1839 162.667C32.9472 163.109 32.7217 163.551 32.5132 163.981C32.3047 164.412 32.1074 164.825 31.9496 165.233C31.7918 165.641 31.6227 166.021 31.4818 166.366C31.3409 166.712 31.2282 167.057 31.1155 167.346C31.0028 167.635 30.9239 167.913 30.8619 168.105C30.7492 168.445 30.6872 168.672 30.6703 168.745C30.7379 169.131 30.7942 169.499 30.8393 169.878C30.8393 169.969 30.8788 170.014 30.8788 170.014C30.8788 170.218 30.9239 170.416 30.9351 170.609L30.9859 171.136V171.629C30.9859 171.946 31.014 172.235 30.9859 172.501C30.9577 172.767 30.9859 172.994 30.9859 173.198C30.9859 173.402 30.9521 173.577 30.9408 173.713L30.907 174.144C30.907 174.144 30.907 173.997 30.907 173.713C30.907 173.572 30.907 173.402 30.907 173.198C30.907 172.994 30.907 172.762 30.907 172.501C30.907 172.24 30.907 171.935 30.8506 171.64C30.8506 171.481 30.8506 171.317 30.8055 171.153C30.7604 170.989 30.7604 170.807 30.7379 170.626C30.7153 170.445 30.6872 170.252 30.6533 170.06C30.6533 170.06 30.6533 170.009 30.6139 169.918C30.5735 169.779 30.5246 169.643 30.4674 169.51L30.3321 169.227L30.1518 168.91C30.0785 168.802 29.9996 168.683 29.915 168.57C29.8305 168.456 29.7234 168.332 29.6107 168.219C29.3668 167.971 29.0943 167.755 28.7991 167.573C28.4705 167.366 28.1161 167.204 27.7452 167.091L27.4522 167.006C27.3537 166.97 27.2517 166.946 27.1478 166.933C26.9449 166.933 26.7364 166.859 26.5222 166.836L25.8797 166.808C25.662 166.797 25.4437 166.797 25.226 166.808C25.0091 166.815 24.7927 166.834 24.5778 166.865L23.9297 166.95C23.5126 167.029 23.0956 167.097 22.7011 167.205L22.4024 167.284L22.1206 167.374C21.9284 167.425 21.74 167.489 21.557 167.567C21.3856 167.628 21.2181 167.7 21.0554 167.782C20.9006 167.851 20.75 167.928 20.6045 168.015C20.4659 168.091 20.3323 168.176 20.2044 168.269C20.0862 168.349 19.9733 168.436 19.8662 168.53C19.6922 168.68 19.5319 168.845 19.3871 169.023C19.2585 169.178 19.1575 169.354 19.0884 169.544C19.157 169.354 19.256 169.176 19.3815 169.017C19.5221 168.834 19.6807 168.665 19.8549 168.513C19.9599 168.417 20.071 168.328 20.1874 168.247C20.3142 168.153 20.4459 168.066 20.582 167.986C20.7279 167.897 20.8784 167.816 21.0328 167.743C21.1972 167.657 21.3666 167.581 21.5401 167.516C21.7238 167.437 21.912 167.369 22.1037 167.312L22.3911 167.216L22.6842 167.137C23.0787 167.018 23.5014 166.944 23.9241 166.853L24.5666 166.757C24.7864 166.723 25.0062 166.706 25.226 166.689C25.4458 166.672 25.6656 166.649 25.8854 166.655H26.5391C26.7589 166.655 26.9731 166.712 27.1816 166.74C27.2867 166.754 27.3903 166.777 27.4916 166.808L27.7959 166.893C28.1903 167.005 28.569 167.167 28.9231 167.374C29.2321 167.56 29.5178 167.783 29.7741 168.037C29.8981 168.156 29.9939 168.281 30.101 168.4C30.2081 168.519 30.2757 168.638 30.3546 168.751L30.5012 168.995C30.4505 168.734 30.3941 168.462 30.3321 168.185C30.1292 167.357 29.8869 166.485 29.5656 165.539C29.4754 165.448 29.3233 165.312 29.1147 165.131C28.603 164.705 28.0667 164.31 27.5085 163.947C27.1628 163.709 26.7871 163.471 26.3813 163.234C25.9699 162.996 25.5359 162.752 25.0625 162.537C24.5848 162.306 24.0957 162.1 23.5972 161.919C23.3379 161.829 23.0843 161.732 22.8194 161.659C22.5545 161.585 22.2896 161.5 22.0248 161.432C21.7599 161.364 21.4612 161.319 21.2132 161.257C20.9652 161.194 20.6496 161.166 20.4073 161.126C20.1649 161.087 19.8437 161.064 19.6013 161.053C19.359 161.041 19.0715 161.019 18.8123 161.024C18.3153 161.019 17.8185 161.044 17.3244 161.098L16.6368 161.183L16 161.308C15.7971 161.342 15.6054 161.404 15.4364 161.449C15.2673 161.494 15.0757 161.534 14.9179 161.591C14.5966 161.698 14.3148 161.778 14.0894 161.874L13.3849 162.152L14.0894 161.863C14.3092 161.766 14.591 161.681 14.9122 161.568C15.07 161.511 15.2447 161.472 15.4251 161.421C15.6054 161.37 15.8027 161.308 15.9887 161.274L16.6255 161.143L17.3131 161.041C17.809 160.984 18.3076 160.954 18.8066 160.951C19.0715 160.951 19.3308 160.951 19.6013 160.951C19.8718 160.951 20.1649 160.996 20.4129 161.019C20.6609 161.041 20.9765 161.087 21.2301 161.138C21.4837 161.189 21.7937 161.234 22.0417 161.308C22.2896 161.381 22.6053 161.438 22.8476 161.517C23.0899 161.596 23.3774 161.681 23.6366 161.772C24.1551 161.953 24.6511 162.152 25.1245 162.373C25.5979 162.593 26.0488 162.826 26.4659 163.058C26.8829 163.29 27.2718 163.534 27.593 163.766C28.2143 164.171 28.8074 164.617 29.3684 165.103C29.064 164.236 28.709 163.347 28.3088 162.446L28.1566 162.118C27.8128 161.721 27.0295 160.877 26.015 159.806C24.2342 157.974 22.3365 156.259 20.334 154.674C19.7704 154.238 19.2068 153.824 18.6714 153.428C18.136 153.031 17.5442 152.658 16.9806 152.295L16.1634 151.791L15.3575 151.343L14.5853 150.941L13.847 150.596C13.368 150.392 12.9284 150.199 12.5282 150.063C12.1281 149.927 11.773 149.819 11.4856 149.723C11.1982 149.627 10.9558 149.593 10.798 149.553L10.5557 149.497L10.8375 149.604Z" fill="#0ECCC6"/>
<path d="M30.7445 173.509C30.7445 173.577 30.8121 173.674 30.8459 173.804C30.8888 173.958 30.9208 174.115 30.9417 174.274C30.9478 174.372 30.9478 174.471 30.9417 174.569C30.9474 174.678 30.9474 174.788 30.9417 174.897C30.9302 175.143 30.8981 175.387 30.8459 175.628C30.8247 175.761 30.7926 175.891 30.7501 176.019C30.7146 176.155 30.6713 176.29 30.6205 176.421C30.5177 176.696 30.3991 176.964 30.2654 177.225C30.1301 177.492 29.978 177.758 29.8145 178.013C29.2069 178.951 28.5022 179.823 27.7123 180.613C27.3009 181.032 26.9628 181.344 26.7711 181.508C26.3484 181.349 25.9032 181.202 25.4354 181.06C24.5716 180.818 23.6894 180.647 22.7978 180.551C22.4766 180.511 22.1497 180.488 21.8172 180.471C21.8792 180.148 21.9581 179.718 22.0313 179.191C22.1046 178.664 22.1948 177.984 22.2455 177.282C22.3054 176.549 22.328 175.814 22.3131 175.078C22.3131 174.705 22.2793 174.331 22.2399 173.945C22.1999 173.584 22.1416 173.225 22.0651 172.869L22.0088 172.614C22.0088 172.529 21.9637 172.45 21.9355 172.371C21.8931 172.209 21.8404 172.05 21.7777 171.895C21.727 171.742 21.6481 171.606 21.5917 171.464C21.5354 171.323 21.4396 171.204 21.3719 171.085C21.3043 170.966 21.2085 170.858 21.1296 170.762C21.0507 170.666 20.9605 170.575 20.876 170.496L20.628 170.297C20.5514 170.248 20.4724 170.203 20.3913 170.161C20.283 170.097 20.1676 170.046 20.0475 170.009C20.1657 170.053 20.279 170.11 20.3856 170.178C20.4619 170.223 20.5353 170.272 20.6054 170.326L20.8478 170.53C20.9267 170.609 21 170.705 21.0845 170.796C21.169 170.887 21.231 171.011 21.3099 171.124C21.3888 171.238 21.4452 171.368 21.5072 171.504C21.5692 171.64 21.6312 171.782 21.6763 171.935C21.7317 172.087 21.7788 172.242 21.8172 172.399C21.8172 172.484 21.8566 172.563 21.8735 172.648L21.9242 172.898C21.9851 173.25 22.0284 173.606 22.0539 173.962C22.0539 174.325 22.0539 174.693 22.0539 175.061C22.0414 175.789 21.9906 176.515 21.9017 177.237C21.8228 177.922 21.7214 178.568 21.6199 179.112C21.5185 179.656 21.417 180.109 21.3438 180.426C20.8703 180.426 20.3913 180.426 19.9122 180.426C18.9372 180.426 17.9622 180.511 16.9872 180.556C16.0122 180.602 15.0484 180.647 14.0903 180.647H13.8367C13.8367 180.556 13.8367 180.466 13.8367 180.364C13.8367 180.262 13.8367 179.967 13.8367 179.741V179.384C13.8367 179.259 13.8367 179.134 13.8367 179.004C13.8367 178.744 13.7803 178.472 13.7522 178.188C13.724 177.905 13.662 177.622 13.5944 177.327C13.5267 177.033 13.4647 176.761 13.3633 176.455L13.228 176.019L13.0646 175.6C13.0082 175.464 12.9631 175.328 12.8955 175.192L12.7039 174.807C12.6419 174.682 12.5855 174.552 12.5179 174.438C12.4503 174.325 12.3714 174.212 12.3037 174.098C12.2361 173.985 12.1741 173.883 12.1065 173.781L11.8979 173.498C11.7571 173.322 11.6387 173.152 11.5203 173.016L11.1991 172.671L10.9173 172.371L11.1822 172.682L11.4865 173.039C11.5992 173.186 11.712 173.356 11.836 173.543L12.0332 173.827L12.2136 174.155L12.4052 174.501C12.4672 174.614 12.5179 174.744 12.5743 174.875L12.7433 175.26C12.7997 175.39 12.8391 175.532 12.8899 175.668C12.9406 175.804 12.9857 175.945 13.0308 176.087L13.1435 176.517C13.228 176.801 13.2675 177.084 13.3238 177.378C13.3802 177.673 13.4027 177.945 13.4366 178.228C13.4704 178.511 13.4816 178.766 13.4816 179.021C13.4816 179.151 13.4816 179.27 13.4816 179.389C13.4816 179.508 13.4816 179.627 13.4816 179.735C13.4816 179.956 13.4816 180.16 13.4478 180.341C13.414 180.522 13.4478 180.551 13.4478 180.641C12.7602 180.641 12.0839 180.596 11.4302 180.545C10.9737 180.505 10.5341 180.466 10.1001 180.409C9.66613 180.352 9.2378 180.301 8.82637 180.233C8.41495 180.165 8.02044 180.097 7.63156 180.029C7.24268 179.961 6.87071 179.876 6.50438 179.803L5.98024 179.69L5.48427 179.571C5.16303 179.491 4.85305 179.423 4.56562 179.344C4.00203 179.185 3.48916 179.061 3.07774 178.942L1.78711 178.562L3.03265 179.072C3.4328 179.231 3.92312 179.401 4.48672 179.599C4.77415 179.701 5.05031 179.791 5.3941 179.893L5.89006 180.046L6.40856 180.194C7.11869 180.392 7.89645 180.585 8.72493 180.76C9.14199 180.839 9.57031 180.924 10.0099 180.987C10.4495 181.049 10.9004 181.111 11.3625 181.162C12.2812 181.253 13.2337 181.332 14.1805 181.332C14.7441 181.332 15.364 181.332 15.9614 181.332C15.7867 181.536 15.5557 181.808 15.2682 182.12C14.9808 182.431 14.5694 182.862 14.141 183.253C14.0283 183.349 13.9212 183.451 13.8142 183.559L13.4647 183.859C13.2393 184.068 12.9857 184.255 12.7433 184.454C12.501 184.652 12.2361 184.827 11.9881 185.02C11.7401 185.213 11.4753 185.349 11.2273 185.507L10.4777 185.909L9.77885 186.21L9.17017 186.408C9.01207 186.458 8.84987 186.494 8.68548 186.516L8.25714 186.595L8.69111 186.538C8.85653 186.52 9.0204 186.49 9.18144 186.448L9.80702 186.278L10.5228 186.006L11.2949 185.637C11.5542 185.49 11.8247 185.343 12.0896 185.179C12.3545 185.014 12.6532 184.844 12.8786 184.652C13.104 184.459 13.3971 184.284 13.6395 184.085C13.7634 183.983 13.8818 183.887 14.0058 183.796L14.3496 183.496C14.8061 183.111 15.2062 182.726 15.55 182.363C16.0629 181.853 16.4236 181.446 16.5701 181.281H17.1337C17.934 181.236 18.7287 181.185 19.5177 181.151C19.2832 181.444 19.0685 181.752 18.8752 182.074C18.586 182.598 18.3281 183.139 18.1031 183.694C17.9791 183.995 17.8608 184.312 17.7424 184.635C17.624 184.958 17.5113 185.286 17.4099 185.62C17.2013 186.283 17.021 186.952 16.8463 187.575C16.6963 188.143 16.4826 188.692 16.2094 189.212C16.0081 189.578 15.7171 189.886 15.364 190.107C15.2642 190.166 15.1607 190.219 15.0541 190.266L14.9413 190.317L15.0597 190.271C15.34 190.166 15.5967 190.007 15.8149 189.801C15.9905 189.634 16.1422 189.443 16.2658 189.235C16.566 188.719 16.8043 188.169 16.9759 187.597C17.1844 186.98 17.393 186.323 17.624 185.671C17.7424 185.349 17.8664 185.026 17.9904 184.714C18.1144 184.403 18.2553 184.091 18.3905 183.802C18.634 183.271 18.9088 182.754 19.2134 182.256C19.4228 181.908 19.6603 181.578 19.9235 181.27C19.9799 181.202 20.0306 181.151 20.0757 181.106C20.9795 181.068 21.8847 181.085 22.7865 181.157C23.136 181.185 23.4798 181.23 23.8179 181.276L23.7841 181.338C23.7467 181.427 23.7184 181.52 23.6996 181.616C23.655 181.822 23.6342 182.033 23.6376 182.244C23.7017 183.313 23.8373 184.377 24.0434 185.428C24.1335 185.994 24.2181 186.561 24.2744 187.099C24.2744 187.371 24.3139 187.631 24.3252 187.875C24.3368 188.107 24.3368 188.34 24.3252 188.572C24.3117 188.763 24.2816 188.952 24.235 189.138C24.1979 189.283 24.1449 189.424 24.0772 189.557L23.9926 189.705C23.9926 189.744 23.9306 189.773 23.9137 189.801L23.8461 189.88L23.9137 189.807C23.9137 189.778 23.9701 189.75 23.9983 189.71L24.0941 189.569C24.1701 189.437 24.2307 189.296 24.2744 189.15C24.3328 188.965 24.3743 188.775 24.3984 188.583C24.4278 188.35 24.4447 188.116 24.4491 187.881C24.4491 187.631 24.4491 187.371 24.4491 187.099C24.4491 186.532 24.3702 185.966 24.3026 185.4C24.151 184.36 24.0719 183.312 24.0659 182.261C24.0693 182.08 24.0939 181.899 24.1392 181.723C24.1649 181.609 24.217 181.502 24.2913 181.412L24.3308 181.372C24.6802 181.434 25.024 181.497 25.3565 181.576C25.689 181.655 26.1512 181.78 26.5175 181.904L27.0811 182.08L27.5996 182.267C27.8363 182.346 28.0561 182.443 28.2703 182.533L28.6648 182.839C29.182 183.257 29.6391 183.745 30.0231 184.289C30.2247 184.581 30.3894 184.897 30.5134 185.23C30.6237 185.522 30.6883 185.83 30.705 186.142C30.7165 186.264 30.7165 186.387 30.705 186.51C30.705 186.623 30.705 186.719 30.6712 186.799C30.6374 186.878 30.6148 187.042 30.6148 187.042L30.6825 186.799C30.6825 186.719 30.7163 186.623 30.7276 186.516C30.7366 186.389 30.7366 186.262 30.7276 186.136C30.7226 185.82 30.6713 185.507 30.5754 185.207C30.4611 184.862 30.3039 184.533 30.1076 184.227C29.7728 183.704 29.371 183.228 28.9128 182.811L29.42 183.043L29.8089 183.224L30.1696 183.406L30.8008 183.728L31.9787 184.374L31.6913 184.17C31.4997 184.04 31.2292 183.842 30.8685 183.604C30.5078 183.366 30.0682 183.083 29.5384 182.799C28.9554 182.466 28.3553 182.163 27.7405 181.893C27.5207 181.791 27.2953 181.701 27.0642 181.604C27.2615 181.423 27.5602 181.128 27.9096 180.754C28.6885 179.938 29.3799 179.042 29.9723 178.081C30.1301 177.815 30.271 177.543 30.4063 177.271C30.5358 177.004 30.6487 176.73 30.7445 176.449C30.7896 176.313 30.8346 176.177 30.8685 176.041C30.9065 175.911 30.9366 175.779 30.9586 175.645C31.0068 175.4 31.0313 175.152 31.0319 174.903C31.0376 174.793 31.0376 174.684 31.0319 174.574C31.0319 174.467 31.0319 174.37 30.9981 174.28C30.9723 174.118 30.9346 173.959 30.8854 173.804C30.8515 173.679 30.8008 173.583 30.7783 173.515L30.7388 173.413L30.7445 173.509Z" fill="#60DCE2"/>
<path d="M42.3318 188.43C42.3318 188.43 38.1161 183.74 28.7267 186.34C25.8233 187.144 23.1334 188.585 20.851 190.56C18.5685 192.535 16.7503 194.994 15.5273 197.76C15.5273 197.76 21.3492 196.627 26.4441 197.392C37.5074 199.097 44.9525 193.092 42.3318 188.43Z" fill="#60DCE2"/>
<path d="M41.2327 188.17C40.9904 188.124 40.7086 188.073 40.3986 188.034L40.2802 187.954C40.0323 187.79 39.7786 187.632 39.5194 187.49C39.2601 187.348 38.9896 187.224 38.7191 187.11C38.4486 186.997 38.1555 186.895 37.8906 186.805C37.6111 186.713 37.327 186.635 37.0396 186.572C37.5637 186.833 38.0822 187.099 38.5838 187.388C38.8374 187.524 39.0798 187.671 39.3221 187.83L39.4912 187.937C39.1136 187.903 38.7022 187.869 38.2626 187.858C37.9582 187.858 37.6314 187.858 37.2988 187.858C36.9663 187.858 36.6225 187.858 36.2675 187.892C35.7039 187.892 35.0726 187.966 34.4527 188.039L34.3907 188C34.3095 187.943 34.2248 187.892 34.1371 187.847C33.9715 187.748 33.8002 187.659 33.6242 187.581L33.3537 187.467C33.2692 187.428 33.179 187.399 33.0888 187.365C32.9085 187.297 32.7281 187.241 32.5252 187.184C32.1544 187.077 31.7781 186.99 31.398 186.923C31.212 186.889 31.0204 186.861 30.8344 186.839C30.6485 186.816 30.4625 186.799 30.2708 186.782C30.9971 186.965 31.7122 187.19 32.4125 187.456L32.9254 187.671C33.0099 187.711 33.0944 187.745 33.1733 187.79L33.4213 187.915L33.7877 188.124C33.0832 188.232 32.3674 188.345 31.646 188.515C30.9246 188.685 30.0567 188.917 29.262 189.155L28.1348 189.541L27.8192 189.484L27.498 189.45C27.3928 189.445 27.2875 189.445 27.1824 189.45C26.7618 189.427 26.3404 189.427 25.9199 189.45C25.4972 189.45 25.0802 189.507 24.6687 189.563C24.2573 189.62 23.8403 189.682 23.4345 189.773C23.8515 189.773 24.263 189.773 24.68 189.773C25.0971 189.773 25.5085 189.773 25.9199 189.773C26.3313 189.773 26.7428 189.773 27.1485 189.846L27.3796 189.875L26.9626 190.039C26.585 190.198 26.213 190.351 25.8354 190.521L24.7702 191.03L23.7614 191.563C23.4345 191.744 23.1245 191.937 22.8145 192.129C22.5045 192.322 22.2171 192.498 21.941 192.696C21.6648 192.894 21.3774 193.047 21.135 193.234C20.6278 193.585 20.16 193.908 19.7711 194.225C19.3822 194.543 19.0272 194.792 18.7567 195.035L17.9395 195.67L18.875 195.041C19.1681 194.837 19.5457 194.611 19.9628 194.339C20.3798 194.067 20.8645 193.772 21.3886 193.466C21.6479 193.308 21.9522 193.16 22.2171 192.996C22.482 192.832 22.7807 192.662 23.1076 192.503L24.0657 192.01L25.0745 191.523L26.1341 191.053L27.2613 190.6L27.7798 190.402C27.5769 190.713 27.3683 191.019 27.1655 191.325C26.9626 191.631 26.7878 191.863 26.6019 192.135C26.4159 192.407 26.2186 192.668 26.0383 192.928C25.8579 193.189 25.6381 193.455 25.4352 193.715L25.1252 194.095C25.0238 194.223 24.9167 194.348 24.804 194.469C24.6969 194.594 24.5898 194.724 24.4771 194.837C24.3644 194.95 24.2517 195.081 24.1333 195.194L23.7783 195.534L23.3894 195.845L23.829 195.602L24.2348 195.313C24.37 195.211 24.494 195.098 24.6237 194.99C24.7533 194.882 24.8716 194.769 24.9956 194.656C25.2436 194.429 25.469 194.186 25.7001 193.942L26.0326 193.563C26.1454 193.444 26.2468 193.308 26.3539 193.183C26.568 192.922 26.7709 192.662 26.9738 192.396C27.1767 192.129 27.3683 191.829 27.5374 191.586C27.8699 191.115 28.1799 190.634 28.4843 190.141L29.5382 189.795C30.3103 189.552 31.0881 189.325 31.8658 189.144C32.6436 188.963 33.4101 188.799 34.1596 188.668H34.2949C34.2949 188.725 34.2949 188.776 34.2949 188.827C34.2949 188.997 34.2385 189.161 34.1934 189.331C34.1484 189.501 34.0976 189.66 34.0525 189.824L33.8778 190.311L33.6806 190.792L33.4551 191.257C33.3762 191.416 33.2861 191.563 33.2072 191.721C33.1264 191.875 33.038 192.024 32.9423 192.169C32.8521 192.316 32.7619 192.469 32.6661 192.617L32.373 193.047C32.2772 193.2 32.1701 193.336 32.0631 193.478L31.7475 193.902C31.646 194.038 31.5277 194.174 31.4149 194.31L31.0824 194.724C30.8513 194.984 30.6203 195.256 30.3892 195.528C30.6654 195.302 30.9528 195.069 31.2008 194.837C31.4488 194.605 31.7136 194.339 31.956 194.078C32.1983 193.817 32.4407 193.551 32.6605 193.262L32.9874 192.837C33.0944 192.696 33.1902 192.543 33.2917 192.396C33.3931 192.248 33.4946 192.095 33.5848 191.937C33.6749 191.778 33.7708 191.631 33.8497 191.467L34.092 190.979L34.3062 190.481C34.3682 190.311 34.4302 190.135 34.4865 189.965C34.5429 189.795 34.5936 189.614 34.633 189.433C34.6725 189.252 34.7063 189.07 34.7345 188.866C34.7627 188.663 34.7345 188.68 34.7345 188.583C35.2981 188.498 35.8166 188.425 36.3295 188.379C37.0227 188.311 37.6821 188.266 38.2908 188.249C38.8994 188.232 39.4179 188.249 39.9195 188.249C39.8745 188.425 39.8294 188.595 39.773 188.765L39.5363 189.439C39.463 189.665 39.3898 189.892 39.3109 190.118C39.232 190.345 39.1587 190.566 39.0798 190.792C39.0009 191.019 38.9163 191.24 38.8262 191.461C38.7867 191.574 38.7416 191.682 38.6965 191.789C38.6515 191.897 38.612 192.016 38.5613 192.124L38.4204 192.452C38.3753 192.566 38.3246 192.673 38.2738 192.781C38.178 193.002 38.0653 193.211 37.9695 193.432C38.116 193.245 38.2738 193.058 38.4091 192.866C38.5444 192.673 38.674 192.458 38.798 192.248C38.922 192.039 39.0403 191.823 39.1474 191.608C39.2545 191.393 39.3616 191.172 39.4574 190.945L39.5927 190.611C39.6453 190.498 39.6903 190.385 39.7279 190.271C39.8125 190.045 39.8914 189.818 39.9703 189.586C40.0492 189.354 40.1168 189.121 40.1844 188.889C40.2521 188.657 40.2971 188.476 40.3479 188.26C40.6691 188.26 40.9622 188.26 41.2158 188.311C41.5709 188.34 41.8527 188.368 42.0386 188.396L42.3317 188.436C41.9704 188.327 41.6036 188.238 41.2327 188.17Z" fill="#0ECCC6"/>
<path d="M183.426 184.34C182.35 181.145 180.513 179.446 173.845 174.886C167.178 170.326 172.154 168.53 175.677 170.921C179.199 173.311 183.004 180.188 183.004 180.188C183.004 180.188 183.094 172.342 178.399 167.442C173.704 162.542 173.158 156.781 176.956 157.331C180.755 157.88 183.612 167.731 184.08 172.269C185.589 167.988 186.152 163.428 185.731 158.906C184.948 151.689 188.397 148.505 190.646 148.596C193.763 148.715 190.962 152.776 189.31 158.515C187.834 163.653 186.988 169.068 186.419 170.938C186.419 170.938 191.581 158.945 197.465 157.45C203.349 155.954 202.763 160.169 199.951 161.885C197.138 163.602 190.043 168.83 186.859 174.019C186.859 174.019 196.552 166.513 200.582 170.535C204.612 174.557 200.142 176.126 195.746 175.067C193.847 174.543 191.829 174.655 189.998 175.387C188.168 176.119 186.624 177.431 185.602 179.123C187.682 177.818 190.115 177.199 192.562 177.35C196.507 177.503 198.114 180.789 197.037 181.984C195.752 183.411 193.289 181.927 189.434 181.094C185.579 180.262 185.867 184.771 185.782 186.759C185.698 188.747 184.886 188.679 183.426 184.34Z" fill="#60DCE2"/>
<path d="M198.728 159.483C198.587 159.557 198.368 159.648 198.103 159.795C197.838 159.942 197.539 160.112 197.167 160.361C196.795 160.611 196.423 160.854 196.006 161.16L195.364 161.653L194.704 162.219L194.022 162.814L193.335 163.471C192.873 163.93 192.41 164.412 191.954 164.916C191.497 165.42 191.041 165.936 190.607 166.474C189.005 168.435 187.533 170.499 186.2 172.654C185.687 173.475 185.275 174.178 184.977 174.699C185.022 174.523 185.061 174.348 185.106 174.172L185.326 173.345C185.405 173.073 185.489 172.779 185.574 172.518C185.743 171.949 185.879 171.37 185.98 170.785C186.093 170.218 186.177 169.612 186.256 169.023C186.555 166.672 186.752 164.315 186.989 162.118C187.113 160.985 187.225 159.954 187.349 158.945C187.473 157.937 187.62 156.991 187.766 156.113C187.913 155.235 188.088 154.453 188.251 153.756C188.415 153.06 188.606 152.459 188.77 151.966C188.933 151.474 189.096 151.111 189.215 150.833L189.401 150.454L189.192 150.822C189.005 151.177 188.838 151.542 188.691 151.915C188.459 152.496 188.258 153.087 188.088 153.688C187.89 154.38 187.693 155.173 187.524 156.045C187.175 157.79 186.859 159.84 186.605 162.044C186.352 164.247 186.126 166.604 185.811 168.938C185.737 169.504 185.653 170.105 185.551 170.677C185.46 171.251 185.332 171.819 185.168 172.376C185.089 172.654 185.005 172.943 184.926 173.209C184.847 173.475 184.785 173.776 184.712 174.053L184.52 174.886C184.464 175.163 184.407 175.452 184.357 175.713C184.278 176.109 184.216 176.506 184.159 176.897C184.075 176.33 183.945 175.622 183.771 174.767C183.298 172.459 182.666 170.188 181.877 167.969C181.657 167.363 181.42 166.763 181.178 166.179C181.054 165.885 180.919 165.613 180.795 165.318C180.671 165.024 180.53 164.752 180.4 164.485L179.989 163.698C179.848 163.443 179.713 163.194 179.572 162.956L179.149 162.27L178.732 161.642C178.45 161.251 178.168 160.894 177.937 160.594C177.706 160.293 177.453 160.027 177.272 159.835C177.092 159.642 176.912 159.478 176.81 159.37L176.641 159.212L176.805 159.376C176.912 159.483 177.075 159.631 177.261 159.84C177.447 160.05 177.684 160.299 177.92 160.611C178.157 160.922 178.428 161.268 178.704 161.664C178.833 161.868 178.974 162.078 179.115 162.293L179.527 162.984C179.662 163.222 179.797 163.471 179.938 163.726L180.338 164.519L180.721 165.352C180.845 165.635 180.975 165.919 181.088 166.213C181.33 166.78 181.561 167.403 181.77 168.009C182.536 170.237 183.14 172.519 183.579 174.835C183.849 176.217 183.996 177.265 184.052 177.735C184.007 178.139 183.968 178.536 183.934 178.925C183.849 179.944 183.838 180.907 183.849 181.802C183.847 181.834 183.847 181.867 183.849 181.899L183.725 181.706C183.613 181.514 183.466 181.293 183.303 181.026C183.139 180.76 182.942 180.46 182.739 180.171C182.536 179.882 182.283 179.531 182.018 179.185C181.753 178.84 181.454 178.483 181.172 178.115C180.891 177.747 180.547 177.378 180.214 176.982L179.701 176.415C179.532 176.228 179.358 176.047 179.172 175.849C178.811 175.498 178.456 175.135 178.078 174.818L177.515 174.325C177.329 174.166 177.137 174.025 176.951 173.877C176.765 173.73 176.585 173.583 176.387 173.447C176.19 173.311 176.021 173.186 175.824 173.062C175.463 172.818 175.136 172.569 174.804 172.388L173.919 171.861L173.209 171.504L172.589 171.198L173.203 171.515L173.908 171.878L174.787 172.416C175.114 172.603 175.441 172.858 175.79 173.107C175.965 173.232 176.151 173.356 176.354 173.492L176.889 173.934C177.069 174.081 177.261 174.229 177.453 174.393L178.016 174.886C178.388 175.209 178.738 175.577 179.093 175.928C179.273 176.104 179.442 176.291 179.611 176.495L180.113 177.061C180.44 177.441 180.755 177.809 181.048 178.194C181.341 178.579 181.612 178.919 181.877 179.276C182.142 179.633 182.367 179.956 182.581 180.267C182.796 180.579 182.982 180.868 183.145 181.123C183.308 181.378 183.449 181.61 183.556 181.802C183.737 182.103 183.844 182.301 183.883 182.369C183.883 182.76 183.928 183.128 183.962 183.502C183.962 183.592 183.962 183.643 183.962 183.643C183.962 183.842 184.013 184.04 184.035 184.21C184.058 184.38 184.086 184.561 184.109 184.731L184.199 185.213C184.255 185.518 184.306 185.779 184.374 186.051C184.441 186.323 184.486 186.527 184.537 186.725L184.695 187.212L184.819 187.614L184.717 187.201C184.684 187.071 184.644 186.901 184.593 186.708L184.458 186.034C184.402 185.779 184.362 185.496 184.323 185.19C184.323 185.037 184.278 184.878 184.255 184.708C184.233 184.538 184.221 184.369 184.205 184.193C184.188 184.017 184.204 183.819 184.159 183.626C184.159 183.626 184.159 183.57 184.159 183.474C184.167 183.333 184.184 183.193 184.21 183.054L184.272 182.754L184.379 182.403C184.43 182.284 184.475 182.154 184.537 182.023C184.599 181.893 184.667 181.757 184.751 181.621C184.927 181.327 185.139 181.057 185.382 180.817C185.655 180.537 185.962 180.294 186.295 180.092L186.56 179.944C186.655 179.888 186.755 179.843 186.859 179.808C187.051 179.735 187.242 179.65 187.423 179.576L188.031 179.401C188.24 179.344 188.454 179.321 188.663 179.282C188.875 179.24 189.089 179.21 189.305 179.191L189.942 179.129C190.365 179.129 190.782 179.083 191.187 179.1H191.486H191.785C191.976 179.1 192.168 179.134 192.348 179.163C192.529 179.191 192.709 179.219 192.878 179.259C193.044 179.292 193.208 179.335 193.368 179.389C193.518 179.432 193.665 179.483 193.808 179.542C193.938 179.592 194.064 179.65 194.186 179.718C194.385 179.821 194.574 179.945 194.749 180.086C194.907 180.206 195.044 180.352 195.155 180.517C195.046 180.348 194.911 180.199 194.755 180.075C194.58 179.932 194.391 179.807 194.191 179.701C193.933 179.555 193.659 179.439 193.374 179.355C193.214 179.3 193.05 179.255 192.884 179.219C192.709 179.174 192.532 179.138 192.354 179.112C192.168 179.078 191.976 179.055 191.79 179.038L191.492 179.01H191.193C190.782 179.01 190.365 179.01 189.936 179.01L189.294 179.066C189.076 179.082 188.86 179.108 188.646 179.146C188.431 179.185 188.217 179.202 188.003 179.259L187.378 179.423C187.175 179.491 186.977 179.576 186.78 179.656C186.681 179.691 186.585 179.734 186.493 179.786L186.222 179.933C185.875 180.128 185.555 180.368 185.27 180.647C185.014 180.906 184.791 181.195 184.605 181.508C184.509 181.649 184.447 181.791 184.368 181.927C184.289 182.063 184.255 182.199 184.199 182.324L184.114 182.596C184.114 182.329 184.114 182.057 184.114 181.774C184.114 180.93 184.165 180.012 184.266 179.055C184.334 178.947 184.452 178.783 184.616 178.562C185.007 178.03 185.429 177.521 185.878 177.038C186.149 176.738 186.442 176.427 186.803 176.098C187.163 175.77 187.518 175.452 187.93 175.135C188.341 174.818 188.758 174.506 189.209 174.212C189.435 174.07 189.66 173.917 189.902 173.787C190.145 173.657 190.376 173.521 190.618 173.396C190.861 173.271 191.109 173.164 191.356 173.045C191.604 172.926 191.858 172.841 192.106 172.739C192.354 172.637 192.608 172.558 192.861 172.484C193.115 172.41 193.363 172.337 193.616 172.28C194.095 172.168 194.578 172.081 195.065 172.019L195.747 171.951H196.384C196.587 171.951 196.784 171.951 196.947 171.951C197.111 171.951 197.314 171.951 197.477 171.951C197.81 171.985 198.103 171.997 198.339 172.036L199.083 172.15L198.339 172.025C198.103 171.985 197.81 171.968 197.483 171.929C197.314 171.929 197.139 171.929 196.947 171.901C196.756 171.872 196.564 171.901 196.384 171.901H195.741L195.059 171.957C194.569 172.011 194.081 172.092 193.6 172.201C193.346 172.252 193.098 172.331 192.839 172.393C192.579 172.456 192.331 172.558 192.072 172.643C191.813 172.728 191.565 172.83 191.311 172.937C191.058 173.045 190.81 173.152 190.567 173.283C190.325 173.413 190.077 173.526 189.84 173.668C189.604 173.81 189.367 173.945 189.136 174.087C188.679 174.376 188.24 174.682 187.834 174.999C187.428 175.316 187.051 175.645 186.707 175.956C186.363 176.268 186.042 176.591 185.76 176.897C185.251 177.433 184.777 178 184.34 178.596C184.447 177.696 184.593 176.761 184.779 175.798C184.779 175.685 184.824 175.566 184.853 175.452C185.095 174.993 185.636 174.008 186.403 172.75C187.712 170.581 189.16 168.5 190.737 166.519C191.165 165.981 191.61 165.454 192.061 164.95C192.512 164.446 192.968 163.959 193.425 163.494L194.101 162.831L194.749 162.248L195.403 161.681L196.034 161.183C196.451 160.877 196.835 160.616 197.19 160.373C197.545 160.129 197.86 159.971 198.12 159.806C198.379 159.642 198.599 159.563 198.74 159.483L198.965 159.376L198.728 159.483Z" fill="#0ECCC6"/>
<path d="M181.741 185.156C181.775 185.218 181.809 185.32 181.871 185.434C181.947 185.573 182.031 185.707 182.124 185.836C182.181 185.915 182.243 185.991 182.31 186.062C182.379 186.144 182.452 186.222 182.53 186.295C182.705 186.463 182.894 186.616 183.094 186.753C183.203 186.827 183.316 186.895 183.432 186.957C183.548 187.032 183.671 187.096 183.798 187.15C184.058 187.277 184.325 187.386 184.598 187.479C184.88 187.575 185.162 187.654 185.455 187.728C186.529 187.969 187.624 188.098 188.724 188.113C189.288 188.113 189.761 188.113 190.009 188.113C190.201 187.705 190.415 187.292 190.651 186.872C191.095 186.102 191.602 185.371 192.168 184.686C192.37 184.437 192.585 184.193 192.804 183.955C192.545 183.768 192.19 183.513 191.779 183.196C191.367 182.879 190.837 182.448 190.319 181.989C189.775 181.513 189.257 181.006 188.769 180.471C188.515 180.199 188.279 179.905 188.053 179.633C187.828 179.361 187.619 179.066 187.439 178.749L187.304 178.528L187.185 178.307C187.101 178.16 187.044 178.007 186.977 177.86C186.909 177.713 186.87 177.565 186.813 177.424C186.757 177.282 186.74 177.14 186.706 177.004C186.673 176.869 186.667 176.733 186.661 176.608C186.656 176.483 186.661 176.359 186.661 176.245C186.661 176.132 186.661 176.03 186.701 175.934C186.74 175.838 186.751 175.753 186.768 175.673C186.801 175.553 186.848 175.437 186.909 175.328L186.96 175.203L186.915 175.328C186.861 175.44 186.819 175.558 186.791 175.679C186.791 175.758 186.746 175.843 186.729 175.94C186.712 176.036 186.729 176.138 186.729 176.245C186.729 176.353 186.729 176.478 186.729 176.602C186.729 176.727 186.768 176.852 186.791 176.987C186.813 177.123 186.864 177.259 186.909 177.395C186.954 177.531 187.011 177.679 187.084 177.82C187.157 177.962 187.219 178.103 187.309 178.245L187.433 178.46L187.574 178.67C187.769 178.963 187.98 179.244 188.205 179.514C188.442 179.786 188.685 180.08 188.944 180.313C189.448 180.82 189.979 181.3 190.533 181.752C191.063 182.182 191.576 182.567 192.021 182.884C192.466 183.202 192.844 183.451 193.114 183.627C193.441 183.287 193.779 182.952 194.129 182.63C194.833 181.972 195.566 181.338 196.287 180.698C197.009 180.058 197.725 179.423 198.401 178.761L198.643 178.523L198.44 178.336C198.311 178.205 198.159 178.064 198.012 177.894C197.933 177.815 197.854 177.73 197.775 177.639C197.696 177.543 197.612 177.452 197.533 177.35C197.358 177.157 197.206 176.937 197.031 176.716C196.857 176.495 196.704 176.245 196.552 175.996C196.4 175.747 196.242 175.486 196.118 175.214L195.915 174.818L195.746 174.404C195.696 174.268 195.634 174.138 195.589 174.002C195.543 173.866 195.498 173.73 195.459 173.594C195.419 173.458 195.369 173.334 195.341 173.203C195.312 173.073 195.284 172.943 195.256 172.818L195.177 172.456C195.177 172.331 195.149 172.218 195.138 172.11C195.109 171.889 195.081 171.685 195.07 171.504V170.632C195.07 170.632 195.07 170.779 195.07 171.034L195.098 171.498C195.098 171.68 195.16 171.878 195.194 172.099L195.256 172.439C195.256 172.552 195.318 172.671 195.352 172.79L195.453 173.169C195.49 173.298 195.533 173.425 195.583 173.549L195.729 173.94C195.78 174.076 195.848 174.2 195.904 174.331L196.09 174.727L196.304 175.107C196.445 175.367 196.614 175.605 196.766 175.843C196.919 176.081 197.105 176.308 197.268 176.523C197.431 176.738 197.606 176.937 197.781 177.118C197.871 177.208 197.95 177.299 198.029 177.384L198.271 177.622C198.423 177.781 198.581 177.905 198.711 178.03L198.936 178.222C199.415 177.735 199.866 177.248 200.3 176.755C200.593 176.415 200.864 176.081 201.151 175.741C201.439 175.401 201.681 175.073 201.935 174.739C202.188 174.404 202.408 174.081 202.639 173.764C202.87 173.447 203.073 173.135 203.276 172.835L203.569 172.393L203.84 171.963C204.014 171.685 204.183 171.396 204.335 171.17C204.629 170.66 204.899 170.224 205.113 169.856L205.767 168.723C205.767 168.723 205.575 169.165 205.232 169.941C205.057 170.331 204.826 170.79 204.567 171.323C204.431 171.589 204.279 171.889 204.121 172.161L203.879 172.609L203.608 173.073C203.242 173.708 202.825 174.382 202.346 175.067C202.109 175.413 201.861 175.77 201.591 176.121C201.32 176.472 201.027 176.823 200.757 177.18C200.165 177.877 199.545 178.596 198.852 179.265C198.44 179.678 198.012 180.08 197.578 180.483C197.837 180.483 198.187 180.539 198.604 180.562C199.021 180.585 199.613 180.602 200.187 180.59H200.633H201.084C201.388 180.59 201.692 180.539 202.002 180.511C202.312 180.483 202.611 180.426 202.915 180.381C203.22 180.335 203.507 180.262 203.794 180.199C204.082 180.137 204.358 180.046 204.595 179.967L205.299 179.701L205.863 179.412C206.01 179.341 206.15 179.256 206.28 179.157L206.641 178.919L206.291 179.174C206.162 179.276 206.027 179.369 205.885 179.452L205.322 179.763L204.623 180.069C204.375 180.16 204.104 180.245 203.823 180.341C203.541 180.437 203.259 180.5 202.943 180.568C202.628 180.636 202.335 180.698 202.025 180.738C201.715 180.777 201.405 180.834 201.1 180.862L200.644 180.907L200.193 180.936C199.629 180.975 199.066 180.981 198.587 180.981C197.877 180.981 197.341 180.941 197.121 180.919C196.992 181.043 196.857 181.162 196.721 181.281C196.124 181.803 195.527 182.318 194.946 182.833C195.304 182.892 195.658 182.976 196.006 183.083C196.569 183.254 197.123 183.458 197.663 183.695C197.956 183.819 198.26 183.966 198.564 184.108C198.869 184.25 199.173 184.414 199.472 184.578C200.075 184.901 200.661 185.252 201.213 185.57C201.708 185.871 202.235 186.115 202.786 186.295C203.179 186.412 203.596 186.428 203.997 186.34C204.108 186.315 204.217 186.282 204.324 186.244L204.437 186.198L204.33 186.244C204.056 186.359 203.764 186.424 203.468 186.436C203.232 186.441 202.997 186.414 202.769 186.357C202.204 186.201 201.659 185.978 201.146 185.694C200.582 185.4 199.979 185.071 199.37 184.776C199.066 184.624 198.762 184.482 198.452 184.346C198.142 184.21 197.843 184.091 197.55 183.978C197.012 183.771 196.462 183.595 195.904 183.451C195.518 183.349 195.124 183.279 194.726 183.241H194.506C193.842 183.842 193.212 184.479 192.618 185.15C192.393 185.417 192.179 185.683 191.97 185.955H192.038C192.124 185.99 192.207 186.034 192.286 186.085C192.457 186.205 192.615 186.341 192.759 186.493C193.45 187.291 194.082 188.137 194.653 189.025C194.98 189.495 195.307 189.954 195.639 190.373C195.803 190.583 195.966 190.775 196.13 190.94C196.283 191.11 196.447 191.271 196.62 191.421C196.761 191.553 196.916 191.669 197.082 191.767C197.206 191.849 197.341 191.914 197.482 191.959L197.64 192.005H197.758H197.865H197.64L197.477 191.965C197.331 191.926 197.191 191.869 197.06 191.795C196.887 191.7 196.723 191.59 196.569 191.467C196.39 191.322 196.218 191.166 196.056 191.002C195.882 190.832 195.701 190.639 195.527 190.436C195.171 190.028 194.816 189.58 194.467 189.127C193.864 188.286 193.205 187.488 192.494 186.736C192.361 186.615 192.218 186.505 192.066 186.408C191.971 186.343 191.86 186.304 191.745 186.295H191.694C191.486 186.578 191.288 186.861 191.102 187.15C190.916 187.439 190.68 187.841 190.505 188.187C190.415 188.357 190.319 188.521 190.234 188.685L189.998 189.184C189.885 189.405 189.795 189.62 189.705 189.835C189.614 190.05 189.654 190.135 189.631 190.328C189.559 190.975 189.574 191.628 189.676 192.271C189.734 192.616 189.832 192.952 189.97 193.274C190.092 193.556 190.257 193.818 190.46 194.05C190.539 194.143 190.626 194.231 190.719 194.31C190.798 194.384 190.877 194.441 190.939 194.492L191.147 194.622L190.933 194.497C190.871 194.452 190.787 194.401 190.702 194.327C190.606 194.251 190.516 194.167 190.432 194.078C190.221 193.848 190.044 193.589 189.908 193.308C189.747 192.985 189.631 192.642 189.564 192.288C189.442 191.686 189.4 191.071 189.44 190.458L189.242 190.974L189.09 191.376L188.961 191.75L188.735 192.413L188.335 193.687L188.403 193.347C188.453 193.121 188.51 192.781 188.6 192.379C188.69 191.976 188.814 191.455 188.995 190.889C189.179 190.249 189.398 189.619 189.648 189.002C189.733 188.781 189.829 188.555 189.93 188.328C189.665 188.328 189.254 188.328 188.747 188.328C187.636 188.29 186.532 188.132 185.455 187.858C185.162 187.784 184.892 187.688 184.593 187.592C184.32 187.489 184.053 187.371 183.793 187.241C183.667 187.179 183.545 187.111 183.426 187.037C183.309 186.97 183.196 186.896 183.088 186.816C182.887 186.676 182.699 186.518 182.524 186.346C182.445 186.27 182.372 186.189 182.305 186.102C182.236 186.031 182.176 185.954 182.124 185.87C182.033 185.739 181.95 185.603 181.876 185.462C181.814 185.343 181.786 185.241 181.758 185.179L181.713 185.077L181.741 185.156Z" fill="#60DCE2"/>
<path d="M188.595 191.857C188.595 191.857 189.947 185.756 199.275 183.406C202.163 182.677 205.176 182.602 208.097 183.185C211.018 183.767 213.773 184.994 216.166 186.776C216.166 186.776 210.597 188.629 206.585 191.795C197.894 198.672 188.595 197.143 188.595 191.857Z" fill="#60DCE2"/>
<path d="M189.412 191.093C189.598 190.934 189.818 190.753 190.066 190.566L190.128 190.441C190.257 190.175 190.404 189.914 190.556 189.665C190.708 189.416 190.883 189.178 191.063 188.946C191.244 188.713 191.43 188.492 191.627 188.283C191.82 188.066 192.025 187.86 192.241 187.665C191.92 188.147 191.604 188.628 191.311 189.121C191.159 189.365 191.018 189.608 190.888 189.863C190.855 189.92 190.825 189.979 190.798 190.039C191.108 189.824 191.441 189.597 191.813 189.371C192.072 189.206 192.376 189.053 192.636 188.883C192.895 188.713 193.199 188.56 193.537 188.408C194.05 188.141 194.597 187.892 195.172 187.648L195.206 187.58C195.247 187.493 195.294 187.407 195.347 187.326C195.443 187.16 195.549 186.999 195.662 186.844L195.837 186.617C195.893 186.544 195.955 186.476 196.017 186.402C196.079 186.329 196.271 186.119 196.395 185.977C196.658 185.713 196.934 185.458 197.223 185.213C197.364 185.094 197.516 184.98 197.663 184.867C197.809 184.754 197.967 184.646 198.119 184.544C197.584 185.055 197.08 185.598 196.609 186.17C196.496 186.312 196.378 186.459 196.271 186.606C196.164 186.753 196.164 186.748 196.113 186.827L195.961 187.054C195.888 187.173 195.82 187.292 195.752 187.411C196.4 187.161 197.077 186.906 197.776 186.708C198.474 186.51 199.342 186.272 200.137 186.091C200.52 186.011 200.904 185.943 201.264 185.875L201.512 185.677C201.597 185.609 201.681 185.552 201.771 185.49C201.854 185.426 201.941 185.368 202.031 185.315C202.386 185.088 202.752 184.884 203.118 184.697C203.485 184.51 203.868 184.34 204.246 184.187C204.623 184.034 205.012 183.887 205.407 183.762C205.04 183.955 204.68 184.153 204.325 184.329C203.969 184.505 203.609 184.731 203.259 184.946C202.91 185.162 202.566 185.377 202.239 185.615C202.175 185.656 202.113 185.702 202.053 185.751L202.498 185.683C202.899 185.637 203.293 185.592 203.682 185.558L204.894 185.473L206.021 185.434H207.103C207.452 185.434 207.791 185.434 208.118 185.473C208.444 185.513 208.766 185.507 209.07 185.541C209.679 185.598 210.231 185.649 210.721 185.722C211.212 185.796 211.64 185.853 211.989 185.926L213.083 186.142L211.956 186.062C211.601 186.028 211.172 186.017 210.682 185.989C210.192 185.96 209.634 185.955 209.031 185.932C208.732 185.932 208.416 185.932 208.089 185.932C207.762 185.932 207.43 185.932 207.086 185.932C206.742 185.932 206.387 185.932 206.027 185.977L204.899 186.045L203.772 186.159L202.611 186.312L202.048 186.397L203.023 186.884L203.902 187.303L204.792 187.705L205.683 188.085L206.139 188.26C206.286 188.323 206.438 188.374 206.596 188.425C206.754 188.475 206.9 188.538 207.052 188.583C207.204 188.628 207.362 188.679 207.52 188.719L207.994 188.832L208.473 188.912H207.982L207.492 188.861C207.328 188.861 207.165 188.81 207.002 188.781C206.838 188.753 206.68 188.708 206.523 188.668C206.196 188.594 205.886 188.498 205.57 188.402L205.102 188.238C204.944 188.187 204.792 188.124 204.64 188.068C204.33 187.954 204.031 187.824 203.727 187.699C203.423 187.575 203.124 187.428 202.831 187.286C202.318 187.048 201.817 186.782 201.315 186.51C200.96 186.583 200.599 186.646 200.238 186.725C199.461 186.895 198.677 187.076 197.928 187.292C197.178 187.507 196.434 187.75 195.724 188.005L195.6 188.051C195.629 188.095 195.661 188.136 195.696 188.175C195.797 188.308 195.906 188.435 196.023 188.555C196.136 188.685 196.265 188.793 196.384 188.917L196.767 189.246L197.173 189.563L197.595 189.858C197.736 189.954 197.883 190.039 198.029 190.13C198.172 190.225 198.321 190.312 198.474 190.39L198.925 190.639L199.387 190.866C199.545 190.945 199.703 191.013 199.861 191.081L200.334 191.291C200.498 191.365 200.661 191.415 200.819 191.483L201.304 191.676L202.296 192.027C201.946 191.965 201.602 191.903 201.259 191.829C200.915 191.755 200.582 191.653 200.244 191.551C199.906 191.449 199.573 191.331 199.247 191.189L198.756 190.985C198.598 190.917 198.441 190.832 198.283 190.753C198.125 190.673 197.962 190.594 197.809 190.503C197.657 190.413 197.499 190.328 197.353 190.226L196.908 189.931L196.479 189.603C196.344 189.489 196.209 189.371 196.079 189.246C195.95 189.121 195.814 188.997 195.696 188.861C195.578 188.725 195.459 188.589 195.347 188.447L195.183 188.209C194.676 188.408 194.18 188.606 193.718 188.815C193.087 189.099 192.5 189.382 191.965 189.665C191.43 189.948 190.979 190.203 190.567 190.452C190.687 190.577 190.811 190.702 190.939 190.826L191.452 191.308L191.971 191.784L192.5 192.248L193.036 192.701L193.312 192.922L193.588 193.143L193.87 193.353C193.96 193.426 194.056 193.494 194.152 193.562C194.343 193.71 194.541 193.834 194.715 193.976C194.495 193.891 194.27 193.806 194.056 193.698C193.842 193.591 193.633 193.477 193.425 193.358C193.216 193.24 193.013 193.115 192.816 192.979C192.619 192.843 192.421 192.707 192.252 192.56C192.157 192.492 192.066 192.412 191.971 192.339L191.689 192.118L191.125 191.642C190.95 191.483 190.776 191.319 190.607 191.149C190.438 190.979 190.308 190.843 190.167 190.685C189.891 190.855 189.649 191.013 189.44 191.155L188.769 191.631L188.544 191.812C188.82 191.557 189.11 191.317 189.412 191.093Z" fill="#0ECCC6"/>
<path d="M131.846 59.5182C133.768 52.8848 131.627 46.393 127.067 44.7559L125.055 44.1895L124.987 44.4047C120.642 44.3084 116.139 48.4267 114.392 54.4539C112.645 60.4812 114.257 66.3499 117.976 68.6157L117.914 68.8367L119.926 69.4031C124.661 70.4794 129.936 66.1516 131.846 59.5182Z" fill="#D1810F"/>
<path d="M130.212 59.0421C128.24 65.8398 122.739 70.2356 117.92 68.8251C113.102 67.4146 110.774 60.7529 112.764 53.9382C114.753 47.1236 120.242 42.7221 125.061 44.1553C129.88 45.5884 132.191 52.2275 130.212 59.0421Z" fill="#EBA22F"/>
<path d="M129.266 58.7646C127.507 64.8372 122.604 68.7458 118.304 67.4883C114.003 66.2307 111.952 60.2884 113.71 54.2158C115.469 48.1432 120.378 44.2346 124.672 45.4921C128.967 46.7497 131.024 52.6864 129.266 58.7646Z" fill="#FFE668"/>
<path d="M124.334 54.6522C124.305 54.5577 124.26 54.4693 124.199 54.3916C124.1 54.2417 123.993 54.0979 123.878 53.9611C123.732 53.7927 123.576 53.6338 123.41 53.4852C123.238 53.3308 123.049 53.1977 122.846 53.0887L122.226 55.2356L122.547 55.4679C122.863 55.7037 123.159 55.9652 123.432 56.2496C123.672 56.503 123.863 56.7987 123.996 57.122C124.136 57.4655 124.211 57.8326 124.216 58.204C124.213 58.671 124.141 59.135 124.002 59.5805C123.863 60.1017 123.638 60.5958 123.336 61.042C123.1 61.3876 122.795 61.6807 122.44 61.903C122.125 62.0925 121.774 62.2122 121.409 62.2542C121.046 62.2978 120.678 62.2787 120.321 62.1976L119.791 64.0273L119.019 63.8007L119.555 61.954C119.046 61.7341 118.575 61.436 118.157 61.0703C117.726 60.6943 117.359 60.2504 117.069 59.7561L118.523 57.7394C118.566 57.8547 118.62 57.9649 118.687 58.068C118.801 58.2527 118.931 58.427 119.076 58.5892C119.251 58.7902 119.439 58.9795 119.639 59.1556C119.853 59.347 120.09 59.5107 120.344 59.6428L120.952 57.5468L120.479 57.1673C120.19 56.931 119.924 56.6673 119.684 56.3799C119.263 55.8835 119.038 55.2482 119.053 54.5955C119.069 54.2112 119.133 53.8305 119.245 53.4626C119.379 52.9661 119.59 52.4939 119.87 52.0634C120.1 51.7031 120.39 51.3851 120.727 51.1231C121.027 50.8942 121.37 50.7302 121.736 50.6415C122.105 50.5519 122.488 50.5365 122.863 50.5962L123.325 48.9988L124.092 49.2254L123.63 50.8172C124.09 51.0195 124.508 51.31 124.858 51.6725C125.184 52.0022 125.482 52.3584 125.749 52.7375L124.334 54.6522ZM121.291 53.6099C121.208 53.8288 121.208 54.0707 121.291 54.2896C121.403 54.5123 121.565 54.7061 121.764 54.8561L122.328 52.9188C122.214 52.8888 122.095 52.8834 121.98 52.9027C121.864 52.9221 121.753 52.9658 121.655 53.031C121.557 53.0963 121.474 53.1815 121.411 53.2813C121.349 53.3811 121.307 53.493 121.291 53.6099ZM122.001 59.2746C122.041 59.1594 122.058 59.0371 122.049 58.9152C122.041 58.7933 122.007 58.6746 121.95 58.5665C121.816 58.3408 121.646 58.1381 121.448 57.966L120.885 59.8581C120.997 59.907 121.118 59.93 121.239 59.9251C121.361 59.9202 121.48 59.8876 121.588 59.8298C121.695 59.772 121.788 59.6905 121.86 59.5914C121.931 59.4923 121.979 59.3782 122.001 59.2576V59.2746Z" fill="#EBA22F"/>
<path d="M179.076 197.76L43.3011 197.76C42.5073 197.76 41.7462 197.443 41.1849 196.879C40.6237 196.315 40.3084 195.55 40.3084 194.752V191.138L182.052 191.138V194.752C182.052 195.547 181.739 196.309 181.181 196.873C180.624 197.437 179.867 197.756 179.076 197.76Z" fill="#1B5289"/>
<path d="M237.007 197.76L101.221 197.76C100.427 197.76 99.6662 197.443 99.105 196.879C98.5437 196.315 98.2284 195.55 98.2284 194.752V191.138L240 191.138V194.752C240 195.55 239.685 196.315 239.123 196.879C238.562 197.443 237.801 197.76 237.007 197.76Z" fill="#2D61A0"/>
<path d="M170.222 191.138H40.3255C38.3421 191.109 36.4377 190.352 34.9717 189.009C33.5057 187.666 32.5794 185.83 32.3676 183.847L23.615 84.862C23.5162 83.9298 23.6163 82.9871 23.9087 82.0969C24.201 81.2066 24.6789 80.3893 25.3104 79.6993C25.9419 79.0094 26.7125 78.4627 27.5708 78.0958C28.4292 77.7289 29.3555 77.5502 30.288 77.5715H160.196C162.179 77.6003 164.084 78.3576 165.55 79.7007C167.016 81.0438 167.942 82.8797 168.154 84.862L176.889 183.847C176.988 184.779 176.888 185.721 176.596 186.611C176.304 187.501 175.827 188.318 175.196 189.008C174.565 189.698 173.795 190.245 172.938 190.612C172.08 190.979 171.154 191.158 170.222 191.138Z" fill="#2D61A0"/>
<path d="M173.897 191.138H43.983C41.9998 191.11 40.0955 190.353 38.6302 189.01C37.1648 187.666 36.24 185.83 36.0307 183.847L27.295 84.862C27.1944 83.9299 27.2931 82.9869 27.5844 82.0962C27.8757 81.2056 28.353 80.3877 28.9843 79.6974C29.6155 79.0072 30.3862 78.4604 31.2447 78.0938C32.1033 77.7271 33.0298 77.549 33.9623 77.5715H163.876C165.859 77.6002 167.764 78.3575 169.23 79.7006C170.696 81.0437 171.622 82.8796 171.834 84.862L180.564 183.847C180.664 184.779 180.564 185.722 180.273 186.612C179.981 187.502 179.504 188.32 178.873 189.01C178.241 189.7 177.471 190.247 176.613 190.614C175.755 190.981 174.829 191.159 173.897 191.138Z" fill="#4677BC"/>
<path d="M173.553 154.725V180.534H39.7614L36.3179 143.141L34.6553 125.087H45.3241V127.738H44.1236V146.964H50.2668V141.504H54.1443V130.424H56.2239V115.678H57.3173V130.424H58.9743V141.504H63.2745V149.055H66.4024V143.282H69.0344V149.055H70.4321V137.199H71.9087V122.753H73.0641V132.961L77.2741 137.199H82.6902V149.055H91.7021V154.725H97.9805V128.781H108.61V146.341H113.372V145.543H129.942V137.199H144.888V145.543H148.749V124.747H158.961V133.862H169.123V154.725H173.553Z" fill="#60DCE2"/>
<path d="M176.737 180.998H39.807L39.7619 180.534L36.3184 143.141H41.7739V135.306H50.5547V153.19H53.8742V146.013H66.7298V153.19H80.9887V153.881H85.086V138.773H94.2331V155.937H94.7065V148.754H107.387V146.013H112.037L115.661 142.37V133.59H116.653V146.013H117.926V155.937H119.127V151.253H121.393V155.937H121.821V156.215H124.087V149.717H125.918V141.515H127.784V140.189H129.21V127.506H130.145V140.189H131.943V141.515H135.06V149.717H135.268V154.414H140.555V137.878H139.523V135.595H151.748V148.754H152.869L156.493 145.112V136.332H157.491V148.754H158.759V158.962H159.959V153.989H162.225V158.962H164.913V152.459H168.616V142.937H170.042V130.248H170.977V142.937H172.77V152.459H174.105L176.737 180.998Z" fill="#0ECCC6"/>
<path d="M31.1104 86.72C31.1104 86.72 38.7977 88.5157 38.7977 98.4686C38.7977 103.607 48.5648 103.607 48.5648 98.4686C48.5648 88.5157 40.8774 86.72 40.8774 86.72H31.1104Z" fill="white"/>
<path d="M40.8545 86.72C40.8545 86.72 48.5419 88.5157 48.5419 98.4686C48.5419 103.607 58.3089 103.607 58.3089 98.4686C58.3089 88.5157 50.6215 86.72 50.6215 86.72H40.8545Z" fill="#EB4E63"/>
<path d="M50.5938 86.72C50.5938 86.72 58.2811 88.5157 58.2811 98.4686C58.2811 103.607 68.0538 103.607 68.0538 98.4686C68.0538 88.5157 60.3608 86.72 60.3608 86.72H50.5938Z" fill="white"/>
<path d="M60.3379 86.72C60.3379 86.72 68.0253 88.5157 68.0253 98.4686C68.0253 103.607 77.7923 103.607 77.7923 98.4686C77.7923 88.5157 70.1049 86.72 70.1049 86.72H60.3379Z" fill="#EB4E63"/>
<path d="M70.083 86.72C70.083 86.72 77.7704 88.5157 77.7704 98.4686C77.7704 103.607 87.5375 103.607 87.5375 98.4686C87.5375 88.5157 79.8501 86.72 79.8501 86.72H70.083Z" fill="white"/>
<path d="M79.8213 86.72C79.8213 86.72 87.5087 88.5157 87.5087 98.4686C87.5087 103.607 97.2757 103.607 97.2757 98.4686C97.2757 88.5157 89.5883 86.72 89.5883 86.72H79.8213Z" fill="#EB4E63"/>
<path d="M89.5664 86.72C89.5664 86.72 97.2482 88.5157 97.2482 98.4686C97.2482 103.607 107.015 103.607 107.015 98.4686C107.015 88.5157 99.3278 86.72 99.3278 86.72H89.5664Z" fill="white"/>
<path d="M99.3047 86.72C99.3047 86.72 106.992 88.5157 106.992 98.4686C106.992 103.607 116.765 103.607 116.765 98.4686C116.765 88.5157 109.077 86.72 109.077 86.72H99.3047Z" fill="#EB4E63"/>
<path d="M109.05 86.72C109.05 86.72 116.737 88.5157 116.737 98.4686C116.737 103.607 126.504 103.607 126.504 98.4686C126.504 88.5157 118.817 86.72 118.817 86.72H109.05Z" fill="white"/>
<path d="M118.794 86.72C118.794 86.72 126.481 88.5157 126.481 98.4686C126.481 103.607 136.248 103.607 136.248 98.4686C136.248 88.5157 128.561 86.72 128.561 86.72H118.794Z" fill="#EB4E63"/>
<path d="M128.533 86.72C128.533 86.72 136.221 88.5157 136.221 98.4686C136.221 103.607 145.993 103.607 145.993 98.4686C145.993 88.5157 138.3 86.72 138.3 86.72H128.533Z" fill="white"/>
<path d="M138.277 86.72C138.277 86.72 145.965 88.5157 145.965 98.4686C145.965 103.607 155.732 103.607 155.732 98.4686C155.732 88.5157 148.044 86.72 148.044 86.72H138.277Z" fill="#EB4E63"/>
<path d="M148.022 86.72C148.022 86.72 155.71 88.5157 155.71 98.4686C155.71 103.607 165.477 103.607 165.477 98.4686C165.477 88.5157 157.79 86.72 157.79 86.72H148.022Z" fill="white"/>
<path d="M157.761 86.72C157.761 86.72 165.443 88.5157 165.443 98.4686C165.443 103.607 175.21 103.607 175.21 98.4686C175.21 88.5157 167.522 86.72 167.522 86.72H157.761Z" fill="#EB4E63"/>
<path d="M38.8085 98.4686H32.2032L31.1211 86.72H31.1549H31.2338C31.2524 86.7239 31.2716 86.7239 31.2902 86.72L31.4311 86.7653H31.5212L31.6001 86.7936C33.3135 87.4734 38.8085 90.0565 38.8085 98.4686Z" fill="#C0414C"/>
<path d="M230.582 102.661C227.601 99.0692 223.69 97.2734 219.784 97.2734H216.402L216.571 97.6813C213.571 98.4874 210.902 100.231 208.952 102.661C202.989 109.855 202.989 121.513 208.952 128.718L216.402 141.747H219.784L230.588 128.718C236.551 121.513 236.551 109.855 230.582 102.661ZM219.778 121.847C216.898 121.847 214.571 119.015 214.571 115.571C214.571 112.126 216.898 109.294 219.778 109.294C222.658 109.294 224.986 112.126 224.986 115.571C224.986 119.015 222.653 121.847 219.778 121.847Z" fill="#C0414C"/>
<path d="M227.229 102.66C221.26 95.4719 211.589 95.4719 205.621 102.66C199.658 109.855 199.658 121.513 205.621 128.718L216.425 141.747L227.229 128.718C233.197 121.513 233.197 109.855 227.229 102.66ZM216.425 121.847C213.545 121.847 211.217 119.015 211.217 115.57C211.217 112.126 213.545 109.294 216.425 109.294C219.305 109.294 221.632 112.126 221.632 115.57C221.632 119.015 219.299 121.847 216.425 121.847Z" fill="#EB4E63"/>
<path d="M36.2229 142.496L35.5371 146.223L40.0482 147.062L40.734 143.335L36.2229 142.496Z" fill="#624889"/>
<path d="M35.7654 144.948L41.0293 145.928L40.7983 147.197C45.7297 150.913 48.3335 158.402 46.8738 166.327C45.4141 174.251 40.3248 180.307 34.3959 182.012L34.1591 183.281L28.8952 182.301C20.864 180.806 15.8931 171.238 17.7812 160.922C19.6692 150.607 27.7342 143.458 35.7654 144.948Z" fill="#C0414C"/>
<path d="M23.0508 161.902C21.1572 172.212 26.128 181.785 34.1592 183.281C42.1904 184.776 50.2442 177.616 52.1378 167.306C54.0315 156.997 49.0662 147.418 41.0294 145.928C32.9926 144.438 24.9501 151.587 23.0508 161.902Z" fill="#EB4E63"/>
<path d="M26.0656 162.457C24.5439 170.637 28.4891 178.228 34.8689 179.412C41.2488 180.596 47.623 174.926 49.1278 166.746C50.6326 158.566 46.6875 150.975 40.3245 149.785C33.9615 148.596 27.5704 154.283 26.0656 162.457Z" fill="white"/>
<path d="M37.597 165.324C37.4504 165.325 37.3069 165.282 37.1855 165.199L31.6285 161.33C31.4723 161.221 31.3656 161.054 31.3318 160.866C31.2979 160.678 31.3398 160.484 31.4482 160.327C31.5565 160.17 31.7225 160.063 31.9096 160.029C32.0967 159.995 32.2895 160.037 32.4457 160.146L37.0897 163.375L38.8143 154C38.8605 153.822 38.9719 153.669 39.126 153.571C39.2802 153.473 39.4656 153.437 39.645 153.471C39.8244 153.504 39.9844 153.605 40.0928 153.753C40.2011 153.901 40.2498 154.084 40.2289 154.266L38.3015 164.735C38.2791 164.853 38.2277 164.965 38.1519 165.059C38.0762 165.153 37.9785 165.226 37.8675 165.273C37.7813 165.307 37.6895 165.324 37.597 165.324Z" fill="#624889"/>
<path d="M35.9351 140.155L35.4448 142.818C35.4151 142.98 35.4507 143.148 35.5437 143.283C35.6366 143.419 35.7794 143.513 35.9407 143.543L40.5735 144.404C40.7349 144.434 40.9014 144.398 41.0367 144.305C41.1719 144.211 41.2647 144.068 41.2949 143.906L41.7852 141.243C41.8148 141.081 41.7793 140.913 41.6863 140.778C41.5933 140.642 41.4505 140.548 41.2892 140.518L36.6565 139.657C36.4951 139.627 36.3285 139.663 36.1933 139.756C36.0581 139.85 35.9652 139.993 35.9351 140.155Z" fill="#C0414C"/>
<path d="M37.8112 140.512L37.3208 143.169C37.2911 143.332 37.3265 143.5 37.4193 143.637C37.5122 143.774 37.655 143.868 37.8168 143.9L40.5728 144.41C40.7342 144.439 40.9007 144.404 41.036 144.31C41.1712 144.217 41.264 144.073 41.2942 143.911L41.7845 141.249C41.8141 141.086 41.7786 140.919 41.6856 140.783C41.5926 140.647 41.4498 140.554 41.2885 140.524L38.5326 140.008C38.3707 139.981 38.2049 140.019 38.0703 140.113C37.9356 140.207 37.8427 140.35 37.8112 140.512Z" fill="#EB4E63"/>
<path d="M169.213 183.502H168.706V181.576H169.202C169.827 181.576 170.453 181.576 171.073 181.576L171.118 183.496C170.515 183.496 169.855 183.502 169.213 183.502ZM166.282 183.451C165.488 183.451 164.676 183.389 163.864 183.338L163.983 181.412C164.772 181.463 165.572 181.502 166.35 181.531L166.282 183.451ZM173.553 183.389L173.446 181.463C174.24 181.423 175.029 181.366 175.801 181.298L175.97 183.213C175.176 183.287 174.364 183.343 173.553 183.389ZM161.452 183.156C160.658 183.083 159.852 183.003 159.046 182.913L159.26 180.998C160.055 181.089 160.838 181.168 161.621 181.236L161.452 183.156ZM178.36 182.964L178.129 181.049C178.918 180.953 179.707 180.845 180.468 180.726L180.767 182.624C180.006 182.749 179.194 182.862 178.405 182.964H178.36ZM156.645 182.641C155.856 182.528 155.056 182.409 154.255 182.278L154.56 180.381C155.349 180.505 156.126 180.624 156.904 180.732L156.645 182.641ZM183.184 182.233L182.812 180.341C183.59 180.188 184.362 180.018 185.118 179.837L185.563 181.712C184.779 181.871 183.979 182.074 183.184 182.205V182.233ZM151.871 181.871C151.088 181.723 150.299 181.57 149.504 181.406L149.887 179.514C150.673 179.68 151.45 179.833 152.221 179.973L151.871 181.871ZM187.941 181.1L187.423 179.242C188.178 179.027 188.933 178.795 189.677 178.551L190.241 180.375C189.485 180.613 188.696 180.851 187.919 181.072L187.941 181.1ZM147.165 180.891L144.815 180.324L145.277 178.449C146.055 178.647 146.821 178.829 147.588 179.016L147.165 180.891ZM142.482 179.718C141.71 179.508 140.932 179.293 140.154 179.066L140.718 177.214C141.484 177.441 142.245 177.656 143.006 177.86L142.482 179.718ZM192.568 179.571L191.886 177.769C192.619 177.492 193.352 177.203 194.062 176.88L194.828 178.647C194.067 178.942 193.306 179.242 192.546 179.542L192.568 179.571ZM137.826 178.341C137.066 178.103 136.299 177.86 135.527 177.605L136.124 175.775C136.885 176.025 137.641 176.268 138.379 176.5L137.826 178.341ZM197.004 177.582L196.153 175.883C196.851 175.532 197.545 175.163 198.221 174.778L199.162 176.478C198.475 176.835 197.748 177.22 197.004 177.582ZM133.222 176.835L130.968 176.019L131.627 174.212C132.377 174.484 133.121 174.778 133.881 175.011L133.222 176.835ZM201.259 175.169L200.25 173.577C200.904 173.153 201.557 172.711 202.183 172.257L203.31 173.821C202.64 174.263 201.969 174.71 201.276 175.169H201.259ZM128.691 175.169L126.436 174.285L127.152 172.495C127.896 172.796 128.634 173.09 129.367 173.373L128.691 175.169ZM124.221 173.368L123.528 173.073L122.046 172.405L122.824 170.649L124.3 171.311L124.982 171.6L124.221 173.368ZM205.232 172.291L204.02 170.802C204.623 170.303 205.221 169.788 205.784 169.261L207.081 170.677C206.506 171.227 205.886 171.77 205.249 172.291H205.232ZM119.803 171.391C119.076 171.04 118.349 170.683 117.633 170.314L118.501 168.615C119.205 168.972 119.91 169.323 120.626 169.669L119.803 171.391ZM115.491 169.199C114.781 168.813 114.071 168.422 113.372 168.026L114.313 166.327C115.001 166.717 115.694 167.097 116.393 167.459L115.491 169.199ZM208.839 168.944L207.453 167.618C207.988 167.052 208.507 166.485 209.003 165.868L210.473 167.103C209.966 167.731 209.403 168.349 208.839 168.944ZM111.287 166.808C110.592 166.393 109.904 165.973 109.224 165.55L110.233 163.913C110.904 164.333 111.58 164.746 112.268 165.154L111.287 166.808ZM211.984 165.16L210.434 164.027C210.891 163.398 211.336 162.746 211.742 162.095L213.365 163.12C212.942 163.811 212.48 164.514 211.995 165.16H211.984ZM107.156 164.253C106.48 163.811 105.809 163.37 105.144 162.916L106.215 161.319C106.868 161.766 107.533 162.203 108.198 162.633L107.156 164.253ZM103.154 161.551C102.495 161.087 101.836 160.622 101.187 160.152L102.315 158.589C102.957 159.053 103.605 159.512 104.259 159.971L103.154 161.551ZM214.576 160.985L212.886 160.067C213.258 159.382 213.607 158.679 213.928 157.971L215.67 158.77C215.377 159.523 215.005 160.265 214.616 160.99L214.576 160.985ZM99.243 158.719C98.5949 158.237 97.9524 157.756 97.3155 157.269L98.4765 155.733L100.381 157.172L99.243 158.719ZM216.622 156.493L214.83 155.813C215.106 155.088 215.36 154.34 215.585 153.592L217.417 154.159C217.22 154.946 216.949 155.733 216.662 156.493H216.622ZM95.45 155.79L93.562 154.317L94.7568 152.81L96.6279 154.295L95.45 155.79ZM91.6909 152.776L89.831 151.247L91.0484 149.786L92.8969 151.304L91.6909 152.776ZM218.099 151.779L216.233 151.332C216.414 150.584 216.572 149.808 216.701 149.032L218.589 149.361C218.454 150.176 218.285 150.986 218.099 151.779ZM87.9824 149.701L86.1451 148.148L87.3794 146.676L89.2111 148.222L87.9824 149.701ZM218.939 146.953L217.034 146.738C217.118 145.967 217.18 145.18 217.225 144.398L219.136 144.5C219.096 145.288 219.029 146.115 218.939 146.953ZM84.3134 146.619L82.493 145.05L83.7217 143.554C84.3247 144.075 84.9278 144.597 85.5421 145.118L84.3134 146.619ZM80.667 143.486L78.8522 141.923L80.0978 140.456L81.9182 142.025L80.667 143.486ZM77.0262 140.359L75.2002 138.807L76.4344 137.334C77.0431 137.85 77.6574 138.365 78.2717 138.892L77.0262 140.359ZM73.3685 137.266C72.7542 136.751 72.1399 136.241 71.5255 135.743L72.7373 134.247C73.3516 134.757 73.9715 135.267 74.5915 135.788L73.3685 137.266ZM69.6713 134.236L67.7946 132.757L68.9725 131.234L70.8661 132.729L69.6713 134.236ZM65.9009 131.307C65.264 130.826 64.6272 130.356 63.9847 129.897L65.1119 128.333C65.76 128.798 66.4081 129.279 67.0563 129.766L65.9009 131.307ZM62.0459 128.526C61.3752 128.067 60.7102 127.625 60.0677 127.212L61.1047 125.591C61.7641 126.016 62.4404 126.47 63.1224 126.934L62.0459 128.526ZM58.0613 125.954C57.3737 125.54 56.6862 125.144 56.0211 124.77L56.9454 123.071C57.633 123.456 58.3431 123.864 59.0476 124.294L58.0613 125.954ZM53.9358 123.688C53.2257 123.331 52.51 122.991 51.8111 122.68L52.5832 120.918C53.3102 121.241 54.0542 121.592 54.7925 121.96L53.9358 123.688ZM49.6469 121.785C48.9086 121.507 48.1647 121.218 47.4376 121.014L48.0012 119.179C48.7677 119.417 49.5455 119.689 50.3176 119.983L49.6469 121.785ZM45.1945 120.38C44.4393 120.193 43.6728 120.034 42.9402 119.904L43.267 118.006C44.0617 118.142 44.8676 118.312 45.6679 118.511L45.1945 120.38ZM40.6238 119.587C39.8573 119.513 39.0739 119.462 38.3074 119.445L38.3525 117.519C39.1697 117.519 39.9982 117.593 40.8154 117.672L40.6238 119.587ZM35.884 117.497C35.2528 117.531 34.6046 117.582 33.9678 117.661L34.1481 119.576C34.7624 119.502 35.3768 119.451 35.9854 119.423L35.884 117.497Z" fill="#5A9BDB"/>
<path d="M88.2466 110.721H58.3086L86.3304 112.647L88.2466 110.721Z" fill="white"/>
<path d="M88.5519 118.901H45.4033L88.2476 120.21L88.5519 118.901Z" fill="white"/>
<path d="M88.2469 143.282H62.0117L87.5368 144.477L88.2469 143.282Z" fill="white"/>
<path d="M101.346 157.257H68.2402L100.252 159.025L101.346 157.257Z" fill="white"/>
<path d="M100.252 172.184H57.1143L99.2146 174.042L100.252 172.184Z" fill="white"/>
<path d="M120.028 110.721H97.1916C96.1333 110.721 95.2754 111.584 95.2754 112.647V144.908C95.2754 145.972 96.1333 146.834 97.1916 146.834H120.028C121.087 146.834 121.945 145.972 121.945 144.908V112.647C121.945 111.584 121.087 110.721 120.028 110.721Z" fill="#EBA22F"/>
<path d="M103.898 110.721H88.2473C87.189 110.721 86.3311 111.584 86.3311 112.647V144.908C86.3311 145.972 87.189 146.834 88.2473 146.834H103.898C104.957 146.834 105.814 145.972 105.814 144.908V112.647C105.814 111.584 104.957 110.721 103.898 110.721Z" fill="#FFD249"/>
<path d="M106.694 152.618C102.822 152.476 98.8033 146.217 98.6399 145.95C98.5892 145.87 98.5547 145.781 98.5383 145.688C98.5219 145.594 98.5239 145.499 98.5444 145.406C98.5856 145.219 98.699 145.056 98.8597 144.953C99.0204 144.851 99.2152 144.816 99.4012 144.857C99.5872 144.899 99.7492 145.013 99.8516 145.174C100.889 146.811 104.157 151.083 106.75 151.173C106.93 151.193 107.095 151.279 107.215 151.415C107.334 151.551 107.399 151.727 107.395 151.909C107.392 152.09 107.32 152.264 107.196 152.395C107.071 152.526 106.902 152.606 106.722 152.618H106.694Z" fill="#3E2D51"/>
<path d="M131.312 172.977C131.312 183.054 126.025 191.229 119.504 191.229C112.984 191.229 107.669 183.054 107.669 172.977C107.669 162.899 112.955 154.725 119.504 154.725C126.053 154.725 131.312 162.894 131.312 172.977Z" fill="#3E2D51"/>
<path d="M122.536 172.977C122.536 178.013 119.893 182.103 116.629 182.103C113.366 182.103 110.729 178.013 110.729 172.977C110.729 167.941 113.372 163.845 116.629 163.845C119.887 163.845 122.536 167.912 122.536 172.977Z" fill="#5A9BDB"/>
<path d="M157.062 172.348V177.763H136.074V180.086H128.212C115.773 179.961 115.305 174.795 111.839 174.795H99.694C97.0226 174.795 95.5685 151.672 110.402 146.596L112.516 142.019L134.411 143.288L145.627 143.945C145.621 151.881 145.446 172.348 157.062 172.348Z" fill="#FFD249"/>
<path d="M157.062 172.348V172.954C155.85 175.322 154.013 177.135 151.268 177.763C150.528 177.929 149.772 178.008 149.014 178.001C147.581 178.009 146.148 177.929 144.725 177.763C134.738 176.557 132.489 171.085 132.489 166.927V143.554L134.383 143.26L145.598 143.917C145.621 151.881 145.446 172.348 157.062 172.348Z" fill="#EBA22F"/>
<path d="M145.621 144.58H117.965C111.512 144.58 109.85 142.064 109.85 142.064C110.438 141.667 110.925 141.136 111.27 140.514C111.616 139.891 111.811 139.196 111.839 138.484C111.839 137.833 111.952 136.394 113.192 136.394H141.298C145.514 136.394 150.344 144.58 145.621 144.58Z" fill="#3E2D51"/>
<path d="M136.04 144.58H117.965C111.512 144.58 109.85 142.971 109.85 142.064C109.85 141.039 111.839 140.807 111.839 138.484C111.839 137.833 111.952 136.394 113.192 136.394H131.717C135.933 136.394 140.763 144.58 136.04 144.58Z" fill="#624889"/>
<path d="M116.618 171.125V178.001C116.618 179.004 116.618 179.412 114.837 179.412H106.383C104.946 179.412 104.625 179.089 104.625 178.001V173.011L113.355 171.629L116.618 171.125Z" fill="#624889"/>
<path d="M113.372 171.64V178.002C113.372 179.004 113.372 179.412 111.591 179.412H106.4C104.963 179.412 104.642 179.089 104.642 178.002V173.011L113.372 171.64Z" fill="#13667C"/>
<path d="M110.729 171.125C110.729 174.563 108.92 177.356 106.694 177.356C104.467 177.356 102.658 174.563 102.658 171.125C102.658 167.686 104.467 164.893 106.694 164.893C108.92 164.893 110.729 167.68 110.729 171.125Z" fill="#624889"/>
<path d="M128.707 176.234C128.626 177.528 128.46 178.814 128.212 180.086C115.773 179.961 115.305 174.795 111.839 174.795H99.6938C98.6286 174.795 97.7494 171.096 98.003 166.338C98.1105 164.587 98.3612 162.847 98.7526 161.138C100.133 155.144 103.504 148.941 110.351 146.596C126.521 146.591 129.215 168.689 128.707 176.234Z" fill="#FFE668"/>
<path d="M127.682 146.262H93.7876C93.608 146.246 93.4409 146.163 93.3191 146.029C93.1974 145.895 93.1299 145.721 93.1299 145.54C93.1299 145.358 93.1974 145.184 93.3191 145.05C93.4409 144.916 93.608 144.833 93.7876 144.817H127.682C127.862 144.833 128.029 144.916 128.15 145.05C128.272 145.184 128.34 145.358 128.34 145.54C128.34 145.721 128.272 145.895 128.15 146.029C128.029 146.163 127.862 146.246 127.682 146.262Z" fill="#3E2D51"/>
<path d="M121.945 120.85H101.345C101.218 120.85 101.096 120.799 101.007 120.709C100.917 120.619 100.866 120.496 100.866 120.368C100.866 120.241 100.917 120.118 101.007 120.028C101.096 119.938 101.218 119.887 101.345 119.887H121.945C122.072 119.887 122.193 119.938 122.283 120.028C122.373 120.118 122.424 120.241 122.424 120.368C122.424 120.496 122.373 120.619 122.283 120.709C122.193 120.799 122.072 120.85 121.945 120.85Z" fill="#D1810F"/>
<path d="M105.177 120.85H85.6939C85.5668 120.85 85.445 120.799 85.3552 120.709C85.2653 120.619 85.2148 120.496 85.2148 120.368C85.2148 120.241 85.2653 120.118 85.3552 120.028C85.445 119.938 85.5668 119.887 85.6939 119.887H105.177C105.304 119.887 105.426 119.938 105.516 120.028C105.606 120.118 105.656 120.241 105.656 120.368C105.656 120.496 105.606 120.619 105.516 120.709C105.426 120.799 105.304 120.85 105.177 120.85Z" fill="#E0962B"/>
<path d="M110.21 169.329V166.338H98.0312C98.1388 164.587 98.3895 162.847 98.7808 161.138H110.21V158.141L115.491 163.738L110.21 169.329Z" fill="#624889"/>
<path d="M95.7317 136.009V131.93C97.3154 131.364 98.5215 128.531 98.5497 125.087H95.388L95.0047 127.189H95.8952L95.7881 127.608L95.1231 130.066L95.2865 127.863H94.4299L94.4918 127.449L94.8356 125.087H91.7246C91.7697 128.52 92.9758 131.347 94.5426 131.93V136.009C93.7279 136.386 93.0841 137.057 92.7391 137.889H97.4845C97.1518 137.066 96.5274 136.396 95.7317 136.009Z" fill="#624889"/>
<path d="M144.663 98.6047C148.079 99.9983 152.661 116.998 152.661 116.998C152.661 116.998 163.82 116.211 165.06 117.321C166.3 118.431 164.654 119.695 164.654 119.695C164.654 119.695 151.86 123.093 149.505 122.38C147.149 121.666 142.871 109.781 142.871 109.781L144.663 98.6047Z" fill="#EBA22F"/>
<path d="M146.281 84.9075C146.281 87.4226 145.154 91.5975 143.316 91.8298C141.479 92.062 142.161 85.2077 142.161 85.2077L146.281 84.9075Z" fill="#EBA22F"/>
<path d="M134.789 94.2712C136.164 93.7897 140.397 94.4695 140.898 95.6931C141.4 96.9166 137.844 97.5794 137.844 97.5794L134.789 97.0979V94.2712Z" fill="#D1810F"/>
<path d="M136.857 176.234L136.817 174.88C136.783 173.623 137.871 170.915 137.849 170.071C137.826 169.227 141.095 170.637 141.095 170.637C141.168 171.688 141.586 172.684 142.284 173.47C143 174.201 143.146 175.515 143.158 176.24L136.857 176.234Z" fill="#3E2D51"/>
<path d="M147.926 176.234C147.935 174.173 148.282 172.127 148.952 170.179C148.952 170.179 151.848 168.734 152.502 171.051C153.156 173.368 156.154 173.838 157.687 174.002C158.814 174.121 158.955 175.588 158.961 176.234H147.926Z" fill="#3E2D51"/>
<path d="M126.611 130.248L141.005 129.63C141.005 129.63 156.414 130.763 163.893 135.584C166.914 137.533 153.444 171.124 153.444 171.124H147.926L156.115 143.124C156.115 143.124 140.335 142.659 135.696 140.569C131.058 138.479 126.611 130.248 126.611 130.248Z" fill="#11824E"/>
<path d="M141.901 171.124C141.901 171.124 143.958 135.227 142.008 133.601C140.058 131.975 120.918 129.421 120.918 129.421C120.918 129.421 120.957 139.17 126.097 142.195C131.237 145.22 134.782 145.928 134.782 145.928L137.24 171.124H141.901Z" fill="#1BA363"/>
<path d="M120.918 130.474C120.31 123.773 123.522 104.638 123.703 103.692C124.266 100.712 128.871 96.7013 134.974 96.3954C135.639 96.3615 136.271 96.3445 136.868 96.3558C141.749 96.4068 144.42 97.7946 146.257 100.366C146.782 101.108 147.43 103.397 146.849 106.864C143.372 127.738 140.971 129.63 140.971 129.63C137.477 133.216 120.918 130.474 120.918 130.474Z" fill="#FFE668"/>
<path d="M144.787 83.4685C144.787 83.4685 146.478 85.825 144.415 89.1332C142.352 92.4414 142.724 83.7744 142.724 83.7744L144.787 83.4685Z" fill="#3E2D51"/>
<path d="M135.104 88.1135C134.839 94.4184 141.524 95.4777 143.164 93.1778C143.826 92.0862 144.287 90.8828 144.522 89.626C144.601 89.2918 144.663 88.9519 144.719 88.6064C145.086 86.2895 144.933 83.9273 143.66 83.2645C139.23 80.9477 135.369 81.8087 135.104 88.1135Z" fill="#F8C6A3"/>
<path d="M140.193 87.4735C140.148 87.819 140.272 88.1249 140.463 88.1476C140.655 88.1702 140.847 87.9096 140.886 87.5811C140.926 87.2525 140.813 86.907 140.644 86.907C140.475 86.907 140.238 87.1222 140.193 87.4735Z" fill="#231B30"/>
<path d="M143.328 87.4735C143.283 87.819 143.407 88.1249 143.598 88.1476C143.79 88.1703 143.981 87.9097 144.026 87.5811C144.072 87.2526 143.948 86.9353 143.756 86.907C143.564 86.8787 143.373 87.1223 143.328 87.4735Z" fill="#231B30"/>
<path d="M142.684 88.2778C142.684 88.2778 143.248 89.6997 143.885 89.5751C144.522 89.4504 143.885 90.8609 142.234 90.1415C142.144 89.818 142.139 89.4769 142.217 89.1507C142.296 88.8244 142.457 88.5239 142.684 88.2778Z" fill="#F09988"/>
<path d="M138.711 88.5384C138.664 88.6879 138.678 88.8498 138.748 88.9895C138.819 89.1292 138.941 89.2356 139.088 89.2861C139.186 89.3054 139.287 89.2968 139.38 89.2612C139.472 89.2257 139.553 89.1646 139.613 89.085C139.673 89.0054 139.71 88.9105 139.719 88.811C139.727 88.7116 139.708 88.6117 139.663 88.5227C139.618 88.4337 139.549 88.3591 139.464 88.3076C139.379 88.2561 139.281 88.2296 139.182 88.2313C139.083 88.2329 138.986 88.2626 138.903 88.3169C138.819 88.3712 138.753 88.4479 138.711 88.5384Z" fill="#F6B190"/>
<path d="M143.84 89.2069C143.857 89.2795 143.888 89.348 143.932 89.4085C143.976 89.4689 144.031 89.5201 144.094 89.559C144.157 89.598 144.228 89.624 144.301 89.6355C144.375 89.647 144.45 89.6438 144.522 89.6261C144.601 89.2919 144.663 88.952 144.719 88.6064C144.615 88.5892 144.508 88.5892 144.403 88.6064C144.251 88.6151 144.108 88.6822 144.003 88.7939C143.898 88.9056 143.84 89.0534 143.84 89.2069Z" fill="#F6B190"/>
<path d="M141.309 85.4965C140.888 85.377 140.438 85.4194 140.047 85.6155L141.309 85.4965Z" fill="#11824E"/>
<path d="M137.675 80.3756C140.205 79.5882 143.463 80.3756 145.137 82.2507C146.083 83.3156 145.373 84.3863 144.184 84.7941C142.629 85.3266 137.787 84.3523 137.787 84.3523L136.051 88.7764L136.198 91.1103C136.198 91.1103 136.035 91.824 136.029 91.8297C136.029 91.6031 135.285 90.9064 135.144 90.7364C134.731 90.2621 134.428 89.7008 134.259 89.0936C133.657 86.9384 133.857 84.6362 134.823 82.6189C135.444 81.5245 136.468 80.719 137.675 80.3756Z" fill="#11824E"/>
<path d="M136.434 88.1136C136.434 88.1136 135.567 86.7937 134.541 87.4055C133.515 88.0173 134.817 90.4078 135.843 90.4531C136.868 90.4984 136.434 88.1136 136.434 88.1136Z" fill="#F8C6A3"/>
<path d="M142.848 91.2121C142.178 91.1404 141.518 91.0019 140.875 90.7986C140.368 90.5607 140.661 91.484 141.771 91.7333C142.882 91.9825 142.848 91.2121 142.848 91.2121Z" fill="#231B30"/>
<path d="M143.406 85.4964C143.825 85.3767 144.274 85.4191 144.663 85.6154L143.406 85.4964Z" fill="#11824E"/>
<path d="M141.067 94.2712L139.027 99.3695C139.027 99.3695 137.421 99.8793 134.519 97.2849C134.519 97.2849 136.773 93.4895 135.646 90.4249C135.798 90.4777 135.965 90.4681 136.111 90.3981C136.256 90.3282 136.369 90.2035 136.423 90.051C136.58 91.191 137.132 92.2389 137.981 93.0107C138.831 93.7825 139.923 94.2288 141.067 94.2712Z" fill="#F9AF92"/>
<path d="M170.515 118.21V118.901H165.668L165.037 117.768C166.403 117.393 167.842 117.369 169.219 117.701C169.56 117.81 169.883 117.971 170.177 118.176C170.227 118.136 170.29 118.117 170.353 118.124C170.416 118.13 170.475 118.161 170.515 118.21Z" fill="#F9AF92"/>
<path d="M164.479 118.42C164.627 118.656 164.837 118.847 165.085 118.971C165.334 119.096 165.611 119.15 165.888 119.128C166.354 119.072 166.825 119.072 167.291 119.128C167.291 119.128 167.477 118.856 167.015 118.748C166.553 118.641 165.82 118.25 165.798 117.95L167.083 117.751C167.398 117.776 167.709 117.842 168.007 117.95C168.283 118.086 168.351 118.573 168.672 118.856C168.993 119.139 169.179 119.02 169.179 119.02C169.094 118.667 168.964 118.326 168.791 118.006C168.688 117.913 168.579 117.828 168.464 117.751C168.603 117.765 168.738 117.806 168.861 117.873C168.984 117.94 169.093 118.032 169.179 118.142C169.29 118.37 169.375 118.61 169.433 118.856C169.484 118.981 169.687 119.202 169.895 119.128C169.895 119.128 169.709 118.278 169.642 117.95C169.75 118.314 169.88 118.672 170.03 119.02C170.188 119.185 170.307 119.02 170.239 118.142C170.342 118.366 170.396 118.609 170.397 118.856C170.397 118.856 170.65 119.026 170.673 118.748C170.695 118.471 170.746 117.95 170.194 117.95C170.194 117.95 169.867 117.31 169.388 117.531C169.029 117.329 168.651 117.162 168.261 117.032C167.954 116.985 167.643 116.985 167.336 117.032C167.336 117.032 163.583 116.958 164.479 118.42Z" fill="#F8C6A3"/>
<path d="M135.098 94.2713C135.098 94.2713 137.786 96.4182 140.897 95.6931C140.897 95.6931 141.703 95.965 140.542 98.837C140.542 98.837 137.251 101.029 133.926 97.4378C133.926 97.4492 134.27 93.7501 135.098 94.2713Z" fill="#FFD249"/>
<path d="M134.394 90.759C135.595 92.3961 137.545 91.7446 137.545 89.3145C137.545 86.8843 137.951 85.0376 138.672 84.5165C139.393 83.9953 145.148 84.5165 145.863 84.5165C146.579 84.5165 146.585 81.8257 144.28 79.6561C142.132 77.6395 136.282 77.3902 133.927 80.5568C131.379 83.9953 132.388 88.0399 134.394 90.759Z" fill="#FFD249"/>
<path d="M137.364 85.4285C136.553 84.9074 138.018 83.3269 139.055 83.089C140.092 82.8511 145.311 83.0267 146.258 83.089C147.205 83.1513 146.359 84.6185 146.957 84.9074C147.554 85.1963 148.157 85.5022 147.199 85.9497C146.241 86.3972 139.038 86.5105 137.364 85.4285Z" fill="#624889"/>
<path d="M137.128 129.795L137.663 127.942C137.855 127.325 138.001 126.702 138.137 126.073C138.272 125.444 138.447 124.832 138.565 124.198L138.915 122.306C139.044 121.677 139.1 121.037 139.202 120.402C139.303 119.768 139.394 119.139 139.45 118.499L139.653 116.584L139.788 114.67C139.844 114.03 139.856 113.389 139.884 112.749C139.912 112.109 139.946 111.463 139.952 110.823C139.957 110.183 139.985 109.543 139.952 108.903C139.918 108.263 139.952 107.617 139.952 106.977C139.912 105.691 139.873 104.411 139.799 103.131C139.726 101.85 139.613 100.565 139.484 99.29V99.2617C139.717 98.7239 139.914 98.1714 140.076 97.6076C140.155 97.325 140.215 97.0373 140.256 96.7465C140.267 96.6014 140.267 96.4555 140.256 96.3104C140.251 96.1633 140.216 96.0188 140.154 95.8855C140.228 96.0144 140.274 96.1571 140.29 96.3047C140.301 96.4536 140.301 96.6032 140.29 96.7522C140.266 97.0475 140.223 97.3408 140.16 97.6302C140.024 98.2073 139.85 98.7749 139.642 99.3296V99.273C139.844 100.548 139.98 101.833 140.092 103.114C140.154 103.759 140.188 104.4 140.239 105.045C140.29 105.691 140.301 106.331 140.329 106.977C140.357 107.623 140.357 108.263 140.369 108.909C140.38 109.554 140.369 110.2 140.369 110.846C140.369 111.492 140.369 112.132 140.318 112.778C140.267 113.423 140.273 114.069 140.211 114.709L140.053 116.641L139.833 118.561C139.766 119.202 139.658 119.842 139.551 120.476C139.444 121.111 139.36 121.751 139.208 122.379L138.802 124.271C138.661 124.9 138.475 125.523 138.3 126.141C138.125 126.758 137.956 127.381 137.737 127.987L137.128 129.795Z" fill="#D1810F"/>
<path d="M127.525 100.672C131.165 99.5392 129.999 117.457 129.999 117.457C129.999 117.457 145.689 117.689 146.287 118.414C146.884 119.139 146.179 121.365 146.179 121.365C146.179 121.365 126.674 127.03 124.476 124.764C122.278 122.498 121.934 102.423 127.525 100.672Z" fill="#FFD249"/>
<path d="M145.237 119.762C145.316 120.606 147.03 120.521 147.03 120.521C147.03 120.521 148.005 120.68 148.518 120.703C148.518 120.703 148.467 121.326 148.749 121.365C149.03 121.405 149.149 120.363 149.149 120.363C149.149 120.363 149.656 121.445 149.864 121.365C150.073 121.286 150.028 120.198 150.028 120.198C150.028 120.198 150.625 120.198 150.665 120.363C150.727 120.58 150.81 120.79 150.913 120.992C151.037 121.246 151.183 121.45 151.307 121.371C151.544 121.207 151.426 119.921 151.426 119.921C151.571 119.919 151.717 119.932 151.86 119.961C151.978 120 152.265 120.924 152.66 120.363C152.633 120.074 152.548 119.794 152.41 119.539C152.273 119.284 152.085 119.059 151.86 118.879C151.064 118.465 150.198 118.206 149.307 118.114C148.289 118.049 147.267 118.158 146.286 118.437C145.993 118.573 145.153 118.896 145.237 119.762Z" fill="#F8C6A3"/>
<path d="M149.15 120.329C149.15 120.329 149.274 119.672 148.947 119.553C148.644 119.46 148.335 119.39 148.022 119.343C148.403 119.348 148.782 119.399 149.15 119.496C149.584 119.649 149.431 120.901 149.431 120.901L149.15 120.329Z" fill="#F9AF92"/>
<path d="M149.307 119.06C149.516 119.111 149.71 119.215 149.87 119.36C149.974 119.62 150.03 119.896 150.034 120.176C150.034 120.176 150.631 120.176 150.671 120.34C150.733 120.557 150.816 120.768 150.919 120.969C150.895 120.482 150.776 120.005 150.569 119.564C150.287 119.128 149.448 119.066 149.307 119.06Z" fill="#F9AF92"/>
<path d="M150.665 119.054C150.665 119.054 151.341 119.473 151.426 119.898C151.572 119.896 151.717 119.91 151.86 119.938C151.764 119.692 151.601 119.478 151.39 119.322C151.178 119.165 150.927 119.073 150.665 119.054Z" fill="#F9AF92"/>
<path d="M145.238 119.762C145.317 120.606 147.03 120.522 147.03 120.522C147.03 120.522 148.006 120.68 148.518 120.703C148.592 120.459 148.434 120.357 148.411 120.136C148.411 120.136 147.69 120.136 147.549 120.012C147.224 120.08 146.886 120.055 146.574 119.938C146.281 119.762 145.717 120.442 145.238 119.762Z" fill="#F9AF92"/>
<path d="M176.331 151.638C174.956 167.42 165.172 180.086 156.442 180.086H128.657C125.625 180.086 125.518 176.234 125.518 176.234H146.635C152.271 176.234 155.253 166.927 155.253 139.697C155.253 131.438 158.071 127.636 161.244 125.977C165.324 123.847 169.979 125.252 169.979 125.252C170.686 126.385 171.326 127.518 171.901 128.65C175.502 135.741 177.038 143.709 176.331 151.638Z" fill="#FFD249"/>
<path d="M175.543 153.57L169.422 154.963L167.517 155.399C169.061 142.784 165.826 126.605 165.826 126.605H169.8C175.802 137.776 175.543 153.57 175.543 153.57Z" fill="#FFE668"/>
<path d="M169.422 154.963L167.517 155.399C169.061 142.784 165.826 126.605 165.826 126.605C165.826 126.605 171.31 139.515 169.422 154.963Z" fill="#EBA22F"/>
<path d="M171.902 128.667C168.146 129.075 164.369 128.127 161.244 125.994C165.325 123.864 169.98 125.268 169.98 125.268C170.686 126.39 171.327 127.523 171.902 128.667Z" fill="#EBA22F"/>
<path d="M176.331 151.638C174.956 167.42 165.172 180.086 156.442 180.086H147.565C153.985 180.086 157.817 170.059 159.897 163.335C161.83 157.082 168.672 148.873 176.331 151.638Z" fill="#EBA22F"/>
<path d="M152.198 118.777L157.541 117.559C157.541 117.559 166.045 114.064 171.676 114.064C177.306 114.064 179.431 124.742 172.916 127.178C166.4 129.613 156.222 123.354 156.222 123.354L152.198 122.872C151.903 122.257 151.749 121.584 151.747 120.901C151.747 119.06 152.198 118.777 152.198 118.777Z" fill="#FFE668"/>
<path d="M176.664 120.369C176.664 123.28 174.973 125.642 172.916 125.642C170.859 125.642 169.174 123.28 169.174 120.369C169.174 117.457 170.865 115.095 172.916 115.095C174.968 115.095 176.664 117.457 176.664 120.369Z" fill="#3E2D51"/>
<path d="M176.663 120.369C176.663 122.787 175.271 124.747 173.552 124.747C171.833 124.747 170.441 122.787 170.441 120.369C170.441 117.95 171.833 115.99 173.552 115.99C175.271 115.99 176.663 117.95 176.663 120.369Z" fill="#BBDEFB"/>
<path d="M152.311 122.187L145.965 122.753C145.685 122.431 145.504 122.035 145.443 121.612C145.382 121.189 145.444 120.757 145.621 120.369L152.311 119.462C152.311 119.462 153.348 121.15 152.311 122.187Z" fill="#3E2D51"/>
<path d="M145.965 122.753C145.685 122.431 145.504 122.035 145.443 121.612C145.382 121.189 145.444 120.757 145.621 120.369C145.938 120.669 146.144 121.068 146.206 121.501C146.269 121.934 146.184 122.375 145.965 122.753Z" fill="#624889"/>
<path d="M183.477 155.399C186.893 158.232 182.581 164.865 180.028 167.862L172.589 159.364L183.477 155.399Z" fill="#EBA22F"/>
<path d="M186.403 172.977C186.403 183.054 181.116 191.229 174.595 191.229C168.075 191.229 162.788 183.054 162.788 172.977C162.788 162.899 168.075 154.725 174.595 154.725C181.116 154.725 186.403 162.894 186.403 172.977Z" fill="#3E2D51"/>
<path d="M177.628 172.977C177.628 178.013 174.984 182.103 171.721 182.103C168.458 182.103 165.82 178.013 165.82 172.977C165.82 167.941 168.464 163.845 171.721 163.845C174.979 163.845 177.628 167.912 177.628 172.977Z" fill="#5A9BDB"/>
<path d="M160.533 174.042H168.491C171.72 174.042 176.381 158.991 182.181 158.991C187.98 158.991 182.665 151.876 173.834 151.876C165.002 151.876 160.533 162.962 160.533 174.042Z" fill="#FFE668"/>
<path d="M64.5594 94.7526C65.0328 94.4637 73.436 88.1136 65.1737 63.1095L52.9268 59.3821L50.03 60.3451L39.1357 70.4793L39.5246 71.6632C47.7136 96.6956 60.8228 95.8232 61.3807 95.7723H61.6851L64.5594 94.7526Z" fill="#0ECCC6"/>
<path d="M43.8701 70.196C51.6928 94.0898 63.996 92.9965 63.996 92.9965C63.996 92.9965 74.5295 86.499 66.6392 62.6279L53.5526 61.2344L43.8701 70.196Z" fill="#4677BC"/>
<g style="mix-blend-mode:overlay" opacity="0.25">
<path d="M43.8701 70.196C51.6928 94.0898 63.996 92.9965 63.996 92.9965C60.8568 76.2855 53.5526 61.2344 53.5526 61.2344L43.8701 70.196Z" fill="white"/>
</g>
<path d="M118.698 53.2812C117.745 46.4382 113.146 41.3853 108.322 41.7818L106.248 42.0764V42.303C102.241 44.0024 99.8173 49.6161 100.68 55.8303C101.542 62.0446 105.419 66.7633 109.737 67.2958L109.765 67.5223L111.844 67.2278C116.612 66.2364 119.65 60.1242 118.698 53.2812Z" fill="#D1810F"/>
<path d="M117.012 53.5192C117.993 60.5435 114.758 66.8087 109.787 67.5111C104.816 68.2135 99.9977 63.0813 99.017 56.0514C98.0364 49.0214 101.271 42.7619 106.242 42.0652C111.213 41.3684 116.032 46.4893 117.012 53.5192Z" fill="#EBA22F"/>
<path d="M116.038 53.655C116.911 59.9202 114.026 65.5056 109.596 66.1174C105.166 66.7292 100.866 62.1521 100.015 55.9209C99.1639 49.6897 102.027 44.0703 106.457 43.4585C110.887 42.8467 115.164 47.3898 116.038 53.655Z" fill="#FFE668"/>
<path d="M109.867 51.9385C109.8 51.8789 109.726 51.8276 109.647 51.7856C109.495 51.6878 109.337 51.6007 109.173 51.525C108.973 51.4298 108.765 51.3484 108.554 51.2814C108.336 51.2108 108.111 51.167 107.883 51.1511L108.193 53.366L108.582 53.4453C108.966 53.5319 109.342 53.6474 109.709 53.7909C110.039 53.9217 110.341 54.1139 110.599 54.3573C110.868 54.6118 111.086 54.9156 111.242 55.2524C111.43 55.679 111.553 56.1316 111.608 56.5949C111.699 57.1273 111.699 57.6713 111.608 58.2037C111.527 58.6084 111.368 58.9932 111.14 59.3366C110.93 59.6421 110.657 59.899 110.34 60.09C110.025 60.2774 109.68 60.4095 109.32 60.4809L109.585 62.3673L108.79 62.4806L108.525 60.5772C107.972 60.5852 107.421 60.5068 106.891 60.345C106.346 60.177 105.831 59.9247 105.364 59.5972L105.865 57.1557C105.953 57.2423 106.05 57.3201 106.153 57.388C106.333 57.5071 106.521 57.6131 106.716 57.7052C106.963 57.8198 107.217 57.9163 107.477 57.9941C107.749 58.0828 108.031 58.1361 108.317 58.1527L108.018 55.9888L107.455 55.8358C107.092 55.7408 106.739 55.6118 106.401 55.4506C106.113 55.3074 105.852 55.1158 105.628 54.8842C105.405 54.6515 105.227 54.3786 105.104 54.0798C104.956 53.7171 104.858 53.336 104.811 52.9468C104.732 52.4401 104.732 51.9241 104.811 51.4174C104.874 50.9931 105.01 50.583 105.211 50.2051C105.387 49.8707 105.633 49.5788 105.933 49.3497C106.225 49.1235 106.558 48.9561 106.913 48.8569L106.688 47.2141L107.477 47.1008L107.708 48.7436C108.211 48.7371 108.711 48.8295 109.179 49.0155C109.61 49.1835 110.026 49.3862 110.425 49.6216L109.867 51.9385ZM106.66 52.2387C106.679 52.4726 106.781 52.6919 106.947 52.8562C107.142 53.0138 107.369 53.126 107.612 53.1847L107.331 51.1851C107.215 51.2047 107.105 51.2484 107.007 51.3134C106.909 51.3784 106.826 51.4633 106.763 51.5625C106.7 51.6618 106.658 51.7732 106.64 51.8897C106.622 52.0061 106.629 52.125 106.66 52.2387ZM109.613 57.0991C109.604 56.977 109.569 56.8583 109.511 56.7509C109.453 56.6434 109.372 56.5497 109.275 56.4759C109.061 56.3238 108.823 56.2089 108.57 56.1361L108.847 58.0847C109.433 57.9714 109.686 57.6429 109.613 57.0991Z" fill="#EBA22F"/>
<path d="M167.804 68.8138L200.171 58.2378C200.785 58.0393 201.451 58.0929 202.026 58.3869C202.6 58.6809 203.036 59.1914 203.237 59.8069L209.814 80.1433C210.011 80.7593 209.958 81.4288 209.665 82.0052C209.373 82.5817 208.865 83.0182 208.253 83.2192L175.88 93.7953C175.577 93.8942 175.257 93.9322 174.939 93.9069C174.621 93.8816 174.311 93.7935 174.027 93.6478C173.743 93.5021 173.49 93.3016 173.283 93.0576C173.076 92.8137 172.918 92.5312 172.82 92.2261L166.243 71.8955C166.044 71.2787 166.096 70.6078 166.389 70.03C166.682 69.4523 167.191 69.0148 167.804 68.8138Z" fill="#0ECCC6"/>
<path d="M207.589 73.4451L170.635 85.5654L172.205 90.4034L209.16 78.283L207.589 73.4451Z" fill="#624889"/>
<path d="M195.313 62.3901C195.842 62.2207 196.41 62.2126 196.944 62.3668C197.478 62.5209 197.955 62.8305 198.315 63.2564C198.675 63.6823 198.901 64.2057 198.966 64.7606C199.03 65.3155 198.93 65.8771 198.677 66.3749C198.425 66.8727 198.032 67.2844 197.547 67.5582C197.063 67.8319 196.509 67.9556 195.954 67.9135C195.4 67.8715 194.871 67.6656 194.433 67.3218C193.994 66.978 193.667 66.5117 193.492 65.9815C193.375 65.6256 193.329 65.2499 193.357 64.876C193.385 64.5021 193.486 64.1375 193.656 63.8035C193.825 63.4694 194.059 63.1724 194.343 62.9298C194.628 62.6871 194.957 62.5037 195.313 62.3901Z" fill="#EB4E63"/>
<path d="M198.035 61.5065C198.564 61.3376 199.132 61.3297 199.666 61.484C200.2 61.6382 200.676 61.9476 201.036 62.3733C201.395 62.799 201.621 63.322 201.686 63.8766C201.751 64.4312 201.651 64.9926 201.399 65.4903C201.147 65.988 200.755 66.3997 200.271 66.6738C199.787 66.9479 199.233 67.0721 198.679 67.0307C198.125 66.9894 197.595 66.7844 197.157 66.4415C196.718 66.0986 196.391 65.6332 196.215 65.1036C196.096 64.7474 196.049 64.371 196.077 63.9965C196.105 63.622 196.206 63.2567 196.376 62.922C196.545 62.5873 196.779 62.2897 197.064 62.0467C197.349 61.8037 197.679 61.6201 198.035 61.5065Z" fill="#FFE668"/>
<g style="mix-blend-mode:overlay" opacity="0.25">
<path d="M167.804 68.8138L187.986 62.2144L189.835 89.2294L175.858 93.7952C175.554 93.8942 175.234 93.9321 174.916 93.9068C174.598 93.8815 174.288 93.7934 174.004 93.6477C173.72 93.502 173.467 93.3015 173.26 93.0575C173.053 92.8136 172.896 92.5311 172.797 92.2261L166.243 71.8954C166.044 71.2786 166.096 70.6077 166.389 70.0299C166.682 69.4522 167.191 69.0148 167.804 68.8138Z" fill="white"/>
</g>
</svg>
