<svg width="640" height="640" viewBox="0 0 640 640" fill="none" xmlns="http://www.w3.org/2000/svg">
<g clip-path="url(#clip0_2670_27365)">
<path d="M96.1664 312.589C-27.4432 383.962 -27.4432 499.674 96.1664 571.034C219.776 642.394 420.199 642.406 543.821 571.034C667.443 499.661 667.431 383.962 543.821 312.589C420.211 241.216 219.789 241.229 96.1664 312.589Z" fill="#F5F5F5"/>
<path d="M353.079 562.262C353.327 562.346 353.541 562.506 353.693 562.719C353.846 562.931 353.927 563.186 353.927 563.448C353.927 563.709 353.846 563.964 353.693 564.177C353.541 564.389 353.327 564.549 353.079 564.634L279.406 607.258C278.767 607.584 278.061 607.753 277.344 607.753C276.627 607.753 275.921 607.584 275.282 607.258L197.013 562.033C195.868 561.386 195.868 560.321 197.013 559.661L270.687 517.036C271.323 516.711 272.027 516.541 272.742 516.541C273.456 516.541 274.161 516.711 274.797 517.036L353.079 562.262Z" fill="#E0E0E0"/>
<path d="M584.76 414.578C617.604 414.578 644.23 399.205 644.23 380.241C644.23 361.277 617.604 345.904 584.76 345.904C551.915 345.904 525.29 361.277 525.29 380.241C525.29 399.205 551.915 414.578 584.76 414.578Z" fill="#E0E0E0"/>
<path d="M646.029 469.998L295.193 267.493C292.153 265.958 288.795 265.158 285.389 265.158C281.984 265.158 278.626 265.958 275.585 267.493L105.315 365.801C97.9979 370.019 97.9844 376.946 105.315 381.164L453.806 582.334C456.488 583.694 459.452 584.402 462.458 584.402C465.464 584.402 468.428 583.694 471.11 582.334L646.029 481.331C651.419 478.218 651.419 473.124 646.029 469.998Z" fill="#E0E0E0"/>
<path d="M122.342 548.772L173.39 519.3L123.056 490.246L72.0091 519.718L122.342 548.772Z" fill="#E0E0E0"/>
<path d="M68.6536 517.724L162.07 463.887L113.974 436.14L20.544 489.976L68.6536 517.724Z" fill="#E0E0E0"/>
<path d="M191.582 526.106L257.696 487.941L192.512 450.303L126.399 488.481L191.582 526.106Z" fill="#E0E0E0"/>
<path d="M475.199 212.558C475.199 212.558 474.809 219.606 480.051 223.527L485.549 221.87C485.549 221.87 481.87 220.105 480.051 212.558H475.199Z" fill="#455A64"/>
<path d="M429.704 159.934C429.704 159.934 436.052 156.821 436.901 150.339L432.75 146.364C432.75 146.364 433.019 150.406 427.359 155.716L429.704 159.934Z" fill="#455A64"/>
<path d="M632.748 41.843C632.748 41.843 629.554 48.1363 623.045 48.9044L619.137 44.7134C619.137 44.7134 623.18 45.0233 628.571 39.4038L632.748 41.843Z" fill="#455A64"/>
<path d="M622.749 258.754C622.749 258.754 619.542 265.047 613.046 265.815L609.138 261.624C609.138 261.624 613.181 261.934 618.571 256.315L622.749 258.754Z" fill="#455A64"/>
<path d="M43.0355 288.024C43.0355 288.024 46.2293 294.331 52.7248 295.099L56.6463 290.908C56.6463 290.908 52.6035 291.218 47.2131 285.598L43.0355 288.024Z" fill="#455A64"/>
<path d="M193.496 75.0885C193.496 75.0885 196.69 81.3818 203.185 82.15L207.107 77.9589C207.107 77.9589 202.309 78.7001 196.946 73.0806L193.496 75.0885Z" fill="#455A64"/>
<path d="M122.1 103.402C122.1 103.402 117.76 108.967 119.822 115.18L125.213 116.945C124.052 113.278 124.09 109.337 125.32 105.693L122.1 103.402Z" fill="#37474F"/>
<path d="M371.501 38.5417C371.501 38.5417 370.248 45.4953 364.251 48.0962L359.292 45.2123C362.796 43.6192 365.706 40.9589 367.607 37.6118L371.501 38.5417Z" fill="#37474F"/>
<path d="M573.588 19.5944C573.588 19.5944 566.581 20.4703 562.322 15.5515L563.602 9.95898C563.602 9.95898 565.61 13.5032 573.265 14.7969L573.588 19.5944Z" fill="url(#paint0_linear_2670_27365)"/>
<path d="M325.736 12.371C325.736 12.371 318.729 13.2469 314.457 8.32816L315.805 2.7356C315.805 2.7356 317.813 6.26632 325.467 7.5735L325.736 12.371Z" fill="url(#paint1_linear_2670_27365)"/>
<path d="M641.346 133.656C641.346 133.656 634.338 134.532 630.066 129.613L631.414 124.02C631.414 124.02 633.422 127.564 641.076 128.858L641.346 133.656Z" fill="url(#paint2_linear_2670_27365)"/>
<path d="M127.638 52.0717C127.638 52.0717 134.646 52.9476 138.918 48.0289L137.57 42.4363C137.57 42.4363 135.562 45.9805 127.908 47.2742L127.638 52.0717Z" fill="url(#paint3_linear_2670_27365)"/>
<path d="M297.329 73.2424C297.329 73.2424 304.336 74.1049 308.608 69.1996L307.328 63.5801C307.328 63.5801 305.32 67.1243 297.666 68.4315L297.329 73.2424Z" fill="url(#paint4_linear_2670_27365)"/>
<path d="M161.059 161.686C161.059 161.686 168.08 162.548 172.338 157.643L170.991 152.051C170.991 152.051 168.983 155.595 161.328 156.902L161.059 161.686Z" fill="url(#paint5_linear_2670_27365)"/>
<path d="M34.586 96.5695C34.586 96.5695 41.5936 97.4454 45.852 92.5267L44.5718 86.9341C44.5718 86.9341 42.5639 90.4783 34.9095 91.7855L34.586 96.5695Z" fill="url(#paint6_linear_2670_27365)"/>
<path d="M627.519 178.127C635.308 173.396 644.081 188.328 639.5 194.513C639.234 194.91 638.89 195.248 638.489 195.508C638.088 195.767 637.639 195.943 637.168 196.023C636.49 196.02 635.824 195.847 635.231 195.52C634.638 195.193 634.136 194.721 633.772 194.15C632.735 191.239 638.893 191.454 640.092 191.98C641.748 192.65 643.148 193.828 644.092 195.343C645.036 196.859 645.476 198.635 645.348 200.416C644.715 205.941 639.028 210.24 633.853 211.062C633.584 211.062 633.853 211.507 634.015 211.493C639.985 211.17 646.534 205.847 646.561 199.527C646.561 194.46 638.583 186.899 633.867 191.441C629.473 195.726 636.926 198.866 640.106 195.484C643.286 192.101 641.063 186.131 639.217 182.816C636.872 178.639 631.966 174.259 627.25 177.803C627.102 177.924 627.358 178.234 627.519 178.14V178.127Z" fill="url(#paint7_linear_2670_27365)"/>
<path d="M214.263 4.1505C221.081 3.47669 230.272 14.8505 223.615 20.3218C219.922 23.3539 211.837 22.0332 211.931 16.4137C211.954 16.2581 212.024 16.1135 212.133 15.9999C212.242 15.8864 212.383 15.8096 212.538 15.7803C217.928 14.554 223.197 16.8584 222.294 23.0978C221.81 25.7755 220.432 28.21 218.386 30.004C216.34 31.798 213.746 32.8456 211.028 32.9758C210.705 32.9758 210.813 32.4098 211.028 32.3559C215.691 31.3722 220.098 28.4748 221.014 23.4886C221.223 22.606 221.241 21.6888 221.067 20.7986C220.893 19.9084 220.53 19.0658 220.003 18.3273C219.37 17.557 218.52 16.9939 217.564 16.7102C216.769 16.4541 213.899 15.996 213.265 16.7102C211.999 18.0578 215.421 20.214 216.446 20.5643C217.451 20.9298 218.525 21.0674 219.59 20.9672C220.655 20.867 221.685 20.5315 222.604 19.9849C225.434 18.0039 224.733 14.271 223.359 11.6297C221.513 8.07203 218.265 5.1612 214.101 5.01296C213.723 5.01296 213.926 4.29873 214.222 4.27178L214.263 4.1505Z" fill="url(#paint8_linear_2670_27365)"/>
<path d="M502.987 28.7714C496.168 29.4452 486.964 18.0849 493.621 12.6001C497.314 9.568 505.386 10.8752 505.305 16.5486C505.286 16.7058 505.217 16.8526 505.108 16.9669C504.998 17.0812 504.855 17.1567 504.699 17.182C499.308 18.4083 494.052 16.1174 494.955 9.86448C495.44 7.18819 496.818 4.75546 498.865 2.96372C500.911 1.17199 503.504 0.127182 506.221 0C506.545 0 506.424 0.55252 506.221 0.606424C501.559 1.59018 497.152 4.48753 496.249 9.47367C496.041 10.3556 496.023 11.2716 496.195 12.1612C496.367 13.0508 496.725 13.8939 497.246 14.635C497.879 15.409 498.728 15.9767 499.685 16.2656C500.481 16.5217 503.364 16.9664 503.998 16.2656C505.265 14.918 501.828 12.7618 500.817 12.4115C499.811 12.048 498.737 11.9126 497.671 12.0152C496.606 12.1177 495.577 12.4556 494.659 13.0044C491.829 14.9719 492.53 18.7048 493.904 21.3461C495.737 24.9172 498.985 27.8281 503.149 27.9628C503.526 27.9628 503.337 28.6771 503.041 28.704L502.987 28.7714Z" fill="url(#paint9_linear_2670_27365)"/>
<path d="M68.5188 13.5839C73.3701 16.2791 76.0923 26.6018 70.2976 29.6474C65.3788 32.2483 57.2662 29.5261 60.1905 23.098C60.2215 23.0246 60.2716 22.9609 60.3356 22.9135C60.3996 22.8661 60.4752 22.8367 60.5544 22.8285C66.3087 22.8285 66.6456 29.5665 64.5298 33.5015C61.2417 39.6197 54.6654 38.016 50.7034 33.5015C50.5686 33.3533 50.7034 32.9221 50.946 33.0838C54.3824 35.9407 59.4359 38.9189 62.9666 34.4988C64.8533 32.1405 65.9044 27.7607 63.9234 25.0655C63.4275 24.3243 62.6648 23.803 61.7942 23.6101C59.9345 23.408 59.7863 25.4428 60.5274 26.9252C61.6999 29.2835 65.0285 29.836 67.3868 29.6204C75.4724 28.7041 72.5885 17.8019 68.3436 13.9478C68.2088 13.84 68.3436 13.4626 68.5188 13.5704V13.5839Z" fill="url(#paint10_linear_2670_27365)"/>
<path d="M30.934 205.753C23.1718 210.591 32.6051 225.145 40.1921 223.824C40.6619 223.772 41.1165 223.626 41.5287 223.395C41.9408 223.163 42.3021 222.851 42.5908 222.477C42.9011 221.864 43.0504 221.183 43.0244 220.497C42.9985 219.811 42.7983 219.142 42.4426 218.555C40.2999 216.318 37.6855 221.897 37.6586 223.218C37.515 224.998 37.9383 226.778 38.8678 228.303C39.7973 229.828 41.1854 231.02 42.8334 231.708C48.0486 233.621 54.4498 230.468 57.5223 226.209C57.684 225.994 57.9266 226.385 57.8322 226.56C54.854 231.735 47.1592 235.211 41.4993 232.395C36.9578 230.144 33.8044 219.593 40.0169 217.437C45.8116 215.429 45.2726 223.501 40.7715 224.808C36.2705 226.115 31.9852 221.452 29.8559 218.313C27.1607 214.351 25.4762 208.003 30.7454 205.376C30.9205 205.295 31.0823 205.672 30.934 205.766V205.753Z" fill="url(#paint11_linear_2670_27365)"/>
<path d="M299.869 251.982L634.157 445C642.754 449.959 642.66 455.605 642.66 460.659C642.66 465.712 640.382 472.787 634.157 476.331L474.762 568.359C468.536 571.944 458.442 571.944 452.216 568.359L117.915 375.355C111.689 371.757 110.275 365.733 110.275 360.68C110.275 355.626 111.622 347.608 117.915 344.023L277.324 251.982C280.701 249.86 284.608 248.734 288.597 248.734C292.585 248.734 296.492 249.86 299.869 251.982Z" fill="#37474F"/>
<path d="M291.608 258.949L127.726 353.578L463.482 547.363V571.054C459.559 571.129 455.681 570.202 452.216 568.359L117.915 375.355C111.689 371.757 110.274 365.733 110.274 360.68C110.274 355.626 111.622 347.608 117.915 344.023L277.324 251.982C281.589 249.344 286.644 248.285 291.608 248.99V258.949Z" fill="#263238"/>
<path d="M631.205 446.334L297.498 253.626C294.717 252.22 291.645 251.488 288.529 251.488C285.413 251.488 282.341 252.22 279.561 253.626L124.02 343.498C117.282 347.352 117.282 353.686 124.02 357.54L455.585 548.981C458.037 550.222 460.747 550.869 463.496 550.869C466.244 550.869 468.954 550.222 471.406 548.981L631.205 456.683C636.191 453.84 636.191 449.177 631.205 446.334Z" fill="#455A64"/>
<path d="M308.305 268.881L618.255 447.83C622.944 450.525 622.958 454.959 618.255 457.667L474.155 540.868C471.519 542.21 468.603 542.91 465.645 542.91C462.687 542.91 459.771 542.21 457.135 540.868L144.908 360.599C141.108 358.403 140.353 355.087 142.765 352.513C142.954 352.311 143.129 352.123 143.345 351.921C143.833 351.512 144.356 351.147 144.908 350.829L185.444 327.421L188.139 325.898C188.958 325.483 189.863 325.266 190.78 325.266C191.698 325.266 192.603 325.483 193.422 325.898C194.279 326.309 195.22 326.514 196.17 326.495C197.12 326.476 198.053 326.235 198.893 325.79L246.127 298.515C247.676 297.625 247.771 296.21 246.315 295.375C244.86 294.539 244.86 293.327 246.046 292.478C246.123 292.411 246.209 292.357 246.302 292.316L285.962 269.407L286.797 268.921C292.686 265.458 302.389 265.458 308.305 268.881Z" fill="#FAFAFA"/>
<path d="M197.114 316.465L218.838 303.959C219.536 303.591 220.31 303.392 221.099 303.378C221.888 303.364 222.669 303.535 223.379 303.878C224.592 304.579 224.525 305.751 223.231 306.493L201.575 318.998C200.879 319.366 200.107 319.565 199.321 319.579C198.534 319.593 197.755 319.422 197.047 319.079C195.767 318.378 195.821 317.206 197.114 316.465Z" fill="#263238"/>
<path d="M228.999 297.032C229.816 296.62 230.718 296.406 231.633 296.406C232.548 296.406 233.451 296.62 234.268 297.032C234.588 297.138 234.867 297.342 235.065 297.616C235.262 297.889 235.369 298.218 235.369 298.555C235.369 298.893 235.262 299.221 235.065 299.495C234.867 299.768 234.588 299.972 234.268 300.078C233.451 300.49 232.548 300.705 231.633 300.705C230.718 300.705 229.816 300.49 228.999 300.078C228.678 299.972 228.399 299.768 228.202 299.495C228.004 299.221 227.898 298.893 227.898 298.555C227.898 298.218 228.004 297.889 228.202 297.616C228.399 297.342 228.678 297.138 228.999 297.032Z" fill="#263238"/>
<path d="M209.216 410.999C210.482 411.793 211.543 412.875 212.313 414.155C213.084 415.436 213.541 416.88 213.65 418.371C213.709 418.874 213.625 419.383 213.408 419.841C213.191 420.298 212.85 420.686 212.423 420.958C211.898 421.255 209.876 422.467 209.31 422.777C208.792 422.999 208.225 423.082 207.665 423.018C207.105 422.954 206.571 422.746 206.116 422.413L178.868 406.687C177.602 405.889 176.542 404.805 175.772 403.522C175.001 402.24 174.543 400.794 174.434 399.302C174.387 398.819 174.464 398.332 174.66 397.888C174.856 397.444 175.164 397.059 175.553 396.769C176.105 396.432 178.248 395.219 178.76 394.909C179.28 394.685 179.849 394.6 180.412 394.664C180.975 394.728 181.511 394.938 181.967 395.273L209.216 410.999Z" fill="#455A64"/>
<path d="M206.116 412.778L178.868 397.052C176.415 395.623 174.434 396.634 174.434 399.289C174.543 400.781 175.001 402.227 175.771 403.509C176.542 404.792 177.602 405.876 178.868 406.674L206.116 422.4C208.569 423.815 210.55 422.805 210.55 420.15C210.442 418.659 209.984 417.215 209.214 415.934C208.443 414.654 207.382 413.573 206.116 412.778Z" fill="#37474F"/>
<path d="M161.537 383.454C162.803 384.248 163.865 385.33 164.635 386.61C165.405 387.891 165.863 389.335 165.971 390.826C166.027 391.329 165.943 391.837 165.729 392.296C165.515 392.755 165.179 393.146 164.758 393.427C164.219 393.723 162.198 394.922 161.645 395.232C161.125 395.457 160.556 395.541 159.993 395.477C159.431 395.413 158.894 395.204 158.438 394.869L131.243 379.142C129.975 378.349 128.912 377.268 128.14 375.987C127.367 374.707 126.907 373.262 126.796 371.771C126.751 371.287 126.832 370.799 127.03 370.356C127.229 369.912 127.538 369.527 127.928 369.237C128.467 368.887 130.623 367.674 131.122 367.364C131.645 367.143 132.216 367.06 132.78 367.123C133.344 367.187 133.882 367.395 134.343 367.728L161.537 383.454Z" fill="#455A64"/>
<path d="M158.438 385.247L131.243 369.52C128.791 368.105 126.796 369.116 126.796 371.771C126.907 373.262 127.367 374.707 128.14 375.987C128.912 377.268 129.975 378.349 131.243 379.142L158.438 394.828C160.891 396.243 162.885 395.246 162.885 392.578C162.768 391.093 162.305 389.657 161.533 388.384C160.76 387.11 159.7 386.036 158.438 385.247Z" fill="#37474F"/>
<path d="M290.753 534.097L313.15 546.994L325.993 529.313C326.253 528.962 326.395 528.537 326.397 528.1C326.397 526.874 326.397 517.575 326.397 517.185C326.399 516.873 326.331 516.565 326.197 516.283C326.062 516.002 325.865 515.755 325.621 515.561C325.376 515.368 325.091 515.232 324.787 515.166C324.482 515.099 324.166 515.103 323.863 515.177L290.726 523.114L290.753 534.097Z" fill="url(#paint12_linear_2670_27365)"/>
<path d="M206.042 561.831L275.296 601.814C275.86 602.098 276.483 602.247 277.115 602.247C277.747 602.247 278.37 602.098 278.934 601.814L344.091 564.081C344.615 563.731 345.049 563.264 345.361 562.717C345.672 562.169 345.851 561.557 345.883 560.928V553.57C345.848 552.935 345.664 552.317 345.346 551.767C345.027 551.217 344.583 550.75 344.05 550.403L274.797 510.419C274.231 510.133 273.605 509.984 272.971 509.984C272.336 509.984 271.711 510.133 271.145 510.419L206.002 548.152C205.471 548.496 205.03 548.961 204.716 549.51C204.402 550.059 204.223 550.674 204.196 551.306V558.677C204.234 559.311 204.422 559.927 204.742 560.474C205.063 561.022 205.508 561.487 206.042 561.831Z" fill="url(#paint13_linear_2670_27365)"/>
<path opacity="0.15" d="M205.732 548.341C205.004 548.921 205.099 549.689 206.002 550.255L275.255 590.238C275.814 590.537 276.441 590.685 277.074 590.669V602.245C276.464 602.25 275.861 602.102 275.323 601.814L206.042 561.831C205.508 561.487 205.063 561.022 204.742 560.474C204.422 559.927 204.234 559.311 204.196 558.677V551.306C204.226 550.731 204.379 550.169 204.644 549.658C204.909 549.146 205.28 548.697 205.732 548.341Z" fill="black"/>
<path d="M325.979 518.37L314.888 533.612L344.05 550.443C344.271 550.519 344.462 550.662 344.597 550.851C344.733 551.041 344.806 551.268 344.806 551.501C344.806 551.734 344.733 551.962 344.597 552.151C344.462 552.341 344.271 552.484 344.05 552.559L278.894 590.292C278.329 590.577 277.706 590.725 277.074 590.725C276.443 590.725 275.819 590.577 275.255 590.292L206.002 550.309C205.78 550.237 205.586 550.096 205.449 549.907C205.311 549.719 205.238 549.491 205.238 549.258C205.238 549.024 205.311 548.797 205.449 548.608C205.586 548.419 205.78 548.278 206.002 548.206L271.145 510.473C271.711 510.187 272.337 510.038 272.971 510.038C273.605 510.038 274.231 510.187 274.797 510.473L295.011 522.144L323.85 515.19C324.254 515.097 324.677 515.13 325.063 515.283C325.449 515.436 325.779 515.702 326.009 516.047C326.24 516.392 326.361 516.799 326.356 517.213C326.35 517.628 326.219 518.032 325.979 518.37Z" fill="#FAFAFA"/>
<path d="M272.964 511.228C273.388 511.22 273.809 511.312 274.191 511.498L294.405 523.168L294.822 523.41L295.294 523.289L324.133 516.349C324.204 516.337 324.277 516.337 324.348 516.349C324.504 516.351 324.655 516.396 324.786 516.479C324.917 516.563 325.022 516.681 325.09 516.821C325.164 516.958 325.197 517.113 325.185 517.268C325.173 517.424 325.117 517.573 325.022 517.697L313.931 532.938L313.15 534.016L314.309 534.676L343.458 551.521L278.314 589.254C277.934 589.44 277.517 589.537 277.095 589.537C276.672 589.537 276.255 589.44 275.875 589.254L206.608 549.271L271.751 511.538C272.129 511.355 272.544 511.263 272.964 511.268V511.228ZM272.964 510.069C272.332 510.061 271.707 510.209 271.145 510.5L206.002 548.233C205.78 548.305 205.586 548.446 205.449 548.635C205.311 548.823 205.238 549.051 205.238 549.284C205.238 549.518 205.311 549.745 205.449 549.934C205.586 550.123 205.78 550.264 206.002 550.336L275.255 590.319C275.817 590.611 276.441 590.763 277.074 590.763C277.708 590.763 278.332 590.611 278.894 590.319L344.05 552.586C344.271 552.51 344.462 552.368 344.597 552.178C344.733 551.988 344.806 551.761 344.806 551.528C344.806 551.295 344.733 551.068 344.597 550.878C344.462 550.689 344.271 550.546 344.05 550.47L314.888 533.639L325.979 518.397C326.199 518.093 326.331 517.733 326.361 517.358C326.39 516.984 326.316 516.608 326.146 516.273C325.976 515.937 325.718 515.655 325.398 515.457C325.079 515.259 324.711 515.153 324.335 515.15C324.169 515.13 324.002 515.13 323.836 515.15L294.998 522.103L274.783 510.433C274.217 510.14 273.588 509.992 272.951 510.002L272.964 510.069Z" fill="url(#paint14_linear_2670_27365)"/>
<path d="M283.988 563.758C281.171 565.375 281.171 568.016 283.988 569.633C285.565 570.437 287.311 570.856 289.082 570.856C290.852 570.856 292.598 570.437 294.176 569.633C296.979 568.016 296.979 565.375 294.176 563.758C292.596 562.961 290.851 562.545 289.082 562.545C287.312 562.545 285.567 562.961 283.988 563.758ZM291.871 568.313C291.007 568.751 290.051 568.979 289.082 568.979C288.112 568.979 287.157 568.751 286.292 568.313C285.956 568.196 285.664 567.978 285.458 567.688C285.252 567.398 285.141 567.051 285.141 566.696C285.141 566.34 285.252 565.993 285.458 565.703C285.664 565.413 285.956 565.195 286.292 565.079C287.159 564.64 288.117 564.412 289.088 564.412C290.06 564.412 291.018 564.64 291.885 565.079C292.227 565.19 292.525 565.407 292.736 565.698C292.947 565.99 293.06 566.341 293.058 566.701C293.057 567.06 292.941 567.41 292.728 567.7C292.514 567.99 292.214 568.205 291.871 568.313ZM306.331 550.794C303.528 552.425 303.528 555.052 306.331 556.683C307.911 557.48 309.655 557.895 311.425 557.895C313.194 557.895 314.939 557.48 316.519 556.683C319.322 555.052 319.322 552.425 316.519 550.794C314.934 550.007 313.188 549.602 311.418 549.612C309.649 549.621 307.907 550.044 306.331 550.848V550.794ZM314.255 555.457C313.388 555.895 312.43 556.123 311.459 556.123C310.487 556.123 309.529 555.895 308.662 555.457C308.325 555.344 308.031 555.127 307.823 554.838C307.615 554.549 307.503 554.202 307.503 553.846C307.503 553.49 307.615 553.143 307.823 552.854C308.031 552.565 308.325 552.349 308.662 552.236C309.529 551.798 310.487 551.569 311.459 551.569C312.43 551.569 313.388 551.798 314.255 552.236C314.593 552.349 314.886 552.565 315.094 552.854C315.303 553.143 315.415 553.49 315.415 553.846C315.415 554.202 315.303 554.549 315.094 554.838C314.886 555.127 314.593 555.344 314.255 555.457ZM298.906 539.622L282.532 530.189C282.115 529.976 281.653 529.865 281.185 529.865C280.716 529.865 280.254 529.976 279.837 530.189L243.964 550.902L233.533 546.859C233.184 546.734 232.813 546.68 232.443 546.701C232.073 546.722 231.71 546.817 231.377 546.98L224.989 550.673C224.356 551.036 224.356 551.629 224.989 552.02C225.347 552.199 225.742 552.293 226.142 552.293C226.542 552.293 226.936 552.199 227.294 552.02L232.765 548.853L274.999 565.429C275.346 565.557 275.714 565.612 276.083 565.591C276.452 565.57 276.812 565.474 277.142 565.308L309.013 546.913C309.646 546.535 309.646 545.943 309.013 545.565C308.657 545.386 308.265 545.293 307.867 545.293C307.469 545.293 307.077 545.386 306.722 545.565L275.727 563.434L270.215 561.278L299 541.185C299.62 540.633 299.566 539.973 298.879 539.568L298.906 539.622ZM295.739 540.458L267.547 560.146L246.699 551.966L281.185 532.062L295.739 540.458Z" fill="#37474F"/>
<path d="M203.751 260.034H203.886C204.063 260.017 204.235 259.965 204.392 259.881C204.55 259.798 204.689 259.683 204.801 259.546C204.914 259.408 204.999 259.249 205.05 259.078C205.101 258.908 205.117 258.729 205.099 258.551C203.522 242.38 192.283 232.691 185.72 228.365C175.856 221.856 163.848 218.932 156.517 221.25C156.348 221.304 156.19 221.391 156.054 221.505C155.917 221.62 155.805 221.761 155.723 221.919C155.641 222.078 155.591 222.25 155.576 222.428C155.561 222.606 155.581 222.785 155.635 222.954C155.689 223.124 155.776 223.282 155.891 223.418C156.005 223.555 156.146 223.667 156.304 223.749C156.463 223.831 156.635 223.881 156.813 223.896C156.991 223.911 157.17 223.891 157.339 223.837C163.835 221.775 175.141 224.632 184.292 230.575C190.437 234.618 200.988 243.687 202.457 258.767C202.477 259.101 202.621 259.416 202.86 259.65C203.099 259.884 203.417 260.021 203.751 260.034Z" fill="#455A64"/>
<path d="M59.8806 135.65V199.527L143.244 247.609L145.737 246.167L167.864 227.004L145.804 182.277L62.3737 134.208L59.8806 135.65ZM148.257 221.061C147.442 221.023 146.65 220.782 145.952 220.36C144.406 219.352 143.119 217.993 142.196 216.394C141.274 214.794 140.741 213 140.643 211.156C140.624 210.352 140.804 209.556 141.168 208.838C141.98 208.868 142.77 209.11 143.459 209.539C145.006 210.547 146.294 211.906 147.217 213.505C148.139 215.105 148.671 216.899 148.769 218.743C148.798 219.547 148.622 220.345 148.257 221.061Z" fill="url(#paint15_linear_2670_27365)"/>
<path d="M59.8806 135.65V199.526L143.243 247.609L165.371 228.446L143.243 183.733L59.8806 135.65ZM138.15 212.598C138.15 209.216 140.535 207.841 143.459 209.539C145.006 210.547 146.294 211.906 147.216 213.505C148.139 215.105 148.671 216.899 148.769 218.743C148.769 222.126 146.397 223.5 143.459 221.802C141.913 220.794 140.626 219.435 139.703 217.836C138.781 216.236 138.248 214.442 138.15 212.598Z" fill="url(#paint16_linear_2670_27365)"/>
<g opacity="0.3">
<path opacity="0.3" d="M138.15 212.598C138.248 214.442 138.781 216.236 139.703 217.835C140.626 219.435 141.913 220.794 143.459 221.802C145.588 223.029 147.421 222.651 148.257 221.061C147.442 221.022 146.651 220.781 145.952 220.36C144.407 219.35 143.121 217.991 142.199 216.392C141.277 214.793 140.744 212.999 140.643 211.156C140.623 210.356 140.804 209.564 141.168 208.852C140.802 208.835 140.436 208.894 140.093 209.024C139.75 209.153 139.437 209.352 139.174 209.607C138.811 210.011 138.533 210.484 138.357 210.998C138.181 211.512 138.111 212.056 138.15 212.598Z" fill="black"/>
</g>
<g opacity="0.3">
<path opacity="0.3" d="M59.8806 135.65L62.3737 134.208L145.737 182.277L143.244 183.733L59.8806 135.65Z" fill="white"/>
</g>
<g opacity="0.15">
<path opacity="0.15" d="M143.243 183.733L165.371 228.446L167.864 227.004L145.737 182.277L143.243 183.733Z" fill="black"/>
</g>
<g opacity="0.3">
<path opacity="0.3" d="M165.371 228.446L143.243 247.609L145.737 246.167L167.864 227.004L165.371 228.446Z" fill="black"/>
</g>
<path d="M155.305 237.421C156.599 237.417 157.888 237.258 159.145 236.95C159.322 236.907 159.489 236.83 159.636 236.723C159.784 236.616 159.908 236.481 160.003 236.326C160.099 236.171 160.162 235.999 160.191 235.819C160.219 235.639 160.212 235.455 160.169 235.279C160.127 235.102 160.05 234.935 159.943 234.787C159.836 234.64 159.701 234.515 159.546 234.42C159.391 234.325 159.218 234.262 159.039 234.233C158.859 234.205 158.675 234.212 158.498 234.254C155.898 235.001 153.114 234.769 150.673 233.602C148.232 232.435 146.303 230.413 145.251 227.921C143.904 224.619 143.783 219.835 148.216 216.951C148.369 216.856 148.502 216.732 148.606 216.585C148.711 216.438 148.785 216.272 148.824 216.096C148.863 215.92 148.866 215.738 148.833 215.561C148.801 215.384 148.733 215.215 148.634 215.064C148.539 214.913 148.415 214.782 148.27 214.679C148.124 214.576 147.959 214.503 147.785 214.464C147.61 214.425 147.43 214.421 147.254 214.452C147.079 214.484 146.911 214.55 146.761 214.647C141.249 218.15 140.777 224.376 142.718 228.985C143.741 231.483 145.484 233.619 147.726 235.121C149.967 236.624 152.606 237.424 155.305 237.421Z" fill="#455A64"/>
<path d="M70.055 186.832C68.8488 185.671 67.7939 184.362 66.9151 182.937L68.4783 178.423C69.2591 179.635 70.1622 180.764 71.1735 181.792C72.0301 182.735 73.0198 183.547 74.1113 184.204C75.9081 185.255 76.8065 185.08 76.8065 183.679C76.8013 182.904 76.5247 182.155 76.0249 181.563C75.2489 180.64 74.4067 179.775 73.5049 178.975C72.3926 177.968 71.3355 176.902 70.338 175.782C69.4275 174.708 68.6909 173.498 68.1549 172.197C67.5127 170.666 67.1961 169.019 67.225 167.359C67.1631 166.035 67.4562 164.718 68.074 163.545C68.3232 163.093 68.6821 162.71 69.1177 162.432C69.5533 162.154 70.0516 161.99 70.5671 161.955C72.0359 161.952 73.4721 162.388 74.6907 163.208C75.8715 163.91 76.9699 164.742 77.9654 165.688C79.0374 166.685 79.9914 167.802 80.8089 169.017L79.34 173.625C78.1263 171.749 76.5335 170.147 74.6638 168.922C73.707 168.37 73.0197 168.195 72.5885 168.37C72.1572 168.545 71.9282 168.99 71.9282 169.717C71.9448 170.458 72.2215 171.168 72.7098 171.725C73.4747 172.619 74.3034 173.457 75.1894 174.232C76.335 175.231 77.4153 176.302 78.4236 177.439C79.3343 178.51 80.0751 179.714 80.6202 181.01C81.2639 182.536 81.5807 184.179 81.5501 185.835C81.6086 187.135 81.3202 188.428 80.7146 189.581C80.4527 190.029 80.0847 190.406 79.6429 190.679C79.2011 190.951 78.6991 191.111 78.1811 191.144C76.7401 191.143 75.3323 190.711 74.1382 189.904C72.6481 189.064 71.2752 188.031 70.055 186.832Z" fill="#FAFAFA"/>
<path d="M95.0262 196.454L87.8569 192.33L86.5093 196.616L81.6444 193.799L89.2045 172.103L93.9077 174.798L101.333 205.146L96.3738 202.275L95.0262 196.454ZM93.6786 190.228L91.5089 180.646L89.3393 187.721L93.6786 190.228Z" fill="#FAFAFA"/>
<path d="M102.68 179.919L107.451 182.614V202.828L115.537 207.477V213.312L102.68 205.928V179.919Z" fill="#FAFAFA"/>
<path d="M130.98 216.574V222.261L117.423 214.431V188.422L130.67 196.063V201.75L122.153 196.831V201.211L129.633 205.55V211.048L122.126 206.709V211.466L130.98 216.574Z" fill="#FAFAFA"/>
<path d="M501.997 444.797L408.729 391.041L456.744 363.335L550.025 417.091L501.997 444.797Z" fill="#E0E0E0"/>
<path d="M422.434 392.578L430.789 273.894L443.47 269.272L451.65 261.846L460.005 370.895L422.434 392.578Z" fill="url(#paint17_linear_2670_27365)"/>
<path opacity="0.2" d="M422.434 392.578L430.789 273.894L443.565 269.218L451.65 261.846L460.005 370.895L422.434 392.578Z" fill="black"/>
<path opacity="0.2" d="M443.565 269.218V380.396L460.005 370.895L451.65 261.847L443.565 269.218Z" fill="black"/>
<path d="M530.943 307.625L539.299 416.673L460.005 370.895L451.65 261.847L530.943 307.625Z" fill="url(#paint18_linear_2670_27365)"/>
<path opacity="0.3" d="M530.943 307.625L539.299 416.673L460.005 370.895L451.65 261.847L530.943 307.625Z" fill="black"/>
<path d="M530.943 307.625L517.332 311.816L510.082 319.672L501.727 438.37L539.298 416.673L530.943 307.625Z" fill="url(#paint19_linear_2670_27365)"/>
<path opacity="0.15" d="M530.943 307.625L517.332 311.816L510.082 319.672L501.727 438.37L539.298 416.673L530.943 307.625Z" fill="black"/>
<path opacity="0.15" d="M501.727 438.37L517.225 416.619L518.128 312.153L521.092 415.299L539.298 416.673L501.727 438.37Z" fill="black"/>
<path d="M422.434 392.578L501.727 438.396L510.082 319.699L430.789 273.881L422.434 392.578ZM482.335 316.451C482.335 314.713 483.548 313.999 485.03 314.861C485.816 315.374 486.47 316.064 486.938 316.877C487.406 317.689 487.676 318.601 487.726 319.538C487.726 321.249 486.513 321.963 485.03 321.114C484.246 320.604 483.593 319.916 483.124 319.106C482.656 318.295 482.386 317.386 482.335 316.451ZM453.133 299.714C453.133 297.976 454.332 297.262 455.828 298.124C456.612 298.638 457.264 299.329 457.733 300.141C458.201 300.953 458.471 301.864 458.523 302.8C458.523 304.512 457.31 305.226 455.828 304.377C455.041 303.869 454.386 303.182 453.917 302.371C453.449 301.56 453.18 300.65 453.133 299.714Z" fill="url(#paint20_linear_2670_27365)"/>
<path d="M484.141 252.562C487.106 250.85 490.744 251.066 494.396 253.168C502.792 258.019 509.624 272.035 509.624 284.419V303.649C509.624 304.007 509.482 304.35 509.23 304.602C508.977 304.855 508.634 304.997 508.277 304.997C507.919 304.997 507.576 304.855 507.324 304.602C507.071 304.35 506.929 304.007 506.929 303.649V284.419C506.929 272.884 500.69 259.893 493.022 255.472C490.192 253.828 487.564 253.626 485.421 254.866C482.268 256.685 480.449 261.334 480.449 267.601V286.697C480.449 287.054 480.307 287.397 480.054 287.649C479.801 287.902 479.458 288.044 479.101 288.044C478.744 288.044 478.401 287.902 478.148 287.649C477.895 287.397 477.753 287.054 477.753 286.697V267.601C477.834 260.351 480.125 254.879 484.141 252.562Z" fill="#263238"/>
<path d="M460.693 265.903C463.657 264.191 467.296 264.407 470.934 266.509C479.343 271.361 486.176 285.376 486.176 297.76V316.991C486.176 317.348 486.034 317.691 485.781 317.943C485.528 318.196 485.186 318.338 484.828 318.338C484.471 318.338 484.128 318.196 483.875 317.943C483.623 317.691 483.481 317.348 483.481 316.991V297.801C483.481 286.265 477.241 273.288 469.573 268.854C466.743 267.223 464.183 267.008 461.973 268.248C458.806 270.067 457 274.716 457 280.983V300.078C457 300.436 456.858 300.778 456.605 301.031C456.353 301.284 456.01 301.426 455.653 301.426C455.295 301.426 454.952 301.284 454.7 301.031C454.447 300.778 454.305 300.436 454.305 300.078V280.942C454.386 273.705 456.677 268.221 460.693 265.903Z" fill="#37474F"/>
<path d="M548.476 489.013L612.231 452.209L549.379 415.918L485.623 452.722L548.476 489.013Z" fill="#E0E0E0"/>
<path d="M548.22 483.676L602.528 452.29V408.884L603.674 408.224V392.214L548.233 424.233L548.22 483.676Z" fill="url(#paint21_linear_2670_27365)"/>
<g opacity="0.45">
<path opacity="0.45" d="M548.22 483.676L602.528 452.29V408.884L603.674 408.224V392.214L548.233 424.233L548.22 483.676Z" fill="white"/>
</g>
<path opacity="0.15" d="M548.233 440.243L569.013 428.236L602.528 408.884V411.188L548.233 442.534V440.243Z" fill="black"/>
<path d="M548.233 483.676L494.221 452.52V409.059L492.779 408.224V392.214L548.233 424.233V483.676Z" fill="url(#paint22_linear_2670_27365)"/>
<path opacity="0.3" d="M548.233 483.676L494.221 452.52V409.059L492.779 408.224V392.214L548.233 424.233V483.676Z" fill="white"/>
<path opacity="0.1" d="M494.208 409.059L548.233 440.243V442.534L494.208 411.391V409.059Z" fill="black"/>
<path d="M492.779 392.214L548.22 360.208L603.674 392.214L548.233 424.233L492.779 392.214Z" fill="url(#paint23_linear_2670_27365)"/>
<g opacity="0.6">
<path opacity="0.6" d="M492.779 392.214L548.22 360.208L603.674 392.214L548.233 424.233L492.779 392.214Z" fill="white"/>
</g>
<path d="M525.701 470.685V411.229L516.699 406.027V465.483L525.701 470.685Z" fill="#EBEBEB"/>
<path d="M525.701 470.685V411.229L516.699 406.027V465.483L525.701 470.685Z" fill="url(#paint24_linear_2670_27365)"/>
<path opacity="0.4" d="M525.701 470.685V411.229L516.699 406.027V465.483L525.701 470.685Z" fill="black"/>
<path d="M570.752 470.685V411.229L579.754 406.027V465.483L570.752 470.685Z" fill="url(#paint25_linear_2670_27365)"/>
<path opacity="0.15" d="M570.752 470.685V411.229L579.754 406.027V465.483L570.752 470.685Z" fill="black"/>
<path d="M516.699 406.027L572.153 374.021L581.155 379.223L525.701 411.229L516.699 406.027Z" fill="url(#paint26_linear_2670_27365)"/>
<path opacity="0.25" d="M547.492 398.656L538.477 393.454L547.492 388.252L556.494 393.454L547.492 398.656Z" fill="black"/>
<path d="M570.752 411.229L515.298 379.223L524.3 374.021L579.754 406.027L570.752 411.229Z" fill="url(#paint27_linear_2670_27365)"/>
<path d="M574.188 377.161C573.299 380.935 567.8 391.917 550.308 393.103L548.53 391.54C548.53 391.54 568.851 386.46 564.431 368.631L574.188 377.161Z" fill="url(#paint28_linear_2670_27365)"/>
<path opacity="0.4" d="M574.188 377.161C573.299 380.935 567.8 391.917 550.308 393.103L548.53 391.54C548.53 391.54 568.851 386.46 564.431 368.631L574.188 377.161Z" fill="black"/>
<path d="M548.327 395.179C548.327 395.179 548.327 384.398 552.37 378.064C556.413 371.73 564.391 368.631 564.391 368.631C568.324 370.574 571.686 373.504 574.148 377.134C569.251 377.268 564.446 378.488 560.079 380.705C553.233 384.33 550.268 393.076 550.268 393.076L548.327 395.179Z" fill="url(#paint29_linear_2670_27365)"/>
<path opacity="0.15" d="M548.327 395.179C548.327 395.179 548.327 384.398 552.37 378.064C556.413 371.73 564.391 368.631 564.391 368.631C568.324 370.574 571.686 373.504 574.148 377.134C569.251 377.268 564.446 378.488 560.079 380.705C553.233 384.33 550.268 393.076 550.268 393.076L548.327 395.179Z" fill="black"/>
<path d="M560.294 380.652L553.219 376.919C554.386 375.402 555.745 374.043 557.262 372.876L566.601 378.266C564.415 378.82 562.299 379.62 560.294 380.652Z" fill="url(#paint30_linear_2670_27365)"/>
<path d="M575.482 396.931C566.433 398.731 557.07 398.127 548.327 395.179L549.486 393.104C549.486 393.104 557.397 394.451 562.962 393.104C568.528 391.756 573.326 383.819 573.326 383.819L575.482 396.931Z" fill="url(#paint31_linear_2670_27365)"/>
<path opacity="0.4" d="M575.482 396.931C566.433 398.731 557.07 398.127 548.327 395.179L549.486 393.104C549.486 393.104 557.397 394.451 562.962 393.104C568.528 391.756 573.326 383.819 573.326 383.819L575.482 396.931Z" fill="black"/>
<path d="M548.327 395.179C548.327 395.179 548.462 392.228 552.626 388.36C558.017 383.306 568.703 383.306 573.352 383.819C575.248 385.259 576.528 387.363 576.937 389.708C577.503 392.592 575.482 396.931 575.482 396.931C573.948 395.093 572.052 393.59 569.912 392.517C567.772 391.443 565.434 390.822 563.043 390.691C558.673 390.328 554.33 391.659 550.915 394.411L548.327 395.179Z" fill="url(#paint32_linear_2670_27365)"/>
<path opacity="0.15" d="M548.327 395.179C548.327 395.179 548.462 392.228 552.626 388.36C558.017 383.306 568.703 383.306 573.352 383.819C575.248 385.259 576.528 387.363 576.937 389.708C577.503 392.592 575.482 396.931 575.482 396.931C573.948 395.093 572.052 393.59 569.912 392.517C567.772 391.443 565.434 390.822 563.043 390.691C558.673 390.328 554.33 391.659 550.915 394.411L548.327 395.179Z" fill="black"/>
<path d="M564.445 383.886C566.234 383.679 568.035 383.589 569.835 383.617C571.142 384.947 572.06 386.61 572.49 388.425C572.92 390.239 572.845 392.137 572.275 393.912C570.587 392.732 568.709 391.853 566.722 391.311C566.814 388.651 566.012 386.037 564.445 383.886Z" fill="url(#paint33_linear_2670_27365)"/>
<path d="M564 410.865C559.994 410.275 556.295 408.381 553.475 405.475C550.917 402.559 549.145 399.038 548.327 395.246L550.308 393.171C551.823 396.691 554.575 399.534 558.044 401.162C562.626 403.197 571.183 403.17 571.183 403.17L564 410.865Z" fill="url(#paint34_linear_2670_27365)"/>
<path opacity="0.4" d="M564 410.865C559.994 410.275 556.295 408.381 553.475 405.475C550.917 402.559 549.145 399.038 548.327 395.246L550.308 393.171C551.823 396.691 554.575 399.534 558.044 401.162C562.626 403.197 571.183 403.17 571.183 403.17L564 410.865Z" fill="black"/>
<path d="M548.327 395.179L550.308 393.104C550.308 393.104 557.99 391.554 562.127 393.104C566.264 394.653 571.102 401.122 571.183 403.103C570.649 404.855 569.726 406.464 568.482 407.808C567.238 409.152 565.706 410.198 564 410.865C564 410.865 564.404 403.79 559.081 399.653C555.977 397.2 552.256 395.651 548.327 395.179Z" fill="url(#paint35_linear_2670_27365)"/>
<path opacity="0.15" d="M548.327 395.179L550.308 393.104C550.308 393.104 557.99 391.554 562.127 393.104C566.264 394.653 571.102 401.122 571.183 403.103C570.649 404.855 569.726 406.464 568.482 407.808C567.238 409.152 565.706 410.198 564 410.865C564 410.865 564.404 403.79 559.081 399.653C555.977 397.2 552.256 395.651 548.327 395.179Z" fill="black"/>
<path d="M556.332 397.861L563.07 393.575C564.577 394.438 565.94 395.529 567.113 396.809L560.483 401C560.047 400.511 559.569 400.06 559.054 399.653C558.19 398.992 557.281 398.394 556.332 397.861Z" fill="url(#paint36_linear_2670_27365)"/>
<path d="M528.909 376.11C528.491 378.172 530 383.859 535.027 387.619C540.053 391.379 548.503 392.767 548.503 392.767L549.716 392.039C549.716 392.039 541.293 386.756 538.571 381.918C535.849 377.081 537.843 369.332 537.843 369.332L528.909 376.11Z" fill="url(#paint37_linear_2670_27365)"/>
<path opacity="0.4" d="M528.909 376.11C528.491 378.172 530 383.859 535.027 387.619C540.053 391.379 548.503 392.767 548.503 392.767L549.716 392.039C549.716 392.039 541.293 386.756 538.571 381.918C535.849 377.081 537.843 369.332 537.843 369.332L528.909 376.11Z" fill="black"/>
<path d="M548.53 392.767C546.999 388.039 544.061 383.892 540.107 380.881C533.814 376.42 528.909 376.11 528.909 376.11C529.883 374.451 531.177 373.001 532.715 371.845C534.253 370.688 536.005 369.848 537.87 369.372C537.87 369.372 545.053 373.604 547.789 380.072C549.395 383.86 550.065 387.978 549.743 392.08L548.53 392.767Z" fill="url(#paint38_linear_2670_27365)"/>
<path opacity="0.15" d="M548.53 392.767C546.999 388.039 544.061 383.892 540.107 380.881C533.814 376.42 528.909 376.11 528.909 376.11C529.883 374.451 531.177 373.001 532.715 371.845C534.253 370.688 536.005 369.848 537.87 369.372C537.87 369.372 545.053 373.604 547.789 380.072C549.395 383.86 550.065 387.978 549.743 392.08L548.53 392.767Z" fill="black"/>
<path d="M536.873 378.9C535.488 378.136 534.041 377.491 532.547 376.973C534.798 374.516 537.557 372.58 540.633 371.299C542.177 372.504 543.599 373.858 544.878 375.342C541.947 375.818 539.19 377.044 536.873 378.9Z" fill="url(#paint39_linear_2670_27365)"/>
<path d="M521.685 389.559C524.151 392.888 532.682 398.427 547.613 393.912L548.53 392.16C548.53 392.16 540.04 392.82 533.046 389.249C526.052 385.678 525.526 380.881 525.526 380.881L521.685 389.559Z" fill="url(#paint40_linear_2670_27365)"/>
<path opacity="0.4" d="M521.685 389.559C524.151 392.888 532.682 398.427 547.613 393.912L548.53 392.16C548.53 392.16 540.04 392.82 533.046 389.249C526.052 385.678 525.526 380.881 525.526 380.881L521.685 389.559Z" fill="black"/>
<path d="M548.53 392.133C546.242 387.89 542.612 384.525 538.207 382.565C534.23 380.795 529.83 380.201 525.526 380.854C525.526 380.854 521.119 384.317 521.685 389.532C525.538 387.683 529.855 387.026 534.083 387.646C541.185 388.683 546.738 391.891 547.56 393.885L548.53 392.133Z" fill="url(#paint41_linear_2670_27365)"/>
<path opacity="0.15" d="M548.53 392.133C546.242 387.89 542.612 384.525 538.207 382.565C534.23 380.795 529.83 380.201 525.526 380.854C525.526 380.854 521.119 384.317 521.685 389.532C525.538 387.683 529.855 387.026 534.083 387.646C541.185 388.683 546.738 391.891 547.56 393.885L548.53 392.133Z" fill="black"/>
<path d="M529.003 387.551C527.273 387.709 525.567 388.071 523.922 388.629C524.707 385.518 526.429 382.724 528.855 380.625C529.924 380.645 530.991 380.736 532.048 380.894C530.485 382.819 529.437 385.11 529.003 387.551Z" fill="url(#paint42_linear_2670_27365)"/>
<path d="M531.105 412.536C534.959 412.644 547.02 407.146 548.328 395.179L546.98 392.295C546.98 392.295 544.137 398.939 538.692 401.984C533.248 405.03 525.324 404.962 525.324 404.962L531.105 412.536Z" fill="url(#paint43_linear_2670_27365)"/>
<path opacity="0.4" d="M531.105 412.536C534.959 412.644 547.02 407.146 548.328 395.179L546.98 392.295C546.98 392.295 544.137 398.939 538.692 401.984C533.248 405.03 525.324 404.962 525.324 404.962L531.105 412.536Z" fill="black"/>
<path d="M548.53 392.133C548.53 392.133 541.657 391.972 536.927 393.885C528.558 397.254 525.742 401.243 525.378 404.936C526.341 408.053 528.368 410.733 531.105 412.509C531.105 412.509 534.528 403.588 538.746 399.828C544.366 394.828 548.328 395.152 548.328 395.152L548.53 392.133Z" fill="url(#paint44_linear_2670_27365)"/>
<path opacity="0.15" d="M548.53 392.133C548.53 392.133 541.657 391.972 536.927 393.885C528.558 397.254 525.742 401.243 525.378 404.936C526.341 408.053 528.368 410.733 531.105 412.509C531.105 412.509 534.528 403.588 538.746 399.828C544.366 394.828 548.328 395.152 548.328 395.152L548.53 392.133Z" fill="black"/>
<path d="M532.143 410.11C529.646 408.076 527.533 405.611 525.903 402.833C526.719 400.826 528.083 399.089 529.838 397.82C531.856 399.716 534.323 401.065 537.008 401.742C535.073 404.337 533.44 407.145 532.143 410.11Z" fill="url(#paint45_linear_2670_27365)"/>
<path d="M346.375 396.472L420.184 353.82V255.162L421.41 254.461V237.279L346.375 280.605V396.472Z" fill="#F0F0F0"/>
<path opacity="0.15" d="M346.375 297.773L368.678 284.904L420.184 255.162V257.628L346.375 300.24V297.773Z" fill="black"/>
<path d="M346.375 396.472L288.428 363.038V264.313L286.878 263.423V246.255L346.375 280.605V396.472Z" fill="#E0E0E0"/>
<path opacity="0.1" d="M288.428 264.312L346.375 297.773V300.239L288.428 266.819V264.312Z" fill="black"/>
<path d="M286.878 246.254L361.913 202.929L421.41 237.279L346.375 280.605L286.878 246.254Z" fill="#FAFAFA"/>
<path d="M385.941 174.643C391.727 163.107 395.657 153.472 397.732 145.737C399.85 137.911 400.937 129.843 400.967 121.736C400.967 112.913 399.381 106.014 396.21 101.036C394.764 98.7025 392.799 96.7334 390.469 95.2822L368.786 82.7629C366.554 81.4743 364.054 80.7223 361.482 80.5663C355.822 80.162 349.331 82.0756 342.009 86.3071C332.173 92.0609 323.755 99.9497 317.375 109.392C310.445 119.513 305.21 130.697 301.877 142.502L323.358 154.954L339.637 158.081L307.295 222.766V252.332L328.856 264.73L403.163 221.836V184.602L385.941 174.643Z" fill="url(#paint46_linear_2670_27365)"/>
<path opacity="0.15" d="M369.581 144.349C369.522 147.602 369.033 150.832 368.126 153.957C366.616 158.844 364.667 163.584 362.304 168.12L328.789 235.177L307.308 222.779L339.651 158.094L346.955 159.442C348.126 154.804 350.047 150.389 352.641 146.37C354.626 143.097 357.343 140.329 360.579 138.284C363.517 136.6 365.74 136.303 367.317 137.381C368.894 138.459 369.581 140.818 369.581 144.349Z" fill="black"/>
<path d="M403.096 184.601V221.917L328.789 264.811V235.191L362.304 168.12C364.669 163.585 366.618 158.844 368.126 153.957C369.033 150.832 369.522 147.601 369.581 144.348C369.581 140.818 368.813 138.5 367.263 137.422C365.713 136.344 363.49 136.654 360.525 138.325C357.292 140.377 354.572 143.143 352.574 146.41C349.984 150.431 348.064 154.846 346.887 159.482L323.358 154.954C326.691 143.149 331.925 131.965 338.856 121.843C345.239 112.401 353.656 104.508 363.49 98.7454C370.821 94.5139 377.312 92.6048 382.963 93.018C385.666 93.1709 388.289 93.9889 390.6 95.3994C392.911 96.81 394.838 98.7694 396.21 101.104C399.381 106.081 400.967 112.981 400.967 121.803C400.937 129.91 399.85 137.978 397.732 145.804C395.558 153.889 391.34 164.104 385.078 176.448L371.831 202.659L403.096 184.601Z" fill="#FAFAFA"/>
<path opacity="0.15" d="M363.503 98.7186C353.66 104.468 345.237 112.358 338.855 121.803C331.92 131.936 326.685 143.134 323.358 154.954L301.877 142.543C305.197 130.735 310.428 119.55 317.361 109.432C323.741 99.9902 332.159 92.1013 341.995 86.3475C349.313 82.1161 355.808 80.189 361.468 80.6202C364.039 80.7715 366.54 81.519 368.772 82.8033L389.647 94.8644C387.552 93.7933 385.257 93.1692 382.909 93.0317C377.294 92.6004 370.825 94.4961 363.503 98.7186Z" fill="white"/>
<path d="M381.453 94.7029C381.912 94.7029 382.383 94.7029 382.801 94.7029C385.227 94.834 387.583 95.5649 389.657 96.8303C391.732 98.0956 393.46 99.8557 394.687 101.953C397.665 106.602 399.174 113.246 399.174 121.695C399.143 129.648 398.074 137.562 395.994 145.238C393.865 153.202 389.66 163.404 383.475 175.546L370.228 201.743C370.056 202.084 369.999 202.472 370.065 202.848C370.13 203.224 370.315 203.569 370.592 203.832C370.923 204.135 371.356 204.303 371.805 204.304C372.116 204.308 372.423 204.229 372.694 204.075L401.304 187.553V220.798L330.554 261.698V235.595L363.881 168.902C366.279 164.262 368.25 159.413 369.77 154.415C370.72 151.142 371.232 147.757 371.292 144.349C371.292 140.158 370.295 137.422 368.22 135.98C367.3 135.35 366.208 135.02 365.093 135.037C363.175 135.153 361.319 135.761 359.703 136.802C356.238 138.982 353.32 141.928 351.173 145.413C348.764 149.124 346.916 153.17 345.688 157.42L325.609 153.607C328.897 142.665 333.857 132.296 340.311 122.868C346.545 113.628 354.769 105.901 364.379 100.255C370.753 96.5626 376.508 94.7029 381.453 94.7029ZM381.453 92.9375C376.153 92.9375 370.165 94.8646 363.49 98.7187C353.656 104.482 345.239 112.374 338.856 121.817C331.923 131.947 326.688 143.14 323.358 154.954L346.941 159.482C348.118 154.846 350.038 150.432 352.628 146.411C354.626 143.143 357.345 140.377 360.579 138.325C361.945 137.43 363.518 136.901 365.147 136.789C365.901 136.775 366.641 136.997 367.263 137.422C368.813 138.5 369.581 140.818 369.581 144.349C369.522 147.602 369.033 150.833 368.126 153.957C366.618 158.845 364.669 163.585 362.304 168.12L328.789 235.191V264.744L403.096 221.85V184.602L371.831 202.66L385.078 176.449C391.367 164.132 395.585 153.917 397.732 145.804C399.85 137.979 400.937 129.91 400.967 121.803C400.967 112.981 399.381 106.081 396.21 101.104C394.838 98.7697 392.911 96.8103 390.6 95.3997C388.289 93.9892 385.666 93.1712 382.963 93.0184C382.464 93.0184 381.952 93.0184 381.453 93.0184V92.9375Z" fill="url(#paint47_linear_2670_27365)"/>
<path opacity="0.25" d="M328.789 264.744V235.191L307.295 222.779V252.346L328.789 264.744Z" fill="black"/>
<path opacity="0.15" d="M403.096 184.601L371.845 202.646L385.092 176.435C385.388 175.855 385.671 175.263 385.954 174.697L403.096 184.601Z" fill="white"/>
<path d="M268.767 419.193L320.555 389.249V262.089L321.782 261.375V244.206L268.78 274.824L268.767 419.193Z" fill="#F0F0F0"/>
<path opacity="0.15" d="M268.78 291.992L291.083 279.123L320.555 262.089V264.555L268.78 294.458V291.992Z" fill="black"/>
<path d="M268.78 419.193L210.833 385.759V258.531L209.283 257.642V240.473L268.78 274.824V419.193Z" fill="#E0E0E0"/>
<path opacity="0.1" d="M210.82 258.531L268.78 291.992V294.458L210.82 261.038V258.531Z" fill="black"/>
<path d="M209.283 240.473L262.285 209.856L321.781 244.206L268.78 274.824L209.283 240.473Z" fill="#FAFAFA"/>
<path d="M268.713 76.51L221.573 103.718V140.023L237.462 130.846V237.28L258.956 249.691L290.207 231.647V88.908L268.713 76.51Z" fill="url(#paint48_linear_2670_27365)"/>
<path opacity="0.15" d="M268.713 76.51L221.573 103.718V140.023L237.462 130.846V237.28L258.956 249.691L290.207 231.647V88.908L268.713 76.51Z" fill="white"/>
<path d="M290.261 88.9214V231.646L258.956 249.691V143.23L243.095 152.434V116.13L290.261 88.9214Z" fill="#FAFAFA"/>
<path d="M288.442 91.967V230.622L260.721 246.591V143.257C260.721 142.945 260.638 142.639 260.482 142.37C260.326 142.1 260.102 141.876 259.832 141.721C259.563 141.573 259.262 141.494 258.956 141.492C258.645 141.494 258.34 141.573 258.067 141.721L244.82 149.375V117.221L288.442 92.0344V91.967ZM290.261 88.9214L243.095 116.143V152.448L258.983 143.27V249.731L290.261 231.646V88.9214Z" fill="url(#paint49_linear_2670_27365)"/>
<path d="M221.573 140.023L243.054 152.434V116.13L221.573 103.718V140.023Z" fill="url(#paint50_linear_2670_27365)"/>
<path d="M237.462 237.28L258.956 249.691V143.257L243.054 152.434L237.462 149.2V237.28Z" fill="url(#paint51_linear_2670_27365)"/>
<path opacity="0.25" d="M237.462 237.28L258.956 249.691V143.257L243.054 152.434L237.462 149.2V237.28Z" fill="black"/>
<path opacity="0.15" d="M221.573 103.718L243.054 116.13V152.434L221.573 140.023V103.718Z" fill="black"/>
<path d="M400.374 479.903L484.977 431.173L454.979 413.937L370.363 462.667L400.374 479.903Z" fill="#E0E0E0"/>
<path d="M457.526 383.953C463.307 372.431 467.242 362.769 469.304 355.047C471.432 347.223 472.524 339.154 472.552 331.046C472.552 322.224 470.961 315.324 467.781 310.347C466.335 308.013 464.371 306.044 462.04 304.592L440.357 292.073C438.124 290.789 435.625 290.037 433.053 289.877C427.402 289.472 420.916 291.386 413.594 295.617C403.752 301.364 395.332 309.254 388.96 318.702C382.024 328.821 376.789 340.005 373.462 351.813L394.956 364.224L411.222 367.351L378.88 432.036V461.602L400.374 474.014L474.667 431.214V393.858L457.526 383.953Z" fill="#455A64"/>
<path d="M441.193 353.659C441.129 356.912 440.635 360.143 439.724 363.267C438.214 368.154 436.265 372.894 433.902 377.431L400.36 444.487L378.879 432.089L411.222 367.404L418.526 368.819C419.704 364.182 421.63 359.767 424.226 355.748C426.204 352.469 428.922 349.7 432.164 347.662C435.088 345.977 437.312 345.681 438.902 346.759C440.492 347.837 441.193 350.128 441.193 353.659Z" fill="#37474F"/>
<path d="M474.667 393.858V431.214L400.374 474.067V444.501L433.875 377.431C436.241 372.895 438.189 368.155 439.697 363.267C440.609 360.143 441.103 356.912 441.166 353.659C441.166 350.128 440.384 347.824 438.848 346.732C437.312 345.641 435.075 345.964 432.11 347.649C428.876 349.696 426.16 352.463 424.173 355.734C421.573 359.752 419.647 364.167 418.472 368.806L394.903 364.278C398.23 352.47 403.465 341.286 410.4 331.167C416.776 321.719 425.195 313.825 435.034 308.069C442.356 303.838 448.843 301.929 454.494 302.342C457.197 302.495 459.82 303.313 462.131 304.723C464.442 306.134 466.369 308.093 467.741 310.428C470.921 315.405 472.511 322.305 472.511 331.127C472.484 339.235 471.392 347.304 469.263 355.128C467.089 363.213 462.871 373.428 456.609 385.772L443.376 411.983L474.667 393.858Z" fill="url(#paint52_linear_2670_27365)"/>
<path opacity="0.8" d="M474.667 393.858V431.214L400.374 474.067V444.501L433.875 377.431C436.241 372.895 438.189 368.155 439.697 363.267C440.609 360.143 441.103 356.912 441.166 353.659C441.166 350.128 440.384 347.824 438.848 346.732C437.312 345.641 435.075 345.964 432.11 347.649C428.876 349.696 426.16 352.463 424.173 355.734C421.573 359.752 419.647 364.167 418.472 368.806L394.903 364.278C398.23 352.47 403.465 341.286 410.4 331.167C416.776 321.719 425.195 313.825 435.034 308.069C442.356 303.838 448.843 301.929 454.494 302.342C457.197 302.495 459.82 303.313 462.131 304.723C464.442 306.134 466.369 308.093 467.741 310.428C470.921 315.405 472.511 322.305 472.511 331.127C472.484 339.235 471.392 347.304 469.263 355.128C467.089 363.213 462.871 373.428 456.609 385.772L443.376 411.983L474.667 393.858Z" fill="white"/>
<path d="M453.025 304.013C453.496 304.013 453.955 304.013 454.372 304.013C456.798 304.145 459.154 304.877 461.228 306.142C463.302 307.407 465.03 309.167 466.258 311.263C469.236 315.913 470.746 322.556 470.746 331.006C470.709 338.959 469.636 346.873 467.552 354.548C465.436 362.513 461.218 372.714 455.046 384.856L441.799 411.067C441.629 411.406 441.572 411.791 441.638 412.165C441.703 412.539 441.887 412.882 442.163 413.142C442.492 413.451 442.925 413.624 443.376 413.628C443.684 413.626 443.987 413.543 444.252 413.385L472.862 396.863V430.109L402.112 471.009V444.919L435.438 378.212C437.859 373.574 439.852 368.725 441.395 363.726C442.341 360.452 442.849 357.067 442.904 353.659C442.904 349.481 441.907 346.746 439.832 345.29C438.912 344.66 437.82 344.331 436.705 344.347C434.786 344.46 432.929 345.068 431.315 346.112C427.843 348.288 424.92 351.235 422.771 354.724C420.367 358.435 418.524 362.481 417.3 366.731L397.22 362.863C400.515 351.923 405.474 341.555 411.923 332.124C418.163 322.904 426.386 315.196 435.991 309.565C442.379 305.873 448.119 304.013 453.065 304.013H453.025ZM453.065 302.248C447.783 302.248 441.786 304.175 435.115 308.029C425.276 313.784 416.857 321.678 410.481 331.127C403.546 341.246 398.311 352.43 394.983 364.238L418.553 368.766C419.728 364.127 421.654 359.711 424.253 355.694C426.24 352.423 428.957 349.656 432.191 347.608C433.558 346.716 435.13 346.187 436.759 346.072C437.516 346.054 438.26 346.27 438.888 346.692C440.425 347.783 441.206 350.088 441.206 353.619C441.143 356.872 440.649 360.103 439.737 363.227C438.23 368.115 436.281 372.855 433.916 377.39L400.414 444.461V474.068L474.667 431.214V393.858L443.416 411.903L456.65 385.692C462.939 373.374 467.157 363.16 469.304 355.047C471.426 347.222 472.517 339.154 472.552 331.046C472.552 322.224 470.961 315.324 467.781 310.347C466.409 308.013 464.483 306.053 462.172 304.643C459.861 303.232 457.237 302.414 454.534 302.261C454.035 302.261 453.537 302.261 453.025 302.261L453.065 302.248Z" fill="#455A64"/>
<path d="M400.374 474.068V444.501L378.879 432.09V461.656L400.374 474.068Z" fill="#263238"/>
<path d="M330.878 463.597L369.285 441.509L339.287 424.273L300.88 446.361L330.878 463.597Z" fill="#E0E0E0"/>
<path d="M340.271 285.672L293.131 312.88V349.185L309.02 340.008V446.442L330.514 458.853L361.765 440.809V298.07L340.271 285.672Z" fill="#455A64"/>
<path d="M361.765 298.07V440.808L330.514 458.853V352.392L314.626 361.569V325.291L361.765 298.07Z" fill="url(#paint53_linear_2670_27365)"/>
<path opacity="0.8" d="M361.765 298.07V440.808L330.514 458.853V352.392L314.626 361.569V325.291L361.765 298.07Z" fill="white"/>
<path d="M360 301.129V439.784L332.279 455.794V352.419C332.279 352.107 332.196 351.801 332.04 351.532C331.884 351.262 331.66 351.038 331.39 350.883C331.122 350.733 330.821 350.654 330.514 350.654C330.207 350.654 329.906 350.733 329.638 350.883L316.391 358.537V326.316L360 301.129ZM361.765 298.07L314.599 325.291V361.596L330.487 352.419V458.88L361.738 440.835V298.07H361.765Z" fill="#455A64"/>
<path d="M293.131 349.185L314.626 361.583V325.292L293.131 312.88V349.185Z" fill="#37474F"/>
<path d="M309.02 446.441L330.514 458.853V352.419L314.626 361.583L309.02 358.362V446.441Z" fill="#263238"/>
<path d="M153.984 463.267L145.036 335.298L131.452 330.352L122.679 322.388L113.731 440.034L153.984 463.267Z" fill="url(#paint54_linear_2670_27365)"/>
<path opacity="0.2" d="M153.984 463.267L145.036 335.298L131.344 330.285L122.679 322.388L113.731 440.034L153.984 463.267Z" fill="black"/>
<path opacity="0.2" d="M131.344 330.285V450.195L113.731 440.034L122.679 322.388L131.344 330.285Z" fill="black"/>
<path d="M37.726 371.441L28.7779 489.087L113.731 440.034L122.679 322.388L37.726 371.441Z" fill="url(#paint55_linear_2670_27365)"/>
<path opacity="0.3" d="M37.726 371.441L28.7779 489.087L113.731 440.034L122.679 322.388L37.726 371.441Z" fill="black"/>
<path d="M37.7259 371.441L52.307 375.928L60.0827 384.351L69.0174 512.32L28.7778 489.087L37.7259 371.441Z" fill="url(#paint56_linear_2670_27365)"/>
<path opacity="0.15" d="M37.7259 371.441L52.307 375.928L60.0827 384.351L69.0174 512.32L28.7778 489.087L37.7259 371.441Z" fill="black"/>
<path opacity="0.15" d="M69.0174 512.32L52.4283 489.02L51.458 376.292L48.2777 487.605L28.7778 489.087L69.0174 512.32Z" fill="black"/>
<path d="M145.036 335.298L60.1367 384.351L68.9904 512.333L153.89 463.28L145.036 335.298ZM86.9136 385.887C85.31 386.804 84.0163 386.035 84.0163 384.203C84.0713 383.198 84.3623 382.221 84.8657 381.35C85.3691 380.479 86.0707 379.739 86.9136 379.19C88.5038 378.273 89.7975 379.028 89.7975 380.888C89.7472 381.89 89.4595 382.866 88.9581 383.735C88.4567 384.604 87.756 385.342 86.9136 385.887ZM118.205 367.964C116.615 368.867 115.321 368.112 115.321 366.266C115.375 365.265 115.664 364.29 116.165 363.421C116.666 362.552 117.365 361.814 118.205 361.266C119.809 360.337 121.102 361.105 121.102 362.951C121.051 363.956 120.761 364.935 120.257 365.806C119.754 366.678 119.05 367.417 118.205 367.964Z" fill="url(#paint57_linear_2670_27365)"/>
<path d="M87.857 312.443C84.6766 310.61 80.782 310.839 76.874 313.09C67.872 318.291 60.5545 333.304 60.5545 346.578V367.169C60.5351 367.367 60.5575 367.568 60.6202 367.757C60.6828 367.946 60.7843 368.12 60.9182 368.267C61.0521 368.415 61.2154 368.533 61.3976 368.614C61.5798 368.694 61.7769 368.736 61.9762 368.736C62.1755 368.736 62.3725 368.694 62.5547 368.614C62.7369 368.533 62.9002 368.415 63.0341 368.267C63.168 368.12 63.2696 367.946 63.3322 367.757C63.3949 367.568 63.4172 367.367 63.3979 367.169V346.578C63.3979 334.22 70.1359 320.299 78.2216 315.583C81.2672 313.831 84.0702 313.602 86.3072 314.936C89.6897 316.89 91.6977 321.862 91.6977 328.574V349.044C91.7321 349.397 91.8967 349.725 92.1596 349.963C92.4224 350.201 92.7645 350.334 93.1194 350.334C93.4743 350.334 93.8164 350.201 94.0792 349.963C94.342 349.725 94.5067 349.397 94.5411 349.044V328.547C94.595 320.798 92.1693 314.922 87.857 312.443Z" fill="#263238"/>
<path d="M112.99 326.741C109.823 324.908 105.915 325.137 102.02 327.388C93.0182 332.59 85.6873 347.602 85.6873 360.876V381.467C85.6679 381.666 85.6903 381.866 85.753 382.055C85.8156 382.244 85.9172 382.418 86.0511 382.566C86.185 382.713 86.3483 382.831 86.5305 382.912C86.7126 382.993 86.9097 383.034 87.109 383.034C87.3083 383.034 87.5053 382.993 87.6875 382.912C87.8697 382.831 88.033 382.713 88.1669 382.566C88.3008 382.418 88.4024 382.244 88.465 382.055C88.5277 381.866 88.5501 381.666 88.5307 381.467V360.876C88.5307 348.518 95.2687 334.598 103.435 329.881C106.467 328.129 109.284 327.9 111.521 329.234C114.917 331.188 116.911 336.161 116.911 342.872V363.342C116.946 363.695 117.11 364.023 117.373 364.261C117.636 364.5 117.978 364.632 118.333 364.632C118.688 364.632 119.03 364.5 119.293 364.261C119.556 364.023 119.72 363.695 119.755 363.342V342.845C119.755 335.096 117.289 329.221 112.99 326.741Z" fill="#37474F"/>
<path d="M192.041 520.001L247.589 487.901V413.068L248.761 412.395V396.021L192.041 428.768V520.001Z" fill="url(#paint58_linear_2670_27365)"/>
<g opacity="0.45">
<path opacity="0.45" d="M192.041 520.001L247.589 487.901V413.068L248.761 412.395V396.021L192.041 428.768V520.001Z" fill="white"/>
</g>
<path opacity="0.15" d="M192.041 445.142L213.306 432.865L247.589 413.068V415.427L192.041 447.486V445.142Z" fill="black"/>
<path d="M192.041 520.001L136.802 488.13V413.244L135.333 412.395V396.021L192.041 428.768V520.001Z" fill="url(#paint59_linear_2670_27365)"/>
<path opacity="0.3" d="M192.041 520.001L136.802 488.13V413.244L135.333 412.395V396.021L192.041 428.768V520.001Z" fill="white"/>
<path opacity="0.1" d="M136.789 413.244L192.041 445.141V447.486L136.789 415.629V413.244Z" fill="black"/>
<path d="M135.333 396.021L192.041 363.274L248.761 396.021L192.041 428.768L135.333 396.021Z" fill="url(#paint60_linear_2670_27365)"/>
<g opacity="0.6">
<path opacity="0.6" d="M135.333 396.021L192.041 363.274L248.761 396.021L192.041 428.768L135.333 396.021Z" fill="white"/>
</g>
<path d="M169.01 506.714V415.467L159.792 410.158V501.404L169.01 506.714Z" fill="#EBEBEB"/>
<path d="M169.01 506.714V415.467L159.792 410.158V501.404L169.01 506.714Z" fill="url(#paint61_linear_2670_27365)"/>
<path opacity="0.4" d="M169.01 506.714V415.467L159.792 410.158V501.404L169.01 506.714Z" fill="black"/>
<path d="M215.085 506.714V415.467L224.289 410.158V501.404L215.085 506.714Z" fill="url(#paint62_linear_2670_27365)"/>
<path opacity="0.15" d="M215.085 506.714V415.467L224.289 410.158V501.404L215.085 506.714Z" fill="black"/>
<path d="M159.792 410.157L216.513 377.411L225.731 382.72L169.01 415.467L159.792 410.157Z" fill="url(#paint63_linear_2670_27365)"/>
<path opacity="0.25" d="M191.286 402.611L182.082 397.288L191.286 391.965L200.503 397.288L191.286 402.611Z" fill="black"/>
<path d="M215.085 415.467L158.364 382.72L167.581 377.411L224.289 410.157L215.085 415.467Z" fill="url(#paint64_linear_2670_27365)"/>
<path d="M218.575 380.618C217.685 384.486 212.052 395.711 194.17 396.924L192.35 395.334C192.35 395.334 213.117 390.132 208.603 371.926L218.575 380.618Z" fill="url(#paint65_linear_2670_27365)"/>
<path opacity="0.4" d="M218.575 380.618C217.685 384.486 212.052 395.711 194.17 396.924L192.35 395.334C192.35 395.334 213.117 390.132 208.603 371.926L218.575 380.618Z" fill="black"/>
<path d="M192.148 399.04C192.148 399.04 192.148 388.043 196.326 381.521C200.504 374.998 208.616 371.899 208.616 371.899C212.638 373.882 216.075 376.878 218.588 380.591C213.578 380.746 208.666 382.016 204.209 384.31C197.202 388.016 194.183 396.951 194.183 396.951L192.148 399.04Z" fill="url(#paint66_linear_2670_27365)"/>
<path opacity="0.15" d="M192.148 399.04C192.148 399.04 192.148 388.043 196.326 381.521C200.504 374.998 208.616 371.899 208.616 371.899C212.638 373.882 216.075 376.878 218.588 380.591C213.578 380.746 208.666 382.016 204.209 384.31C197.202 388.016 194.183 396.951 194.183 396.951L192.148 399.04Z" fill="black"/>
<path d="M204.385 384.189L197.148 380.376C198.326 378.869 199.684 377.511 201.191 376.333L210.745 381.804C208.545 382.367 206.412 383.167 204.385 384.189Z" fill="url(#paint67_linear_2670_27365)"/>
<path d="M219.923 400.846C210.666 402.685 201.089 402.063 192.148 399.04L193.321 396.924C193.321 396.924 201.406 398.272 207.147 396.924C212.888 395.576 217.739 387.491 217.739 387.491L219.923 400.846Z" fill="url(#paint68_linear_2670_27365)"/>
<path opacity="0.4" d="M219.923 400.846C210.666 402.685 201.089 402.063 192.148 399.04L193.321 396.924C193.321 396.924 201.406 398.272 207.147 396.924C212.888 395.576 217.739 387.491 217.739 387.491L219.923 400.846Z" fill="black"/>
<path d="M192.148 399.04C192.148 399.04 192.297 396.034 196.542 392.086C202.107 386.911 212.982 386.911 217.739 387.437C219.676 388.906 220.985 391.053 221.405 393.447C221.984 396.398 219.923 400.845 219.923 400.845C218.355 398.964 216.416 397.426 214.227 396.327C212.038 395.228 209.647 394.592 207.201 394.458C202.712 394.074 198.248 395.435 194.736 398.258L192.148 399.04Z" fill="url(#paint69_linear_2670_27365)"/>
<path opacity="0.15" d="M192.148 399.04C192.148 399.04 192.297 396.034 196.542 392.086C202.107 386.911 212.982 386.911 217.739 387.437C219.676 388.906 220.985 391.053 221.405 393.447C221.984 396.398 219.923 400.845 219.923 400.845C218.355 398.964 216.416 397.426 214.227 396.327C212.038 395.228 209.647 394.592 207.201 394.458C202.712 394.074 198.248 395.435 194.736 398.258L192.148 399.04Z" fill="black"/>
<path d="M208.643 387.491C210.433 387.292 212.233 387.207 214.034 387.235C215.372 388.591 216.312 390.288 216.751 392.141C217.191 393.995 217.113 395.934 216.527 397.746C214.804 396.529 212.885 395.617 210.853 395.051C210.971 392.356 210.194 389.698 208.643 387.491Z" fill="url(#paint70_linear_2670_27365)"/>
<path d="M208.185 415.09C204.073 414.475 200.281 412.512 197.404 409.511C194.782 406.528 192.968 402.923 192.135 399.04L194.17 396.924C195.711 400.526 198.521 403.437 202.067 405.104C206.77 407.193 215.543 407.166 215.543 407.166L208.185 415.09Z" fill="url(#paint71_linear_2670_27365)"/>
<path opacity="0.4" d="M208.185 415.09C204.073 414.475 200.281 412.512 197.404 409.511C194.782 406.528 192.968 402.923 192.135 399.04L194.17 396.924C195.711 400.526 198.521 403.437 202.067 405.104C206.77 407.193 215.543 407.166 215.543 407.166L208.185 415.09Z" fill="black"/>
<path d="M192.148 399.04L194.183 396.924C194.183 396.924 202.026 395.347 206.312 396.924C210.597 398.501 215.489 405.131 215.583 407.166C215.036 408.955 214.091 410.598 212.82 411.97C211.548 413.342 209.982 414.409 208.239 415.09C208.239 415.09 208.643 407.867 203.199 403.635C200.009 401.114 196.185 399.524 192.148 399.04Z" fill="url(#paint72_linear_2670_27365)"/>
<path opacity="0.15" d="M192.148 399.04L194.183 396.924C194.183 396.924 202.026 395.347 206.312 396.924C210.597 398.501 215.489 405.131 215.583 407.166C215.036 408.955 214.091 410.598 212.82 411.97C211.548 413.342 209.982 414.409 208.239 415.09C208.239 415.09 208.643 407.867 203.199 403.635C200.009 401.114 196.185 399.524 192.148 399.04Z" fill="black"/>
<path d="M200.342 401.829L207.228 397.449C208.779 398.333 210.183 399.452 211.392 400.765L204.654 405.036C204.203 404.547 203.712 404.096 203.185 403.689C202.285 402.999 201.335 402.377 200.342 401.829Z" fill="url(#paint73_linear_2670_27365)"/>
<path d="M172.285 379.553C171.853 381.656 173.403 387.477 178.538 391.318C183.672 395.159 192.364 396.587 192.364 396.587L193.59 395.833C193.59 395.833 184.979 390.442 182.203 385.483C179.427 380.524 181.448 372.613 181.448 372.613L172.285 379.553Z" fill="url(#paint74_linear_2670_27365)"/>
<path opacity="0.4" d="M172.285 379.553C171.853 381.656 173.403 387.477 178.538 391.318C183.672 395.159 192.364 396.587 192.364 396.587L193.59 395.833C193.59 395.833 184.979 390.442 182.203 385.483C179.427 380.524 181.448 372.613 181.448 372.613L172.285 379.553Z" fill="black"/>
<path d="M192.364 396.587C190.786 391.763 187.778 387.533 183.739 384.459C177.311 379.89 172.285 379.58 172.285 379.58C173.273 377.872 174.593 376.378 176.166 375.186C177.74 373.994 179.536 373.129 181.448 372.64C181.448 372.64 188.806 376.966 191.596 383.583C193.237 387.455 193.921 391.666 193.59 395.859L192.364 396.587Z" fill="url(#paint75_linear_2670_27365)"/>
<path opacity="0.15" d="M192.364 396.587C190.786 391.763 187.778 387.533 183.739 384.459C177.311 379.89 172.285 379.58 172.285 379.58C173.273 377.872 174.593 376.378 176.166 375.186C177.74 373.994 179.536 373.129 181.448 372.64C181.448 372.64 188.806 376.966 191.596 383.583C193.237 387.455 193.921 391.666 193.59 395.859L192.364 396.587Z" fill="black"/>
<path d="M180.478 382.411C179.062 381.629 177.584 380.966 176.058 380.43C178.352 377.916 181.166 375.934 184.305 374.621C185.891 375.877 187.345 377.29 188.645 378.839C185.657 379.297 182.842 380.528 180.478 382.411Z" fill="url(#paint76_linear_2670_27365)"/>
<path d="M164.9 393.299C167.42 396.708 176.152 402.382 191.421 397.746L192.364 395.967C192.364 395.967 183.672 396.641 176.516 392.989C169.36 389.337 168.835 384.432 168.835 384.432L164.9 393.299Z" fill="url(#paint77_linear_2670_27365)"/>
<path opacity="0.4" d="M164.9 393.299C167.42 396.708 176.152 402.382 191.421 397.746L192.364 395.967C192.364 395.967 183.672 396.641 176.516 392.989C169.36 389.337 168.835 384.432 168.835 384.432L164.9 393.299Z" fill="black"/>
<path d="M192.364 395.967C190.018 391.626 186.304 388.182 181.799 386.17C177.733 384.359 173.233 383.756 168.835 384.432C168.835 384.432 164.32 387.976 164.9 393.299C168.836 391.408 173.247 390.737 177.567 391.372C184.844 392.436 190.518 395.725 191.421 397.746L192.364 395.967Z" fill="url(#paint78_linear_2670_27365)"/>
<path opacity="0.15" d="M192.364 395.967C190.018 391.626 186.304 388.182 181.799 386.17C177.733 384.359 173.233 383.756 168.835 384.432C168.835 384.432 164.32 387.976 164.9 393.299C168.836 391.408 173.247 390.737 177.567 391.372C184.844 392.436 190.518 395.725 191.421 397.746L192.364 395.967Z" fill="black"/>
<path d="M172.392 391.25C170.617 391.413 168.866 391.784 167.177 392.356C167.986 389.173 169.75 386.314 172.231 384.162C173.323 384.182 174.413 384.276 175.492 384.445C173.894 386.411 172.827 388.754 172.392 391.25Z" fill="url(#paint79_linear_2670_27365)"/>
<path d="M174.535 416.815C178.484 416.909 190.814 411.33 192.148 399.04L190.801 396.102C190.801 396.102 187.89 402.908 182.324 406.007C176.759 409.107 168.713 409.053 168.713 409.053L174.535 416.815Z" fill="url(#paint80_linear_2670_27365)"/>
<path opacity="0.4" d="M174.535 416.815C178.484 416.909 190.814 411.33 192.148 399.04L190.801 396.102C190.801 396.102 187.89 402.908 182.324 406.007C176.759 409.107 168.713 409.053 168.713 409.053L174.535 416.815Z" fill="black"/>
<path d="M192.364 395.967C192.364 395.967 185.329 395.792 180.478 397.746C171.934 401.209 169.05 405.279 168.673 409.052C169.661 412.245 171.735 414.991 174.535 416.815C174.535 416.815 178.039 407.678 182.351 403.837C188.106 398.716 192.148 399.04 192.148 399.04L192.364 395.967Z" fill="url(#paint81_linear_2670_27365)"/>
<path opacity="0.15" d="M192.364 395.967C192.364 395.967 185.329 395.792 180.478 397.746C171.934 401.209 169.05 405.279 168.673 409.052C169.661 412.245 171.735 414.991 174.535 416.815C174.535 416.815 178.039 407.678 182.351 403.837C188.106 398.716 192.148 399.04 192.148 399.04L192.364 395.967Z" fill="black"/>
<path d="M175.586 414.322C173.04 412.237 170.882 409.719 169.212 406.883C170.057 404.829 171.456 403.051 173.255 401.748C175.317 403.694 177.84 405.085 180.586 405.791C178.602 408.437 176.925 411.298 175.586 414.322Z" fill="url(#paint82_linear_2670_27365)"/>
<path d="M122.706 543.085L79.8387 518.316V500.946L78.9358 500.42V487.793L122.706 513.061V543.085Z" fill="url(#paint83_linear_2670_27365)"/>
<path opacity="0.3" d="M122.706 543.085L79.8387 518.316V500.946L78.9358 500.42V487.793L122.706 513.061V543.085Z" fill="white"/>
<path opacity="0.15" d="M122.706 525.688L106.292 516.214L79.8387 500.946V502.765L122.706 527.494V525.688Z" fill="black"/>
<path d="M122.706 543.085L165.317 518.492V501.08L166.463 500.42V487.793L122.706 513.061V543.085Z" fill="url(#paint84_linear_2670_27365)"/>
<path opacity="0.45" d="M122.706 543.085L165.317 518.492V501.08L166.463 500.42V487.793L122.706 513.061V543.085Z" fill="white"/>
<path opacity="0.1" d="M165.331 501.08L122.706 525.688V527.494L165.331 502.913V501.08Z" fill="black"/>
<path d="M166.463 487.793L122.706 462.526L78.9358 487.793L122.706 513.061L166.463 487.793Z" fill="url(#paint85_linear_2670_27365)"/>
<path opacity="0.6" d="M166.463 487.793L122.706 462.526L78.9358 487.793L122.706 513.061L166.463 487.793Z" fill="white"/>
<path d="M140.467 532.83V502.792L147.583 498.695V528.733L140.467 532.83Z" fill="#37474F"/>
<path d="M104.931 532.83V502.792L97.8158 498.695V528.733L104.931 532.83Z" fill="#263238"/>
<path d="M147.583 498.695L103.826 473.428L96.7107 477.538L140.468 502.792L147.583 498.695Z" fill="#455A64"/>
<path opacity="0.25" d="M123.286 492.874L130.387 488.763L123.286 484.667L116.17 488.763L123.286 492.874Z" fill="black"/>
<path d="M104.931 502.792L148.688 477.538L141.573 473.428L97.8158 498.695L104.931 502.792Z" fill="#455A64"/>
<path d="M149.847 476.797C149.19 479.03 148.009 481.074 146.4 482.758C144.792 484.441 142.804 485.715 140.602 486.472C135.14 488.353 129.486 489.618 123.744 490.246L140.912 468.388L149.847 476.797Z" fill="#263238"/>
<path d="M123.784 490.246C123.631 486.119 124.63 482.032 126.668 478.441C129.956 473.279 140.953 468.388 140.953 468.388C144.285 470.789 147.289 473.616 149.887 476.797C145.095 477.156 140.43 478.513 136.193 480.78C131.955 483.048 128.238 486.175 125.28 489.963L123.784 490.246Z" fill="#37474F"/>
<path d="M140.643 478.804C137.91 479.795 135.312 481.121 132.907 482.753L127.301 477.565C129.424 475.218 131.919 473.237 134.686 471.703L140.643 478.804Z" fill="#455A64"/>
<path d="M123.784 490.246C125.538 493.198 128.186 495.515 131.344 496.862C136.735 499.288 145.737 498.87 145.737 498.87L146.235 487.551C145.257 489.146 143.897 490.474 142.279 491.415C140.661 492.356 138.835 492.88 136.964 492.941C132.937 493.095 128.992 491.783 125.859 489.249L123.784 490.246Z" fill="#263238"/>
<path d="M123.784 490.246C129.175 484.343 134.444 483.629 139.268 484.599C144.659 485.664 146.235 487.551 146.235 487.551L145.804 498.857C143.287 495.054 139.443 492.325 135.023 491.203C127.301 488.979 123.784 490.246 123.784 490.246Z" fill="#37474F"/>
<path d="M143.554 485.893C142.314 487.806 140.333 490.933 139.093 492.914C137.812 492.201 136.456 491.632 135.05 491.216C133.722 490.827 132.372 490.517 131.007 490.286L135.697 484.249C136.924 484.229 138.149 484.347 139.349 484.599C140.793 484.877 142.203 485.311 143.554 485.893Z" fill="#455A64"/>
<path d="M124.067 488.979C118.981 488.233 114.245 485.947 110.497 482.43C106.931 478.551 104.486 473.777 103.422 468.617L113.165 462.081C112.419 464.64 112.233 467.33 112.622 469.967C113.01 472.605 113.963 475.127 115.415 477.363C117.326 480.703 120.424 483.2 124.094 484.357L124.067 488.979Z" fill="#263238"/>
<path d="M124.067 488.979L122.598 488.723C121.579 483.046 118.673 477.88 114.351 474.061C106.899 467.66 103.422 468.671 103.422 468.671C106.196 465.858 109.51 463.635 113.165 462.135C113.165 462.135 119.431 465.531 122.315 470.544C125.765 476.487 124.983 485.556 124.067 488.979Z" fill="#37474F"/>
<path d="M108.799 470.126L117.019 464.736C117.423 465.059 117.841 465.396 118.259 465.76L110.173 471.015C109.729 470.652 109.244 470.369 108.799 470.126Z" fill="#455A64"/>
<path d="M111.507 471.905L119.458 466.932C120.26 467.724 120.991 468.586 121.641 469.506V469.587C121.857 469.897 122.073 470.22 122.261 470.557C122.45 470.894 122.437 470.975 122.544 471.164L115.901 475.651C115.402 475.139 114.863 474.627 114.297 474.128C113.327 473.252 112.383 472.457 111.507 471.905Z" fill="#455A64"/>
<path d="M123.838 490.232C123.838 490.232 121.358 492.86 115.429 494.275C109.499 495.69 101.953 494.868 98.7456 491.297L99.4059 480.799C99.4059 480.799 104.392 487.537 111.669 488.669C117.208 489.531 123.798 487.321 123.798 487.321L123.838 490.232Z" fill="#263238"/>
<path d="M124.242 487.82C124.242 487.82 118.475 481.81 112.276 480.866C103.867 479.586 99.4464 480.866 99.4464 480.866C98.0058 484.181 97.7722 487.895 98.7861 491.364C98.7861 491.364 102.411 487.456 110.915 487.146C115.412 487.155 119.846 488.212 123.865 490.232L124.242 487.82Z" fill="#37474F"/>
<path d="M100.511 490.03C102.333 488.945 104.323 488.17 106.4 487.739L107.492 480.381C105.407 480.247 103.315 480.296 101.239 480.529C100.374 483.618 100.127 486.846 100.511 490.03Z" fill="#455A64"/>
</g>
<defs>
<linearGradient id="paint0_linear_2670_27365" x1="567.955" y1="9.95898" x2="567.955" y2="19.6548" gradientUnits="userSpaceOnUse">
<stop stop-color="#FFBF01"/>
<stop offset="1" stop-color="#ECAA00"/>
</linearGradient>
<linearGradient id="paint1_linear_2670_27365" x1="320.097" y1="2.7356" x2="320.097" y2="12.4314" gradientUnits="userSpaceOnUse">
<stop stop-color="#FFBF01"/>
<stop offset="1" stop-color="#ECAA00"/>
</linearGradient>
<linearGradient id="paint2_linear_2670_27365" x1="635.706" y1="124.02" x2="635.706" y2="133.716" gradientUnits="userSpaceOnUse">
<stop stop-color="#FFBF01"/>
<stop offset="1" stop-color="#ECAA00"/>
</linearGradient>
<linearGradient id="paint3_linear_2670_27365" x1="133.278" y1="42.4363" x2="133.278" y2="52.1321" gradientUnits="userSpaceOnUse">
<stop stop-color="#FFBF01"/>
<stop offset="1" stop-color="#ECAA00"/>
</linearGradient>
<linearGradient id="paint4_linear_2670_27365" x1="302.969" y1="63.5801" x2="302.969" y2="73.3008" gradientUnits="userSpaceOnUse">
<stop stop-color="#FFBF01"/>
<stop offset="1" stop-color="#ECAA00"/>
</linearGradient>
<linearGradient id="paint5_linear_2670_27365" x1="166.699" y1="152.051" x2="166.699" y2="161.744" gradientUnits="userSpaceOnUse">
<stop stop-color="#FFBF01"/>
<stop offset="1" stop-color="#ECAA00"/>
</linearGradient>
<linearGradient id="paint6_linear_2670_27365" x1="40.219" y1="86.9341" x2="40.219" y2="96.6299" gradientUnits="userSpaceOnUse">
<stop stop-color="#FFBF01"/>
<stop offset="1" stop-color="#ECAA00"/>
</linearGradient>
<linearGradient id="paint7_linear_2670_27365" x1="636.883" y1="176.503" x2="636.883" y2="211.494" gradientUnits="userSpaceOnUse">
<stop stop-color="#FFBF01"/>
<stop offset="1" stop-color="#ECAA00"/>
</linearGradient>
<linearGradient id="paint8_linear_2670_27365" x1="218.373" y1="4.12183" x2="218.373" y2="32.9758" gradientUnits="userSpaceOnUse">
<stop stop-color="#FFBF01"/>
<stop offset="1" stop-color="#ECAA00"/>
</linearGradient>
<linearGradient id="paint9_linear_2670_27365" x1="498.869" y1="0" x2="498.869" y2="28.8001" gradientUnits="userSpaceOnUse">
<stop stop-color="#FFBF01"/>
<stop offset="1" stop-color="#ECAA00"/>
</linearGradient>
<linearGradient id="paint10_linear_2670_27365" x1="62.111" y1="13.5513" x2="62.111" y2="37.5112" gradientUnits="userSpaceOnUse">
<stop stop-color="#FFBF01"/>
<stop offset="1" stop-color="#ECAA00"/>
</linearGradient>
<linearGradient id="paint11_linear_2670_27365" x1="42.58" y1="205.364" x2="42.58" y2="233.399" gradientUnits="userSpaceOnUse">
<stop stop-color="#FFBF01"/>
<stop offset="1" stop-color="#ECAA00"/>
</linearGradient>
<linearGradient id="paint12_linear_2670_27365" x1="308.561" y1="515.118" x2="308.561" y2="546.994" gradientUnits="userSpaceOnUse">
<stop stop-color="#FFBF01"/>
<stop offset="1" stop-color="#ECAA00"/>
</linearGradient>
<linearGradient id="paint13_linear_2670_27365" x1="275.039" y1="509.984" x2="275.039" y2="602.247" gradientUnits="userSpaceOnUse">
<stop stop-color="#FFBF01"/>
<stop offset="1" stop-color="#ECAA00"/>
</linearGradient>
<linearGradient id="paint14_linear_2670_27365" x1="275.022" y1="510.001" x2="275.022" y2="590.763" gradientUnits="userSpaceOnUse">
<stop stop-color="#FFBF01"/>
<stop offset="1" stop-color="#ECAA00"/>
</linearGradient>
<linearGradient id="paint15_linear_2670_27365" x1="113.872" y1="134.208" x2="113.872" y2="247.609" gradientUnits="userSpaceOnUse">
<stop stop-color="#FFBF01"/>
<stop offset="1" stop-color="#ECAA00"/>
</linearGradient>
<linearGradient id="paint16_linear_2670_27365" x1="112.626" y1="135.65" x2="112.626" y2="247.609" gradientUnits="userSpaceOnUse">
<stop stop-color="#FFBF01"/>
<stop offset="1" stop-color="#ECAA00"/>
</linearGradient>
<linearGradient id="paint17_linear_2670_27365" x1="441.22" y1="261.846" x2="441.22" y2="392.578" gradientUnits="userSpaceOnUse">
<stop stop-color="#FFBF01"/>
<stop offset="1" stop-color="#ECAA00"/>
</linearGradient>
<linearGradient id="paint18_linear_2670_27365" x1="495.474" y1="261.847" x2="495.474" y2="416.673" gradientUnits="userSpaceOnUse">
<stop stop-color="#FFBF01"/>
<stop offset="1" stop-color="#ECAA00"/>
</linearGradient>
<linearGradient id="paint19_linear_2670_27365" x1="520.513" y1="307.625" x2="520.513" y2="438.37" gradientUnits="userSpaceOnUse">
<stop stop-color="#FFBF01"/>
<stop offset="1" stop-color="#ECAA00"/>
</linearGradient>
<linearGradient id="paint20_linear_2670_27365" x1="466.258" y1="273.881" x2="466.258" y2="438.396" gradientUnits="userSpaceOnUse">
<stop stop-color="#FFBF01"/>
<stop offset="1" stop-color="#ECAA00"/>
</linearGradient>
<linearGradient id="paint21_linear_2670_27365" x1="575.947" y1="392.214" x2="575.947" y2="483.676" gradientUnits="userSpaceOnUse">
<stop stop-color="#FFBF01"/>
<stop offset="1" stop-color="#ECAA00"/>
</linearGradient>
<linearGradient id="paint22_linear_2670_27365" x1="520.506" y1="392.214" x2="520.506" y2="483.676" gradientUnits="userSpaceOnUse">
<stop stop-color="#FFBF01"/>
<stop offset="1" stop-color="#ECAA00"/>
</linearGradient>
<linearGradient id="paint23_linear_2670_27365" x1="548.226" y1="360.208" x2="548.226" y2="424.233" gradientUnits="userSpaceOnUse">
<stop stop-color="#FFBF01"/>
<stop offset="1" stop-color="#ECAA00"/>
</linearGradient>
<linearGradient id="paint24_linear_2670_27365" x1="521.2" y1="406.027" x2="521.2" y2="470.685" gradientUnits="userSpaceOnUse">
<stop stop-color="#FFBF01"/>
<stop offset="1" stop-color="#ECAA00"/>
</linearGradient>
<linearGradient id="paint25_linear_2670_27365" x1="575.253" y1="406.027" x2="575.253" y2="470.685" gradientUnits="userSpaceOnUse">
<stop stop-color="#FFBF01"/>
<stop offset="1" stop-color="#ECAA00"/>
</linearGradient>
<linearGradient id="paint26_linear_2670_27365" x1="548.927" y1="374.021" x2="548.927" y2="411.229" gradientUnits="userSpaceOnUse">
<stop stop-color="#FFBF01"/>
<stop offset="1" stop-color="#ECAA00"/>
</linearGradient>
<linearGradient id="paint27_linear_2670_27365" x1="547.526" y1="374.021" x2="547.526" y2="411.229" gradientUnits="userSpaceOnUse">
<stop stop-color="#FFBF01"/>
<stop offset="1" stop-color="#ECAA00"/>
</linearGradient>
<linearGradient id="paint28_linear_2670_27365" x1="561.359" y1="368.631" x2="561.359" y2="393.103" gradientUnits="userSpaceOnUse">
<stop stop-color="#FFBF01"/>
<stop offset="1" stop-color="#ECAA00"/>
</linearGradient>
<linearGradient id="paint29_linear_2670_27365" x1="561.238" y1="368.631" x2="561.238" y2="395.179" gradientUnits="userSpaceOnUse">
<stop stop-color="#FFBF01"/>
<stop offset="1" stop-color="#ECAA00"/>
</linearGradient>
<linearGradient id="paint30_linear_2670_27365" x1="559.91" y1="372.876" x2="559.91" y2="380.652" gradientUnits="userSpaceOnUse">
<stop stop-color="#FFBF01"/>
<stop offset="1" stop-color="#ECAA00"/>
</linearGradient>
<linearGradient id="paint31_linear_2670_27365" x1="561.905" y1="383.819" x2="561.905" y2="397.945" gradientUnits="userSpaceOnUse">
<stop stop-color="#FFBF01"/>
<stop offset="1" stop-color="#ECAA00"/>
</linearGradient>
<linearGradient id="paint32_linear_2670_27365" x1="562.682" y1="383.601" x2="562.682" y2="396.931" gradientUnits="userSpaceOnUse">
<stop stop-color="#FFBF01"/>
<stop offset="1" stop-color="#ECAA00"/>
</linearGradient>
<linearGradient id="paint33_linear_2670_27365" x1="568.605" y1="383.612" x2="568.605" y2="393.912" gradientUnits="userSpaceOnUse">
<stop stop-color="#FFBF01"/>
<stop offset="1" stop-color="#ECAA00"/>
</linearGradient>
<linearGradient id="paint34_linear_2670_27365" x1="559.755" y1="393.171" x2="559.755" y2="410.865" gradientUnits="userSpaceOnUse">
<stop stop-color="#FFBF01"/>
<stop offset="1" stop-color="#ECAA00"/>
</linearGradient>
<linearGradient id="paint35_linear_2670_27365" x1="559.755" y1="392.415" x2="559.755" y2="410.865" gradientUnits="userSpaceOnUse">
<stop stop-color="#FFBF01"/>
<stop offset="1" stop-color="#ECAA00"/>
</linearGradient>
<linearGradient id="paint36_linear_2670_27365" x1="561.723" y1="393.575" x2="561.723" y2="401" gradientUnits="userSpaceOnUse">
<stop stop-color="#FFBF01"/>
<stop offset="1" stop-color="#ECAA00"/>
</linearGradient>
<linearGradient id="paint37_linear_2670_27365" x1="539.279" y1="369.332" x2="539.279" y2="392.767" gradientUnits="userSpaceOnUse">
<stop stop-color="#FFBF01"/>
<stop offset="1" stop-color="#ECAA00"/>
</linearGradient>
<linearGradient id="paint38_linear_2670_27365" x1="539.365" y1="369.372" x2="539.365" y2="392.767" gradientUnits="userSpaceOnUse">
<stop stop-color="#FFBF01"/>
<stop offset="1" stop-color="#ECAA00"/>
</linearGradient>
<linearGradient id="paint39_linear_2670_27365" x1="538.712" y1="371.299" x2="538.712" y2="378.9" gradientUnits="userSpaceOnUse">
<stop stop-color="#FFBF01"/>
<stop offset="1" stop-color="#ECAA00"/>
</linearGradient>
<linearGradient id="paint40_linear_2670_27365" x1="535.107" y1="380.881" x2="535.107" y2="395.612" gradientUnits="userSpaceOnUse">
<stop stop-color="#FFBF01"/>
<stop offset="1" stop-color="#ECAA00"/>
</linearGradient>
<linearGradient id="paint41_linear_2670_27365" x1="535.082" y1="380.596" x2="535.082" y2="393.885" gradientUnits="userSpaceOnUse">
<stop stop-color="#FFBF01"/>
<stop offset="1" stop-color="#ECAA00"/>
</linearGradient>
<linearGradient id="paint42_linear_2670_27365" x1="527.985" y1="380.625" x2="527.985" y2="388.629" gradientUnits="userSpaceOnUse">
<stop stop-color="#FFBF01"/>
<stop offset="1" stop-color="#ECAA00"/>
</linearGradient>
<linearGradient id="paint43_linear_2670_27365" x1="536.826" y1="392.295" x2="536.826" y2="412.537" gradientUnits="userSpaceOnUse">
<stop stop-color="#FFBF01"/>
<stop offset="1" stop-color="#ECAA00"/>
</linearGradient>
<linearGradient id="paint44_linear_2670_27365" x1="536.954" y1="392.13" x2="536.954" y2="412.509" gradientUnits="userSpaceOnUse">
<stop stop-color="#FFBF01"/>
<stop offset="1" stop-color="#ECAA00"/>
</linearGradient>
<linearGradient id="paint45_linear_2670_27365" x1="531.456" y1="397.82" x2="531.456" y2="410.11" gradientUnits="userSpaceOnUse">
<stop stop-color="#FFBF01"/>
<stop offset="1" stop-color="#ECAA00"/>
</linearGradient>
<linearGradient id="paint46_linear_2670_27365" x1="352.52" y1="80.5134" x2="352.52" y2="264.73" gradientUnits="userSpaceOnUse">
<stop stop-color="#FFBF01"/>
<stop offset="1" stop-color="#ECAA00"/>
</linearGradient>
<linearGradient id="paint47_linear_2670_27365" x1="363.227" y1="92.9375" x2="363.227" y2="264.744" gradientUnits="userSpaceOnUse">
<stop stop-color="#FFBF01"/>
<stop offset="1" stop-color="#ECAA00"/>
</linearGradient>
<linearGradient id="paint48_linear_2670_27365" x1="255.89" y1="76.51" x2="255.89" y2="249.691" gradientUnits="userSpaceOnUse">
<stop stop-color="#FFBF01"/>
<stop offset="1" stop-color="#ECAA00"/>
</linearGradient>
<linearGradient id="paint49_linear_2670_27365" x1="266.678" y1="88.9214" x2="266.678" y2="249.731" gradientUnits="userSpaceOnUse">
<stop stop-color="#FFBF01"/>
<stop offset="1" stop-color="#ECAA00"/>
</linearGradient>
<linearGradient id="paint50_linear_2670_27365" x1="232.314" y1="103.718" x2="232.314" y2="152.434" gradientUnits="userSpaceOnUse">
<stop stop-color="#FFBF01"/>
<stop offset="1" stop-color="#ECAA00"/>
</linearGradient>
<linearGradient id="paint51_linear_2670_27365" x1="248.209" y1="143.257" x2="248.209" y2="249.691" gradientUnits="userSpaceOnUse">
<stop stop-color="#FFBF01"/>
<stop offset="1" stop-color="#ECAA00"/>
</linearGradient>
<linearGradient id="paint52_linear_2670_27365" x1="434.785" y1="302.287" x2="434.785" y2="474.067" gradientUnits="userSpaceOnUse">
<stop stop-color="#FFBF01"/>
<stop offset="1" stop-color="#ECAA00"/>
</linearGradient>
<linearGradient id="paint53_linear_2670_27365" x1="338.195" y1="298.07" x2="338.195" y2="458.853" gradientUnits="userSpaceOnUse">
<stop stop-color="#FFBF01"/>
<stop offset="1" stop-color="#ECAA00"/>
</linearGradient>
<linearGradient id="paint54_linear_2670_27365" x1="133.857" y1="322.388" x2="133.857" y2="463.267" gradientUnits="userSpaceOnUse">
<stop stop-color="#FFBF01"/>
<stop offset="1" stop-color="#ECAA00"/>
</linearGradient>
<linearGradient id="paint55_linear_2670_27365" x1="75.7285" y1="322.388" x2="75.7285" y2="489.087" gradientUnits="userSpaceOnUse">
<stop stop-color="#FFBF01"/>
<stop offset="1" stop-color="#ECAA00"/>
</linearGradient>
<linearGradient id="paint56_linear_2670_27365" x1="48.8976" y1="371.441" x2="48.8976" y2="512.32" gradientUnits="userSpaceOnUse">
<stop stop-color="#FFBF01"/>
<stop offset="1" stop-color="#ECAA00"/>
</linearGradient>
<linearGradient id="paint57_linear_2670_27365" x1="107.013" y1="335.298" x2="107.013" y2="512.333" gradientUnits="userSpaceOnUse">
<stop stop-color="#FFBF01"/>
<stop offset="1" stop-color="#ECAA00"/>
</linearGradient>
<linearGradient id="paint58_linear_2670_27365" x1="220.401" y1="396.021" x2="220.401" y2="520.001" gradientUnits="userSpaceOnUse">
<stop stop-color="#FFBF01"/>
<stop offset="1" stop-color="#ECAA00"/>
</linearGradient>
<linearGradient id="paint59_linear_2670_27365" x1="163.687" y1="396.021" x2="163.687" y2="520.001" gradientUnits="userSpaceOnUse">
<stop stop-color="#FFBF01"/>
<stop offset="1" stop-color="#ECAA00"/>
</linearGradient>
<linearGradient id="paint60_linear_2670_27365" x1="192.047" y1="363.274" x2="192.047" y2="428.768" gradientUnits="userSpaceOnUse">
<stop stop-color="#FFBF01"/>
<stop offset="1" stop-color="#ECAA00"/>
</linearGradient>
<linearGradient id="paint61_linear_2670_27365" x1="164.401" y1="410.158" x2="164.401" y2="506.714" gradientUnits="userSpaceOnUse">
<stop stop-color="#FFBF01"/>
<stop offset="1" stop-color="#ECAA00"/>
</linearGradient>
<linearGradient id="paint62_linear_2670_27365" x1="219.687" y1="410.158" x2="219.687" y2="506.714" gradientUnits="userSpaceOnUse">
<stop stop-color="#FFBF01"/>
<stop offset="1" stop-color="#ECAA00"/>
</linearGradient>
<linearGradient id="paint63_linear_2670_27365" x1="192.762" y1="377.411" x2="192.762" y2="415.467" gradientUnits="userSpaceOnUse">
<stop stop-color="#FFBF01"/>
<stop offset="1" stop-color="#ECAA00"/>
</linearGradient>
<linearGradient id="paint64_linear_2670_27365" x1="191.326" y1="377.411" x2="191.326" y2="415.467" gradientUnits="userSpaceOnUse">
<stop stop-color="#FFBF01"/>
<stop offset="1" stop-color="#ECAA00"/>
</linearGradient>
<linearGradient id="paint65_linear_2670_27365" x1="205.463" y1="371.926" x2="205.463" y2="396.924" gradientUnits="userSpaceOnUse">
<stop stop-color="#FFBF01"/>
<stop offset="1" stop-color="#ECAA00"/>
</linearGradient>
<linearGradient id="paint66_linear_2670_27365" x1="205.368" y1="371.899" x2="205.368" y2="399.04" gradientUnits="userSpaceOnUse">
<stop stop-color="#FFBF01"/>
<stop offset="1" stop-color="#ECAA00"/>
</linearGradient>
<linearGradient id="paint67_linear_2670_27365" x1="203.947" y1="376.333" x2="203.947" y2="384.189" gradientUnits="userSpaceOnUse">
<stop stop-color="#FFBF01"/>
<stop offset="1" stop-color="#ECAA00"/>
</linearGradient>
<linearGradient id="paint68_linear_2670_27365" x1="206.035" y1="387.491" x2="206.035" y2="401.88" gradientUnits="userSpaceOnUse">
<stop stop-color="#FFBF01"/>
<stop offset="1" stop-color="#ECAA00"/>
</linearGradient>
<linearGradient id="paint69_linear_2670_27365" x1="206.828" y1="387.213" x2="206.828" y2="400.845" gradientUnits="userSpaceOnUse">
<stop stop-color="#FFBF01"/>
<stop offset="1" stop-color="#ECAA00"/>
</linearGradient>
<linearGradient id="paint70_linear_2670_27365" x1="212.838" y1="387.229" x2="212.838" y2="397.746" gradientUnits="userSpaceOnUse">
<stop stop-color="#FFBF01"/>
<stop offset="1" stop-color="#ECAA00"/>
</linearGradient>
<linearGradient id="paint71_linear_2670_27365" x1="203.839" y1="396.924" x2="203.839" y2="415.09" gradientUnits="userSpaceOnUse">
<stop stop-color="#FFBF01"/>
<stop offset="1" stop-color="#ECAA00"/>
</linearGradient>
<linearGradient id="paint72_linear_2670_27365" x1="203.866" y1="396.223" x2="203.866" y2="415.09" gradientUnits="userSpaceOnUse">
<stop stop-color="#FFBF01"/>
<stop offset="1" stop-color="#ECAA00"/>
</linearGradient>
<linearGradient id="paint73_linear_2670_27365" x1="205.867" y1="397.449" x2="205.867" y2="405.036" gradientUnits="userSpaceOnUse">
<stop stop-color="#FFBF01"/>
<stop offset="1" stop-color="#ECAA00"/>
</linearGradient>
<linearGradient id="paint74_linear_2670_27365" x1="182.903" y1="372.613" x2="182.903" y2="396.587" gradientUnits="userSpaceOnUse">
<stop stop-color="#FFBF01"/>
<stop offset="1" stop-color="#ECAA00"/>
</linearGradient>
<linearGradient id="paint75_linear_2670_27365" x1="182.978" y1="372.64" x2="182.978" y2="396.587" gradientUnits="userSpaceOnUse">
<stop stop-color="#FFBF01"/>
<stop offset="1" stop-color="#ECAA00"/>
</linearGradient>
<linearGradient id="paint76_linear_2670_27365" x1="182.351" y1="374.621" x2="182.351" y2="382.411" gradientUnits="userSpaceOnUse">
<stop stop-color="#FFBF01"/>
<stop offset="1" stop-color="#ECAA00"/>
</linearGradient>
<linearGradient id="paint77_linear_2670_27365" x1="178.632" y1="384.432" x2="178.632" y2="399.494" gradientUnits="userSpaceOnUse">
<stop stop-color="#FFBF01"/>
<stop offset="1" stop-color="#ECAA00"/>
</linearGradient>
<linearGradient id="paint78_linear_2670_27365" x1="178.606" y1="384.163" x2="178.606" y2="397.746" gradientUnits="userSpaceOnUse">
<stop stop-color="#FFBF01"/>
<stop offset="1" stop-color="#ECAA00"/>
</linearGradient>
<linearGradient id="paint79_linear_2670_27365" x1="171.335" y1="384.162" x2="171.335" y2="392.356" gradientUnits="userSpaceOnUse">
<stop stop-color="#FFBF01"/>
<stop offset="1" stop-color="#ECAA00"/>
</linearGradient>
<linearGradient id="paint80_linear_2670_27365" x1="180.431" y1="396.102" x2="180.431" y2="416.816" gradientUnits="userSpaceOnUse">
<stop stop-color="#FFBF01"/>
<stop offset="1" stop-color="#ECAA00"/>
</linearGradient>
<linearGradient id="paint81_linear_2670_27365" x1="180.518" y1="395.963" x2="180.518" y2="416.815" gradientUnits="userSpaceOnUse">
<stop stop-color="#FFBF01"/>
<stop offset="1" stop-color="#ECAA00"/>
</linearGradient>
<linearGradient id="paint82_linear_2670_27365" x1="174.899" y1="401.748" x2="174.899" y2="414.322" gradientUnits="userSpaceOnUse">
<stop stop-color="#FFBF01"/>
<stop offset="1" stop-color="#ECAA00"/>
</linearGradient>
<linearGradient id="paint83_linear_2670_27365" x1="100.821" y1="487.793" x2="100.821" y2="543.085" gradientUnits="userSpaceOnUse">
<stop stop-color="#FFBF01"/>
<stop offset="1" stop-color="#ECAA00"/>
</linearGradient>
<linearGradient id="paint84_linear_2670_27365" x1="144.584" y1="487.793" x2="144.584" y2="543.085" gradientUnits="userSpaceOnUse">
<stop stop-color="#FFBF01"/>
<stop offset="1" stop-color="#ECAA00"/>
</linearGradient>
<linearGradient id="paint85_linear_2670_27365" x1="122.699" y1="462.526" x2="122.699" y2="513.061" gradientUnits="userSpaceOnUse">
<stop stop-color="#FFBF01"/>
<stop offset="1" stop-color="#ECAA00"/>
</linearGradient>
<clipPath id="clip0_2670_27365">
<rect width="640" height="640" fill="white"/>
</clipPath>
</defs>
</svg>
