<svg width="640" height="640" viewBox="0 0 640 640" fill="none" xmlns="http://www.w3.org/2000/svg">
<g clip-path="url(#clip0_2670_27360)">
<g opacity="0.32">
<path d="M491.387 540.978C464.03 517.203 461.445 478.323 466.334 444.128C467.149 438.422 467.177 432.31 470.451 427.583C473.725 422.856 480.497 420.087 485.387 423.065C489.448 425.527 490.782 430.674 492.721 435.023C495.327 440.823 499.525 445.773 504.833 449.302C508.304 451.596 512.701 453.232 516.537 451.638C521.806 449.442 523.127 442.673 523.703 436.967C524.78 426.347 525.867 415.723 526.963 405.094C527.539 399.388 528.157 393.57 530.518 388.311C532.878 383.053 537.36 378.521 542.967 377.556C548.573 376.591 554.98 380.465 555.528 386.172C555.753 388.535 555.022 390.899 554.924 393.276C554.825 395.654 555.654 398.395 557.832 399.304C560.01 400.213 562.553 398.87 564.408 397.472C570.941 392.353 575.747 385.374 580.299 378.395C584.852 371.417 589.292 364.27 595.333 358.578C601.375 352.886 609.384 348.704 617.576 349.11C625.767 349.515 634.015 355.501 635.223 363.739C636.432 371.976 630.839 379.64 625.008 385.598C616.367 394.429 606.485 401.967 595.671 407.975C593.732 409.052 591.624 410.227 590.711 412.255C589.053 415.933 592.256 420.087 595.895 421.737C600.012 423.611 604.691 423.667 609.089 424.674C613.487 425.681 618.124 428.156 619.36 432.534C621.074 438.604 615.51 444.184 610.269 447.666C599.759 454.646 588.118 459.77 575.859 462.813C571.475 463.889 566.895 464.771 563.214 467.344C559.532 469.917 556.891 474.826 558.507 479.064C560.122 483.301 565.251 485.148 569.747 484.812C574.243 484.476 578.459 482.504 582.828 481.385C591.02 479.274 601.094 480.896 605.436 488.21C608.246 493.008 607.881 499.231 605.632 504.364C603.384 509.497 599.492 513.692 595.432 517.51C581.227 530.88 563.804 541.006 544.849 545.356C525.895 549.705 508.824 549.551 491.457 541.034" fill="#4FAE3F"/>
<path d="M502.614 520.419C510.364 502.334 519.15 484.706 528.931 467.624L536.546 454.141C539.047 449.722 541.534 445.33 544.232 441.191C549.421 433.258 555.05 425.619 561.093 418.31C566.811 411.317 572.502 404.828 577.869 398.828C583.237 392.828 588.365 387.346 593.241 382.535C600.896 374.899 609.151 367.884 617.928 361.557C621.033 359.319 623.548 357.655 625.178 356.55L627.103 355.319C627.313 355.165 627.539 355.034 627.777 354.927C627.59 355.108 627.382 355.268 627.159 355.403L625.29 356.732C623.66 357.892 621.23 359.599 618.181 361.892C609.518 368.32 601.355 375.389 593.761 383.039C588.927 387.864 583.855 393.36 578.516 399.374C573.176 405.388 567.528 411.863 561.837 418.884C555.842 426.191 550.246 433.815 545.075 441.722C542.405 445.848 539.947 450.183 537.431 454.617L529.83 468.099C520.083 485.161 511.306 502.755 503.541 520.797" fill="white"/>
<path d="M544.541 441.191C544.357 440.373 544.258 439.539 544.246 438.701C544.12 437.093 544.007 434.757 543.909 431.876C543.712 426.114 543.726 418.156 543.754 409.373C543.782 400.59 543.754 392.591 543.403 386.899C543.263 384.032 543.136 381.71 543.024 380.102C542.937 379.269 542.937 378.43 543.024 377.598C543.28 378.396 543.435 379.223 543.487 380.06C543.726 381.654 543.979 383.976 544.204 386.857C544.682 392.605 544.906 400.576 544.878 409.373C544.85 418.17 544.752 425.876 544.724 431.862C544.724 434.575 544.724 436.855 544.724 438.687C544.761 439.526 544.7 440.366 544.541 441.191Z" fill="white"/>
<path d="M619.643 435.387C618.652 435.485 617.654 435.485 616.664 435.387C614.753 435.387 611.999 435.289 608.585 435.317C601.77 435.317 592.342 435.638 581.973 436.464C571.603 437.289 562.232 438.449 555.473 439.484C552.101 439.974 549.375 440.435 547.492 440.757C546.523 440.979 545.535 441.11 544.542 441.149C545.453 440.801 546.393 440.534 547.352 440.351C549.221 439.904 551.932 439.317 555.305 438.729C562.035 437.512 571.421 436.24 581.832 435.401C590.71 434.663 599.621 434.383 608.529 434.561C611.943 434.631 614.711 434.799 616.622 434.967C617.639 435.019 618.65 435.159 619.643 435.387Z" fill="white"/>
<path d="M503.667 519.147C503.479 518.859 503.341 518.543 503.259 518.209C502.992 517.454 502.669 516.531 502.29 515.412C501.447 512.993 500.337 509.454 499.016 505.077C496.375 496.294 493.115 484.099 489.686 470.519C486.258 456.939 483.111 444.715 480.666 435.89C479.458 431.611 478.46 428.086 477.729 425.457C477.406 424.324 477.153 423.387 476.942 422.66C476.833 422.329 476.762 421.986 476.732 421.639C476.914 421.934 477.051 422.255 477.139 422.59L478.123 425.387C478.952 427.807 480.062 431.345 481.382 435.736C484.024 444.505 487.298 456.715 490.712 470.295C494.126 483.875 497.288 496.098 499.733 504.909C500.941 509.203 501.939 512.727 502.683 515.342L503.456 518.14C503.564 518.466 503.635 518.804 503.667 519.147Z" fill="white"/>
<path d="M604.874 498.28C604.555 498.431 604.214 498.53 603.863 498.574L600.912 499.217L590.079 501.469C580.932 503.385 568.315 506.154 554.39 509.245C540.466 512.335 527.792 514.993 518.603 516.713C514.009 517.58 510.285 518.237 507.7 518.629L504.721 519.076C504.377 519.16 504.021 519.188 503.667 519.16C503.993 519.026 504.332 518.927 504.679 518.867L507.63 518.223L518.463 515.972C527.61 514.07 540.227 511.286 554.166 508.196C568.104 505.105 580.735 502.448 589.939 500.727C594.533 499.874 598.257 499.217 600.842 498.811L603.821 498.364C604.165 498.28 604.521 498.252 604.874 498.28Z" fill="white"/>
</g>
<path d="M579.24 76.0967H410.997V225.924H579.24V76.0967Z" fill="#FAFAFA"/>
<path d="M579.24 225.938C579.24 225.938 579.24 224.973 579.24 223.141C579.24 221.309 579.24 218.61 579.24 215.113C579.24 208.121 579.24 197.785 579.142 184.695C579.142 158.514 579.029 121.116 578.945 76.0826L579.324 76.4742L411.067 76.5581L411.517 76.1105C411.517 130.654 411.517 181.926 411.517 225.952L411.124 225.547L532.817 225.756L567.128 225.854H576.219H578.566C579.085 225.854 579.366 225.854 579.366 225.854H578.608H576.303H567.297L533.069 225.952L411.124 226.162H410.73V225.77C410.73 181.744 410.73 130.445 410.73 75.9287V75.4812H411.067L579.296 75.5511H579.675V75.9287C579.591 121.06 579.521 158.542 579.479 184.779C579.479 197.841 579.394 208.093 579.38 215.113C579.38 218.582 579.38 221.239 579.38 223.071C579.38 224.903 579.24 225.938 579.24 225.938Z" fill="url(#paint0_linear_2670_27360)"/>
<path d="M475.504 102.725C475.504 102.977 466.652 103.173 455.735 103.173C444.817 103.173 435.951 102.977 435.951 102.725C435.951 102.473 444.803 102.278 455.735 102.278C466.666 102.278 475.504 102.473 475.504 102.725Z" fill="url(#paint1_linear_2670_27360)"/>
<path d="M546.796 113.97C546.796 114.221 522.475 114.417 492.462 114.417C462.45 114.417 438.128 114.221 438.128 113.97C438.128 113.718 462.45 113.522 492.462 113.522C522.475 113.522 546.796 113.732 546.796 113.97Z" fill="url(#paint2_linear_2670_27360)"/>
<path d="M443.328 133.032H436.246V140.081H443.328V133.032Z" fill="url(#paint3_linear_2670_27360)"/>
<path d="M460.764 133.032H453.682V140.081H460.764V133.032Z" fill="url(#paint4_linear_2670_27360)"/>
<path d="M478.538 132.71H471.457V139.759H478.538V132.71Z" fill="url(#paint5_linear_2670_27360)"/>
<path d="M495.667 133.032H488.585V140.081H495.667V133.032Z" fill="url(#paint6_linear_2670_27360)"/>
<path d="M513.118 133.032H506.036V140.081H513.118V133.032Z" fill="url(#paint7_linear_2670_27360)"/>
<path d="M530.568 133.032H523.487V140.081H530.568V133.032Z" fill="url(#paint8_linear_2670_27360)"/>
<path d="M548.019 133.032H540.938V140.081H548.019V133.032Z" fill="#EBEBEB"/>
<path d="M443.328 148.024H436.246V155.073H443.328V148.024Z" fill="#EBEBEB"/>
<path d="M460.764 148.024H453.682V155.073H460.764V148.024Z" fill="url(#paint9_linear_2670_27360)"/>
<path d="M478.214 148.024H471.133V155.073H478.214V148.024Z" fill="#EBEBEB"/>
<path d="M495.667 148.024H488.585V155.073H495.667V148.024Z" fill="url(#paint10_linear_2670_27360)"/>
<path d="M513.118 148.024H506.036V155.073H513.118V148.024Z" fill="url(#paint11_linear_2670_27360)"/>
<path d="M530.891 147.703H523.809V154.766H530.891V147.703Z" fill="url(#paint12_linear_2670_27360)"/>
<path d="M548.019 148.024H540.938V155.073H548.019V148.024Z" fill="url(#paint13_linear_2670_27360)"/>
<path d="M443.328 163.031H436.246V170.08H443.328V163.031Z" fill="url(#paint14_linear_2670_27360)"/>
<path d="M461.088 162.709H454.006V169.758H461.088V162.709Z" fill="url(#paint15_linear_2670_27360)"/>
<path d="M478.214 163.031H471.133V170.08H478.214V163.031Z" fill="url(#paint16_linear_2670_27360)"/>
<path d="M495.667 163.031H488.585V170.08H495.667V163.031Z" fill="#EBEBEB"/>
<path d="M513.118 163.031H506.036V170.08H513.118V163.031Z" fill="url(#paint17_linear_2670_27360)"/>
<path d="M530.568 163.031H523.487V170.08H530.568V163.031Z" fill="url(#paint18_linear_2670_27360)"/>
<path d="M548.019 163.031H540.938V170.08H548.019V163.031Z" fill="url(#paint19_linear_2670_27360)"/>
<path d="M443.328 178.024H436.246V185.086H443.328V178.024Z" fill="url(#paint20_linear_2670_27360)"/>
<path d="M460.764 178.024H453.682V185.086H460.764V178.024Z" fill="url(#paint21_linear_2670_27360)"/>
<path d="M478.214 178.024H471.133V185.086H478.214V178.024Z" fill="url(#paint22_linear_2670_27360)"/>
<path d="M495.989 177.702H488.907V184.751H495.989V177.702Z" fill="url(#paint23_linear_2670_27360)"/>
<path d="M513.118 178.024H506.036V185.086H513.118V178.024Z" fill="url(#paint24_linear_2670_27360)"/>
<path d="M530.568 178.024H523.487V185.086H530.568V178.024Z" fill="#EBEBEB"/>
<path d="M548.019 178.024H540.938V185.086H548.019V178.024Z" fill="url(#paint25_linear_2670_27360)"/>
<path d="M443.328 193.03H436.246V200.079H443.328V193.03Z" fill="url(#paint26_linear_2670_27360)"/>
<path d="M460.764 193.03H453.682V200.079H460.764V193.03Z" fill="#EBEBEB"/>
<path d="M478.214 193.03H471.133V200.079H478.214V193.03Z" fill="url(#paint27_linear_2670_27360)"/>
<path d="M495.667 193.03H488.585V200.079H495.667V193.03Z" fill="url(#paint28_linear_2670_27360)"/>
<path d="M513.118 193.03H506.036V200.079H513.118V193.03Z" fill="url(#paint29_linear_2670_27360)"/>
<path d="M530.891 192.708H523.809V199.757H530.891V192.708Z" fill="url(#paint30_linear_2670_27360)"/>
<g opacity="0.32">
<path d="M11.3884 364.787C11.3884 364.787 1.01886 368.975 12.9823 390.9C24.9457 412.825 33.1283 423.626 33.1283 423.626C33.1283 423.626 35.2875 428.736 30.9414 429.649C26.5952 430.563 16.9578 429.28 15.1878 434.649C13.3344 440.183 17.4674 445.302 25.7427 449.656C34.018 454.01 51.7917 464.202 53.3948 465.124C54.998 466.047 56.5826 468.399 53.7285 469.497C50.8743 470.594 29.2826 473.371 31.2286 483.517C33.1747 493.663 58.2321 501.965 60.9473 502.887C63.6625 503.809 64.3389 504.972 64.1629 506.447C63.9868 507.923 56.6475 508.181 50.5499 509.215C44.4524 510.248 37.5764 512.535 39.1888 518.272C40.8013 524.01 55.8135 535.752 91.5926 538.307L108.273 538.417L116.928 524.222C133.673 492.639 131.597 473.749 127.566 469.349C123.535 464.949 117.947 469.561 113.833 474.164C109.718 478.767 105.613 484.817 104.251 484.181C102.889 483.544 102.296 482.392 102.917 479.569C103.538 476.746 109.663 451.187 102.083 444.195C94.5024 437.204 80.7319 454 78.2855 455.79C75.8391 457.579 74.6807 455.006 74.7456 453.198C74.8104 451.39 75.5054 430.941 76.1727 421.652C76.8399 412.364 74.69 406.156 68.9631 404.8C63.403 403.49 59.4183 412.308 56.3417 415.5C53.2651 418.691 50.0495 414.162 50.0495 414.162C50.0495 414.162 45.1752 401.544 32.804 379.831C20.4328 358.118 11.1845 364.888 11.1845 364.888" fill="url(#paint31_linear_2670_27360)"/>
<path d="M109.218 542.328C100.201 526.353 84.6424 497.685 71.1685 473.149C57.6946 448.614 45.4717 426.412 36.5292 410.427L25.928 391.416C24.6862 389.193 23.7225 387.459 23.046 386.26L22.3139 384.914C22.1471 384.609 22.073 384.443 22.073 384.443C22.073 384.443 22.1749 384.591 22.3603 384.886L23.1387 386.214L26.1041 391.324C28.671 395.761 32.3499 402.218 36.8535 410.205C45.8701 426.181 58.1672 448.355 71.6226 472.928C85.078 497.5 100.6 526.131 109.515 542.153" fill="white"/>
<path d="M28.5688 436.973C28.967 437.032 29.3582 437.131 29.7365 437.268C30.4871 437.481 31.5898 437.831 32.8594 438.265C35.4819 439.187 39.0774 440.46 43.0529 441.954L53.1166 445.874L56.1746 447.046C56.5625 447.159 56.9357 447.317 57.2867 447.516C56.8847 447.466 56.4899 447.37 56.1098 447.23C55.3684 447.009 54.3028 446.668 52.9961 446.216C50.3829 445.293 46.8059 443.956 42.8675 442.434L32.7852 438.587L29.7179 437.434C29.3177 437.327 28.9319 437.172 28.5688 436.973Z" fill="white"/>
<path d="M58.3432 446.446C58.2135 446.4 60.595 438.91 63.6716 429.723C66.7482 420.536 69.3615 413.12 69.5005 413.12C69.6395 413.12 67.2486 420.656 64.1628 429.852C61.0769 439.049 58.4822 446.492 58.3432 446.446Z" fill="white"/>
<path d="M77.3394 485.057C77.5143 484.686 77.732 484.336 77.988 484.015C78.4977 483.286 79.1279 482.364 79.8877 481.248C81.4909 478.933 83.6871 475.713 85.9853 472.107C88.2835 468.5 90.2573 465.143 91.6659 462.708C92.3331 461.564 92.8891 460.596 93.3432 459.83C93.5266 459.464 93.7471 459.118 94.0011 458.797C93.8871 459.19 93.7253 459.568 93.5192 459.922C93.1764 460.632 92.6574 461.647 91.9902 462.883C90.6651 465.364 88.7376 468.749 86.4301 472.384C84.1227 476.018 81.8708 479.191 80.1935 481.451C79.3503 482.585 78.6552 483.489 78.1548 484.098C77.9205 484.447 77.6469 484.769 77.3394 485.057Z" fill="white"/>
<path d="M48.511 482.391C48.8895 482.346 49.2723 482.346 49.6508 482.391L52.7367 482.557C55.3406 482.714 58.9361 482.973 62.9301 483.286C66.9241 483.6 70.4919 483.923 73.1236 484.209L76.2002 484.541C76.5802 484.556 76.9567 484.618 77.3215 484.725C76.9429 484.771 76.5602 484.771 76.1817 484.725L73.0958 484.559C70.4919 484.402 66.8963 484.144 62.9023 483.83C58.9083 483.517 55.3406 483.194 52.7088 482.908L49.6323 482.585C49.2522 482.564 48.8759 482.499 48.511 482.391Z" fill="white"/>
<path d="M60.9194 518.568C61.4066 518.526 61.8964 518.526 62.3836 518.568L66.3405 518.771C69.6766 518.955 74.2822 519.25 79.3789 519.61C84.4757 519.97 89.072 520.311 92.4081 520.597L96.3557 520.957C96.839 520.983 97.3193 521.047 97.7921 521.15C97.3083 521.198 96.8209 521.198 96.3372 521.15L92.3803 520.957C89.0442 520.772 84.4293 520.477 79.3419 520.117C74.2544 519.758 69.6395 519.407 66.3127 519.13L62.3651 518.771C61.8776 518.751 61.3934 518.683 60.9194 518.568Z" fill="white"/>
<path d="M96.9302 520.874C97.1527 520.406 97.4163 519.958 97.7179 519.536L100.007 515.976C101.934 512.978 104.575 508.818 107.365 504.141C110.154 499.465 112.582 495.176 114.315 492.058C115.139 490.555 115.834 489.291 116.363 488.369C116.591 487.903 116.861 487.458 117.169 487.04C117 487.531 116.789 488.006 116.539 488.461C116.112 489.383 115.464 490.656 114.63 492.233C112.98 495.406 110.608 499.732 107.809 504.418C105.011 509.104 102.314 513.236 100.313 516.188C99.3025 517.664 98.4592 518.853 97.8847 519.656C97.6032 520.089 97.2838 520.496 96.9302 520.874Z" fill="white"/>
</g>
<path d="M185.422 99.341L171.778 99.4768L172.457 167.027L186.1 166.891L185.422 99.341Z" fill="#4FAE3F" fill-opacity="0.16"/>
<path d="M88.9385 99.9667L53.6292 100.318L54.0037 137.604L89.3131 137.252L88.9385 99.9667Z" fill="#EBEBEB"/>
<path d="M124.09 99.6026L88.7808 99.9541L89.1554 137.24L124.465 136.888L124.09 99.6026Z" fill="#F5F5F5"/>
<path d="M53.2336 111.226C76.6982 111.408 100.233 111.226 123.698 110.905C123.798 110.905 123.895 110.865 123.966 110.794C124.037 110.723 124.077 110.627 124.077 110.527C124.077 110.427 124.037 110.331 123.966 110.26C123.895 110.189 123.798 110.149 123.698 110.149C100.214 110.019 76.7263 110.163 53.2336 110.583C53.1479 110.583 53.0657 110.617 53.0051 110.677C52.9445 110.738 52.9104 110.819 52.9104 110.905C52.9104 110.99 52.9445 111.072 53.0051 111.132C53.0657 111.192 53.1479 111.226 53.2336 111.226Z" fill="#4FAE3F" fill-opacity="0.16"/>
<path d="M95.3367 137.397L31.1682 137.742L31.3334 168.133L95.5019 167.787L95.3367 137.397Z" fill="#EBEBEB"/>
<path d="M159.194 137.039L95.0251 137.385L95.1903 167.775L159.359 167.429L159.194 137.039Z" fill="#F5F5F5"/>
<path d="M31.2018 146.19C73.8316 146.68 116.602 146.19 159.232 145.561C159.318 145.544 159.396 145.498 159.452 145.431C159.508 145.363 159.538 145.278 159.538 145.19C159.538 145.103 159.508 145.018 159.452 144.95C159.396 144.883 159.318 144.837 159.232 144.82C116.616 144.596 73.8316 144.624 31.2159 145.561C31.1434 145.576 31.0784 145.616 31.0318 145.673C30.9852 145.731 30.9597 145.802 30.9597 145.876C30.9597 145.949 30.9852 146.021 31.0318 146.078C31.0784 146.136 31.1434 146.175 31.2159 146.19H31.2018Z" fill="#4FAE3F" fill-opacity="0.16"/>
<path d="M255.802 168.134H7.21802V179.014H255.802V168.134Z" fill="#4FAE3F" fill-opacity="0.16"/>
<path d="M57.9971 173.365H47.9087V210.51H57.9971V173.365Z" fill="#4FAE3F" fill-opacity="0.16"/>
<path d="M208.649 173.365H198.561V210.51H208.649V173.365Z" fill="#4FAE3F" fill-opacity="0.16"/>
<path d="M198.282 75.3618L184.639 75.4353L185.144 168.326L198.787 168.253L198.282 75.3618Z" fill="#EBEBEB"/>
<path d="M219.579 92.6593L198.39 92.7734L198.8 168.057L219.988 167.943L219.579 92.6593Z" fill="#F5F5F5"/>
<path d="M219.44 107.171C215.921 107.53 212.382 107.652 208.846 107.534C205.31 107.652 201.771 107.531 198.252 107.171C201.77 106.802 205.31 106.68 208.846 106.807C212.382 106.681 215.922 106.803 219.44 107.171Z" fill="#4FAE3F" fill-opacity="0.16"/>
<path d="M219.44 104.01C215.921 104.369 212.382 104.491 208.846 104.373C205.31 104.491 201.771 104.37 198.252 104.01C201.77 103.641 205.31 103.52 208.846 103.646C212.382 103.52 215.922 103.642 219.44 104.01Z" fill="#4FAE3F" fill-opacity="0.16"/>
<path d="M219.44 156.652C215.921 157.011 212.382 157.133 208.846 157.015C205.31 157.133 201.771 157.012 198.252 156.652C201.77 156.283 205.31 156.161 208.846 156.288C212.382 156.162 215.922 156.283 219.44 156.652Z" fill="#4FAE3F" fill-opacity="0.16"/>
<path d="M219.44 153.463C215.921 153.823 212.382 153.944 208.846 153.827C205.31 153.945 201.771 153.823 198.252 153.463C201.77 153.085 205.31 152.959 208.846 153.085C212.382 152.959 215.922 153.086 219.44 153.463Z" fill="#4FAE3F" fill-opacity="0.16"/>
<path d="M209.183 146.554C208.972 146.554 208.817 138.96 208.817 129.59C208.817 120.219 208.972 112.625 209.183 112.625C209.393 112.625 209.548 120.219 209.548 129.59C209.548 138.96 209.379 146.554 209.183 146.554Z" fill="#4FAE3F" fill-opacity="0.16"/>
<path d="M242.736 111.156H219.665V167.98H242.736V111.156Z" fill="#EBEBEB"/>
<path d="M195.231 91.2269C195.231 91.9987 195.001 92.7531 194.57 93.3948C194.139 94.0364 193.527 94.5366 192.811 94.8319C192.095 95.1272 191.306 95.2045 190.546 95.0539C189.786 94.9034 189.087 94.5317 188.539 93.986C187.991 93.4403 187.617 92.7451 187.466 91.9882C187.315 91.2313 187.392 90.4467 187.689 89.7337C187.986 89.0207 188.488 88.4113 189.133 87.9826C189.778 87.5538 190.535 87.325 191.311 87.325C192.35 87.325 193.348 87.7361 194.083 88.4678C194.818 89.1996 195.231 90.1921 195.231 91.2269Z" fill="#4FAE3F" fill-opacity="0.16"/>
<path d="M192.461 101.968H190.044V157.225H192.461V101.968Z" fill="#4FAE3F" fill-opacity="0.16"/>
<path d="M637.75 546.744C637.75 546.878 474.057 546.992 272.068 546.992C70.0793 546.992 -93.6584 546.916 -93.6584 546.744C-93.6584 546.573 70.0348 546.496 272.068 546.496C474.101 546.496 637.75 546.639 637.75 546.744Z" fill="#1C1C1C"/>
<path d="M251.207 206.93C199.542 198.105 194.737 244.621 195.088 257.964C195.44 271.306 200.006 283.138 204.727 295.641C209.448 308.144 206.455 325.178 202.479 337.933C197.828 352.856 183.019 366.548 188.316 381.289C192.531 392.841 207.804 398.505 209.687 410.658C211.176 420.267 203.406 428.616 200.54 437.902C195.13 455.412 207.565 472.964 219.171 487.146C223.99 493.006 229.807 499.369 237.437 499.481C247.933 499.621 254.171 488.292 258.906 478.978C272.11 453.07 291.483 430.772 315.334 414.029" fill="#1C1C1C"/>
<path d="M219.438 276.578C218.454 277.14 217.38 277.528 216.263 277.725C210.861 278.927 205.202 278.032 200.442 275.222C199.434 274.697 198.529 273.996 197.772 273.152C197.772 273.054 198.868 273.823 200.694 274.774C205.437 277.255 210.863 278.129 216.15 277.264C218.187 276.872 219.396 276.466 219.438 276.578Z" fill="#455A64"/>
<path d="M203.941 394.91C202.861 393.708 201.892 392.412 201.046 391.036C198.188 386.337 196.388 381.075 195.772 375.616C195.156 370.156 195.738 364.629 197.477 359.415C198.804 355.781 200.559 352.317 202.704 349.094C204.868 345.709 207.299 342.367 209.561 338.8C215.696 329.128 218.725 317.824 218.244 306.396C218.133 303.386 217.794 300.39 217.233 297.431C216.388 293.144 215.039 288.971 213.214 284.998C212.624 283.599 211.992 282.536 211.64 281.795C211.432 281.435 211.258 281.055 211.121 280.662C211.362 281.003 211.582 281.358 211.781 281.725C212.16 282.438 212.835 283.445 213.467 284.872C215.387 288.83 216.803 293.011 217.682 297.319C218.286 300.302 218.657 303.327 218.792 306.368C218.981 309.852 218.825 313.347 218.329 316.801C217.276 324.769 214.474 332.408 210.123 339.178C207.847 342.786 205.402 346.171 203.252 349.471C201.125 352.644 199.384 356.057 198.068 359.639C195.925 365.76 195.44 372.334 196.662 378.701C197.455 382.995 198.986 387.12 201.187 390.897C202.887 393.554 204.011 394.854 203.941 394.91Z" fill="#455A64"/>
<path d="M374.669 344.143C374.669 344.143 400.564 344.143 418.226 381.75C431.307 409.721 468.612 504.628 462.725 531.396C461.404 537.368 457.638 550.682 448.028 550.864C431.673 551.172 420.207 550.277 420.207 550.277L399.286 502.096L379.095 433.343C379.095 433.343 346.568 350.646 374.669 344.143Z" fill="url(#paint32_linear_2670_27360)"/>
<path d="M407.1 548.696L400.608 505.131L374.671 344.143L342.467 341.737L281.936 353.695C281.936 353.695 246.22 359.457 227.897 372.478C227.897 372.478 233.335 460.587 233.644 469.789C234.319 489.859 246.88 507.858 259.497 523.788L262.827 527.984L261.113 553.256L407.1 548.696Z" fill="url(#paint33_linear_2670_27360)"/>
<path d="M255.689 359.989C255.689 359.989 230.229 365.499 213.846 386.561C200.638 403.554 138.998 479.244 138.998 479.244C138.998 479.244 107.314 496.907 101.426 515.131C95.5392 533.354 101.511 549.507 115.252 549.507C128.994 549.507 164.43 540.151 164.43 540.151L233.433 461.51L234.992 475.062L250.785 406.337L255.689 359.989Z" fill="url(#paint34_linear_2670_27360)"/>
<path d="M372.337 413.623C372.468 413.891 372.567 414.172 372.632 414.462C372.815 415.106 373.054 415.861 373.349 416.924C373.995 419.134 374.867 422.196 375.948 425.945C378.168 433.553 381.33 444.056 384.885 455.622C388.44 467.188 391.699 477.566 394.074 485.23L396.884 494.208L397.601 496.656C397.7 496.937 397.77 497.228 397.811 497.523C397.66 497.264 397.542 496.986 397.46 496.698C397.249 496.082 396.954 495.299 396.617 494.292C395.872 492.097 394.861 489.076 393.624 485.383C391.151 477.845 387.807 467.412 384.252 455.832C380.698 444.252 377.606 433.735 375.513 426.084C374.473 422.252 373.644 419.092 373.124 416.994C372.885 415.973 372.703 415.148 372.548 414.504C372.442 414.22 372.371 413.924 372.337 413.623Z" fill="#1C1C1C"/>
<path d="M348.508 501.215C347.925 501.399 347.328 501.535 346.723 501.621C346.023 501.767 345.314 501.875 344.602 501.942C343.759 502.026 342.817 502.166 341.792 502.194C339.324 502.343 336.848 502.301 334.387 502.068C331.367 501.767 328.378 501.214 325.451 500.418C322.555 499.588 319.735 498.516 317.02 497.215C314.792 496.14 312.65 494.896 310.613 493.495C309.728 492.936 308.997 492.32 308.323 491.817C307.649 491.313 307.115 490.852 306.679 490.418C306.201 490.04 305.763 489.613 305.372 489.146C305.471 489.034 307.396 490.782 310.908 493.048C312.958 494.368 315.093 495.55 317.301 496.586C320.028 497.833 322.846 498.871 325.732 499.691C328.616 500.475 331.556 501.036 334.527 501.369C336.958 501.629 339.404 501.727 341.848 501.663C345.923 501.551 348.48 501.033 348.508 501.215Z" fill="#1C1C1C"/>
<path d="M238.561 416.56C238.546 416.831 238.499 417.098 238.421 417.357C238.28 417.945 238.097 418.756 237.873 419.609C237.648 420.462 237.325 421.763 237.03 423.162C236.735 424.56 236.341 426.14 236.046 427.903C235.344 431.427 234.641 435.651 234.205 440.364C233.698 445.476 233.455 450.611 233.475 455.748C233.545 461.216 233.924 466.419 234.458 471.132C234.992 475.845 235.751 480.055 236.51 483.551C236.847 485.314 237.254 486.894 237.578 488.279C237.901 489.663 238.21 490.852 238.477 491.817L239.067 494.055C239.153 494.313 239.205 494.58 239.222 494.852C239.088 494.615 238.989 494.361 238.926 494.097C238.73 493.523 238.505 492.796 238.21 491.901C237.915 491.006 237.535 489.761 237.184 488.376C236.833 486.992 236.369 485.425 236.004 483.663C235.175 480.153 234.416 475.929 233.798 471.216C232.482 460.955 232.393 450.576 233.531 440.294C234.079 435.553 234.767 431.315 235.54 427.805C235.863 426.029 236.299 424.462 236.636 423.064C236.973 421.665 237.311 420.49 237.606 419.539C237.901 418.588 238.097 417.903 238.28 417.316C238.351 417.056 238.445 416.803 238.561 416.56Z" fill="#1C1C1C"/>
<path d="M380.29 350.073C380.361 350.213 378.127 351.164 375.078 353.527C371.098 356.589 367.941 360.583 365.887 365.153C363.832 369.724 362.945 374.728 363.303 379.722C363.57 383.554 364.343 385.848 364.202 385.876C363.945 385.375 363.751 384.844 363.626 384.296C363.221 382.811 362.944 381.295 362.797 379.764C362.284 374.668 363.119 369.526 365.219 364.85C367.319 360.174 370.611 356.126 374.768 353.108C376.009 352.193 377.331 351.393 378.717 350.716C379.215 350.443 379.743 350.227 380.29 350.073Z" fill="#1C1C1C"/>
<path d="M376.975 432.028C376.778 432.517 376.533 432.985 376.244 433.427C375.43 434.725 374.382 435.863 373.153 436.783C371.212 438.241 368.987 439.28 366.62 439.832C363.478 440.557 360.22 440.624 357.051 440.028C353.249 439.278 349.53 438.154 345.951 436.672C341.897 434.948 337.728 433.504 333.474 432.35C331.176 431.781 328.817 431.494 326.449 431.497C323.987 431.543 321.545 431.943 319.199 432.686C314.27 434.405 309.636 436.867 305.457 439.986C301.254 443.133 296.893 446.065 292.39 448.769C288.144 451.328 283.377 452.909 278.438 453.398C276.127 453.543 273.808 453.321 271.567 452.741C269.474 452.172 267.448 451.379 265.525 450.377C262.141 448.523 258.858 446.492 255.69 444.294C249.845 440.378 244.449 438.196 240.515 437.846C238.487 437.645 236.44 437.754 234.445 438.168L234.824 438.042C235.091 438.042 235.471 437.846 235.977 437.762C237.482 437.484 239.019 437.418 240.543 437.567C244.547 437.832 250.055 439.972 255.999 443.874C258.978 445.762 262.153 447.972 265.834 449.846C267.727 450.807 269.714 451.571 271.764 452.126C273.943 452.672 276.195 452.875 278.438 452.727C283.267 452.234 287.923 450.671 292.067 448.154C296.493 445.692 300.652 442.476 305.078 439.385C309.322 436.236 314.022 433.747 319.016 432C321.435 431.238 323.954 430.833 326.491 430.798C328.912 430.807 331.323 431.108 333.671 431.693C337.951 432.869 342.144 434.341 346.218 436.098C349.749 437.606 353.426 438.75 357.192 439.511C360.287 440.136 363.478 440.112 366.564 439.441C368.894 438.932 371.094 437.952 373.027 436.56C374.25 435.681 375.311 434.598 376.16 433.357C376.694 432.504 376.933 432 376.975 432.028Z" fill="#FAFAFA"/>
<path d="M430.732 411.525C430.732 411.525 430.732 411.735 430.451 412.085C430.153 412.578 429.815 413.046 429.44 413.483C428.012 415.148 426.238 416.484 424.241 417.399C421.283 418.753 418.081 419.5 414.827 419.595C410.88 419.633 406.94 419.272 403.067 418.518C399.236 417.751 395.351 417.284 391.447 417.12C388.27 417.078 385.111 417.599 382.117 418.658C380.111 419.396 378.262 420.501 376.665 421.917C375.555 422.952 375.064 423.651 375.007 423.595C374.951 423.539 375.092 423.399 375.331 423.078C375.667 422.578 376.048 422.11 376.469 421.679C378.027 420.138 379.888 418.934 381.934 418.141C384.963 416.974 388.185 416.386 391.433 416.406C395.377 416.513 399.306 416.943 403.179 417.693C407.011 418.446 410.907 418.826 414.813 418.826C417.985 418.761 421.115 418.087 424.03 416.84C425.99 415.986 427.757 414.749 429.229 413.204C430.255 412.267 430.662 411.525 430.732 411.525Z" fill="#FAFAFA"/>
<path d="M442.296 446.07C442.296 446.07 442.296 446.28 442.057 446.657C441.815 447.209 441.533 447.741 441.214 448.252C440.073 450.175 438.653 451.918 436.998 453.426C435.874 454.462 434.661 455.398 433.373 456.223C431.874 457.179 430.289 457.993 428.638 458.657C424.818 460.131 420.696 460.659 416.625 460.195C412.632 459.622 408.673 458.833 404.766 457.832C401.6 457.054 398.346 456.683 395.085 456.727C392.885 456.768 390.709 457.184 388.65 457.958C387.245 458.517 386.472 458.993 386.43 458.923C386.594 458.784 386.767 458.658 386.95 458.545C387.456 458.211 387.992 457.926 388.552 457.692C390.609 456.802 392.816 456.304 395.057 456.223C398.364 456.099 401.672 456.419 404.893 457.175C408.786 458.135 412.725 458.901 416.695 459.468C420.648 459.932 424.655 459.452 428.385 458.07C429.999 457.445 431.552 456.672 433.022 455.762C434.306 454.957 435.519 454.044 436.647 453.035C438.288 451.579 439.729 449.915 440.933 448.084C441.846 446.811 442.225 446.042 442.296 446.07Z" fill="#FAFAFA"/>
<path d="M238.491 488.95C240.536 488.447 242.424 487.448 243.985 486.041C245.806 484.38 247.536 482.625 249.17 480.782C251.444 478.403 254.04 476.35 256.884 474.684C260.336 472.649 264.154 471.304 268.124 470.726C270.344 470.432 272.593 470.432 274.812 470.726C277.162 471.063 279.457 471.703 281.641 472.629C286.151 474.447 290.451 477.16 295.2 479.258C297.59 480.357 300.126 481.111 302.731 481.495C304.054 481.668 305.391 481.701 306.721 481.593C308.071 481.461 309.407 481.208 310.712 480.838C315.995 479.286 320.547 476.251 325.24 473.845C329.726 471.543 334.433 469.696 339.291 468.335C347.553 466.051 356.131 465.106 364.694 465.538C370.454 465.827 376.162 466.766 381.71 468.335C383.677 468.866 385.166 469.412 386.178 469.733L387.316 470.153L387.695 470.321C387.567 470.32 387.439 470.301 387.316 470.265L386.15 469.915C385.138 469.58 383.635 469.09 381.668 468.601C376.138 467.148 370.465 466.3 364.751 466.069C356.244 465.713 347.735 466.709 339.544 469.02C334.716 470.372 330.041 472.214 325.591 474.517C320.955 476.866 316.374 479.929 310.937 481.509C309.586 481.894 308.204 482.156 306.806 482.293C305.401 482.406 303.987 482.369 302.59 482.181C299.923 481.785 297.325 481.013 294.877 479.887C290.057 477.747 285.772 475.02 281.346 473.23C279.218 472.311 276.979 471.671 274.686 471.328C272.517 471.041 270.321 471.041 268.152 471.328C264.245 471.871 260.48 473.163 257.066 475.132C254.247 476.753 251.665 478.753 249.395 481.076C247.728 482.898 245.959 484.626 244.097 486.25C242.895 487.275 241.514 488.072 240.023 488.6C239.529 488.78 239.014 488.898 238.491 488.95Z" fill="#FAFAFA"/>
<path d="M221.518 473.873C220.871 473.278 220.075 472.867 219.213 472.685C218.19 472.511 217.145 472.511 216.122 472.685C214.914 472.866 213.551 473.202 211.991 473.412C210.264 473.639 208.508 473.481 206.849 472.95C204.969 472.309 203.228 471.317 201.72 470.027C200.066 468.607 198.619 466.964 197.421 465.146C196.188 463.181 195.139 461.107 194.288 458.951C192.806 454.783 191.089 450.702 189.145 446.727C187.472 443.55 184.967 440.883 181.895 439.007C180.714 438.307 179.442 437.771 178.115 437.413C177.104 437.17 176.064 437.061 175.024 437.091C173.31 437.189 172.411 437.553 172.383 437.469C172.354 437.385 172.593 437.357 173.029 437.217C173.669 436.998 174.335 436.861 175.01 436.812C176.078 436.731 177.152 436.802 178.2 437.021C179.587 437.344 180.921 437.862 182.162 438.56C185.362 440.434 187.982 443.148 189.735 446.406C191.737 450.379 193.483 454.476 194.962 458.671C195.798 460.786 196.823 462.822 198.025 464.755C199.178 466.519 200.568 468.119 202.156 469.51C203.594 470.758 205.252 471.73 207.046 472.377C208.618 472.903 210.286 473.084 211.935 472.908C214.956 472.489 217.555 471.873 219.27 472.363C219.941 472.518 220.563 472.835 221.082 473.286C221.257 473.458 221.403 473.657 221.518 473.873Z" fill="#FAFAFA"/>
<path d="M234.837 432.658C234.837 432.658 234.697 432.756 234.374 432.867C233.919 433.044 233.448 433.18 232.969 433.273C231.166 433.553 229.322 433.404 227.587 432.839C225.025 431.996 222.673 430.618 220.689 428.798C218.343 426.539 216.221 424.061 214.352 421.399C212.499 418.784 210.349 416.391 207.945 414.267C205.935 412.614 203.577 411.433 201.046 410.812C199.333 410.399 197.546 410.399 195.833 410.812C194.639 411.12 194.02 411.484 193.992 411.414C193.964 411.344 194.119 411.288 194.414 411.134C194.861 410.887 195.331 410.685 195.819 410.532C197.564 410.003 199.417 409.926 201.2 410.309C203.845 410.876 206.32 412.054 208.422 413.749C210.9 415.877 213.104 418.3 214.984 420.966C216.834 423.589 218.912 426.046 221.194 428.308C223.098 430.087 225.344 431.462 227.798 432.35C229.458 432.94 231.229 433.155 232.983 432.979C234.163 432.839 234.823 432.574 234.837 432.658Z" fill="#FAFAFA"/>
<path d="M300.904 229.321C284.591 192.651 236.622 214.44 236.622 214.44C214.001 222.706 210.797 248.006 216.024 265.306C221.827 284.494 229.667 307.696 237.1 320.871C252.078 347.346 275.037 342.926 275.037 342.926L282.737 361.779C284.336 365.693 286.698 369.254 289.688 372.255C292.677 375.255 296.234 377.636 300.154 379.261C304.073 380.885 308.277 381.72 312.523 381.717C316.768 381.715 320.971 380.875 324.889 379.247C332.582 376.037 338.72 369.978 342.008 362.347C345.296 354.716 345.475 346.113 342.508 338.353L300.904 229.321Z" fill="#FFBE9D"/>
<path d="M229.33 284.061C229.671 285.004 230.369 285.777 231.274 286.216C232.18 286.655 233.221 286.725 234.178 286.41C234.653 286.276 235.097 286.048 235.483 285.74C235.868 285.433 236.189 285.051 236.424 284.619C236.66 284.186 236.806 283.711 236.855 283.221C236.903 282.731 236.853 282.237 236.707 281.767C236.366 280.824 235.668 280.05 234.763 279.612C233.857 279.173 232.816 279.103 231.859 279.417C231.384 279.552 230.94 279.78 230.554 280.087C230.168 280.395 229.848 280.777 229.613 281.209C229.377 281.642 229.231 282.117 229.182 282.606C229.134 283.096 229.184 283.591 229.33 284.061Z" fill="#1C1C1C"/>
<path d="M225.958 279.222C226.591 279.516 228.572 276.425 232.478 275.026C236.384 273.628 239.967 274.481 240.22 273.851C240.346 273.558 239.573 272.886 237.986 272.453C235.864 271.912 233.625 272.039 231.579 272.816C229.549 273.555 227.807 274.917 226.605 276.704C225.733 278.089 225.733 279.082 225.958 279.222Z" fill="#1C1C1C"/>
<path d="M265.848 272.411C266.189 273.354 266.887 274.127 267.792 274.566C268.698 275.005 269.739 275.075 270.696 274.76C271.171 274.626 271.615 274.398 272.001 274.09C272.387 273.783 272.707 273.401 272.942 272.969C273.178 272.536 273.324 272.061 273.373 271.571C273.421 271.082 273.371 270.587 273.225 270.117C272.884 269.174 272.186 268.401 271.281 267.962C270.375 267.523 269.334 267.453 268.377 267.768C267.902 267.902 267.458 268.13 267.072 268.438C266.687 268.745 266.366 269.127 266.131 269.559C265.895 269.992 265.749 270.467 265.7 270.957C265.652 271.446 265.702 271.941 265.848 272.411Z" fill="#1C1C1C"/>
<path d="M264.316 265.054C264.948 265.348 266.943 262.257 270.835 260.859C274.727 259.46 278.324 260.313 278.577 259.684C278.704 259.39 277.931 258.719 276.343 258.285C274.221 257.744 271.983 257.871 269.936 258.649C267.904 259.391 266.162 260.758 264.962 262.551C264.105 263.922 264.021 264.915 264.316 265.054Z" fill="#1C1C1C"/>
<path d="M261.857 299.179C261.787 298.941 259.216 299.431 255.099 300.382C254.059 300.648 253.048 300.787 252.626 300.172C252.162 299.182 252.01 298.075 252.191 296.997C252.191 294.2 252.275 291.403 252.331 288.354C252.415 276.089 252.078 266.159 251.586 266.159C251.095 266.159 250.617 276.103 250.533 288.368V296.997C250.358 298.426 250.691 299.871 251.474 301.081C251.749 301.377 252.088 301.607 252.465 301.755C252.842 301.903 253.248 301.964 253.652 301.934C254.261 301.88 254.861 301.748 255.436 301.543C259.455 300.284 261.928 299.403 261.857 299.179Z" fill="#1C1C1C"/>
<path d="M275.093 342.996C288.478 338.282 300.288 329.965 309.208 318.969C309.208 318.969 306.96 341.779 277.692 349.597L275.093 342.996Z" fill="#EB996E"/>
<path d="M268.504 311.892C267.916 311.448 267.478 310.836 267.246 310.139C267.015 309.442 267 308.691 267.206 307.986C267.411 307.28 267.826 306.653 268.396 306.187C268.967 305.721 269.665 305.438 270.4 305.375C270.096 304.72 270.021 303.983 270.187 303.281C270.352 302.579 270.749 301.953 271.314 301.501C271.891 301.07 272.561 300.779 273.27 300.65C273.98 300.522 274.71 300.559 275.402 300.76C276.741 301.159 277.912 301.984 278.737 303.107C279.561 304.231 279.994 305.592 279.969 306.983C279.875 308.37 279.367 309.698 278.511 310.796C277.655 311.895 276.49 312.715 275.164 313.151C273.822 313.541 272.399 313.563 271.045 313.213C269.692 312.864 268.459 312.156 267.478 311.165" fill="#EB996E"/>
<path d="M274.334 297.627C273.687 297.823 275.247 302.032 272.746 306.368C270.245 310.703 265.552 311.892 265.721 312.494C265.721 312.787 267.041 312.941 268.966 312.298C271.458 311.416 273.558 309.687 274.896 307.417C276.185 305.237 276.568 302.643 275.964 300.186C275.486 298.354 274.615 297.487 274.334 297.627Z" fill="#1C1C1C"/>
<path d="M258.373 259.502C259.159 260.425 262.869 258.481 267.646 257.348C272.423 256.215 276.596 256.075 276.849 254.901C276.948 254.355 275.936 253.6 274.039 253.125C271.583 252.613 269.042 252.663 266.608 253.271C264.174 253.879 261.911 255.03 259.988 256.635C258.555 257.922 258.049 259.082 258.373 259.502Z" fill="#1C1C1C"/>
<path d="M220.604 266.928C221.616 267.558 223.962 265.656 227.18 264.425C230.398 263.194 233.362 262.803 233.657 261.628C233.756 261.068 232.997 260.355 231.493 259.95C229.514 259.546 227.459 259.737 225.588 260.496C223.718 261.255 222.115 262.549 220.984 264.215C220.112 265.572 220.112 266.621 220.604 266.928Z" fill="#1C1C1C"/>
<path d="M280.952 274.928C280.95 275.044 280.925 275.158 280.879 275.264C280.833 275.371 280.766 275.467 280.683 275.547C280.599 275.628 280.501 275.691 280.392 275.734C280.284 275.776 280.169 275.797 280.053 275.795C279.874 275.795 279.699 275.742 279.55 275.642C279.402 275.543 279.287 275.401 279.219 275.236C279.152 275.071 279.136 274.889 279.173 274.715C279.21 274.541 279.299 274.381 279.427 274.257C279.556 274.133 279.719 274.05 279.895 274.019C280.071 273.988 280.253 274.01 280.417 274.082C280.58 274.154 280.719 274.273 280.814 274.424C280.91 274.574 280.957 274.75 280.952 274.928Z" fill="#1C1C1C"/>
<path d="M374.671 344.143C374.671 344.073 371.861 314.284 348.733 293.795C325.606 273.306 356.939 265.306 336.846 238.188C330.228 229.237 322.796 221.098 313.339 215.252C311.669 214.2 310.09 213.012 308.618 211.699C304.698 208.245 301.284 204.231 297.013 201.21C293.846 198.834 290.041 197.452 286.081 197.238C283.725 196.259 281.257 195.568 278.733 195.182C267.492 193.49 256.252 197.979 245.784 202.413C235.625 206.678 208.311 205.643 216.952 233.447C218.75 228.818 225.719 225.056 231.213 229.545C234.787 232.141 237.185 236.036 237.887 240.384C239.11 246.859 241.021 254.034 248.903 255.698C250.83 256.09 252.819 256.061 254.734 255.614C261.324 254.215 266.607 244.244 279.154 246.593C279.154 246.593 291.378 250.369 292.095 258.02C292.811 265.67 288.554 279.879 296.085 286.648C303.616 293.417 304.881 293.221 304.67 299.067C304.67 300.396 304.67 301.333 304.544 301.99C303.588 311.249 301.986 351.443 343.183 344.604L357.037 343.765L374.657 344.199L374.671 344.143Z" fill="#1C1C1C"/>
<path d="M288.245 201.252C289.871 192.699 294.157 184.871 300.497 178.875C306.932 173.099 315.953 169.882 324.383 171.295C332.813 172.707 340.682 179.141 342.649 187.518C344.616 195.896 340.106 205.699 332.013 208.678C325.873 210.986 319.072 209.476 312.524 209.322C305.977 209.168 298.291 211.266 295.987 217.363" fill="#1C1C1C"/>
<path d="M314.421 207.336C314.255 206.496 313.873 205.714 313.311 205.067C312.749 204.419 312.027 203.929 311.217 203.644C309.585 203.092 307.924 202.626 306.243 202.245C303.836 201.509 301.671 200.142 299.977 198.287C298.572 196.749 297.532 194.903 296.155 193.336C295.519 192.508 294.715 191.822 293.795 191.323C292.875 190.824 291.86 190.524 290.816 190.441C289.991 190.448 289.181 190.663 288.462 191.066C287.743 191.468 287.137 192.045 286.703 192.743C286.268 193.441 286.018 194.237 285.975 195.058C285.933 195.878 286.1 196.695 286.46 197.434C291.743 201.728 297.082 206.357 303.096 209.559C305.1 210.871 307.429 211.607 309.826 211.685C312.215 211.531 314.66 209.643 314.421 207.336Z" fill="url(#paint35_linear_2670_27360)"/>
<path d="M390.688 348.702C390.689 348.313 390.722 347.925 390.787 347.541C390.885 346.786 390.969 345.667 391.054 344.241C391.213 340.171 390.773 336.1 389.747 332.157C388.257 326.306 385.468 320.863 381.583 316.228C377.228 310.983 370.933 306.703 364.245 302.522C357.557 298.34 351.136 294.13 346.457 289.026C344.208 286.635 342.336 283.919 340.907 280.97C339.693 278.374 338.951 275.585 338.715 272.732C338.276 268.598 339.177 264.433 341.286 260.845C341.869 259.887 342.568 259.004 343.365 258.215C343.638 257.935 343.929 257.674 344.237 257.432C343.235 258.539 342.328 259.727 341.525 260.984C339.563 264.557 338.763 268.647 339.235 272.69C339.492 275.471 340.243 278.185 341.455 280.704C342.883 283.581 344.735 286.23 346.948 288.564C351.571 293.585 357.936 297.725 364.638 301.906C371.34 306.088 377.691 310.424 382.103 315.808C388.692 323.783 391.991 333.951 391.335 344.255C391.255 345.366 391.119 346.472 390.927 347.569C390.884 347.954 390.804 348.333 390.688 348.702Z" fill="#1C1C1C"/>
<path d="M301.705 208.581C301.566 208.939 301.407 209.289 301.227 209.629C300.904 210.315 300.37 211.308 299.64 212.539C297.579 216.045 295.153 219.326 292.404 222.328C288.317 226.807 283.581 230.654 278.353 233.741C275.282 235.589 272.023 237.108 268.63 238.272C264.953 239.579 261.005 239.94 257.15 239.321C255.195 238.942 253.342 238.156 251.713 237.013C250.148 235.892 248.785 234.516 247.68 232.944C245.738 229.959 243.973 226.863 242.397 223.671C241.615 222.214 240.732 220.812 239.756 219.475C238.819 218.26 237.744 217.157 236.552 216.189C234.362 214.493 231.847 213.26 229.162 212.566C225.257 211.542 221.137 211.668 217.303 212.93C215.909 213.437 214.552 214.04 213.242 214.734C213.542 214.494 213.862 214.279 214.198 214.091C214.588 213.829 215.002 213.604 215.434 213.42C216.004 213.123 216.596 212.871 217.204 212.664C220.497 211.505 224.027 211.177 227.478 211.712C230.928 212.247 234.191 213.626 236.974 215.727C238.217 216.717 239.335 217.854 240.304 219.112C241.314 220.442 242.225 221.845 243.03 223.307C244.61 226.463 246.369 229.526 248.299 232.482C249.367 233.986 250.678 235.304 252.177 236.384C253.73 237.459 255.491 238.202 257.347 238.566C261.075 239.153 264.891 238.802 268.447 237.545C271.798 236.417 275.015 234.93 278.044 233.111C283.249 230.082 287.983 226.313 292.094 221.923C294.854 218.971 297.324 215.763 299.471 212.343C300.23 211.126 300.792 210.175 301.157 209.546C301.316 209.211 301.499 208.888 301.705 208.581Z" fill="#455A64"/>
<path d="M305.822 211.377C305.977 212.015 306.072 212.666 306.103 213.321C306.173 213.951 306.103 214.72 306.187 215.629C306.167 216.649 306.092 217.666 305.962 218.678C305.217 224.598 302.779 230.181 298.937 234.761C296.863 237.297 294.38 239.471 291.589 241.195C289.294 242.542 286.898 243.711 284.423 244.691C282.343 245.572 280.671 246.299 279.533 246.831C278.963 247.153 278.366 247.424 277.749 247.642C278.261 247.229 278.817 246.873 279.407 246.579C280.503 245.964 282.217 245.181 284.212 244.23C286.634 243.195 288.982 241.994 291.237 240.635C293.946 238.917 296.361 236.778 298.389 234.3C302.117 229.8 304.545 224.376 305.414 218.608C305.729 216.211 305.865 213.794 305.822 211.377Z" fill="#455A64"/>
<path d="M351.824 341.667C351.784 341.277 351.784 340.883 351.824 340.493C351.824 339.71 351.922 338.577 351.824 337.094C351.763 332.943 351.168 328.816 350.053 324.815C349.253 322.067 348.233 319.387 347.004 316.801C345.559 313.837 343.817 311.026 341.806 308.41C339.577 305.542 337.016 302.946 334.176 300.676C331.225 298.312 327.881 296.2 324.734 293.683C323.158 292.419 321.7 291.014 320.378 289.487C319.109 287.981 318.051 286.311 317.231 284.522C315.789 281.124 314.879 277.525 314.533 273.851C314.112 270.369 313.943 267.054 313.62 263.977C313.357 261.132 312.806 258.321 311.976 255.586C310.886 251.576 308.651 247.966 305.541 245.195C304.325 244.274 303.005 243.499 301.607 242.887C301.996 242.982 302.376 243.109 302.745 243.265C303.799 243.711 304.795 244.284 305.71 244.971C308.965 247.705 311.32 251.35 312.468 255.432C313.35 258.193 313.939 261.038 314.224 263.922C314.575 267.026 314.772 270.327 315.194 273.781C315.559 277.382 316.463 280.908 317.877 284.243C319.586 287.732 322.093 290.774 325.198 293.123C328.303 295.669 331.633 297.795 334.626 300.186C337.502 302.491 340.096 305.124 342.354 308.032C344.372 310.682 346.118 313.526 347.566 316.521C348.78 319.153 349.785 321.874 350.573 324.661C351.644 328.714 352.168 332.89 352.133 337.08C352.128 338.216 352.058 339.351 351.922 340.479C351.932 340.877 351.899 341.276 351.824 341.667Z" fill="#455A64"/>
<path d="M341.159 182.679C339.073 181.438 336.822 180.496 334.471 179.882C328.711 178.59 322.677 179.404 317.47 182.176C312.341 185.073 308.059 189.253 305.049 194.301C304.111 195.813 303.252 197.372 302.478 198.972C302.23 199.585 301.929 200.174 301.579 200.735C301.722 200.087 301.939 199.459 302.225 198.86C302.899 197.195 303.698 195.582 304.614 194.035C307.55 188.8 311.883 184.473 317.133 181.532C322.477 178.66 328.709 177.886 334.598 179.365C336.358 179.828 338.039 180.549 339.586 181.504C340.001 181.759 340.4 182.04 340.78 182.343C341.047 182.539 341.173 182.665 341.159 182.679Z" fill="#455A64"/>
<path d="M338.814 199.812C338.743 199.923 337.156 198.749 334.247 197.518C330.482 195.894 326.388 195.166 322.29 195.391C318.193 195.617 314.204 196.791 310.642 198.819C307.902 200.357 306.427 201.7 306.427 201.616C306.693 201.238 307.015 200.903 307.382 200.623C308.334 199.787 309.359 199.038 310.445 198.385C314.023 196.176 318.098 194.892 322.301 194.647C326.504 194.403 330.702 195.207 334.514 196.986C335.662 197.521 336.762 198.153 337.802 198.875C338.476 199.448 338.842 199.77 338.814 199.812Z" fill="#455A64"/>
<path d="M247.456 593.003L123.135 582.555L230.089 551.465L342.607 551.647L247.456 593.003Z" fill="white"/>
<path d="M247.455 593.003C247.455 593.003 248.045 592.709 249.183 592.205L254.227 589.954L273.449 581.562L342.494 551.381L342.606 551.969L230.088 551.843H230.187L220.674 554.64L123.163 582.863V582.234L213.087 589.912L238.491 592.15L245.207 592.751L246.935 592.933L247.525 593.003H246.949L245.221 592.891L238.519 592.373L213.087 590.303L123.163 582.877L121.406 582.737L123.093 582.248L220.534 553.885L230.046 551.088H230.145L342.662 551.326H344.138L342.733 551.899L273.505 581.856L254.242 590.15L249.169 592.303L247.455 593.003Z" fill="#1C1C1C"/>
<path d="M123.135 582.555L3.53564 573.772L117.585 552.291H225.691L123.135 582.555Z" fill="#E0E0E0"/>
<path d="M123.163 582.555C123.163 582.555 123.795 582.332 125.031 581.954L130.483 580.29L151.264 574.08L225.648 551.997L225.747 552.598H117.641L107.37 554.528L3.59149 574.08V573.451L90.1296 579.94L114.507 581.814L120.943 582.346L122.601 582.486L123.163 582.555H122.601L120.957 582.458L114.522 582.038L90.1436 580.332L3.53528 574.108L1.07642 573.926L3.50718 573.465L107.271 553.885L117.542 551.941H225.648H227.798L225.733 552.542L151.264 574.402L130.483 580.444L125.003 582.01C123.767 582.402 123.163 582.555 123.163 582.555Z" fill="#1C1C1C"/>
<path d="M123.163 582.555C123.163 582.555 120.353 556.696 98.7992 558.78C77.2455 560.864 48.6102 575.311 25.1035 575.311L-0.187744 573.353L53.6544 562.318C53.6544 562.318 187.304 534.221 187.304 535.102C187.304 535.983 232.267 525.214 230.637 551.731L123.163 582.555Z" fill="white"/>
<path d="M123.163 582.555C123.163 582.555 123.838 582.332 125.144 581.954L130.891 580.276L152.67 573.954L230.581 551.479L230.37 551.759C230.552 549.341 230.227 546.912 229.414 544.626C228.53 542.317 227.005 540.304 225.016 538.822C220.956 535.801 215.659 534.697 210.432 534.249C205.024 533.891 199.594 534.055 194.217 534.739L190.087 535.27C189.384 535.354 188.681 535.452 187.979 535.522C187.778 535.543 187.576 535.543 187.375 535.522H187.248C187.153 535.484 187.074 535.415 187.023 535.326C186.925 535.116 187.023 535.158 187.023 535.326C187.122 535.536 187.206 535.41 187.206 535.438H186.925L185.899 535.592C183.089 536.039 180.279 536.585 177.469 537.13C154.988 541.55 131.2 546.515 106.527 551.619L50.8443 563.227L-0.117468 573.758V573.115L25.1737 575.087C33.3217 574.818 41.4075 573.574 49.2566 571.381C56.8018 569.451 63.8552 567.185 70.5012 565.227C77.1472 563.269 83.3997 561.423 89.287 560.164C92.2236 559.535 95.0618 559.046 97.8017 558.766C100.424 558.397 103.091 558.483 105.684 559.018C110.075 560.003 113.969 562.512 116.672 566.094C118.656 568.698 120.207 571.602 121.266 574.696C121.943 576.596 122.469 578.546 122.84 580.527C122.977 581.207 123.076 581.893 123.135 582.583C123.135 582.583 123.135 582.402 123.037 582.066C122.938 581.73 122.896 581.213 122.742 580.555C122.342 578.587 121.792 576.651 121.098 574.765C120.009 571.707 118.445 568.837 116.461 566.262C113.773 562.755 109.926 560.308 105.6 559.353C103.044 558.858 100.422 558.792 97.8438 559.157C95.1321 559.479 92.2236 559.969 89.4134 560.556C83.5543 561.829 77.3298 563.647 70.6839 565.675C64.0379 567.703 56.9985 569.94 49.4393 571.898C41.5128 574.114 33.3463 575.368 25.1175 575.633L-0.201768 573.758L-2.53418 573.591L-0.243924 573.115L50.76 562.57L106.457 550.934C131.13 545.829 154.932 540.878 177.399 536.473C180.209 535.941 183.019 535.396 185.829 534.934C188.639 534.864 191.365 534.305 194.133 534.039C199.556 533.353 205.034 533.193 210.488 533.564C215.785 534.025 221.181 535.144 225.396 538.291C227.464 539.853 229.042 541.968 229.948 544.389C230.784 546.751 231.114 549.262 230.918 551.759V551.983H230.707L152.501 574.206L130.751 580.346L125.046 581.954L123.163 582.555Z" fill="#1C1C1C"/>
<path d="M244.828 584.36C242.566 584.36 162.618 578.108 162.618 578.108L244.828 584.36Z" fill="white"/>
<path d="M162.618 578.108C162.898 578.081 163.181 578.081 163.461 578.108L165.864 578.22L174.673 578.765L203.73 580.877L232.759 583.185L241.569 583.968L243.957 584.22C244.243 584.235 244.525 584.282 244.8 584.36C244.52 584.393 244.237 584.393 243.957 584.36L241.569 584.234L232.759 583.688L203.674 581.59L174.645 579.353L165.836 578.57L163.447 578.318C163.161 578.29 162.882 578.22 162.618 578.108Z" fill="#1C1C1C"/>
<path d="M258.05 578.947C255.802 578.947 175.853 572.709 175.853 572.709L258.05 578.947Z" fill="white"/>
<path d="M175.825 572.71C176.105 572.675 176.389 572.675 176.668 572.71L179.057 572.821L187.881 573.381L216.938 575.479L245.994 577.8L254.79 578.583L257.193 578.835C257.473 578.85 257.75 578.893 258.022 578.961C257.747 578.995 257.468 578.995 257.193 578.961L254.79 578.849L245.98 578.29L216.91 576.192L187.797 573.884L179.001 573.101L176.612 572.849C176.346 572.832 176.082 572.785 175.825 572.71Z" fill="#1C1C1C"/>
<path d="M278.985 572.709C276.723 572.709 192.981 567.731 192.981 567.731L278.985 572.709Z" fill="white"/>
<path d="M192.981 567.731C193.271 567.706 193.562 567.706 193.852 567.731L196.367 567.801L205.585 568.22L235.99 569.87L266.396 571.731L275.599 572.388L278.114 572.598C278.408 572.606 278.701 572.648 278.985 572.724C278.696 572.754 278.404 572.754 278.114 572.724L275.599 572.64L266.382 572.22L235.962 570.57L205.557 568.71L196.353 568.052L193.852 567.843C193.558 567.841 193.266 567.803 192.981 567.731Z" fill="#1C1C1C"/>
<path d="M296.998 565.885C294.75 565.885 210.137 562.766 210.137 562.766L296.998 565.885Z" fill="white"/>
<path d="M210.137 562.766C210.431 562.73 210.728 562.73 211.022 562.766H213.551L222.867 562.989L253.568 563.982L284.282 565.199L293.598 565.647L296.127 565.801C296.421 565.808 296.713 565.845 296.998 565.912C296.709 565.949 296.416 565.949 296.127 565.912H293.598L284.282 565.703L253.554 564.696L222.923 563.479L213.607 563.031L211.078 562.864C210.762 562.859 210.447 562.826 210.137 562.766Z" fill="#1C1C1C"/>
<path d="M313.071 558.136L227.292 557.787L313.071 558.136Z" fill="white"/>
<path d="M227.292 557.787C227.292 557.591 246.499 557.507 270.175 557.591C293.85 557.675 313.071 557.927 313.071 558.137C313.071 558.346 293.864 558.416 270.175 558.318C246.485 558.22 227.292 557.983 227.292 557.787Z" fill="#1C1C1C"/>
<path d="M103.169 552.346C103.704 552.115 104.266 551.95 104.841 551.857C106.406 551.512 108.002 551.324 109.604 551.297C114.938 551.178 120.188 552.636 124.69 555.486C129.192 558.337 132.743 562.452 134.896 567.311C135.558 568.762 136.071 570.275 136.427 571.828C136.588 572.393 136.677 572.976 136.694 573.563C136.06 571.511 135.305 569.498 134.432 567.535C132.21 562.837 128.693 558.865 124.289 556.082C119.886 553.299 114.778 551.819 109.562 551.815C107.423 551.867 105.288 552.044 103.169 552.346Z" fill="#1C1C1C"/>
<path d="M116.306 548.892C116.843 548.65 117.41 548.48 117.992 548.389C119.553 548.048 121.144 547.865 122.741 547.843C128.076 547.72 133.328 549.176 137.83 552.027C142.333 554.878 145.883 558.995 148.033 563.857C148.687 565.309 149.195 566.822 149.55 568.374C149.71 568.939 149.8 569.522 149.817 570.108C149.184 568.051 148.429 566.034 147.555 564.067C145.331 559.375 141.814 555.408 137.414 552.628C133.014 549.847 127.911 548.368 122.699 548.361C120.559 548.404 118.424 548.581 116.306 548.892Z" fill="#1C1C1C"/>
<path d="M129.907 546.473C130.44 546.242 130.995 546.068 131.565 545.955C133.098 545.588 134.658 545.34 136.23 545.214C138.575 545.006 140.939 545.114 143.255 545.536C146.111 546.06 148.833 547.144 151.264 548.724C155.665 551.6 159.139 555.68 161.268 560.472C161.92 561.905 162.423 563.4 162.772 564.934C162.932 565.489 163.017 566.062 163.024 566.64C162.408 564.61 161.667 562.621 160.804 560.682C158.586 556.072 155.153 552.147 150.871 549.326C146.503 546.627 141.383 545.387 136.258 545.787C132.324 545.941 129.935 546.612 129.907 546.473Z" fill="#1C1C1C"/>
<path d="M144.436 543.494C144.942 543.259 145.475 543.086 146.023 542.976C147.499 542.582 149.002 542.297 150.519 542.123C152.783 541.837 155.078 541.908 157.32 542.333C160.077 542.893 162.686 544.022 164.978 545.647C169.165 548.544 172.458 552.544 174.49 557.199C175.093 558.593 175.564 560.04 175.895 561.521C176.048 562.063 176.129 562.622 176.134 563.185C175.53 561.222 174.817 559.294 173.998 557.409C171.889 552.917 168.628 549.058 164.542 546.221C162.334 544.651 159.83 543.542 157.18 542.962C154.999 542.518 152.763 542.4 150.548 542.612C146.768 542.99 144.464 543.633 144.436 543.494Z" fill="#1C1C1C"/>
<path d="M159.371 541.172C159.851 540.928 160.361 540.749 160.889 540.64C161.872 540.347 163.306 539.941 165.104 539.55C167.239 539.039 169.455 538.954 171.624 539.298C174.26 539.883 176.729 541.054 178.846 542.724C182.765 545.618 185.831 549.506 187.726 553.983C188.296 555.339 188.742 556.743 189.06 558.178C189.196 558.695 189.271 559.225 189.285 559.759C189.145 559.759 188.765 557.535 187.248 554.165C185.261 549.864 182.222 546.128 178.41 543.298C176.378 541.692 174.019 540.547 171.497 539.941C169.406 539.583 167.267 539.617 165.188 540.039C161.619 540.724 159.399 541.298 159.371 541.172Z" fill="#1C1C1C"/>
<path d="M152.529 501.775C156.322 502.432 160.186 501.439 164.022 501.271C167.858 501.103 172.242 502.054 174.223 505.341C174.89 506.625 175.239 508.049 175.239 509.495C175.239 510.94 174.89 512.365 174.223 513.648C172.867 516.205 171.102 518.525 168.996 520.515" fill="#FFBE9D"/>
<path d="M179.478 531.17L119.86 455.161C119.397 454.571 118.54 454.466 117.947 454.927L113.096 458.696C112.503 459.157 112.397 460.01 112.86 460.6L172.478 536.61C172.942 537.2 173.798 537.305 174.391 536.844L179.242 533.074C179.836 532.613 179.941 531.761 179.478 531.17Z" fill="#1C1C1C"/>
<path d="M118.494 456.907L113.954 451.12C113.749 450.858 113.369 450.811 113.106 451.016L110.924 452.711C110.661 452.916 110.614 453.294 110.82 453.555L115.359 459.343C115.565 459.605 115.944 459.651 116.207 459.447L118.389 457.751C118.652 457.547 118.699 457.169 118.494 456.907Z" fill="#1C1C1C"/>
<path d="M171.132 534.781L180.925 542.277L181.923 541.494L179.056 531.172L171.132 534.781Z" fill="#1C1C1C"/>
<path d="M133.153 490.376C133.126 490.375 133.1 490.368 133.076 490.356C133.052 490.344 133.03 490.327 133.013 490.306L114.143 466.237C111.839 463.3 111.993 459.328 114.494 457.37L115.407 456.671C115.423 456.655 115.442 456.643 115.462 456.634C115.483 456.626 115.505 456.622 115.527 456.622C115.549 456.622 115.571 456.626 115.591 456.634C115.612 456.643 115.631 456.655 115.646 456.671C115.664 456.687 115.679 456.706 115.688 456.728C115.698 456.749 115.703 456.773 115.703 456.797C115.703 456.821 115.698 456.844 115.688 456.866C115.679 456.888 115.664 456.907 115.646 456.923L114.747 457.622C112.386 459.454 112.26 463.216 114.438 466.013L133.322 490.083C133.352 490.118 133.368 490.162 133.368 490.208C133.368 490.254 133.352 490.299 133.322 490.334C133.301 490.357 133.274 490.374 133.244 490.381C133.214 490.389 133.182 490.387 133.153 490.376Z" fill="#1C1C1C"/>
<path d="M143.916 494.222C143.916 494.222 137.789 489.034 133.195 489.635C128.6 490.236 113.271 506.725 112.653 516.487C112.035 526.249 108.058 532.053 115.112 536.067C122.165 540.081 133.195 546.445 140.543 544.305C140.543 544.305 153.526 545.787 154.987 542.333C154.987 542.333 166.369 545.955 167.212 538.207C167.212 538.207 175.375 536.92 174.883 531.955C174.391 526.991 143.916 494.222 143.916 494.222Z" fill="#FFBE9D"/>
<path d="M167.212 538.151C167.072 538.305 159.976 531.704 151.363 523.424C142.75 515.145 135.907 508.306 136.019 508.152C136.132 507.998 143.256 514.613 151.869 522.893C160.482 531.172 167.353 538.011 167.212 538.151Z" fill="#EB996E"/>
<path d="M154.987 542.277C154.497 542.169 154.025 541.995 153.582 541.759C152.407 541.222 151.262 540.619 150.154 539.955C146.504 537.753 143.049 535.246 139.827 532.459C136.033 529.228 132.801 526.11 130.441 523.844L127.701 521.131C127.055 520.487 126.717 520.11 126.76 520.068C127.17 520.315 127.551 520.605 127.898 520.935C128.6 521.508 129.584 522.333 130.792 523.466C133.223 525.634 136.525 528.683 140.304 531.858C143.507 534.616 146.892 537.157 150.435 539.466C153.231 541.256 155.044 542.165 154.987 542.277Z" fill="#EB996E"/>
<path d="M140.909 543.732C139.695 543.42 138.528 542.949 137.438 542.333C134.746 540.945 132.151 539.38 129.668 537.648C127.165 535.927 124.768 534.059 122.488 532.053C121.5 531.276 120.612 530.378 119.847 529.382C120.894 530.064 121.89 530.821 122.825 531.648C124.638 533.046 127.181 535.004 130.076 537.004C132.97 539.004 135.696 540.669 137.677 541.829C138.791 542.399 139.87 543.034 140.909 543.732Z" fill="#EB996E"/>
<path d="M431.336 498.782C422.248 494.513 412.02 493.272 402.167 495.243C385.461 498.488 350.419 506.809 338.307 508.194C326.195 509.579 275.079 520.963 275.079 520.963L280.46 551.214L447.396 550.864C450.403 532.627 456.038 510.012 431.336 498.782Z" fill="#FFBE9D"/>
<path d="M269.29 551.214H280.531L298.586 515.872C296.267 515.48 248.003 508.39 245.193 509.159L233.629 550.053C233.629 550.053 268.18 551.214 269.29 551.214Z" fill="#FFBE9D"/>
<path d="M236.257 550.696C236.257 550.766 236.566 550.822 237.058 550.878C241.035 551.311 259.427 550.193 259.427 550.193C260.256 547.829 258.668 540.739 256.378 540.319C254.088 539.899 234.529 541.214 234.529 541.214C234.529 541.214 231.452 541.62 230.679 546.808C230.201 549.983 236.257 550.696 236.257 550.696Z" fill="#FFBE9D"/>
<path d="M230.033 540.291C230.033 540.361 230.356 540.431 230.848 540.473C234.824 540.906 252.205 540.725 252.95 538.613C253.793 536.249 252.458 530.333 250.139 529.914C247.821 529.494 228.291 530.809 228.291 530.809C228.291 530.809 225.199 531.214 224.441 536.403C223.991 539.564 230.033 540.291 230.033 540.291Z" fill="#FFBE9D"/>
<path d="M226.956 530.137C227.207 530.252 227.48 530.314 227.756 530.319C231.747 530.753 249.128 530.557 249.872 528.445C250.715 526.081 249.38 520.166 247.062 519.76C244.744 519.354 225.199 520.655 225.199 520.655C225.199 520.655 222.122 521.061 221.349 526.249C220.914 529.396 226.956 530.137 226.956 530.137Z" fill="#FFBE9D"/>
<path d="M224.061 520.026C224.061 520.096 224.384 520.152 224.862 520.207C228.853 520.641 246.233 520.445 246.978 518.333C247.821 515.984 246.486 510.054 244.168 509.648C241.849 509.243 222.305 510.543 222.305 510.543C222.305 510.543 219.228 510.949 218.455 516.138C218.02 519.284 224.061 520.026 224.061 520.026Z" fill="#FFBE9D"/>
<path d="M251.306 540.193C251.306 540.487 247.484 540.836 242.875 540.976C238.267 541.116 234.445 540.976 234.515 540.669C234.585 540.361 238.323 540.025 242.946 539.885C247.568 539.745 251.32 539.927 251.306 540.193Z" fill="#EB996E"/>
<path d="M251.39 530.025C251.39 530.319 246.022 530.739 239.362 530.949C232.702 531.158 227.307 531.074 227.293 530.781C227.279 530.487 232.674 530.067 239.334 529.858C245.994 529.648 251.39 529.718 251.39 530.025Z" fill="#EB996E"/>
<path d="M250.575 519.648C250.575 519.956 245.194 520.361 238.548 520.571C231.902 520.781 226.478 520.711 226.478 520.417C226.478 520.123 231.845 519.704 238.505 519.494C245.165 519.285 250.561 519.354 250.575 519.648Z" fill="#EB996E"/>
<path d="M278.465 513.243C278.465 513.243 245.657 498.726 243.606 500.823C241.554 502.921 238.393 509.662 238.393 509.662L278.465 513.243Z" fill="#FFBE9D"/>
</g>
<defs>
<linearGradient id="paint0_linear_2670_27360" x1="495.203" y1="75.4812" x2="495.203" y2="226.162" gradientUnits="userSpaceOnUse">
<stop stop-color="#4FAE3F"/>
<stop offset="1" stop-color="#1E9C08"/>
</linearGradient>
<linearGradient id="paint1_linear_2670_27360" x1="455.728" y1="102.278" x2="455.728" y2="103.173" gradientUnits="userSpaceOnUse">
<stop stop-color="#4FAE3F"/>
<stop offset="1" stop-color="#1E9C08"/>
</linearGradient>
<linearGradient id="paint2_linear_2670_27360" x1="492.462" y1="113.522" x2="492.462" y2="114.417" gradientUnits="userSpaceOnUse">
<stop stop-color="#4FAE3F"/>
<stop offset="1" stop-color="#1E9C08"/>
</linearGradient>
<linearGradient id="paint3_linear_2670_27360" x1="439.787" y1="133.032" x2="439.787" y2="140.081" gradientUnits="userSpaceOnUse">
<stop stop-color="#4FAE3F"/>
<stop offset="1" stop-color="#1E9C08"/>
</linearGradient>
<linearGradient id="paint4_linear_2670_27360" x1="457.223" y1="133.032" x2="457.223" y2="140.081" gradientUnits="userSpaceOnUse">
<stop stop-color="#4FAE3F"/>
<stop offset="1" stop-color="#1E9C08"/>
</linearGradient>
<linearGradient id="paint5_linear_2670_27360" x1="474.998" y1="132.71" x2="474.998" y2="139.759" gradientUnits="userSpaceOnUse">
<stop stop-color="#4FAE3F"/>
<stop offset="1" stop-color="#1E9C08"/>
</linearGradient>
<linearGradient id="paint6_linear_2670_27360" x1="492.126" y1="133.032" x2="492.126" y2="140.081" gradientUnits="userSpaceOnUse">
<stop stop-color="#4FAE3F"/>
<stop offset="1" stop-color="#1E9C08"/>
</linearGradient>
<linearGradient id="paint7_linear_2670_27360" x1="509.577" y1="133.032" x2="509.577" y2="140.081" gradientUnits="userSpaceOnUse">
<stop stop-color="#4FAE3F"/>
<stop offset="1" stop-color="#1E9C08"/>
</linearGradient>
<linearGradient id="paint8_linear_2670_27360" x1="527.028" y1="133.032" x2="527.028" y2="140.081" gradientUnits="userSpaceOnUse">
<stop stop-color="#4FAE3F"/>
<stop offset="1" stop-color="#1E9C08"/>
</linearGradient>
<linearGradient id="paint9_linear_2670_27360" x1="457.223" y1="148.024" x2="457.223" y2="155.073" gradientUnits="userSpaceOnUse">
<stop stop-color="#4FAE3F"/>
<stop offset="1" stop-color="#1E9C08"/>
</linearGradient>
<linearGradient id="paint10_linear_2670_27360" x1="492.126" y1="148.024" x2="492.126" y2="155.073" gradientUnits="userSpaceOnUse">
<stop stop-color="#4FAE3F"/>
<stop offset="1" stop-color="#1E9C08"/>
</linearGradient>
<linearGradient id="paint11_linear_2670_27360" x1="509.577" y1="148.024" x2="509.577" y2="155.073" gradientUnits="userSpaceOnUse">
<stop stop-color="#4FAE3F"/>
<stop offset="1" stop-color="#1E9C08"/>
</linearGradient>
<linearGradient id="paint12_linear_2670_27360" x1="527.35" y1="147.703" x2="527.35" y2="154.766" gradientUnits="userSpaceOnUse">
<stop stop-color="#4FAE3F"/>
<stop offset="1" stop-color="#1E9C08"/>
</linearGradient>
<linearGradient id="paint13_linear_2670_27360" x1="544.478" y1="148.024" x2="544.478" y2="155.073" gradientUnits="userSpaceOnUse">
<stop stop-color="#4FAE3F"/>
<stop offset="1" stop-color="#1E9C08"/>
</linearGradient>
<linearGradient id="paint14_linear_2670_27360" x1="439.787" y1="163.031" x2="439.787" y2="170.08" gradientUnits="userSpaceOnUse">
<stop stop-color="#4FAE3F"/>
<stop offset="1" stop-color="#1E9C08"/>
</linearGradient>
<linearGradient id="paint15_linear_2670_27360" x1="457.547" y1="162.709" x2="457.547" y2="169.758" gradientUnits="userSpaceOnUse">
<stop stop-color="#4FAE3F"/>
<stop offset="1" stop-color="#1E9C08"/>
</linearGradient>
<linearGradient id="paint16_linear_2670_27360" x1="474.674" y1="163.031" x2="474.674" y2="170.08" gradientUnits="userSpaceOnUse">
<stop stop-color="#4FAE3F"/>
<stop offset="1" stop-color="#1E9C08"/>
</linearGradient>
<linearGradient id="paint17_linear_2670_27360" x1="509.577" y1="163.031" x2="509.577" y2="170.08" gradientUnits="userSpaceOnUse">
<stop stop-color="#4FAE3F"/>
<stop offset="1" stop-color="#1E9C08"/>
</linearGradient>
<linearGradient id="paint18_linear_2670_27360" x1="527.028" y1="163.031" x2="527.028" y2="170.08" gradientUnits="userSpaceOnUse">
<stop stop-color="#4FAE3F"/>
<stop offset="1" stop-color="#1E9C08"/>
</linearGradient>
<linearGradient id="paint19_linear_2670_27360" x1="544.478" y1="163.031" x2="544.478" y2="170.08" gradientUnits="userSpaceOnUse">
<stop stop-color="#4FAE3F"/>
<stop offset="1" stop-color="#1E9C08"/>
</linearGradient>
<linearGradient id="paint20_linear_2670_27360" x1="439.787" y1="178.024" x2="439.787" y2="185.086" gradientUnits="userSpaceOnUse">
<stop stop-color="#4FAE3F"/>
<stop offset="1" stop-color="#1E9C08"/>
</linearGradient>
<linearGradient id="paint21_linear_2670_27360" x1="457.223" y1="178.024" x2="457.223" y2="185.086" gradientUnits="userSpaceOnUse">
<stop stop-color="#4FAE3F"/>
<stop offset="1" stop-color="#1E9C08"/>
</linearGradient>
<linearGradient id="paint22_linear_2670_27360" x1="474.674" y1="178.024" x2="474.674" y2="185.086" gradientUnits="userSpaceOnUse">
<stop stop-color="#4FAE3F"/>
<stop offset="1" stop-color="#1E9C08"/>
</linearGradient>
<linearGradient id="paint23_linear_2670_27360" x1="492.448" y1="177.702" x2="492.448" y2="184.751" gradientUnits="userSpaceOnUse">
<stop stop-color="#4FAE3F"/>
<stop offset="1" stop-color="#1E9C08"/>
</linearGradient>
<linearGradient id="paint24_linear_2670_27360" x1="509.577" y1="178.024" x2="509.577" y2="185.086" gradientUnits="userSpaceOnUse">
<stop stop-color="#4FAE3F"/>
<stop offset="1" stop-color="#1E9C08"/>
</linearGradient>
<linearGradient id="paint25_linear_2670_27360" x1="544.478" y1="178.024" x2="544.478" y2="185.086" gradientUnits="userSpaceOnUse">
<stop stop-color="#4FAE3F"/>
<stop offset="1" stop-color="#1E9C08"/>
</linearGradient>
<linearGradient id="paint26_linear_2670_27360" x1="439.787" y1="193.03" x2="439.787" y2="200.079" gradientUnits="userSpaceOnUse">
<stop stop-color="#4FAE3F"/>
<stop offset="1" stop-color="#1E9C08"/>
</linearGradient>
<linearGradient id="paint27_linear_2670_27360" x1="474.674" y1="193.03" x2="474.674" y2="200.079" gradientUnits="userSpaceOnUse">
<stop stop-color="#4FAE3F"/>
<stop offset="1" stop-color="#1E9C08"/>
</linearGradient>
<linearGradient id="paint28_linear_2670_27360" x1="492.126" y1="193.03" x2="492.126" y2="200.079" gradientUnits="userSpaceOnUse">
<stop stop-color="#4FAE3F"/>
<stop offset="1" stop-color="#1E9C08"/>
</linearGradient>
<linearGradient id="paint29_linear_2670_27360" x1="509.577" y1="193.03" x2="509.577" y2="200.079" gradientUnits="userSpaceOnUse">
<stop stop-color="#4FAE3F"/>
<stop offset="1" stop-color="#1E9C08"/>
</linearGradient>
<linearGradient id="paint30_linear_2670_27360" x1="527.35" y1="192.708" x2="527.35" y2="199.757" gradientUnits="userSpaceOnUse">
<stop stop-color="#4FAE3F"/>
<stop offset="1" stop-color="#1E9C08"/>
</linearGradient>
<linearGradient id="paint31_linear_2670_27360" x1="68.8042" y1="363.89" x2="68.8042" y2="538.417" gradientUnits="userSpaceOnUse">
<stop stop-color="#4FAE3F"/>
<stop offset="1" stop-color="#1E9C08"/>
</linearGradient>
<linearGradient id="paint32_linear_2670_27360" x1="413.291" y1="344.143" x2="413.291" y2="550.928" gradientUnits="userSpaceOnUse">
<stop stop-color="#FF4142"/>
<stop offset="1" stop-color="#DF2328"/>
</linearGradient>
<linearGradient id="paint33_linear_2670_27360" x1="317.499" y1="341.737" x2="317.499" y2="553.256" gradientUnits="userSpaceOnUse">
<stop stop-color="#FF4142"/>
<stop offset="1" stop-color="#DF2328"/>
</linearGradient>
<linearGradient id="paint34_linear_2670_27360" x1="177.428" y1="359.989" x2="177.428" y2="549.507" gradientUnits="userSpaceOnUse">
<stop stop-color="#FF4142"/>
<stop offset="1" stop-color="#DF2328"/>
</linearGradient>
<linearGradient id="paint35_linear_2670_27360" x1="300.203" y1="190.441" x2="300.203" y2="211.685" gradientUnits="userSpaceOnUse">
<stop stop-color="#FF4142"/>
<stop offset="1" stop-color="#DF2328"/>
</linearGradient>
<clipPath id="clip0_2670_27360">
<rect width="640" height="640" fill="white"/>
</clipPath>
</defs>
</svg>
